G04 EAGLE Gerber RS-274X export*
G75*
%MOMM*%
%FSLAX34Y34*%
%LPD*%
%INTop Copper*%
%IPPOS*%
%AMOC8*
5,1,8,0,0,1.08239X$1,22.5*%
G01*
%ADD10P,1.732040X8X112.500000*%
%ADD11C,1.600200*%
%ADD12P,1.732040X8X22.500000*%
%ADD13P,1.649562X8X22.500000*%
%ADD14C,1.981200*%
%ADD15C,1.320800*%
%ADD16P,1.082390X8X22.500000*%
%ADD17C,0.500000*%


D10*
X538480Y53340D03*
D11*
X538480Y27940D03*
D12*
X551180Y149860D03*
D11*
X525780Y149860D03*
D13*
X22860Y109220D03*
D14*
X53594Y172974D02*
X73406Y172974D01*
X73406Y223012D02*
X53594Y223012D01*
X626364Y28194D02*
X646176Y28194D01*
X646176Y78232D02*
X626364Y78232D01*
X626364Y150114D02*
X646176Y150114D01*
X646176Y200152D02*
X626364Y200152D01*
D15*
X420624Y226060D02*
X407416Y226060D01*
X407416Y200660D02*
X420624Y200660D01*
X483616Y200660D02*
X496824Y200660D01*
X496824Y226060D02*
X483616Y226060D01*
X420624Y175260D02*
X407416Y175260D01*
X407416Y149860D02*
X420624Y149860D01*
X483616Y175260D02*
X496824Y175260D01*
X496824Y149860D02*
X483616Y149860D01*
D16*
X170180Y228600D03*
D17*
X170180Y274320D01*
D16*
X170180Y274320D03*
X218440Y134620D03*
D17*
X269240Y134620D01*
D16*
X269240Y134620D03*
X474980Y68580D03*
D17*
X426720Y68580D01*
D16*
X426720Y68580D03*
M02*
