G04 EAGLE Gerber RS-274X export*
G75*
%MOMM*%
%FSLAX34Y34*%
%LPD*%
%IN*%
%IPPOS*%
%AMOC8*
5,1,8,0,0,1.08239X$1,22.5*%
G01*
%ADD10C,0.254000*%


D10*
X0Y0D02*
X700000Y0D01*
X700000Y300000D01*
X0Y300000D01*
X0Y0D01*
X675000Y259464D02*
X674924Y258396D01*
X674771Y257335D01*
X674543Y256288D01*
X674241Y255260D01*
X673867Y254256D01*
X673422Y253281D01*
X672908Y252341D01*
X672329Y251440D01*
X671687Y250582D01*
X670985Y249772D01*
X670228Y249015D01*
X669418Y248313D01*
X668560Y247671D01*
X667659Y247092D01*
X666719Y246578D01*
X665744Y246133D01*
X664740Y245759D01*
X663712Y245457D01*
X662665Y245229D01*
X661604Y245076D01*
X660536Y245000D01*
X659464Y245000D01*
X658396Y245076D01*
X657335Y245229D01*
X656288Y245457D01*
X655260Y245759D01*
X654256Y246133D01*
X653281Y246578D01*
X652341Y247092D01*
X651440Y247671D01*
X650582Y248313D01*
X649772Y249015D01*
X649015Y249772D01*
X648313Y250582D01*
X647671Y251440D01*
X647092Y252341D01*
X646578Y253281D01*
X646133Y254256D01*
X645759Y255260D01*
X645457Y256288D01*
X645229Y257335D01*
X645076Y258396D01*
X645000Y259464D01*
X645000Y260536D01*
X645076Y261604D01*
X645229Y262665D01*
X645457Y263712D01*
X645759Y264740D01*
X646133Y265744D01*
X646578Y266719D01*
X647092Y267659D01*
X647671Y268560D01*
X648313Y269418D01*
X649015Y270228D01*
X649772Y270985D01*
X650582Y271687D01*
X651440Y272329D01*
X652341Y272908D01*
X653281Y273422D01*
X654256Y273867D01*
X655260Y274241D01*
X656288Y274543D01*
X657335Y274771D01*
X658396Y274924D01*
X659464Y275000D01*
X660536Y275000D01*
X661604Y274924D01*
X662665Y274771D01*
X663712Y274543D01*
X664740Y274241D01*
X665744Y273867D01*
X666719Y273422D01*
X667659Y272908D01*
X668560Y272329D01*
X669418Y271687D01*
X670228Y270985D01*
X670985Y270228D01*
X671687Y269418D01*
X672329Y268560D01*
X672908Y267659D01*
X673422Y266719D01*
X673867Y265744D01*
X674241Y264740D01*
X674543Y263712D01*
X674771Y262665D01*
X674924Y261604D01*
X675000Y260536D01*
X675000Y259464D01*
X315000Y99464D02*
X314924Y98396D01*
X314771Y97335D01*
X314543Y96288D01*
X314241Y95260D01*
X313867Y94256D01*
X313422Y93281D01*
X312908Y92341D01*
X312329Y91440D01*
X311687Y90582D01*
X310985Y89772D01*
X310228Y89015D01*
X309418Y88313D01*
X308560Y87671D01*
X307659Y87092D01*
X306719Y86578D01*
X305744Y86133D01*
X304740Y85759D01*
X303712Y85457D01*
X302665Y85229D01*
X301604Y85076D01*
X300536Y85000D01*
X299464Y85000D01*
X298396Y85076D01*
X297335Y85229D01*
X296288Y85457D01*
X295260Y85759D01*
X294256Y86133D01*
X293281Y86578D01*
X292341Y87092D01*
X291440Y87671D01*
X290582Y88313D01*
X289772Y89015D01*
X289015Y89772D01*
X288313Y90582D01*
X287671Y91440D01*
X287092Y92341D01*
X286578Y93281D01*
X286133Y94256D01*
X285759Y95260D01*
X285457Y96288D01*
X285229Y97335D01*
X285076Y98396D01*
X285000Y99464D01*
X285000Y100536D01*
X285076Y101604D01*
X285229Y102665D01*
X285457Y103712D01*
X285759Y104740D01*
X286133Y105744D01*
X286578Y106719D01*
X287092Y107659D01*
X287671Y108560D01*
X288313Y109418D01*
X289015Y110228D01*
X289772Y110985D01*
X290582Y111687D01*
X291440Y112329D01*
X292341Y112908D01*
X293281Y113422D01*
X294256Y113867D01*
X295260Y114241D01*
X296288Y114543D01*
X297335Y114771D01*
X298396Y114924D01*
X299464Y115000D01*
X300536Y115000D01*
X301604Y114924D01*
X302665Y114771D01*
X303712Y114543D01*
X304740Y114241D01*
X305744Y113867D01*
X306719Y113422D01*
X307659Y112908D01*
X308560Y112329D01*
X309418Y111687D01*
X310228Y110985D01*
X310985Y110228D01*
X311687Y109418D01*
X312329Y108560D01*
X312908Y107659D01*
X313422Y106719D01*
X313867Y105744D01*
X314241Y104740D01*
X314543Y103712D01*
X314771Y102665D01*
X314924Y101604D01*
X315000Y100536D01*
X315000Y99464D01*
X55000Y39464D02*
X54924Y38396D01*
X54771Y37335D01*
X54543Y36288D01*
X54241Y35260D01*
X53867Y34256D01*
X53422Y33281D01*
X52908Y32341D01*
X52329Y31440D01*
X51687Y30582D01*
X50985Y29772D01*
X50228Y29015D01*
X49418Y28313D01*
X48560Y27671D01*
X47659Y27092D01*
X46719Y26578D01*
X45744Y26133D01*
X44740Y25759D01*
X43712Y25457D01*
X42665Y25229D01*
X41604Y25076D01*
X40536Y25000D01*
X39464Y25000D01*
X38396Y25076D01*
X37335Y25229D01*
X36288Y25457D01*
X35260Y25759D01*
X34256Y26133D01*
X33281Y26578D01*
X32341Y27092D01*
X31440Y27671D01*
X30582Y28313D01*
X29772Y29015D01*
X29015Y29772D01*
X28313Y30582D01*
X27671Y31440D01*
X27092Y32341D01*
X26578Y33281D01*
X26133Y34256D01*
X25759Y35260D01*
X25457Y36288D01*
X25229Y37335D01*
X25076Y38396D01*
X25000Y39464D01*
X25000Y40536D01*
X25076Y41604D01*
X25229Y42665D01*
X25457Y43712D01*
X25759Y44740D01*
X26133Y45744D01*
X26578Y46719D01*
X27092Y47659D01*
X27671Y48560D01*
X28313Y49418D01*
X29015Y50228D01*
X29772Y50985D01*
X30582Y51687D01*
X31440Y52329D01*
X32341Y52908D01*
X33281Y53422D01*
X34256Y53867D01*
X35260Y54241D01*
X36288Y54543D01*
X37335Y54771D01*
X38396Y54924D01*
X39464Y55000D01*
X40536Y55000D01*
X41604Y54924D01*
X42665Y54771D01*
X43712Y54543D01*
X44740Y54241D01*
X45744Y53867D01*
X46719Y53422D01*
X47659Y52908D01*
X48560Y52329D01*
X49418Y51687D01*
X50228Y50985D01*
X50985Y50228D01*
X51687Y49418D01*
X52329Y48560D01*
X52908Y47659D01*
X53422Y46719D01*
X53867Y45744D01*
X54241Y44740D01*
X54543Y43712D01*
X54771Y42665D01*
X54924Y41604D01*
X55000Y40536D01*
X55000Y39464D01*
M02*
