G04 EAGLE Gerber RS-274X export*
G75*
%MOMM*%
%FSLAX34Y34*%
%LPD*%
%INSolderpaste Bottom*%
%IPPOS*%
%AMOC8*
5,1,8,0,0,1.08239X$1,22.5*%
G01*
%ADD10R,1.500000X1.300000*%
%ADD11R,1.300000X1.500000*%
%ADD12R,2.000000X0.900000*%
%ADD13R,2.000000X1.300000*%
%ADD14R,2.200000X0.600000*%


D10*
X96520Y108560D03*
X96520Y89560D03*
D11*
X469240Y119380D03*
X450240Y119380D03*
D10*
X546100Y258420D03*
X546100Y239420D03*
D11*
X489560Y259080D03*
X470560Y259080D03*
D10*
X497840Y108560D03*
X497840Y89560D03*
X129540Y89560D03*
X129540Y108560D03*
D11*
X142900Y210820D03*
X161900Y210820D03*
D10*
X490220Y47600D03*
X490220Y28600D03*
X335280Y245720D03*
X335280Y226720D03*
D11*
X263500Y165100D03*
X244500Y165100D03*
D10*
X274320Y245720D03*
X274320Y226720D03*
D11*
X382880Y198120D03*
X363880Y198120D03*
X363880Y175260D03*
X382880Y175260D03*
D10*
X63500Y108560D03*
X63500Y89560D03*
X378460Y246990D03*
X378460Y227990D03*
D12*
X443640Y285780D03*
D13*
X399640Y271780D03*
D12*
X443640Y257780D03*
D11*
X526440Y200660D03*
X545440Y200660D03*
D10*
X525780Y108560D03*
X525780Y89560D03*
X129540Y47600D03*
X129540Y28600D03*
D11*
X161900Y246380D03*
X142900Y246380D03*
D10*
X162560Y108560D03*
X162560Y89560D03*
D11*
X233020Y274320D03*
X214020Y274320D03*
D10*
X304800Y226720D03*
X304800Y245720D03*
X195580Y28600D03*
X195580Y47600D03*
X162560Y47600D03*
X162560Y28600D03*
X335280Y178460D03*
X335280Y197460D03*
D14*
X192440Y199390D03*
X244440Y199390D03*
X192440Y186690D03*
X192440Y212090D03*
X192440Y224790D03*
X244440Y186690D03*
X244440Y212090D03*
X244440Y224790D03*
M02*
