G04 EAGLE Gerber RS-274X export*
G75*
%MOMM*%
%FSLAX34Y34*%
%LPD*%
%INBottom Copper*%
%IPPOS*%
%AMOC8*
5,1,8,0,0,1.08239X$1,22.5*%
G01*
%ADD10R,4.191000X2.667000*%
%ADD11C,1.524000*%
%ADD12P,2.164780X8X22.500000*%

G36*
X390050Y-369D02*
X390050Y-369D01*
X390101Y-367D01*
X390133Y-349D01*
X390169Y-341D01*
X390208Y-308D01*
X390253Y-284D01*
X390274Y-254D01*
X390302Y-231D01*
X390323Y-184D01*
X390353Y-142D01*
X390361Y-100D01*
X390373Y-72D01*
X390372Y-42D01*
X390380Y0D01*
X390380Y250000D01*
X390369Y250050D01*
X390367Y250101D01*
X390349Y250133D01*
X390341Y250169D01*
X390308Y250208D01*
X390284Y250253D01*
X390254Y250274D01*
X390231Y250302D01*
X390184Y250323D01*
X390142Y250353D01*
X390100Y250361D01*
X390072Y250373D01*
X390042Y250372D01*
X390000Y250380D01*
X0Y250380D01*
X-50Y250369D01*
X-101Y250367D01*
X-133Y250349D01*
X-169Y250341D01*
X-208Y250308D01*
X-253Y250284D01*
X-274Y250254D01*
X-302Y250231D01*
X-323Y250184D01*
X-353Y250142D01*
X-361Y250100D01*
X-373Y250072D01*
X-372Y250042D01*
X-380Y250000D01*
X-380Y168042D01*
X-369Y167992D01*
X-367Y167941D01*
X-349Y167909D01*
X-341Y167873D01*
X-308Y167834D01*
X-284Y167789D01*
X-254Y167768D01*
X-231Y167740D01*
X-184Y167719D01*
X-142Y167689D01*
X-100Y167681D01*
X-72Y167669D01*
X-42Y167670D01*
X0Y167662D01*
X20393Y167662D01*
X20393Y152167D01*
X20404Y152117D01*
X20406Y152066D01*
X20424Y152034D01*
X20432Y151998D01*
X20465Y151959D01*
X20489Y151914D01*
X20519Y151893D01*
X20542Y151865D01*
X20589Y151844D01*
X20631Y151814D01*
X20673Y151806D01*
X20701Y151794D01*
X20731Y151795D01*
X20773Y151787D01*
X21155Y151787D01*
X21155Y151785D01*
X20773Y151785D01*
X20723Y151774D01*
X20672Y151772D01*
X20640Y151754D01*
X20604Y151746D01*
X20565Y151713D01*
X20520Y151689D01*
X20499Y151659D01*
X20471Y151635D01*
X20450Y151589D01*
X20420Y151547D01*
X20412Y151505D01*
X20400Y151477D01*
X20401Y151447D01*
X20393Y151405D01*
X20393Y135910D01*
X0Y135910D01*
X-50Y135899D01*
X-101Y135897D01*
X-133Y135879D01*
X-169Y135871D01*
X-208Y135838D01*
X-253Y135814D01*
X-274Y135784D01*
X-302Y135761D01*
X-323Y135714D01*
X-353Y135672D01*
X-361Y135630D01*
X-373Y135602D01*
X-372Y135572D01*
X-380Y135530D01*
X-380Y98150D01*
X-369Y98100D01*
X-367Y98049D01*
X-349Y98017D01*
X-341Y97981D01*
X-308Y97942D01*
X-284Y97897D01*
X-254Y97876D01*
X-231Y97848D01*
X-184Y97827D01*
X-142Y97797D01*
X-100Y97789D01*
X-72Y97777D01*
X-42Y97778D01*
X0Y97770D01*
X20393Y97770D01*
X20393Y82275D01*
X20404Y82225D01*
X20406Y82174D01*
X20424Y82142D01*
X20432Y82106D01*
X20465Y82067D01*
X20489Y82022D01*
X20519Y82001D01*
X20542Y81973D01*
X20589Y81952D01*
X20631Y81922D01*
X20673Y81914D01*
X20701Y81902D01*
X20731Y81903D01*
X20773Y81895D01*
X21155Y81895D01*
X21155Y81893D01*
X20773Y81893D01*
X20723Y81882D01*
X20672Y81880D01*
X20640Y81862D01*
X20604Y81854D01*
X20565Y81821D01*
X20520Y81797D01*
X20499Y81767D01*
X20471Y81743D01*
X20450Y81697D01*
X20420Y81655D01*
X20412Y81613D01*
X20400Y81585D01*
X20401Y81555D01*
X20393Y81513D01*
X20393Y66018D01*
X0Y66018D01*
X-50Y66007D01*
X-101Y66005D01*
X-133Y65987D01*
X-169Y65979D01*
X-208Y65946D01*
X-253Y65922D01*
X-274Y65892D01*
X-302Y65869D01*
X-323Y65822D01*
X-353Y65780D01*
X-361Y65738D01*
X-373Y65710D01*
X-372Y65680D01*
X-380Y65638D01*
X-380Y0D01*
X-369Y-50D01*
X-367Y-101D01*
X-349Y-133D01*
X-341Y-169D01*
X-308Y-208D01*
X-284Y-253D01*
X-254Y-274D01*
X-231Y-302D01*
X-184Y-323D01*
X-142Y-353D01*
X-100Y-361D01*
X-72Y-373D01*
X-42Y-372D01*
X0Y-380D01*
X390000Y-380D01*
X390050Y-369D01*
G37*
%LPC*%
G36*
X28004Y192999D02*
X28004Y192999D01*
X19918Y196349D01*
X13729Y202538D01*
X10379Y210624D01*
X10379Y219376D01*
X13729Y227462D01*
X19918Y233651D01*
X28004Y237001D01*
X36756Y237001D01*
X44842Y233651D01*
X51031Y227462D01*
X54381Y219376D01*
X54381Y210624D01*
X51031Y202538D01*
X44842Y196349D01*
X36756Y192999D01*
X28004Y192999D01*
G37*
%LPD*%
%LPC*%
G36*
X140624Y7999D02*
X140624Y7999D01*
X132538Y11349D01*
X126349Y17538D01*
X122999Y25624D01*
X122999Y34376D01*
X126349Y42462D01*
X132538Y48651D01*
X140624Y52001D01*
X149376Y52001D01*
X157462Y48651D01*
X163651Y42462D01*
X167001Y34376D01*
X167001Y25624D01*
X163651Y17538D01*
X157462Y11349D01*
X149376Y7999D01*
X140624Y7999D01*
G37*
%LPD*%
%LPC*%
G36*
X182879Y177799D02*
X182879Y177799D01*
X182879Y178181D01*
X182867Y178231D01*
X182866Y178282D01*
X182848Y178314D01*
X182840Y178350D01*
X182807Y178389D01*
X182783Y178434D01*
X182753Y178455D01*
X182729Y178483D01*
X182683Y178504D01*
X182641Y178534D01*
X182599Y178542D01*
X182571Y178554D01*
X182541Y178553D01*
X182499Y178561D01*
X165099Y178561D01*
X165099Y178600D01*
X165349Y180179D01*
X165844Y181700D01*
X166570Y183125D01*
X167510Y184419D01*
X168641Y185550D01*
X169935Y186490D01*
X171360Y187216D01*
X172881Y187711D01*
X173594Y187823D01*
X173647Y187845D01*
X173703Y187858D01*
X173726Y187877D01*
X173754Y187889D01*
X173792Y187932D01*
X173837Y187968D01*
X173849Y187996D01*
X173869Y188019D01*
X173884Y188074D01*
X173907Y188127D01*
X173906Y188157D01*
X173914Y188186D01*
X173903Y188242D01*
X173901Y188300D01*
X173886Y188326D01*
X173881Y188356D01*
X173846Y188401D01*
X173818Y188452D01*
X173793Y188469D01*
X173775Y188493D01*
X173723Y188519D01*
X173676Y188552D01*
X173643Y188558D01*
X173620Y188570D01*
X173576Y188571D01*
X173534Y188579D01*
X172352Y188579D01*
X166978Y190805D01*
X162865Y194918D01*
X160639Y200292D01*
X160639Y206108D01*
X162865Y211482D01*
X166978Y215595D01*
X172352Y217821D01*
X193408Y217821D01*
X198782Y215595D01*
X202895Y211482D01*
X205121Y206108D01*
X205121Y200292D01*
X202895Y194918D01*
X198782Y190805D01*
X193408Y188579D01*
X192226Y188579D01*
X192170Y188566D01*
X192113Y188562D01*
X192087Y188547D01*
X192057Y188540D01*
X192013Y188503D01*
X191963Y188474D01*
X191947Y188449D01*
X191923Y188430D01*
X191900Y188377D01*
X191868Y188329D01*
X191865Y188299D01*
X191853Y188271D01*
X191855Y188214D01*
X191848Y188157D01*
X191858Y188129D01*
X191859Y188098D01*
X191887Y188048D01*
X191906Y187994D01*
X191927Y187973D01*
X191942Y187946D01*
X191989Y187913D01*
X192030Y187873D01*
X192062Y187861D01*
X192084Y187846D01*
X192126Y187838D01*
X192166Y187823D01*
X192879Y187711D01*
X194400Y187216D01*
X195825Y186490D01*
X197119Y185550D01*
X198250Y184419D01*
X199190Y183125D01*
X199916Y181700D01*
X200411Y180179D01*
X200661Y178600D01*
X200661Y178561D01*
X183261Y178561D01*
X183211Y178550D01*
X183160Y178548D01*
X183128Y178530D01*
X183092Y178522D01*
X183053Y178489D01*
X183008Y178465D01*
X182987Y178435D01*
X182959Y178412D01*
X182938Y178365D01*
X182909Y178323D01*
X182900Y178281D01*
X182888Y178253D01*
X182889Y178223D01*
X182881Y178181D01*
X182881Y177799D01*
X182879Y177799D01*
G37*
%LPD*%
%LPC*%
G36*
X21915Y152547D02*
X21915Y152547D01*
X21915Y167662D01*
X42444Y167662D01*
X43090Y167489D01*
X43669Y167154D01*
X44142Y166681D01*
X44477Y166102D01*
X44650Y165456D01*
X44650Y152547D01*
X21915Y152547D01*
G37*
%LPD*%
%LPC*%
G36*
X199607Y114447D02*
X199607Y114447D01*
X199607Y129562D01*
X220136Y129562D01*
X220782Y129389D01*
X221361Y129054D01*
X221834Y128581D01*
X222169Y128002D01*
X222342Y127356D01*
X222342Y114447D01*
X199607Y114447D01*
G37*
%LPD*%
%LPC*%
G36*
X21915Y82655D02*
X21915Y82655D01*
X21915Y97770D01*
X42444Y97770D01*
X43090Y97597D01*
X43669Y97262D01*
X44142Y96789D01*
X44477Y96210D01*
X44650Y95564D01*
X44650Y82655D01*
X21915Y82655D01*
G37*
%LPD*%
%LPC*%
G36*
X199607Y44555D02*
X199607Y44555D01*
X199607Y59670D01*
X220136Y59670D01*
X220782Y59497D01*
X221361Y59162D01*
X221834Y58689D01*
X222169Y58110D01*
X222342Y57464D01*
X222342Y44555D01*
X199607Y44555D01*
G37*
%LPD*%
%LPC*%
G36*
X175350Y114447D02*
X175350Y114447D01*
X175350Y127356D01*
X175523Y128002D01*
X175858Y128581D01*
X176331Y129054D01*
X176910Y129389D01*
X177556Y129562D01*
X198085Y129562D01*
X198085Y114447D01*
X175350Y114447D01*
G37*
%LPD*%
%LPC*%
G36*
X175350Y44555D02*
X175350Y44555D01*
X175350Y57464D01*
X175523Y58110D01*
X175858Y58689D01*
X176331Y59162D01*
X176910Y59497D01*
X177556Y59670D01*
X198085Y59670D01*
X198085Y44555D01*
X175350Y44555D01*
G37*
%LPD*%
%LPC*%
G36*
X21915Y135910D02*
X21915Y135910D01*
X21915Y151025D01*
X44650Y151025D01*
X44650Y138116D01*
X44477Y137470D01*
X44142Y136891D01*
X43669Y136418D01*
X43090Y136083D01*
X42444Y135910D01*
X21915Y135910D01*
G37*
%LPD*%
%LPC*%
G36*
X21915Y66018D02*
X21915Y66018D01*
X21915Y81133D01*
X44650Y81133D01*
X44650Y68224D01*
X44477Y67578D01*
X44142Y66999D01*
X43669Y66526D01*
X43090Y66191D01*
X42444Y66018D01*
X21915Y66018D01*
G37*
%LPD*%
%LPC*%
G36*
X199607Y97810D02*
X199607Y97810D01*
X199607Y112925D01*
X222342Y112925D01*
X222342Y100016D01*
X222169Y99370D01*
X221834Y98791D01*
X221361Y98318D01*
X220782Y97983D01*
X220136Y97810D01*
X199607Y97810D01*
G37*
%LPD*%
%LPC*%
G36*
X199607Y27918D02*
X199607Y27918D01*
X199607Y43033D01*
X222342Y43033D01*
X222342Y30124D01*
X222169Y29478D01*
X221834Y28899D01*
X221361Y28426D01*
X220782Y28091D01*
X220136Y27918D01*
X199607Y27918D01*
G37*
%LPD*%
%LPC*%
G36*
X177556Y97810D02*
X177556Y97810D01*
X176910Y97983D01*
X176331Y98318D01*
X175858Y98791D01*
X175523Y99370D01*
X175350Y100016D01*
X175350Y112925D01*
X198085Y112925D01*
X198085Y97810D01*
X177556Y97810D01*
G37*
%LPD*%
%LPC*%
G36*
X177556Y27918D02*
X177556Y27918D01*
X176910Y28091D01*
X176331Y28426D01*
X175858Y28899D01*
X175523Y29478D01*
X175350Y30124D01*
X175350Y43033D01*
X198085Y43033D01*
X198085Y27918D01*
X177556Y27918D01*
G37*
%LPD*%
%LPC*%
G36*
X183641Y167639D02*
X183641Y167639D01*
X183641Y177039D01*
X200661Y177039D01*
X200661Y177000D01*
X200411Y175421D01*
X199916Y173900D01*
X199190Y172475D01*
X198250Y171181D01*
X197119Y170050D01*
X195825Y169110D01*
X194400Y168384D01*
X192879Y167889D01*
X191300Y167639D01*
X183641Y167639D01*
G37*
%LPD*%
%LPC*%
G36*
X174460Y167639D02*
X174460Y167639D01*
X172881Y167889D01*
X171360Y168384D01*
X169935Y169110D01*
X168641Y170050D01*
X167510Y171181D01*
X166570Y172475D01*
X165844Y173900D01*
X165349Y175421D01*
X165099Y177000D01*
X165099Y177039D01*
X182119Y177039D01*
X182119Y167639D01*
X174460Y167639D01*
G37*
%LPD*%
%LPC*%
G36*
X198845Y113685D02*
X198845Y113685D01*
X198845Y113687D01*
X198847Y113687D01*
X198847Y113685D01*
X198845Y113685D01*
G37*
%LPD*%
%LPC*%
G36*
X198845Y43793D02*
X198845Y43793D01*
X198845Y43795D01*
X198847Y43795D01*
X198847Y43793D01*
X198845Y43793D01*
G37*
%LPD*%
D10*
X21154Y81894D03*
X21154Y151786D03*
X198846Y113686D03*
X198846Y43794D03*
D11*
X190500Y203200D02*
X175260Y203200D01*
X175260Y177800D02*
X190500Y177800D01*
D12*
X60960Y27940D03*
M02*
