G04 EAGLE Gerber RS-274X export*
G75*
%MOMM*%
%FSLAX34Y34*%
%LPD*%
%IN*%
%IPPOS*%
%AMOC8*
5,1,8,0,0,1.08239X$1,22.5*%
G01*
%ADD10C,0.254000*%


D10*
X0Y0D02*
X220000Y0D01*
X220000Y250000D01*
X0Y250000D01*
X0Y0D01*
X47380Y214464D02*
X47304Y213396D01*
X47151Y212335D01*
X46923Y211288D01*
X46621Y210260D01*
X46247Y209256D01*
X45802Y208281D01*
X45288Y207341D01*
X44709Y206440D01*
X44067Y205582D01*
X43365Y204772D01*
X42608Y204015D01*
X41798Y203313D01*
X40940Y202671D01*
X40039Y202092D01*
X39099Y201578D01*
X38124Y201133D01*
X37120Y200759D01*
X36092Y200457D01*
X35045Y200229D01*
X33984Y200076D01*
X32916Y200000D01*
X31844Y200000D01*
X30776Y200076D01*
X29715Y200229D01*
X28668Y200457D01*
X27640Y200759D01*
X26636Y201133D01*
X25661Y201578D01*
X24721Y202092D01*
X23820Y202671D01*
X22962Y203313D01*
X22152Y204015D01*
X21395Y204772D01*
X20693Y205582D01*
X20051Y206440D01*
X19472Y207341D01*
X18958Y208281D01*
X18513Y209256D01*
X18139Y210260D01*
X17837Y211288D01*
X17609Y212335D01*
X17456Y213396D01*
X17380Y214464D01*
X17380Y215536D01*
X17456Y216604D01*
X17609Y217665D01*
X17837Y218712D01*
X18139Y219740D01*
X18513Y220744D01*
X18958Y221719D01*
X19472Y222659D01*
X20051Y223560D01*
X20693Y224418D01*
X21395Y225228D01*
X22152Y225985D01*
X22962Y226687D01*
X23820Y227329D01*
X24721Y227908D01*
X25661Y228422D01*
X26636Y228867D01*
X27640Y229241D01*
X28668Y229543D01*
X29715Y229771D01*
X30776Y229924D01*
X31844Y230000D01*
X32916Y230000D01*
X33984Y229924D01*
X35045Y229771D01*
X36092Y229543D01*
X37120Y229241D01*
X38124Y228867D01*
X39099Y228422D01*
X40039Y227908D01*
X40940Y227329D01*
X41798Y226687D01*
X42608Y225985D01*
X43365Y225228D01*
X44067Y224418D01*
X44709Y223560D01*
X45288Y222659D01*
X45802Y221719D01*
X46247Y220744D01*
X46621Y219740D01*
X46923Y218712D01*
X47151Y217665D01*
X47304Y216604D01*
X47380Y215536D01*
X47380Y214464D01*
X160000Y29464D02*
X159924Y28396D01*
X159771Y27335D01*
X159543Y26288D01*
X159241Y25260D01*
X158867Y24256D01*
X158422Y23281D01*
X157908Y22341D01*
X157329Y21440D01*
X156687Y20582D01*
X155985Y19772D01*
X155228Y19015D01*
X154418Y18313D01*
X153560Y17671D01*
X152659Y17092D01*
X151719Y16578D01*
X150744Y16133D01*
X149740Y15759D01*
X148712Y15457D01*
X147665Y15229D01*
X146604Y15076D01*
X145536Y15000D01*
X144464Y15000D01*
X143396Y15076D01*
X142335Y15229D01*
X141288Y15457D01*
X140260Y15759D01*
X139256Y16133D01*
X138281Y16578D01*
X137341Y17092D01*
X136440Y17671D01*
X135582Y18313D01*
X134772Y19015D01*
X134015Y19772D01*
X133313Y20582D01*
X132671Y21440D01*
X132092Y22341D01*
X131578Y23281D01*
X131133Y24256D01*
X130759Y25260D01*
X130457Y26288D01*
X130229Y27335D01*
X130076Y28396D01*
X130000Y29464D01*
X130000Y30536D01*
X130076Y31604D01*
X130229Y32665D01*
X130457Y33712D01*
X130759Y34740D01*
X131133Y35744D01*
X131578Y36719D01*
X132092Y37659D01*
X132671Y38560D01*
X133313Y39418D01*
X134015Y40228D01*
X134772Y40985D01*
X135582Y41687D01*
X136440Y42329D01*
X137341Y42908D01*
X138281Y43422D01*
X139256Y43867D01*
X140260Y44241D01*
X141288Y44543D01*
X142335Y44771D01*
X143396Y44924D01*
X144464Y45000D01*
X145536Y45000D01*
X146604Y44924D01*
X147665Y44771D01*
X148712Y44543D01*
X149740Y44241D01*
X150744Y43867D01*
X151719Y43422D01*
X152659Y42908D01*
X153560Y42329D01*
X154418Y41687D01*
X155228Y40985D01*
X155985Y40228D01*
X156687Y39418D01*
X157329Y38560D01*
X157908Y37659D01*
X158422Y36719D01*
X158867Y35744D01*
X159241Y34740D01*
X159543Y33712D01*
X159771Y32665D01*
X159924Y31604D01*
X160000Y30536D01*
X160000Y29464D01*
M02*
