G04 EAGLE Gerber RS-274X export*
G75*
%MOMM*%
%FSLAX34Y34*%
%LPD*%
%INSilkscreen Top*%
%IPPOS*%
%AMOC8*
5,1,8,0,0,1.08239X$1,22.5*%
G01*
%ADD10C,0.101600*%
%ADD11C,0.203200*%
%ADD12C,0.152400*%
%ADD13C,0.127000*%


D10*
X56501Y130048D02*
X53904Y130048D01*
X53805Y130050D01*
X53705Y130056D01*
X53606Y130065D01*
X53508Y130078D01*
X53410Y130095D01*
X53312Y130116D01*
X53216Y130141D01*
X53121Y130169D01*
X53027Y130201D01*
X52934Y130236D01*
X52842Y130275D01*
X52752Y130318D01*
X52664Y130363D01*
X52577Y130413D01*
X52493Y130465D01*
X52410Y130521D01*
X52330Y130579D01*
X52252Y130641D01*
X52177Y130706D01*
X52104Y130774D01*
X52034Y130844D01*
X51966Y130917D01*
X51901Y130992D01*
X51839Y131070D01*
X51781Y131150D01*
X51725Y131233D01*
X51673Y131317D01*
X51623Y131404D01*
X51578Y131492D01*
X51535Y131582D01*
X51496Y131674D01*
X51461Y131767D01*
X51429Y131861D01*
X51401Y131956D01*
X51376Y132052D01*
X51355Y132150D01*
X51338Y132248D01*
X51325Y132346D01*
X51316Y132445D01*
X51310Y132545D01*
X51308Y132644D01*
X51308Y139136D01*
X51310Y139235D01*
X51316Y139335D01*
X51325Y139434D01*
X51338Y139532D01*
X51355Y139630D01*
X51376Y139728D01*
X51401Y139824D01*
X51429Y139919D01*
X51461Y140013D01*
X51496Y140106D01*
X51535Y140198D01*
X51578Y140288D01*
X51623Y140376D01*
X51673Y140463D01*
X51725Y140547D01*
X51781Y140630D01*
X51839Y140710D01*
X51901Y140788D01*
X51966Y140863D01*
X52034Y140936D01*
X52104Y141006D01*
X52177Y141074D01*
X52252Y141139D01*
X52330Y141201D01*
X52410Y141259D01*
X52493Y141315D01*
X52577Y141367D01*
X52664Y141417D01*
X52752Y141462D01*
X52842Y141505D01*
X52934Y141544D01*
X53026Y141579D01*
X53121Y141611D01*
X53216Y141639D01*
X53312Y141664D01*
X53410Y141685D01*
X53508Y141702D01*
X53606Y141715D01*
X53705Y141724D01*
X53805Y141730D01*
X53904Y141732D01*
X56501Y141732D01*
X64436Y141732D02*
X64543Y141730D01*
X64649Y141724D01*
X64755Y141714D01*
X64861Y141701D01*
X64967Y141683D01*
X65071Y141662D01*
X65175Y141637D01*
X65278Y141608D01*
X65379Y141576D01*
X65479Y141539D01*
X65578Y141499D01*
X65676Y141456D01*
X65772Y141409D01*
X65866Y141358D01*
X65958Y141304D01*
X66048Y141247D01*
X66136Y141187D01*
X66221Y141123D01*
X66304Y141056D01*
X66385Y140986D01*
X66463Y140914D01*
X66539Y140838D01*
X66611Y140760D01*
X66681Y140679D01*
X66748Y140596D01*
X66812Y140511D01*
X66872Y140423D01*
X66929Y140333D01*
X66983Y140241D01*
X67034Y140147D01*
X67081Y140051D01*
X67124Y139953D01*
X67164Y139854D01*
X67201Y139754D01*
X67233Y139653D01*
X67262Y139550D01*
X67287Y139446D01*
X67308Y139342D01*
X67326Y139236D01*
X67339Y139130D01*
X67349Y139024D01*
X67355Y138918D01*
X67357Y138811D01*
X64436Y141732D02*
X64315Y141730D01*
X64194Y141724D01*
X64074Y141714D01*
X63953Y141701D01*
X63834Y141683D01*
X63714Y141662D01*
X63596Y141637D01*
X63479Y141608D01*
X63362Y141575D01*
X63247Y141539D01*
X63133Y141498D01*
X63020Y141455D01*
X62908Y141407D01*
X62799Y141356D01*
X62691Y141301D01*
X62584Y141243D01*
X62480Y141182D01*
X62378Y141117D01*
X62278Y141049D01*
X62180Y140978D01*
X62084Y140904D01*
X61991Y140827D01*
X61901Y140746D01*
X61813Y140663D01*
X61728Y140577D01*
X61645Y140488D01*
X61566Y140397D01*
X61489Y140303D01*
X61416Y140207D01*
X61346Y140109D01*
X61279Y140008D01*
X61215Y139905D01*
X61155Y139800D01*
X61098Y139693D01*
X61044Y139585D01*
X60994Y139475D01*
X60948Y139363D01*
X60905Y139250D01*
X60866Y139135D01*
X66384Y136539D02*
X66463Y136616D01*
X66539Y136697D01*
X66612Y136780D01*
X66682Y136865D01*
X66749Y136953D01*
X66813Y137043D01*
X66873Y137135D01*
X66930Y137230D01*
X66984Y137326D01*
X67035Y137424D01*
X67082Y137524D01*
X67126Y137626D01*
X67166Y137729D01*
X67202Y137833D01*
X67234Y137939D01*
X67263Y138045D01*
X67288Y138153D01*
X67310Y138261D01*
X67327Y138371D01*
X67341Y138480D01*
X67350Y138590D01*
X67356Y138701D01*
X67358Y138811D01*
X66384Y136539D02*
X60866Y130048D01*
X67357Y130048D01*
X137724Y53848D02*
X140321Y53848D01*
X137724Y53848D02*
X137625Y53850D01*
X137525Y53856D01*
X137426Y53865D01*
X137328Y53878D01*
X137230Y53895D01*
X137132Y53916D01*
X137036Y53941D01*
X136941Y53969D01*
X136847Y54001D01*
X136754Y54036D01*
X136662Y54075D01*
X136572Y54118D01*
X136484Y54163D01*
X136397Y54213D01*
X136313Y54265D01*
X136230Y54321D01*
X136150Y54379D01*
X136072Y54441D01*
X135997Y54506D01*
X135924Y54574D01*
X135854Y54644D01*
X135786Y54717D01*
X135721Y54792D01*
X135659Y54870D01*
X135601Y54950D01*
X135545Y55033D01*
X135493Y55117D01*
X135443Y55204D01*
X135398Y55292D01*
X135355Y55382D01*
X135316Y55474D01*
X135281Y55567D01*
X135249Y55661D01*
X135221Y55756D01*
X135196Y55852D01*
X135175Y55950D01*
X135158Y56048D01*
X135145Y56146D01*
X135136Y56245D01*
X135130Y56345D01*
X135128Y56444D01*
X135128Y62936D01*
X135130Y63035D01*
X135136Y63135D01*
X135145Y63234D01*
X135158Y63332D01*
X135175Y63430D01*
X135196Y63528D01*
X135221Y63624D01*
X135249Y63719D01*
X135281Y63813D01*
X135316Y63906D01*
X135355Y63998D01*
X135398Y64088D01*
X135443Y64176D01*
X135493Y64263D01*
X135545Y64347D01*
X135601Y64430D01*
X135659Y64510D01*
X135721Y64588D01*
X135786Y64663D01*
X135854Y64736D01*
X135924Y64806D01*
X135997Y64874D01*
X136072Y64939D01*
X136150Y65001D01*
X136230Y65059D01*
X136313Y65115D01*
X136397Y65167D01*
X136484Y65217D01*
X136572Y65262D01*
X136662Y65305D01*
X136754Y65344D01*
X136846Y65379D01*
X136941Y65411D01*
X137036Y65439D01*
X137132Y65464D01*
X137230Y65485D01*
X137328Y65502D01*
X137426Y65515D01*
X137525Y65524D01*
X137625Y65530D01*
X137724Y65532D01*
X140321Y65532D01*
X144686Y53848D02*
X147932Y53848D01*
X148045Y53850D01*
X148158Y53856D01*
X148271Y53866D01*
X148384Y53880D01*
X148496Y53897D01*
X148607Y53919D01*
X148717Y53944D01*
X148827Y53974D01*
X148935Y54007D01*
X149042Y54044D01*
X149148Y54084D01*
X149252Y54129D01*
X149355Y54177D01*
X149456Y54228D01*
X149555Y54283D01*
X149652Y54341D01*
X149747Y54403D01*
X149840Y54468D01*
X149930Y54536D01*
X150018Y54607D01*
X150104Y54682D01*
X150187Y54759D01*
X150267Y54839D01*
X150344Y54922D01*
X150419Y55008D01*
X150490Y55096D01*
X150558Y55186D01*
X150623Y55279D01*
X150685Y55374D01*
X150743Y55471D01*
X150798Y55570D01*
X150849Y55671D01*
X150897Y55774D01*
X150942Y55878D01*
X150982Y55984D01*
X151019Y56091D01*
X151052Y56199D01*
X151082Y56309D01*
X151107Y56419D01*
X151129Y56530D01*
X151146Y56642D01*
X151160Y56755D01*
X151170Y56868D01*
X151176Y56981D01*
X151178Y57094D01*
X151176Y57207D01*
X151170Y57320D01*
X151160Y57433D01*
X151146Y57546D01*
X151129Y57658D01*
X151107Y57769D01*
X151082Y57879D01*
X151052Y57989D01*
X151019Y58097D01*
X150982Y58204D01*
X150942Y58310D01*
X150897Y58414D01*
X150849Y58517D01*
X150798Y58618D01*
X150743Y58717D01*
X150685Y58814D01*
X150623Y58909D01*
X150558Y59002D01*
X150490Y59092D01*
X150419Y59180D01*
X150344Y59266D01*
X150267Y59349D01*
X150187Y59429D01*
X150104Y59506D01*
X150018Y59581D01*
X149930Y59652D01*
X149840Y59720D01*
X149747Y59785D01*
X149652Y59847D01*
X149555Y59905D01*
X149456Y59960D01*
X149355Y60011D01*
X149252Y60059D01*
X149148Y60104D01*
X149042Y60144D01*
X148935Y60181D01*
X148827Y60214D01*
X148717Y60244D01*
X148607Y60269D01*
X148496Y60291D01*
X148384Y60308D01*
X148271Y60322D01*
X148158Y60332D01*
X148045Y60338D01*
X147932Y60340D01*
X148581Y65532D02*
X144686Y65532D01*
X148581Y65532D02*
X148682Y65530D01*
X148782Y65524D01*
X148882Y65514D01*
X148982Y65501D01*
X149081Y65483D01*
X149180Y65462D01*
X149277Y65437D01*
X149374Y65408D01*
X149469Y65375D01*
X149563Y65339D01*
X149655Y65299D01*
X149746Y65256D01*
X149835Y65209D01*
X149922Y65159D01*
X150008Y65105D01*
X150091Y65048D01*
X150171Y64988D01*
X150250Y64925D01*
X150326Y64858D01*
X150399Y64789D01*
X150469Y64717D01*
X150537Y64643D01*
X150602Y64566D01*
X150663Y64486D01*
X150722Y64404D01*
X150777Y64320D01*
X150829Y64234D01*
X150878Y64146D01*
X150923Y64056D01*
X150965Y63964D01*
X151003Y63871D01*
X151037Y63776D01*
X151068Y63681D01*
X151095Y63584D01*
X151118Y63486D01*
X151138Y63387D01*
X151153Y63287D01*
X151165Y63187D01*
X151173Y63087D01*
X151177Y62986D01*
X151177Y62886D01*
X151173Y62785D01*
X151165Y62685D01*
X151153Y62585D01*
X151138Y62485D01*
X151118Y62386D01*
X151095Y62288D01*
X151068Y62191D01*
X151037Y62096D01*
X151003Y62001D01*
X150965Y61908D01*
X150923Y61816D01*
X150878Y61726D01*
X150829Y61638D01*
X150777Y61552D01*
X150722Y61468D01*
X150663Y61386D01*
X150602Y61306D01*
X150537Y61229D01*
X150469Y61155D01*
X150399Y61083D01*
X150326Y61014D01*
X150250Y60947D01*
X150171Y60884D01*
X150091Y60824D01*
X150008Y60767D01*
X149922Y60713D01*
X149835Y60663D01*
X149746Y60616D01*
X149655Y60573D01*
X149563Y60533D01*
X149469Y60497D01*
X149374Y60464D01*
X149277Y60435D01*
X149180Y60410D01*
X149081Y60389D01*
X148982Y60371D01*
X148882Y60358D01*
X148782Y60348D01*
X148682Y60342D01*
X148581Y60340D01*
X148581Y60339D02*
X145984Y60339D01*
X94488Y163068D02*
X94488Y174752D01*
X97734Y174752D01*
X97847Y174750D01*
X97960Y174744D01*
X98073Y174734D01*
X98186Y174720D01*
X98298Y174703D01*
X98409Y174681D01*
X98519Y174656D01*
X98629Y174626D01*
X98737Y174593D01*
X98844Y174556D01*
X98950Y174516D01*
X99054Y174471D01*
X99157Y174423D01*
X99258Y174372D01*
X99357Y174317D01*
X99454Y174259D01*
X99549Y174197D01*
X99642Y174132D01*
X99732Y174064D01*
X99820Y173993D01*
X99906Y173918D01*
X99989Y173841D01*
X100069Y173761D01*
X100146Y173678D01*
X100221Y173592D01*
X100292Y173504D01*
X100360Y173414D01*
X100425Y173321D01*
X100487Y173226D01*
X100545Y173129D01*
X100600Y173030D01*
X100651Y172929D01*
X100699Y172826D01*
X100744Y172722D01*
X100784Y172616D01*
X100821Y172509D01*
X100854Y172401D01*
X100884Y172291D01*
X100909Y172181D01*
X100931Y172070D01*
X100948Y171958D01*
X100962Y171845D01*
X100972Y171732D01*
X100978Y171619D01*
X100980Y171506D01*
X100978Y171393D01*
X100972Y171280D01*
X100962Y171167D01*
X100948Y171054D01*
X100931Y170942D01*
X100909Y170831D01*
X100884Y170721D01*
X100854Y170611D01*
X100821Y170503D01*
X100784Y170396D01*
X100744Y170290D01*
X100699Y170186D01*
X100651Y170083D01*
X100600Y169982D01*
X100545Y169883D01*
X100487Y169786D01*
X100425Y169691D01*
X100360Y169598D01*
X100292Y169508D01*
X100221Y169420D01*
X100146Y169334D01*
X100069Y169251D01*
X99989Y169171D01*
X99906Y169094D01*
X99820Y169019D01*
X99732Y168948D01*
X99642Y168880D01*
X99549Y168815D01*
X99454Y168753D01*
X99357Y168695D01*
X99258Y168640D01*
X99157Y168589D01*
X99054Y168541D01*
X98950Y168496D01*
X98844Y168456D01*
X98737Y168419D01*
X98629Y168386D01*
X98519Y168356D01*
X98409Y168331D01*
X98298Y168309D01*
X98186Y168292D01*
X98073Y168278D01*
X97960Y168268D01*
X97847Y168262D01*
X97734Y168260D01*
X97734Y168261D02*
X94488Y168261D01*
X98383Y168261D02*
X100979Y163068D01*
X105844Y172156D02*
X109090Y174752D01*
X109090Y163068D01*
X112335Y163068D02*
X105844Y163068D01*
X47685Y75692D02*
X47685Y64008D01*
X47685Y75692D02*
X50930Y75692D01*
X51043Y75690D01*
X51156Y75684D01*
X51269Y75674D01*
X51382Y75660D01*
X51494Y75643D01*
X51605Y75621D01*
X51715Y75596D01*
X51825Y75566D01*
X51933Y75533D01*
X52040Y75496D01*
X52146Y75456D01*
X52250Y75411D01*
X52353Y75363D01*
X52454Y75312D01*
X52553Y75257D01*
X52650Y75199D01*
X52745Y75137D01*
X52838Y75072D01*
X52928Y75004D01*
X53016Y74933D01*
X53102Y74858D01*
X53185Y74781D01*
X53265Y74701D01*
X53342Y74618D01*
X53417Y74532D01*
X53488Y74444D01*
X53556Y74354D01*
X53621Y74261D01*
X53683Y74166D01*
X53741Y74069D01*
X53796Y73970D01*
X53847Y73869D01*
X53895Y73766D01*
X53940Y73662D01*
X53980Y73556D01*
X54017Y73449D01*
X54050Y73341D01*
X54080Y73231D01*
X54105Y73121D01*
X54127Y73010D01*
X54144Y72898D01*
X54158Y72785D01*
X54168Y72672D01*
X54174Y72559D01*
X54176Y72446D01*
X54174Y72333D01*
X54168Y72220D01*
X54158Y72107D01*
X54144Y71994D01*
X54127Y71882D01*
X54105Y71771D01*
X54080Y71661D01*
X54050Y71551D01*
X54017Y71443D01*
X53980Y71336D01*
X53940Y71230D01*
X53895Y71126D01*
X53847Y71023D01*
X53796Y70922D01*
X53741Y70823D01*
X53683Y70726D01*
X53621Y70631D01*
X53556Y70538D01*
X53488Y70448D01*
X53417Y70360D01*
X53342Y70274D01*
X53265Y70191D01*
X53185Y70111D01*
X53102Y70034D01*
X53016Y69959D01*
X52928Y69888D01*
X52838Y69820D01*
X52745Y69755D01*
X52650Y69693D01*
X52553Y69635D01*
X52454Y69580D01*
X52353Y69529D01*
X52250Y69481D01*
X52146Y69436D01*
X52040Y69396D01*
X51933Y69359D01*
X51825Y69326D01*
X51715Y69296D01*
X51605Y69271D01*
X51494Y69249D01*
X51382Y69232D01*
X51269Y69218D01*
X51156Y69208D01*
X51043Y69202D01*
X50930Y69200D01*
X50930Y69201D02*
X47685Y69201D01*
X51579Y69201D02*
X54176Y64008D01*
X65532Y72771D02*
X65530Y72878D01*
X65524Y72984D01*
X65514Y73090D01*
X65501Y73196D01*
X65483Y73302D01*
X65462Y73406D01*
X65437Y73510D01*
X65408Y73613D01*
X65376Y73714D01*
X65339Y73814D01*
X65299Y73913D01*
X65256Y74011D01*
X65209Y74107D01*
X65158Y74201D01*
X65104Y74293D01*
X65047Y74383D01*
X64987Y74471D01*
X64923Y74556D01*
X64856Y74639D01*
X64786Y74720D01*
X64714Y74798D01*
X64638Y74874D01*
X64560Y74946D01*
X64479Y75016D01*
X64396Y75083D01*
X64311Y75147D01*
X64223Y75207D01*
X64133Y75264D01*
X64041Y75318D01*
X63947Y75369D01*
X63851Y75416D01*
X63753Y75459D01*
X63654Y75499D01*
X63554Y75536D01*
X63453Y75568D01*
X63350Y75597D01*
X63246Y75622D01*
X63142Y75643D01*
X63036Y75661D01*
X62930Y75674D01*
X62824Y75684D01*
X62718Y75690D01*
X62611Y75692D01*
X62490Y75690D01*
X62369Y75684D01*
X62249Y75674D01*
X62128Y75661D01*
X62009Y75643D01*
X61889Y75622D01*
X61771Y75597D01*
X61654Y75568D01*
X61537Y75535D01*
X61422Y75499D01*
X61308Y75458D01*
X61195Y75415D01*
X61083Y75367D01*
X60974Y75316D01*
X60866Y75261D01*
X60759Y75203D01*
X60655Y75142D01*
X60553Y75077D01*
X60453Y75009D01*
X60355Y74938D01*
X60259Y74864D01*
X60166Y74787D01*
X60076Y74706D01*
X59988Y74623D01*
X59903Y74537D01*
X59820Y74448D01*
X59741Y74357D01*
X59664Y74263D01*
X59591Y74167D01*
X59521Y74069D01*
X59454Y73968D01*
X59390Y73865D01*
X59330Y73760D01*
X59273Y73653D01*
X59219Y73545D01*
X59169Y73435D01*
X59123Y73323D01*
X59080Y73210D01*
X59041Y73095D01*
X64559Y70499D02*
X64638Y70576D01*
X64714Y70657D01*
X64787Y70740D01*
X64857Y70825D01*
X64924Y70913D01*
X64988Y71003D01*
X65048Y71095D01*
X65105Y71190D01*
X65159Y71286D01*
X65210Y71384D01*
X65257Y71484D01*
X65301Y71586D01*
X65341Y71689D01*
X65377Y71793D01*
X65409Y71899D01*
X65438Y72005D01*
X65463Y72113D01*
X65485Y72221D01*
X65502Y72331D01*
X65516Y72440D01*
X65525Y72550D01*
X65531Y72661D01*
X65533Y72771D01*
X64558Y70499D02*
X59041Y64008D01*
X65532Y64008D01*
X98298Y42672D02*
X98298Y30988D01*
X98298Y42672D02*
X101544Y42672D01*
X101657Y42670D01*
X101770Y42664D01*
X101883Y42654D01*
X101996Y42640D01*
X102108Y42623D01*
X102219Y42601D01*
X102329Y42576D01*
X102439Y42546D01*
X102547Y42513D01*
X102654Y42476D01*
X102760Y42436D01*
X102864Y42391D01*
X102967Y42343D01*
X103068Y42292D01*
X103167Y42237D01*
X103264Y42179D01*
X103359Y42117D01*
X103452Y42052D01*
X103542Y41984D01*
X103630Y41913D01*
X103716Y41838D01*
X103799Y41761D01*
X103879Y41681D01*
X103956Y41598D01*
X104031Y41512D01*
X104102Y41424D01*
X104170Y41334D01*
X104235Y41241D01*
X104297Y41146D01*
X104355Y41049D01*
X104410Y40950D01*
X104461Y40849D01*
X104509Y40746D01*
X104554Y40642D01*
X104594Y40536D01*
X104631Y40429D01*
X104664Y40321D01*
X104694Y40211D01*
X104719Y40101D01*
X104741Y39990D01*
X104758Y39878D01*
X104772Y39765D01*
X104782Y39652D01*
X104788Y39539D01*
X104790Y39426D01*
X104788Y39313D01*
X104782Y39200D01*
X104772Y39087D01*
X104758Y38974D01*
X104741Y38862D01*
X104719Y38751D01*
X104694Y38641D01*
X104664Y38531D01*
X104631Y38423D01*
X104594Y38316D01*
X104554Y38210D01*
X104509Y38106D01*
X104461Y38003D01*
X104410Y37902D01*
X104355Y37803D01*
X104297Y37706D01*
X104235Y37611D01*
X104170Y37518D01*
X104102Y37428D01*
X104031Y37340D01*
X103956Y37254D01*
X103879Y37171D01*
X103799Y37091D01*
X103716Y37014D01*
X103630Y36939D01*
X103542Y36868D01*
X103452Y36800D01*
X103359Y36735D01*
X103264Y36673D01*
X103167Y36615D01*
X103068Y36560D01*
X102967Y36509D01*
X102864Y36461D01*
X102760Y36416D01*
X102654Y36376D01*
X102547Y36339D01*
X102439Y36306D01*
X102329Y36276D01*
X102219Y36251D01*
X102108Y36229D01*
X101996Y36212D01*
X101883Y36198D01*
X101770Y36188D01*
X101657Y36182D01*
X101544Y36180D01*
X101544Y36181D02*
X98298Y36181D01*
X102193Y36181D02*
X104789Y30988D01*
X109654Y30988D02*
X112900Y30988D01*
X113013Y30990D01*
X113126Y30996D01*
X113239Y31006D01*
X113352Y31020D01*
X113464Y31037D01*
X113575Y31059D01*
X113685Y31084D01*
X113795Y31114D01*
X113903Y31147D01*
X114010Y31184D01*
X114116Y31224D01*
X114220Y31269D01*
X114323Y31317D01*
X114424Y31368D01*
X114523Y31423D01*
X114620Y31481D01*
X114715Y31543D01*
X114808Y31608D01*
X114898Y31676D01*
X114986Y31747D01*
X115072Y31822D01*
X115155Y31899D01*
X115235Y31979D01*
X115312Y32062D01*
X115387Y32148D01*
X115458Y32236D01*
X115526Y32326D01*
X115591Y32419D01*
X115653Y32514D01*
X115711Y32611D01*
X115766Y32710D01*
X115817Y32811D01*
X115865Y32914D01*
X115910Y33018D01*
X115950Y33124D01*
X115987Y33231D01*
X116020Y33339D01*
X116050Y33449D01*
X116075Y33559D01*
X116097Y33670D01*
X116114Y33782D01*
X116128Y33895D01*
X116138Y34008D01*
X116144Y34121D01*
X116146Y34234D01*
X116144Y34347D01*
X116138Y34460D01*
X116128Y34573D01*
X116114Y34686D01*
X116097Y34798D01*
X116075Y34909D01*
X116050Y35019D01*
X116020Y35129D01*
X115987Y35237D01*
X115950Y35344D01*
X115910Y35450D01*
X115865Y35554D01*
X115817Y35657D01*
X115766Y35758D01*
X115711Y35857D01*
X115653Y35954D01*
X115591Y36049D01*
X115526Y36142D01*
X115458Y36232D01*
X115387Y36320D01*
X115312Y36406D01*
X115235Y36489D01*
X115155Y36569D01*
X115072Y36646D01*
X114986Y36721D01*
X114898Y36792D01*
X114808Y36860D01*
X114715Y36925D01*
X114620Y36987D01*
X114523Y37045D01*
X114424Y37100D01*
X114323Y37151D01*
X114220Y37199D01*
X114116Y37244D01*
X114010Y37284D01*
X113903Y37321D01*
X113795Y37354D01*
X113685Y37384D01*
X113575Y37409D01*
X113464Y37431D01*
X113352Y37448D01*
X113239Y37462D01*
X113126Y37472D01*
X113013Y37478D01*
X112900Y37480D01*
X113549Y42672D02*
X109654Y42672D01*
X113549Y42672D02*
X113650Y42670D01*
X113750Y42664D01*
X113850Y42654D01*
X113950Y42641D01*
X114049Y42623D01*
X114148Y42602D01*
X114245Y42577D01*
X114342Y42548D01*
X114437Y42515D01*
X114531Y42479D01*
X114623Y42439D01*
X114714Y42396D01*
X114803Y42349D01*
X114890Y42299D01*
X114976Y42245D01*
X115059Y42188D01*
X115139Y42128D01*
X115218Y42065D01*
X115294Y41998D01*
X115367Y41929D01*
X115437Y41857D01*
X115505Y41783D01*
X115570Y41706D01*
X115631Y41626D01*
X115690Y41544D01*
X115745Y41460D01*
X115797Y41374D01*
X115846Y41286D01*
X115891Y41196D01*
X115933Y41104D01*
X115971Y41011D01*
X116005Y40916D01*
X116036Y40821D01*
X116063Y40724D01*
X116086Y40626D01*
X116106Y40527D01*
X116121Y40427D01*
X116133Y40327D01*
X116141Y40227D01*
X116145Y40126D01*
X116145Y40026D01*
X116141Y39925D01*
X116133Y39825D01*
X116121Y39725D01*
X116106Y39625D01*
X116086Y39526D01*
X116063Y39428D01*
X116036Y39331D01*
X116005Y39236D01*
X115971Y39141D01*
X115933Y39048D01*
X115891Y38956D01*
X115846Y38866D01*
X115797Y38778D01*
X115745Y38692D01*
X115690Y38608D01*
X115631Y38526D01*
X115570Y38446D01*
X115505Y38369D01*
X115437Y38295D01*
X115367Y38223D01*
X115294Y38154D01*
X115218Y38087D01*
X115139Y38024D01*
X115059Y37964D01*
X114976Y37907D01*
X114890Y37853D01*
X114803Y37803D01*
X114714Y37756D01*
X114623Y37713D01*
X114531Y37673D01*
X114437Y37637D01*
X114342Y37604D01*
X114245Y37575D01*
X114148Y37550D01*
X114049Y37529D01*
X113950Y37511D01*
X113850Y37498D01*
X113750Y37488D01*
X113650Y37482D01*
X113549Y37480D01*
X113549Y37479D02*
X110953Y37479D01*
X147264Y103378D02*
X147264Y115062D01*
X150509Y115062D02*
X144018Y115062D01*
X154686Y112466D02*
X157932Y115062D01*
X157932Y103378D01*
X161177Y103378D02*
X154686Y103378D01*
D11*
X-15500Y96840D02*
X-15500Y70340D01*
X-15500Y96840D02*
X-37000Y96840D01*
X-44500Y89340D01*
X-82500Y89340D01*
X-82500Y97840D01*
X-94250Y97840D01*
X-94250Y135840D01*
X-82500Y135840D01*
X-82500Y144340D01*
X-44500Y144340D01*
X-37000Y136840D01*
X-15500Y136840D01*
X-15500Y163340D01*
X-1000Y155340D02*
X-1000Y78340D01*
X-1000Y163340D02*
X-15500Y163340D01*
X-15500Y70340D02*
X-1000Y70340D01*
D10*
X11938Y170688D02*
X19727Y182372D01*
X11938Y182372D02*
X19727Y170688D01*
X24017Y179776D02*
X27263Y182372D01*
X27263Y170688D01*
X30508Y170688D02*
X24017Y170688D01*
D11*
X235500Y125240D02*
X235500Y98740D01*
X257000Y98740D01*
X264500Y106240D01*
X302500Y106240D01*
X302500Y97740D01*
X314250Y97740D01*
X314250Y59740D01*
X302500Y59740D01*
X302500Y51240D01*
X264500Y51240D01*
X257000Y58740D01*
X235500Y58740D01*
X235500Y32240D01*
X221000Y40240D02*
X221000Y117240D01*
X221000Y32240D02*
X235500Y32240D01*
X235500Y125240D02*
X221000Y125240D01*
D10*
X197281Y144272D02*
X189492Y132588D01*
X197281Y132588D02*
X189492Y144272D01*
X205141Y144272D02*
X205248Y144270D01*
X205354Y144264D01*
X205460Y144254D01*
X205566Y144241D01*
X205672Y144223D01*
X205776Y144202D01*
X205880Y144177D01*
X205983Y144148D01*
X206084Y144116D01*
X206184Y144079D01*
X206283Y144039D01*
X206381Y143996D01*
X206477Y143949D01*
X206571Y143898D01*
X206663Y143844D01*
X206753Y143787D01*
X206841Y143727D01*
X206926Y143663D01*
X207009Y143596D01*
X207090Y143526D01*
X207168Y143454D01*
X207244Y143378D01*
X207316Y143300D01*
X207386Y143219D01*
X207453Y143136D01*
X207517Y143051D01*
X207577Y142963D01*
X207634Y142873D01*
X207688Y142781D01*
X207739Y142687D01*
X207786Y142591D01*
X207829Y142493D01*
X207869Y142394D01*
X207906Y142294D01*
X207938Y142193D01*
X207967Y142090D01*
X207992Y141986D01*
X208013Y141882D01*
X208031Y141776D01*
X208044Y141670D01*
X208054Y141564D01*
X208060Y141458D01*
X208062Y141351D01*
X205141Y144272D02*
X205020Y144270D01*
X204899Y144264D01*
X204779Y144254D01*
X204658Y144241D01*
X204539Y144223D01*
X204419Y144202D01*
X204301Y144177D01*
X204184Y144148D01*
X204067Y144115D01*
X203952Y144079D01*
X203838Y144038D01*
X203725Y143995D01*
X203613Y143947D01*
X203504Y143896D01*
X203396Y143841D01*
X203289Y143783D01*
X203185Y143722D01*
X203083Y143657D01*
X202983Y143589D01*
X202885Y143518D01*
X202789Y143444D01*
X202696Y143367D01*
X202606Y143286D01*
X202518Y143203D01*
X202433Y143117D01*
X202350Y143028D01*
X202271Y142937D01*
X202194Y142843D01*
X202121Y142747D01*
X202051Y142649D01*
X201984Y142548D01*
X201920Y142445D01*
X201860Y142340D01*
X201803Y142233D01*
X201749Y142125D01*
X201699Y142015D01*
X201653Y141903D01*
X201610Y141790D01*
X201571Y141675D01*
X207089Y139079D02*
X207168Y139156D01*
X207244Y139237D01*
X207317Y139320D01*
X207387Y139405D01*
X207454Y139493D01*
X207518Y139583D01*
X207578Y139675D01*
X207635Y139770D01*
X207689Y139866D01*
X207740Y139964D01*
X207787Y140064D01*
X207831Y140166D01*
X207871Y140269D01*
X207907Y140373D01*
X207939Y140479D01*
X207968Y140585D01*
X207993Y140693D01*
X208015Y140801D01*
X208032Y140911D01*
X208046Y141020D01*
X208055Y141130D01*
X208061Y141241D01*
X208063Y141351D01*
X207088Y139079D02*
X201571Y132588D01*
X208062Y132588D01*
D12*
X195580Y196850D02*
X195580Y209550D01*
X195580Y196850D02*
X189230Y190500D01*
X176530Y190500D01*
X170180Y196850D01*
X176530Y215900D02*
X189230Y215900D01*
X195580Y209550D01*
X176530Y215900D02*
X170180Y209550D01*
X170180Y196850D01*
X189230Y190500D02*
X195580Y184150D01*
X195580Y171450D01*
X189230Y165100D01*
X176530Y165100D01*
X170180Y171450D01*
X170180Y184150D01*
X176530Y190500D01*
D13*
X172518Y223647D02*
X172518Y232537D01*
X172518Y223647D02*
X172516Y223547D01*
X172510Y223448D01*
X172500Y223348D01*
X172487Y223250D01*
X172469Y223151D01*
X172448Y223054D01*
X172423Y222958D01*
X172394Y222862D01*
X172361Y222768D01*
X172325Y222675D01*
X172285Y222584D01*
X172241Y222494D01*
X172194Y222406D01*
X172144Y222320D01*
X172090Y222236D01*
X172033Y222154D01*
X171973Y222075D01*
X171909Y221997D01*
X171843Y221923D01*
X171774Y221851D01*
X171702Y221782D01*
X171628Y221716D01*
X171550Y221652D01*
X171471Y221592D01*
X171389Y221535D01*
X171305Y221481D01*
X171219Y221431D01*
X171131Y221384D01*
X171041Y221340D01*
X170950Y221300D01*
X170857Y221264D01*
X170763Y221231D01*
X170667Y221202D01*
X170571Y221177D01*
X170474Y221156D01*
X170375Y221138D01*
X170277Y221125D01*
X170177Y221115D01*
X170078Y221109D01*
X169978Y221107D01*
X168708Y221107D01*
X178499Y221107D02*
X178499Y232537D01*
X181674Y232537D01*
X181785Y232535D01*
X181895Y232529D01*
X182006Y232520D01*
X182116Y232506D01*
X182225Y232489D01*
X182334Y232468D01*
X182442Y232443D01*
X182549Y232414D01*
X182655Y232382D01*
X182760Y232346D01*
X182863Y232306D01*
X182965Y232263D01*
X183066Y232216D01*
X183165Y232165D01*
X183262Y232112D01*
X183356Y232055D01*
X183449Y231994D01*
X183540Y231931D01*
X183629Y231864D01*
X183715Y231794D01*
X183798Y231721D01*
X183880Y231646D01*
X183958Y231568D01*
X184033Y231486D01*
X184106Y231403D01*
X184176Y231317D01*
X184243Y231228D01*
X184306Y231137D01*
X184367Y231044D01*
X184424Y230949D01*
X184477Y230853D01*
X184528Y230754D01*
X184575Y230653D01*
X184618Y230551D01*
X184658Y230448D01*
X184694Y230343D01*
X184726Y230237D01*
X184755Y230130D01*
X184780Y230022D01*
X184801Y229913D01*
X184818Y229804D01*
X184832Y229694D01*
X184841Y229583D01*
X184847Y229473D01*
X184849Y229362D01*
X184847Y229251D01*
X184841Y229141D01*
X184832Y229030D01*
X184818Y228920D01*
X184801Y228811D01*
X184780Y228702D01*
X184755Y228594D01*
X184726Y228487D01*
X184694Y228381D01*
X184658Y228276D01*
X184618Y228173D01*
X184575Y228071D01*
X184528Y227970D01*
X184477Y227871D01*
X184424Y227774D01*
X184367Y227680D01*
X184306Y227587D01*
X184243Y227496D01*
X184176Y227407D01*
X184106Y227321D01*
X184033Y227238D01*
X183958Y227156D01*
X183880Y227078D01*
X183798Y227003D01*
X183715Y226930D01*
X183629Y226860D01*
X183540Y226793D01*
X183449Y226730D01*
X183356Y226669D01*
X183261Y226612D01*
X183165Y226559D01*
X183066Y226508D01*
X182965Y226461D01*
X182863Y226418D01*
X182760Y226378D01*
X182655Y226342D01*
X182549Y226310D01*
X182442Y226281D01*
X182334Y226256D01*
X182225Y226235D01*
X182116Y226218D01*
X182006Y226204D01*
X181895Y226195D01*
X181785Y226189D01*
X181674Y226187D01*
X178499Y226187D01*
X189357Y229997D02*
X192532Y232537D01*
X192532Y221107D01*
X189357Y221107D02*
X195707Y221107D01*
D10*
X147941Y157988D02*
X145344Y157988D01*
X145245Y157990D01*
X145145Y157996D01*
X145046Y158005D01*
X144948Y158018D01*
X144850Y158035D01*
X144752Y158056D01*
X144656Y158081D01*
X144561Y158109D01*
X144467Y158141D01*
X144374Y158176D01*
X144282Y158215D01*
X144192Y158258D01*
X144104Y158303D01*
X144017Y158353D01*
X143933Y158405D01*
X143850Y158461D01*
X143770Y158519D01*
X143692Y158581D01*
X143617Y158646D01*
X143544Y158714D01*
X143474Y158784D01*
X143406Y158857D01*
X143341Y158932D01*
X143279Y159010D01*
X143221Y159090D01*
X143165Y159173D01*
X143113Y159257D01*
X143063Y159344D01*
X143018Y159432D01*
X142975Y159522D01*
X142936Y159614D01*
X142901Y159707D01*
X142869Y159801D01*
X142841Y159896D01*
X142816Y159992D01*
X142795Y160090D01*
X142778Y160188D01*
X142765Y160286D01*
X142756Y160385D01*
X142750Y160485D01*
X142748Y160584D01*
X142748Y167076D01*
X142750Y167175D01*
X142756Y167275D01*
X142765Y167374D01*
X142778Y167472D01*
X142795Y167570D01*
X142816Y167668D01*
X142841Y167764D01*
X142869Y167859D01*
X142901Y167953D01*
X142936Y168046D01*
X142975Y168138D01*
X143018Y168228D01*
X143063Y168316D01*
X143113Y168403D01*
X143165Y168487D01*
X143221Y168570D01*
X143279Y168650D01*
X143341Y168728D01*
X143406Y168803D01*
X143474Y168876D01*
X143544Y168946D01*
X143617Y169014D01*
X143692Y169079D01*
X143770Y169141D01*
X143850Y169199D01*
X143933Y169255D01*
X144017Y169307D01*
X144104Y169357D01*
X144192Y169402D01*
X144282Y169445D01*
X144374Y169484D01*
X144466Y169519D01*
X144561Y169551D01*
X144656Y169579D01*
X144752Y169604D01*
X144850Y169625D01*
X144948Y169642D01*
X145046Y169655D01*
X145145Y169664D01*
X145245Y169670D01*
X145344Y169672D01*
X147941Y169672D01*
X152306Y167076D02*
X155552Y169672D01*
X155552Y157988D01*
X158797Y157988D02*
X152306Y157988D01*
M02*
