G04 EAGLE Gerber RS-274X export*
G75*
%MOMM*%
%FSLAX34Y34*%
%LPD*%
%INBottom Copper*%
%IPPOS*%
%AMOC8*
5,1,8,0,0,1.08239X$1,22.5*%
G01*
%ADD10P,1.732040X8X292.500000*%
%ADD11C,1.600200*%
%ADD12C,1.524000*%

G36*
X244350Y5092D02*
X244350Y5092D01*
X244416Y5094D01*
X244459Y5112D01*
X244506Y5120D01*
X244563Y5154D01*
X244623Y5179D01*
X244658Y5210D01*
X244699Y5235D01*
X244741Y5286D01*
X244789Y5330D01*
X244811Y5372D01*
X244840Y5409D01*
X244861Y5471D01*
X244892Y5530D01*
X244900Y5584D01*
X244912Y5621D01*
X244911Y5661D01*
X244919Y5715D01*
X244919Y47409D01*
X244904Y47496D01*
X244894Y47585D01*
X244884Y47606D01*
X244880Y47629D01*
X244834Y47706D01*
X244795Y47786D01*
X244778Y47802D01*
X244765Y47823D01*
X244696Y47879D01*
X244632Y47940D01*
X244610Y47949D01*
X244591Y47964D01*
X244507Y47993D01*
X244425Y48027D01*
X244401Y48028D01*
X244379Y48036D01*
X244290Y48033D01*
X244201Y48037D01*
X244178Y48030D01*
X244154Y48029D01*
X244072Y47996D01*
X243987Y47969D01*
X243966Y47953D01*
X243947Y47945D01*
X243909Y47911D01*
X243837Y47857D01*
X242839Y46860D01*
X241545Y45920D01*
X240120Y45194D01*
X238599Y44699D01*
X237020Y44449D01*
X229869Y44449D01*
X229869Y53975D01*
X229858Y54040D01*
X229856Y54105D01*
X229838Y54149D01*
X229830Y54196D01*
X229796Y54252D01*
X229771Y54313D01*
X229739Y54348D01*
X229715Y54389D01*
X229664Y54430D01*
X229620Y54479D01*
X229578Y54501D01*
X229541Y54530D01*
X229479Y54551D01*
X229420Y54581D01*
X229366Y54590D01*
X229329Y54602D01*
X229289Y54601D01*
X229235Y54609D01*
X228599Y54609D01*
X228599Y54611D01*
X229235Y54611D01*
X229300Y54623D01*
X229365Y54624D01*
X229409Y54642D01*
X229456Y54651D01*
X229513Y54684D01*
X229573Y54709D01*
X229608Y54741D01*
X229649Y54765D01*
X229690Y54816D01*
X229739Y54860D01*
X229761Y54902D01*
X229790Y54939D01*
X229811Y55001D01*
X229842Y55060D01*
X229850Y55114D01*
X229862Y55151D01*
X229861Y55191D01*
X229869Y55245D01*
X229869Y64771D01*
X237020Y64771D01*
X238599Y64521D01*
X240120Y64026D01*
X241545Y63300D01*
X242839Y62360D01*
X243837Y61363D01*
X243910Y61312D01*
X243979Y61256D01*
X244001Y61248D01*
X244021Y61235D01*
X244107Y61213D01*
X244191Y61184D01*
X244215Y61185D01*
X244238Y61179D01*
X244327Y61188D01*
X244416Y61191D01*
X244438Y61200D01*
X244461Y61202D01*
X244541Y61242D01*
X244623Y61275D01*
X244641Y61291D01*
X244662Y61302D01*
X244723Y61366D01*
X244789Y61426D01*
X244800Y61447D01*
X244816Y61465D01*
X244851Y61547D01*
X244892Y61626D01*
X244895Y61652D01*
X244904Y61671D01*
X244906Y61722D01*
X244919Y61811D01*
X244919Y69217D01*
X244904Y69304D01*
X244894Y69393D01*
X244884Y69414D01*
X244880Y69437D01*
X244834Y69514D01*
X244795Y69594D01*
X244778Y69610D01*
X244765Y69631D01*
X244696Y69687D01*
X244632Y69748D01*
X244610Y69757D01*
X244591Y69772D01*
X244507Y69800D01*
X244425Y69835D01*
X244401Y69836D01*
X244379Y69844D01*
X244290Y69841D01*
X244201Y69845D01*
X244178Y69838D01*
X244154Y69837D01*
X244072Y69804D01*
X243987Y69776D01*
X243966Y69761D01*
X243947Y69753D01*
X243909Y69719D01*
X243837Y69665D01*
X243414Y69243D01*
X238746Y67309D01*
X218454Y67309D01*
X213786Y69243D01*
X210213Y72816D01*
X208279Y77484D01*
X208279Y82536D01*
X210213Y87204D01*
X213786Y90777D01*
X218454Y92711D01*
X238746Y92711D01*
X243414Y90777D01*
X243837Y90355D01*
X243910Y90304D01*
X243979Y90248D01*
X244001Y90240D01*
X244021Y90227D01*
X244107Y90205D01*
X244191Y90176D01*
X244215Y90177D01*
X244238Y90171D01*
X244327Y90180D01*
X244416Y90183D01*
X244437Y90192D01*
X244461Y90194D01*
X244541Y90234D01*
X244623Y90267D01*
X244641Y90283D01*
X244662Y90294D01*
X244723Y90359D01*
X244789Y90419D01*
X244800Y90440D01*
X244816Y90457D01*
X244851Y90539D01*
X244892Y90618D01*
X244895Y90644D01*
X244904Y90664D01*
X244906Y90714D01*
X244919Y90803D01*
X244919Y114285D01*
X244908Y114350D01*
X244906Y114416D01*
X244888Y114459D01*
X244880Y114506D01*
X244846Y114563D01*
X244821Y114623D01*
X244790Y114658D01*
X244765Y114699D01*
X244714Y114741D01*
X244670Y114789D01*
X244628Y114811D01*
X244591Y114840D01*
X244529Y114861D01*
X244470Y114892D01*
X244416Y114900D01*
X244379Y114912D01*
X244339Y114911D01*
X244285Y114919D01*
X5715Y114919D01*
X5650Y114908D01*
X5584Y114906D01*
X5541Y114888D01*
X5494Y114880D01*
X5437Y114846D01*
X5377Y114821D01*
X5342Y114790D01*
X5301Y114765D01*
X5259Y114714D01*
X5211Y114670D01*
X5189Y114628D01*
X5160Y114591D01*
X5139Y114529D01*
X5108Y114470D01*
X5100Y114416D01*
X5088Y114379D01*
X5089Y114339D01*
X5081Y114285D01*
X5081Y92820D01*
X5094Y92744D01*
X5100Y92667D01*
X5114Y92635D01*
X5120Y92600D01*
X5160Y92533D01*
X5192Y92462D01*
X5216Y92437D01*
X5235Y92406D01*
X5295Y92358D01*
X5349Y92302D01*
X5381Y92287D01*
X5409Y92265D01*
X5482Y92240D01*
X5552Y92207D01*
X5588Y92204D01*
X5621Y92193D01*
X5699Y92195D01*
X5776Y92189D01*
X5815Y92199D01*
X5846Y92200D01*
X5889Y92217D01*
X5958Y92234D01*
X10174Y93981D01*
X30466Y93981D01*
X35134Y92047D01*
X38707Y88474D01*
X40641Y83806D01*
X40641Y78754D01*
X38707Y74086D01*
X35134Y70513D01*
X30466Y68579D01*
X10174Y68579D01*
X5958Y70326D01*
X5882Y70342D01*
X5809Y70367D01*
X5773Y70366D01*
X5738Y70373D01*
X5662Y70363D01*
X5584Y70360D01*
X5552Y70347D01*
X5516Y70342D01*
X5448Y70305D01*
X5377Y70276D01*
X5350Y70252D01*
X5319Y70235D01*
X5268Y70177D01*
X5211Y70125D01*
X5195Y70093D01*
X5171Y70066D01*
X5144Y69994D01*
X5108Y69925D01*
X5102Y69885D01*
X5092Y69857D01*
X5091Y69810D01*
X5081Y69740D01*
X5081Y64148D01*
X5088Y64109D01*
X5086Y64070D01*
X5107Y64000D01*
X5120Y63928D01*
X5141Y63893D01*
X5152Y63855D01*
X5197Y63797D01*
X5235Y63734D01*
X5265Y63709D01*
X5290Y63678D01*
X5352Y63639D01*
X5409Y63593D01*
X5446Y63580D01*
X5480Y63559D01*
X5552Y63545D01*
X5621Y63521D01*
X5661Y63522D01*
X5700Y63514D01*
X5772Y63526D01*
X5846Y63528D01*
X5882Y63543D01*
X5922Y63549D01*
X6007Y63593D01*
X6053Y63612D01*
X6067Y63624D01*
X6088Y63635D01*
X7375Y64570D01*
X8800Y65296D01*
X10321Y65791D01*
X11900Y66041D01*
X19051Y66041D01*
X19051Y56515D01*
X19062Y56450D01*
X19064Y56385D01*
X19082Y56341D01*
X19090Y56294D01*
X19124Y56238D01*
X19149Y56177D01*
X19180Y56142D01*
X19205Y56101D01*
X19256Y56060D01*
X19300Y56011D01*
X19342Y55989D01*
X19379Y55960D01*
X19441Y55939D01*
X19500Y55909D01*
X19554Y55900D01*
X19591Y55888D01*
X19631Y55889D01*
X19685Y55881D01*
X20321Y55881D01*
X20321Y55879D01*
X19685Y55879D01*
X19620Y55867D01*
X19554Y55866D01*
X19511Y55848D01*
X19464Y55839D01*
X19407Y55806D01*
X19347Y55781D01*
X19312Y55749D01*
X19271Y55725D01*
X19230Y55674D01*
X19181Y55630D01*
X19159Y55588D01*
X19130Y55551D01*
X19109Y55489D01*
X19078Y55430D01*
X19070Y55376D01*
X19058Y55339D01*
X19059Y55299D01*
X19051Y55245D01*
X19051Y45719D01*
X11900Y45719D01*
X10321Y45969D01*
X8800Y46464D01*
X7375Y47190D01*
X6088Y48125D01*
X6052Y48142D01*
X6021Y48167D01*
X5952Y48190D01*
X5886Y48222D01*
X5846Y48226D01*
X5809Y48239D01*
X5735Y48237D01*
X5662Y48244D01*
X5624Y48233D01*
X5584Y48232D01*
X5517Y48205D01*
X5446Y48186D01*
X5413Y48163D01*
X5377Y48148D01*
X5322Y48099D01*
X5263Y48056D01*
X5240Y48023D01*
X5211Y47997D01*
X5177Y47931D01*
X5136Y47871D01*
X5127Y47832D01*
X5108Y47797D01*
X5094Y47702D01*
X5082Y47653D01*
X5084Y47635D01*
X5081Y47612D01*
X5081Y5715D01*
X5092Y5650D01*
X5094Y5584D01*
X5112Y5541D01*
X5120Y5494D01*
X5154Y5437D01*
X5179Y5377D01*
X5210Y5342D01*
X5235Y5301D01*
X5286Y5259D01*
X5330Y5211D01*
X5372Y5189D01*
X5409Y5160D01*
X5471Y5139D01*
X5530Y5108D01*
X5584Y5100D01*
X5621Y5088D01*
X5661Y5089D01*
X5715Y5081D01*
X244285Y5081D01*
X244350Y5092D01*
G37*
%LPC*%
G36*
X116006Y9919D02*
X116006Y9919D01*
X108625Y12976D01*
X102976Y18625D01*
X99919Y26006D01*
X99919Y33994D01*
X102976Y41375D01*
X108625Y47024D01*
X116006Y50081D01*
X123994Y50081D01*
X131375Y47024D01*
X137024Y41375D01*
X140081Y33994D01*
X140081Y26006D01*
X137024Y18625D01*
X131375Y12976D01*
X123994Y9919D01*
X116006Y9919D01*
G37*
%LPD*%
%LPC*%
G36*
X73598Y68198D02*
X73598Y68198D01*
X68790Y70190D01*
X65110Y73870D01*
X63118Y78678D01*
X63118Y83882D01*
X65110Y88690D01*
X68790Y92370D01*
X73598Y94362D01*
X78802Y94362D01*
X83610Y92370D01*
X87290Y88690D01*
X89282Y83882D01*
X89282Y78678D01*
X87290Y73870D01*
X83610Y70190D01*
X78802Y68198D01*
X73598Y68198D01*
G37*
%LPD*%
%LPC*%
G36*
X21589Y57149D02*
X21589Y57149D01*
X21589Y66041D01*
X28740Y66041D01*
X30319Y65791D01*
X31840Y65296D01*
X33265Y64570D01*
X34559Y63630D01*
X35690Y62499D01*
X36630Y61205D01*
X37356Y59780D01*
X37851Y58259D01*
X38026Y57149D01*
X21589Y57149D01*
G37*
%LPD*%
%LPC*%
G36*
X210894Y55879D02*
X210894Y55879D01*
X211069Y56989D01*
X211564Y58510D01*
X212290Y59935D01*
X213230Y61229D01*
X214361Y62360D01*
X215655Y63300D01*
X217080Y64026D01*
X218601Y64521D01*
X220180Y64771D01*
X227331Y64771D01*
X227331Y55879D01*
X210894Y55879D01*
G37*
%LPD*%
%LPC*%
G36*
X21589Y45719D02*
X21589Y45719D01*
X21589Y54611D01*
X38026Y54611D01*
X37851Y53501D01*
X37356Y51980D01*
X36630Y50555D01*
X35690Y49261D01*
X34559Y48130D01*
X33265Y47190D01*
X31840Y46464D01*
X30319Y45969D01*
X28740Y45719D01*
X21589Y45719D01*
G37*
%LPD*%
%LPC*%
G36*
X220180Y44449D02*
X220180Y44449D01*
X218601Y44699D01*
X217080Y45194D01*
X215655Y45920D01*
X214361Y46860D01*
X213230Y47991D01*
X212290Y49285D01*
X211564Y50710D01*
X211069Y52231D01*
X210894Y53341D01*
X227331Y53341D01*
X227331Y44449D01*
X220180Y44449D01*
G37*
%LPD*%
%LPC*%
G36*
X77469Y57149D02*
X77469Y57149D01*
X77469Y66422D01*
X80567Y66422D01*
X86742Y60247D01*
X86742Y57149D01*
X77469Y57149D01*
G37*
%LPD*%
%LPC*%
G36*
X65658Y57149D02*
X65658Y57149D01*
X65658Y60247D01*
X71833Y66422D01*
X74931Y66422D01*
X74931Y57149D01*
X65658Y57149D01*
G37*
%LPD*%
%LPC*%
G36*
X77469Y45338D02*
X77469Y45338D01*
X77469Y54611D01*
X86742Y54611D01*
X86742Y51513D01*
X80567Y45338D01*
X77469Y45338D01*
G37*
%LPD*%
%LPC*%
G36*
X71833Y45338D02*
X71833Y45338D01*
X65658Y51513D01*
X65658Y54611D01*
X74931Y54611D01*
X74931Y45338D01*
X71833Y45338D01*
G37*
%LPD*%
%LPC*%
G36*
X76199Y55879D02*
X76199Y55879D01*
X76199Y55881D01*
X76201Y55881D01*
X76201Y55879D01*
X76199Y55879D01*
G37*
%LPD*%
D10*
X76200Y55880D03*
D11*
X76200Y81280D03*
D12*
X27940Y55880D02*
X12700Y55880D01*
X12700Y81280D02*
X27940Y81280D01*
X220980Y80010D02*
X236220Y80010D01*
X236220Y54610D02*
X220980Y54610D01*
M02*
