G04 EAGLE Gerber RS-274X export*
G75*
%MOMM*%
%FSLAX34Y34*%
%LPD*%
%INTop Copper*%
%IPPOS*%
%AMOC8*
5,1,8,0,0,1.08239X$1,22.5*%
G01*
%ADD10P,1.732040X8X292.500000*%
%ADD11C,1.600200*%
%ADD12R,1.500000X1.300000*%
%ADD13R,1.300000X1.500000*%
%ADD14R,0.800000X1.200000*%
%ADD15C,1.524000*%
%ADD16C,1.000000*%
%ADD17C,0.800000*%

G36*
X243430Y6012D02*
X243430Y6012D01*
X243496Y6014D01*
X243539Y6032D01*
X243586Y6040D01*
X243643Y6074D01*
X243703Y6099D01*
X243738Y6130D01*
X243779Y6155D01*
X243821Y6206D01*
X243869Y6250D01*
X243891Y6292D01*
X243920Y6329D01*
X243941Y6391D01*
X243972Y6450D01*
X243980Y6504D01*
X243992Y6541D01*
X243991Y6581D01*
X243999Y6635D01*
X243999Y46489D01*
X243984Y46576D01*
X243974Y46665D01*
X243964Y46686D01*
X243960Y46709D01*
X243914Y46786D01*
X243875Y46866D01*
X243858Y46882D01*
X243845Y46903D01*
X243776Y46959D01*
X243712Y47020D01*
X243690Y47029D01*
X243671Y47044D01*
X243587Y47073D01*
X243505Y47107D01*
X243481Y47108D01*
X243459Y47116D01*
X243370Y47113D01*
X243281Y47117D01*
X243258Y47110D01*
X243234Y47109D01*
X243152Y47076D01*
X243067Y47049D01*
X243046Y47033D01*
X243027Y47025D01*
X242989Y46991D01*
X242916Y46937D01*
X242839Y46860D01*
X241545Y45920D01*
X240120Y45194D01*
X238599Y44699D01*
X237020Y44449D01*
X229869Y44449D01*
X229869Y53975D01*
X229858Y54040D01*
X229856Y54105D01*
X229838Y54149D01*
X229830Y54196D01*
X229796Y54252D01*
X229771Y54313D01*
X229739Y54348D01*
X229715Y54389D01*
X229664Y54430D01*
X229620Y54479D01*
X229578Y54501D01*
X229541Y54530D01*
X229479Y54551D01*
X229420Y54581D01*
X229366Y54590D01*
X229329Y54602D01*
X229289Y54601D01*
X229235Y54609D01*
X228599Y54609D01*
X228599Y54611D01*
X229235Y54611D01*
X229300Y54623D01*
X229365Y54624D01*
X229409Y54642D01*
X229456Y54651D01*
X229513Y54684D01*
X229573Y54709D01*
X229608Y54741D01*
X229649Y54765D01*
X229690Y54816D01*
X229739Y54860D01*
X229761Y54902D01*
X229790Y54939D01*
X229811Y55001D01*
X229842Y55060D01*
X229850Y55114D01*
X229862Y55151D01*
X229861Y55191D01*
X229869Y55245D01*
X229869Y64771D01*
X237020Y64771D01*
X238599Y64521D01*
X240120Y64026D01*
X241545Y63300D01*
X242839Y62360D01*
X242916Y62283D01*
X242989Y62232D01*
X243059Y62176D01*
X243081Y62168D01*
X243101Y62155D01*
X243187Y62133D01*
X243271Y62104D01*
X243295Y62105D01*
X243318Y62099D01*
X243407Y62108D01*
X243496Y62111D01*
X243517Y62120D01*
X243541Y62122D01*
X243621Y62162D01*
X243703Y62195D01*
X243721Y62211D01*
X243742Y62221D01*
X243803Y62286D01*
X243869Y62346D01*
X243880Y62367D01*
X243896Y62385D01*
X243931Y62467D01*
X243972Y62546D01*
X243975Y62572D01*
X243984Y62591D01*
X243986Y62642D01*
X243999Y62731D01*
X243999Y67540D01*
X243987Y67608D01*
X243986Y67654D01*
X243983Y67661D01*
X243980Y67694D01*
X243966Y67726D01*
X243960Y67761D01*
X243920Y67828D01*
X243888Y67898D01*
X243864Y67924D01*
X243845Y67954D01*
X243785Y68003D01*
X243731Y68058D01*
X243699Y68073D01*
X243671Y68096D01*
X243598Y68120D01*
X243528Y68153D01*
X243492Y68156D01*
X243459Y68167D01*
X243381Y68165D01*
X243304Y68171D01*
X243265Y68162D01*
X243234Y68161D01*
X243191Y68143D01*
X243122Y68126D01*
X238929Y66389D01*
X218271Y66389D01*
X213264Y68463D01*
X212294Y69433D01*
X212259Y69458D01*
X212230Y69489D01*
X212168Y69521D01*
X212110Y69562D01*
X212069Y69572D01*
X212031Y69592D01*
X211941Y69605D01*
X211892Y69618D01*
X211872Y69615D01*
X211845Y69619D01*
X209868Y69619D01*
X209826Y69612D01*
X209784Y69614D01*
X209717Y69592D01*
X209647Y69580D01*
X209611Y69558D01*
X209570Y69545D01*
X209498Y69491D01*
X209454Y69465D01*
X209441Y69449D01*
X209420Y69433D01*
X209019Y69033D01*
X208552Y68839D01*
X208507Y68810D01*
X208457Y68790D01*
X208413Y68750D01*
X208363Y68718D01*
X208331Y68675D01*
X208291Y68638D01*
X208264Y68586D01*
X208229Y68539D01*
X208213Y68487D01*
X208188Y68439D01*
X208178Y68369D01*
X208165Y68324D01*
X208167Y68293D01*
X208161Y68253D01*
X208161Y62889D01*
X198755Y62889D01*
X198690Y62878D01*
X198625Y62876D01*
X198581Y62858D01*
X198534Y62849D01*
X198478Y62816D01*
X198417Y62791D01*
X198382Y62759D01*
X198341Y62735D01*
X198300Y62684D01*
X198251Y62640D01*
X198229Y62598D01*
X198200Y62561D01*
X198179Y62499D01*
X198149Y62440D01*
X198140Y62386D01*
X198128Y62349D01*
X198129Y62309D01*
X198121Y62255D01*
X198121Y61619D01*
X198119Y61619D01*
X198119Y62255D01*
X198107Y62320D01*
X198106Y62385D01*
X198088Y62429D01*
X198079Y62476D01*
X198046Y62533D01*
X198021Y62593D01*
X197989Y62628D01*
X197965Y62669D01*
X197914Y62710D01*
X197870Y62759D01*
X197828Y62781D01*
X197791Y62810D01*
X197729Y62831D01*
X197670Y62861D01*
X197616Y62870D01*
X197579Y62882D01*
X197539Y62881D01*
X197485Y62889D01*
X188079Y62889D01*
X188079Y68253D01*
X188070Y68307D01*
X188070Y68361D01*
X188050Y68416D01*
X188040Y68474D01*
X188012Y68521D01*
X187994Y68572D01*
X187955Y68617D01*
X187925Y68668D01*
X187883Y68702D01*
X187848Y68743D01*
X187787Y68780D01*
X187751Y68809D01*
X187722Y68819D01*
X187688Y68839D01*
X187394Y68961D01*
X187364Y68968D01*
X187337Y68982D01*
X187220Y68999D01*
X187175Y69009D01*
X187165Y69007D01*
X187152Y69009D01*
X182948Y69009D01*
X182861Y68994D01*
X182772Y68984D01*
X182751Y68974D01*
X182727Y68970D01*
X182651Y68924D01*
X182571Y68885D01*
X182555Y68868D01*
X182534Y68855D01*
X182478Y68786D01*
X182417Y68722D01*
X182408Y68700D01*
X182393Y68681D01*
X182364Y68597D01*
X182330Y68515D01*
X182329Y68491D01*
X182321Y68469D01*
X182324Y68380D01*
X182320Y68291D01*
X182327Y68268D01*
X182328Y68244D01*
X182361Y68162D01*
X182388Y68077D01*
X182404Y68056D01*
X182412Y68037D01*
X182446Y67999D01*
X182500Y67927D01*
X183647Y66779D01*
X184561Y64574D01*
X184561Y47186D01*
X183647Y44981D01*
X181959Y43293D01*
X180960Y42879D01*
X180870Y42821D01*
X180779Y42765D01*
X180776Y42761D01*
X180771Y42758D01*
X180707Y42672D01*
X180641Y42588D01*
X180640Y42583D01*
X180636Y42578D01*
X180605Y42475D01*
X180574Y42374D01*
X180574Y42369D01*
X180572Y42363D01*
X180579Y42256D01*
X180585Y42150D01*
X180587Y42145D01*
X180587Y42139D01*
X180601Y42109D01*
X180653Y41976D01*
X180928Y41501D01*
X181101Y40855D01*
X181101Y34289D01*
X172695Y34289D01*
X172630Y34278D01*
X172565Y34276D01*
X172521Y34258D01*
X172474Y34249D01*
X172418Y34216D01*
X172357Y34191D01*
X172322Y34159D01*
X172281Y34135D01*
X172240Y34084D01*
X172191Y34040D01*
X172169Y33998D01*
X172140Y33961D01*
X172119Y33899D01*
X172089Y33840D01*
X172080Y33786D01*
X172068Y33749D01*
X172069Y33709D01*
X172061Y33655D01*
X172061Y33019D01*
X171425Y33019D01*
X171360Y33007D01*
X171295Y33006D01*
X171251Y32988D01*
X171204Y32979D01*
X171147Y32946D01*
X171087Y32921D01*
X171052Y32889D01*
X171011Y32865D01*
X170970Y32814D01*
X170921Y32770D01*
X170899Y32728D01*
X170870Y32691D01*
X170849Y32629D01*
X170818Y32570D01*
X170810Y32516D01*
X170798Y32479D01*
X170799Y32439D01*
X170791Y32385D01*
X170791Y22979D01*
X165427Y22979D01*
X165373Y22970D01*
X165319Y22970D01*
X165264Y22950D01*
X165206Y22940D01*
X165159Y22912D01*
X165108Y22894D01*
X165063Y22855D01*
X165012Y22825D01*
X164978Y22783D01*
X164937Y22748D01*
X164900Y22687D01*
X164871Y22651D01*
X164861Y22622D01*
X164841Y22588D01*
X164647Y22121D01*
X162959Y20433D01*
X160754Y19519D01*
X145366Y19519D01*
X143161Y20433D01*
X141473Y22121D01*
X141056Y23127D01*
X141008Y23202D01*
X140966Y23280D01*
X140948Y23296D01*
X140935Y23316D01*
X140864Y23369D01*
X140797Y23428D01*
X140775Y23436D01*
X140756Y23451D01*
X140670Y23476D01*
X140587Y23508D01*
X140563Y23508D01*
X140541Y23515D01*
X140452Y23509D01*
X140363Y23509D01*
X140340Y23501D01*
X140317Y23500D01*
X140235Y23463D01*
X140152Y23433D01*
X140134Y23417D01*
X140112Y23408D01*
X140049Y23345D01*
X139981Y23288D01*
X139967Y23265D01*
X139952Y23250D01*
X139931Y23205D01*
X139884Y23127D01*
X137804Y18104D01*
X131896Y12196D01*
X124177Y8999D01*
X115823Y8999D01*
X108104Y12196D01*
X102196Y18104D01*
X98999Y25823D01*
X98999Y34177D01*
X102196Y41896D01*
X108104Y47804D01*
X115823Y51001D01*
X124177Y51001D01*
X131896Y47804D01*
X137804Y41896D01*
X139339Y38189D01*
X139393Y38104D01*
X139445Y38018D01*
X139454Y38010D01*
X139460Y38000D01*
X139541Y37940D01*
X139619Y37876D01*
X139630Y37872D01*
X139640Y37865D01*
X139736Y37837D01*
X139831Y37804D01*
X139843Y37805D01*
X139855Y37801D01*
X139956Y37808D01*
X140056Y37811D01*
X140067Y37815D01*
X140078Y37816D01*
X140171Y37858D01*
X140263Y37895D01*
X140272Y37903D01*
X140283Y37908D01*
X140355Y37979D01*
X140429Y38047D01*
X140435Y38057D01*
X140443Y38066D01*
X140485Y38157D01*
X140532Y38246D01*
X140534Y38259D01*
X140538Y38269D01*
X140542Y38314D01*
X140559Y38432D01*
X140559Y41714D01*
X141473Y43919D01*
X141555Y44002D01*
X141593Y44055D01*
X141638Y44103D01*
X141656Y44147D01*
X141683Y44186D01*
X141700Y44250D01*
X141725Y44310D01*
X141727Y44357D01*
X141739Y44403D01*
X141732Y44468D01*
X141735Y44534D01*
X141721Y44579D01*
X141716Y44626D01*
X141687Y44685D01*
X141667Y44748D01*
X141634Y44792D01*
X141617Y44827D01*
X141588Y44854D01*
X141555Y44899D01*
X141473Y44981D01*
X140559Y47186D01*
X140559Y64574D01*
X141473Y66779D01*
X142620Y67927D01*
X142671Y68000D01*
X142727Y68069D01*
X142735Y68091D01*
X142748Y68111D01*
X142771Y68197D01*
X142799Y68281D01*
X142798Y68305D01*
X142804Y68328D01*
X142795Y68417D01*
X142792Y68506D01*
X142784Y68528D01*
X142781Y68551D01*
X142742Y68631D01*
X142708Y68713D01*
X142692Y68731D01*
X142682Y68752D01*
X142617Y68813D01*
X142557Y68879D01*
X142536Y68890D01*
X142518Y68906D01*
X142436Y68941D01*
X142357Y68982D01*
X142331Y68985D01*
X142312Y68994D01*
X142261Y68996D01*
X142172Y69009D01*
X137968Y69009D01*
X137938Y69004D01*
X137908Y69006D01*
X137793Y68978D01*
X137748Y68970D01*
X137738Y68964D01*
X137726Y68961D01*
X137432Y68839D01*
X137387Y68810D01*
X137337Y68790D01*
X137293Y68750D01*
X137243Y68718D01*
X137211Y68675D01*
X137171Y68638D01*
X137144Y68586D01*
X137109Y68539D01*
X137093Y68487D01*
X137068Y68439D01*
X137058Y68369D01*
X137045Y68324D01*
X137047Y68293D01*
X137041Y68253D01*
X137041Y62889D01*
X127635Y62889D01*
X127570Y62878D01*
X127505Y62876D01*
X127461Y62858D01*
X127414Y62849D01*
X127358Y62816D01*
X127297Y62791D01*
X127262Y62759D01*
X127221Y62735D01*
X127180Y62684D01*
X127131Y62640D01*
X127109Y62598D01*
X127080Y62561D01*
X127059Y62499D01*
X127029Y62440D01*
X127020Y62386D01*
X127008Y62349D01*
X127009Y62309D01*
X127001Y62255D01*
X127001Y61619D01*
X126999Y61619D01*
X126999Y62255D01*
X126987Y62320D01*
X126986Y62385D01*
X126968Y62429D01*
X126959Y62476D01*
X126926Y62533D01*
X126901Y62593D01*
X126869Y62628D01*
X126845Y62669D01*
X126794Y62710D01*
X126750Y62759D01*
X126708Y62781D01*
X126671Y62810D01*
X126609Y62831D01*
X126550Y62861D01*
X126496Y62870D01*
X126459Y62882D01*
X126419Y62881D01*
X126365Y62889D01*
X116959Y62889D01*
X116959Y68253D01*
X116950Y68307D01*
X116950Y68361D01*
X116930Y68416D01*
X116920Y68474D01*
X116892Y68521D01*
X116874Y68572D01*
X116835Y68617D01*
X116805Y68668D01*
X116763Y68702D01*
X116728Y68743D01*
X116667Y68780D01*
X116631Y68809D01*
X116602Y68819D01*
X116568Y68839D01*
X116101Y69033D01*
X115700Y69433D01*
X115665Y69458D01*
X115637Y69489D01*
X115574Y69521D01*
X115516Y69562D01*
X115475Y69572D01*
X115437Y69592D01*
X115347Y69605D01*
X115299Y69618D01*
X115278Y69615D01*
X115252Y69619D01*
X84603Y69619D01*
X84562Y69612D01*
X84519Y69614D01*
X84452Y69592D01*
X84383Y69580D01*
X84346Y69558D01*
X84306Y69545D01*
X84233Y69491D01*
X84189Y69465D01*
X84176Y69449D01*
X84155Y69433D01*
X84131Y69410D01*
X79863Y67642D01*
X79778Y67588D01*
X79692Y67536D01*
X79684Y67527D01*
X79674Y67521D01*
X79614Y67440D01*
X79550Y67362D01*
X79547Y67351D01*
X79539Y67341D01*
X79511Y67245D01*
X79479Y67150D01*
X79479Y67138D01*
X79475Y67126D01*
X79482Y67025D01*
X79485Y66925D01*
X79490Y66914D01*
X79490Y66903D01*
X79532Y66810D01*
X79569Y66718D01*
X79577Y66709D01*
X79582Y66698D01*
X79653Y66626D01*
X79721Y66552D01*
X79731Y66546D01*
X79740Y66538D01*
X79831Y66496D01*
X79920Y66449D01*
X79933Y66447D01*
X79943Y66443D01*
X79988Y66439D01*
X80106Y66422D01*
X80567Y66422D01*
X86742Y60247D01*
X86742Y57149D01*
X76835Y57149D01*
X76770Y57138D01*
X76705Y57136D01*
X76661Y57118D01*
X76614Y57110D01*
X76558Y57076D01*
X76497Y57051D01*
X76462Y57019D01*
X76421Y56995D01*
X76380Y56944D01*
X76331Y56900D01*
X76309Y56858D01*
X76280Y56821D01*
X76259Y56759D01*
X76229Y56700D01*
X76220Y56646D01*
X76208Y56609D01*
X76209Y56569D01*
X76201Y56515D01*
X76201Y55879D01*
X76199Y55879D01*
X76199Y56515D01*
X76187Y56580D01*
X76186Y56645D01*
X76168Y56689D01*
X76159Y56736D01*
X76126Y56793D01*
X76101Y56853D01*
X76069Y56888D01*
X76045Y56929D01*
X75994Y56970D01*
X75950Y57019D01*
X75908Y57041D01*
X75871Y57070D01*
X75809Y57091D01*
X75750Y57122D01*
X75696Y57130D01*
X75659Y57142D01*
X75619Y57141D01*
X75565Y57149D01*
X65658Y57149D01*
X65658Y60247D01*
X71833Y66422D01*
X72294Y66422D01*
X72393Y66440D01*
X72493Y66454D01*
X72503Y66459D01*
X72515Y66461D01*
X72601Y66512D01*
X72690Y66560D01*
X72698Y66569D01*
X72708Y66576D01*
X72771Y66653D01*
X72838Y66729D01*
X72842Y66741D01*
X72850Y66750D01*
X72882Y66845D01*
X72918Y66939D01*
X72918Y66951D01*
X72921Y66962D01*
X72919Y67062D01*
X72919Y67163D01*
X72915Y67175D01*
X72915Y67187D01*
X72877Y67279D01*
X72843Y67374D01*
X72835Y67383D01*
X72831Y67394D01*
X72763Y67469D01*
X72698Y67545D01*
X72686Y67552D01*
X72679Y67560D01*
X72638Y67581D01*
X72537Y67642D01*
X68269Y69410D01*
X67585Y70093D01*
X67550Y70118D01*
X67522Y70149D01*
X67459Y70181D01*
X67401Y70222D01*
X67360Y70232D01*
X67322Y70252D01*
X67232Y70265D01*
X67184Y70278D01*
X67163Y70275D01*
X67137Y70279D01*
X36465Y70279D01*
X36423Y70272D01*
X36380Y70274D01*
X36313Y70252D01*
X36244Y70240D01*
X36207Y70218D01*
X36167Y70205D01*
X36094Y70151D01*
X36051Y70125D01*
X36037Y70109D01*
X36016Y70093D01*
X35656Y69733D01*
X30649Y67659D01*
X9991Y67659D01*
X6878Y68949D01*
X6802Y68965D01*
X6729Y68990D01*
X6693Y68989D01*
X6658Y68997D01*
X6582Y68986D01*
X6504Y68983D01*
X6472Y68970D01*
X6436Y68965D01*
X6368Y68928D01*
X6297Y68899D01*
X6270Y68875D01*
X6239Y68858D01*
X6188Y68800D01*
X6131Y68748D01*
X6115Y68716D01*
X6091Y68689D01*
X6064Y68617D01*
X6028Y68548D01*
X6022Y68508D01*
X6012Y68480D01*
X6011Y68433D01*
X6001Y68363D01*
X6001Y64817D01*
X6008Y64778D01*
X6006Y64738D01*
X6027Y64668D01*
X6040Y64596D01*
X6061Y64562D01*
X6072Y64524D01*
X6117Y64466D01*
X6155Y64403D01*
X6185Y64378D01*
X6210Y64346D01*
X6272Y64308D01*
X6329Y64261D01*
X6366Y64249D01*
X6400Y64228D01*
X6472Y64213D01*
X6541Y64190D01*
X6581Y64191D01*
X6620Y64183D01*
X6692Y64194D01*
X6766Y64196D01*
X6802Y64211D01*
X6842Y64217D01*
X6927Y64262D01*
X6973Y64280D01*
X6987Y64293D01*
X7008Y64304D01*
X7375Y64570D01*
X8800Y65296D01*
X10321Y65791D01*
X11900Y66041D01*
X19051Y66041D01*
X19051Y56515D01*
X19062Y56450D01*
X19064Y56385D01*
X19082Y56341D01*
X19090Y56294D01*
X19124Y56238D01*
X19149Y56177D01*
X19180Y56142D01*
X19205Y56101D01*
X19256Y56060D01*
X19300Y56011D01*
X19342Y55989D01*
X19379Y55960D01*
X19441Y55939D01*
X19500Y55909D01*
X19554Y55900D01*
X19591Y55888D01*
X19631Y55889D01*
X19685Y55881D01*
X20321Y55881D01*
X20321Y55879D01*
X19685Y55879D01*
X19620Y55867D01*
X19554Y55866D01*
X19511Y55848D01*
X19464Y55839D01*
X19407Y55806D01*
X19347Y55781D01*
X19312Y55749D01*
X19271Y55725D01*
X19230Y55674D01*
X19181Y55630D01*
X19159Y55588D01*
X19130Y55551D01*
X19109Y55489D01*
X19078Y55430D01*
X19070Y55376D01*
X19058Y55339D01*
X19059Y55299D01*
X19051Y55245D01*
X19051Y45719D01*
X11900Y45719D01*
X10321Y45969D01*
X8800Y46464D01*
X7375Y47190D01*
X7008Y47456D01*
X6972Y47474D01*
X6941Y47499D01*
X6872Y47522D01*
X6806Y47554D01*
X6766Y47558D01*
X6729Y47570D01*
X6655Y47568D01*
X6582Y47575D01*
X6544Y47565D01*
X6504Y47564D01*
X6437Y47536D01*
X6366Y47517D01*
X6333Y47494D01*
X6297Y47480D01*
X6242Y47430D01*
X6183Y47388D01*
X6160Y47355D01*
X6131Y47328D01*
X6097Y47263D01*
X6056Y47202D01*
X6047Y47164D01*
X6028Y47129D01*
X6014Y47034D01*
X6002Y46985D01*
X6004Y46966D01*
X6001Y46943D01*
X6001Y6635D01*
X6012Y6570D01*
X6014Y6504D01*
X6032Y6461D01*
X6040Y6414D01*
X6074Y6357D01*
X6099Y6297D01*
X6130Y6262D01*
X6155Y6221D01*
X6206Y6179D01*
X6250Y6131D01*
X6292Y6109D01*
X6329Y6080D01*
X6391Y6059D01*
X6450Y6028D01*
X6504Y6020D01*
X6541Y6008D01*
X6581Y6009D01*
X6635Y6001D01*
X243365Y6001D01*
X243430Y6012D01*
G37*
%LPC*%
G36*
X21589Y57149D02*
X21589Y57149D01*
X21589Y66041D01*
X28740Y66041D01*
X30319Y65791D01*
X31840Y65296D01*
X33265Y64570D01*
X34559Y63630D01*
X35690Y62499D01*
X36630Y61205D01*
X37356Y59780D01*
X37851Y58259D01*
X38026Y57149D01*
X21589Y57149D01*
G37*
%LPD*%
%LPC*%
G36*
X210894Y55879D02*
X210894Y55879D01*
X211069Y56989D01*
X211564Y58510D01*
X212290Y59935D01*
X213230Y61229D01*
X214361Y62360D01*
X215655Y63300D01*
X217080Y64026D01*
X218601Y64521D01*
X220180Y64771D01*
X227331Y64771D01*
X227331Y55879D01*
X210894Y55879D01*
G37*
%LPD*%
%LPC*%
G36*
X21589Y45719D02*
X21589Y45719D01*
X21589Y54611D01*
X38026Y54611D01*
X37851Y53501D01*
X37356Y51980D01*
X36630Y50555D01*
X35690Y49261D01*
X34559Y48130D01*
X33265Y47190D01*
X31840Y46464D01*
X30319Y45969D01*
X28740Y45719D01*
X21589Y45719D01*
G37*
%LPD*%
%LPC*%
G36*
X220180Y44449D02*
X220180Y44449D01*
X218601Y44699D01*
X217080Y45194D01*
X215655Y45920D01*
X214361Y46860D01*
X213230Y47991D01*
X212290Y49285D01*
X211564Y50710D01*
X211069Y52231D01*
X210894Y53341D01*
X227331Y53341D01*
X227331Y44449D01*
X220180Y44449D01*
G37*
%LPD*%
%LPC*%
G36*
X77469Y45338D02*
X77469Y45338D01*
X77469Y54611D01*
X86742Y54611D01*
X86742Y51513D01*
X80567Y45338D01*
X77469Y45338D01*
G37*
%LPD*%
%LPC*%
G36*
X71833Y45338D02*
X71833Y45338D01*
X65658Y51513D01*
X65658Y54611D01*
X74931Y54611D01*
X74931Y45338D01*
X71833Y45338D01*
G37*
%LPD*%
%LPC*%
G36*
X173329Y22979D02*
X173329Y22979D01*
X173329Y31751D01*
X181101Y31751D01*
X181101Y25185D01*
X180928Y24539D01*
X180593Y23960D01*
X180120Y23487D01*
X179541Y23152D01*
X178895Y22979D01*
X173329Y22979D01*
G37*
%LPD*%
%LPC*%
G36*
X199389Y52579D02*
X199389Y52579D01*
X199389Y60351D01*
X208161Y60351D01*
X208161Y54785D01*
X207988Y54139D01*
X207653Y53560D01*
X207180Y53087D01*
X206601Y52752D01*
X205955Y52579D01*
X199389Y52579D01*
G37*
%LPD*%
%LPC*%
G36*
X128269Y52579D02*
X128269Y52579D01*
X128269Y60351D01*
X137041Y60351D01*
X137041Y54785D01*
X136868Y54139D01*
X136533Y53560D01*
X136060Y53087D01*
X135481Y52752D01*
X134835Y52579D01*
X128269Y52579D01*
G37*
%LPD*%
%LPC*%
G36*
X190285Y52579D02*
X190285Y52579D01*
X189639Y52752D01*
X189060Y53087D01*
X188587Y53560D01*
X188252Y54139D01*
X188079Y54785D01*
X188079Y60351D01*
X196851Y60351D01*
X196851Y52579D01*
X190285Y52579D01*
G37*
%LPD*%
%LPC*%
G36*
X119165Y52579D02*
X119165Y52579D01*
X118519Y52752D01*
X117940Y53087D01*
X117467Y53560D01*
X117132Y54139D01*
X116959Y54785D01*
X116959Y60351D01*
X125731Y60351D01*
X125731Y52579D01*
X119165Y52579D01*
G37*
%LPD*%
D10*
X76200Y55880D03*
D11*
X76200Y81280D03*
D12*
X127000Y80620D03*
X127000Y61620D03*
D13*
X172060Y55880D03*
X153060Y55880D03*
D12*
X198120Y80620D03*
X198120Y61620D03*
D14*
X152290Y80010D03*
X170290Y80010D03*
D13*
X172060Y33020D03*
X153060Y33020D03*
D15*
X27940Y55880D02*
X12700Y55880D01*
X12700Y81280D02*
X27940Y81280D01*
X220980Y80010D02*
X236220Y80010D01*
X236220Y54610D02*
X220980Y54610D01*
D16*
X76200Y81280D02*
X20320Y81280D01*
X76860Y80620D02*
X127000Y80620D01*
X76860Y80620D02*
X76200Y81280D01*
D17*
X147320Y80010D02*
X152290Y80010D01*
D16*
X147320Y80010D02*
X127610Y80010D01*
X127000Y80620D01*
D17*
X170290Y57650D02*
X172060Y55880D01*
X170290Y80010D02*
X175260Y80010D01*
D16*
X197510Y80010D01*
X198120Y80620D01*
D17*
X170290Y80010D02*
X170290Y57650D01*
D16*
X198120Y80620D02*
X227990Y80620D01*
X228600Y80010D01*
M02*
