G04 EAGLE Gerber RS-274X export*
G75*
%MOMM*%
%FSLAX34Y34*%
%LPD*%
%INTop Copper*%
%IPPOS*%
%AMOC8*
5,1,8,0,0,1.08239X$1,22.5*%
G01*
%ADD10P,3.409096X8X202.500000*%
%ADD11C,3.149600*%
%ADD12C,2.184400*%
%ADD13C,1.981200*%
%ADD14C,1.524000*%


D10*
X50800Y83820D03*
D11*
X127000Y83820D03*
D12*
X120142Y180600D02*
X98298Y180600D01*
X79220Y217678D02*
X79220Y239522D01*
X139220Y239522D02*
X139220Y217678D01*
D13*
X256286Y73406D02*
X256286Y53594D01*
X206248Y53594D02*
X206248Y73406D01*
X370586Y73406D02*
X370586Y53594D01*
X320548Y53594D02*
X320548Y73406D01*
X484886Y73406D02*
X484886Y53594D01*
X434848Y53594D02*
X434848Y73406D01*
X205994Y200914D02*
X205994Y220726D01*
X256032Y220726D02*
X256032Y200914D01*
X320294Y200914D02*
X320294Y220726D01*
X370332Y220726D02*
X370332Y200914D01*
X434594Y200914D02*
X434594Y220726D01*
X484632Y220726D02*
X484632Y200914D01*
D14*
X533400Y73660D02*
X548640Y73660D01*
X548640Y99060D02*
X533400Y99060D01*
X533400Y124460D02*
X548640Y124460D01*
X548640Y149860D02*
X533400Y149860D01*
X533400Y175260D02*
X548640Y175260D01*
X548640Y200660D02*
X533400Y200660D01*
M02*
