G04 EAGLE Gerber RS-274X export*
G75*
%MOMM*%
%FSLAX34Y34*%
%LPD*%
%INBottom Copper*%
%IPPOS*%
%AMOC8*
5,1,8,0,0,1.08239X$1,22.5*%
G01*
%ADD10P,3.409096X8X202.500000*%
%ADD11C,3.149600*%
%ADD12R,1.600000X1.300000*%
%ADD13C,2.184400*%
%ADD14C,1.981200*%
%ADD15C,1.524000*%
%ADD16C,2.000000*%
%ADD17C,1.000000*%
%ADD18C,1.500000*%

G36*
X570050Y-369D02*
X570050Y-369D01*
X570101Y-367D01*
X570133Y-349D01*
X570169Y-341D01*
X570208Y-308D01*
X570253Y-284D01*
X570274Y-254D01*
X570302Y-231D01*
X570323Y-184D01*
X570353Y-142D01*
X570361Y-100D01*
X570373Y-72D01*
X570372Y-42D01*
X570380Y0D01*
X570380Y275000D01*
X570369Y275050D01*
X570367Y275101D01*
X570349Y275133D01*
X570341Y275169D01*
X570308Y275208D01*
X570284Y275253D01*
X570254Y275274D01*
X570231Y275302D01*
X570184Y275323D01*
X570142Y275353D01*
X570100Y275361D01*
X570072Y275373D01*
X570042Y275372D01*
X570000Y275380D01*
X0Y275380D01*
X-50Y275369D01*
X-101Y275367D01*
X-133Y275349D01*
X-169Y275341D01*
X-208Y275308D01*
X-253Y275284D01*
X-274Y275254D01*
X-302Y275231D01*
X-323Y275184D01*
X-353Y275142D01*
X-361Y275100D01*
X-373Y275072D01*
X-372Y275042D01*
X-380Y275000D01*
X-380Y0D01*
X-369Y-50D01*
X-367Y-101D01*
X-349Y-133D01*
X-341Y-169D01*
X-308Y-208D01*
X-284Y-253D01*
X-254Y-274D01*
X-231Y-302D01*
X-184Y-323D01*
X-142Y-353D01*
X-100Y-361D01*
X-72Y-373D01*
X-42Y-372D01*
X0Y-380D01*
X570000Y-380D01*
X570050Y-369D01*
G37*
%LPC*%
G36*
X157479Y30639D02*
X157479Y30639D01*
X157479Y31021D01*
X157468Y31071D01*
X157466Y31122D01*
X157448Y31154D01*
X157440Y31190D01*
X157407Y31229D01*
X157383Y31274D01*
X157353Y31295D01*
X157329Y31323D01*
X157283Y31344D01*
X157241Y31374D01*
X157199Y31382D01*
X157171Y31394D01*
X157141Y31393D01*
X157099Y31401D01*
X146939Y31401D01*
X146939Y37475D01*
X147112Y38121D01*
X147406Y38630D01*
X147407Y38631D01*
X147408Y38632D01*
X147432Y38714D01*
X147457Y38796D01*
X147456Y38797D01*
X147457Y38798D01*
X147442Y38884D01*
X147428Y38967D01*
X147427Y38968D01*
X147427Y38969D01*
X147346Y39089D01*
X144399Y42035D01*
X144399Y48039D01*
X144388Y48089D01*
X144386Y48140D01*
X144368Y48172D01*
X144360Y48208D01*
X144327Y48247D01*
X144303Y48292D01*
X144273Y48313D01*
X144250Y48341D01*
X144203Y48362D01*
X144161Y48392D01*
X144119Y48400D01*
X144091Y48412D01*
X144061Y48411D01*
X144019Y48419D01*
X136700Y48419D01*
X131157Y50715D01*
X118511Y63362D01*
X116124Y65749D01*
X116122Y65750D01*
X116121Y65751D01*
X116000Y65831D01*
X115201Y66162D01*
X109342Y72021D01*
X106171Y79677D01*
X106171Y87963D01*
X109342Y95619D01*
X111808Y98084D01*
X111848Y98149D01*
X111892Y98211D01*
X111894Y98223D01*
X111899Y98231D01*
X111903Y98268D01*
X111919Y98353D01*
X111919Y119840D01*
X114215Y125383D01*
X142288Y153455D01*
X142328Y153520D01*
X142372Y153582D01*
X142374Y153594D01*
X142379Y153603D01*
X142383Y153640D01*
X142399Y153724D01*
X142399Y201295D01*
X142388Y201345D01*
X142386Y201396D01*
X142368Y201428D01*
X142360Y201464D01*
X142327Y201503D01*
X142303Y201548D01*
X142273Y201569D01*
X142250Y201597D01*
X142203Y201618D01*
X142161Y201648D01*
X142119Y201656D01*
X142091Y201668D01*
X142061Y201667D01*
X142019Y201675D01*
X136037Y201675D01*
X130155Y204112D01*
X125654Y208613D01*
X123217Y214495D01*
X123217Y242705D01*
X125654Y248587D01*
X130155Y253088D01*
X136037Y255525D01*
X142403Y255525D01*
X148285Y253088D01*
X152786Y248587D01*
X155223Y242705D01*
X155223Y239162D01*
X155235Y239110D01*
X155236Y239077D01*
X155245Y239061D01*
X155253Y239013D01*
X155260Y239003D01*
X155262Y238993D01*
X155286Y238965D01*
X155334Y238893D01*
X170265Y223963D01*
X172561Y218420D01*
X172561Y144320D01*
X170265Y138777D01*
X142192Y110705D01*
X142152Y110640D01*
X142108Y110578D01*
X142106Y110566D01*
X142101Y110557D01*
X142097Y110520D01*
X142081Y110436D01*
X142081Y98353D01*
X142098Y98279D01*
X142111Y98204D01*
X142118Y98194D01*
X142120Y98184D01*
X142144Y98155D01*
X142192Y98084D01*
X144658Y95619D01*
X147829Y87963D01*
X147829Y79677D01*
X147592Y79107D01*
X147586Y79069D01*
X147570Y79033D01*
X147572Y78984D01*
X147564Y78936D01*
X147576Y78899D01*
X147577Y78860D01*
X147601Y78817D01*
X147615Y78770D01*
X147641Y78742D01*
X147660Y78708D01*
X147700Y78680D01*
X147734Y78644D01*
X147770Y78630D01*
X147801Y78608D01*
X147861Y78597D01*
X147896Y78584D01*
X147917Y78586D01*
X147944Y78581D01*
X191916Y78581D01*
X191978Y78595D01*
X192041Y78602D01*
X192061Y78615D01*
X192085Y78620D01*
X192134Y78661D01*
X192187Y78695D01*
X192202Y78717D01*
X192218Y78730D01*
X192234Y78765D01*
X192267Y78815D01*
X193543Y81895D01*
X197759Y86111D01*
X203267Y88393D01*
X209229Y88393D01*
X214737Y86111D01*
X218953Y81895D01*
X220229Y78815D01*
X220266Y78764D01*
X220296Y78708D01*
X220316Y78694D01*
X220330Y78675D01*
X220386Y78645D01*
X220438Y78608D01*
X220464Y78603D01*
X220483Y78593D01*
X220521Y78592D01*
X220580Y78581D01*
X241954Y78581D01*
X242016Y78595D01*
X242079Y78602D01*
X242099Y78615D01*
X242123Y78620D01*
X242172Y78661D01*
X242225Y78695D01*
X242240Y78717D01*
X242256Y78730D01*
X242272Y78765D01*
X242305Y78815D01*
X243581Y81895D01*
X247797Y86111D01*
X253305Y88393D01*
X259267Y88393D01*
X264775Y86111D01*
X268991Y81895D01*
X270267Y78815D01*
X270304Y78764D01*
X270334Y78708D01*
X270354Y78694D01*
X270368Y78675D01*
X270424Y78645D01*
X270476Y78608D01*
X270502Y78603D01*
X270521Y78593D01*
X270559Y78592D01*
X270618Y78581D01*
X306216Y78581D01*
X306278Y78595D01*
X306341Y78602D01*
X306361Y78615D01*
X306385Y78620D01*
X306434Y78661D01*
X306487Y78695D01*
X306502Y78717D01*
X306518Y78730D01*
X306534Y78765D01*
X306567Y78815D01*
X307843Y81895D01*
X312059Y86111D01*
X317567Y88393D01*
X323529Y88393D01*
X329037Y86111D01*
X333253Y81895D01*
X334529Y78815D01*
X334566Y78764D01*
X334596Y78708D01*
X334616Y78694D01*
X334630Y78675D01*
X334686Y78645D01*
X334738Y78608D01*
X334764Y78603D01*
X334783Y78593D01*
X334821Y78592D01*
X334880Y78581D01*
X356254Y78581D01*
X356316Y78595D01*
X356379Y78602D01*
X356399Y78615D01*
X356423Y78620D01*
X356472Y78661D01*
X356525Y78695D01*
X356540Y78717D01*
X356556Y78730D01*
X356572Y78765D01*
X356605Y78815D01*
X357881Y81895D01*
X362097Y86111D01*
X367605Y88393D01*
X373567Y88393D01*
X379075Y86111D01*
X383291Y81895D01*
X384567Y78815D01*
X384604Y78764D01*
X384634Y78708D01*
X384654Y78694D01*
X384668Y78675D01*
X384724Y78645D01*
X384776Y78608D01*
X384802Y78603D01*
X384821Y78593D01*
X384859Y78592D01*
X384918Y78581D01*
X420516Y78581D01*
X420578Y78595D01*
X420641Y78602D01*
X420661Y78615D01*
X420685Y78620D01*
X420734Y78661D01*
X420787Y78695D01*
X420802Y78717D01*
X420818Y78730D01*
X420834Y78765D01*
X420867Y78815D01*
X422143Y81895D01*
X426359Y86111D01*
X431867Y88393D01*
X437829Y88393D01*
X443337Y86111D01*
X447553Y81895D01*
X448829Y78815D01*
X448866Y78764D01*
X448896Y78708D01*
X448916Y78694D01*
X448930Y78675D01*
X448986Y78645D01*
X449038Y78608D01*
X449064Y78603D01*
X449083Y78593D01*
X449121Y78592D01*
X449180Y78581D01*
X470554Y78581D01*
X470616Y78595D01*
X470679Y78602D01*
X470699Y78615D01*
X470723Y78620D01*
X470772Y78661D01*
X470825Y78695D01*
X470840Y78717D01*
X470856Y78730D01*
X470872Y78765D01*
X470905Y78815D01*
X472181Y81895D01*
X476397Y86111D01*
X481905Y88393D01*
X487867Y88393D01*
X493375Y86111D01*
X497591Y81895D01*
X499855Y76430D01*
X499877Y76399D01*
X499891Y76363D01*
X499927Y76330D01*
X499956Y76289D01*
X499990Y76271D01*
X500018Y76245D01*
X500065Y76231D01*
X500109Y76208D01*
X500147Y76207D01*
X500184Y76196D01*
X500233Y76205D01*
X500282Y76203D01*
X500317Y76219D01*
X500355Y76226D01*
X500405Y76260D01*
X500439Y76276D01*
X500453Y76292D01*
X500475Y76307D01*
X508494Y84325D01*
X513118Y86241D01*
X528059Y86241D01*
X528109Y86252D01*
X528160Y86254D01*
X528192Y86272D01*
X528228Y86280D01*
X528267Y86313D01*
X528312Y86337D01*
X528333Y86367D01*
X528361Y86390D01*
X528382Y86437D01*
X528412Y86479D01*
X528420Y86521D01*
X528432Y86549D01*
X528431Y86579D01*
X528439Y86621D01*
X528439Y87114D01*
X528426Y87170D01*
X528426Y87178D01*
X528424Y87181D01*
X528418Y87239D01*
X528405Y87259D01*
X528400Y87282D01*
X528359Y87331D01*
X528325Y87385D01*
X528303Y87400D01*
X528290Y87416D01*
X528255Y87431D01*
X528205Y87465D01*
X526206Y88293D01*
X522633Y91866D01*
X520699Y96534D01*
X520699Y101586D01*
X522633Y106254D01*
X526206Y109827D01*
X528205Y110655D01*
X528256Y110692D01*
X528312Y110723D01*
X528326Y110742D01*
X528345Y110756D01*
X528375Y110812D01*
X528412Y110864D01*
X528417Y110891D01*
X528427Y110909D01*
X528428Y110947D01*
X528429Y110953D01*
X528432Y110961D01*
X528432Y110969D01*
X528439Y111006D01*
X528439Y112514D01*
X528425Y112575D01*
X528418Y112639D01*
X528405Y112659D01*
X528400Y112682D01*
X528359Y112731D01*
X528325Y112785D01*
X528303Y112800D01*
X528290Y112816D01*
X528255Y112831D01*
X528205Y112865D01*
X526206Y113693D01*
X522633Y117266D01*
X520699Y121934D01*
X520699Y126986D01*
X522633Y131654D01*
X526206Y135227D01*
X530874Y137161D01*
X551166Y137161D01*
X555834Y135227D01*
X559407Y131654D01*
X561341Y126986D01*
X561341Y121934D01*
X559407Y117266D01*
X555834Y113693D01*
X553835Y112865D01*
X553784Y112828D01*
X553728Y112797D01*
X553714Y112778D01*
X553695Y112764D01*
X553665Y112708D01*
X553628Y112656D01*
X553623Y112629D01*
X553613Y112611D01*
X553612Y112573D01*
X553601Y112514D01*
X553601Y111006D01*
X553614Y110952D01*
X553614Y110932D01*
X553617Y110927D01*
X553622Y110881D01*
X553635Y110861D01*
X553640Y110838D01*
X553681Y110789D01*
X553715Y110735D01*
X553737Y110720D01*
X553750Y110704D01*
X553785Y110689D01*
X553835Y110655D01*
X555834Y109827D01*
X559407Y106254D01*
X561341Y101586D01*
X561341Y96534D01*
X559407Y91866D01*
X555834Y88293D01*
X553835Y87465D01*
X553784Y87428D01*
X553728Y87397D01*
X553714Y87378D01*
X553695Y87364D01*
X553665Y87308D01*
X553628Y87256D01*
X553623Y87229D01*
X553613Y87211D01*
X553612Y87173D01*
X553608Y87150D01*
X553608Y87149D01*
X553601Y87114D01*
X553601Y85606D01*
X553615Y85545D01*
X553622Y85481D01*
X553635Y85461D01*
X553640Y85438D01*
X553681Y85389D01*
X553715Y85335D01*
X553737Y85320D01*
X553750Y85304D01*
X553785Y85289D01*
X553835Y85255D01*
X555834Y84427D01*
X559407Y80854D01*
X561341Y76186D01*
X561341Y71134D01*
X559407Y66466D01*
X555834Y62893D01*
X551166Y60959D01*
X530874Y60959D01*
X530654Y61050D01*
X530652Y61051D01*
X530651Y61052D01*
X530508Y61079D01*
X520989Y61079D01*
X520915Y61062D01*
X520840Y61049D01*
X520830Y61042D01*
X520820Y61040D01*
X520791Y61016D01*
X520720Y60968D01*
X512586Y52835D01*
X507962Y50919D01*
X500253Y50919D01*
X500203Y50908D01*
X500152Y50906D01*
X500137Y50897D01*
X500128Y50896D01*
X500112Y50886D01*
X500084Y50880D01*
X500045Y50847D01*
X500000Y50823D01*
X499990Y50809D01*
X499982Y50804D01*
X499969Y50785D01*
X499951Y50770D01*
X499933Y50730D01*
X499905Y50688D01*
X499900Y50681D01*
X499900Y50678D01*
X497591Y45105D01*
X493375Y40889D01*
X487867Y38607D01*
X481905Y38607D01*
X476397Y40889D01*
X472181Y45105D01*
X470905Y48185D01*
X470868Y48236D01*
X470838Y48292D01*
X470818Y48306D01*
X470804Y48325D01*
X470748Y48355D01*
X470696Y48392D01*
X470670Y48397D01*
X470651Y48407D01*
X470613Y48408D01*
X470554Y48419D01*
X449180Y48419D01*
X449118Y48405D01*
X449055Y48398D01*
X449035Y48385D01*
X449011Y48380D01*
X448962Y48339D01*
X448909Y48305D01*
X448894Y48283D01*
X448878Y48270D01*
X448862Y48235D01*
X448829Y48185D01*
X447553Y45105D01*
X443337Y40889D01*
X437829Y38607D01*
X431867Y38607D01*
X426359Y40889D01*
X422143Y45105D01*
X420867Y48185D01*
X420830Y48236D01*
X420800Y48292D01*
X420780Y48306D01*
X420766Y48325D01*
X420710Y48355D01*
X420658Y48392D01*
X420632Y48397D01*
X420613Y48407D01*
X420575Y48408D01*
X420516Y48419D01*
X384918Y48419D01*
X384856Y48405D01*
X384793Y48398D01*
X384773Y48385D01*
X384749Y48380D01*
X384700Y48339D01*
X384647Y48305D01*
X384632Y48283D01*
X384616Y48270D01*
X384600Y48235D01*
X384567Y48185D01*
X383291Y45105D01*
X379075Y40889D01*
X373567Y38607D01*
X367605Y38607D01*
X362097Y40889D01*
X357881Y45105D01*
X356605Y48185D01*
X356568Y48236D01*
X356538Y48292D01*
X356518Y48306D01*
X356504Y48325D01*
X356448Y48355D01*
X356396Y48392D01*
X356370Y48397D01*
X356351Y48407D01*
X356313Y48408D01*
X356254Y48419D01*
X334880Y48419D01*
X334818Y48405D01*
X334755Y48398D01*
X334735Y48385D01*
X334711Y48380D01*
X334662Y48339D01*
X334609Y48305D01*
X334594Y48283D01*
X334578Y48270D01*
X334562Y48235D01*
X334529Y48185D01*
X333253Y45105D01*
X329037Y40889D01*
X323529Y38607D01*
X317567Y38607D01*
X312059Y40889D01*
X307843Y45105D01*
X306567Y48185D01*
X306530Y48236D01*
X306500Y48292D01*
X306480Y48306D01*
X306466Y48325D01*
X306410Y48355D01*
X306358Y48392D01*
X306332Y48397D01*
X306313Y48407D01*
X306275Y48408D01*
X306216Y48419D01*
X270618Y48419D01*
X270556Y48405D01*
X270493Y48398D01*
X270473Y48385D01*
X270449Y48380D01*
X270400Y48339D01*
X270347Y48305D01*
X270332Y48283D01*
X270316Y48270D01*
X270300Y48235D01*
X270267Y48185D01*
X268991Y45105D01*
X264775Y40889D01*
X259267Y38607D01*
X253305Y38607D01*
X247797Y40889D01*
X243581Y45105D01*
X242305Y48185D01*
X242268Y48236D01*
X242238Y48292D01*
X242218Y48306D01*
X242204Y48325D01*
X242148Y48355D01*
X242096Y48392D01*
X242070Y48397D01*
X242051Y48407D01*
X242013Y48408D01*
X241954Y48419D01*
X220580Y48419D01*
X220518Y48405D01*
X220455Y48398D01*
X220435Y48385D01*
X220411Y48380D01*
X220362Y48339D01*
X220309Y48305D01*
X220294Y48283D01*
X220278Y48270D01*
X220262Y48235D01*
X220229Y48185D01*
X218953Y45105D01*
X214737Y40889D01*
X209229Y38607D01*
X203267Y38607D01*
X197759Y40889D01*
X193543Y45105D01*
X192267Y48185D01*
X192230Y48236D01*
X192200Y48292D01*
X192180Y48306D01*
X192166Y48325D01*
X192110Y48355D01*
X192058Y48392D01*
X192032Y48397D01*
X192013Y48407D01*
X191975Y48408D01*
X191916Y48419D01*
X170941Y48419D01*
X170891Y48408D01*
X170840Y48406D01*
X170808Y48388D01*
X170772Y48380D01*
X170733Y48347D01*
X170688Y48323D01*
X170667Y48293D01*
X170639Y48270D01*
X170618Y48223D01*
X170588Y48181D01*
X170580Y48139D01*
X170568Y48111D01*
X170569Y48081D01*
X170561Y48039D01*
X170561Y42035D01*
X167614Y39089D01*
X167613Y39088D01*
X167612Y39087D01*
X167568Y39014D01*
X167523Y38942D01*
X167523Y38940D01*
X167522Y38939D01*
X167514Y38853D01*
X167506Y38769D01*
X167507Y38768D01*
X167506Y38767D01*
X167554Y38630D01*
X167848Y38121D01*
X168021Y37475D01*
X168021Y31401D01*
X157861Y31401D01*
X157811Y31390D01*
X157760Y31388D01*
X157728Y31370D01*
X157692Y31362D01*
X157653Y31329D01*
X157608Y31305D01*
X157587Y31275D01*
X157559Y31251D01*
X157538Y31205D01*
X157508Y31163D01*
X157500Y31121D01*
X157488Y31093D01*
X157489Y31063D01*
X157481Y31021D01*
X157481Y30639D01*
X157479Y30639D01*
G37*
%LPD*%
%LPC*%
G36*
X76037Y201675D02*
X76037Y201675D01*
X70155Y204112D01*
X65654Y208613D01*
X63217Y214495D01*
X63217Y242705D01*
X65654Y248587D01*
X70155Y253088D01*
X76037Y255525D01*
X82403Y255525D01*
X88285Y253088D01*
X92786Y248587D01*
X95223Y242705D01*
X95223Y214495D01*
X92786Y208613D01*
X88285Y204112D01*
X82403Y201675D01*
X76037Y201675D01*
G37*
%LPD*%
%LPC*%
G36*
X536022Y224999D02*
X536022Y224999D01*
X528670Y228044D01*
X523044Y233670D01*
X519999Y241022D01*
X519999Y248978D01*
X523044Y256330D01*
X528670Y261956D01*
X536022Y265001D01*
X543978Y265001D01*
X551330Y261956D01*
X556956Y256330D01*
X560001Y248978D01*
X560001Y241022D01*
X556956Y233670D01*
X551330Y228044D01*
X543978Y224999D01*
X536022Y224999D01*
G37*
%LPD*%
%LPC*%
G36*
X21022Y145099D02*
X21022Y145099D01*
X13670Y148144D01*
X8044Y153770D01*
X4999Y161122D01*
X4999Y169078D01*
X8044Y176430D01*
X13670Y182056D01*
X21022Y185101D01*
X28978Y185101D01*
X36330Y182056D01*
X41956Y176430D01*
X45001Y169078D01*
X45001Y161122D01*
X41956Y153770D01*
X36330Y148144D01*
X28978Y145099D01*
X21022Y145099D01*
G37*
%LPD*%
%LPC*%
G36*
X536022Y9999D02*
X536022Y9999D01*
X528670Y13044D01*
X523044Y18670D01*
X519999Y26022D01*
X519999Y33978D01*
X523044Y41330D01*
X528670Y46956D01*
X536022Y50001D01*
X543978Y50001D01*
X551330Y46956D01*
X556956Y41330D01*
X560001Y33978D01*
X560001Y26022D01*
X556956Y18670D01*
X551330Y13044D01*
X543978Y9999D01*
X536022Y9999D01*
G37*
%LPD*%
%LPC*%
G36*
X109981Y181361D02*
X109981Y181361D01*
X109981Y194063D01*
X121202Y194063D01*
X123295Y193731D01*
X125310Y193076D01*
X127198Y192114D01*
X128912Y190869D01*
X130411Y189370D01*
X131656Y187656D01*
X132618Y185768D01*
X133273Y183753D01*
X133605Y181660D01*
X133605Y181361D01*
X109981Y181361D01*
G37*
%LPD*%
%LPC*%
G36*
X84835Y181361D02*
X84835Y181361D01*
X84835Y181660D01*
X85167Y183753D01*
X85822Y185768D01*
X86784Y187656D01*
X88029Y189370D01*
X89528Y190869D01*
X91242Y192114D01*
X93130Y193076D01*
X95145Y193731D01*
X97238Y194063D01*
X108459Y194063D01*
X108459Y181361D01*
X84835Y181361D01*
G37*
%LPD*%
%LPC*%
G36*
X109981Y167137D02*
X109981Y167137D01*
X109981Y179839D01*
X133605Y179839D01*
X133605Y179540D01*
X133273Y177447D01*
X132618Y175432D01*
X131656Y173544D01*
X130411Y171830D01*
X128912Y170331D01*
X127198Y169086D01*
X125310Y168124D01*
X123295Y167469D01*
X121202Y167137D01*
X109981Y167137D01*
G37*
%LPD*%
%LPC*%
G36*
X97238Y167137D02*
X97238Y167137D01*
X95145Y167469D01*
X93130Y168124D01*
X91242Y169086D01*
X89528Y170331D01*
X88029Y171830D01*
X86784Y173544D01*
X85822Y175432D01*
X85167Y177447D01*
X84835Y179540D01*
X84835Y179839D01*
X108459Y179839D01*
X108459Y167137D01*
X97238Y167137D01*
G37*
%LPD*%
%LPC*%
G36*
X51561Y84581D02*
X51561Y84581D01*
X51561Y102109D01*
X58375Y102109D01*
X69089Y91395D01*
X69089Y84581D01*
X51561Y84581D01*
G37*
%LPD*%
%LPC*%
G36*
X32511Y84581D02*
X32511Y84581D01*
X32511Y91395D01*
X43225Y102109D01*
X50039Y102109D01*
X50039Y84581D01*
X32511Y84581D01*
G37*
%LPD*%
%LPC*%
G36*
X51561Y65531D02*
X51561Y65531D01*
X51561Y83059D01*
X69089Y83059D01*
X69089Y76245D01*
X58375Y65531D01*
X51561Y65531D01*
G37*
%LPD*%
%LPC*%
G36*
X43225Y65531D02*
X43225Y65531D01*
X32511Y76245D01*
X32511Y83059D01*
X50039Y83059D01*
X50039Y65531D01*
X43225Y65531D01*
G37*
%LPD*%
%LPC*%
G36*
X485393Y211581D02*
X485393Y211581D01*
X485393Y233173D01*
X485612Y233173D01*
X487547Y232866D01*
X489410Y232261D01*
X491156Y231371D01*
X492741Y230220D01*
X494126Y228835D01*
X495277Y227250D01*
X496167Y225504D01*
X496772Y223641D01*
X497079Y221706D01*
X497079Y211581D01*
X485393Y211581D01*
G37*
%LPD*%
%LPC*%
G36*
X435355Y211581D02*
X435355Y211581D01*
X435355Y233173D01*
X435574Y233173D01*
X437509Y232866D01*
X439372Y232261D01*
X441118Y231371D01*
X442703Y230220D01*
X444088Y228835D01*
X445239Y227250D01*
X446129Y225504D01*
X446734Y223641D01*
X447041Y221706D01*
X447041Y211581D01*
X435355Y211581D01*
G37*
%LPD*%
%LPC*%
G36*
X371093Y211581D02*
X371093Y211581D01*
X371093Y233173D01*
X371312Y233173D01*
X373247Y232866D01*
X375110Y232261D01*
X376856Y231371D01*
X378441Y230220D01*
X379826Y228835D01*
X380977Y227250D01*
X381867Y225504D01*
X382472Y223641D01*
X382779Y221706D01*
X382779Y211581D01*
X371093Y211581D01*
G37*
%LPD*%
%LPC*%
G36*
X321055Y211581D02*
X321055Y211581D01*
X321055Y233173D01*
X321274Y233173D01*
X323209Y232866D01*
X325072Y232261D01*
X326818Y231371D01*
X328403Y230220D01*
X329788Y228835D01*
X330939Y227250D01*
X331829Y225504D01*
X332434Y223641D01*
X332741Y221706D01*
X332741Y211581D01*
X321055Y211581D01*
G37*
%LPD*%
%LPC*%
G36*
X256793Y211581D02*
X256793Y211581D01*
X256793Y233173D01*
X257012Y233173D01*
X258947Y232866D01*
X260810Y232261D01*
X262556Y231371D01*
X264141Y230220D01*
X265526Y228835D01*
X266677Y227250D01*
X267567Y225504D01*
X268172Y223641D01*
X268479Y221706D01*
X268479Y211581D01*
X256793Y211581D01*
G37*
%LPD*%
%LPC*%
G36*
X206755Y211581D02*
X206755Y211581D01*
X206755Y233173D01*
X206974Y233173D01*
X208909Y232866D01*
X210772Y232261D01*
X212518Y231371D01*
X214103Y230220D01*
X215488Y228835D01*
X216639Y227250D01*
X217529Y225504D01*
X218134Y223641D01*
X218441Y221706D01*
X218441Y211581D01*
X206755Y211581D01*
G37*
%LPD*%
%LPC*%
G36*
X485393Y188467D02*
X485393Y188467D01*
X485393Y210059D01*
X497079Y210059D01*
X497079Y199934D01*
X496772Y197999D01*
X496167Y196136D01*
X495277Y194390D01*
X494126Y192805D01*
X492741Y191420D01*
X491156Y190269D01*
X489410Y189379D01*
X487547Y188774D01*
X485612Y188467D01*
X485393Y188467D01*
G37*
%LPD*%
%LPC*%
G36*
X206755Y188467D02*
X206755Y188467D01*
X206755Y210059D01*
X218441Y210059D01*
X218441Y199934D01*
X218134Y197999D01*
X217529Y196136D01*
X216639Y194390D01*
X215488Y192805D01*
X214103Y191420D01*
X212518Y190269D01*
X210772Y189379D01*
X208909Y188774D01*
X206974Y188467D01*
X206755Y188467D01*
G37*
%LPD*%
%LPC*%
G36*
X256793Y188467D02*
X256793Y188467D01*
X256793Y210059D01*
X268479Y210059D01*
X268479Y199934D01*
X268172Y197999D01*
X267567Y196136D01*
X266677Y194390D01*
X265526Y192805D01*
X264141Y191420D01*
X262556Y190269D01*
X260810Y189379D01*
X258947Y188774D01*
X257012Y188467D01*
X256793Y188467D01*
G37*
%LPD*%
%LPC*%
G36*
X435355Y188467D02*
X435355Y188467D01*
X435355Y210059D01*
X447041Y210059D01*
X447041Y199934D01*
X446734Y197999D01*
X446129Y196136D01*
X445239Y194390D01*
X444088Y192805D01*
X442703Y191420D01*
X441118Y190269D01*
X439372Y189379D01*
X437509Y188774D01*
X435574Y188467D01*
X435355Y188467D01*
G37*
%LPD*%
%LPC*%
G36*
X321055Y188467D02*
X321055Y188467D01*
X321055Y210059D01*
X332741Y210059D01*
X332741Y199934D01*
X332434Y197999D01*
X331829Y196136D01*
X330939Y194390D01*
X329788Y192805D01*
X328403Y191420D01*
X326818Y190269D01*
X325072Y189379D01*
X323209Y188774D01*
X321274Y188467D01*
X321055Y188467D01*
G37*
%LPD*%
%LPC*%
G36*
X371093Y188467D02*
X371093Y188467D01*
X371093Y210059D01*
X382779Y210059D01*
X382779Y199934D01*
X382472Y197999D01*
X381867Y196136D01*
X380977Y194390D01*
X379826Y192805D01*
X378441Y191420D01*
X376856Y190269D01*
X375110Y189379D01*
X373247Y188774D01*
X371312Y188467D01*
X371093Y188467D01*
G37*
%LPD*%
%LPC*%
G36*
X472185Y211581D02*
X472185Y211581D01*
X472185Y221706D01*
X472492Y223641D01*
X473097Y225504D01*
X473987Y227250D01*
X475138Y228835D01*
X476523Y230220D01*
X478108Y231371D01*
X479854Y232261D01*
X481717Y232866D01*
X483652Y233173D01*
X483871Y233173D01*
X483871Y211581D01*
X472185Y211581D01*
G37*
%LPD*%
%LPC*%
G36*
X422147Y211581D02*
X422147Y211581D01*
X422147Y221706D01*
X422454Y223641D01*
X423059Y225504D01*
X423949Y227250D01*
X425100Y228835D01*
X426485Y230220D01*
X428070Y231371D01*
X429816Y232261D01*
X431679Y232866D01*
X433614Y233173D01*
X433833Y233173D01*
X433833Y211581D01*
X422147Y211581D01*
G37*
%LPD*%
%LPC*%
G36*
X357885Y211581D02*
X357885Y211581D01*
X357885Y221706D01*
X358192Y223641D01*
X358797Y225504D01*
X359687Y227250D01*
X360838Y228835D01*
X362223Y230220D01*
X363808Y231371D01*
X365554Y232261D01*
X367417Y232866D01*
X369352Y233173D01*
X369571Y233173D01*
X369571Y211581D01*
X357885Y211581D01*
G37*
%LPD*%
%LPC*%
G36*
X307847Y211581D02*
X307847Y211581D01*
X307847Y221706D01*
X308154Y223641D01*
X308759Y225504D01*
X309649Y227250D01*
X310800Y228835D01*
X312185Y230220D01*
X313770Y231371D01*
X315516Y232261D01*
X317379Y232866D01*
X319314Y233173D01*
X319533Y233173D01*
X319533Y211581D01*
X307847Y211581D01*
G37*
%LPD*%
%LPC*%
G36*
X243585Y211581D02*
X243585Y211581D01*
X243585Y221706D01*
X243892Y223641D01*
X244497Y225504D01*
X245387Y227250D01*
X246538Y228835D01*
X247923Y230220D01*
X249508Y231371D01*
X251254Y232261D01*
X253117Y232866D01*
X255052Y233173D01*
X255271Y233173D01*
X255271Y211581D01*
X243585Y211581D01*
G37*
%LPD*%
%LPC*%
G36*
X193547Y211581D02*
X193547Y211581D01*
X193547Y221706D01*
X193854Y223641D01*
X194459Y225504D01*
X195349Y227250D01*
X196500Y228835D01*
X197885Y230220D01*
X199470Y231371D01*
X201216Y232261D01*
X203079Y232866D01*
X205014Y233173D01*
X205233Y233173D01*
X205233Y211581D01*
X193547Y211581D01*
G37*
%LPD*%
%LPC*%
G36*
X205014Y188467D02*
X205014Y188467D01*
X203079Y188774D01*
X201216Y189379D01*
X199470Y190269D01*
X197885Y191420D01*
X196500Y192805D01*
X195349Y194390D01*
X194459Y196136D01*
X193854Y197999D01*
X193547Y199934D01*
X193547Y210059D01*
X205233Y210059D01*
X205233Y188467D01*
X205014Y188467D01*
G37*
%LPD*%
%LPC*%
G36*
X255052Y188467D02*
X255052Y188467D01*
X253117Y188774D01*
X251254Y189379D01*
X249508Y190269D01*
X247923Y191420D01*
X246538Y192805D01*
X245387Y194390D01*
X244497Y196136D01*
X243892Y197999D01*
X243585Y199934D01*
X243585Y210059D01*
X255271Y210059D01*
X255271Y188467D01*
X255052Y188467D01*
G37*
%LPD*%
%LPC*%
G36*
X483652Y188467D02*
X483652Y188467D01*
X481717Y188774D01*
X479854Y189379D01*
X478108Y190269D01*
X476523Y191420D01*
X475138Y192805D01*
X473987Y194390D01*
X473097Y196136D01*
X472492Y197999D01*
X472185Y199934D01*
X472185Y210059D01*
X483871Y210059D01*
X483871Y188467D01*
X483652Y188467D01*
G37*
%LPD*%
%LPC*%
G36*
X369352Y188467D02*
X369352Y188467D01*
X367417Y188774D01*
X365554Y189379D01*
X363808Y190269D01*
X362223Y191420D01*
X360838Y192805D01*
X359687Y194390D01*
X358797Y196136D01*
X358192Y197999D01*
X357885Y199934D01*
X357885Y210059D01*
X369571Y210059D01*
X369571Y188467D01*
X369352Y188467D01*
G37*
%LPD*%
%LPC*%
G36*
X433614Y188467D02*
X433614Y188467D01*
X431679Y188774D01*
X429816Y189379D01*
X428070Y190269D01*
X426485Y191420D01*
X425100Y192805D01*
X423949Y194390D01*
X423059Y196136D01*
X422454Y197999D01*
X422147Y199934D01*
X422147Y210059D01*
X433833Y210059D01*
X433833Y188467D01*
X433614Y188467D01*
G37*
%LPD*%
%LPC*%
G36*
X319314Y188467D02*
X319314Y188467D01*
X317379Y188774D01*
X315516Y189379D01*
X313770Y190269D01*
X312185Y191420D01*
X310800Y192805D01*
X309649Y194390D01*
X308759Y196136D01*
X308154Y197999D01*
X307847Y199934D01*
X307847Y210059D01*
X319533Y210059D01*
X319533Y188467D01*
X319314Y188467D01*
G37*
%LPD*%
%LPC*%
G36*
X541781Y176021D02*
X541781Y176021D01*
X541781Y185421D01*
X549440Y185421D01*
X551019Y185171D01*
X552540Y184676D01*
X553965Y183950D01*
X555259Y183010D01*
X556390Y181879D01*
X557330Y180585D01*
X558056Y179160D01*
X558551Y177639D01*
X558801Y176060D01*
X558801Y176021D01*
X541781Y176021D01*
G37*
%LPD*%
%LPC*%
G36*
X541781Y201421D02*
X541781Y201421D01*
X541781Y210821D01*
X549440Y210821D01*
X551019Y210571D01*
X552540Y210076D01*
X553965Y209350D01*
X555259Y208410D01*
X556390Y207279D01*
X557330Y205985D01*
X558056Y204560D01*
X558551Y203039D01*
X558801Y201460D01*
X558801Y201421D01*
X541781Y201421D01*
G37*
%LPD*%
%LPC*%
G36*
X541781Y150621D02*
X541781Y150621D01*
X541781Y160021D01*
X549440Y160021D01*
X551019Y159771D01*
X552540Y159276D01*
X553965Y158550D01*
X555259Y157610D01*
X556390Y156479D01*
X557330Y155185D01*
X558056Y153760D01*
X558551Y152239D01*
X558801Y150660D01*
X558801Y150621D01*
X541781Y150621D01*
G37*
%LPD*%
%LPC*%
G36*
X523239Y176021D02*
X523239Y176021D01*
X523239Y176060D01*
X523489Y177639D01*
X523984Y179160D01*
X524710Y180585D01*
X525650Y181879D01*
X526781Y183010D01*
X528075Y183950D01*
X529500Y184676D01*
X531021Y185171D01*
X532600Y185421D01*
X540259Y185421D01*
X540259Y176021D01*
X523239Y176021D01*
G37*
%LPD*%
%LPC*%
G36*
X523239Y150621D02*
X523239Y150621D01*
X523239Y150660D01*
X523489Y152239D01*
X523984Y153760D01*
X524710Y155185D01*
X525650Y156479D01*
X526781Y157610D01*
X528075Y158550D01*
X529500Y159276D01*
X531021Y159771D01*
X532600Y160021D01*
X540259Y160021D01*
X540259Y150621D01*
X523239Y150621D01*
G37*
%LPD*%
%LPC*%
G36*
X523239Y201421D02*
X523239Y201421D01*
X523239Y201460D01*
X523489Y203039D01*
X523984Y204560D01*
X524710Y205985D01*
X525650Y207279D01*
X526781Y208410D01*
X528075Y209350D01*
X529500Y210076D01*
X531021Y210571D01*
X532600Y210821D01*
X540259Y210821D01*
X540259Y201421D01*
X523239Y201421D01*
G37*
%LPD*%
%LPC*%
G36*
X541781Y190499D02*
X541781Y190499D01*
X541781Y199899D01*
X558801Y199899D01*
X558801Y199860D01*
X558551Y198281D01*
X558056Y196760D01*
X557330Y195335D01*
X556390Y194041D01*
X555259Y192910D01*
X553965Y191970D01*
X552540Y191244D01*
X551019Y190749D01*
X549440Y190499D01*
X541781Y190499D01*
G37*
%LPD*%
%LPC*%
G36*
X541781Y139699D02*
X541781Y139699D01*
X541781Y149099D01*
X558801Y149099D01*
X558801Y149060D01*
X558551Y147481D01*
X558056Y145960D01*
X557330Y144535D01*
X556390Y143241D01*
X555259Y142110D01*
X553965Y141170D01*
X552540Y140444D01*
X551019Y139949D01*
X549440Y139699D01*
X541781Y139699D01*
G37*
%LPD*%
%LPC*%
G36*
X541781Y165099D02*
X541781Y165099D01*
X541781Y174499D01*
X558801Y174499D01*
X558801Y174460D01*
X558551Y172881D01*
X558056Y171360D01*
X557330Y169935D01*
X556390Y168641D01*
X555259Y167510D01*
X553965Y166570D01*
X552540Y165844D01*
X551019Y165349D01*
X549440Y165099D01*
X541781Y165099D01*
G37*
%LPD*%
%LPC*%
G36*
X532600Y165099D02*
X532600Y165099D01*
X531021Y165349D01*
X529500Y165844D01*
X528075Y166570D01*
X526781Y167510D01*
X525650Y168641D01*
X524710Y169935D01*
X523984Y171360D01*
X523489Y172881D01*
X523239Y174460D01*
X523239Y174499D01*
X540259Y174499D01*
X540259Y165099D01*
X532600Y165099D01*
G37*
%LPD*%
%LPC*%
G36*
X532600Y139699D02*
X532600Y139699D01*
X531021Y139949D01*
X529500Y140444D01*
X528075Y141170D01*
X526781Y142110D01*
X525650Y143241D01*
X524710Y144535D01*
X523984Y145960D01*
X523489Y147481D01*
X523239Y149060D01*
X523239Y149099D01*
X540259Y149099D01*
X540259Y139699D01*
X532600Y139699D01*
G37*
%LPD*%
%LPC*%
G36*
X532600Y190499D02*
X532600Y190499D01*
X531021Y190749D01*
X529500Y191244D01*
X528075Y191970D01*
X526781Y192910D01*
X525650Y194041D01*
X524710Y195335D01*
X523984Y196760D01*
X523489Y198281D01*
X523239Y199860D01*
X523239Y199899D01*
X540259Y199899D01*
X540259Y190499D01*
X532600Y190499D01*
G37*
%LPD*%
%LPC*%
G36*
X158241Y21599D02*
X158241Y21599D01*
X158241Y29879D01*
X168021Y29879D01*
X168021Y23805D01*
X167848Y23159D01*
X167513Y22580D01*
X167040Y22107D01*
X166461Y21772D01*
X165815Y21599D01*
X158241Y21599D01*
G37*
%LPD*%
%LPC*%
G36*
X149145Y21599D02*
X149145Y21599D01*
X148499Y21772D01*
X147920Y22107D01*
X147447Y22580D01*
X147112Y23159D01*
X146939Y23805D01*
X146939Y29879D01*
X156719Y29879D01*
X156719Y21599D01*
X149145Y21599D01*
G37*
%LPD*%
%LPC*%
G36*
X370331Y210819D02*
X370331Y210819D01*
X370331Y210821D01*
X370333Y210821D01*
X370333Y210819D01*
X370331Y210819D01*
G37*
%LPD*%
%LPC*%
G36*
X434593Y210819D02*
X434593Y210819D01*
X434593Y210821D01*
X434595Y210821D01*
X434595Y210819D01*
X434593Y210819D01*
G37*
%LPD*%
%LPC*%
G36*
X484631Y210819D02*
X484631Y210819D01*
X484631Y210821D01*
X484633Y210821D01*
X484633Y210819D01*
X484631Y210819D01*
G37*
%LPD*%
%LPC*%
G36*
X109219Y180599D02*
X109219Y180599D01*
X109219Y180601D01*
X109221Y180601D01*
X109221Y180599D01*
X109219Y180599D01*
G37*
%LPD*%
%LPC*%
G36*
X205993Y210819D02*
X205993Y210819D01*
X205993Y210821D01*
X205995Y210821D01*
X205995Y210819D01*
X205993Y210819D01*
G37*
%LPD*%
%LPC*%
G36*
X256031Y210819D02*
X256031Y210819D01*
X256031Y210821D01*
X256033Y210821D01*
X256033Y210819D01*
X256031Y210819D01*
G37*
%LPD*%
%LPC*%
G36*
X541019Y175259D02*
X541019Y175259D01*
X541019Y175261D01*
X541021Y175261D01*
X541021Y175259D01*
X541019Y175259D01*
G37*
%LPD*%
%LPC*%
G36*
X541019Y149859D02*
X541019Y149859D01*
X541019Y149861D01*
X541021Y149861D01*
X541021Y149859D01*
X541019Y149859D01*
G37*
%LPD*%
%LPC*%
G36*
X50799Y83819D02*
X50799Y83819D01*
X50799Y83821D01*
X50801Y83821D01*
X50801Y83819D01*
X50799Y83819D01*
G37*
%LPD*%
%LPC*%
G36*
X320293Y210819D02*
X320293Y210819D01*
X320293Y210821D01*
X320295Y210821D01*
X320295Y210819D01*
X320293Y210819D01*
G37*
%LPD*%
%LPC*%
G36*
X541019Y200659D02*
X541019Y200659D01*
X541019Y200661D01*
X541021Y200661D01*
X541021Y200659D01*
X541019Y200659D01*
G37*
%LPD*%
D10*
X50800Y83820D03*
D11*
X127000Y83820D03*
D12*
X157480Y50640D03*
X157480Y30640D03*
D13*
X120142Y180600D02*
X98298Y180600D01*
X79220Y217678D02*
X79220Y239522D01*
X139220Y239522D02*
X139220Y217678D01*
D14*
X256286Y73406D02*
X256286Y53594D01*
X206248Y53594D02*
X206248Y73406D01*
X370586Y73406D02*
X370586Y53594D01*
X320548Y53594D02*
X320548Y73406D01*
X484886Y73406D02*
X484886Y53594D01*
X434848Y53594D02*
X434848Y73406D01*
X205994Y200914D02*
X205994Y220726D01*
X256032Y220726D02*
X256032Y200914D01*
X320294Y200914D02*
X320294Y220726D01*
X370332Y220726D02*
X370332Y200914D01*
X434594Y200914D02*
X434594Y220726D01*
X484632Y220726D02*
X484632Y200914D01*
D15*
X533400Y73660D02*
X548640Y73660D01*
X548640Y99060D02*
X533400Y99060D01*
X533400Y124460D02*
X548640Y124460D01*
X548640Y149860D02*
X533400Y149860D01*
X533400Y175260D02*
X548640Y175260D01*
X548640Y200660D02*
X533400Y200660D01*
D16*
X256286Y63500D02*
X206248Y63500D01*
X256286Y63500D02*
X320548Y63500D01*
X370586Y63500D01*
X434848Y63500D01*
X484886Y63500D01*
X139700Y63500D02*
X127000Y76200D01*
X127000Y83820D01*
X139700Y63500D02*
X157480Y63500D01*
X206248Y63500D01*
D17*
X157480Y63500D02*
X157480Y50640D01*
D16*
X157480Y215420D02*
X144300Y228600D01*
X139220Y228600D01*
X127000Y116840D02*
X127000Y83820D01*
X157480Y147320D02*
X157480Y215420D01*
X157480Y147320D02*
X127000Y116840D01*
D18*
X541020Y124460D02*
X541020Y99060D01*
X541020Y73660D01*
X515620Y73660D01*
X505460Y63500D02*
X484886Y63500D01*
X505460Y63500D02*
X515620Y73660D01*
M02*
