G04 EAGLE Gerber RS-274X export*
G75*
%MOMM*%
%FSLAX34Y34*%
%LPD*%
%INTop Copper*%
%IPPOS*%
%AMOC8*
5,1,8,0,0,1.08239X$1,22.5*%
G01*
%ADD10R,2.000000X2.000000*%
%ADD11C,2.000000*%
%ADD12C,2.184400*%
%ADD13C,1.524000*%
%ADD14P,1.082390X8X22.500000*%
%ADD15C,0.800000*%
%ADD16C,1.000000*%


D10*
X254000Y477520D03*
D11*
X254000Y452120D03*
X254000Y426720D03*
X254000Y401320D03*
X254000Y375920D03*
X254000Y350520D03*
X254000Y325120D03*
X254000Y299720D03*
X254000Y274320D03*
X254000Y248920D03*
X254000Y223520D03*
X254000Y198120D03*
X254000Y172720D03*
X254000Y147320D03*
X254000Y121920D03*
X406400Y121920D03*
X406400Y147320D03*
X406400Y198120D03*
X406400Y223520D03*
X406400Y248920D03*
X406400Y274320D03*
X406400Y299720D03*
X406400Y325120D03*
X406400Y350520D03*
X406400Y375920D03*
X406400Y401320D03*
X406400Y426720D03*
X406400Y452120D03*
X406400Y477520D03*
D12*
X69342Y23120D02*
X47498Y23120D01*
X28420Y60198D02*
X28420Y82042D01*
X88420Y82042D02*
X88420Y60198D01*
D13*
X208280Y454660D02*
X208280Y469900D01*
X182880Y469900D02*
X182880Y454660D01*
X434340Y40640D02*
X434340Y25400D01*
X459740Y25400D02*
X459740Y40640D01*
X510540Y452120D02*
X525780Y452120D01*
X525780Y477520D02*
X510540Y477520D01*
X510540Y502920D02*
X525780Y502920D01*
X190500Y40640D02*
X190500Y25400D01*
X215900Y25400D02*
X215900Y40640D01*
X241300Y40640D02*
X241300Y25400D01*
X99060Y454660D02*
X99060Y469900D01*
X73660Y469900D02*
X73660Y454660D01*
X48260Y454660D02*
X48260Y469900D01*
X22860Y469900D02*
X22860Y454660D01*
X510540Y223520D02*
X525780Y223520D01*
X525780Y248920D02*
X510540Y248920D01*
X510540Y274320D02*
X525780Y274320D01*
X525780Y299720D02*
X510540Y299720D01*
X510540Y325120D02*
X525780Y325120D01*
X525780Y350520D02*
X510540Y350520D01*
X510540Y375920D02*
X525780Y375920D01*
X525780Y401320D02*
X510540Y401320D01*
X510540Y426720D02*
X525780Y426720D01*
X208280Y350520D02*
X193040Y350520D01*
X193040Y325120D02*
X208280Y325120D01*
X208280Y299720D02*
X193040Y299720D01*
X193040Y274320D02*
X208280Y274320D01*
X208280Y248920D02*
X193040Y248920D01*
X193040Y223520D02*
X208280Y223520D01*
X208280Y198120D02*
X193040Y198120D01*
X510540Y71120D02*
X525780Y71120D01*
X525780Y96520D02*
X510540Y96520D01*
X510540Y121920D02*
X525780Y121920D01*
X525780Y147320D02*
X510540Y147320D01*
X510540Y172720D02*
X525780Y172720D01*
X525780Y198120D02*
X510540Y198120D01*
X302260Y40640D02*
X302260Y25400D01*
X327660Y25400D02*
X327660Y40640D01*
X353060Y40640D02*
X353060Y25400D01*
X378460Y25400D02*
X378460Y40640D01*
D14*
X200660Y396240D03*
X406400Y172720D03*
X284480Y172720D03*
D15*
X406400Y172720D01*
D14*
X99060Y396240D03*
D16*
X200660Y396240D01*
D14*
X124460Y299720D03*
D16*
X22860Y299720D01*
D14*
X22860Y299720D03*
X215900Y76200D03*
D15*
X307340Y76200D01*
D14*
X307340Y76200D03*
X48260Y274320D03*
D16*
X124460Y274320D01*
D14*
X124460Y274320D03*
M02*
