G04 EAGLE Gerber RS-274X export*
G75*
%MOMM*%
%FSLAX34Y34*%
%LPD*%
%INSilkscreen Bottom*%
%IPPOS*%
%AMOC8*
5,1,8,0,0,1.08239X$1,22.5*%
G01*
%ADD10C,0.101600*%


D10*
X64826Y53848D02*
X64826Y65532D01*
X61581Y65532D02*
X68072Y65532D01*
X57404Y62936D02*
X54159Y65532D01*
X54159Y53848D01*
X57404Y53848D02*
X50913Y53848D01*
X108525Y29972D02*
X108525Y18288D01*
X108525Y29972D02*
X105280Y29972D01*
X105167Y29970D01*
X105054Y29964D01*
X104941Y29954D01*
X104828Y29940D01*
X104716Y29923D01*
X104605Y29901D01*
X104495Y29876D01*
X104385Y29846D01*
X104277Y29813D01*
X104170Y29776D01*
X104064Y29736D01*
X103960Y29691D01*
X103857Y29643D01*
X103756Y29592D01*
X103657Y29537D01*
X103560Y29479D01*
X103465Y29417D01*
X103372Y29352D01*
X103282Y29284D01*
X103194Y29213D01*
X103108Y29138D01*
X103025Y29061D01*
X102945Y28981D01*
X102868Y28898D01*
X102793Y28812D01*
X102722Y28724D01*
X102654Y28634D01*
X102589Y28541D01*
X102527Y28446D01*
X102469Y28349D01*
X102414Y28250D01*
X102363Y28149D01*
X102315Y28046D01*
X102270Y27942D01*
X102230Y27836D01*
X102193Y27729D01*
X102160Y27621D01*
X102130Y27511D01*
X102105Y27401D01*
X102083Y27290D01*
X102066Y27178D01*
X102052Y27065D01*
X102042Y26952D01*
X102036Y26839D01*
X102034Y26726D01*
X102036Y26613D01*
X102042Y26500D01*
X102052Y26387D01*
X102066Y26274D01*
X102083Y26162D01*
X102105Y26051D01*
X102130Y25941D01*
X102160Y25831D01*
X102193Y25723D01*
X102230Y25616D01*
X102270Y25510D01*
X102315Y25406D01*
X102363Y25303D01*
X102414Y25202D01*
X102469Y25103D01*
X102527Y25006D01*
X102589Y24911D01*
X102654Y24818D01*
X102722Y24728D01*
X102793Y24640D01*
X102868Y24554D01*
X102945Y24471D01*
X103025Y24391D01*
X103108Y24314D01*
X103194Y24239D01*
X103282Y24168D01*
X103372Y24100D01*
X103465Y24035D01*
X103560Y23973D01*
X103657Y23915D01*
X103756Y23860D01*
X103857Y23809D01*
X103960Y23761D01*
X104064Y23716D01*
X104170Y23676D01*
X104277Y23639D01*
X104385Y23606D01*
X104495Y23576D01*
X104605Y23551D01*
X104716Y23529D01*
X104828Y23512D01*
X104941Y23498D01*
X105054Y23488D01*
X105167Y23482D01*
X105280Y23480D01*
X105280Y23481D02*
X108525Y23481D01*
X104631Y23481D02*
X102034Y18288D01*
X97169Y27376D02*
X93924Y29972D01*
X93924Y18288D01*
X97169Y18288D02*
X90678Y18288D01*
X90321Y128918D02*
X87724Y128918D01*
X90321Y128918D02*
X90420Y128920D01*
X90520Y128926D01*
X90619Y128935D01*
X90717Y128948D01*
X90815Y128965D01*
X90913Y128986D01*
X91009Y129011D01*
X91104Y129039D01*
X91198Y129071D01*
X91291Y129106D01*
X91383Y129145D01*
X91473Y129188D01*
X91561Y129233D01*
X91648Y129283D01*
X91732Y129335D01*
X91815Y129391D01*
X91895Y129449D01*
X91973Y129511D01*
X92048Y129576D01*
X92121Y129644D01*
X92191Y129714D01*
X92259Y129787D01*
X92324Y129862D01*
X92386Y129940D01*
X92444Y130020D01*
X92500Y130103D01*
X92552Y130187D01*
X92602Y130274D01*
X92647Y130362D01*
X92690Y130452D01*
X92729Y130544D01*
X92764Y130637D01*
X92796Y130731D01*
X92824Y130826D01*
X92849Y130922D01*
X92870Y131020D01*
X92887Y131118D01*
X92900Y131216D01*
X92909Y131315D01*
X92915Y131415D01*
X92917Y131514D01*
X92917Y138006D01*
X92915Y138105D01*
X92909Y138205D01*
X92900Y138304D01*
X92887Y138402D01*
X92870Y138500D01*
X92849Y138598D01*
X92824Y138694D01*
X92796Y138789D01*
X92764Y138883D01*
X92729Y138976D01*
X92690Y139068D01*
X92647Y139158D01*
X92602Y139246D01*
X92552Y139333D01*
X92500Y139417D01*
X92444Y139500D01*
X92386Y139580D01*
X92324Y139658D01*
X92259Y139733D01*
X92191Y139806D01*
X92121Y139876D01*
X92048Y139944D01*
X91973Y140009D01*
X91895Y140071D01*
X91815Y140129D01*
X91732Y140185D01*
X91648Y140237D01*
X91561Y140287D01*
X91473Y140332D01*
X91383Y140375D01*
X91291Y140414D01*
X91198Y140449D01*
X91104Y140481D01*
X91009Y140509D01*
X90913Y140534D01*
X90815Y140555D01*
X90717Y140572D01*
X90619Y140585D01*
X90520Y140594D01*
X90420Y140600D01*
X90321Y140602D01*
X87724Y140602D01*
X83359Y138006D02*
X80114Y140602D01*
X80114Y128918D01*
X83359Y128918D02*
X76868Y128918D01*
M02*
