G04 EAGLE Gerber RS-274X export*
G75*
%MOMM*%
%FSLAX34Y34*%
%LPD*%
%INSilkscreen Top*%
%IPPOS*%
%AMOC8*
5,1,8,0,0,1.08239X$1,22.5*%
G01*
%ADD10C,0.152400*%
%ADD11R,2.540000X0.508000*%
%ADD12R,0.762000X1.905000*%
%ADD13C,0.127000*%


D10*
X109220Y60960D02*
X109220Y101600D01*
X109220Y60960D02*
X134620Y60960D01*
X134620Y101600D01*
X109220Y101600D01*
X121920Y87630D02*
X121920Y81280D01*
X128270Y71120D02*
X115570Y71120D01*
X121920Y81280D01*
X121920Y66040D01*
X128270Y71120D02*
X121920Y81280D01*
X128270Y81280D01*
X121920Y81280D02*
X115570Y81280D01*
D11*
X121920Y95250D03*
D12*
X121920Y51435D03*
X121920Y111125D03*
D13*
X85344Y79375D02*
X85344Y67945D01*
X85344Y79375D02*
X88519Y79375D01*
X88630Y79373D01*
X88740Y79367D01*
X88851Y79358D01*
X88961Y79344D01*
X89070Y79327D01*
X89179Y79306D01*
X89287Y79281D01*
X89394Y79252D01*
X89500Y79220D01*
X89605Y79184D01*
X89708Y79144D01*
X89810Y79101D01*
X89911Y79054D01*
X90010Y79003D01*
X90107Y78950D01*
X90201Y78893D01*
X90294Y78832D01*
X90385Y78769D01*
X90474Y78702D01*
X90560Y78632D01*
X90643Y78559D01*
X90725Y78484D01*
X90803Y78406D01*
X90878Y78324D01*
X90951Y78241D01*
X91021Y78155D01*
X91088Y78066D01*
X91151Y77975D01*
X91212Y77882D01*
X91269Y77788D01*
X91322Y77691D01*
X91373Y77592D01*
X91420Y77491D01*
X91463Y77389D01*
X91503Y77286D01*
X91539Y77181D01*
X91571Y77075D01*
X91600Y76968D01*
X91625Y76860D01*
X91646Y76751D01*
X91663Y76642D01*
X91677Y76532D01*
X91686Y76421D01*
X91692Y76311D01*
X91694Y76200D01*
X91694Y71120D01*
X91692Y71009D01*
X91686Y70899D01*
X91677Y70788D01*
X91663Y70678D01*
X91646Y70569D01*
X91625Y70460D01*
X91600Y70352D01*
X91571Y70245D01*
X91539Y70139D01*
X91503Y70034D01*
X91463Y69931D01*
X91420Y69829D01*
X91373Y69728D01*
X91322Y69629D01*
X91269Y69532D01*
X91212Y69438D01*
X91151Y69345D01*
X91088Y69254D01*
X91021Y69165D01*
X90951Y69079D01*
X90878Y68996D01*
X90803Y68914D01*
X90725Y68836D01*
X90643Y68761D01*
X90560Y68688D01*
X90474Y68618D01*
X90385Y68551D01*
X90294Y68488D01*
X90201Y68427D01*
X90106Y68370D01*
X90010Y68317D01*
X89911Y68266D01*
X89810Y68219D01*
X89708Y68176D01*
X89605Y68136D01*
X89500Y68100D01*
X89394Y68068D01*
X89287Y68039D01*
X89179Y68014D01*
X89070Y67993D01*
X88961Y67976D01*
X88851Y67962D01*
X88740Y67953D01*
X88630Y67947D01*
X88519Y67945D01*
X85344Y67945D01*
X97155Y76835D02*
X100330Y79375D01*
X100330Y67945D01*
X97155Y67945D02*
X103505Y67945D01*
D10*
X40640Y148590D02*
X40640Y161290D01*
X40640Y148590D02*
X34290Y142240D01*
X21590Y142240D01*
X15240Y148590D01*
X34290Y142240D02*
X40640Y135890D01*
X40640Y123190D01*
X34290Y116840D01*
X21590Y116840D01*
X15240Y123190D01*
X15240Y135890D01*
X21590Y142240D01*
X21590Y167640D02*
X34290Y167640D01*
X40640Y161290D01*
X21590Y167640D02*
X15240Y161290D01*
X15240Y148590D01*
X34290Y116840D02*
X40640Y110490D01*
X40640Y97790D01*
X34290Y91440D01*
X21590Y91440D01*
X15240Y97790D01*
X15240Y110490D01*
X21590Y116840D01*
D13*
X52705Y127635D02*
X52705Y136525D01*
X52705Y127635D02*
X52703Y127535D01*
X52697Y127436D01*
X52687Y127336D01*
X52674Y127238D01*
X52656Y127139D01*
X52635Y127042D01*
X52610Y126946D01*
X52581Y126850D01*
X52548Y126756D01*
X52512Y126663D01*
X52472Y126572D01*
X52428Y126482D01*
X52381Y126394D01*
X52331Y126308D01*
X52277Y126224D01*
X52220Y126142D01*
X52160Y126063D01*
X52096Y125985D01*
X52030Y125911D01*
X51961Y125839D01*
X51889Y125770D01*
X51815Y125704D01*
X51737Y125640D01*
X51658Y125580D01*
X51576Y125523D01*
X51492Y125469D01*
X51406Y125419D01*
X51318Y125372D01*
X51228Y125328D01*
X51137Y125288D01*
X51044Y125252D01*
X50950Y125219D01*
X50854Y125190D01*
X50758Y125165D01*
X50661Y125144D01*
X50562Y125126D01*
X50464Y125113D01*
X50364Y125103D01*
X50265Y125097D01*
X50165Y125095D01*
X48895Y125095D01*
X58685Y125095D02*
X58685Y136525D01*
X61860Y136525D01*
X61971Y136523D01*
X62081Y136517D01*
X62192Y136508D01*
X62302Y136494D01*
X62411Y136477D01*
X62520Y136456D01*
X62628Y136431D01*
X62735Y136402D01*
X62841Y136370D01*
X62946Y136334D01*
X63049Y136294D01*
X63151Y136251D01*
X63252Y136204D01*
X63351Y136153D01*
X63448Y136100D01*
X63542Y136043D01*
X63635Y135982D01*
X63726Y135919D01*
X63815Y135852D01*
X63901Y135782D01*
X63984Y135709D01*
X64066Y135634D01*
X64144Y135556D01*
X64219Y135474D01*
X64292Y135391D01*
X64362Y135305D01*
X64429Y135216D01*
X64492Y135125D01*
X64553Y135032D01*
X64610Y134937D01*
X64663Y134841D01*
X64714Y134742D01*
X64761Y134641D01*
X64804Y134539D01*
X64844Y134436D01*
X64880Y134331D01*
X64912Y134225D01*
X64941Y134118D01*
X64966Y134010D01*
X64987Y133901D01*
X65004Y133792D01*
X65018Y133682D01*
X65027Y133571D01*
X65033Y133461D01*
X65035Y133350D01*
X65033Y133239D01*
X65027Y133129D01*
X65018Y133018D01*
X65004Y132908D01*
X64987Y132799D01*
X64966Y132690D01*
X64941Y132582D01*
X64912Y132475D01*
X64880Y132369D01*
X64844Y132264D01*
X64804Y132161D01*
X64761Y132059D01*
X64714Y131958D01*
X64663Y131859D01*
X64610Y131762D01*
X64553Y131668D01*
X64492Y131575D01*
X64429Y131484D01*
X64362Y131395D01*
X64292Y131309D01*
X64219Y131226D01*
X64144Y131144D01*
X64066Y131066D01*
X63984Y130991D01*
X63901Y130918D01*
X63815Y130848D01*
X63726Y130781D01*
X63635Y130718D01*
X63542Y130657D01*
X63447Y130600D01*
X63351Y130547D01*
X63252Y130496D01*
X63151Y130449D01*
X63049Y130406D01*
X62946Y130366D01*
X62841Y130330D01*
X62735Y130298D01*
X62628Y130269D01*
X62520Y130244D01*
X62411Y130223D01*
X62302Y130206D01*
X62192Y130192D01*
X62081Y130183D01*
X61971Y130177D01*
X61860Y130175D01*
X58685Y130175D01*
X69544Y133985D02*
X72719Y136525D01*
X72719Y125095D01*
X69544Y125095D02*
X75894Y125095D01*
D10*
X15240Y31750D02*
X15240Y19050D01*
X15240Y31750D02*
X21590Y38100D01*
X34290Y38100D01*
X40640Y31750D01*
X21590Y38100D02*
X15240Y44450D01*
X15240Y57150D01*
X21590Y63500D01*
X34290Y63500D01*
X40640Y57150D01*
X40640Y44450D01*
X34290Y38100D01*
X34290Y12700D02*
X21590Y12700D01*
X15240Y19050D01*
X34290Y12700D02*
X40640Y19050D01*
X40640Y31750D01*
X21590Y63500D02*
X15240Y69850D01*
X15240Y82550D01*
X21590Y88900D01*
X34290Y88900D01*
X40640Y82550D01*
X40640Y69850D01*
X34290Y63500D01*
D13*
X52705Y57785D02*
X52705Y48895D01*
X52703Y48795D01*
X52697Y48696D01*
X52687Y48596D01*
X52674Y48498D01*
X52656Y48399D01*
X52635Y48302D01*
X52610Y48206D01*
X52581Y48110D01*
X52548Y48016D01*
X52512Y47923D01*
X52472Y47832D01*
X52428Y47742D01*
X52381Y47654D01*
X52331Y47568D01*
X52277Y47484D01*
X52220Y47402D01*
X52160Y47323D01*
X52096Y47245D01*
X52030Y47171D01*
X51961Y47099D01*
X51889Y47030D01*
X51815Y46964D01*
X51737Y46900D01*
X51658Y46840D01*
X51576Y46783D01*
X51492Y46729D01*
X51406Y46679D01*
X51318Y46632D01*
X51228Y46588D01*
X51137Y46548D01*
X51044Y46512D01*
X50950Y46479D01*
X50854Y46450D01*
X50758Y46425D01*
X50661Y46404D01*
X50562Y46386D01*
X50464Y46373D01*
X50364Y46363D01*
X50265Y46357D01*
X50165Y46355D01*
X48895Y46355D01*
X58685Y46355D02*
X58685Y57785D01*
X61860Y57785D01*
X61971Y57783D01*
X62081Y57777D01*
X62192Y57768D01*
X62302Y57754D01*
X62411Y57737D01*
X62520Y57716D01*
X62628Y57691D01*
X62735Y57662D01*
X62841Y57630D01*
X62946Y57594D01*
X63049Y57554D01*
X63151Y57511D01*
X63252Y57464D01*
X63351Y57413D01*
X63448Y57360D01*
X63542Y57303D01*
X63635Y57242D01*
X63726Y57179D01*
X63815Y57112D01*
X63901Y57042D01*
X63984Y56969D01*
X64066Y56894D01*
X64144Y56816D01*
X64219Y56734D01*
X64292Y56651D01*
X64362Y56565D01*
X64429Y56476D01*
X64492Y56385D01*
X64553Y56292D01*
X64610Y56197D01*
X64663Y56101D01*
X64714Y56002D01*
X64761Y55901D01*
X64804Y55799D01*
X64844Y55696D01*
X64880Y55591D01*
X64912Y55485D01*
X64941Y55378D01*
X64966Y55270D01*
X64987Y55161D01*
X65004Y55052D01*
X65018Y54942D01*
X65027Y54831D01*
X65033Y54721D01*
X65035Y54610D01*
X65033Y54499D01*
X65027Y54389D01*
X65018Y54278D01*
X65004Y54168D01*
X64987Y54059D01*
X64966Y53950D01*
X64941Y53842D01*
X64912Y53735D01*
X64880Y53629D01*
X64844Y53524D01*
X64804Y53421D01*
X64761Y53319D01*
X64714Y53218D01*
X64663Y53119D01*
X64610Y53022D01*
X64553Y52928D01*
X64492Y52835D01*
X64429Y52744D01*
X64362Y52655D01*
X64292Y52569D01*
X64219Y52486D01*
X64144Y52404D01*
X64066Y52326D01*
X63984Y52251D01*
X63901Y52178D01*
X63815Y52108D01*
X63726Y52041D01*
X63635Y51978D01*
X63542Y51917D01*
X63447Y51860D01*
X63351Y51807D01*
X63252Y51756D01*
X63151Y51709D01*
X63049Y51666D01*
X62946Y51626D01*
X62841Y51590D01*
X62735Y51558D01*
X62628Y51529D01*
X62520Y51504D01*
X62411Y51483D01*
X62302Y51466D01*
X62192Y51452D01*
X62081Y51443D01*
X61971Y51437D01*
X61860Y51435D01*
X58685Y51435D01*
X73036Y57786D02*
X73140Y57784D01*
X73245Y57778D01*
X73349Y57769D01*
X73452Y57756D01*
X73555Y57738D01*
X73657Y57718D01*
X73759Y57693D01*
X73859Y57665D01*
X73959Y57633D01*
X74057Y57597D01*
X74154Y57558D01*
X74249Y57516D01*
X74343Y57470D01*
X74435Y57420D01*
X74525Y57368D01*
X74613Y57312D01*
X74699Y57252D01*
X74783Y57190D01*
X74864Y57125D01*
X74943Y57057D01*
X75020Y56985D01*
X75093Y56912D01*
X75165Y56835D01*
X75233Y56756D01*
X75298Y56675D01*
X75360Y56591D01*
X75420Y56505D01*
X75476Y56417D01*
X75528Y56327D01*
X75578Y56235D01*
X75624Y56141D01*
X75666Y56046D01*
X75705Y55949D01*
X75741Y55851D01*
X75773Y55751D01*
X75801Y55651D01*
X75826Y55549D01*
X75846Y55447D01*
X75864Y55344D01*
X75877Y55241D01*
X75886Y55137D01*
X75892Y55032D01*
X75894Y54928D01*
X73036Y57785D02*
X72918Y57783D01*
X72799Y57777D01*
X72681Y57768D01*
X72564Y57755D01*
X72447Y57737D01*
X72330Y57717D01*
X72214Y57692D01*
X72099Y57664D01*
X71986Y57631D01*
X71873Y57596D01*
X71761Y57556D01*
X71651Y57514D01*
X71542Y57467D01*
X71434Y57417D01*
X71329Y57364D01*
X71225Y57307D01*
X71123Y57247D01*
X71023Y57184D01*
X70925Y57117D01*
X70829Y57048D01*
X70736Y56975D01*
X70645Y56899D01*
X70556Y56821D01*
X70470Y56739D01*
X70387Y56655D01*
X70306Y56569D01*
X70229Y56479D01*
X70154Y56388D01*
X70082Y56294D01*
X70013Y56197D01*
X69948Y56099D01*
X69885Y55998D01*
X69826Y55895D01*
X69770Y55791D01*
X69718Y55685D01*
X69669Y55577D01*
X69624Y55468D01*
X69582Y55357D01*
X69544Y55245D01*
X74942Y52706D02*
X75018Y52781D01*
X75093Y52860D01*
X75164Y52941D01*
X75233Y53025D01*
X75298Y53111D01*
X75360Y53199D01*
X75420Y53289D01*
X75476Y53381D01*
X75529Y53476D01*
X75578Y53572D01*
X75624Y53670D01*
X75667Y53769D01*
X75706Y53870D01*
X75741Y53972D01*
X75773Y54075D01*
X75801Y54179D01*
X75826Y54284D01*
X75847Y54391D01*
X75864Y54497D01*
X75877Y54604D01*
X75886Y54712D01*
X75892Y54820D01*
X75894Y54928D01*
X74941Y52705D02*
X69544Y46355D01*
X75894Y46355D01*
D10*
X383540Y143510D02*
X383540Y156210D01*
X383540Y143510D02*
X377190Y137160D01*
X364490Y137160D01*
X358140Y143510D01*
X377190Y137160D02*
X383540Y130810D01*
X383540Y118110D01*
X377190Y111760D01*
X364490Y111760D01*
X358140Y118110D01*
X358140Y130810D01*
X364490Y137160D01*
X364490Y162560D02*
X377190Y162560D01*
X383540Y156210D01*
X364490Y162560D02*
X358140Y156210D01*
X358140Y143510D01*
X377190Y111760D02*
X383540Y105410D01*
X383540Y92710D01*
X377190Y86360D01*
X364490Y86360D01*
X358140Y92710D01*
X358140Y105410D01*
X364490Y111760D01*
D13*
X360478Y80137D02*
X360478Y71247D01*
X360476Y71147D01*
X360470Y71048D01*
X360460Y70948D01*
X360447Y70850D01*
X360429Y70751D01*
X360408Y70654D01*
X360383Y70558D01*
X360354Y70462D01*
X360321Y70368D01*
X360285Y70275D01*
X360245Y70184D01*
X360201Y70094D01*
X360154Y70006D01*
X360104Y69920D01*
X360050Y69836D01*
X359993Y69754D01*
X359933Y69675D01*
X359869Y69597D01*
X359803Y69523D01*
X359734Y69451D01*
X359662Y69382D01*
X359588Y69316D01*
X359510Y69252D01*
X359431Y69192D01*
X359349Y69135D01*
X359265Y69081D01*
X359179Y69031D01*
X359091Y68984D01*
X359001Y68940D01*
X358910Y68900D01*
X358817Y68864D01*
X358723Y68831D01*
X358627Y68802D01*
X358531Y68777D01*
X358434Y68756D01*
X358335Y68738D01*
X358237Y68725D01*
X358137Y68715D01*
X358038Y68709D01*
X357938Y68707D01*
X356668Y68707D01*
X366459Y68707D02*
X366459Y80137D01*
X369634Y80137D01*
X369745Y80135D01*
X369855Y80129D01*
X369966Y80120D01*
X370076Y80106D01*
X370185Y80089D01*
X370294Y80068D01*
X370402Y80043D01*
X370509Y80014D01*
X370615Y79982D01*
X370720Y79946D01*
X370823Y79906D01*
X370925Y79863D01*
X371026Y79816D01*
X371125Y79765D01*
X371222Y79712D01*
X371316Y79655D01*
X371409Y79594D01*
X371500Y79531D01*
X371589Y79464D01*
X371675Y79394D01*
X371758Y79321D01*
X371840Y79246D01*
X371918Y79168D01*
X371993Y79086D01*
X372066Y79003D01*
X372136Y78917D01*
X372203Y78828D01*
X372266Y78737D01*
X372327Y78644D01*
X372384Y78549D01*
X372437Y78453D01*
X372488Y78354D01*
X372535Y78253D01*
X372578Y78151D01*
X372618Y78048D01*
X372654Y77943D01*
X372686Y77837D01*
X372715Y77730D01*
X372740Y77622D01*
X372761Y77513D01*
X372778Y77404D01*
X372792Y77294D01*
X372801Y77183D01*
X372807Y77073D01*
X372809Y76962D01*
X372807Y76851D01*
X372801Y76741D01*
X372792Y76630D01*
X372778Y76520D01*
X372761Y76411D01*
X372740Y76302D01*
X372715Y76194D01*
X372686Y76087D01*
X372654Y75981D01*
X372618Y75876D01*
X372578Y75773D01*
X372535Y75671D01*
X372488Y75570D01*
X372437Y75471D01*
X372384Y75374D01*
X372327Y75280D01*
X372266Y75187D01*
X372203Y75096D01*
X372136Y75007D01*
X372066Y74921D01*
X371993Y74838D01*
X371918Y74756D01*
X371840Y74678D01*
X371758Y74603D01*
X371675Y74530D01*
X371589Y74460D01*
X371500Y74393D01*
X371409Y74330D01*
X371316Y74269D01*
X371222Y74212D01*
X371125Y74159D01*
X371026Y74108D01*
X370925Y74061D01*
X370823Y74018D01*
X370720Y73978D01*
X370615Y73942D01*
X370509Y73910D01*
X370402Y73881D01*
X370294Y73856D01*
X370185Y73835D01*
X370076Y73818D01*
X369966Y73804D01*
X369855Y73795D01*
X369745Y73789D01*
X369634Y73787D01*
X366459Y73787D01*
X377317Y68707D02*
X380492Y68707D01*
X380603Y68709D01*
X380713Y68715D01*
X380824Y68724D01*
X380934Y68738D01*
X381043Y68755D01*
X381152Y68776D01*
X381260Y68801D01*
X381367Y68830D01*
X381473Y68862D01*
X381578Y68898D01*
X381681Y68938D01*
X381783Y68981D01*
X381884Y69028D01*
X381983Y69079D01*
X382080Y69132D01*
X382174Y69189D01*
X382267Y69250D01*
X382358Y69313D01*
X382447Y69380D01*
X382533Y69450D01*
X382616Y69523D01*
X382698Y69598D01*
X382776Y69676D01*
X382851Y69758D01*
X382924Y69841D01*
X382994Y69927D01*
X383061Y70016D01*
X383124Y70107D01*
X383185Y70200D01*
X383242Y70294D01*
X383295Y70391D01*
X383346Y70490D01*
X383393Y70591D01*
X383436Y70693D01*
X383476Y70796D01*
X383512Y70901D01*
X383544Y71007D01*
X383573Y71114D01*
X383598Y71222D01*
X383619Y71331D01*
X383636Y71440D01*
X383650Y71550D01*
X383659Y71661D01*
X383665Y71771D01*
X383667Y71882D01*
X383665Y71993D01*
X383659Y72103D01*
X383650Y72214D01*
X383636Y72324D01*
X383619Y72433D01*
X383598Y72542D01*
X383573Y72650D01*
X383544Y72757D01*
X383512Y72863D01*
X383476Y72968D01*
X383436Y73071D01*
X383393Y73173D01*
X383346Y73274D01*
X383295Y73373D01*
X383242Y73469D01*
X383185Y73564D01*
X383124Y73657D01*
X383061Y73748D01*
X382994Y73837D01*
X382924Y73923D01*
X382851Y74006D01*
X382776Y74088D01*
X382698Y74166D01*
X382616Y74241D01*
X382533Y74314D01*
X382447Y74384D01*
X382358Y74451D01*
X382267Y74514D01*
X382174Y74575D01*
X382080Y74632D01*
X381983Y74685D01*
X381884Y74736D01*
X381783Y74783D01*
X381681Y74826D01*
X381578Y74866D01*
X381473Y74902D01*
X381367Y74934D01*
X381260Y74963D01*
X381152Y74988D01*
X381043Y75009D01*
X380934Y75026D01*
X380824Y75040D01*
X380713Y75049D01*
X380603Y75055D01*
X380492Y75057D01*
X381127Y80137D02*
X377317Y80137D01*
X381127Y80137D02*
X381227Y80135D01*
X381326Y80129D01*
X381426Y80119D01*
X381524Y80106D01*
X381623Y80088D01*
X381720Y80067D01*
X381816Y80042D01*
X381912Y80013D01*
X382006Y79980D01*
X382099Y79944D01*
X382190Y79904D01*
X382280Y79860D01*
X382368Y79813D01*
X382454Y79763D01*
X382538Y79709D01*
X382620Y79652D01*
X382699Y79592D01*
X382777Y79528D01*
X382851Y79462D01*
X382923Y79393D01*
X382992Y79321D01*
X383058Y79247D01*
X383122Y79169D01*
X383182Y79090D01*
X383239Y79008D01*
X383293Y78924D01*
X383343Y78838D01*
X383390Y78750D01*
X383434Y78660D01*
X383474Y78569D01*
X383510Y78476D01*
X383543Y78382D01*
X383572Y78286D01*
X383597Y78190D01*
X383618Y78093D01*
X383636Y77994D01*
X383649Y77896D01*
X383659Y77796D01*
X383665Y77697D01*
X383667Y77597D01*
X383665Y77497D01*
X383659Y77398D01*
X383649Y77298D01*
X383636Y77200D01*
X383618Y77101D01*
X383597Y77004D01*
X383572Y76908D01*
X383543Y76812D01*
X383510Y76718D01*
X383474Y76625D01*
X383434Y76534D01*
X383390Y76444D01*
X383343Y76356D01*
X383293Y76270D01*
X383239Y76186D01*
X383182Y76104D01*
X383122Y76025D01*
X383058Y75947D01*
X382992Y75873D01*
X382923Y75801D01*
X382851Y75732D01*
X382777Y75666D01*
X382699Y75602D01*
X382620Y75542D01*
X382538Y75485D01*
X382454Y75431D01*
X382368Y75381D01*
X382280Y75334D01*
X382190Y75290D01*
X382099Y75250D01*
X382006Y75214D01*
X381912Y75181D01*
X381816Y75152D01*
X381720Y75127D01*
X381623Y75106D01*
X381524Y75088D01*
X381426Y75075D01*
X381326Y75065D01*
X381227Y75059D01*
X381127Y75057D01*
X378587Y75057D01*
D10*
X205740Y109220D02*
X203200Y109220D01*
X205740Y109220D02*
X215900Y109220D01*
X228600Y109220D02*
X228600Y127000D01*
X226060Y127000D01*
X215900Y127000D01*
X203200Y127000D02*
X203200Y109220D01*
X215900Y109220D02*
X228600Y109220D01*
X215900Y127000D02*
X203200Y127000D01*
X149860Y12700D02*
X340860Y12700D01*
X340860Y167700D01*
X149860Y167700D01*
X149860Y12700D01*
D13*
X177800Y88900D02*
X299720Y88900D01*
X312420Y81280D01*
D10*
X226060Y127000D02*
X205740Y109220D01*
D13*
X304800Y93980D02*
X304800Y137160D01*
X304800Y81280D02*
X304800Y43180D01*
X215900Y127000D02*
X215900Y149860D01*
X198120Y149860D01*
X215900Y109220D02*
X215900Y30480D01*
X198120Y30480D01*
X125095Y153035D02*
X125095Y164465D01*
X131445Y164465D02*
X125095Y157480D01*
X127635Y160020D02*
X131445Y153035D01*
X135954Y161925D02*
X139129Y164465D01*
X139129Y153035D01*
X135954Y153035D02*
X142304Y153035D01*
M02*
