M48
;GenerationSoftware,Autodesk,EAGLE,9.4.2*%
;CreationDate,2020-03-14T19:48:05Z*%
FMAT,2
ICI,OFF
METRIC,TZ,000.000
T5C0.800
T4C1.000
T3C1.016
T2C1.321
T1C3.000
%
G90
M71
T1
X2500Y16510
X54000Y24500
X54000Y3000
T2
X25629Y6350
X20625Y6350
X37059Y6350
X32055Y6350
X48489Y6350
X43485Y6350
X20599Y21082
X25603Y21082
X32029Y21082
X37033Y21082
X43459Y21082
X48463Y21082
T3
X5080Y8382
X12700Y8382
X54102Y7366
X54102Y9906
X54102Y12446
X54102Y14986
X54102Y17526
X54102Y20066
T4
X13922Y22860
T5
X10922Y18060
X7922Y22860
M30