G04 EAGLE Gerber RS-274X export*
G75*
%MOMM*%
%FSLAX34Y34*%
%LPD*%
%IN*%
%IPPOS*%
%AMOC8*
5,1,8,0,0,1.08239X$1,22.5*%
G01*
%ADD10C,0.254000*%


D10*
X0Y0D02*
X765000Y0D01*
X765000Y230000D01*
X0Y230000D01*
X0Y0D01*
X55000Y29464D02*
X54924Y28396D01*
X54771Y27335D01*
X54543Y26288D01*
X54241Y25260D01*
X53867Y24256D01*
X53422Y23281D01*
X52908Y22341D01*
X52329Y21440D01*
X51687Y20582D01*
X50985Y19772D01*
X50228Y19015D01*
X49418Y18313D01*
X48560Y17671D01*
X47659Y17092D01*
X46719Y16578D01*
X45744Y16133D01*
X44740Y15759D01*
X43712Y15457D01*
X42665Y15229D01*
X41604Y15076D01*
X40536Y15000D01*
X39464Y15000D01*
X38396Y15076D01*
X37335Y15229D01*
X36288Y15457D01*
X35260Y15759D01*
X34256Y16133D01*
X33281Y16578D01*
X32341Y17092D01*
X31440Y17671D01*
X30582Y18313D01*
X29772Y19015D01*
X29015Y19772D01*
X28313Y20582D01*
X27671Y21440D01*
X27092Y22341D01*
X26578Y23281D01*
X26133Y24256D01*
X25759Y25260D01*
X25457Y26288D01*
X25229Y27335D01*
X25076Y28396D01*
X25000Y29464D01*
X25000Y30536D01*
X25076Y31604D01*
X25229Y32665D01*
X25457Y33712D01*
X25759Y34740D01*
X26133Y35744D01*
X26578Y36719D01*
X27092Y37659D01*
X27671Y38560D01*
X28313Y39418D01*
X29015Y40228D01*
X29772Y40985D01*
X30582Y41687D01*
X31440Y42329D01*
X32341Y42908D01*
X33281Y43422D01*
X34256Y43867D01*
X35260Y44241D01*
X36288Y44543D01*
X37335Y44771D01*
X38396Y44924D01*
X39464Y45000D01*
X40536Y45000D01*
X41604Y44924D01*
X42665Y44771D01*
X43712Y44543D01*
X44740Y44241D01*
X45744Y43867D01*
X46719Y43422D01*
X47659Y42908D01*
X48560Y42329D01*
X49418Y41687D01*
X50228Y40985D01*
X50985Y40228D01*
X51687Y39418D01*
X52329Y38560D01*
X52908Y37659D01*
X53422Y36719D01*
X53867Y35744D01*
X54241Y34740D01*
X54543Y33712D01*
X54771Y32665D01*
X54924Y31604D01*
X55000Y30536D01*
X55000Y29464D01*
X55000Y199464D02*
X54924Y198396D01*
X54771Y197335D01*
X54543Y196288D01*
X54241Y195260D01*
X53867Y194256D01*
X53422Y193281D01*
X52908Y192341D01*
X52329Y191440D01*
X51687Y190582D01*
X50985Y189772D01*
X50228Y189015D01*
X49418Y188313D01*
X48560Y187671D01*
X47659Y187092D01*
X46719Y186578D01*
X45744Y186133D01*
X44740Y185759D01*
X43712Y185457D01*
X42665Y185229D01*
X41604Y185076D01*
X40536Y185000D01*
X39464Y185000D01*
X38396Y185076D01*
X37335Y185229D01*
X36288Y185457D01*
X35260Y185759D01*
X34256Y186133D01*
X33281Y186578D01*
X32341Y187092D01*
X31440Y187671D01*
X30582Y188313D01*
X29772Y189015D01*
X29015Y189772D01*
X28313Y190582D01*
X27671Y191440D01*
X27092Y192341D01*
X26578Y193281D01*
X26133Y194256D01*
X25759Y195260D01*
X25457Y196288D01*
X25229Y197335D01*
X25076Y198396D01*
X25000Y199464D01*
X25000Y200536D01*
X25076Y201604D01*
X25229Y202665D01*
X25457Y203712D01*
X25759Y204740D01*
X26133Y205744D01*
X26578Y206719D01*
X27092Y207659D01*
X27671Y208560D01*
X28313Y209418D01*
X29015Y210228D01*
X29772Y210985D01*
X30582Y211687D01*
X31440Y212329D01*
X32341Y212908D01*
X33281Y213422D01*
X34256Y213867D01*
X35260Y214241D01*
X36288Y214543D01*
X37335Y214771D01*
X38396Y214924D01*
X39464Y215000D01*
X40536Y215000D01*
X41604Y214924D01*
X42665Y214771D01*
X43712Y214543D01*
X44740Y214241D01*
X45744Y213867D01*
X46719Y213422D01*
X47659Y212908D01*
X48560Y212329D01*
X49418Y211687D01*
X50228Y210985D01*
X50985Y210228D01*
X51687Y209418D01*
X52329Y208560D01*
X52908Y207659D01*
X53422Y206719D01*
X53867Y205744D01*
X54241Y204740D01*
X54543Y203712D01*
X54771Y202665D01*
X54924Y201604D01*
X55000Y200536D01*
X55000Y199464D01*
X740000Y199464D02*
X739924Y198396D01*
X739771Y197335D01*
X739543Y196288D01*
X739241Y195260D01*
X738867Y194256D01*
X738422Y193281D01*
X737908Y192341D01*
X737329Y191440D01*
X736687Y190582D01*
X735985Y189772D01*
X735228Y189015D01*
X734418Y188313D01*
X733560Y187671D01*
X732659Y187092D01*
X731719Y186578D01*
X730744Y186133D01*
X729740Y185759D01*
X728712Y185457D01*
X727665Y185229D01*
X726604Y185076D01*
X725536Y185000D01*
X724464Y185000D01*
X723396Y185076D01*
X722335Y185229D01*
X721288Y185457D01*
X720260Y185759D01*
X719256Y186133D01*
X718281Y186578D01*
X717341Y187092D01*
X716440Y187671D01*
X715582Y188313D01*
X714772Y189015D01*
X714015Y189772D01*
X713313Y190582D01*
X712671Y191440D01*
X712092Y192341D01*
X711578Y193281D01*
X711133Y194256D01*
X710759Y195260D01*
X710457Y196288D01*
X710229Y197335D01*
X710076Y198396D01*
X710000Y199464D01*
X710000Y200536D01*
X710076Y201604D01*
X710229Y202665D01*
X710457Y203712D01*
X710759Y204740D01*
X711133Y205744D01*
X711578Y206719D01*
X712092Y207659D01*
X712671Y208560D01*
X713313Y209418D01*
X714015Y210228D01*
X714772Y210985D01*
X715582Y211687D01*
X716440Y212329D01*
X717341Y212908D01*
X718281Y213422D01*
X719256Y213867D01*
X720260Y214241D01*
X721288Y214543D01*
X722335Y214771D01*
X723396Y214924D01*
X724464Y215000D01*
X725536Y215000D01*
X726604Y214924D01*
X727665Y214771D01*
X728712Y214543D01*
X729740Y214241D01*
X730744Y213867D01*
X731719Y213422D01*
X732659Y212908D01*
X733560Y212329D01*
X734418Y211687D01*
X735228Y210985D01*
X735985Y210228D01*
X736687Y209418D01*
X737329Y208560D01*
X737908Y207659D01*
X738422Y206719D01*
X738867Y205744D01*
X739241Y204740D01*
X739543Y203712D01*
X739771Y202665D01*
X739924Y201604D01*
X740000Y200536D01*
X740000Y199464D01*
X740000Y29464D02*
X739924Y28396D01*
X739771Y27335D01*
X739543Y26288D01*
X739241Y25260D01*
X738867Y24256D01*
X738422Y23281D01*
X737908Y22341D01*
X737329Y21440D01*
X736687Y20582D01*
X735985Y19772D01*
X735228Y19015D01*
X734418Y18313D01*
X733560Y17671D01*
X732659Y17092D01*
X731719Y16578D01*
X730744Y16133D01*
X729740Y15759D01*
X728712Y15457D01*
X727665Y15229D01*
X726604Y15076D01*
X725536Y15000D01*
X724464Y15000D01*
X723396Y15076D01*
X722335Y15229D01*
X721288Y15457D01*
X720260Y15759D01*
X719256Y16133D01*
X718281Y16578D01*
X717341Y17092D01*
X716440Y17671D01*
X715582Y18313D01*
X714772Y19015D01*
X714015Y19772D01*
X713313Y20582D01*
X712671Y21440D01*
X712092Y22341D01*
X711578Y23281D01*
X711133Y24256D01*
X710759Y25260D01*
X710457Y26288D01*
X710229Y27335D01*
X710076Y28396D01*
X710000Y29464D01*
X710000Y30536D01*
X710076Y31604D01*
X710229Y32665D01*
X710457Y33712D01*
X710759Y34740D01*
X711133Y35744D01*
X711578Y36719D01*
X712092Y37659D01*
X712671Y38560D01*
X713313Y39418D01*
X714015Y40228D01*
X714772Y40985D01*
X715582Y41687D01*
X716440Y42329D01*
X717341Y42908D01*
X718281Y43422D01*
X719256Y43867D01*
X720260Y44241D01*
X721288Y44543D01*
X722335Y44771D01*
X723396Y44924D01*
X724464Y45000D01*
X725536Y45000D01*
X726604Y44924D01*
X727665Y44771D01*
X728712Y44543D01*
X729740Y44241D01*
X730744Y43867D01*
X731719Y43422D01*
X732659Y42908D01*
X733560Y42329D01*
X734418Y41687D01*
X735228Y40985D01*
X735985Y40228D01*
X736687Y39418D01*
X737329Y38560D01*
X737908Y37659D01*
X738422Y36719D01*
X738867Y35744D01*
X739241Y34740D01*
X739543Y33712D01*
X739771Y32665D01*
X739924Y31604D01*
X740000Y30536D01*
X740000Y29464D01*
M02*
