G04 EAGLE Gerber RS-274X export*
G75*
%MOMM*%
%FSLAX34Y34*%
%LPD*%
%INSilkscreen Top*%
%IPPOS*%
%AMOC8*
5,1,8,0,0,1.08239X$1,22.5*%
G01*
%ADD10C,0.101600*%
%ADD11C,0.203200*%
%ADD12C,0.127000*%
%ADD13C,0.152400*%


D10*
X186756Y130048D02*
X184159Y130048D01*
X184060Y130050D01*
X183960Y130056D01*
X183861Y130065D01*
X183763Y130078D01*
X183665Y130095D01*
X183567Y130116D01*
X183471Y130141D01*
X183376Y130169D01*
X183282Y130201D01*
X183189Y130236D01*
X183097Y130275D01*
X183007Y130318D01*
X182919Y130363D01*
X182832Y130413D01*
X182748Y130465D01*
X182665Y130521D01*
X182585Y130579D01*
X182507Y130641D01*
X182432Y130706D01*
X182359Y130774D01*
X182289Y130844D01*
X182221Y130917D01*
X182156Y130992D01*
X182094Y131070D01*
X182036Y131150D01*
X181980Y131233D01*
X181928Y131317D01*
X181878Y131404D01*
X181833Y131492D01*
X181790Y131582D01*
X181751Y131674D01*
X181716Y131767D01*
X181684Y131861D01*
X181656Y131956D01*
X181631Y132052D01*
X181610Y132150D01*
X181593Y132248D01*
X181580Y132346D01*
X181571Y132445D01*
X181565Y132545D01*
X181563Y132644D01*
X181563Y139136D01*
X181565Y139235D01*
X181571Y139335D01*
X181580Y139434D01*
X181593Y139532D01*
X181610Y139630D01*
X181631Y139728D01*
X181656Y139824D01*
X181684Y139919D01*
X181716Y140013D01*
X181751Y140106D01*
X181790Y140198D01*
X181833Y140288D01*
X181878Y140376D01*
X181928Y140463D01*
X181980Y140547D01*
X182036Y140630D01*
X182094Y140710D01*
X182156Y140788D01*
X182221Y140863D01*
X182289Y140936D01*
X182359Y141006D01*
X182432Y141074D01*
X182507Y141139D01*
X182585Y141201D01*
X182665Y141259D01*
X182748Y141315D01*
X182832Y141367D01*
X182919Y141417D01*
X183007Y141462D01*
X183097Y141505D01*
X183189Y141544D01*
X183281Y141579D01*
X183376Y141611D01*
X183471Y141639D01*
X183567Y141664D01*
X183665Y141685D01*
X183763Y141702D01*
X183861Y141715D01*
X183960Y141724D01*
X184060Y141730D01*
X184159Y141732D01*
X186756Y141732D01*
X194691Y141732D02*
X194798Y141730D01*
X194904Y141724D01*
X195010Y141714D01*
X195116Y141701D01*
X195222Y141683D01*
X195326Y141662D01*
X195430Y141637D01*
X195533Y141608D01*
X195634Y141576D01*
X195734Y141539D01*
X195833Y141499D01*
X195931Y141456D01*
X196027Y141409D01*
X196121Y141358D01*
X196213Y141304D01*
X196303Y141247D01*
X196391Y141187D01*
X196476Y141123D01*
X196559Y141056D01*
X196640Y140986D01*
X196718Y140914D01*
X196794Y140838D01*
X196866Y140760D01*
X196936Y140679D01*
X197003Y140596D01*
X197067Y140511D01*
X197127Y140423D01*
X197184Y140333D01*
X197238Y140241D01*
X197289Y140147D01*
X197336Y140051D01*
X197379Y139953D01*
X197419Y139854D01*
X197456Y139754D01*
X197488Y139653D01*
X197517Y139550D01*
X197542Y139446D01*
X197563Y139342D01*
X197581Y139236D01*
X197594Y139130D01*
X197604Y139024D01*
X197610Y138918D01*
X197612Y138811D01*
X194691Y141732D02*
X194570Y141730D01*
X194449Y141724D01*
X194329Y141714D01*
X194208Y141701D01*
X194089Y141683D01*
X193969Y141662D01*
X193851Y141637D01*
X193734Y141608D01*
X193617Y141575D01*
X193502Y141539D01*
X193388Y141498D01*
X193275Y141455D01*
X193163Y141407D01*
X193054Y141356D01*
X192946Y141301D01*
X192839Y141243D01*
X192735Y141182D01*
X192633Y141117D01*
X192533Y141049D01*
X192435Y140978D01*
X192339Y140904D01*
X192246Y140827D01*
X192156Y140746D01*
X192068Y140663D01*
X191983Y140577D01*
X191900Y140488D01*
X191821Y140397D01*
X191744Y140303D01*
X191671Y140207D01*
X191601Y140109D01*
X191534Y140008D01*
X191470Y139905D01*
X191410Y139800D01*
X191353Y139693D01*
X191299Y139585D01*
X191249Y139475D01*
X191203Y139363D01*
X191160Y139250D01*
X191121Y139135D01*
X196639Y136539D02*
X196718Y136616D01*
X196794Y136697D01*
X196867Y136780D01*
X196937Y136865D01*
X197004Y136953D01*
X197068Y137043D01*
X197128Y137135D01*
X197185Y137230D01*
X197239Y137326D01*
X197290Y137424D01*
X197337Y137524D01*
X197381Y137626D01*
X197421Y137729D01*
X197457Y137833D01*
X197489Y137939D01*
X197518Y138045D01*
X197543Y138153D01*
X197565Y138261D01*
X197582Y138371D01*
X197596Y138480D01*
X197605Y138590D01*
X197611Y138701D01*
X197613Y138811D01*
X196638Y136539D02*
X191121Y130048D01*
X197612Y130048D01*
X227339Y25908D02*
X229936Y25908D01*
X227339Y25908D02*
X227240Y25910D01*
X227140Y25916D01*
X227041Y25925D01*
X226943Y25938D01*
X226845Y25955D01*
X226747Y25976D01*
X226651Y26001D01*
X226556Y26029D01*
X226462Y26061D01*
X226369Y26096D01*
X226277Y26135D01*
X226187Y26178D01*
X226099Y26223D01*
X226012Y26273D01*
X225928Y26325D01*
X225845Y26381D01*
X225765Y26439D01*
X225687Y26501D01*
X225612Y26566D01*
X225539Y26634D01*
X225469Y26704D01*
X225401Y26777D01*
X225336Y26852D01*
X225274Y26930D01*
X225216Y27010D01*
X225160Y27093D01*
X225108Y27177D01*
X225058Y27264D01*
X225013Y27352D01*
X224970Y27442D01*
X224931Y27534D01*
X224896Y27627D01*
X224864Y27721D01*
X224836Y27816D01*
X224811Y27912D01*
X224790Y28010D01*
X224773Y28108D01*
X224760Y28206D01*
X224751Y28305D01*
X224745Y28405D01*
X224743Y28504D01*
X224743Y34996D01*
X224745Y35095D01*
X224751Y35195D01*
X224760Y35294D01*
X224773Y35392D01*
X224790Y35490D01*
X224811Y35588D01*
X224836Y35684D01*
X224864Y35779D01*
X224896Y35873D01*
X224931Y35966D01*
X224970Y36058D01*
X225013Y36148D01*
X225058Y36236D01*
X225108Y36323D01*
X225160Y36407D01*
X225216Y36490D01*
X225274Y36570D01*
X225336Y36648D01*
X225401Y36723D01*
X225469Y36796D01*
X225539Y36866D01*
X225612Y36934D01*
X225687Y36999D01*
X225765Y37061D01*
X225845Y37119D01*
X225928Y37175D01*
X226012Y37227D01*
X226099Y37277D01*
X226187Y37322D01*
X226277Y37365D01*
X226369Y37404D01*
X226461Y37439D01*
X226556Y37471D01*
X226651Y37499D01*
X226747Y37524D01*
X226845Y37545D01*
X226943Y37562D01*
X227041Y37575D01*
X227140Y37584D01*
X227240Y37590D01*
X227339Y37592D01*
X229936Y37592D01*
X234301Y25908D02*
X237546Y25908D01*
X237659Y25910D01*
X237772Y25916D01*
X237885Y25926D01*
X237998Y25940D01*
X238110Y25957D01*
X238221Y25979D01*
X238331Y26004D01*
X238441Y26034D01*
X238549Y26067D01*
X238656Y26104D01*
X238762Y26144D01*
X238866Y26189D01*
X238969Y26237D01*
X239070Y26288D01*
X239169Y26343D01*
X239266Y26401D01*
X239361Y26463D01*
X239454Y26528D01*
X239544Y26596D01*
X239632Y26667D01*
X239718Y26742D01*
X239801Y26819D01*
X239881Y26899D01*
X239958Y26982D01*
X240033Y27068D01*
X240104Y27156D01*
X240172Y27246D01*
X240237Y27339D01*
X240299Y27434D01*
X240357Y27531D01*
X240412Y27630D01*
X240463Y27731D01*
X240511Y27834D01*
X240556Y27938D01*
X240596Y28044D01*
X240633Y28151D01*
X240666Y28259D01*
X240696Y28369D01*
X240721Y28479D01*
X240743Y28590D01*
X240760Y28702D01*
X240774Y28815D01*
X240784Y28928D01*
X240790Y29041D01*
X240792Y29154D01*
X240790Y29267D01*
X240784Y29380D01*
X240774Y29493D01*
X240760Y29606D01*
X240743Y29718D01*
X240721Y29829D01*
X240696Y29939D01*
X240666Y30049D01*
X240633Y30157D01*
X240596Y30264D01*
X240556Y30370D01*
X240511Y30474D01*
X240463Y30577D01*
X240412Y30678D01*
X240357Y30777D01*
X240299Y30874D01*
X240237Y30969D01*
X240172Y31062D01*
X240104Y31152D01*
X240033Y31240D01*
X239958Y31326D01*
X239881Y31409D01*
X239801Y31489D01*
X239718Y31566D01*
X239632Y31641D01*
X239544Y31712D01*
X239454Y31780D01*
X239361Y31845D01*
X239266Y31907D01*
X239169Y31965D01*
X239070Y32020D01*
X238969Y32071D01*
X238866Y32119D01*
X238762Y32164D01*
X238656Y32204D01*
X238549Y32241D01*
X238441Y32274D01*
X238331Y32304D01*
X238221Y32329D01*
X238110Y32351D01*
X237998Y32368D01*
X237885Y32382D01*
X237772Y32392D01*
X237659Y32398D01*
X237546Y32400D01*
X238196Y37592D02*
X234301Y37592D01*
X238196Y37592D02*
X238297Y37590D01*
X238397Y37584D01*
X238497Y37574D01*
X238597Y37561D01*
X238696Y37543D01*
X238795Y37522D01*
X238892Y37497D01*
X238989Y37468D01*
X239084Y37435D01*
X239178Y37399D01*
X239270Y37359D01*
X239361Y37316D01*
X239450Y37269D01*
X239537Y37219D01*
X239623Y37165D01*
X239706Y37108D01*
X239786Y37048D01*
X239865Y36985D01*
X239941Y36918D01*
X240014Y36849D01*
X240084Y36777D01*
X240152Y36703D01*
X240217Y36626D01*
X240278Y36546D01*
X240337Y36464D01*
X240392Y36380D01*
X240444Y36294D01*
X240493Y36206D01*
X240538Y36116D01*
X240580Y36024D01*
X240618Y35931D01*
X240652Y35836D01*
X240683Y35741D01*
X240710Y35644D01*
X240733Y35546D01*
X240753Y35447D01*
X240768Y35347D01*
X240780Y35247D01*
X240788Y35147D01*
X240792Y35046D01*
X240792Y34946D01*
X240788Y34845D01*
X240780Y34745D01*
X240768Y34645D01*
X240753Y34545D01*
X240733Y34446D01*
X240710Y34348D01*
X240683Y34251D01*
X240652Y34156D01*
X240618Y34061D01*
X240580Y33968D01*
X240538Y33876D01*
X240493Y33786D01*
X240444Y33698D01*
X240392Y33612D01*
X240337Y33528D01*
X240278Y33446D01*
X240217Y33366D01*
X240152Y33289D01*
X240084Y33215D01*
X240014Y33143D01*
X239941Y33074D01*
X239865Y33007D01*
X239786Y32944D01*
X239706Y32884D01*
X239623Y32827D01*
X239537Y32773D01*
X239450Y32723D01*
X239361Y32676D01*
X239270Y32633D01*
X239178Y32593D01*
X239084Y32557D01*
X238989Y32524D01*
X238892Y32495D01*
X238795Y32470D01*
X238696Y32449D01*
X238597Y32431D01*
X238497Y32418D01*
X238397Y32408D01*
X238297Y32402D01*
X238196Y32400D01*
X238196Y32399D02*
X235599Y32399D01*
X300284Y157988D02*
X302881Y157988D01*
X300284Y157988D02*
X300185Y157990D01*
X300085Y157996D01*
X299986Y158005D01*
X299888Y158018D01*
X299790Y158035D01*
X299692Y158056D01*
X299596Y158081D01*
X299501Y158109D01*
X299407Y158141D01*
X299314Y158176D01*
X299222Y158215D01*
X299132Y158258D01*
X299044Y158303D01*
X298957Y158353D01*
X298873Y158405D01*
X298790Y158461D01*
X298710Y158519D01*
X298632Y158581D01*
X298557Y158646D01*
X298484Y158714D01*
X298414Y158784D01*
X298346Y158857D01*
X298281Y158932D01*
X298219Y159010D01*
X298161Y159090D01*
X298105Y159173D01*
X298053Y159257D01*
X298003Y159344D01*
X297958Y159432D01*
X297915Y159522D01*
X297876Y159614D01*
X297841Y159707D01*
X297809Y159801D01*
X297781Y159896D01*
X297756Y159992D01*
X297735Y160090D01*
X297718Y160188D01*
X297705Y160286D01*
X297696Y160385D01*
X297690Y160485D01*
X297688Y160584D01*
X297688Y167076D01*
X297690Y167175D01*
X297696Y167275D01*
X297705Y167374D01*
X297718Y167472D01*
X297735Y167570D01*
X297756Y167668D01*
X297781Y167764D01*
X297809Y167859D01*
X297841Y167953D01*
X297876Y168046D01*
X297915Y168138D01*
X297958Y168228D01*
X298003Y168316D01*
X298053Y168403D01*
X298105Y168487D01*
X298161Y168570D01*
X298219Y168650D01*
X298281Y168728D01*
X298346Y168803D01*
X298414Y168876D01*
X298484Y168946D01*
X298557Y169014D01*
X298632Y169079D01*
X298710Y169141D01*
X298790Y169199D01*
X298873Y169255D01*
X298957Y169307D01*
X299044Y169357D01*
X299132Y169402D01*
X299222Y169445D01*
X299314Y169484D01*
X299406Y169519D01*
X299501Y169551D01*
X299596Y169579D01*
X299692Y169604D01*
X299790Y169625D01*
X299888Y169642D01*
X299986Y169655D01*
X300085Y169664D01*
X300185Y169670D01*
X300284Y169672D01*
X302881Y169672D01*
X309843Y169672D02*
X307246Y160584D01*
X313737Y160584D01*
X311790Y163181D02*
X311790Y157988D01*
X206248Y178308D02*
X206248Y189992D01*
X209494Y189992D01*
X209607Y189990D01*
X209720Y189984D01*
X209833Y189974D01*
X209946Y189960D01*
X210058Y189943D01*
X210169Y189921D01*
X210279Y189896D01*
X210389Y189866D01*
X210497Y189833D01*
X210604Y189796D01*
X210710Y189756D01*
X210814Y189711D01*
X210917Y189663D01*
X211018Y189612D01*
X211117Y189557D01*
X211214Y189499D01*
X211309Y189437D01*
X211402Y189372D01*
X211492Y189304D01*
X211580Y189233D01*
X211666Y189158D01*
X211749Y189081D01*
X211829Y189001D01*
X211906Y188918D01*
X211981Y188832D01*
X212052Y188744D01*
X212120Y188654D01*
X212185Y188561D01*
X212247Y188466D01*
X212305Y188369D01*
X212360Y188270D01*
X212411Y188169D01*
X212459Y188066D01*
X212504Y187962D01*
X212544Y187856D01*
X212581Y187749D01*
X212614Y187641D01*
X212644Y187531D01*
X212669Y187421D01*
X212691Y187310D01*
X212708Y187198D01*
X212722Y187085D01*
X212732Y186972D01*
X212738Y186859D01*
X212740Y186746D01*
X212738Y186633D01*
X212732Y186520D01*
X212722Y186407D01*
X212708Y186294D01*
X212691Y186182D01*
X212669Y186071D01*
X212644Y185961D01*
X212614Y185851D01*
X212581Y185743D01*
X212544Y185636D01*
X212504Y185530D01*
X212459Y185426D01*
X212411Y185323D01*
X212360Y185222D01*
X212305Y185123D01*
X212247Y185026D01*
X212185Y184931D01*
X212120Y184838D01*
X212052Y184748D01*
X211981Y184660D01*
X211906Y184574D01*
X211829Y184491D01*
X211749Y184411D01*
X211666Y184334D01*
X211580Y184259D01*
X211492Y184188D01*
X211402Y184120D01*
X211309Y184055D01*
X211214Y183993D01*
X211117Y183935D01*
X211018Y183880D01*
X210917Y183829D01*
X210814Y183781D01*
X210710Y183736D01*
X210604Y183696D01*
X210497Y183659D01*
X210389Y183626D01*
X210279Y183596D01*
X210169Y183571D01*
X210058Y183549D01*
X209946Y183532D01*
X209833Y183518D01*
X209720Y183508D01*
X209607Y183502D01*
X209494Y183500D01*
X209494Y183501D02*
X206248Y183501D01*
X210143Y183501D02*
X212739Y178308D01*
X217604Y187396D02*
X220850Y189992D01*
X220850Y178308D01*
X224095Y178308D02*
X217604Y178308D01*
X182305Y83312D02*
X182305Y71628D01*
X182305Y83312D02*
X185550Y83312D01*
X185663Y83310D01*
X185776Y83304D01*
X185889Y83294D01*
X186002Y83280D01*
X186114Y83263D01*
X186225Y83241D01*
X186335Y83216D01*
X186445Y83186D01*
X186553Y83153D01*
X186660Y83116D01*
X186766Y83076D01*
X186870Y83031D01*
X186973Y82983D01*
X187074Y82932D01*
X187173Y82877D01*
X187270Y82819D01*
X187365Y82757D01*
X187458Y82692D01*
X187548Y82624D01*
X187636Y82553D01*
X187722Y82478D01*
X187805Y82401D01*
X187885Y82321D01*
X187962Y82238D01*
X188037Y82152D01*
X188108Y82064D01*
X188176Y81974D01*
X188241Y81881D01*
X188303Y81786D01*
X188361Y81689D01*
X188416Y81590D01*
X188467Y81489D01*
X188515Y81386D01*
X188560Y81282D01*
X188600Y81176D01*
X188637Y81069D01*
X188670Y80961D01*
X188700Y80851D01*
X188725Y80741D01*
X188747Y80630D01*
X188764Y80518D01*
X188778Y80405D01*
X188788Y80292D01*
X188794Y80179D01*
X188796Y80066D01*
X188794Y79953D01*
X188788Y79840D01*
X188778Y79727D01*
X188764Y79614D01*
X188747Y79502D01*
X188725Y79391D01*
X188700Y79281D01*
X188670Y79171D01*
X188637Y79063D01*
X188600Y78956D01*
X188560Y78850D01*
X188515Y78746D01*
X188467Y78643D01*
X188416Y78542D01*
X188361Y78443D01*
X188303Y78346D01*
X188241Y78251D01*
X188176Y78158D01*
X188108Y78068D01*
X188037Y77980D01*
X187962Y77894D01*
X187885Y77811D01*
X187805Y77731D01*
X187722Y77654D01*
X187636Y77579D01*
X187548Y77508D01*
X187458Y77440D01*
X187365Y77375D01*
X187270Y77313D01*
X187173Y77255D01*
X187074Y77200D01*
X186973Y77149D01*
X186870Y77101D01*
X186766Y77056D01*
X186660Y77016D01*
X186553Y76979D01*
X186445Y76946D01*
X186335Y76916D01*
X186225Y76891D01*
X186114Y76869D01*
X186002Y76852D01*
X185889Y76838D01*
X185776Y76828D01*
X185663Y76822D01*
X185550Y76820D01*
X185550Y76821D02*
X182305Y76821D01*
X186199Y76821D02*
X188796Y71628D01*
X200152Y80391D02*
X200150Y80498D01*
X200144Y80604D01*
X200134Y80710D01*
X200121Y80816D01*
X200103Y80922D01*
X200082Y81026D01*
X200057Y81130D01*
X200028Y81233D01*
X199996Y81334D01*
X199959Y81434D01*
X199919Y81533D01*
X199876Y81631D01*
X199829Y81727D01*
X199778Y81821D01*
X199724Y81913D01*
X199667Y82003D01*
X199607Y82091D01*
X199543Y82176D01*
X199476Y82259D01*
X199406Y82340D01*
X199334Y82418D01*
X199258Y82494D01*
X199180Y82566D01*
X199099Y82636D01*
X199016Y82703D01*
X198931Y82767D01*
X198843Y82827D01*
X198753Y82884D01*
X198661Y82938D01*
X198567Y82989D01*
X198471Y83036D01*
X198373Y83079D01*
X198274Y83119D01*
X198174Y83156D01*
X198073Y83188D01*
X197970Y83217D01*
X197866Y83242D01*
X197762Y83263D01*
X197656Y83281D01*
X197550Y83294D01*
X197444Y83304D01*
X197338Y83310D01*
X197231Y83312D01*
X197110Y83310D01*
X196989Y83304D01*
X196869Y83294D01*
X196748Y83281D01*
X196629Y83263D01*
X196509Y83242D01*
X196391Y83217D01*
X196274Y83188D01*
X196157Y83155D01*
X196042Y83119D01*
X195928Y83078D01*
X195815Y83035D01*
X195703Y82987D01*
X195594Y82936D01*
X195486Y82881D01*
X195379Y82823D01*
X195275Y82762D01*
X195173Y82697D01*
X195073Y82629D01*
X194975Y82558D01*
X194879Y82484D01*
X194786Y82407D01*
X194696Y82326D01*
X194608Y82243D01*
X194523Y82157D01*
X194440Y82068D01*
X194361Y81977D01*
X194284Y81883D01*
X194211Y81787D01*
X194141Y81689D01*
X194074Y81588D01*
X194010Y81485D01*
X193950Y81380D01*
X193893Y81273D01*
X193839Y81165D01*
X193789Y81055D01*
X193743Y80943D01*
X193700Y80830D01*
X193661Y80715D01*
X199179Y78119D02*
X199258Y78196D01*
X199334Y78277D01*
X199407Y78360D01*
X199477Y78445D01*
X199544Y78533D01*
X199608Y78623D01*
X199668Y78715D01*
X199725Y78810D01*
X199779Y78906D01*
X199830Y79004D01*
X199877Y79104D01*
X199921Y79206D01*
X199961Y79309D01*
X199997Y79413D01*
X200029Y79519D01*
X200058Y79625D01*
X200083Y79733D01*
X200105Y79841D01*
X200122Y79951D01*
X200136Y80060D01*
X200145Y80170D01*
X200151Y80281D01*
X200153Y80391D01*
X199178Y78119D02*
X193661Y71628D01*
X200152Y71628D01*
X253238Y178308D02*
X253238Y189992D01*
X256484Y189992D01*
X256597Y189990D01*
X256710Y189984D01*
X256823Y189974D01*
X256936Y189960D01*
X257048Y189943D01*
X257159Y189921D01*
X257269Y189896D01*
X257379Y189866D01*
X257487Y189833D01*
X257594Y189796D01*
X257700Y189756D01*
X257804Y189711D01*
X257907Y189663D01*
X258008Y189612D01*
X258107Y189557D01*
X258204Y189499D01*
X258299Y189437D01*
X258392Y189372D01*
X258482Y189304D01*
X258570Y189233D01*
X258656Y189158D01*
X258739Y189081D01*
X258819Y189001D01*
X258896Y188918D01*
X258971Y188832D01*
X259042Y188744D01*
X259110Y188654D01*
X259175Y188561D01*
X259237Y188466D01*
X259295Y188369D01*
X259350Y188270D01*
X259401Y188169D01*
X259449Y188066D01*
X259494Y187962D01*
X259534Y187856D01*
X259571Y187749D01*
X259604Y187641D01*
X259634Y187531D01*
X259659Y187421D01*
X259681Y187310D01*
X259698Y187198D01*
X259712Y187085D01*
X259722Y186972D01*
X259728Y186859D01*
X259730Y186746D01*
X259728Y186633D01*
X259722Y186520D01*
X259712Y186407D01*
X259698Y186294D01*
X259681Y186182D01*
X259659Y186071D01*
X259634Y185961D01*
X259604Y185851D01*
X259571Y185743D01*
X259534Y185636D01*
X259494Y185530D01*
X259449Y185426D01*
X259401Y185323D01*
X259350Y185222D01*
X259295Y185123D01*
X259237Y185026D01*
X259175Y184931D01*
X259110Y184838D01*
X259042Y184748D01*
X258971Y184660D01*
X258896Y184574D01*
X258819Y184491D01*
X258739Y184411D01*
X258656Y184334D01*
X258570Y184259D01*
X258482Y184188D01*
X258392Y184120D01*
X258299Y184055D01*
X258204Y183993D01*
X258107Y183935D01*
X258008Y183880D01*
X257907Y183829D01*
X257804Y183781D01*
X257700Y183736D01*
X257594Y183696D01*
X257487Y183659D01*
X257379Y183626D01*
X257269Y183596D01*
X257159Y183571D01*
X257048Y183549D01*
X256936Y183532D01*
X256823Y183518D01*
X256710Y183508D01*
X256597Y183502D01*
X256484Y183500D01*
X256484Y183501D02*
X253238Y183501D01*
X257133Y183501D02*
X259729Y178308D01*
X264594Y178308D02*
X267840Y178308D01*
X267953Y178310D01*
X268066Y178316D01*
X268179Y178326D01*
X268292Y178340D01*
X268404Y178357D01*
X268515Y178379D01*
X268625Y178404D01*
X268735Y178434D01*
X268843Y178467D01*
X268950Y178504D01*
X269056Y178544D01*
X269160Y178589D01*
X269263Y178637D01*
X269364Y178688D01*
X269463Y178743D01*
X269560Y178801D01*
X269655Y178863D01*
X269748Y178928D01*
X269838Y178996D01*
X269926Y179067D01*
X270012Y179142D01*
X270095Y179219D01*
X270175Y179299D01*
X270252Y179382D01*
X270327Y179468D01*
X270398Y179556D01*
X270466Y179646D01*
X270531Y179739D01*
X270593Y179834D01*
X270651Y179931D01*
X270706Y180030D01*
X270757Y180131D01*
X270805Y180234D01*
X270850Y180338D01*
X270890Y180444D01*
X270927Y180551D01*
X270960Y180659D01*
X270990Y180769D01*
X271015Y180879D01*
X271037Y180990D01*
X271054Y181102D01*
X271068Y181215D01*
X271078Y181328D01*
X271084Y181441D01*
X271086Y181554D01*
X271084Y181667D01*
X271078Y181780D01*
X271068Y181893D01*
X271054Y182006D01*
X271037Y182118D01*
X271015Y182229D01*
X270990Y182339D01*
X270960Y182449D01*
X270927Y182557D01*
X270890Y182664D01*
X270850Y182770D01*
X270805Y182874D01*
X270757Y182977D01*
X270706Y183078D01*
X270651Y183177D01*
X270593Y183274D01*
X270531Y183369D01*
X270466Y183462D01*
X270398Y183552D01*
X270327Y183640D01*
X270252Y183726D01*
X270175Y183809D01*
X270095Y183889D01*
X270012Y183966D01*
X269926Y184041D01*
X269838Y184112D01*
X269748Y184180D01*
X269655Y184245D01*
X269560Y184307D01*
X269463Y184365D01*
X269364Y184420D01*
X269263Y184471D01*
X269160Y184519D01*
X269056Y184564D01*
X268950Y184604D01*
X268843Y184641D01*
X268735Y184674D01*
X268625Y184704D01*
X268515Y184729D01*
X268404Y184751D01*
X268292Y184768D01*
X268179Y184782D01*
X268066Y184792D01*
X267953Y184798D01*
X267840Y184800D01*
X268489Y189992D02*
X264594Y189992D01*
X268489Y189992D02*
X268590Y189990D01*
X268690Y189984D01*
X268790Y189974D01*
X268890Y189961D01*
X268989Y189943D01*
X269088Y189922D01*
X269185Y189897D01*
X269282Y189868D01*
X269377Y189835D01*
X269471Y189799D01*
X269563Y189759D01*
X269654Y189716D01*
X269743Y189669D01*
X269830Y189619D01*
X269916Y189565D01*
X269999Y189508D01*
X270079Y189448D01*
X270158Y189385D01*
X270234Y189318D01*
X270307Y189249D01*
X270377Y189177D01*
X270445Y189103D01*
X270510Y189026D01*
X270571Y188946D01*
X270630Y188864D01*
X270685Y188780D01*
X270737Y188694D01*
X270786Y188606D01*
X270831Y188516D01*
X270873Y188424D01*
X270911Y188331D01*
X270945Y188236D01*
X270976Y188141D01*
X271003Y188044D01*
X271026Y187946D01*
X271046Y187847D01*
X271061Y187747D01*
X271073Y187647D01*
X271081Y187547D01*
X271085Y187446D01*
X271085Y187346D01*
X271081Y187245D01*
X271073Y187145D01*
X271061Y187045D01*
X271046Y186945D01*
X271026Y186846D01*
X271003Y186748D01*
X270976Y186651D01*
X270945Y186556D01*
X270911Y186461D01*
X270873Y186368D01*
X270831Y186276D01*
X270786Y186186D01*
X270737Y186098D01*
X270685Y186012D01*
X270630Y185928D01*
X270571Y185846D01*
X270510Y185766D01*
X270445Y185689D01*
X270377Y185615D01*
X270307Y185543D01*
X270234Y185474D01*
X270158Y185407D01*
X270079Y185344D01*
X269999Y185284D01*
X269916Y185227D01*
X269830Y185173D01*
X269743Y185123D01*
X269654Y185076D01*
X269563Y185033D01*
X269471Y184993D01*
X269377Y184957D01*
X269282Y184924D01*
X269185Y184895D01*
X269088Y184870D01*
X268989Y184849D01*
X268890Y184831D01*
X268790Y184818D01*
X268690Y184808D01*
X268590Y184802D01*
X268489Y184800D01*
X268489Y184799D02*
X265893Y184799D01*
X214055Y60452D02*
X214055Y48768D01*
X214055Y60452D02*
X217300Y60452D01*
X217413Y60450D01*
X217526Y60444D01*
X217639Y60434D01*
X217752Y60420D01*
X217864Y60403D01*
X217975Y60381D01*
X218085Y60356D01*
X218195Y60326D01*
X218303Y60293D01*
X218410Y60256D01*
X218516Y60216D01*
X218620Y60171D01*
X218723Y60123D01*
X218824Y60072D01*
X218923Y60017D01*
X219020Y59959D01*
X219115Y59897D01*
X219208Y59832D01*
X219298Y59764D01*
X219386Y59693D01*
X219472Y59618D01*
X219555Y59541D01*
X219635Y59461D01*
X219712Y59378D01*
X219787Y59292D01*
X219858Y59204D01*
X219926Y59114D01*
X219991Y59021D01*
X220053Y58926D01*
X220111Y58829D01*
X220166Y58730D01*
X220217Y58629D01*
X220265Y58526D01*
X220310Y58422D01*
X220350Y58316D01*
X220387Y58209D01*
X220420Y58101D01*
X220450Y57991D01*
X220475Y57881D01*
X220497Y57770D01*
X220514Y57658D01*
X220528Y57545D01*
X220538Y57432D01*
X220544Y57319D01*
X220546Y57206D01*
X220544Y57093D01*
X220538Y56980D01*
X220528Y56867D01*
X220514Y56754D01*
X220497Y56642D01*
X220475Y56531D01*
X220450Y56421D01*
X220420Y56311D01*
X220387Y56203D01*
X220350Y56096D01*
X220310Y55990D01*
X220265Y55886D01*
X220217Y55783D01*
X220166Y55682D01*
X220111Y55583D01*
X220053Y55486D01*
X219991Y55391D01*
X219926Y55298D01*
X219858Y55208D01*
X219787Y55120D01*
X219712Y55034D01*
X219635Y54951D01*
X219555Y54871D01*
X219472Y54794D01*
X219386Y54719D01*
X219298Y54648D01*
X219208Y54580D01*
X219115Y54515D01*
X219020Y54453D01*
X218923Y54395D01*
X218824Y54340D01*
X218723Y54289D01*
X218620Y54241D01*
X218516Y54196D01*
X218410Y54156D01*
X218303Y54119D01*
X218195Y54086D01*
X218085Y54056D01*
X217975Y54031D01*
X217864Y54009D01*
X217752Y53992D01*
X217639Y53978D01*
X217526Y53968D01*
X217413Y53962D01*
X217300Y53960D01*
X217300Y53961D02*
X214055Y53961D01*
X217949Y53961D02*
X220546Y48768D01*
X225411Y51364D02*
X228007Y60452D01*
X225411Y51364D02*
X231902Y51364D01*
X229955Y53961D02*
X229955Y48768D01*
X288798Y74168D02*
X288798Y85852D01*
X292044Y85852D01*
X292157Y85850D01*
X292270Y85844D01*
X292383Y85834D01*
X292496Y85820D01*
X292608Y85803D01*
X292719Y85781D01*
X292829Y85756D01*
X292939Y85726D01*
X293047Y85693D01*
X293154Y85656D01*
X293260Y85616D01*
X293364Y85571D01*
X293467Y85523D01*
X293568Y85472D01*
X293667Y85417D01*
X293764Y85359D01*
X293859Y85297D01*
X293952Y85232D01*
X294042Y85164D01*
X294130Y85093D01*
X294216Y85018D01*
X294299Y84941D01*
X294379Y84861D01*
X294456Y84778D01*
X294531Y84692D01*
X294602Y84604D01*
X294670Y84514D01*
X294735Y84421D01*
X294797Y84326D01*
X294855Y84229D01*
X294910Y84130D01*
X294961Y84029D01*
X295009Y83926D01*
X295054Y83822D01*
X295094Y83716D01*
X295131Y83609D01*
X295164Y83501D01*
X295194Y83391D01*
X295219Y83281D01*
X295241Y83170D01*
X295258Y83058D01*
X295272Y82945D01*
X295282Y82832D01*
X295288Y82719D01*
X295290Y82606D01*
X295288Y82493D01*
X295282Y82380D01*
X295272Y82267D01*
X295258Y82154D01*
X295241Y82042D01*
X295219Y81931D01*
X295194Y81821D01*
X295164Y81711D01*
X295131Y81603D01*
X295094Y81496D01*
X295054Y81390D01*
X295009Y81286D01*
X294961Y81183D01*
X294910Y81082D01*
X294855Y80983D01*
X294797Y80886D01*
X294735Y80791D01*
X294670Y80698D01*
X294602Y80608D01*
X294531Y80520D01*
X294456Y80434D01*
X294379Y80351D01*
X294299Y80271D01*
X294216Y80194D01*
X294130Y80119D01*
X294042Y80048D01*
X293952Y79980D01*
X293859Y79915D01*
X293764Y79853D01*
X293667Y79795D01*
X293568Y79740D01*
X293467Y79689D01*
X293364Y79641D01*
X293260Y79596D01*
X293154Y79556D01*
X293047Y79519D01*
X292939Y79486D01*
X292829Y79456D01*
X292719Y79431D01*
X292608Y79409D01*
X292496Y79392D01*
X292383Y79378D01*
X292270Y79368D01*
X292157Y79362D01*
X292044Y79360D01*
X292044Y79361D02*
X288798Y79361D01*
X292693Y79361D02*
X295289Y74168D01*
X300154Y74168D02*
X304049Y74168D01*
X304148Y74170D01*
X304248Y74176D01*
X304347Y74185D01*
X304445Y74198D01*
X304543Y74215D01*
X304641Y74236D01*
X304737Y74261D01*
X304832Y74289D01*
X304926Y74321D01*
X305019Y74356D01*
X305111Y74395D01*
X305201Y74438D01*
X305289Y74483D01*
X305376Y74533D01*
X305460Y74585D01*
X305543Y74641D01*
X305623Y74699D01*
X305701Y74761D01*
X305776Y74826D01*
X305849Y74894D01*
X305919Y74964D01*
X305987Y75037D01*
X306052Y75112D01*
X306114Y75190D01*
X306172Y75270D01*
X306228Y75353D01*
X306280Y75437D01*
X306330Y75524D01*
X306375Y75612D01*
X306418Y75702D01*
X306457Y75794D01*
X306492Y75887D01*
X306524Y75981D01*
X306552Y76076D01*
X306577Y76172D01*
X306598Y76270D01*
X306615Y76368D01*
X306628Y76466D01*
X306637Y76565D01*
X306643Y76665D01*
X306645Y76764D01*
X306645Y78063D01*
X306643Y78162D01*
X306637Y78262D01*
X306628Y78361D01*
X306615Y78459D01*
X306598Y78557D01*
X306577Y78655D01*
X306552Y78751D01*
X306524Y78846D01*
X306492Y78940D01*
X306457Y79033D01*
X306418Y79125D01*
X306375Y79215D01*
X306330Y79303D01*
X306280Y79390D01*
X306228Y79474D01*
X306172Y79557D01*
X306114Y79637D01*
X306052Y79715D01*
X305987Y79790D01*
X305919Y79863D01*
X305849Y79933D01*
X305776Y80001D01*
X305701Y80066D01*
X305623Y80128D01*
X305543Y80186D01*
X305460Y80242D01*
X305376Y80294D01*
X305289Y80344D01*
X305201Y80389D01*
X305111Y80432D01*
X305019Y80471D01*
X304926Y80506D01*
X304832Y80538D01*
X304737Y80566D01*
X304641Y80591D01*
X304543Y80612D01*
X304445Y80629D01*
X304347Y80642D01*
X304248Y80651D01*
X304148Y80657D01*
X304049Y80659D01*
X300154Y80659D01*
X300154Y85852D01*
X306645Y85852D01*
D11*
X309160Y14520D02*
X336635Y14520D01*
X309160Y14520D02*
X309160Y22945D01*
X309160Y51520D02*
X336635Y51520D01*
X309160Y51520D02*
X309160Y43095D01*
X346160Y38820D02*
X346160Y27220D01*
D10*
X335153Y58293D02*
X335153Y69977D01*
X338399Y69977D01*
X338512Y69975D01*
X338625Y69969D01*
X338738Y69959D01*
X338851Y69945D01*
X338963Y69928D01*
X339074Y69906D01*
X339184Y69881D01*
X339294Y69851D01*
X339402Y69818D01*
X339509Y69781D01*
X339615Y69741D01*
X339719Y69696D01*
X339822Y69648D01*
X339923Y69597D01*
X340022Y69542D01*
X340119Y69484D01*
X340214Y69422D01*
X340307Y69357D01*
X340397Y69289D01*
X340485Y69218D01*
X340571Y69143D01*
X340654Y69066D01*
X340734Y68986D01*
X340811Y68903D01*
X340886Y68817D01*
X340957Y68729D01*
X341025Y68639D01*
X341090Y68546D01*
X341152Y68451D01*
X341210Y68354D01*
X341265Y68255D01*
X341316Y68154D01*
X341364Y68051D01*
X341409Y67947D01*
X341449Y67841D01*
X341486Y67734D01*
X341519Y67626D01*
X341549Y67516D01*
X341574Y67406D01*
X341596Y67295D01*
X341613Y67183D01*
X341627Y67070D01*
X341637Y66957D01*
X341643Y66844D01*
X341645Y66731D01*
X341643Y66618D01*
X341637Y66505D01*
X341627Y66392D01*
X341613Y66279D01*
X341596Y66167D01*
X341574Y66056D01*
X341549Y65946D01*
X341519Y65836D01*
X341486Y65728D01*
X341449Y65621D01*
X341409Y65515D01*
X341364Y65411D01*
X341316Y65308D01*
X341265Y65207D01*
X341210Y65108D01*
X341152Y65011D01*
X341090Y64916D01*
X341025Y64823D01*
X340957Y64733D01*
X340886Y64645D01*
X340811Y64559D01*
X340734Y64476D01*
X340654Y64396D01*
X340571Y64319D01*
X340485Y64244D01*
X340397Y64173D01*
X340307Y64105D01*
X340214Y64040D01*
X340119Y63978D01*
X340022Y63920D01*
X339923Y63865D01*
X339822Y63814D01*
X339719Y63766D01*
X339615Y63721D01*
X339509Y63681D01*
X339402Y63644D01*
X339294Y63611D01*
X339184Y63581D01*
X339074Y63556D01*
X338963Y63534D01*
X338851Y63517D01*
X338738Y63503D01*
X338625Y63493D01*
X338512Y63487D01*
X338399Y63485D01*
X338399Y63486D02*
X335153Y63486D01*
X339048Y63486D02*
X341644Y58293D01*
X346509Y64784D02*
X350404Y64784D01*
X350503Y64782D01*
X350603Y64776D01*
X350702Y64767D01*
X350800Y64754D01*
X350898Y64737D01*
X350996Y64716D01*
X351092Y64691D01*
X351187Y64663D01*
X351281Y64631D01*
X351374Y64596D01*
X351466Y64557D01*
X351556Y64514D01*
X351644Y64469D01*
X351731Y64419D01*
X351815Y64367D01*
X351898Y64311D01*
X351978Y64253D01*
X352056Y64191D01*
X352131Y64126D01*
X352204Y64058D01*
X352274Y63988D01*
X352342Y63915D01*
X352407Y63840D01*
X352469Y63762D01*
X352527Y63682D01*
X352583Y63599D01*
X352635Y63515D01*
X352685Y63428D01*
X352730Y63340D01*
X352773Y63250D01*
X352812Y63158D01*
X352847Y63065D01*
X352879Y62971D01*
X352907Y62876D01*
X352932Y62780D01*
X352953Y62682D01*
X352970Y62584D01*
X352983Y62486D01*
X352992Y62387D01*
X352998Y62287D01*
X353000Y62188D01*
X353000Y61539D01*
X353001Y61539D02*
X352999Y61426D01*
X352993Y61313D01*
X352983Y61200D01*
X352969Y61087D01*
X352952Y60975D01*
X352930Y60864D01*
X352905Y60754D01*
X352875Y60644D01*
X352842Y60536D01*
X352805Y60429D01*
X352765Y60323D01*
X352720Y60219D01*
X352672Y60116D01*
X352621Y60015D01*
X352566Y59916D01*
X352508Y59819D01*
X352446Y59724D01*
X352381Y59631D01*
X352313Y59541D01*
X352242Y59453D01*
X352167Y59367D01*
X352090Y59284D01*
X352010Y59204D01*
X351927Y59127D01*
X351841Y59052D01*
X351753Y58981D01*
X351663Y58913D01*
X351570Y58848D01*
X351475Y58786D01*
X351378Y58728D01*
X351279Y58673D01*
X351178Y58622D01*
X351075Y58574D01*
X350971Y58529D01*
X350865Y58489D01*
X350758Y58452D01*
X350650Y58419D01*
X350540Y58389D01*
X350430Y58364D01*
X350319Y58342D01*
X350207Y58325D01*
X350094Y58311D01*
X349981Y58301D01*
X349868Y58295D01*
X349755Y58293D01*
X349642Y58295D01*
X349529Y58301D01*
X349416Y58311D01*
X349303Y58325D01*
X349191Y58342D01*
X349080Y58364D01*
X348970Y58389D01*
X348860Y58419D01*
X348752Y58452D01*
X348645Y58489D01*
X348539Y58529D01*
X348435Y58574D01*
X348332Y58622D01*
X348231Y58673D01*
X348132Y58728D01*
X348035Y58786D01*
X347940Y58848D01*
X347847Y58913D01*
X347757Y58981D01*
X347669Y59052D01*
X347583Y59127D01*
X347500Y59204D01*
X347420Y59284D01*
X347343Y59367D01*
X347268Y59453D01*
X347197Y59541D01*
X347129Y59631D01*
X347064Y59724D01*
X347002Y59819D01*
X346944Y59916D01*
X346889Y60015D01*
X346838Y60116D01*
X346790Y60219D01*
X346745Y60323D01*
X346705Y60429D01*
X346668Y60536D01*
X346635Y60644D01*
X346605Y60754D01*
X346580Y60864D01*
X346558Y60975D01*
X346541Y61087D01*
X346527Y61200D01*
X346517Y61313D01*
X346511Y61426D01*
X346509Y61539D01*
X346509Y64784D01*
X346511Y64927D01*
X346517Y65070D01*
X346527Y65213D01*
X346541Y65355D01*
X346558Y65497D01*
X346580Y65639D01*
X346605Y65780D01*
X346635Y65920D01*
X346668Y66059D01*
X346705Y66197D01*
X346746Y66334D01*
X346790Y66470D01*
X346839Y66605D01*
X346891Y66738D01*
X346946Y66870D01*
X347006Y67000D01*
X347069Y67129D01*
X347135Y67256D01*
X347205Y67380D01*
X347278Y67503D01*
X347355Y67624D01*
X347435Y67743D01*
X347518Y67859D01*
X347604Y67974D01*
X347693Y68085D01*
X347786Y68195D01*
X347881Y68301D01*
X347980Y68405D01*
X348081Y68506D01*
X348185Y68605D01*
X348291Y68700D01*
X348401Y68793D01*
X348512Y68882D01*
X348627Y68968D01*
X348743Y69051D01*
X348862Y69131D01*
X348983Y69208D01*
X349105Y69281D01*
X349230Y69351D01*
X349357Y69417D01*
X349486Y69480D01*
X349616Y69540D01*
X349748Y69595D01*
X349881Y69647D01*
X350016Y69696D01*
X350152Y69740D01*
X350289Y69781D01*
X350427Y69818D01*
X350566Y69851D01*
X350706Y69881D01*
X350847Y69906D01*
X350989Y69928D01*
X351131Y69945D01*
X351273Y69959D01*
X351416Y69969D01*
X351559Y69975D01*
X351702Y69977D01*
D12*
X99060Y42240D02*
X99060Y142240D01*
X139060Y142240D01*
X139060Y42240D01*
X99060Y42240D01*
D10*
X102814Y152908D02*
X102814Y164592D01*
X106059Y164592D02*
X99568Y164592D01*
X110236Y161996D02*
X113482Y164592D01*
X113482Y152908D01*
X116727Y152908D02*
X110236Y152908D01*
X281884Y112522D02*
X281884Y100838D01*
X278638Y112522D02*
X285129Y112522D01*
X292876Y112522D02*
X292983Y112520D01*
X293089Y112514D01*
X293195Y112504D01*
X293301Y112491D01*
X293407Y112473D01*
X293511Y112452D01*
X293615Y112427D01*
X293718Y112398D01*
X293819Y112366D01*
X293919Y112329D01*
X294018Y112289D01*
X294116Y112246D01*
X294212Y112199D01*
X294306Y112148D01*
X294398Y112094D01*
X294488Y112037D01*
X294576Y111977D01*
X294661Y111913D01*
X294744Y111846D01*
X294825Y111776D01*
X294903Y111704D01*
X294979Y111628D01*
X295051Y111550D01*
X295121Y111469D01*
X295188Y111386D01*
X295252Y111301D01*
X295312Y111213D01*
X295369Y111123D01*
X295423Y111031D01*
X295474Y110937D01*
X295521Y110841D01*
X295564Y110743D01*
X295604Y110644D01*
X295641Y110544D01*
X295673Y110443D01*
X295702Y110340D01*
X295727Y110236D01*
X295748Y110132D01*
X295766Y110026D01*
X295779Y109920D01*
X295789Y109814D01*
X295795Y109708D01*
X295797Y109601D01*
X292876Y112522D02*
X292755Y112520D01*
X292634Y112514D01*
X292514Y112504D01*
X292393Y112491D01*
X292274Y112473D01*
X292154Y112452D01*
X292036Y112427D01*
X291919Y112398D01*
X291802Y112365D01*
X291687Y112329D01*
X291573Y112288D01*
X291460Y112245D01*
X291348Y112197D01*
X291239Y112146D01*
X291131Y112091D01*
X291024Y112033D01*
X290920Y111972D01*
X290818Y111907D01*
X290718Y111839D01*
X290620Y111768D01*
X290524Y111694D01*
X290431Y111617D01*
X290341Y111536D01*
X290253Y111453D01*
X290168Y111367D01*
X290085Y111278D01*
X290006Y111187D01*
X289929Y111093D01*
X289856Y110997D01*
X289786Y110899D01*
X289719Y110798D01*
X289655Y110695D01*
X289595Y110590D01*
X289538Y110483D01*
X289484Y110375D01*
X289434Y110265D01*
X289388Y110153D01*
X289345Y110040D01*
X289306Y109925D01*
X294824Y107329D02*
X294903Y107406D01*
X294979Y107487D01*
X295052Y107570D01*
X295122Y107655D01*
X295189Y107743D01*
X295253Y107833D01*
X295313Y107925D01*
X295370Y108020D01*
X295424Y108116D01*
X295475Y108214D01*
X295522Y108314D01*
X295566Y108416D01*
X295606Y108519D01*
X295642Y108623D01*
X295674Y108729D01*
X295703Y108835D01*
X295728Y108943D01*
X295750Y109051D01*
X295767Y109161D01*
X295781Y109270D01*
X295790Y109380D01*
X295796Y109491D01*
X295798Y109601D01*
X294823Y107329D02*
X289306Y100838D01*
X295797Y100838D01*
D11*
X-5340Y96840D02*
X-5340Y70340D01*
X-5340Y96840D02*
X-26840Y96840D01*
X-34340Y89340D01*
X-72340Y89340D01*
X-72340Y97840D01*
X-84090Y97840D01*
X-84090Y135840D01*
X-72340Y135840D01*
X-72340Y144340D01*
X-34340Y144340D01*
X-26840Y136840D01*
X-5340Y136840D01*
X-5340Y163340D01*
X9160Y155340D02*
X9160Y78340D01*
X9160Y163340D02*
X-5340Y163340D01*
X-5340Y70340D02*
X9160Y70340D01*
D10*
X22098Y170688D02*
X29887Y182372D01*
X22098Y182372D02*
X29887Y170688D01*
X34177Y179776D02*
X37423Y182372D01*
X37423Y170688D01*
X40668Y170688D02*
X34177Y170688D01*
D11*
X396500Y164780D02*
X396500Y191280D01*
X396500Y164780D02*
X418000Y164780D01*
X425500Y172280D01*
X463500Y172280D01*
X463500Y163780D01*
X475250Y163780D01*
X475250Y125780D01*
X463500Y125780D01*
X463500Y117280D01*
X425500Y117280D01*
X418000Y124780D01*
X396500Y124780D01*
X396500Y98280D01*
X382000Y106280D02*
X382000Y183280D01*
X382000Y98280D02*
X396500Y98280D01*
X396500Y191280D02*
X382000Y191280D01*
D10*
X360652Y201168D02*
X368441Y212852D01*
X360652Y212852D02*
X368441Y201168D01*
X379222Y209931D02*
X379220Y210038D01*
X379214Y210144D01*
X379204Y210250D01*
X379191Y210356D01*
X379173Y210462D01*
X379152Y210566D01*
X379127Y210670D01*
X379098Y210773D01*
X379066Y210874D01*
X379029Y210974D01*
X378989Y211073D01*
X378946Y211171D01*
X378899Y211267D01*
X378848Y211361D01*
X378794Y211453D01*
X378737Y211543D01*
X378677Y211631D01*
X378613Y211716D01*
X378546Y211799D01*
X378476Y211880D01*
X378404Y211958D01*
X378328Y212034D01*
X378250Y212106D01*
X378169Y212176D01*
X378086Y212243D01*
X378001Y212307D01*
X377913Y212367D01*
X377823Y212424D01*
X377731Y212478D01*
X377637Y212529D01*
X377541Y212576D01*
X377443Y212619D01*
X377344Y212659D01*
X377244Y212696D01*
X377143Y212728D01*
X377040Y212757D01*
X376936Y212782D01*
X376832Y212803D01*
X376726Y212821D01*
X376620Y212834D01*
X376514Y212844D01*
X376408Y212850D01*
X376301Y212852D01*
X376180Y212850D01*
X376059Y212844D01*
X375939Y212834D01*
X375818Y212821D01*
X375699Y212803D01*
X375579Y212782D01*
X375461Y212757D01*
X375344Y212728D01*
X375227Y212695D01*
X375112Y212659D01*
X374998Y212618D01*
X374885Y212575D01*
X374773Y212527D01*
X374664Y212476D01*
X374556Y212421D01*
X374449Y212363D01*
X374345Y212302D01*
X374243Y212237D01*
X374143Y212169D01*
X374045Y212098D01*
X373949Y212024D01*
X373856Y211947D01*
X373766Y211866D01*
X373678Y211783D01*
X373593Y211697D01*
X373510Y211608D01*
X373431Y211517D01*
X373354Y211423D01*
X373281Y211327D01*
X373211Y211229D01*
X373144Y211128D01*
X373080Y211025D01*
X373020Y210920D01*
X372963Y210813D01*
X372909Y210705D01*
X372859Y210595D01*
X372813Y210483D01*
X372770Y210370D01*
X372731Y210255D01*
X378249Y207659D02*
X378328Y207736D01*
X378404Y207817D01*
X378477Y207900D01*
X378547Y207985D01*
X378614Y208073D01*
X378678Y208163D01*
X378738Y208255D01*
X378795Y208350D01*
X378849Y208446D01*
X378900Y208544D01*
X378947Y208644D01*
X378991Y208746D01*
X379031Y208849D01*
X379067Y208953D01*
X379099Y209059D01*
X379128Y209165D01*
X379153Y209273D01*
X379175Y209381D01*
X379192Y209491D01*
X379206Y209600D01*
X379215Y209710D01*
X379221Y209821D01*
X379223Y209931D01*
X378248Y207659D02*
X372731Y201168D01*
X379222Y201168D01*
D13*
X35560Y204470D02*
X35560Y191770D01*
X35560Y204470D02*
X41910Y210820D01*
X54610Y210820D01*
X60960Y204470D01*
X54610Y185420D02*
X41910Y185420D01*
X35560Y191770D01*
X54610Y185420D02*
X60960Y191770D01*
X60960Y204470D01*
X41910Y210820D02*
X35560Y217170D01*
X35560Y229870D01*
X41910Y236220D01*
X54610Y236220D01*
X60960Y229870D01*
X60960Y217170D01*
X54610Y210820D01*
D12*
X72263Y224663D02*
X72263Y233553D01*
X72263Y224663D02*
X72261Y224563D01*
X72255Y224464D01*
X72245Y224364D01*
X72232Y224266D01*
X72214Y224167D01*
X72193Y224070D01*
X72168Y223974D01*
X72139Y223878D01*
X72106Y223784D01*
X72070Y223691D01*
X72030Y223600D01*
X71986Y223510D01*
X71939Y223422D01*
X71889Y223336D01*
X71835Y223252D01*
X71778Y223170D01*
X71718Y223091D01*
X71654Y223013D01*
X71588Y222939D01*
X71519Y222867D01*
X71447Y222798D01*
X71373Y222732D01*
X71295Y222668D01*
X71216Y222608D01*
X71134Y222551D01*
X71050Y222497D01*
X70964Y222447D01*
X70876Y222400D01*
X70786Y222356D01*
X70695Y222316D01*
X70602Y222280D01*
X70508Y222247D01*
X70412Y222218D01*
X70316Y222193D01*
X70219Y222172D01*
X70120Y222154D01*
X70022Y222141D01*
X69922Y222131D01*
X69823Y222125D01*
X69723Y222123D01*
X68453Y222123D01*
X78243Y222123D02*
X78243Y233553D01*
X81418Y233553D01*
X81529Y233551D01*
X81639Y233545D01*
X81750Y233536D01*
X81860Y233522D01*
X81969Y233505D01*
X82078Y233484D01*
X82186Y233459D01*
X82293Y233430D01*
X82399Y233398D01*
X82504Y233362D01*
X82607Y233322D01*
X82709Y233279D01*
X82810Y233232D01*
X82909Y233181D01*
X83006Y233128D01*
X83100Y233071D01*
X83193Y233010D01*
X83284Y232947D01*
X83373Y232880D01*
X83459Y232810D01*
X83542Y232737D01*
X83624Y232662D01*
X83702Y232584D01*
X83777Y232502D01*
X83850Y232419D01*
X83920Y232333D01*
X83987Y232244D01*
X84050Y232153D01*
X84111Y232060D01*
X84168Y231965D01*
X84221Y231869D01*
X84272Y231770D01*
X84319Y231669D01*
X84362Y231567D01*
X84402Y231464D01*
X84438Y231359D01*
X84470Y231253D01*
X84499Y231146D01*
X84524Y231038D01*
X84545Y230929D01*
X84562Y230820D01*
X84576Y230710D01*
X84585Y230599D01*
X84591Y230489D01*
X84593Y230378D01*
X84591Y230267D01*
X84585Y230157D01*
X84576Y230046D01*
X84562Y229936D01*
X84545Y229827D01*
X84524Y229718D01*
X84499Y229610D01*
X84470Y229503D01*
X84438Y229397D01*
X84402Y229292D01*
X84362Y229189D01*
X84319Y229087D01*
X84272Y228986D01*
X84221Y228887D01*
X84168Y228790D01*
X84111Y228696D01*
X84050Y228603D01*
X83987Y228512D01*
X83920Y228423D01*
X83850Y228337D01*
X83777Y228254D01*
X83702Y228172D01*
X83624Y228094D01*
X83542Y228019D01*
X83459Y227946D01*
X83373Y227876D01*
X83284Y227809D01*
X83193Y227746D01*
X83100Y227685D01*
X83005Y227628D01*
X82909Y227575D01*
X82810Y227524D01*
X82709Y227477D01*
X82607Y227434D01*
X82504Y227394D01*
X82399Y227358D01*
X82293Y227326D01*
X82186Y227297D01*
X82078Y227272D01*
X81969Y227251D01*
X81860Y227234D01*
X81750Y227220D01*
X81639Y227211D01*
X81529Y227205D01*
X81418Y227203D01*
X78243Y227203D01*
X89102Y231013D02*
X92277Y233553D01*
X92277Y222123D01*
X89102Y222123D02*
X95452Y222123D01*
D10*
X163124Y213868D02*
X165721Y213868D01*
X163124Y213868D02*
X163025Y213870D01*
X162925Y213876D01*
X162826Y213885D01*
X162728Y213898D01*
X162630Y213915D01*
X162532Y213936D01*
X162436Y213961D01*
X162341Y213989D01*
X162247Y214021D01*
X162154Y214056D01*
X162062Y214095D01*
X161972Y214138D01*
X161884Y214183D01*
X161797Y214233D01*
X161713Y214285D01*
X161630Y214341D01*
X161550Y214399D01*
X161472Y214461D01*
X161397Y214526D01*
X161324Y214594D01*
X161254Y214664D01*
X161186Y214737D01*
X161121Y214812D01*
X161059Y214890D01*
X161001Y214970D01*
X160945Y215053D01*
X160893Y215137D01*
X160843Y215224D01*
X160798Y215312D01*
X160755Y215402D01*
X160716Y215494D01*
X160681Y215587D01*
X160649Y215681D01*
X160621Y215776D01*
X160596Y215872D01*
X160575Y215970D01*
X160558Y216068D01*
X160545Y216166D01*
X160536Y216265D01*
X160530Y216365D01*
X160528Y216464D01*
X160528Y222956D01*
X160530Y223055D01*
X160536Y223155D01*
X160545Y223254D01*
X160558Y223352D01*
X160575Y223450D01*
X160596Y223548D01*
X160621Y223644D01*
X160649Y223739D01*
X160681Y223833D01*
X160716Y223926D01*
X160755Y224018D01*
X160798Y224108D01*
X160843Y224196D01*
X160893Y224283D01*
X160945Y224367D01*
X161001Y224450D01*
X161059Y224530D01*
X161121Y224608D01*
X161186Y224683D01*
X161254Y224756D01*
X161324Y224826D01*
X161397Y224894D01*
X161472Y224959D01*
X161550Y225021D01*
X161630Y225079D01*
X161713Y225135D01*
X161797Y225187D01*
X161884Y225237D01*
X161972Y225282D01*
X162062Y225325D01*
X162154Y225364D01*
X162246Y225399D01*
X162341Y225431D01*
X162436Y225459D01*
X162532Y225484D01*
X162630Y225505D01*
X162728Y225522D01*
X162826Y225535D01*
X162925Y225544D01*
X163025Y225550D01*
X163124Y225552D01*
X165721Y225552D01*
X170086Y222956D02*
X173332Y225552D01*
X173332Y213868D01*
X176577Y213868D02*
X170086Y213868D01*
M02*
