G04 EAGLE Gerber RS-274X export*
G75*
%MOMM*%
%FSLAX34Y34*%
%LPD*%
%INBottom Copper*%
%IPPOS*%
%AMOC8*
5,1,8,0,0,1.08239X$1,22.5*%
G01*
%ADD10R,4.191000X2.667000*%
%ADD11C,1.500000*%

G36*
X373274Y6005D02*
X373274Y6005D01*
X373299Y6002D01*
X373394Y6024D01*
X373491Y6040D01*
X373512Y6052D01*
X373536Y6058D01*
X373620Y6109D01*
X373706Y6155D01*
X373723Y6173D01*
X373744Y6186D01*
X373806Y6262D01*
X373873Y6333D01*
X373883Y6356D01*
X373899Y6375D01*
X373933Y6466D01*
X373974Y6556D01*
X373976Y6580D01*
X373985Y6603D01*
X373999Y6750D01*
X373999Y31025D01*
X373987Y31098D01*
X373985Y31171D01*
X373964Y31242D01*
X373960Y31266D01*
X373952Y31281D01*
X373942Y31312D01*
X373729Y31826D01*
X373729Y37329D01*
X373725Y37353D01*
X373728Y37378D01*
X373706Y37473D01*
X373690Y37570D01*
X373678Y37591D01*
X373672Y37615D01*
X373621Y37699D01*
X373575Y37785D01*
X373557Y37802D01*
X373544Y37823D01*
X373468Y37885D01*
X373397Y37952D01*
X373374Y37962D01*
X373355Y37978D01*
X373264Y38012D01*
X373174Y38053D01*
X373150Y38055D01*
X373127Y38064D01*
X372980Y38078D01*
X360075Y38078D01*
X360075Y53204D01*
X360071Y53228D01*
X360074Y53252D01*
X360051Y53348D01*
X360035Y53445D01*
X360024Y53466D01*
X360018Y53490D01*
X359967Y53573D01*
X359920Y53660D01*
X359903Y53677D01*
X359890Y53697D01*
X359814Y53760D01*
X359742Y53827D01*
X359720Y53837D01*
X359701Y53852D01*
X359610Y53887D01*
X359520Y53928D01*
X359496Y53930D01*
X359473Y53939D01*
X359326Y53953D01*
X358575Y53953D01*
X358575Y53955D01*
X359326Y53955D01*
X359350Y53959D01*
X359374Y53956D01*
X359470Y53979D01*
X359567Y53995D01*
X359588Y54006D01*
X359612Y54012D01*
X359695Y54063D01*
X359782Y54110D01*
X359799Y54127D01*
X359819Y54140D01*
X359882Y54216D01*
X359949Y54288D01*
X359959Y54310D01*
X359974Y54329D01*
X360009Y54420D01*
X360050Y54510D01*
X360052Y54534D01*
X360061Y54557D01*
X360075Y54704D01*
X360075Y69830D01*
X372980Y69830D01*
X373004Y69834D01*
X373029Y69831D01*
X373124Y69853D01*
X373221Y69869D01*
X373242Y69881D01*
X373266Y69887D01*
X373350Y69938D01*
X373436Y69984D01*
X373453Y70002D01*
X373474Y70015D01*
X373536Y70091D01*
X373603Y70162D01*
X373613Y70185D01*
X373629Y70204D01*
X373663Y70295D01*
X373704Y70385D01*
X373706Y70409D01*
X373715Y70432D01*
X373729Y70579D01*
X373729Y107221D01*
X373725Y107245D01*
X373728Y107270D01*
X373706Y107365D01*
X373690Y107462D01*
X373678Y107483D01*
X373672Y107507D01*
X373621Y107591D01*
X373575Y107677D01*
X373557Y107694D01*
X373544Y107715D01*
X373468Y107777D01*
X373397Y107844D01*
X373374Y107854D01*
X373355Y107870D01*
X373264Y107904D01*
X373174Y107945D01*
X373150Y107947D01*
X373127Y107956D01*
X372980Y107970D01*
X360075Y107970D01*
X360075Y123096D01*
X360071Y123120D01*
X360074Y123144D01*
X360051Y123240D01*
X360035Y123337D01*
X360024Y123358D01*
X360018Y123382D01*
X359967Y123465D01*
X359920Y123552D01*
X359903Y123569D01*
X359890Y123589D01*
X359814Y123652D01*
X359742Y123719D01*
X359720Y123729D01*
X359701Y123744D01*
X359610Y123779D01*
X359520Y123820D01*
X359496Y123822D01*
X359473Y123831D01*
X359326Y123845D01*
X358575Y123845D01*
X358575Y123847D01*
X359326Y123847D01*
X359350Y123851D01*
X359374Y123848D01*
X359470Y123871D01*
X359567Y123887D01*
X359588Y123898D01*
X359612Y123904D01*
X359695Y123955D01*
X359782Y124002D01*
X359799Y124019D01*
X359819Y124032D01*
X359882Y124108D01*
X359949Y124180D01*
X359959Y124202D01*
X359974Y124221D01*
X360009Y124312D01*
X360050Y124402D01*
X360052Y124426D01*
X360061Y124449D01*
X360075Y124596D01*
X360075Y139722D01*
X372980Y139722D01*
X373004Y139726D01*
X373029Y139723D01*
X373124Y139745D01*
X373221Y139761D01*
X373242Y139773D01*
X373266Y139779D01*
X373350Y139830D01*
X373436Y139876D01*
X373453Y139894D01*
X373474Y139907D01*
X373536Y139983D01*
X373603Y140054D01*
X373613Y140077D01*
X373629Y140096D01*
X373663Y140187D01*
X373704Y140277D01*
X373706Y140301D01*
X373715Y140324D01*
X373729Y140471D01*
X373729Y145974D01*
X373942Y146488D01*
X373959Y146559D01*
X373985Y146628D01*
X373992Y146701D01*
X373998Y146725D01*
X373996Y146742D01*
X373999Y146775D01*
X373999Y173250D01*
X373995Y173274D01*
X373998Y173299D01*
X373976Y173394D01*
X373960Y173491D01*
X373948Y173512D01*
X373942Y173536D01*
X373891Y173620D01*
X373845Y173706D01*
X373827Y173723D01*
X373814Y173744D01*
X373738Y173806D01*
X373667Y173873D01*
X373644Y173883D01*
X373625Y173899D01*
X373534Y173933D01*
X373444Y173974D01*
X373420Y173976D01*
X373397Y173985D01*
X373250Y173999D01*
X6750Y173999D01*
X6726Y173995D01*
X6701Y173998D01*
X6606Y173976D01*
X6509Y173960D01*
X6488Y173948D01*
X6464Y173942D01*
X6380Y173891D01*
X6294Y173845D01*
X6277Y173827D01*
X6256Y173814D01*
X6194Y173738D01*
X6127Y173667D01*
X6117Y173644D01*
X6101Y173625D01*
X6067Y173534D01*
X6026Y173444D01*
X6024Y173420D01*
X6015Y173397D01*
X6001Y173250D01*
X6001Y141741D01*
X6005Y141717D01*
X6002Y141692D01*
X6024Y141597D01*
X6040Y141500D01*
X6052Y141479D01*
X6058Y141455D01*
X6109Y141371D01*
X6155Y141285D01*
X6173Y141268D01*
X6186Y141247D01*
X6262Y141185D01*
X6333Y141118D01*
X6356Y141108D01*
X6375Y141092D01*
X6466Y141058D01*
X6556Y141017D01*
X6580Y141015D01*
X6603Y141006D01*
X6750Y140992D01*
X19655Y140992D01*
X19655Y125866D01*
X19658Y125847D01*
X19656Y125832D01*
X19657Y125828D01*
X19656Y125818D01*
X19679Y125722D01*
X19695Y125625D01*
X19706Y125604D01*
X19712Y125580D01*
X19763Y125497D01*
X19810Y125410D01*
X19827Y125393D01*
X19840Y125373D01*
X19916Y125310D01*
X19988Y125243D01*
X20010Y125233D01*
X20029Y125218D01*
X20120Y125183D01*
X20210Y125142D01*
X20234Y125140D01*
X20257Y125131D01*
X20404Y125117D01*
X21155Y125117D01*
X21155Y125115D01*
X20404Y125115D01*
X20380Y125111D01*
X20356Y125114D01*
X20260Y125091D01*
X20163Y125075D01*
X20142Y125064D01*
X20118Y125058D01*
X20034Y125007D01*
X19948Y124960D01*
X19931Y124943D01*
X19911Y124930D01*
X19848Y124854D01*
X19781Y124782D01*
X19771Y124760D01*
X19756Y124741D01*
X19721Y124650D01*
X19680Y124560D01*
X19678Y124536D01*
X19669Y124513D01*
X19655Y124366D01*
X19655Y109240D01*
X6750Y109240D01*
X6726Y109236D01*
X6701Y109239D01*
X6606Y109217D01*
X6509Y109201D01*
X6488Y109189D01*
X6464Y109183D01*
X6380Y109132D01*
X6294Y109086D01*
X6277Y109068D01*
X6256Y109055D01*
X6194Y108979D01*
X6127Y108908D01*
X6117Y108885D01*
X6101Y108866D01*
X6067Y108775D01*
X6026Y108685D01*
X6024Y108661D01*
X6015Y108638D01*
X6001Y108491D01*
X6001Y71849D01*
X6005Y71825D01*
X6002Y71800D01*
X6024Y71705D01*
X6040Y71608D01*
X6052Y71587D01*
X6058Y71563D01*
X6109Y71479D01*
X6155Y71393D01*
X6173Y71376D01*
X6186Y71355D01*
X6262Y71293D01*
X6333Y71226D01*
X6356Y71216D01*
X6375Y71200D01*
X6466Y71166D01*
X6556Y71125D01*
X6580Y71123D01*
X6603Y71114D01*
X6750Y71100D01*
X19655Y71100D01*
X19655Y55974D01*
X19659Y55950D01*
X19656Y55926D01*
X19679Y55830D01*
X19695Y55733D01*
X19706Y55712D01*
X19712Y55688D01*
X19763Y55605D01*
X19810Y55518D01*
X19827Y55501D01*
X19840Y55481D01*
X19916Y55418D01*
X19988Y55351D01*
X20010Y55341D01*
X20029Y55326D01*
X20120Y55291D01*
X20210Y55250D01*
X20234Y55248D01*
X20257Y55239D01*
X20404Y55225D01*
X21155Y55225D01*
X21155Y55223D01*
X20404Y55223D01*
X20380Y55219D01*
X20356Y55222D01*
X20260Y55199D01*
X20163Y55183D01*
X20142Y55172D01*
X20118Y55166D01*
X20034Y55115D01*
X19948Y55068D01*
X19931Y55051D01*
X19911Y55038D01*
X19848Y54962D01*
X19781Y54890D01*
X19771Y54868D01*
X19756Y54849D01*
X19721Y54758D01*
X19680Y54668D01*
X19678Y54644D01*
X19669Y54621D01*
X19655Y54474D01*
X19655Y39348D01*
X6750Y39348D01*
X6726Y39344D01*
X6701Y39347D01*
X6606Y39325D01*
X6509Y39309D01*
X6488Y39297D01*
X6464Y39291D01*
X6380Y39240D01*
X6294Y39194D01*
X6277Y39176D01*
X6256Y39163D01*
X6194Y39087D01*
X6127Y39016D01*
X6117Y38993D01*
X6101Y38974D01*
X6067Y38883D01*
X6026Y38793D01*
X6024Y38769D01*
X6015Y38746D01*
X6001Y38599D01*
X6001Y6750D01*
X6005Y6726D01*
X6002Y6701D01*
X6024Y6606D01*
X6040Y6509D01*
X6052Y6488D01*
X6058Y6464D01*
X6109Y6380D01*
X6155Y6294D01*
X6173Y6277D01*
X6186Y6256D01*
X6262Y6194D01*
X6333Y6127D01*
X6356Y6117D01*
X6375Y6101D01*
X6466Y6067D01*
X6556Y6026D01*
X6580Y6024D01*
X6603Y6015D01*
X6750Y6001D01*
X373250Y6001D01*
X373274Y6005D01*
G37*
%LPC*%
G36*
X182823Y128999D02*
X182823Y128999D01*
X175104Y132196D01*
X169196Y138104D01*
X165999Y145823D01*
X165999Y154177D01*
X169196Y161896D01*
X175104Y167804D01*
X182823Y171001D01*
X191177Y171001D01*
X198896Y167804D01*
X204804Y161896D01*
X208001Y154177D01*
X208001Y145823D01*
X204804Y138104D01*
X198896Y132196D01*
X191177Y128999D01*
X182823Y128999D01*
G37*
%LPD*%
%LPC*%
G36*
X302823Y8999D02*
X302823Y8999D01*
X295104Y12196D01*
X289196Y18104D01*
X285999Y25823D01*
X285999Y34177D01*
X289196Y41896D01*
X295104Y47804D01*
X302823Y51001D01*
X311177Y51001D01*
X318896Y47804D01*
X324804Y41896D01*
X328001Y34177D01*
X328001Y25823D01*
X324804Y18104D01*
X318896Y12196D01*
X311177Y8999D01*
X302823Y8999D01*
G37*
%LPD*%
%LPC*%
G36*
X62823Y8999D02*
X62823Y8999D01*
X55104Y12196D01*
X49196Y18104D01*
X45999Y25823D01*
X45999Y34177D01*
X49196Y41896D01*
X55104Y47804D01*
X62823Y51001D01*
X71177Y51001D01*
X78896Y47804D01*
X84804Y41896D01*
X88001Y34177D01*
X88001Y25823D01*
X84804Y18104D01*
X78896Y12196D01*
X71177Y8999D01*
X62823Y8999D01*
G37*
%LPD*%
%LPC*%
G36*
X22653Y126615D02*
X22653Y126615D01*
X22653Y140992D01*
X42443Y140992D01*
X43090Y140819D01*
X43669Y140484D01*
X44142Y140011D01*
X44477Y139432D01*
X44650Y138785D01*
X44650Y126615D01*
X22653Y126615D01*
G37*
%LPD*%
%LPC*%
G36*
X22653Y56723D02*
X22653Y56723D01*
X22653Y71100D01*
X42443Y71100D01*
X43090Y70927D01*
X43669Y70592D01*
X44142Y70119D01*
X44477Y69540D01*
X44650Y68893D01*
X44650Y56723D01*
X22653Y56723D01*
G37*
%LPD*%
%LPC*%
G36*
X335080Y125345D02*
X335080Y125345D01*
X335080Y137515D01*
X335123Y137674D01*
X335123Y137675D01*
X335253Y138162D01*
X335588Y138741D01*
X336061Y139214D01*
X336640Y139549D01*
X337287Y139722D01*
X357077Y139722D01*
X357077Y125345D01*
X335080Y125345D01*
G37*
%LPD*%
%LPC*%
G36*
X335080Y55453D02*
X335080Y55453D01*
X335080Y67623D01*
X335253Y68270D01*
X335588Y68849D01*
X336061Y69322D01*
X336640Y69657D01*
X337287Y69830D01*
X357077Y69830D01*
X357077Y55453D01*
X335080Y55453D01*
G37*
%LPD*%
%LPC*%
G36*
X337287Y107970D02*
X337287Y107970D01*
X336640Y108143D01*
X336061Y108478D01*
X335588Y108951D01*
X335253Y109530D01*
X335080Y110177D01*
X335080Y122347D01*
X357077Y122347D01*
X357077Y107970D01*
X337287Y107970D01*
G37*
%LPD*%
%LPC*%
G36*
X337287Y38078D02*
X337287Y38078D01*
X336640Y38251D01*
X336061Y38586D01*
X335588Y39059D01*
X335253Y39638D01*
X335080Y40285D01*
X335080Y52455D01*
X357077Y52455D01*
X357077Y38078D01*
X337287Y38078D01*
G37*
%LPD*%
%LPC*%
G36*
X22653Y39348D02*
X22653Y39348D01*
X22653Y53725D01*
X44650Y53725D01*
X44650Y41555D01*
X44611Y41410D01*
X44477Y40908D01*
X44142Y40329D01*
X43669Y39856D01*
X43090Y39521D01*
X42443Y39348D01*
X22653Y39348D01*
G37*
%LPD*%
%LPC*%
G36*
X22653Y109240D02*
X22653Y109240D01*
X22653Y123617D01*
X44650Y123617D01*
X44650Y111447D01*
X44477Y110800D01*
X44142Y110221D01*
X43669Y109748D01*
X43090Y109413D01*
X42443Y109240D01*
X22653Y109240D01*
G37*
%LPD*%
D10*
X21154Y55224D03*
X21154Y125116D03*
X358576Y123846D03*
X358576Y53954D03*
D11*
X187300Y30000D03*
M02*
