G04 EAGLE Gerber RS-274X export*
G75*
%MOMM*%
%FSLAX34Y34*%
%LPD*%
%INTop Copper*%
%IPPOS*%
%AMOC8*
5,1,8,0,0,1.08239X$1,22.5*%
G01*
%ADD10R,4.191000X1.778000*%
%ADD11R,4.191000X2.667000*%
%ADD12R,2.000000X2.000000*%
%ADD13R,1.500000X1.300000*%
%ADD14C,1.500000*%
%ADD15C,1.000000*%

G36*
X374194Y5085D02*
X374194Y5085D01*
X374219Y5082D01*
X374314Y5104D01*
X374411Y5120D01*
X374432Y5132D01*
X374456Y5138D01*
X374540Y5189D01*
X374626Y5235D01*
X374643Y5253D01*
X374664Y5266D01*
X374726Y5342D01*
X374793Y5413D01*
X374803Y5436D01*
X374819Y5455D01*
X374853Y5546D01*
X374894Y5636D01*
X374896Y5660D01*
X374905Y5683D01*
X374919Y5830D01*
X374919Y30335D01*
X374903Y30431D01*
X374894Y30528D01*
X374884Y30551D01*
X374880Y30576D01*
X374834Y30662D01*
X374793Y30751D01*
X374772Y30776D01*
X374765Y30791D01*
X374746Y30808D01*
X374700Y30865D01*
X374649Y30916D01*
X374649Y37329D01*
X374647Y37342D01*
X374648Y37347D01*
X374646Y37356D01*
X374648Y37378D01*
X374626Y37473D01*
X374610Y37570D01*
X374598Y37591D01*
X374592Y37615D01*
X374541Y37699D01*
X374495Y37785D01*
X374477Y37802D01*
X374464Y37823D01*
X374388Y37885D01*
X374317Y37952D01*
X374294Y37962D01*
X374275Y37978D01*
X374184Y38012D01*
X374094Y38053D01*
X374070Y38055D01*
X374047Y38064D01*
X373900Y38078D01*
X360075Y38078D01*
X360075Y53204D01*
X360071Y53228D01*
X360074Y53252D01*
X360051Y53348D01*
X360035Y53445D01*
X360024Y53466D01*
X360018Y53490D01*
X359967Y53573D01*
X359920Y53660D01*
X359903Y53677D01*
X359890Y53697D01*
X359814Y53760D01*
X359742Y53827D01*
X359720Y53837D01*
X359701Y53852D01*
X359610Y53887D01*
X359520Y53928D01*
X359496Y53930D01*
X359473Y53939D01*
X359326Y53953D01*
X358575Y53953D01*
X358575Y53955D01*
X359326Y53955D01*
X359350Y53959D01*
X359374Y53956D01*
X359470Y53979D01*
X359567Y53995D01*
X359588Y54006D01*
X359612Y54012D01*
X359695Y54063D01*
X359782Y54110D01*
X359799Y54127D01*
X359819Y54140D01*
X359882Y54216D01*
X359949Y54288D01*
X359959Y54310D01*
X359974Y54329D01*
X360009Y54420D01*
X360050Y54510D01*
X360052Y54534D01*
X360061Y54557D01*
X360075Y54704D01*
X360075Y69830D01*
X373900Y69830D01*
X373924Y69834D01*
X373949Y69831D01*
X374044Y69853D01*
X374141Y69869D01*
X374162Y69881D01*
X374186Y69887D01*
X374270Y69938D01*
X374356Y69984D01*
X374373Y70002D01*
X374394Y70015D01*
X374456Y70091D01*
X374523Y70162D01*
X374533Y70185D01*
X374549Y70204D01*
X374583Y70295D01*
X374624Y70385D01*
X374626Y70409D01*
X374635Y70432D01*
X374649Y70579D01*
X374649Y74180D01*
X374645Y74204D01*
X374648Y74229D01*
X374626Y74324D01*
X374610Y74421D01*
X374598Y74442D01*
X374592Y74466D01*
X374541Y74550D01*
X374495Y74636D01*
X374477Y74653D01*
X374464Y74674D01*
X374388Y74736D01*
X374317Y74803D01*
X374294Y74813D01*
X374275Y74829D01*
X374184Y74863D01*
X374094Y74904D01*
X374070Y74906D01*
X374047Y74915D01*
X373900Y74929D01*
X335517Y74929D01*
X332540Y77906D01*
X332540Y78680D01*
X332536Y78704D01*
X332539Y78729D01*
X332517Y78824D01*
X332501Y78921D01*
X332489Y78942D01*
X332483Y78966D01*
X332432Y79050D01*
X332386Y79136D01*
X332368Y79153D01*
X332355Y79174D01*
X332279Y79236D01*
X332208Y79303D01*
X332185Y79313D01*
X332166Y79329D01*
X332075Y79363D01*
X331985Y79404D01*
X331961Y79406D01*
X331938Y79415D01*
X331791Y79429D01*
X326375Y79429D01*
X326278Y79413D01*
X326182Y79404D01*
X326159Y79394D01*
X326134Y79390D01*
X326048Y79344D01*
X325959Y79303D01*
X325934Y79282D01*
X325919Y79275D01*
X325902Y79256D01*
X325845Y79210D01*
X325091Y78456D01*
X325048Y78396D01*
X324998Y78343D01*
X324978Y78298D01*
X324949Y78257D01*
X324927Y78187D01*
X324897Y78120D01*
X324892Y78071D01*
X324878Y78024D01*
X324880Y77950D01*
X324873Y77878D01*
X324885Y77805D01*
X324886Y77780D01*
X324892Y77764D01*
X324897Y77732D01*
X325001Y77344D01*
X325001Y72009D01*
X315710Y72009D01*
X315686Y72005D01*
X315662Y72008D01*
X315566Y71985D01*
X315469Y71969D01*
X315448Y71958D01*
X315424Y71952D01*
X315341Y71901D01*
X315254Y71854D01*
X315237Y71837D01*
X315217Y71824D01*
X315154Y71748D01*
X315087Y71676D01*
X315077Y71654D01*
X315062Y71635D01*
X315027Y71544D01*
X314986Y71454D01*
X314984Y71430D01*
X314975Y71407D01*
X314961Y71260D01*
X314961Y70509D01*
X314959Y70509D01*
X314959Y71260D01*
X314955Y71284D01*
X314958Y71308D01*
X314935Y71404D01*
X314919Y71501D01*
X314908Y71522D01*
X314902Y71546D01*
X314851Y71629D01*
X314804Y71716D01*
X314787Y71733D01*
X314774Y71753D01*
X314698Y71816D01*
X314626Y71883D01*
X314604Y71893D01*
X314585Y71908D01*
X314494Y71943D01*
X314404Y71984D01*
X314380Y71986D01*
X314357Y71995D01*
X314210Y72009D01*
X304919Y72009D01*
X304919Y77344D01*
X305023Y77732D01*
X305030Y77805D01*
X305047Y77876D01*
X305042Y77925D01*
X305047Y77975D01*
X305030Y78046D01*
X305023Y78119D01*
X305003Y78164D01*
X304992Y78212D01*
X304953Y78275D01*
X304923Y78341D01*
X304876Y78399D01*
X304863Y78420D01*
X304850Y78430D01*
X304829Y78456D01*
X303415Y79870D01*
X303336Y79927D01*
X303260Y79989D01*
X303237Y79997D01*
X303217Y80012D01*
X303123Y80040D01*
X303032Y80075D01*
X302999Y80078D01*
X302983Y80083D01*
X302958Y80082D01*
X302885Y80089D01*
X301460Y80089D01*
X301436Y80085D01*
X301411Y80088D01*
X301316Y80066D01*
X301219Y80050D01*
X301198Y80038D01*
X301174Y80032D01*
X301090Y79981D01*
X301004Y79935D01*
X300987Y79917D01*
X300966Y79904D01*
X300904Y79828D01*
X300837Y79757D01*
X300827Y79734D01*
X300811Y79715D01*
X300777Y79624D01*
X300736Y79534D01*
X300734Y79510D01*
X300725Y79487D01*
X300711Y79340D01*
X300711Y78066D01*
X297734Y75089D01*
X273526Y75089D01*
X270549Y78066D01*
X270549Y102274D01*
X273526Y105251D01*
X297734Y105251D01*
X300711Y102274D01*
X300711Y101000D01*
X300715Y100976D01*
X300712Y100951D01*
X300734Y100856D01*
X300750Y100759D01*
X300762Y100738D01*
X300768Y100714D01*
X300819Y100630D01*
X300865Y100544D01*
X300883Y100527D01*
X300896Y100506D01*
X300972Y100444D01*
X301043Y100377D01*
X301066Y100367D01*
X301085Y100351D01*
X301176Y100317D01*
X301266Y100276D01*
X301290Y100274D01*
X301313Y100265D01*
X301460Y100251D01*
X304205Y100251D01*
X304301Y100267D01*
X304398Y100276D01*
X304421Y100286D01*
X304446Y100290D01*
X304532Y100336D01*
X304621Y100377D01*
X304646Y100398D01*
X304661Y100405D01*
X304678Y100424D01*
X304735Y100470D01*
X305356Y101091D01*
X324565Y101091D01*
X325845Y99810D01*
X325924Y99753D01*
X326000Y99691D01*
X326023Y99683D01*
X326043Y99668D01*
X326137Y99640D01*
X326228Y99605D01*
X326261Y99602D01*
X326277Y99597D01*
X326302Y99598D01*
X326375Y99591D01*
X331926Y99591D01*
X332022Y99607D01*
X332119Y99616D01*
X332142Y99626D01*
X332167Y99630D01*
X332253Y99676D01*
X332342Y99717D01*
X332367Y99738D01*
X332382Y99745D01*
X332399Y99764D01*
X332456Y99810D01*
X335517Y102871D01*
X373900Y102871D01*
X373924Y102875D01*
X373949Y102872D01*
X374044Y102894D01*
X374141Y102910D01*
X374162Y102922D01*
X374186Y102928D01*
X374270Y102979D01*
X374356Y103025D01*
X374373Y103043D01*
X374394Y103056D01*
X374456Y103132D01*
X374523Y103203D01*
X374533Y103226D01*
X374549Y103245D01*
X374583Y103336D01*
X374624Y103426D01*
X374626Y103450D01*
X374635Y103473D01*
X374649Y103620D01*
X374649Y107221D01*
X374645Y107245D01*
X374648Y107270D01*
X374626Y107365D01*
X374610Y107462D01*
X374598Y107483D01*
X374592Y107507D01*
X374541Y107591D01*
X374495Y107677D01*
X374477Y107694D01*
X374464Y107715D01*
X374388Y107777D01*
X374317Y107844D01*
X374294Y107854D01*
X374275Y107870D01*
X374184Y107904D01*
X374094Y107945D01*
X374070Y107947D01*
X374047Y107956D01*
X373900Y107970D01*
X360075Y107970D01*
X360075Y123096D01*
X360071Y123120D01*
X360074Y123144D01*
X360051Y123240D01*
X360035Y123337D01*
X360024Y123358D01*
X360018Y123382D01*
X359967Y123465D01*
X359920Y123552D01*
X359903Y123569D01*
X359890Y123589D01*
X359814Y123652D01*
X359742Y123719D01*
X359720Y123729D01*
X359701Y123744D01*
X359610Y123779D01*
X359520Y123820D01*
X359496Y123822D01*
X359473Y123831D01*
X359326Y123845D01*
X358575Y123845D01*
X358575Y123847D01*
X359326Y123847D01*
X359350Y123851D01*
X359374Y123848D01*
X359470Y123871D01*
X359567Y123887D01*
X359588Y123898D01*
X359612Y123904D01*
X359695Y123955D01*
X359782Y124002D01*
X359799Y124019D01*
X359819Y124032D01*
X359882Y124108D01*
X359949Y124180D01*
X359959Y124202D01*
X359974Y124221D01*
X360009Y124312D01*
X360050Y124402D01*
X360052Y124426D01*
X360061Y124449D01*
X360075Y124596D01*
X360075Y139722D01*
X373900Y139722D01*
X373924Y139726D01*
X373949Y139723D01*
X374044Y139745D01*
X374141Y139761D01*
X374162Y139773D01*
X374186Y139779D01*
X374270Y139830D01*
X374356Y139876D01*
X374373Y139894D01*
X374394Y139907D01*
X374456Y139983D01*
X374523Y140054D01*
X374533Y140077D01*
X374549Y140096D01*
X374583Y140187D01*
X374624Y140277D01*
X374626Y140301D01*
X374635Y140324D01*
X374649Y140471D01*
X374649Y146884D01*
X374700Y146935D01*
X374748Y147002D01*
X374766Y147022D01*
X374770Y147031D01*
X374819Y147090D01*
X374827Y147113D01*
X374842Y147133D01*
X374870Y147227D01*
X374905Y147318D01*
X374908Y147351D01*
X374913Y147367D01*
X374912Y147392D01*
X374919Y147465D01*
X374919Y174170D01*
X374915Y174194D01*
X374918Y174219D01*
X374896Y174314D01*
X374880Y174411D01*
X374868Y174432D01*
X374862Y174456D01*
X374811Y174540D01*
X374765Y174626D01*
X374747Y174643D01*
X374734Y174664D01*
X374658Y174726D01*
X374587Y174793D01*
X374564Y174803D01*
X374545Y174819D01*
X374454Y174853D01*
X374364Y174894D01*
X374340Y174896D01*
X374317Y174905D01*
X374170Y174919D01*
X5830Y174919D01*
X5806Y174915D01*
X5781Y174918D01*
X5686Y174896D01*
X5589Y174880D01*
X5568Y174868D01*
X5544Y174862D01*
X5460Y174811D01*
X5374Y174765D01*
X5357Y174747D01*
X5336Y174734D01*
X5274Y174658D01*
X5207Y174587D01*
X5197Y174564D01*
X5181Y174545D01*
X5147Y174454D01*
X5106Y174364D01*
X5104Y174340D01*
X5095Y174317D01*
X5081Y174170D01*
X5081Y141741D01*
X5085Y141717D01*
X5082Y141692D01*
X5104Y141597D01*
X5120Y141500D01*
X5132Y141479D01*
X5138Y141455D01*
X5189Y141371D01*
X5235Y141285D01*
X5253Y141268D01*
X5266Y141247D01*
X5342Y141185D01*
X5413Y141118D01*
X5436Y141108D01*
X5455Y141092D01*
X5546Y141058D01*
X5636Y141017D01*
X5660Y141015D01*
X5683Y141006D01*
X5830Y140992D01*
X19655Y140992D01*
X19655Y125866D01*
X19659Y125842D01*
X19656Y125818D01*
X19679Y125722D01*
X19695Y125625D01*
X19706Y125604D01*
X19712Y125580D01*
X19763Y125497D01*
X19810Y125410D01*
X19827Y125393D01*
X19840Y125373D01*
X19916Y125310D01*
X19988Y125243D01*
X20010Y125233D01*
X20029Y125218D01*
X20120Y125183D01*
X20210Y125142D01*
X20234Y125140D01*
X20257Y125131D01*
X20404Y125117D01*
X21155Y125117D01*
X21155Y125115D01*
X20404Y125115D01*
X20380Y125111D01*
X20356Y125114D01*
X20260Y125091D01*
X20163Y125075D01*
X20142Y125064D01*
X20118Y125058D01*
X20034Y125007D01*
X19948Y124960D01*
X19931Y124943D01*
X19911Y124930D01*
X19848Y124854D01*
X19781Y124782D01*
X19771Y124760D01*
X19756Y124741D01*
X19721Y124650D01*
X19680Y124560D01*
X19678Y124536D01*
X19669Y124513D01*
X19655Y124366D01*
X19655Y109240D01*
X5830Y109240D01*
X5806Y109236D01*
X5781Y109239D01*
X5686Y109217D01*
X5589Y109201D01*
X5568Y109189D01*
X5544Y109183D01*
X5460Y109132D01*
X5374Y109086D01*
X5357Y109068D01*
X5336Y109055D01*
X5274Y108979D01*
X5207Y108908D01*
X5197Y108885D01*
X5181Y108866D01*
X5147Y108775D01*
X5106Y108685D01*
X5104Y108661D01*
X5095Y108638D01*
X5081Y108491D01*
X5081Y104890D01*
X5085Y104866D01*
X5082Y104841D01*
X5105Y104746D01*
X5120Y104649D01*
X5132Y104628D01*
X5138Y104604D01*
X5189Y104520D01*
X5235Y104434D01*
X5253Y104417D01*
X5266Y104396D01*
X5342Y104334D01*
X5413Y104267D01*
X5436Y104257D01*
X5455Y104241D01*
X5546Y104207D01*
X5636Y104166D01*
X5660Y104164D01*
X5683Y104155D01*
X5830Y104141D01*
X44213Y104141D01*
X47190Y101164D01*
X47190Y101000D01*
X47194Y100976D01*
X47191Y100951D01*
X47213Y100856D01*
X47229Y100759D01*
X47241Y100738D01*
X47247Y100714D01*
X47298Y100630D01*
X47344Y100544D01*
X47362Y100527D01*
X47375Y100506D01*
X47451Y100444D01*
X47522Y100377D01*
X47545Y100367D01*
X47564Y100351D01*
X47655Y100317D01*
X47745Y100276D01*
X47769Y100274D01*
X47792Y100265D01*
X47939Y100251D01*
X50205Y100251D01*
X50302Y100267D01*
X50398Y100276D01*
X50421Y100286D01*
X50446Y100290D01*
X50532Y100336D01*
X50621Y100377D01*
X50646Y100398D01*
X50661Y100405D01*
X50678Y100424D01*
X50735Y100470D01*
X51355Y101091D01*
X70565Y101091D01*
X71845Y99810D01*
X71924Y99753D01*
X72000Y99691D01*
X72023Y99683D01*
X72043Y99668D01*
X72137Y99640D01*
X72228Y99605D01*
X72261Y99602D01*
X72277Y99597D01*
X72302Y99598D01*
X72375Y99591D01*
X74500Y99591D01*
X74524Y99595D01*
X74549Y99592D01*
X74644Y99614D01*
X74741Y99630D01*
X74762Y99642D01*
X74786Y99648D01*
X74870Y99699D01*
X74956Y99745D01*
X74973Y99763D01*
X74994Y99776D01*
X75056Y99852D01*
X75123Y99923D01*
X75133Y99946D01*
X75149Y99965D01*
X75183Y100056D01*
X75224Y100146D01*
X75226Y100170D01*
X75235Y100193D01*
X75249Y100340D01*
X75249Y102274D01*
X78226Y105251D01*
X102434Y105251D01*
X105411Y102274D01*
X105411Y78066D01*
X102434Y75089D01*
X78226Y75089D01*
X75249Y78066D01*
X75249Y78680D01*
X75245Y78704D01*
X75248Y78729D01*
X75226Y78824D01*
X75210Y78921D01*
X75198Y78942D01*
X75192Y78966D01*
X75141Y79050D01*
X75095Y79136D01*
X75077Y79153D01*
X75064Y79174D01*
X74988Y79236D01*
X74917Y79303D01*
X74894Y79313D01*
X74875Y79329D01*
X74784Y79363D01*
X74694Y79404D01*
X74670Y79406D01*
X74647Y79415D01*
X74500Y79429D01*
X72375Y79429D01*
X72278Y79413D01*
X72182Y79404D01*
X72159Y79394D01*
X72134Y79390D01*
X72048Y79344D01*
X71959Y79303D01*
X71934Y79282D01*
X71919Y79275D01*
X71902Y79256D01*
X71845Y79210D01*
X71091Y78456D01*
X71048Y78396D01*
X70998Y78343D01*
X70978Y78298D01*
X70949Y78257D01*
X70927Y78187D01*
X70897Y78120D01*
X70892Y78071D01*
X70878Y78024D01*
X70880Y77951D01*
X70873Y77878D01*
X70885Y77805D01*
X70886Y77780D01*
X70892Y77764D01*
X70897Y77732D01*
X71001Y77344D01*
X71001Y72009D01*
X61710Y72009D01*
X61686Y72005D01*
X61662Y72008D01*
X61566Y71985D01*
X61469Y71969D01*
X61448Y71958D01*
X61424Y71952D01*
X61341Y71901D01*
X61254Y71854D01*
X61237Y71837D01*
X61217Y71824D01*
X61154Y71748D01*
X61087Y71676D01*
X61077Y71654D01*
X61062Y71635D01*
X61027Y71544D01*
X60986Y71454D01*
X60984Y71430D01*
X60975Y71407D01*
X60961Y71260D01*
X60961Y70509D01*
X60959Y70509D01*
X60959Y71260D01*
X60955Y71284D01*
X60958Y71308D01*
X60935Y71404D01*
X60919Y71501D01*
X60908Y71522D01*
X60902Y71546D01*
X60851Y71629D01*
X60804Y71716D01*
X60787Y71733D01*
X60774Y71753D01*
X60698Y71816D01*
X60626Y71883D01*
X60604Y71893D01*
X60585Y71908D01*
X60494Y71943D01*
X60404Y71984D01*
X60380Y71986D01*
X60357Y71995D01*
X60210Y72009D01*
X50919Y72009D01*
X50919Y77344D01*
X51023Y77732D01*
X51030Y77805D01*
X51047Y77876D01*
X51042Y77925D01*
X51047Y77975D01*
X51030Y78046D01*
X51023Y78119D01*
X51003Y78164D01*
X50992Y78212D01*
X50953Y78275D01*
X50923Y78341D01*
X50876Y78399D01*
X50863Y78420D01*
X50850Y78430D01*
X50829Y78456D01*
X49415Y79870D01*
X49336Y79927D01*
X49260Y79989D01*
X49237Y79997D01*
X49217Y80012D01*
X49123Y80040D01*
X49032Y80075D01*
X48999Y80078D01*
X48983Y80083D01*
X48958Y80082D01*
X48885Y80089D01*
X47939Y80089D01*
X47915Y80085D01*
X47890Y80088D01*
X47795Y80066D01*
X47698Y80050D01*
X47677Y80038D01*
X47653Y80032D01*
X47569Y79981D01*
X47483Y79935D01*
X47466Y79917D01*
X47445Y79904D01*
X47383Y79828D01*
X47316Y79757D01*
X47306Y79734D01*
X47290Y79715D01*
X47256Y79624D01*
X47215Y79534D01*
X47213Y79510D01*
X47204Y79487D01*
X47190Y79340D01*
X47190Y79176D01*
X44213Y76199D01*
X5830Y76199D01*
X5806Y76195D01*
X5781Y76198D01*
X5686Y76176D01*
X5589Y76160D01*
X5568Y76148D01*
X5544Y76142D01*
X5460Y76091D01*
X5374Y76045D01*
X5357Y76027D01*
X5336Y76014D01*
X5274Y75938D01*
X5207Y75867D01*
X5197Y75844D01*
X5181Y75825D01*
X5147Y75734D01*
X5106Y75644D01*
X5104Y75620D01*
X5095Y75597D01*
X5081Y75450D01*
X5081Y71849D01*
X5085Y71825D01*
X5082Y71800D01*
X5104Y71705D01*
X5120Y71608D01*
X5132Y71587D01*
X5138Y71563D01*
X5189Y71479D01*
X5235Y71393D01*
X5253Y71376D01*
X5266Y71355D01*
X5342Y71293D01*
X5413Y71226D01*
X5436Y71216D01*
X5455Y71200D01*
X5546Y71166D01*
X5636Y71125D01*
X5660Y71123D01*
X5683Y71114D01*
X5830Y71100D01*
X19655Y71100D01*
X19655Y55974D01*
X19659Y55950D01*
X19656Y55926D01*
X19679Y55830D01*
X19695Y55733D01*
X19706Y55712D01*
X19712Y55688D01*
X19763Y55605D01*
X19810Y55518D01*
X19827Y55501D01*
X19840Y55481D01*
X19916Y55418D01*
X19988Y55351D01*
X20010Y55341D01*
X20029Y55326D01*
X20120Y55291D01*
X20210Y55250D01*
X20234Y55248D01*
X20257Y55239D01*
X20404Y55225D01*
X21155Y55225D01*
X21155Y55223D01*
X20404Y55223D01*
X20380Y55219D01*
X20356Y55222D01*
X20260Y55199D01*
X20163Y55183D01*
X20142Y55172D01*
X20118Y55166D01*
X20034Y55115D01*
X19948Y55068D01*
X19931Y55051D01*
X19911Y55038D01*
X19848Y54962D01*
X19781Y54890D01*
X19771Y54868D01*
X19756Y54849D01*
X19721Y54758D01*
X19680Y54668D01*
X19678Y54644D01*
X19669Y54621D01*
X19655Y54474D01*
X19655Y39348D01*
X5830Y39348D01*
X5806Y39344D01*
X5781Y39347D01*
X5686Y39325D01*
X5589Y39309D01*
X5568Y39297D01*
X5544Y39291D01*
X5460Y39240D01*
X5374Y39194D01*
X5357Y39176D01*
X5336Y39163D01*
X5274Y39087D01*
X5207Y39016D01*
X5197Y38993D01*
X5181Y38974D01*
X5147Y38883D01*
X5106Y38793D01*
X5104Y38769D01*
X5095Y38746D01*
X5081Y38599D01*
X5081Y5830D01*
X5085Y5806D01*
X5082Y5781D01*
X5104Y5686D01*
X5120Y5589D01*
X5132Y5568D01*
X5138Y5544D01*
X5189Y5460D01*
X5235Y5374D01*
X5253Y5357D01*
X5266Y5336D01*
X5342Y5274D01*
X5413Y5207D01*
X5436Y5197D01*
X5455Y5181D01*
X5546Y5147D01*
X5636Y5106D01*
X5660Y5104D01*
X5683Y5095D01*
X5830Y5081D01*
X374170Y5081D01*
X374194Y5085D01*
G37*
%LPC*%
G36*
X187959Y70509D02*
X187959Y70509D01*
X187959Y71260D01*
X187955Y71284D01*
X187958Y71308D01*
X187935Y71404D01*
X187919Y71501D01*
X187908Y71522D01*
X187902Y71546D01*
X187851Y71629D01*
X187804Y71716D01*
X187787Y71733D01*
X187774Y71753D01*
X187698Y71816D01*
X187626Y71883D01*
X187604Y71893D01*
X187585Y71908D01*
X187494Y71943D01*
X187404Y71984D01*
X187380Y71986D01*
X187357Y71995D01*
X187210Y72009D01*
X177919Y72009D01*
X177919Y77344D01*
X178023Y77732D01*
X178030Y77805D01*
X178047Y77876D01*
X178042Y77925D01*
X178047Y77975D01*
X178030Y78046D01*
X178023Y78119D01*
X178003Y78164D01*
X177992Y78212D01*
X177953Y78275D01*
X177923Y78341D01*
X177876Y78399D01*
X177863Y78420D01*
X177850Y78430D01*
X177829Y78456D01*
X176415Y79870D01*
X176336Y79927D01*
X176260Y79989D01*
X176237Y79997D01*
X176217Y80012D01*
X176123Y80040D01*
X176032Y80075D01*
X175999Y80078D01*
X175983Y80083D01*
X175958Y80082D01*
X175885Y80089D01*
X174460Y80089D01*
X174436Y80085D01*
X174411Y80088D01*
X174316Y80066D01*
X174219Y80050D01*
X174198Y80038D01*
X174174Y80032D01*
X174090Y79981D01*
X174004Y79935D01*
X173987Y79917D01*
X173966Y79904D01*
X173904Y79828D01*
X173837Y79757D01*
X173827Y79734D01*
X173811Y79715D01*
X173777Y79624D01*
X173736Y79534D01*
X173734Y79510D01*
X173725Y79487D01*
X173711Y79340D01*
X173711Y78066D01*
X170734Y75089D01*
X146526Y75089D01*
X143549Y78066D01*
X143549Y102274D01*
X146526Y105251D01*
X170734Y105251D01*
X173711Y102274D01*
X173711Y101000D01*
X173715Y100976D01*
X173712Y100951D01*
X173734Y100856D01*
X173750Y100759D01*
X173762Y100738D01*
X173768Y100714D01*
X173819Y100630D01*
X173865Y100544D01*
X173883Y100527D01*
X173896Y100506D01*
X173972Y100444D01*
X174043Y100377D01*
X174066Y100367D01*
X174085Y100351D01*
X174176Y100317D01*
X174266Y100276D01*
X174290Y100274D01*
X174313Y100265D01*
X174460Y100251D01*
X177205Y100251D01*
X177302Y100267D01*
X177398Y100276D01*
X177421Y100286D01*
X177446Y100290D01*
X177532Y100336D01*
X177621Y100377D01*
X177646Y100398D01*
X177661Y100405D01*
X177678Y100424D01*
X177735Y100470D01*
X178355Y101091D01*
X197565Y101091D01*
X198845Y99810D01*
X198924Y99753D01*
X199000Y99691D01*
X199023Y99683D01*
X199043Y99668D01*
X199137Y99640D01*
X199228Y99605D01*
X199261Y99602D01*
X199277Y99597D01*
X199302Y99598D01*
X199375Y99591D01*
X201500Y99591D01*
X201524Y99595D01*
X201549Y99592D01*
X201644Y99614D01*
X201741Y99630D01*
X201762Y99642D01*
X201786Y99648D01*
X201870Y99699D01*
X201956Y99745D01*
X201973Y99763D01*
X201994Y99776D01*
X202056Y99852D01*
X202123Y99923D01*
X202133Y99946D01*
X202149Y99965D01*
X202183Y100056D01*
X202224Y100146D01*
X202226Y100170D01*
X202235Y100193D01*
X202249Y100340D01*
X202249Y102274D01*
X205226Y105251D01*
X229434Y105251D01*
X232411Y102274D01*
X232411Y78066D01*
X229434Y75089D01*
X205226Y75089D01*
X202249Y78066D01*
X202249Y78680D01*
X202245Y78704D01*
X202248Y78729D01*
X202226Y78824D01*
X202210Y78921D01*
X202198Y78942D01*
X202192Y78966D01*
X202141Y79050D01*
X202095Y79136D01*
X202077Y79153D01*
X202064Y79174D01*
X201988Y79236D01*
X201917Y79303D01*
X201894Y79313D01*
X201875Y79329D01*
X201784Y79363D01*
X201694Y79404D01*
X201670Y79406D01*
X201647Y79415D01*
X201500Y79429D01*
X199375Y79429D01*
X199278Y79413D01*
X199182Y79404D01*
X199159Y79394D01*
X199134Y79390D01*
X199048Y79344D01*
X198959Y79303D01*
X198934Y79282D01*
X198919Y79275D01*
X198902Y79256D01*
X198845Y79210D01*
X198091Y78456D01*
X198048Y78396D01*
X197998Y78343D01*
X197978Y78298D01*
X197949Y78257D01*
X197927Y78187D01*
X197897Y78120D01*
X197892Y78071D01*
X197878Y78024D01*
X197880Y77950D01*
X197873Y77878D01*
X197885Y77805D01*
X197886Y77780D01*
X197892Y77764D01*
X197897Y77732D01*
X198001Y77344D01*
X198001Y72009D01*
X188710Y72009D01*
X188686Y72005D01*
X188662Y72008D01*
X188566Y71985D01*
X188469Y71969D01*
X188448Y71958D01*
X188424Y71952D01*
X188341Y71901D01*
X188254Y71854D01*
X188237Y71837D01*
X188217Y71824D01*
X188154Y71748D01*
X188087Y71676D01*
X188077Y71654D01*
X188062Y71635D01*
X188027Y71544D01*
X187986Y71454D01*
X187984Y71430D01*
X187975Y71407D01*
X187961Y71260D01*
X187961Y70509D01*
X187959Y70509D01*
G37*
%LPD*%
%LPC*%
G36*
X183006Y129919D02*
X183006Y129919D01*
X175625Y132976D01*
X169976Y138625D01*
X166919Y146006D01*
X166919Y153994D01*
X169976Y161375D01*
X175625Y167024D01*
X183006Y170081D01*
X190994Y170081D01*
X198375Y167024D01*
X204024Y161375D01*
X207081Y153994D01*
X207081Y146006D01*
X204024Y138625D01*
X198375Y132976D01*
X190994Y129919D01*
X183006Y129919D01*
G37*
%LPD*%
%LPC*%
G36*
X303006Y9919D02*
X303006Y9919D01*
X295625Y12976D01*
X289976Y18625D01*
X286919Y26006D01*
X286919Y33994D01*
X289976Y41375D01*
X295625Y47024D01*
X303006Y50081D01*
X310994Y50081D01*
X318375Y47024D01*
X324024Y41375D01*
X327081Y33994D01*
X327081Y26006D01*
X324024Y18625D01*
X318375Y12976D01*
X310994Y9919D01*
X303006Y9919D01*
G37*
%LPD*%
%LPC*%
G36*
X63006Y9919D02*
X63006Y9919D01*
X55625Y12976D01*
X49976Y18625D01*
X46919Y26006D01*
X46919Y33994D01*
X49976Y41375D01*
X55625Y47024D01*
X63006Y50081D01*
X70994Y50081D01*
X78375Y47024D01*
X84024Y41375D01*
X87081Y33994D01*
X87081Y26006D01*
X84024Y18625D01*
X78375Y12976D01*
X70994Y9919D01*
X63006Y9919D01*
G37*
%LPD*%
%LPC*%
G36*
X22653Y126615D02*
X22653Y126615D01*
X22653Y140992D01*
X42443Y140992D01*
X43090Y140819D01*
X43669Y140484D01*
X44142Y140011D01*
X44477Y139432D01*
X44650Y138785D01*
X44650Y126615D01*
X22653Y126615D01*
G37*
%LPD*%
%LPC*%
G36*
X22653Y56723D02*
X22653Y56723D01*
X22653Y71100D01*
X42443Y71100D01*
X43090Y70927D01*
X43669Y70592D01*
X44142Y70119D01*
X44477Y69540D01*
X44650Y68893D01*
X44650Y56723D01*
X22653Y56723D01*
G37*
%LPD*%
%LPC*%
G36*
X335080Y125345D02*
X335080Y125345D01*
X335080Y137515D01*
X335253Y138162D01*
X335588Y138741D01*
X336061Y139214D01*
X336640Y139549D01*
X337287Y139722D01*
X357077Y139722D01*
X357077Y125345D01*
X335080Y125345D01*
G37*
%LPD*%
%LPC*%
G36*
X335080Y55453D02*
X335080Y55453D01*
X335080Y67623D01*
X335253Y68270D01*
X335588Y68849D01*
X336061Y69322D01*
X336640Y69657D01*
X337287Y69830D01*
X357077Y69830D01*
X357077Y55453D01*
X335080Y55453D01*
G37*
%LPD*%
%LPC*%
G36*
X337287Y107970D02*
X337287Y107970D01*
X336640Y108143D01*
X336061Y108478D01*
X335588Y108951D01*
X335253Y109530D01*
X335080Y110177D01*
X335080Y122347D01*
X357077Y122347D01*
X357077Y107970D01*
X337287Y107970D01*
G37*
%LPD*%
%LPC*%
G36*
X337287Y38078D02*
X337287Y38078D01*
X336640Y38251D01*
X336061Y38586D01*
X335588Y39059D01*
X335253Y39638D01*
X335080Y40285D01*
X335080Y52455D01*
X357077Y52455D01*
X357077Y38078D01*
X337287Y38078D01*
G37*
%LPD*%
%LPC*%
G36*
X22653Y39348D02*
X22653Y39348D01*
X22653Y53725D01*
X44650Y53725D01*
X44650Y41555D01*
X44565Y41239D01*
X44477Y40908D01*
X44142Y40329D01*
X43669Y39856D01*
X43090Y39521D01*
X42443Y39348D01*
X22653Y39348D01*
G37*
%LPD*%
%LPC*%
G36*
X22653Y109240D02*
X22653Y109240D01*
X22653Y123617D01*
X44650Y123617D01*
X44650Y111447D01*
X44508Y110919D01*
X44477Y110800D01*
X44142Y110221D01*
X43669Y109748D01*
X43090Y109413D01*
X42443Y109240D01*
X22653Y109240D01*
G37*
%LPD*%
%LPC*%
G36*
X316459Y61469D02*
X316459Y61469D01*
X316459Y69011D01*
X325001Y69011D01*
X325001Y63676D01*
X324828Y63029D01*
X324493Y62450D01*
X324020Y61977D01*
X323441Y61642D01*
X322794Y61469D01*
X316459Y61469D01*
G37*
%LPD*%
%LPC*%
G36*
X189459Y61469D02*
X189459Y61469D01*
X189459Y69011D01*
X198001Y69011D01*
X198001Y63676D01*
X197828Y63029D01*
X197493Y62450D01*
X197020Y61977D01*
X196441Y61642D01*
X195794Y61469D01*
X189459Y61469D01*
G37*
%LPD*%
%LPC*%
G36*
X62459Y61469D02*
X62459Y61469D01*
X62459Y69011D01*
X71001Y69011D01*
X71001Y63676D01*
X70828Y63029D01*
X70493Y62450D01*
X70020Y61977D01*
X69441Y61642D01*
X68794Y61469D01*
X62459Y61469D01*
G37*
%LPD*%
%LPC*%
G36*
X307126Y61469D02*
X307126Y61469D01*
X306479Y61642D01*
X305900Y61977D01*
X305427Y62450D01*
X305092Y63029D01*
X304919Y63676D01*
X304919Y69011D01*
X313461Y69011D01*
X313461Y61469D01*
X307126Y61469D01*
G37*
%LPD*%
%LPC*%
G36*
X180126Y61469D02*
X180126Y61469D01*
X179479Y61642D01*
X178900Y61977D01*
X178427Y62450D01*
X178092Y63029D01*
X177919Y63676D01*
X177919Y69011D01*
X186461Y69011D01*
X186461Y61469D01*
X180126Y61469D01*
G37*
%LPD*%
%LPC*%
G36*
X53126Y61469D02*
X53126Y61469D01*
X52479Y61642D01*
X51900Y61977D01*
X51427Y62450D01*
X51092Y63029D01*
X50919Y63676D01*
X50919Y69011D01*
X59461Y69011D01*
X59461Y61469D01*
X53126Y61469D01*
G37*
%LPD*%
D10*
X21154Y90170D03*
D11*
X21154Y125116D03*
X21154Y55224D03*
D10*
X358576Y88900D03*
D11*
X358576Y53954D03*
X358576Y123846D03*
D12*
X158630Y90170D03*
X90330Y90170D03*
D13*
X60960Y70510D03*
X60960Y89510D03*
X187960Y70510D03*
X187960Y89510D03*
D12*
X285630Y90170D03*
X217330Y90170D03*
D13*
X314960Y70510D03*
X314960Y89510D03*
D14*
X187300Y30000D03*
D15*
X60300Y90170D02*
X21154Y90170D01*
X60300Y90170D02*
X60960Y89510D01*
X89670Y89510D01*
X90330Y90170D01*
X285630Y90170D02*
X314300Y90170D01*
X314960Y89510D01*
X357966Y89510D01*
X358576Y88900D01*
X187300Y90170D02*
X158630Y90170D01*
X187300Y90170D02*
X187960Y89510D01*
X216670Y89510D01*
X217330Y90170D01*
M02*
