G04 EAGLE Gerber RS-274X export*
G75*
%MOMM*%
%FSLAX34Y34*%
%LPD*%
%IN*%
%IPPOS*%
%AMOC8*
5,1,8,0,0,1.08239X$1,22.5*%
G01*
%ADD10C,0.254000*%


D10*
X0Y0D02*
X380000Y0D01*
X380000Y180000D01*
X0Y180000D01*
X0Y0D01*
X82000Y29464D02*
X81924Y28396D01*
X81771Y27335D01*
X81543Y26288D01*
X81241Y25260D01*
X80867Y24256D01*
X80422Y23281D01*
X79908Y22341D01*
X79329Y21440D01*
X78687Y20582D01*
X77985Y19772D01*
X77228Y19015D01*
X76418Y18313D01*
X75560Y17671D01*
X74659Y17092D01*
X73719Y16578D01*
X72744Y16133D01*
X71740Y15759D01*
X70712Y15457D01*
X69665Y15229D01*
X68604Y15076D01*
X67536Y15000D01*
X66464Y15000D01*
X65396Y15076D01*
X64335Y15229D01*
X63288Y15457D01*
X62260Y15759D01*
X61256Y16133D01*
X60281Y16578D01*
X59341Y17092D01*
X58440Y17671D01*
X57582Y18313D01*
X56772Y19015D01*
X56015Y19772D01*
X55313Y20582D01*
X54671Y21440D01*
X54092Y22341D01*
X53578Y23281D01*
X53133Y24256D01*
X52759Y25260D01*
X52457Y26288D01*
X52229Y27335D01*
X52076Y28396D01*
X52000Y29464D01*
X52000Y30536D01*
X52076Y31604D01*
X52229Y32665D01*
X52457Y33712D01*
X52759Y34740D01*
X53133Y35744D01*
X53578Y36719D01*
X54092Y37659D01*
X54671Y38560D01*
X55313Y39418D01*
X56015Y40228D01*
X56772Y40985D01*
X57582Y41687D01*
X58440Y42329D01*
X59341Y42908D01*
X60281Y43422D01*
X61256Y43867D01*
X62260Y44241D01*
X63288Y44543D01*
X64335Y44771D01*
X65396Y44924D01*
X66464Y45000D01*
X67536Y45000D01*
X68604Y44924D01*
X69665Y44771D01*
X70712Y44543D01*
X71740Y44241D01*
X72744Y43867D01*
X73719Y43422D01*
X74659Y42908D01*
X75560Y42329D01*
X76418Y41687D01*
X77228Y40985D01*
X77985Y40228D01*
X78687Y39418D01*
X79329Y38560D01*
X79908Y37659D01*
X80422Y36719D01*
X80867Y35744D01*
X81241Y34740D01*
X81543Y33712D01*
X81771Y32665D01*
X81924Y31604D01*
X82000Y30536D01*
X82000Y29464D01*
X202000Y149464D02*
X201924Y148396D01*
X201771Y147335D01*
X201543Y146288D01*
X201241Y145260D01*
X200867Y144256D01*
X200422Y143281D01*
X199908Y142341D01*
X199329Y141440D01*
X198687Y140582D01*
X197985Y139772D01*
X197228Y139015D01*
X196418Y138313D01*
X195560Y137671D01*
X194659Y137092D01*
X193719Y136578D01*
X192744Y136133D01*
X191740Y135759D01*
X190712Y135457D01*
X189665Y135229D01*
X188604Y135076D01*
X187536Y135000D01*
X186464Y135000D01*
X185396Y135076D01*
X184335Y135229D01*
X183288Y135457D01*
X182260Y135759D01*
X181256Y136133D01*
X180281Y136578D01*
X179341Y137092D01*
X178440Y137671D01*
X177582Y138313D01*
X176772Y139015D01*
X176015Y139772D01*
X175313Y140582D01*
X174671Y141440D01*
X174092Y142341D01*
X173578Y143281D01*
X173133Y144256D01*
X172759Y145260D01*
X172457Y146288D01*
X172229Y147335D01*
X172076Y148396D01*
X172000Y149464D01*
X172000Y150536D01*
X172076Y151604D01*
X172229Y152665D01*
X172457Y153712D01*
X172759Y154740D01*
X173133Y155744D01*
X173578Y156719D01*
X174092Y157659D01*
X174671Y158560D01*
X175313Y159418D01*
X176015Y160228D01*
X176772Y160985D01*
X177582Y161687D01*
X178440Y162329D01*
X179341Y162908D01*
X180281Y163422D01*
X181256Y163867D01*
X182260Y164241D01*
X183288Y164543D01*
X184335Y164771D01*
X185396Y164924D01*
X186464Y165000D01*
X187536Y165000D01*
X188604Y164924D01*
X189665Y164771D01*
X190712Y164543D01*
X191740Y164241D01*
X192744Y163867D01*
X193719Y163422D01*
X194659Y162908D01*
X195560Y162329D01*
X196418Y161687D01*
X197228Y160985D01*
X197985Y160228D01*
X198687Y159418D01*
X199329Y158560D01*
X199908Y157659D01*
X200422Y156719D01*
X200867Y155744D01*
X201241Y154740D01*
X201543Y153712D01*
X201771Y152665D01*
X201924Y151604D01*
X202000Y150536D01*
X202000Y149464D01*
X322000Y29464D02*
X321924Y28396D01*
X321771Y27335D01*
X321543Y26288D01*
X321241Y25260D01*
X320867Y24256D01*
X320422Y23281D01*
X319908Y22341D01*
X319329Y21440D01*
X318687Y20582D01*
X317985Y19772D01*
X317228Y19015D01*
X316418Y18313D01*
X315560Y17671D01*
X314659Y17092D01*
X313719Y16578D01*
X312744Y16133D01*
X311740Y15759D01*
X310712Y15457D01*
X309665Y15229D01*
X308604Y15076D01*
X307536Y15000D01*
X306464Y15000D01*
X305396Y15076D01*
X304335Y15229D01*
X303288Y15457D01*
X302260Y15759D01*
X301256Y16133D01*
X300281Y16578D01*
X299341Y17092D01*
X298440Y17671D01*
X297582Y18313D01*
X296772Y19015D01*
X296015Y19772D01*
X295313Y20582D01*
X294671Y21440D01*
X294092Y22341D01*
X293578Y23281D01*
X293133Y24256D01*
X292759Y25260D01*
X292457Y26288D01*
X292229Y27335D01*
X292076Y28396D01*
X292000Y29464D01*
X292000Y30536D01*
X292076Y31604D01*
X292229Y32665D01*
X292457Y33712D01*
X292759Y34740D01*
X293133Y35744D01*
X293578Y36719D01*
X294092Y37659D01*
X294671Y38560D01*
X295313Y39418D01*
X296015Y40228D01*
X296772Y40985D01*
X297582Y41687D01*
X298440Y42329D01*
X299341Y42908D01*
X300281Y43422D01*
X301256Y43867D01*
X302260Y44241D01*
X303288Y44543D01*
X304335Y44771D01*
X305396Y44924D01*
X306464Y45000D01*
X307536Y45000D01*
X308604Y44924D01*
X309665Y44771D01*
X310712Y44543D01*
X311740Y44241D01*
X312744Y43867D01*
X313719Y43422D01*
X314659Y42908D01*
X315560Y42329D01*
X316418Y41687D01*
X317228Y40985D01*
X317985Y40228D01*
X318687Y39418D01*
X319329Y38560D01*
X319908Y37659D01*
X320422Y36719D01*
X320867Y35744D01*
X321241Y34740D01*
X321543Y33712D01*
X321771Y32665D01*
X321924Y31604D01*
X322000Y30536D01*
X322000Y29464D01*
M02*
