G04 EAGLE Gerber RS-274X export*
G75*
%MOMM*%
%FSLAX34Y34*%
%LPD*%
%INSilkscreen Top*%
%IPPOS*%
%AMOC8*
5,1,8,0,0,1.08239X$1,22.5*%
G01*
%ADD10C,0.203200*%
%ADD11C,0.101600*%
%ADD12C,0.127000*%


D10*
X-15500Y43670D02*
X-15500Y70170D01*
X-37000Y70170D01*
X-44500Y62670D01*
X-82500Y62670D01*
X-82500Y71170D01*
X-94250Y71170D01*
X-94250Y109170D01*
X-82500Y109170D01*
X-82500Y117670D01*
X-44500Y117670D01*
X-37000Y110170D01*
X-15500Y110170D01*
X-15500Y136670D01*
X-1000Y128670D02*
X-1000Y51670D01*
X-1000Y136670D02*
X-15500Y136670D01*
X-15500Y43670D02*
X-1000Y43670D01*
D11*
X22098Y146558D02*
X29887Y158242D01*
X22098Y158242D02*
X29887Y146558D01*
X34177Y155646D02*
X37423Y158242D01*
X37423Y146558D01*
X40668Y146558D02*
X34177Y146558D01*
D10*
X395230Y135400D02*
X395230Y108900D01*
X416730Y108900D01*
X424230Y116400D01*
X462230Y116400D01*
X462230Y107900D01*
X473980Y107900D01*
X473980Y69900D01*
X462230Y69900D01*
X462230Y61400D01*
X424230Y61400D01*
X416730Y68900D01*
X395230Y68900D01*
X395230Y42400D01*
X380730Y50400D02*
X380730Y127400D01*
X380730Y42400D02*
X395230Y42400D01*
X395230Y135400D02*
X380730Y135400D01*
D11*
X346117Y159512D02*
X338328Y147828D01*
X346117Y147828D02*
X338328Y159512D01*
X353977Y159512D02*
X354084Y159510D01*
X354190Y159504D01*
X354296Y159494D01*
X354402Y159481D01*
X354508Y159463D01*
X354612Y159442D01*
X354716Y159417D01*
X354819Y159388D01*
X354920Y159356D01*
X355020Y159319D01*
X355119Y159279D01*
X355217Y159236D01*
X355313Y159189D01*
X355407Y159138D01*
X355499Y159084D01*
X355589Y159027D01*
X355677Y158967D01*
X355762Y158903D01*
X355845Y158836D01*
X355926Y158766D01*
X356004Y158694D01*
X356080Y158618D01*
X356152Y158540D01*
X356222Y158459D01*
X356289Y158376D01*
X356353Y158291D01*
X356413Y158203D01*
X356470Y158113D01*
X356524Y158021D01*
X356575Y157927D01*
X356622Y157831D01*
X356665Y157733D01*
X356705Y157634D01*
X356742Y157534D01*
X356774Y157433D01*
X356803Y157330D01*
X356828Y157226D01*
X356849Y157122D01*
X356867Y157016D01*
X356880Y156910D01*
X356890Y156804D01*
X356896Y156698D01*
X356898Y156591D01*
X353977Y159512D02*
X353856Y159510D01*
X353735Y159504D01*
X353615Y159494D01*
X353494Y159481D01*
X353375Y159463D01*
X353255Y159442D01*
X353137Y159417D01*
X353020Y159388D01*
X352903Y159355D01*
X352788Y159319D01*
X352674Y159278D01*
X352561Y159235D01*
X352449Y159187D01*
X352340Y159136D01*
X352232Y159081D01*
X352125Y159023D01*
X352021Y158962D01*
X351919Y158897D01*
X351819Y158829D01*
X351721Y158758D01*
X351625Y158684D01*
X351532Y158607D01*
X351442Y158526D01*
X351354Y158443D01*
X351269Y158357D01*
X351186Y158268D01*
X351107Y158177D01*
X351030Y158083D01*
X350957Y157987D01*
X350887Y157889D01*
X350820Y157788D01*
X350756Y157685D01*
X350696Y157580D01*
X350639Y157473D01*
X350585Y157365D01*
X350535Y157255D01*
X350489Y157143D01*
X350446Y157030D01*
X350407Y156915D01*
X355925Y154319D02*
X356004Y154396D01*
X356080Y154477D01*
X356153Y154560D01*
X356223Y154645D01*
X356290Y154733D01*
X356354Y154823D01*
X356414Y154915D01*
X356471Y155010D01*
X356525Y155106D01*
X356576Y155204D01*
X356623Y155304D01*
X356667Y155406D01*
X356707Y155509D01*
X356743Y155613D01*
X356775Y155719D01*
X356804Y155825D01*
X356829Y155933D01*
X356851Y156041D01*
X356868Y156151D01*
X356882Y156260D01*
X356891Y156370D01*
X356897Y156481D01*
X356899Y156591D01*
X355925Y154319D02*
X350407Y147828D01*
X356898Y147828D01*
D12*
X100330Y153670D02*
X100330Y26670D01*
X148630Y26670D01*
X148630Y153670D01*
X100330Y153670D01*
D11*
X116078Y159258D02*
X116078Y170942D01*
X116078Y159258D02*
X121271Y159258D01*
X125580Y168346D02*
X128826Y170942D01*
X128826Y159258D01*
X125580Y159258D02*
X132072Y159258D01*
X56501Y103378D02*
X53904Y103378D01*
X53805Y103380D01*
X53705Y103386D01*
X53606Y103395D01*
X53508Y103408D01*
X53410Y103425D01*
X53312Y103446D01*
X53216Y103471D01*
X53121Y103499D01*
X53027Y103531D01*
X52934Y103566D01*
X52842Y103605D01*
X52752Y103648D01*
X52664Y103693D01*
X52577Y103743D01*
X52493Y103795D01*
X52410Y103851D01*
X52330Y103909D01*
X52252Y103971D01*
X52177Y104036D01*
X52104Y104104D01*
X52034Y104174D01*
X51966Y104247D01*
X51901Y104322D01*
X51839Y104400D01*
X51781Y104480D01*
X51725Y104563D01*
X51673Y104647D01*
X51623Y104734D01*
X51578Y104822D01*
X51535Y104912D01*
X51496Y105004D01*
X51461Y105097D01*
X51429Y105191D01*
X51401Y105286D01*
X51376Y105382D01*
X51355Y105480D01*
X51338Y105578D01*
X51325Y105676D01*
X51316Y105775D01*
X51310Y105875D01*
X51308Y105974D01*
X51308Y112466D01*
X51310Y112565D01*
X51316Y112665D01*
X51325Y112764D01*
X51338Y112862D01*
X51355Y112960D01*
X51376Y113058D01*
X51401Y113154D01*
X51429Y113249D01*
X51461Y113343D01*
X51496Y113436D01*
X51535Y113528D01*
X51578Y113618D01*
X51623Y113706D01*
X51673Y113793D01*
X51725Y113877D01*
X51781Y113960D01*
X51839Y114040D01*
X51901Y114118D01*
X51966Y114193D01*
X52034Y114266D01*
X52104Y114336D01*
X52177Y114404D01*
X52252Y114469D01*
X52330Y114531D01*
X52410Y114589D01*
X52493Y114645D01*
X52577Y114697D01*
X52664Y114747D01*
X52752Y114792D01*
X52842Y114835D01*
X52934Y114874D01*
X53026Y114909D01*
X53121Y114941D01*
X53216Y114969D01*
X53312Y114994D01*
X53410Y115015D01*
X53508Y115032D01*
X53606Y115045D01*
X53705Y115054D01*
X53805Y115060D01*
X53904Y115062D01*
X56501Y115062D01*
X60866Y112466D02*
X64112Y115062D01*
X64112Y103378D01*
X67357Y103378D02*
X60866Y103378D01*
X180904Y103378D02*
X183501Y103378D01*
X180904Y103378D02*
X180805Y103380D01*
X180705Y103386D01*
X180606Y103395D01*
X180508Y103408D01*
X180410Y103425D01*
X180312Y103446D01*
X180216Y103471D01*
X180121Y103499D01*
X180027Y103531D01*
X179934Y103566D01*
X179842Y103605D01*
X179752Y103648D01*
X179664Y103693D01*
X179577Y103743D01*
X179493Y103795D01*
X179410Y103851D01*
X179330Y103909D01*
X179252Y103971D01*
X179177Y104036D01*
X179104Y104104D01*
X179034Y104174D01*
X178966Y104247D01*
X178901Y104322D01*
X178839Y104400D01*
X178781Y104480D01*
X178725Y104563D01*
X178673Y104647D01*
X178623Y104734D01*
X178578Y104822D01*
X178535Y104912D01*
X178496Y105004D01*
X178461Y105097D01*
X178429Y105191D01*
X178401Y105286D01*
X178376Y105382D01*
X178355Y105480D01*
X178338Y105578D01*
X178325Y105676D01*
X178316Y105775D01*
X178310Y105875D01*
X178308Y105974D01*
X178308Y112466D01*
X178310Y112565D01*
X178316Y112665D01*
X178325Y112764D01*
X178338Y112862D01*
X178355Y112960D01*
X178376Y113058D01*
X178401Y113154D01*
X178429Y113249D01*
X178461Y113343D01*
X178496Y113436D01*
X178535Y113528D01*
X178578Y113618D01*
X178623Y113706D01*
X178673Y113793D01*
X178725Y113877D01*
X178781Y113960D01*
X178839Y114040D01*
X178901Y114118D01*
X178966Y114193D01*
X179034Y114266D01*
X179104Y114336D01*
X179177Y114404D01*
X179252Y114469D01*
X179330Y114531D01*
X179410Y114589D01*
X179493Y114645D01*
X179577Y114697D01*
X179664Y114747D01*
X179752Y114792D01*
X179842Y114835D01*
X179934Y114874D01*
X180026Y114909D01*
X180121Y114941D01*
X180216Y114969D01*
X180312Y114994D01*
X180410Y115015D01*
X180508Y115032D01*
X180606Y115045D01*
X180705Y115054D01*
X180805Y115060D01*
X180904Y115062D01*
X183501Y115062D01*
X191436Y115062D02*
X191543Y115060D01*
X191649Y115054D01*
X191755Y115044D01*
X191861Y115031D01*
X191967Y115013D01*
X192071Y114992D01*
X192175Y114967D01*
X192278Y114938D01*
X192379Y114906D01*
X192479Y114869D01*
X192578Y114829D01*
X192676Y114786D01*
X192772Y114739D01*
X192866Y114688D01*
X192958Y114634D01*
X193048Y114577D01*
X193136Y114517D01*
X193221Y114453D01*
X193304Y114386D01*
X193385Y114316D01*
X193463Y114244D01*
X193539Y114168D01*
X193611Y114090D01*
X193681Y114009D01*
X193748Y113926D01*
X193812Y113841D01*
X193872Y113753D01*
X193929Y113663D01*
X193983Y113571D01*
X194034Y113477D01*
X194081Y113381D01*
X194124Y113283D01*
X194164Y113184D01*
X194201Y113084D01*
X194233Y112983D01*
X194262Y112880D01*
X194287Y112776D01*
X194308Y112672D01*
X194326Y112566D01*
X194339Y112460D01*
X194349Y112354D01*
X194355Y112248D01*
X194357Y112141D01*
X191436Y115062D02*
X191315Y115060D01*
X191194Y115054D01*
X191074Y115044D01*
X190953Y115031D01*
X190834Y115013D01*
X190714Y114992D01*
X190596Y114967D01*
X190479Y114938D01*
X190362Y114905D01*
X190247Y114869D01*
X190133Y114828D01*
X190020Y114785D01*
X189908Y114737D01*
X189799Y114686D01*
X189691Y114631D01*
X189584Y114573D01*
X189480Y114512D01*
X189378Y114447D01*
X189278Y114379D01*
X189180Y114308D01*
X189084Y114234D01*
X188991Y114157D01*
X188901Y114076D01*
X188813Y113993D01*
X188728Y113907D01*
X188645Y113818D01*
X188566Y113727D01*
X188489Y113633D01*
X188416Y113537D01*
X188346Y113439D01*
X188279Y113338D01*
X188215Y113235D01*
X188155Y113130D01*
X188098Y113023D01*
X188044Y112915D01*
X187994Y112805D01*
X187948Y112693D01*
X187905Y112580D01*
X187866Y112465D01*
X193384Y109869D02*
X193463Y109946D01*
X193539Y110027D01*
X193612Y110110D01*
X193682Y110195D01*
X193749Y110283D01*
X193813Y110373D01*
X193873Y110465D01*
X193930Y110560D01*
X193984Y110656D01*
X194035Y110754D01*
X194082Y110854D01*
X194126Y110956D01*
X194166Y111059D01*
X194202Y111163D01*
X194234Y111269D01*
X194263Y111375D01*
X194288Y111483D01*
X194310Y111591D01*
X194327Y111701D01*
X194341Y111810D01*
X194350Y111920D01*
X194356Y112031D01*
X194358Y112141D01*
X193384Y109869D02*
X187866Y103378D01*
X194357Y103378D01*
D12*
X227330Y153670D02*
X227330Y26670D01*
X275630Y26670D01*
X275630Y153670D01*
X227330Y153670D01*
D11*
X243078Y159258D02*
X243078Y170942D01*
X243078Y159258D02*
X248271Y159258D01*
X259072Y168021D02*
X259070Y168128D01*
X259064Y168234D01*
X259054Y168340D01*
X259041Y168446D01*
X259023Y168552D01*
X259002Y168656D01*
X258977Y168760D01*
X258948Y168863D01*
X258916Y168964D01*
X258879Y169064D01*
X258839Y169163D01*
X258796Y169261D01*
X258749Y169357D01*
X258698Y169451D01*
X258644Y169543D01*
X258587Y169633D01*
X258527Y169721D01*
X258463Y169806D01*
X258396Y169889D01*
X258326Y169970D01*
X258254Y170048D01*
X258178Y170124D01*
X258100Y170196D01*
X258019Y170266D01*
X257936Y170333D01*
X257851Y170397D01*
X257763Y170457D01*
X257673Y170514D01*
X257581Y170568D01*
X257487Y170619D01*
X257391Y170666D01*
X257293Y170709D01*
X257194Y170749D01*
X257094Y170786D01*
X256993Y170818D01*
X256890Y170847D01*
X256786Y170872D01*
X256682Y170893D01*
X256576Y170911D01*
X256470Y170924D01*
X256364Y170934D01*
X256258Y170940D01*
X256151Y170942D01*
X256030Y170940D01*
X255909Y170934D01*
X255789Y170924D01*
X255668Y170911D01*
X255549Y170893D01*
X255429Y170872D01*
X255311Y170847D01*
X255194Y170818D01*
X255077Y170785D01*
X254962Y170749D01*
X254848Y170708D01*
X254735Y170665D01*
X254623Y170617D01*
X254514Y170566D01*
X254406Y170511D01*
X254299Y170453D01*
X254195Y170392D01*
X254093Y170327D01*
X253993Y170259D01*
X253895Y170188D01*
X253799Y170114D01*
X253706Y170037D01*
X253616Y169956D01*
X253528Y169873D01*
X253443Y169787D01*
X253360Y169698D01*
X253281Y169607D01*
X253204Y169513D01*
X253131Y169417D01*
X253061Y169319D01*
X252994Y169218D01*
X252930Y169115D01*
X252870Y169010D01*
X252813Y168903D01*
X252759Y168795D01*
X252709Y168685D01*
X252663Y168573D01*
X252620Y168460D01*
X252581Y168345D01*
X258098Y165749D02*
X258177Y165826D01*
X258253Y165907D01*
X258326Y165990D01*
X258396Y166075D01*
X258463Y166163D01*
X258527Y166253D01*
X258587Y166345D01*
X258644Y166440D01*
X258698Y166536D01*
X258749Y166634D01*
X258796Y166734D01*
X258840Y166836D01*
X258880Y166939D01*
X258916Y167043D01*
X258948Y167149D01*
X258977Y167255D01*
X259002Y167363D01*
X259024Y167471D01*
X259041Y167581D01*
X259055Y167690D01*
X259064Y167800D01*
X259070Y167911D01*
X259072Y168021D01*
X258098Y165749D02*
X252580Y159258D01*
X259072Y159258D01*
X307904Y103378D02*
X310501Y103378D01*
X307904Y103378D02*
X307805Y103380D01*
X307705Y103386D01*
X307606Y103395D01*
X307508Y103408D01*
X307410Y103425D01*
X307312Y103446D01*
X307216Y103471D01*
X307121Y103499D01*
X307027Y103531D01*
X306934Y103566D01*
X306842Y103605D01*
X306752Y103648D01*
X306664Y103693D01*
X306577Y103743D01*
X306493Y103795D01*
X306410Y103851D01*
X306330Y103909D01*
X306252Y103971D01*
X306177Y104036D01*
X306104Y104104D01*
X306034Y104174D01*
X305966Y104247D01*
X305901Y104322D01*
X305839Y104400D01*
X305781Y104480D01*
X305725Y104563D01*
X305673Y104647D01*
X305623Y104734D01*
X305578Y104822D01*
X305535Y104912D01*
X305496Y105004D01*
X305461Y105097D01*
X305429Y105191D01*
X305401Y105286D01*
X305376Y105382D01*
X305355Y105480D01*
X305338Y105578D01*
X305325Y105676D01*
X305316Y105775D01*
X305310Y105875D01*
X305308Y105974D01*
X305308Y112466D01*
X305310Y112565D01*
X305316Y112665D01*
X305325Y112764D01*
X305338Y112862D01*
X305355Y112960D01*
X305376Y113058D01*
X305401Y113154D01*
X305429Y113249D01*
X305461Y113343D01*
X305496Y113436D01*
X305535Y113528D01*
X305578Y113618D01*
X305623Y113706D01*
X305673Y113793D01*
X305725Y113877D01*
X305781Y113960D01*
X305839Y114040D01*
X305901Y114118D01*
X305966Y114193D01*
X306034Y114266D01*
X306104Y114336D01*
X306177Y114404D01*
X306252Y114469D01*
X306330Y114531D01*
X306410Y114589D01*
X306493Y114645D01*
X306577Y114697D01*
X306664Y114747D01*
X306752Y114792D01*
X306842Y114835D01*
X306934Y114874D01*
X307026Y114909D01*
X307121Y114941D01*
X307216Y114969D01*
X307312Y114994D01*
X307410Y115015D01*
X307508Y115032D01*
X307606Y115045D01*
X307705Y115054D01*
X307805Y115060D01*
X307904Y115062D01*
X310501Y115062D01*
X314866Y103378D02*
X318112Y103378D01*
X318225Y103380D01*
X318338Y103386D01*
X318451Y103396D01*
X318564Y103410D01*
X318676Y103427D01*
X318787Y103449D01*
X318897Y103474D01*
X319007Y103504D01*
X319115Y103537D01*
X319222Y103574D01*
X319328Y103614D01*
X319432Y103659D01*
X319535Y103707D01*
X319636Y103758D01*
X319735Y103813D01*
X319832Y103871D01*
X319927Y103933D01*
X320020Y103998D01*
X320110Y104066D01*
X320198Y104137D01*
X320284Y104212D01*
X320367Y104289D01*
X320447Y104369D01*
X320524Y104452D01*
X320599Y104538D01*
X320670Y104626D01*
X320738Y104716D01*
X320803Y104809D01*
X320865Y104904D01*
X320923Y105001D01*
X320978Y105100D01*
X321029Y105201D01*
X321077Y105304D01*
X321122Y105408D01*
X321162Y105514D01*
X321199Y105621D01*
X321232Y105729D01*
X321262Y105839D01*
X321287Y105949D01*
X321309Y106060D01*
X321326Y106172D01*
X321340Y106285D01*
X321350Y106398D01*
X321356Y106511D01*
X321358Y106624D01*
X321356Y106737D01*
X321350Y106850D01*
X321340Y106963D01*
X321326Y107076D01*
X321309Y107188D01*
X321287Y107299D01*
X321262Y107409D01*
X321232Y107519D01*
X321199Y107627D01*
X321162Y107734D01*
X321122Y107840D01*
X321077Y107944D01*
X321029Y108047D01*
X320978Y108148D01*
X320923Y108247D01*
X320865Y108344D01*
X320803Y108439D01*
X320738Y108532D01*
X320670Y108622D01*
X320599Y108710D01*
X320524Y108796D01*
X320447Y108879D01*
X320367Y108959D01*
X320284Y109036D01*
X320198Y109111D01*
X320110Y109182D01*
X320020Y109250D01*
X319927Y109315D01*
X319832Y109377D01*
X319735Y109435D01*
X319636Y109490D01*
X319535Y109541D01*
X319432Y109589D01*
X319328Y109634D01*
X319222Y109674D01*
X319115Y109711D01*
X319007Y109744D01*
X318897Y109774D01*
X318787Y109799D01*
X318676Y109821D01*
X318564Y109838D01*
X318451Y109852D01*
X318338Y109862D01*
X318225Y109868D01*
X318112Y109870D01*
X318761Y115062D02*
X314866Y115062D01*
X318761Y115062D02*
X318862Y115060D01*
X318962Y115054D01*
X319062Y115044D01*
X319162Y115031D01*
X319261Y115013D01*
X319360Y114992D01*
X319457Y114967D01*
X319554Y114938D01*
X319649Y114905D01*
X319743Y114869D01*
X319835Y114829D01*
X319926Y114786D01*
X320015Y114739D01*
X320102Y114689D01*
X320188Y114635D01*
X320271Y114578D01*
X320351Y114518D01*
X320430Y114455D01*
X320506Y114388D01*
X320579Y114319D01*
X320649Y114247D01*
X320717Y114173D01*
X320782Y114096D01*
X320843Y114016D01*
X320902Y113934D01*
X320957Y113850D01*
X321009Y113764D01*
X321058Y113676D01*
X321103Y113586D01*
X321145Y113494D01*
X321183Y113401D01*
X321217Y113306D01*
X321248Y113211D01*
X321275Y113114D01*
X321298Y113016D01*
X321318Y112917D01*
X321333Y112817D01*
X321345Y112717D01*
X321353Y112617D01*
X321357Y112516D01*
X321357Y112416D01*
X321353Y112315D01*
X321345Y112215D01*
X321333Y112115D01*
X321318Y112015D01*
X321298Y111916D01*
X321275Y111818D01*
X321248Y111721D01*
X321217Y111626D01*
X321183Y111531D01*
X321145Y111438D01*
X321103Y111346D01*
X321058Y111256D01*
X321009Y111168D01*
X320957Y111082D01*
X320902Y110998D01*
X320843Y110916D01*
X320782Y110836D01*
X320717Y110759D01*
X320649Y110685D01*
X320579Y110613D01*
X320506Y110544D01*
X320430Y110477D01*
X320351Y110414D01*
X320271Y110354D01*
X320188Y110297D01*
X320102Y110243D01*
X320015Y110193D01*
X319926Y110146D01*
X319835Y110103D01*
X319743Y110063D01*
X319649Y110027D01*
X319554Y109994D01*
X319457Y109965D01*
X319360Y109940D01*
X319261Y109919D01*
X319162Y109901D01*
X319062Y109888D01*
X318962Y109878D01*
X318862Y109872D01*
X318761Y109870D01*
X318761Y109869D02*
X316164Y109869D01*
M02*
