G04 EAGLE Gerber RS-274X export*
G75*
%MOMM*%
%FSLAX34Y34*%
%LPD*%
%INBottom Copper*%
%IPPOS*%
%AMOC8*
5,1,8,0,0,1.08239X$1,22.5*%
G01*
%ADD10C,1.981200*%
%ADD11R,2.667000X4.191000*%
%ADD12R,4.191000X2.667000*%

G36*
X129081Y5087D02*
X129081Y5087D01*
X129107Y5084D01*
X129165Y5106D01*
X129225Y5120D01*
X129245Y5137D01*
X129269Y5146D01*
X129311Y5191D01*
X129358Y5230D01*
X129369Y5254D01*
X129387Y5273D01*
X129404Y5332D01*
X129429Y5389D01*
X129428Y5414D01*
X129436Y5439D01*
X129425Y5500D01*
X129423Y5562D01*
X129410Y5584D01*
X129406Y5610D01*
X129358Y5681D01*
X129340Y5714D01*
X129332Y5720D01*
X129325Y5730D01*
X126999Y8055D01*
X126999Y12265D01*
X129975Y15241D01*
X136758Y15241D01*
X136808Y15252D01*
X136859Y15254D01*
X136891Y15272D01*
X136927Y15280D01*
X136966Y15313D01*
X137011Y15337D01*
X137032Y15367D01*
X137060Y15390D01*
X137081Y15437D01*
X137111Y15479D01*
X137119Y15521D01*
X137131Y15549D01*
X137130Y15579D01*
X137138Y15621D01*
X137138Y30553D01*
X152633Y30553D01*
X152683Y30564D01*
X152734Y30566D01*
X152766Y30584D01*
X152802Y30592D01*
X152841Y30625D01*
X152886Y30649D01*
X152907Y30679D01*
X152935Y30702D01*
X152956Y30749D01*
X152986Y30791D01*
X152994Y30833D01*
X153006Y30861D01*
X153006Y30865D01*
X153005Y30892D01*
X153013Y30933D01*
X153013Y31315D01*
X153015Y31315D01*
X153015Y30933D01*
X153026Y30883D01*
X153028Y30832D01*
X153046Y30800D01*
X153054Y30764D01*
X153087Y30725D01*
X153111Y30680D01*
X153141Y30659D01*
X153165Y30631D01*
X153211Y30610D01*
X153253Y30580D01*
X153295Y30572D01*
X153323Y30560D01*
X153353Y30561D01*
X153395Y30553D01*
X168890Y30553D01*
X168890Y15621D01*
X168901Y15571D01*
X168903Y15520D01*
X168921Y15488D01*
X168929Y15452D01*
X168962Y15413D01*
X168986Y15368D01*
X169016Y15347D01*
X169039Y15319D01*
X169086Y15298D01*
X169128Y15268D01*
X169170Y15260D01*
X169198Y15248D01*
X169228Y15249D01*
X169270Y15241D01*
X206650Y15241D01*
X206700Y15252D01*
X206751Y15254D01*
X206783Y15272D01*
X206819Y15280D01*
X206858Y15313D01*
X206903Y15337D01*
X206924Y15367D01*
X206952Y15390D01*
X206973Y15437D01*
X207003Y15479D01*
X207011Y15521D01*
X207023Y15549D01*
X207022Y15579D01*
X207030Y15621D01*
X207030Y30553D01*
X222525Y30553D01*
X222575Y30564D01*
X222626Y30566D01*
X222658Y30584D01*
X222694Y30592D01*
X222733Y30625D01*
X222778Y30649D01*
X222799Y30679D01*
X222827Y30702D01*
X222848Y30749D01*
X222878Y30791D01*
X222886Y30833D01*
X222898Y30861D01*
X222898Y30865D01*
X222897Y30892D01*
X222905Y30933D01*
X222905Y31315D01*
X222907Y31315D01*
X222907Y30933D01*
X222918Y30883D01*
X222920Y30832D01*
X222938Y30800D01*
X222946Y30764D01*
X222979Y30725D01*
X223003Y30680D01*
X223033Y30659D01*
X223057Y30631D01*
X223103Y30610D01*
X223145Y30580D01*
X223187Y30572D01*
X223215Y30560D01*
X223245Y30561D01*
X223287Y30553D01*
X238782Y30553D01*
X238782Y15621D01*
X238793Y15571D01*
X238795Y15520D01*
X238813Y15488D01*
X238821Y15452D01*
X238854Y15413D01*
X238878Y15368D01*
X238908Y15347D01*
X238931Y15319D01*
X238978Y15298D01*
X239020Y15268D01*
X239062Y15260D01*
X239090Y15248D01*
X239120Y15249D01*
X239162Y15241D01*
X245945Y15241D01*
X248921Y12265D01*
X248921Y8055D01*
X246595Y5730D01*
X246581Y5708D01*
X246562Y5692D01*
X246536Y5635D01*
X246504Y5583D01*
X246501Y5557D01*
X246491Y5533D01*
X246493Y5472D01*
X246487Y5410D01*
X246496Y5386D01*
X246497Y5360D01*
X246527Y5306D01*
X246549Y5248D01*
X246568Y5231D01*
X246580Y5208D01*
X246630Y5173D01*
X246676Y5131D01*
X246701Y5123D01*
X246722Y5108D01*
X246806Y5092D01*
X246842Y5081D01*
X246852Y5083D01*
X246864Y5081D01*
X324539Y5081D01*
X324589Y5092D01*
X324640Y5094D01*
X324672Y5112D01*
X324708Y5120D01*
X324747Y5153D01*
X324792Y5177D01*
X324813Y5207D01*
X324841Y5230D01*
X324862Y5277D01*
X324892Y5319D01*
X324900Y5361D01*
X324912Y5389D01*
X324911Y5419D01*
X324919Y5461D01*
X324919Y324539D01*
X324908Y324589D01*
X324906Y324640D01*
X324888Y324672D01*
X324880Y324708D01*
X324847Y324747D01*
X324823Y324792D01*
X324793Y324813D01*
X324770Y324841D01*
X324723Y324862D01*
X324681Y324892D01*
X324639Y324900D01*
X324611Y324912D01*
X324581Y324911D01*
X324539Y324919D01*
X5461Y324919D01*
X5411Y324908D01*
X5360Y324906D01*
X5328Y324888D01*
X5292Y324880D01*
X5253Y324847D01*
X5208Y324823D01*
X5187Y324793D01*
X5159Y324770D01*
X5138Y324723D01*
X5108Y324681D01*
X5100Y324639D01*
X5088Y324611D01*
X5089Y324581D01*
X5081Y324539D01*
X5081Y208764D01*
X5087Y208739D01*
X5084Y208713D01*
X5106Y208655D01*
X5120Y208595D01*
X5137Y208575D01*
X5146Y208551D01*
X5191Y208509D01*
X5230Y208462D01*
X5254Y208451D01*
X5273Y208433D01*
X5332Y208416D01*
X5389Y208391D01*
X5414Y208392D01*
X5439Y208384D01*
X5500Y208395D01*
X5562Y208397D01*
X5584Y208410D01*
X5610Y208414D01*
X5681Y208462D01*
X5714Y208480D01*
X5720Y208488D01*
X5730Y208495D01*
X8055Y210821D01*
X12265Y210821D01*
X15241Y207845D01*
X15241Y201062D01*
X15252Y201012D01*
X15254Y200961D01*
X15272Y200929D01*
X15280Y200893D01*
X15313Y200854D01*
X15337Y200809D01*
X15367Y200788D01*
X15390Y200760D01*
X15437Y200739D01*
X15479Y200709D01*
X15521Y200701D01*
X15549Y200689D01*
X15579Y200690D01*
X15621Y200682D01*
X30553Y200682D01*
X30553Y185187D01*
X30564Y185137D01*
X30566Y185086D01*
X30584Y185054D01*
X30592Y185018D01*
X30625Y184979D01*
X30649Y184934D01*
X30679Y184913D01*
X30702Y184885D01*
X30749Y184864D01*
X30791Y184834D01*
X30833Y184826D01*
X30861Y184814D01*
X30891Y184815D01*
X30933Y184807D01*
X31315Y184807D01*
X31315Y184805D01*
X30933Y184805D01*
X30883Y184794D01*
X30832Y184792D01*
X30800Y184774D01*
X30764Y184766D01*
X30725Y184733D01*
X30680Y184709D01*
X30659Y184679D01*
X30631Y184655D01*
X30610Y184609D01*
X30580Y184567D01*
X30572Y184525D01*
X30560Y184497D01*
X30561Y184467D01*
X30553Y184425D01*
X30553Y168930D01*
X15621Y168930D01*
X15571Y168919D01*
X15520Y168917D01*
X15488Y168899D01*
X15452Y168891D01*
X15413Y168858D01*
X15368Y168834D01*
X15347Y168804D01*
X15319Y168781D01*
X15298Y168734D01*
X15268Y168692D01*
X15260Y168650D01*
X15248Y168622D01*
X15249Y168592D01*
X15241Y168550D01*
X15241Y131170D01*
X15252Y131120D01*
X15254Y131069D01*
X15272Y131037D01*
X15280Y131001D01*
X15313Y130962D01*
X15337Y130917D01*
X15367Y130896D01*
X15390Y130868D01*
X15437Y130847D01*
X15479Y130817D01*
X15521Y130809D01*
X15549Y130797D01*
X15579Y130798D01*
X15621Y130790D01*
X30553Y130790D01*
X30553Y115295D01*
X30564Y115245D01*
X30566Y115194D01*
X30584Y115162D01*
X30592Y115126D01*
X30625Y115087D01*
X30649Y115042D01*
X30679Y115021D01*
X30702Y114993D01*
X30749Y114972D01*
X30791Y114942D01*
X30833Y114934D01*
X30861Y114922D01*
X30891Y114923D01*
X30933Y114915D01*
X31315Y114915D01*
X31315Y114913D01*
X30933Y114913D01*
X30883Y114902D01*
X30832Y114900D01*
X30800Y114882D01*
X30764Y114874D01*
X30725Y114841D01*
X30680Y114817D01*
X30659Y114787D01*
X30631Y114763D01*
X30610Y114717D01*
X30580Y114675D01*
X30572Y114633D01*
X30560Y114605D01*
X30561Y114575D01*
X30553Y114533D01*
X30553Y99038D01*
X15621Y99038D01*
X15571Y99027D01*
X15520Y99025D01*
X15488Y99007D01*
X15452Y98999D01*
X15413Y98966D01*
X15368Y98942D01*
X15347Y98912D01*
X15319Y98889D01*
X15298Y98842D01*
X15268Y98800D01*
X15260Y98758D01*
X15248Y98730D01*
X15249Y98700D01*
X15248Y98695D01*
X15248Y98694D01*
X15241Y98658D01*
X15241Y91875D01*
X12265Y88899D01*
X8055Y88899D01*
X5730Y91225D01*
X5708Y91239D01*
X5692Y91258D01*
X5635Y91284D01*
X5583Y91316D01*
X5557Y91319D01*
X5533Y91329D01*
X5472Y91327D01*
X5410Y91333D01*
X5386Y91324D01*
X5360Y91323D01*
X5306Y91293D01*
X5248Y91271D01*
X5231Y91252D01*
X5208Y91240D01*
X5173Y91190D01*
X5131Y91144D01*
X5123Y91119D01*
X5108Y91098D01*
X5092Y91014D01*
X5081Y90978D01*
X5083Y90968D01*
X5081Y90956D01*
X5081Y5461D01*
X5092Y5411D01*
X5094Y5360D01*
X5112Y5328D01*
X5120Y5292D01*
X5153Y5253D01*
X5177Y5208D01*
X5207Y5187D01*
X5230Y5159D01*
X5277Y5138D01*
X5319Y5108D01*
X5361Y5100D01*
X5389Y5088D01*
X5419Y5089D01*
X5461Y5081D01*
X129056Y5081D01*
X129081Y5087D01*
G37*
%LPC*%
G36*
X315395Y73659D02*
X315395Y73659D01*
X312419Y76635D01*
X312419Y83418D01*
X312408Y83468D01*
X312406Y83519D01*
X312388Y83551D01*
X312380Y83587D01*
X312347Y83626D01*
X312323Y83671D01*
X312293Y83692D01*
X312270Y83720D01*
X312223Y83741D01*
X312181Y83771D01*
X312139Y83779D01*
X312111Y83791D01*
X312081Y83790D01*
X312039Y83798D01*
X297107Y83798D01*
X297107Y99293D01*
X297096Y99343D01*
X297094Y99394D01*
X297076Y99426D01*
X297068Y99462D01*
X297035Y99501D01*
X297011Y99546D01*
X296981Y99567D01*
X296957Y99595D01*
X296911Y99616D01*
X296869Y99646D01*
X296827Y99654D01*
X296799Y99666D01*
X296769Y99665D01*
X296727Y99673D01*
X296345Y99673D01*
X296345Y99675D01*
X296727Y99675D01*
X296777Y99686D01*
X296828Y99688D01*
X296860Y99706D01*
X296896Y99714D01*
X296935Y99747D01*
X296980Y99771D01*
X297001Y99801D01*
X297029Y99825D01*
X297050Y99871D01*
X297080Y99913D01*
X297088Y99955D01*
X297100Y99983D01*
X297099Y100013D01*
X297107Y100055D01*
X297107Y115550D01*
X312039Y115550D01*
X312089Y115561D01*
X312140Y115563D01*
X312172Y115581D01*
X312208Y115589D01*
X312247Y115622D01*
X312292Y115646D01*
X312313Y115676D01*
X312341Y115699D01*
X312362Y115746D01*
X312392Y115788D01*
X312400Y115830D01*
X312412Y115858D01*
X312411Y115888D01*
X312419Y115930D01*
X312419Y153310D01*
X312408Y153360D01*
X312406Y153411D01*
X312388Y153443D01*
X312380Y153479D01*
X312347Y153518D01*
X312323Y153563D01*
X312293Y153584D01*
X312270Y153612D01*
X312223Y153633D01*
X312181Y153663D01*
X312139Y153671D01*
X312111Y153683D01*
X312081Y153682D01*
X312039Y153690D01*
X297107Y153690D01*
X297107Y169185D01*
X297096Y169235D01*
X297094Y169286D01*
X297076Y169318D01*
X297068Y169354D01*
X297035Y169393D01*
X297011Y169438D01*
X296981Y169459D01*
X296957Y169487D01*
X296911Y169508D01*
X296869Y169538D01*
X296827Y169546D01*
X296799Y169558D01*
X296769Y169557D01*
X296727Y169565D01*
X296345Y169565D01*
X296345Y169567D01*
X296727Y169567D01*
X296777Y169578D01*
X296828Y169580D01*
X296860Y169598D01*
X296896Y169606D01*
X296935Y169639D01*
X296980Y169663D01*
X297001Y169693D01*
X297029Y169717D01*
X297050Y169763D01*
X297080Y169805D01*
X297088Y169847D01*
X297100Y169875D01*
X297099Y169905D01*
X297107Y169947D01*
X297107Y185442D01*
X312039Y185442D01*
X312089Y185453D01*
X312140Y185455D01*
X312172Y185473D01*
X312208Y185481D01*
X312247Y185514D01*
X312292Y185538D01*
X312313Y185568D01*
X312341Y185591D01*
X312362Y185638D01*
X312392Y185680D01*
X312400Y185722D01*
X312412Y185750D01*
X312411Y185780D01*
X312419Y185822D01*
X312419Y192605D01*
X315395Y195581D01*
X319605Y195581D01*
X322581Y192605D01*
X322581Y76635D01*
X319605Y73659D01*
X315395Y73659D01*
G37*
%LPD*%
%LPC*%
G36*
X50613Y279145D02*
X50613Y279145D01*
X45105Y281427D01*
X40889Y285643D01*
X38607Y291151D01*
X38607Y297113D01*
X40889Y302621D01*
X45105Y306837D01*
X50613Y309119D01*
X76387Y309119D01*
X81895Y306837D01*
X86111Y302621D01*
X88393Y297113D01*
X88393Y291151D01*
X86111Y285643D01*
X81895Y281427D01*
X76387Y279145D01*
X50613Y279145D01*
G37*
%LPD*%
%LPC*%
G36*
X136006Y169919D02*
X136006Y169919D01*
X128625Y172976D01*
X122976Y178625D01*
X119919Y186006D01*
X119919Y193994D01*
X122976Y201375D01*
X128625Y207024D01*
X136006Y210081D01*
X143994Y210081D01*
X151375Y207024D01*
X157024Y201375D01*
X160081Y193994D01*
X160081Y186006D01*
X157024Y178625D01*
X151375Y172976D01*
X143994Y169919D01*
X136006Y169919D01*
G37*
%LPD*%
%LPC*%
G36*
X276006Y19919D02*
X276006Y19919D01*
X268625Y22976D01*
X262976Y28625D01*
X259919Y36006D01*
X259919Y43994D01*
X262976Y51375D01*
X268625Y57024D01*
X276006Y60081D01*
X283994Y60081D01*
X291375Y57024D01*
X297024Y51375D01*
X300081Y43994D01*
X300081Y36006D01*
X297024Y28625D01*
X291375Y22976D01*
X283994Y19919D01*
X276006Y19919D01*
G37*
%LPD*%
%LPC*%
G36*
X36006Y19919D02*
X36006Y19919D01*
X28625Y22976D01*
X22976Y28625D01*
X19919Y36006D01*
X19919Y43994D01*
X22976Y51375D01*
X28625Y57024D01*
X36006Y60081D01*
X43994Y60081D01*
X51375Y57024D01*
X57024Y51375D01*
X60081Y43994D01*
X60081Y36006D01*
X57024Y28625D01*
X51375Y22976D01*
X43994Y19919D01*
X36006Y19919D01*
G37*
%LPD*%
%LPC*%
G36*
X32075Y185567D02*
X32075Y185567D01*
X32075Y200682D01*
X52604Y200682D01*
X53250Y200509D01*
X53829Y200174D01*
X54302Y199701D01*
X54637Y199122D01*
X54810Y198476D01*
X54810Y185567D01*
X32075Y185567D01*
G37*
%LPD*%
%LPC*%
G36*
X32075Y115675D02*
X32075Y115675D01*
X32075Y130790D01*
X52604Y130790D01*
X53250Y130617D01*
X53829Y130282D01*
X54302Y129809D01*
X54637Y129230D01*
X54810Y128584D01*
X54810Y115675D01*
X32075Y115675D01*
G37*
%LPD*%
%LPC*%
G36*
X223667Y32075D02*
X223667Y32075D01*
X223667Y54810D01*
X236576Y54810D01*
X237222Y54637D01*
X237801Y54302D01*
X238274Y53829D01*
X238609Y53250D01*
X238782Y52604D01*
X238782Y32075D01*
X223667Y32075D01*
G37*
%LPD*%
%LPC*%
G36*
X153775Y32075D02*
X153775Y32075D01*
X153775Y54810D01*
X166684Y54810D01*
X167330Y54637D01*
X167909Y54302D01*
X168382Y53829D01*
X168717Y53250D01*
X168890Y52604D01*
X168890Y32075D01*
X153775Y32075D01*
G37*
%LPD*%
%LPC*%
G36*
X272850Y170327D02*
X272850Y170327D01*
X272850Y183236D01*
X273023Y183882D01*
X273358Y184461D01*
X273831Y184934D01*
X274410Y185269D01*
X275056Y185442D01*
X295585Y185442D01*
X295585Y170327D01*
X272850Y170327D01*
G37*
%LPD*%
%LPC*%
G36*
X272850Y100435D02*
X272850Y100435D01*
X272850Y113344D01*
X273023Y113990D01*
X273358Y114569D01*
X273831Y115042D01*
X274410Y115377D01*
X275056Y115550D01*
X295585Y115550D01*
X295585Y100435D01*
X272850Y100435D01*
G37*
%LPD*%
%LPC*%
G36*
X32075Y168930D02*
X32075Y168930D01*
X32075Y184045D01*
X54810Y184045D01*
X54810Y171136D01*
X54637Y170490D01*
X54302Y169911D01*
X53829Y169438D01*
X53250Y169103D01*
X52604Y168930D01*
X32075Y168930D01*
G37*
%LPD*%
%LPC*%
G36*
X32075Y99038D02*
X32075Y99038D01*
X32075Y114153D01*
X54810Y114153D01*
X54810Y101244D01*
X54637Y100598D01*
X54302Y100019D01*
X53829Y99546D01*
X53250Y99211D01*
X52604Y99038D01*
X32075Y99038D01*
G37*
%LPD*%
%LPC*%
G36*
X207030Y32075D02*
X207030Y32075D01*
X207030Y52604D01*
X207203Y53250D01*
X207538Y53829D01*
X208011Y54302D01*
X208590Y54637D01*
X209236Y54810D01*
X222145Y54810D01*
X222145Y32075D01*
X207030Y32075D01*
G37*
%LPD*%
%LPC*%
G36*
X137138Y32075D02*
X137138Y32075D01*
X137138Y52604D01*
X137311Y53250D01*
X137646Y53829D01*
X138119Y54302D01*
X138698Y54637D01*
X139344Y54810D01*
X152253Y54810D01*
X152253Y32075D01*
X137138Y32075D01*
G37*
%LPD*%
%LPC*%
G36*
X275056Y153690D02*
X275056Y153690D01*
X274410Y153863D01*
X273831Y154198D01*
X273358Y154671D01*
X273023Y155250D01*
X272850Y155896D01*
X272850Y168805D01*
X295585Y168805D01*
X295585Y153690D01*
X275056Y153690D01*
G37*
%LPD*%
%LPC*%
G36*
X275056Y83798D02*
X275056Y83798D01*
X274410Y83971D01*
X273831Y84306D01*
X273358Y84779D01*
X273023Y85358D01*
X272850Y86004D01*
X272850Y98913D01*
X295585Y98913D01*
X295585Y83798D01*
X275056Y83798D01*
G37*
%LPD*%
%LPC*%
G36*
X64261Y244855D02*
X64261Y244855D01*
X64261Y256541D01*
X74386Y256541D01*
X76321Y256234D01*
X78184Y255629D01*
X79930Y254739D01*
X81515Y253588D01*
X82900Y252203D01*
X84051Y250618D01*
X84941Y248872D01*
X85546Y247009D01*
X85853Y245074D01*
X85853Y244855D01*
X64261Y244855D01*
G37*
%LPD*%
%LPC*%
G36*
X41147Y244855D02*
X41147Y244855D01*
X41147Y245074D01*
X41454Y247009D01*
X42059Y248872D01*
X42949Y250618D01*
X44100Y252203D01*
X45485Y253588D01*
X47070Y254739D01*
X48816Y255629D01*
X50679Y256234D01*
X52614Y256541D01*
X62739Y256541D01*
X62739Y244855D01*
X41147Y244855D01*
G37*
%LPD*%
%LPC*%
G36*
X64261Y231647D02*
X64261Y231647D01*
X64261Y243333D01*
X85853Y243333D01*
X85853Y243114D01*
X85546Y241179D01*
X84941Y239316D01*
X84051Y237570D01*
X82900Y235985D01*
X81515Y234600D01*
X79930Y233449D01*
X78184Y232559D01*
X76321Y231954D01*
X74386Y231647D01*
X64261Y231647D01*
G37*
%LPD*%
%LPC*%
G36*
X52614Y231647D02*
X52614Y231647D01*
X50679Y231954D01*
X48816Y232559D01*
X47070Y233449D01*
X45485Y234600D01*
X44100Y235985D01*
X42949Y237570D01*
X42059Y239316D01*
X41454Y241179D01*
X41147Y243114D01*
X41147Y243333D01*
X62739Y243333D01*
X62739Y231647D01*
X52614Y231647D01*
G37*
%LPD*%
%LPC*%
G36*
X63499Y244093D02*
X63499Y244093D01*
X63499Y244095D01*
X63501Y244095D01*
X63501Y244093D01*
X63499Y244093D01*
G37*
%LPD*%
D10*
X73406Y244094D02*
X53594Y244094D01*
X53594Y294132D02*
X73406Y294132D01*
D11*
X222906Y31314D03*
X153014Y31314D03*
D12*
X31314Y114914D03*
X31314Y184806D03*
X296346Y169566D03*
X296346Y99674D03*
M02*
