G04 EAGLE Gerber RS-274X export*
G75*
%MOMM*%
%FSLAX34Y34*%
%LPD*%
%INSoldermask Top*%
%IPPOS*%
%AMOC8*
5,1,8,0,0,1.08239X$1,22.5*%
G01*
%ADD10C,3.203200*%
%ADD11R,1.703200X1.503200*%
%ADD12R,1.503200X1.703200*%
%ADD13R,1.403200X1.703200*%
%ADD14R,6.403200X5.603200*%
%ADD15R,1.803200X1.203200*%
%ADD16R,2.403200X0.803200*%
%ADD17C,2.184400*%
%ADD18R,1.981200X4.394200*%
%ADD19R,2.870200X4.394200*%
%ADD20R,4.394200X1.981200*%
%ADD21R,4.394200X2.870200*%
%ADD22R,1.503200X1.803200*%


D10*
X40000Y40000D03*
X280000Y40000D03*
X140000Y190000D03*
D11*
X139700Y274980D03*
X139700Y293980D03*
X190500Y293980D03*
X190500Y274980D03*
D12*
X98400Y149860D03*
X79400Y149860D03*
X230480Y203200D03*
X211480Y203200D03*
D11*
X129540Y114960D03*
X129540Y133960D03*
X187960Y88240D03*
X187960Y69240D03*
D12*
X230480Y175260D03*
X211480Y175260D03*
D11*
X243840Y133960D03*
X243840Y114960D03*
D13*
X165100Y269980D03*
X165100Y298980D03*
D14*
X284080Y251460D03*
D15*
X211080Y274260D03*
X211080Y228660D03*
D16*
X159420Y137160D03*
X211420Y137160D03*
X159420Y149860D03*
X159420Y124460D03*
X159420Y111760D03*
X211420Y149860D03*
X211420Y124460D03*
X211420Y111760D03*
D17*
X73406Y244094D02*
X53594Y244094D01*
X53594Y294132D02*
X73406Y294132D01*
D18*
X187960Y31314D03*
D19*
X153014Y31314D03*
X222906Y31314D03*
D20*
X31314Y149860D03*
D21*
X31314Y184806D03*
X31314Y114914D03*
D20*
X296346Y134620D03*
D21*
X296346Y99674D03*
X296346Y169566D03*
D22*
X142900Y71120D03*
X161900Y71120D03*
M02*
