G04 EAGLE Gerber RS-274X export*
G75*
%MOMM*%
%FSLAX34Y34*%
%LPD*%
%INBottom Copper*%
%IPPOS*%
%AMOC8*
5,1,8,0,0,1.08239X$1,22.5*%
G01*
%ADD10R,4.191000X2.667000*%

G36*
X669194Y5085D02*
X669194Y5085D01*
X669219Y5082D01*
X669314Y5104D01*
X669411Y5120D01*
X669432Y5132D01*
X669456Y5138D01*
X669540Y5189D01*
X669626Y5235D01*
X669643Y5253D01*
X669664Y5266D01*
X669726Y5342D01*
X669793Y5413D01*
X669803Y5436D01*
X669819Y5455D01*
X669853Y5546D01*
X669894Y5636D01*
X669896Y5660D01*
X669905Y5683D01*
X669919Y5830D01*
X669919Y37329D01*
X669917Y37342D01*
X669918Y37347D01*
X669916Y37356D01*
X669918Y37378D01*
X669896Y37473D01*
X669880Y37570D01*
X669868Y37591D01*
X669862Y37615D01*
X669811Y37699D01*
X669765Y37785D01*
X669747Y37802D01*
X669734Y37823D01*
X669658Y37885D01*
X669587Y37952D01*
X669564Y37962D01*
X669545Y37978D01*
X669454Y38012D01*
X669364Y38053D01*
X669340Y38055D01*
X669317Y38064D01*
X669170Y38078D01*
X655985Y38078D01*
X655985Y53204D01*
X655981Y53228D01*
X655984Y53252D01*
X655961Y53348D01*
X655945Y53445D01*
X655934Y53466D01*
X655928Y53490D01*
X655877Y53573D01*
X655830Y53660D01*
X655813Y53677D01*
X655800Y53697D01*
X655724Y53760D01*
X655652Y53827D01*
X655630Y53837D01*
X655611Y53852D01*
X655520Y53887D01*
X655430Y53928D01*
X655406Y53930D01*
X655383Y53939D01*
X655236Y53953D01*
X654485Y53953D01*
X654485Y53955D01*
X655236Y53955D01*
X655260Y53959D01*
X655284Y53956D01*
X655380Y53979D01*
X655477Y53995D01*
X655498Y54006D01*
X655522Y54012D01*
X655605Y54063D01*
X655692Y54110D01*
X655709Y54127D01*
X655729Y54140D01*
X655792Y54216D01*
X655859Y54288D01*
X655869Y54310D01*
X655884Y54329D01*
X655919Y54420D01*
X655960Y54510D01*
X655962Y54534D01*
X655971Y54557D01*
X655985Y54704D01*
X655985Y69830D01*
X669170Y69830D01*
X669194Y69834D01*
X669219Y69831D01*
X669314Y69853D01*
X669411Y69869D01*
X669432Y69881D01*
X669456Y69887D01*
X669540Y69938D01*
X669626Y69984D01*
X669643Y70002D01*
X669664Y70015D01*
X669726Y70091D01*
X669793Y70162D01*
X669803Y70185D01*
X669819Y70204D01*
X669853Y70295D01*
X669894Y70385D01*
X669896Y70409D01*
X669905Y70432D01*
X669919Y70579D01*
X669919Y107221D01*
X669915Y107245D01*
X669918Y107270D01*
X669896Y107365D01*
X669880Y107462D01*
X669868Y107483D01*
X669862Y107507D01*
X669811Y107591D01*
X669765Y107677D01*
X669747Y107694D01*
X669734Y107715D01*
X669658Y107777D01*
X669587Y107844D01*
X669564Y107854D01*
X669545Y107870D01*
X669454Y107904D01*
X669364Y107945D01*
X669340Y107947D01*
X669317Y107956D01*
X669170Y107970D01*
X655985Y107970D01*
X655985Y123096D01*
X655981Y123120D01*
X655984Y123144D01*
X655961Y123240D01*
X655945Y123337D01*
X655934Y123358D01*
X655928Y123382D01*
X655877Y123465D01*
X655830Y123552D01*
X655813Y123569D01*
X655800Y123589D01*
X655724Y123652D01*
X655652Y123719D01*
X655630Y123729D01*
X655611Y123744D01*
X655520Y123779D01*
X655430Y123820D01*
X655406Y123822D01*
X655383Y123831D01*
X655236Y123845D01*
X654485Y123845D01*
X654485Y123847D01*
X655236Y123847D01*
X655260Y123851D01*
X655284Y123848D01*
X655380Y123871D01*
X655477Y123887D01*
X655498Y123898D01*
X655522Y123904D01*
X655605Y123955D01*
X655692Y124002D01*
X655709Y124019D01*
X655729Y124032D01*
X655792Y124108D01*
X655859Y124180D01*
X655869Y124202D01*
X655884Y124221D01*
X655919Y124312D01*
X655960Y124402D01*
X655962Y124426D01*
X655971Y124449D01*
X655985Y124596D01*
X655985Y139722D01*
X669170Y139722D01*
X669194Y139726D01*
X669219Y139723D01*
X669314Y139745D01*
X669411Y139761D01*
X669432Y139773D01*
X669456Y139779D01*
X669540Y139830D01*
X669626Y139876D01*
X669643Y139894D01*
X669664Y139907D01*
X669726Y139983D01*
X669793Y140054D01*
X669803Y140077D01*
X669819Y140096D01*
X669853Y140187D01*
X669894Y140277D01*
X669896Y140301D01*
X669905Y140324D01*
X669919Y140471D01*
X669919Y174170D01*
X669915Y174194D01*
X669918Y174219D01*
X669896Y174314D01*
X669880Y174411D01*
X669868Y174432D01*
X669862Y174456D01*
X669811Y174540D01*
X669765Y174626D01*
X669747Y174643D01*
X669734Y174664D01*
X669658Y174726D01*
X669587Y174793D01*
X669564Y174803D01*
X669545Y174819D01*
X669454Y174853D01*
X669364Y174894D01*
X669340Y174896D01*
X669317Y174905D01*
X669170Y174919D01*
X5830Y174919D01*
X5806Y174915D01*
X5781Y174918D01*
X5686Y174896D01*
X5589Y174880D01*
X5568Y174868D01*
X5544Y174862D01*
X5460Y174811D01*
X5374Y174765D01*
X5357Y174747D01*
X5336Y174734D01*
X5274Y174658D01*
X5207Y174587D01*
X5197Y174564D01*
X5181Y174545D01*
X5147Y174454D01*
X5106Y174364D01*
X5104Y174340D01*
X5095Y174317D01*
X5081Y174170D01*
X5081Y149735D01*
X5097Y149639D01*
X5106Y149542D01*
X5116Y149519D01*
X5120Y149494D01*
X5166Y149408D01*
X5207Y149319D01*
X5228Y149294D01*
X5235Y149279D01*
X5254Y149262D01*
X5300Y149205D01*
X6351Y148154D01*
X6351Y141741D01*
X6355Y141717D01*
X6352Y141692D01*
X6374Y141597D01*
X6390Y141500D01*
X6402Y141479D01*
X6408Y141455D01*
X6459Y141371D01*
X6505Y141285D01*
X6523Y141268D01*
X6536Y141247D01*
X6612Y141185D01*
X6683Y141118D01*
X6706Y141108D01*
X6725Y141092D01*
X6816Y141058D01*
X6906Y141017D01*
X6930Y141015D01*
X6953Y141006D01*
X7100Y140992D01*
X20925Y140992D01*
X20925Y125866D01*
X20929Y125842D01*
X20926Y125818D01*
X20949Y125722D01*
X20965Y125625D01*
X20976Y125604D01*
X20982Y125580D01*
X21033Y125497D01*
X21080Y125410D01*
X21097Y125393D01*
X21110Y125373D01*
X21186Y125310D01*
X21258Y125243D01*
X21280Y125233D01*
X21299Y125218D01*
X21390Y125183D01*
X21480Y125142D01*
X21504Y125140D01*
X21527Y125131D01*
X21674Y125117D01*
X22425Y125117D01*
X22425Y125115D01*
X21674Y125115D01*
X21650Y125111D01*
X21626Y125114D01*
X21530Y125091D01*
X21433Y125075D01*
X21412Y125064D01*
X21388Y125058D01*
X21304Y125007D01*
X21218Y124960D01*
X21201Y124943D01*
X21181Y124930D01*
X21118Y124854D01*
X21051Y124782D01*
X21041Y124760D01*
X21026Y124741D01*
X20991Y124650D01*
X20950Y124560D01*
X20948Y124536D01*
X20939Y124513D01*
X20925Y124366D01*
X20925Y109240D01*
X7100Y109240D01*
X7076Y109236D01*
X7051Y109239D01*
X6956Y109217D01*
X6859Y109201D01*
X6838Y109189D01*
X6814Y109183D01*
X6730Y109132D01*
X6644Y109086D01*
X6627Y109068D01*
X6606Y109055D01*
X6544Y108979D01*
X6477Y108908D01*
X6467Y108885D01*
X6451Y108866D01*
X6417Y108775D01*
X6376Y108685D01*
X6374Y108661D01*
X6365Y108638D01*
X6351Y108491D01*
X6351Y71849D01*
X6355Y71825D01*
X6352Y71800D01*
X6374Y71705D01*
X6390Y71608D01*
X6402Y71587D01*
X6408Y71563D01*
X6459Y71479D01*
X6505Y71393D01*
X6523Y71376D01*
X6536Y71355D01*
X6612Y71293D01*
X6683Y71226D01*
X6706Y71216D01*
X6725Y71200D01*
X6816Y71166D01*
X6906Y71125D01*
X6930Y71123D01*
X6953Y71114D01*
X7100Y71100D01*
X20925Y71100D01*
X20925Y55974D01*
X20929Y55950D01*
X20926Y55926D01*
X20949Y55830D01*
X20965Y55733D01*
X20976Y55712D01*
X20982Y55688D01*
X21033Y55605D01*
X21080Y55518D01*
X21097Y55501D01*
X21110Y55481D01*
X21186Y55418D01*
X21258Y55351D01*
X21280Y55341D01*
X21299Y55326D01*
X21390Y55291D01*
X21480Y55250D01*
X21504Y55248D01*
X21527Y55239D01*
X21674Y55225D01*
X22425Y55225D01*
X22425Y55223D01*
X21674Y55223D01*
X21650Y55219D01*
X21626Y55222D01*
X21530Y55199D01*
X21433Y55183D01*
X21412Y55172D01*
X21388Y55166D01*
X21304Y55115D01*
X21218Y55068D01*
X21201Y55051D01*
X21181Y55038D01*
X21118Y54962D01*
X21051Y54890D01*
X21041Y54868D01*
X21026Y54849D01*
X20991Y54758D01*
X20950Y54668D01*
X20948Y54644D01*
X20939Y54621D01*
X20925Y54474D01*
X20925Y39348D01*
X7100Y39348D01*
X7076Y39344D01*
X7051Y39347D01*
X6956Y39325D01*
X6859Y39309D01*
X6838Y39297D01*
X6814Y39291D01*
X6730Y39240D01*
X6644Y39194D01*
X6627Y39176D01*
X6606Y39163D01*
X6544Y39087D01*
X6477Y39016D01*
X6467Y38993D01*
X6451Y38974D01*
X6417Y38883D01*
X6376Y38793D01*
X6374Y38769D01*
X6365Y38746D01*
X6351Y38599D01*
X6351Y32186D01*
X5300Y31135D01*
X5243Y31056D01*
X5181Y30980D01*
X5173Y30957D01*
X5158Y30937D01*
X5130Y30843D01*
X5095Y30752D01*
X5092Y30719D01*
X5087Y30703D01*
X5088Y30678D01*
X5081Y30605D01*
X5081Y5830D01*
X5085Y5806D01*
X5082Y5781D01*
X5104Y5686D01*
X5120Y5589D01*
X5132Y5568D01*
X5138Y5544D01*
X5189Y5460D01*
X5235Y5374D01*
X5253Y5357D01*
X5266Y5336D01*
X5342Y5274D01*
X5413Y5207D01*
X5436Y5197D01*
X5455Y5181D01*
X5546Y5147D01*
X5636Y5106D01*
X5660Y5104D01*
X5683Y5095D01*
X5830Y5081D01*
X669170Y5081D01*
X669194Y5085D01*
G37*
%LPC*%
G36*
X505846Y119919D02*
X505846Y119919D01*
X498465Y122976D01*
X492816Y128625D01*
X489759Y136006D01*
X489759Y143994D01*
X492816Y151375D01*
X498465Y157024D01*
X505846Y160081D01*
X513834Y160081D01*
X521215Y157024D01*
X526864Y151375D01*
X529921Y143994D01*
X529921Y136006D01*
X526864Y128625D01*
X521215Y122976D01*
X513834Y119919D01*
X505846Y119919D01*
G37*
%LPD*%
%LPC*%
G36*
X155846Y119919D02*
X155846Y119919D01*
X148465Y122976D01*
X142816Y128625D01*
X139759Y136006D01*
X139759Y143994D01*
X142816Y151375D01*
X148465Y157024D01*
X155846Y160081D01*
X163834Y160081D01*
X171215Y157024D01*
X176864Y151375D01*
X179921Y143994D01*
X179921Y136006D01*
X176864Y128625D01*
X171215Y122976D01*
X163834Y119919D01*
X155846Y119919D01*
G37*
%LPD*%
%LPC*%
G36*
X330846Y19919D02*
X330846Y19919D01*
X323465Y22976D01*
X317816Y28625D01*
X314759Y36006D01*
X314759Y43994D01*
X317816Y51375D01*
X323465Y57024D01*
X330846Y60081D01*
X338834Y60081D01*
X346215Y57024D01*
X351864Y51375D01*
X354921Y43994D01*
X354921Y36006D01*
X351864Y28625D01*
X346215Y22976D01*
X338834Y19919D01*
X330846Y19919D01*
G37*
%LPD*%
%LPC*%
G36*
X23923Y126615D02*
X23923Y126615D01*
X23923Y140992D01*
X43713Y140992D01*
X44360Y140819D01*
X44939Y140484D01*
X45412Y140011D01*
X45747Y139432D01*
X45920Y138785D01*
X45920Y126615D01*
X23923Y126615D01*
G37*
%LPD*%
%LPC*%
G36*
X23923Y56723D02*
X23923Y56723D01*
X23923Y71100D01*
X43713Y71100D01*
X44360Y70927D01*
X44939Y70592D01*
X45412Y70119D01*
X45747Y69540D01*
X45920Y68893D01*
X45920Y56723D01*
X23923Y56723D01*
G37*
%LPD*%
%LPC*%
G36*
X630990Y125345D02*
X630990Y125345D01*
X630990Y137515D01*
X631163Y138162D01*
X631498Y138741D01*
X631971Y139214D01*
X632550Y139549D01*
X633197Y139722D01*
X652987Y139722D01*
X652987Y125345D01*
X630990Y125345D01*
G37*
%LPD*%
%LPC*%
G36*
X630990Y55453D02*
X630990Y55453D01*
X630990Y67623D01*
X631163Y68270D01*
X631498Y68849D01*
X631971Y69322D01*
X632550Y69657D01*
X633197Y69830D01*
X652987Y69830D01*
X652987Y55453D01*
X630990Y55453D01*
G37*
%LPD*%
%LPC*%
G36*
X633197Y107970D02*
X633197Y107970D01*
X632550Y108143D01*
X631971Y108478D01*
X631498Y108951D01*
X631163Y109530D01*
X630990Y110177D01*
X630990Y122347D01*
X652987Y122347D01*
X652987Y107970D01*
X633197Y107970D01*
G37*
%LPD*%
%LPC*%
G36*
X633197Y38078D02*
X633197Y38078D01*
X632550Y38251D01*
X631971Y38586D01*
X631498Y39059D01*
X631163Y39638D01*
X630990Y40285D01*
X630990Y52455D01*
X652987Y52455D01*
X652987Y38078D01*
X633197Y38078D01*
G37*
%LPD*%
%LPC*%
G36*
X23923Y39348D02*
X23923Y39348D01*
X23923Y53725D01*
X45920Y53725D01*
X45920Y41555D01*
X45835Y41239D01*
X45747Y40908D01*
X45412Y40329D01*
X44939Y39856D01*
X44360Y39521D01*
X43713Y39348D01*
X23923Y39348D01*
G37*
%LPD*%
%LPC*%
G36*
X23923Y109240D02*
X23923Y109240D01*
X23923Y123617D01*
X45920Y123617D01*
X45920Y111447D01*
X45778Y110919D01*
X45747Y110800D01*
X45412Y110221D01*
X44939Y109748D01*
X44360Y109413D01*
X43713Y109240D01*
X23923Y109240D01*
G37*
%LPD*%
D10*
X22424Y55224D03*
X22424Y125116D03*
X654486Y123846D03*
X654486Y53954D03*
M02*
