G04 EAGLE Gerber RS-274X export*
G75*
%MOMM*%
%FSLAX34Y34*%
%LPD*%
%IN*%
%IPPOS*%
%AMOC8*
5,1,8,0,0,1.08239X$1,22.5*%
G01*
%ADD10C,0.254000*%


D10*
X0Y0D02*
X675000Y0D01*
X675000Y180000D01*
X0Y180000D01*
X0Y0D01*
X349840Y39464D02*
X349764Y38396D01*
X349611Y37335D01*
X349383Y36288D01*
X349081Y35260D01*
X348707Y34256D01*
X348262Y33281D01*
X347748Y32341D01*
X347169Y31440D01*
X346527Y30582D01*
X345825Y29772D01*
X345068Y29015D01*
X344258Y28313D01*
X343400Y27671D01*
X342499Y27092D01*
X341559Y26578D01*
X340584Y26133D01*
X339580Y25759D01*
X338552Y25457D01*
X337505Y25229D01*
X336444Y25076D01*
X335376Y25000D01*
X334304Y25000D01*
X333236Y25076D01*
X332175Y25229D01*
X331128Y25457D01*
X330100Y25759D01*
X329096Y26133D01*
X328121Y26578D01*
X327181Y27092D01*
X326280Y27671D01*
X325422Y28313D01*
X324612Y29015D01*
X323855Y29772D01*
X323153Y30582D01*
X322511Y31440D01*
X321932Y32341D01*
X321418Y33281D01*
X320973Y34256D01*
X320599Y35260D01*
X320297Y36288D01*
X320069Y37335D01*
X319916Y38396D01*
X319840Y39464D01*
X319840Y40536D01*
X319916Y41604D01*
X320069Y42665D01*
X320297Y43712D01*
X320599Y44740D01*
X320973Y45744D01*
X321418Y46719D01*
X321932Y47659D01*
X322511Y48560D01*
X323153Y49418D01*
X323855Y50228D01*
X324612Y50985D01*
X325422Y51687D01*
X326280Y52329D01*
X327181Y52908D01*
X328121Y53422D01*
X329096Y53867D01*
X330100Y54241D01*
X331128Y54543D01*
X332175Y54771D01*
X333236Y54924D01*
X334304Y55000D01*
X335376Y55000D01*
X336444Y54924D01*
X337505Y54771D01*
X338552Y54543D01*
X339580Y54241D01*
X340584Y53867D01*
X341559Y53422D01*
X342499Y52908D01*
X343400Y52329D01*
X344258Y51687D01*
X345068Y50985D01*
X345825Y50228D01*
X346527Y49418D01*
X347169Y48560D01*
X347748Y47659D01*
X348262Y46719D01*
X348707Y45744D01*
X349081Y44740D01*
X349383Y43712D01*
X349611Y42665D01*
X349764Y41604D01*
X349840Y40536D01*
X349840Y39464D01*
X174840Y139464D02*
X174764Y138396D01*
X174611Y137335D01*
X174383Y136288D01*
X174081Y135260D01*
X173707Y134256D01*
X173262Y133281D01*
X172748Y132341D01*
X172169Y131440D01*
X171527Y130582D01*
X170825Y129772D01*
X170068Y129015D01*
X169258Y128313D01*
X168400Y127671D01*
X167499Y127092D01*
X166559Y126578D01*
X165584Y126133D01*
X164580Y125759D01*
X163552Y125457D01*
X162505Y125229D01*
X161444Y125076D01*
X160376Y125000D01*
X159304Y125000D01*
X158236Y125076D01*
X157175Y125229D01*
X156128Y125457D01*
X155100Y125759D01*
X154096Y126133D01*
X153121Y126578D01*
X152181Y127092D01*
X151280Y127671D01*
X150422Y128313D01*
X149612Y129015D01*
X148855Y129772D01*
X148153Y130582D01*
X147511Y131440D01*
X146932Y132341D01*
X146418Y133281D01*
X145973Y134256D01*
X145599Y135260D01*
X145297Y136288D01*
X145069Y137335D01*
X144916Y138396D01*
X144840Y139464D01*
X144840Y140536D01*
X144916Y141604D01*
X145069Y142665D01*
X145297Y143712D01*
X145599Y144740D01*
X145973Y145744D01*
X146418Y146719D01*
X146932Y147659D01*
X147511Y148560D01*
X148153Y149418D01*
X148855Y150228D01*
X149612Y150985D01*
X150422Y151687D01*
X151280Y152329D01*
X152181Y152908D01*
X153121Y153422D01*
X154096Y153867D01*
X155100Y154241D01*
X156128Y154543D01*
X157175Y154771D01*
X158236Y154924D01*
X159304Y155000D01*
X160376Y155000D01*
X161444Y154924D01*
X162505Y154771D01*
X163552Y154543D01*
X164580Y154241D01*
X165584Y153867D01*
X166559Y153422D01*
X167499Y152908D01*
X168400Y152329D01*
X169258Y151687D01*
X170068Y150985D01*
X170825Y150228D01*
X171527Y149418D01*
X172169Y148560D01*
X172748Y147659D01*
X173262Y146719D01*
X173707Y145744D01*
X174081Y144740D01*
X174383Y143712D01*
X174611Y142665D01*
X174764Y141604D01*
X174840Y140536D01*
X174840Y139464D01*
X524840Y139464D02*
X524764Y138396D01*
X524611Y137335D01*
X524383Y136288D01*
X524081Y135260D01*
X523707Y134256D01*
X523262Y133281D01*
X522748Y132341D01*
X522169Y131440D01*
X521527Y130582D01*
X520825Y129772D01*
X520068Y129015D01*
X519258Y128313D01*
X518400Y127671D01*
X517499Y127092D01*
X516559Y126578D01*
X515584Y126133D01*
X514580Y125759D01*
X513552Y125457D01*
X512505Y125229D01*
X511444Y125076D01*
X510376Y125000D01*
X509304Y125000D01*
X508236Y125076D01*
X507175Y125229D01*
X506128Y125457D01*
X505100Y125759D01*
X504096Y126133D01*
X503121Y126578D01*
X502181Y127092D01*
X501280Y127671D01*
X500422Y128313D01*
X499612Y129015D01*
X498855Y129772D01*
X498153Y130582D01*
X497511Y131440D01*
X496932Y132341D01*
X496418Y133281D01*
X495973Y134256D01*
X495599Y135260D01*
X495297Y136288D01*
X495069Y137335D01*
X494916Y138396D01*
X494840Y139464D01*
X494840Y140536D01*
X494916Y141604D01*
X495069Y142665D01*
X495297Y143712D01*
X495599Y144740D01*
X495973Y145744D01*
X496418Y146719D01*
X496932Y147659D01*
X497511Y148560D01*
X498153Y149418D01*
X498855Y150228D01*
X499612Y150985D01*
X500422Y151687D01*
X501280Y152329D01*
X502181Y152908D01*
X503121Y153422D01*
X504096Y153867D01*
X505100Y154241D01*
X506128Y154543D01*
X507175Y154771D01*
X508236Y154924D01*
X509304Y155000D01*
X510376Y155000D01*
X511444Y154924D01*
X512505Y154771D01*
X513552Y154543D01*
X514580Y154241D01*
X515584Y153867D01*
X516559Y153422D01*
X517499Y152908D01*
X518400Y152329D01*
X519258Y151687D01*
X520068Y150985D01*
X520825Y150228D01*
X521527Y149418D01*
X522169Y148560D01*
X522748Y147659D01*
X523262Y146719D01*
X523707Y145744D01*
X524081Y144740D01*
X524383Y143712D01*
X524611Y142665D01*
X524764Y141604D01*
X524840Y140536D01*
X524840Y139464D01*
M02*
