G04 EAGLE Gerber RS-274X export*
G75*
%MOMM*%
%FSLAX34Y34*%
%LPD*%
%INSilkscreen Top*%
%IPPOS*%
%AMOC8*
5,1,8,0,0,1.08239X$1,22.5*%
G01*
%ADD10C,0.101600*%
%ADD11C,0.127000*%
%ADD12C,0.203200*%


D10*
X297801Y103378D02*
X295204Y103378D01*
X295105Y103380D01*
X295005Y103386D01*
X294906Y103395D01*
X294808Y103408D01*
X294710Y103425D01*
X294612Y103446D01*
X294516Y103471D01*
X294421Y103499D01*
X294327Y103531D01*
X294234Y103566D01*
X294142Y103605D01*
X294052Y103648D01*
X293964Y103693D01*
X293877Y103743D01*
X293793Y103795D01*
X293710Y103851D01*
X293630Y103909D01*
X293552Y103971D01*
X293477Y104036D01*
X293404Y104104D01*
X293334Y104174D01*
X293266Y104247D01*
X293201Y104322D01*
X293139Y104400D01*
X293081Y104480D01*
X293025Y104563D01*
X292973Y104647D01*
X292923Y104734D01*
X292878Y104822D01*
X292835Y104912D01*
X292796Y105004D01*
X292761Y105097D01*
X292729Y105191D01*
X292701Y105286D01*
X292676Y105382D01*
X292655Y105480D01*
X292638Y105578D01*
X292625Y105676D01*
X292616Y105775D01*
X292610Y105875D01*
X292608Y105974D01*
X292608Y112466D01*
X292610Y112565D01*
X292616Y112665D01*
X292625Y112764D01*
X292638Y112862D01*
X292655Y112960D01*
X292676Y113058D01*
X292701Y113154D01*
X292729Y113249D01*
X292761Y113343D01*
X292796Y113436D01*
X292835Y113528D01*
X292878Y113618D01*
X292923Y113706D01*
X292973Y113793D01*
X293025Y113877D01*
X293081Y113960D01*
X293139Y114040D01*
X293201Y114118D01*
X293266Y114193D01*
X293334Y114266D01*
X293404Y114336D01*
X293477Y114404D01*
X293552Y114469D01*
X293630Y114531D01*
X293710Y114589D01*
X293793Y114645D01*
X293877Y114697D01*
X293964Y114747D01*
X294052Y114792D01*
X294142Y114835D01*
X294234Y114874D01*
X294326Y114909D01*
X294421Y114941D01*
X294516Y114969D01*
X294612Y114994D01*
X294710Y115015D01*
X294808Y115032D01*
X294906Y115045D01*
X295005Y115054D01*
X295105Y115060D01*
X295204Y115062D01*
X297801Y115062D01*
X302166Y112466D02*
X305412Y115062D01*
X305412Y103378D01*
X308657Y103378D02*
X302166Y103378D01*
X323144Y62738D02*
X325741Y62738D01*
X323144Y62738D02*
X323045Y62740D01*
X322945Y62746D01*
X322846Y62755D01*
X322748Y62768D01*
X322650Y62785D01*
X322552Y62806D01*
X322456Y62831D01*
X322361Y62859D01*
X322267Y62891D01*
X322174Y62926D01*
X322082Y62965D01*
X321992Y63008D01*
X321904Y63053D01*
X321817Y63103D01*
X321733Y63155D01*
X321650Y63211D01*
X321570Y63269D01*
X321492Y63331D01*
X321417Y63396D01*
X321344Y63464D01*
X321274Y63534D01*
X321206Y63607D01*
X321141Y63682D01*
X321079Y63760D01*
X321021Y63840D01*
X320965Y63923D01*
X320913Y64007D01*
X320863Y64094D01*
X320818Y64182D01*
X320775Y64272D01*
X320736Y64364D01*
X320701Y64457D01*
X320669Y64551D01*
X320641Y64646D01*
X320616Y64742D01*
X320595Y64840D01*
X320578Y64938D01*
X320565Y65036D01*
X320556Y65135D01*
X320550Y65235D01*
X320548Y65334D01*
X320548Y71826D01*
X320550Y71925D01*
X320556Y72025D01*
X320565Y72124D01*
X320578Y72222D01*
X320595Y72320D01*
X320616Y72418D01*
X320641Y72514D01*
X320669Y72609D01*
X320701Y72703D01*
X320736Y72796D01*
X320775Y72888D01*
X320818Y72978D01*
X320863Y73066D01*
X320913Y73153D01*
X320965Y73237D01*
X321021Y73320D01*
X321079Y73400D01*
X321141Y73478D01*
X321206Y73553D01*
X321274Y73626D01*
X321344Y73696D01*
X321417Y73764D01*
X321492Y73829D01*
X321570Y73891D01*
X321650Y73949D01*
X321733Y74005D01*
X321817Y74057D01*
X321904Y74107D01*
X321992Y74152D01*
X322082Y74195D01*
X322174Y74234D01*
X322266Y74269D01*
X322361Y74301D01*
X322456Y74329D01*
X322552Y74354D01*
X322650Y74375D01*
X322748Y74392D01*
X322846Y74405D01*
X322945Y74414D01*
X323045Y74420D01*
X323144Y74422D01*
X325741Y74422D01*
X330106Y71826D02*
X333352Y74422D01*
X333352Y62738D01*
X336597Y62738D02*
X330106Y62738D01*
X345106Y74422D02*
X345213Y74420D01*
X345319Y74414D01*
X345425Y74404D01*
X345531Y74391D01*
X345637Y74373D01*
X345741Y74352D01*
X345845Y74327D01*
X345948Y74298D01*
X346049Y74266D01*
X346149Y74229D01*
X346248Y74189D01*
X346346Y74146D01*
X346442Y74099D01*
X346536Y74048D01*
X346628Y73994D01*
X346718Y73937D01*
X346806Y73877D01*
X346891Y73813D01*
X346974Y73746D01*
X347055Y73676D01*
X347133Y73604D01*
X347209Y73528D01*
X347281Y73450D01*
X347351Y73369D01*
X347418Y73286D01*
X347482Y73201D01*
X347542Y73113D01*
X347599Y73023D01*
X347653Y72931D01*
X347704Y72837D01*
X347751Y72741D01*
X347794Y72643D01*
X347834Y72544D01*
X347871Y72444D01*
X347903Y72343D01*
X347932Y72240D01*
X347957Y72136D01*
X347978Y72032D01*
X347996Y71926D01*
X348009Y71820D01*
X348019Y71714D01*
X348025Y71608D01*
X348027Y71501D01*
X345106Y74422D02*
X344985Y74420D01*
X344864Y74414D01*
X344744Y74404D01*
X344623Y74391D01*
X344504Y74373D01*
X344384Y74352D01*
X344266Y74327D01*
X344149Y74298D01*
X344032Y74265D01*
X343917Y74229D01*
X343803Y74188D01*
X343690Y74145D01*
X343578Y74097D01*
X343469Y74046D01*
X343361Y73991D01*
X343254Y73933D01*
X343150Y73872D01*
X343048Y73807D01*
X342948Y73739D01*
X342850Y73668D01*
X342754Y73594D01*
X342661Y73517D01*
X342571Y73436D01*
X342483Y73353D01*
X342398Y73267D01*
X342315Y73178D01*
X342236Y73087D01*
X342159Y72993D01*
X342086Y72897D01*
X342016Y72799D01*
X341949Y72698D01*
X341885Y72595D01*
X341825Y72490D01*
X341768Y72383D01*
X341714Y72275D01*
X341664Y72165D01*
X341618Y72053D01*
X341575Y71940D01*
X341536Y71825D01*
X347054Y69229D02*
X347133Y69306D01*
X347209Y69387D01*
X347282Y69470D01*
X347352Y69555D01*
X347419Y69643D01*
X347483Y69733D01*
X347543Y69825D01*
X347600Y69920D01*
X347654Y70016D01*
X347705Y70114D01*
X347752Y70214D01*
X347796Y70316D01*
X347836Y70419D01*
X347872Y70523D01*
X347904Y70629D01*
X347933Y70735D01*
X347958Y70843D01*
X347980Y70951D01*
X347997Y71061D01*
X348011Y71170D01*
X348020Y71280D01*
X348026Y71391D01*
X348028Y71501D01*
X347054Y69229D02*
X341536Y62738D01*
X348027Y62738D01*
X60311Y105918D02*
X57714Y105918D01*
X57615Y105920D01*
X57515Y105926D01*
X57416Y105935D01*
X57318Y105948D01*
X57220Y105965D01*
X57122Y105986D01*
X57026Y106011D01*
X56931Y106039D01*
X56837Y106071D01*
X56744Y106106D01*
X56652Y106145D01*
X56562Y106188D01*
X56474Y106233D01*
X56387Y106283D01*
X56303Y106335D01*
X56220Y106391D01*
X56140Y106449D01*
X56062Y106511D01*
X55987Y106576D01*
X55914Y106644D01*
X55844Y106714D01*
X55776Y106787D01*
X55711Y106862D01*
X55649Y106940D01*
X55591Y107020D01*
X55535Y107103D01*
X55483Y107187D01*
X55433Y107274D01*
X55388Y107362D01*
X55345Y107452D01*
X55306Y107544D01*
X55271Y107637D01*
X55239Y107731D01*
X55211Y107826D01*
X55186Y107922D01*
X55165Y108020D01*
X55148Y108118D01*
X55135Y108216D01*
X55126Y108315D01*
X55120Y108415D01*
X55118Y108514D01*
X55118Y115006D01*
X55120Y115105D01*
X55126Y115205D01*
X55135Y115304D01*
X55148Y115402D01*
X55165Y115500D01*
X55186Y115598D01*
X55211Y115694D01*
X55239Y115789D01*
X55271Y115883D01*
X55306Y115976D01*
X55345Y116068D01*
X55388Y116158D01*
X55433Y116246D01*
X55483Y116333D01*
X55535Y116417D01*
X55591Y116500D01*
X55649Y116580D01*
X55711Y116658D01*
X55776Y116733D01*
X55844Y116806D01*
X55914Y116876D01*
X55987Y116944D01*
X56062Y117009D01*
X56140Y117071D01*
X56220Y117129D01*
X56303Y117185D01*
X56387Y117237D01*
X56474Y117287D01*
X56562Y117332D01*
X56652Y117375D01*
X56744Y117414D01*
X56836Y117449D01*
X56931Y117481D01*
X57026Y117509D01*
X57122Y117534D01*
X57220Y117555D01*
X57318Y117572D01*
X57416Y117585D01*
X57515Y117594D01*
X57615Y117600D01*
X57714Y117602D01*
X60311Y117602D01*
X64676Y115006D02*
X67922Y117602D01*
X67922Y105918D01*
X71167Y105918D02*
X64676Y105918D01*
X76510Y105918D02*
X76510Y117602D01*
X76510Y105918D02*
X81703Y105918D01*
D11*
X226060Y90170D02*
X226060Y40170D01*
X286060Y40170D01*
X286060Y90170D01*
X226060Y90170D01*
D10*
X244404Y103378D02*
X247001Y103378D01*
X244404Y103378D02*
X244305Y103380D01*
X244205Y103386D01*
X244106Y103395D01*
X244008Y103408D01*
X243910Y103425D01*
X243812Y103446D01*
X243716Y103471D01*
X243621Y103499D01*
X243527Y103531D01*
X243434Y103566D01*
X243342Y103605D01*
X243252Y103648D01*
X243164Y103693D01*
X243077Y103743D01*
X242993Y103795D01*
X242910Y103851D01*
X242830Y103909D01*
X242752Y103971D01*
X242677Y104036D01*
X242604Y104104D01*
X242534Y104174D01*
X242466Y104247D01*
X242401Y104322D01*
X242339Y104400D01*
X242281Y104480D01*
X242225Y104563D01*
X242173Y104647D01*
X242123Y104734D01*
X242078Y104822D01*
X242035Y104912D01*
X241996Y105004D01*
X241961Y105097D01*
X241929Y105191D01*
X241901Y105286D01*
X241876Y105382D01*
X241855Y105480D01*
X241838Y105578D01*
X241825Y105676D01*
X241816Y105775D01*
X241810Y105875D01*
X241808Y105974D01*
X241808Y112466D01*
X241810Y112565D01*
X241816Y112665D01*
X241825Y112764D01*
X241838Y112862D01*
X241855Y112960D01*
X241876Y113058D01*
X241901Y113154D01*
X241929Y113249D01*
X241961Y113343D01*
X241996Y113436D01*
X242035Y113528D01*
X242078Y113618D01*
X242123Y113706D01*
X242173Y113793D01*
X242225Y113877D01*
X242281Y113960D01*
X242339Y114040D01*
X242401Y114118D01*
X242466Y114193D01*
X242534Y114266D01*
X242604Y114336D01*
X242677Y114404D01*
X242752Y114469D01*
X242830Y114531D01*
X242910Y114589D01*
X242993Y114645D01*
X243077Y114697D01*
X243164Y114747D01*
X243252Y114792D01*
X243342Y114835D01*
X243434Y114874D01*
X243526Y114909D01*
X243621Y114941D01*
X243716Y114969D01*
X243812Y114994D01*
X243910Y115015D01*
X244008Y115032D01*
X244106Y115045D01*
X244205Y115054D01*
X244305Y115060D01*
X244404Y115062D01*
X247001Y115062D01*
X251366Y112466D02*
X254612Y115062D01*
X254612Y103378D01*
X257857Y103378D02*
X251366Y103378D01*
X266042Y103378D02*
X262147Y115062D01*
X269936Y115062D02*
X266042Y103378D01*
X362514Y103378D02*
X365111Y103378D01*
X362514Y103378D02*
X362415Y103380D01*
X362315Y103386D01*
X362216Y103395D01*
X362118Y103408D01*
X362020Y103425D01*
X361922Y103446D01*
X361826Y103471D01*
X361731Y103499D01*
X361637Y103531D01*
X361544Y103566D01*
X361452Y103605D01*
X361362Y103648D01*
X361274Y103693D01*
X361187Y103743D01*
X361103Y103795D01*
X361020Y103851D01*
X360940Y103909D01*
X360862Y103971D01*
X360787Y104036D01*
X360714Y104104D01*
X360644Y104174D01*
X360576Y104247D01*
X360511Y104322D01*
X360449Y104400D01*
X360391Y104480D01*
X360335Y104563D01*
X360283Y104647D01*
X360233Y104734D01*
X360188Y104822D01*
X360145Y104912D01*
X360106Y105004D01*
X360071Y105097D01*
X360039Y105191D01*
X360011Y105286D01*
X359986Y105382D01*
X359965Y105480D01*
X359948Y105578D01*
X359935Y105676D01*
X359926Y105775D01*
X359920Y105875D01*
X359918Y105974D01*
X359918Y112466D01*
X359920Y112565D01*
X359926Y112665D01*
X359935Y112764D01*
X359948Y112862D01*
X359965Y112960D01*
X359986Y113058D01*
X360011Y113154D01*
X360039Y113249D01*
X360071Y113343D01*
X360106Y113436D01*
X360145Y113528D01*
X360188Y113618D01*
X360233Y113706D01*
X360283Y113793D01*
X360335Y113877D01*
X360391Y113960D01*
X360449Y114040D01*
X360511Y114118D01*
X360576Y114193D01*
X360644Y114266D01*
X360714Y114336D01*
X360787Y114404D01*
X360862Y114469D01*
X360940Y114531D01*
X361020Y114589D01*
X361103Y114645D01*
X361187Y114697D01*
X361274Y114747D01*
X361362Y114792D01*
X361452Y114835D01*
X361544Y114874D01*
X361636Y114909D01*
X361731Y114941D01*
X361826Y114969D01*
X361922Y114994D01*
X362020Y115015D01*
X362118Y115032D01*
X362216Y115045D01*
X362315Y115054D01*
X362415Y115060D01*
X362514Y115062D01*
X365111Y115062D01*
X373046Y115062D02*
X373153Y115060D01*
X373259Y115054D01*
X373365Y115044D01*
X373471Y115031D01*
X373577Y115013D01*
X373681Y114992D01*
X373785Y114967D01*
X373888Y114938D01*
X373989Y114906D01*
X374089Y114869D01*
X374188Y114829D01*
X374286Y114786D01*
X374382Y114739D01*
X374476Y114688D01*
X374568Y114634D01*
X374658Y114577D01*
X374746Y114517D01*
X374831Y114453D01*
X374914Y114386D01*
X374995Y114316D01*
X375073Y114244D01*
X375149Y114168D01*
X375221Y114090D01*
X375291Y114009D01*
X375358Y113926D01*
X375422Y113841D01*
X375482Y113753D01*
X375539Y113663D01*
X375593Y113571D01*
X375644Y113477D01*
X375691Y113381D01*
X375734Y113283D01*
X375774Y113184D01*
X375811Y113084D01*
X375843Y112983D01*
X375872Y112880D01*
X375897Y112776D01*
X375918Y112672D01*
X375936Y112566D01*
X375949Y112460D01*
X375959Y112354D01*
X375965Y112248D01*
X375967Y112141D01*
X373046Y115062D02*
X372925Y115060D01*
X372804Y115054D01*
X372684Y115044D01*
X372563Y115031D01*
X372444Y115013D01*
X372324Y114992D01*
X372206Y114967D01*
X372089Y114938D01*
X371972Y114905D01*
X371857Y114869D01*
X371743Y114828D01*
X371630Y114785D01*
X371518Y114737D01*
X371409Y114686D01*
X371301Y114631D01*
X371194Y114573D01*
X371090Y114512D01*
X370988Y114447D01*
X370888Y114379D01*
X370790Y114308D01*
X370694Y114234D01*
X370601Y114157D01*
X370511Y114076D01*
X370423Y113993D01*
X370338Y113907D01*
X370255Y113818D01*
X370176Y113727D01*
X370099Y113633D01*
X370026Y113537D01*
X369956Y113439D01*
X369889Y113338D01*
X369825Y113235D01*
X369765Y113130D01*
X369708Y113023D01*
X369654Y112915D01*
X369604Y112805D01*
X369558Y112693D01*
X369515Y112580D01*
X369476Y112465D01*
X374994Y109869D02*
X375073Y109946D01*
X375149Y110027D01*
X375222Y110110D01*
X375292Y110195D01*
X375359Y110283D01*
X375423Y110373D01*
X375483Y110465D01*
X375540Y110560D01*
X375594Y110656D01*
X375645Y110754D01*
X375692Y110854D01*
X375736Y110956D01*
X375776Y111059D01*
X375812Y111163D01*
X375844Y111269D01*
X375873Y111375D01*
X375898Y111483D01*
X375920Y111591D01*
X375937Y111701D01*
X375951Y111810D01*
X375960Y111920D01*
X375966Y112031D01*
X375968Y112141D01*
X374994Y109869D02*
X369476Y103378D01*
X375967Y103378D01*
X592384Y102108D02*
X594981Y102108D01*
X592384Y102108D02*
X592285Y102110D01*
X592185Y102116D01*
X592086Y102125D01*
X591988Y102138D01*
X591890Y102155D01*
X591792Y102176D01*
X591696Y102201D01*
X591601Y102229D01*
X591507Y102261D01*
X591414Y102296D01*
X591322Y102335D01*
X591232Y102378D01*
X591144Y102423D01*
X591057Y102473D01*
X590973Y102525D01*
X590890Y102581D01*
X590810Y102639D01*
X590732Y102701D01*
X590657Y102766D01*
X590584Y102834D01*
X590514Y102904D01*
X590446Y102977D01*
X590381Y103052D01*
X590319Y103130D01*
X590261Y103210D01*
X590205Y103293D01*
X590153Y103377D01*
X590103Y103464D01*
X590058Y103552D01*
X590015Y103642D01*
X589976Y103734D01*
X589941Y103827D01*
X589909Y103921D01*
X589881Y104016D01*
X589856Y104112D01*
X589835Y104210D01*
X589818Y104308D01*
X589805Y104406D01*
X589796Y104505D01*
X589790Y104605D01*
X589788Y104704D01*
X589788Y111196D01*
X589790Y111295D01*
X589796Y111395D01*
X589805Y111494D01*
X589818Y111592D01*
X589835Y111690D01*
X589856Y111788D01*
X589881Y111884D01*
X589909Y111979D01*
X589941Y112073D01*
X589976Y112166D01*
X590015Y112258D01*
X590058Y112348D01*
X590103Y112436D01*
X590153Y112523D01*
X590205Y112607D01*
X590261Y112690D01*
X590319Y112770D01*
X590381Y112848D01*
X590446Y112923D01*
X590514Y112996D01*
X590584Y113066D01*
X590657Y113134D01*
X590732Y113199D01*
X590810Y113261D01*
X590890Y113319D01*
X590973Y113375D01*
X591057Y113427D01*
X591144Y113477D01*
X591232Y113522D01*
X591322Y113565D01*
X591414Y113604D01*
X591506Y113639D01*
X591601Y113671D01*
X591696Y113699D01*
X591792Y113724D01*
X591890Y113745D01*
X591988Y113762D01*
X592086Y113775D01*
X592185Y113784D01*
X592285Y113790D01*
X592384Y113792D01*
X594981Y113792D01*
X602916Y113792D02*
X603023Y113790D01*
X603129Y113784D01*
X603235Y113774D01*
X603341Y113761D01*
X603447Y113743D01*
X603551Y113722D01*
X603655Y113697D01*
X603758Y113668D01*
X603859Y113636D01*
X603959Y113599D01*
X604058Y113559D01*
X604156Y113516D01*
X604252Y113469D01*
X604346Y113418D01*
X604438Y113364D01*
X604528Y113307D01*
X604616Y113247D01*
X604701Y113183D01*
X604784Y113116D01*
X604865Y113046D01*
X604943Y112974D01*
X605019Y112898D01*
X605091Y112820D01*
X605161Y112739D01*
X605228Y112656D01*
X605292Y112571D01*
X605352Y112483D01*
X605409Y112393D01*
X605463Y112301D01*
X605514Y112207D01*
X605561Y112111D01*
X605604Y112013D01*
X605644Y111914D01*
X605681Y111814D01*
X605713Y111713D01*
X605742Y111610D01*
X605767Y111506D01*
X605788Y111402D01*
X605806Y111296D01*
X605819Y111190D01*
X605829Y111084D01*
X605835Y110978D01*
X605837Y110871D01*
X602916Y113792D02*
X602795Y113790D01*
X602674Y113784D01*
X602554Y113774D01*
X602433Y113761D01*
X602314Y113743D01*
X602194Y113722D01*
X602076Y113697D01*
X601959Y113668D01*
X601842Y113635D01*
X601727Y113599D01*
X601613Y113558D01*
X601500Y113515D01*
X601388Y113467D01*
X601279Y113416D01*
X601171Y113361D01*
X601064Y113303D01*
X600960Y113242D01*
X600858Y113177D01*
X600758Y113109D01*
X600660Y113038D01*
X600564Y112964D01*
X600471Y112887D01*
X600381Y112806D01*
X600293Y112723D01*
X600208Y112637D01*
X600125Y112548D01*
X600046Y112457D01*
X599969Y112363D01*
X599896Y112267D01*
X599826Y112169D01*
X599759Y112068D01*
X599695Y111965D01*
X599635Y111860D01*
X599578Y111753D01*
X599524Y111645D01*
X599474Y111535D01*
X599428Y111423D01*
X599385Y111310D01*
X599346Y111195D01*
X604864Y108599D02*
X604943Y108676D01*
X605019Y108757D01*
X605092Y108840D01*
X605162Y108925D01*
X605229Y109013D01*
X605293Y109103D01*
X605353Y109195D01*
X605410Y109290D01*
X605464Y109386D01*
X605515Y109484D01*
X605562Y109584D01*
X605606Y109686D01*
X605646Y109789D01*
X605682Y109893D01*
X605714Y109999D01*
X605743Y110105D01*
X605768Y110213D01*
X605790Y110321D01*
X605807Y110431D01*
X605821Y110540D01*
X605830Y110650D01*
X605836Y110761D01*
X605838Y110871D01*
X604864Y108599D02*
X599346Y102108D01*
X605837Y102108D01*
X611180Y102108D02*
X611180Y113792D01*
X611180Y102108D02*
X616373Y102108D01*
D11*
X386080Y88900D02*
X386080Y38900D01*
X446080Y38900D01*
X446080Y88900D01*
X386080Y88900D01*
D10*
X403154Y103378D02*
X405751Y103378D01*
X403154Y103378D02*
X403055Y103380D01*
X402955Y103386D01*
X402856Y103395D01*
X402758Y103408D01*
X402660Y103425D01*
X402562Y103446D01*
X402466Y103471D01*
X402371Y103499D01*
X402277Y103531D01*
X402184Y103566D01*
X402092Y103605D01*
X402002Y103648D01*
X401914Y103693D01*
X401827Y103743D01*
X401743Y103795D01*
X401660Y103851D01*
X401580Y103909D01*
X401502Y103971D01*
X401427Y104036D01*
X401354Y104104D01*
X401284Y104174D01*
X401216Y104247D01*
X401151Y104322D01*
X401089Y104400D01*
X401031Y104480D01*
X400975Y104563D01*
X400923Y104647D01*
X400873Y104734D01*
X400828Y104822D01*
X400785Y104912D01*
X400746Y105004D01*
X400711Y105097D01*
X400679Y105191D01*
X400651Y105286D01*
X400626Y105382D01*
X400605Y105480D01*
X400588Y105578D01*
X400575Y105676D01*
X400566Y105775D01*
X400560Y105875D01*
X400558Y105974D01*
X400558Y112466D01*
X400560Y112565D01*
X400566Y112665D01*
X400575Y112764D01*
X400588Y112862D01*
X400605Y112960D01*
X400626Y113058D01*
X400651Y113154D01*
X400679Y113249D01*
X400711Y113343D01*
X400746Y113436D01*
X400785Y113528D01*
X400828Y113618D01*
X400873Y113706D01*
X400923Y113793D01*
X400975Y113877D01*
X401031Y113960D01*
X401089Y114040D01*
X401151Y114118D01*
X401216Y114193D01*
X401284Y114266D01*
X401354Y114336D01*
X401427Y114404D01*
X401502Y114469D01*
X401580Y114531D01*
X401660Y114589D01*
X401743Y114645D01*
X401827Y114697D01*
X401914Y114747D01*
X402002Y114792D01*
X402092Y114835D01*
X402184Y114874D01*
X402276Y114909D01*
X402371Y114941D01*
X402466Y114969D01*
X402562Y114994D01*
X402660Y115015D01*
X402758Y115032D01*
X402856Y115045D01*
X402955Y115054D01*
X403055Y115060D01*
X403154Y115062D01*
X405751Y115062D01*
X413686Y115062D02*
X413793Y115060D01*
X413899Y115054D01*
X414005Y115044D01*
X414111Y115031D01*
X414217Y115013D01*
X414321Y114992D01*
X414425Y114967D01*
X414528Y114938D01*
X414629Y114906D01*
X414729Y114869D01*
X414828Y114829D01*
X414926Y114786D01*
X415022Y114739D01*
X415116Y114688D01*
X415208Y114634D01*
X415298Y114577D01*
X415386Y114517D01*
X415471Y114453D01*
X415554Y114386D01*
X415635Y114316D01*
X415713Y114244D01*
X415789Y114168D01*
X415861Y114090D01*
X415931Y114009D01*
X415998Y113926D01*
X416062Y113841D01*
X416122Y113753D01*
X416179Y113663D01*
X416233Y113571D01*
X416284Y113477D01*
X416331Y113381D01*
X416374Y113283D01*
X416414Y113184D01*
X416451Y113084D01*
X416483Y112983D01*
X416512Y112880D01*
X416537Y112776D01*
X416558Y112672D01*
X416576Y112566D01*
X416589Y112460D01*
X416599Y112354D01*
X416605Y112248D01*
X416607Y112141D01*
X413686Y115062D02*
X413565Y115060D01*
X413444Y115054D01*
X413324Y115044D01*
X413203Y115031D01*
X413084Y115013D01*
X412964Y114992D01*
X412846Y114967D01*
X412729Y114938D01*
X412612Y114905D01*
X412497Y114869D01*
X412383Y114828D01*
X412270Y114785D01*
X412158Y114737D01*
X412049Y114686D01*
X411941Y114631D01*
X411834Y114573D01*
X411730Y114512D01*
X411628Y114447D01*
X411528Y114379D01*
X411430Y114308D01*
X411334Y114234D01*
X411241Y114157D01*
X411151Y114076D01*
X411063Y113993D01*
X410978Y113907D01*
X410895Y113818D01*
X410816Y113727D01*
X410739Y113633D01*
X410666Y113537D01*
X410596Y113439D01*
X410529Y113338D01*
X410465Y113235D01*
X410405Y113130D01*
X410348Y113023D01*
X410294Y112915D01*
X410244Y112805D01*
X410198Y112693D01*
X410155Y112580D01*
X410116Y112465D01*
X415634Y109869D02*
X415713Y109946D01*
X415789Y110027D01*
X415862Y110110D01*
X415932Y110195D01*
X415999Y110283D01*
X416063Y110373D01*
X416123Y110465D01*
X416180Y110560D01*
X416234Y110656D01*
X416285Y110754D01*
X416332Y110854D01*
X416376Y110956D01*
X416416Y111059D01*
X416452Y111163D01*
X416484Y111269D01*
X416513Y111375D01*
X416538Y111483D01*
X416560Y111591D01*
X416577Y111701D01*
X416591Y111810D01*
X416600Y111920D01*
X416606Y112031D01*
X416608Y112141D01*
X415634Y109869D02*
X410116Y103378D01*
X416607Y103378D01*
X424792Y103378D02*
X420897Y115062D01*
X428686Y115062D02*
X424792Y103378D01*
D11*
X218440Y80010D02*
X91440Y80010D01*
X91440Y31710D01*
X218440Y31710D01*
X218440Y80010D01*
D10*
X146558Y104648D02*
X146558Y116332D01*
X146558Y104648D02*
X151751Y104648D01*
X156060Y113736D02*
X159306Y116332D01*
X159306Y104648D01*
X156060Y104648D02*
X162552Y104648D01*
D11*
X454660Y78740D02*
X581660Y78740D01*
X454660Y78740D02*
X454660Y30440D01*
X581660Y30440D01*
X581660Y78740D01*
D10*
X508508Y102108D02*
X508508Y113792D01*
X508508Y102108D02*
X513701Y102108D01*
X524502Y110871D02*
X524500Y110978D01*
X524494Y111084D01*
X524484Y111190D01*
X524471Y111296D01*
X524453Y111402D01*
X524432Y111506D01*
X524407Y111610D01*
X524378Y111713D01*
X524346Y111814D01*
X524309Y111914D01*
X524269Y112013D01*
X524226Y112111D01*
X524179Y112207D01*
X524128Y112301D01*
X524074Y112393D01*
X524017Y112483D01*
X523957Y112571D01*
X523893Y112656D01*
X523826Y112739D01*
X523756Y112820D01*
X523684Y112898D01*
X523608Y112974D01*
X523530Y113046D01*
X523449Y113116D01*
X523366Y113183D01*
X523281Y113247D01*
X523193Y113307D01*
X523103Y113364D01*
X523011Y113418D01*
X522917Y113469D01*
X522821Y113516D01*
X522723Y113559D01*
X522624Y113599D01*
X522524Y113636D01*
X522423Y113668D01*
X522320Y113697D01*
X522216Y113722D01*
X522112Y113743D01*
X522006Y113761D01*
X521900Y113774D01*
X521794Y113784D01*
X521688Y113790D01*
X521581Y113792D01*
X521460Y113790D01*
X521339Y113784D01*
X521219Y113774D01*
X521098Y113761D01*
X520979Y113743D01*
X520859Y113722D01*
X520741Y113697D01*
X520624Y113668D01*
X520507Y113635D01*
X520392Y113599D01*
X520278Y113558D01*
X520165Y113515D01*
X520053Y113467D01*
X519944Y113416D01*
X519836Y113361D01*
X519729Y113303D01*
X519625Y113242D01*
X519523Y113177D01*
X519423Y113109D01*
X519325Y113038D01*
X519229Y112964D01*
X519136Y112887D01*
X519046Y112806D01*
X518958Y112723D01*
X518873Y112637D01*
X518790Y112548D01*
X518711Y112457D01*
X518634Y112363D01*
X518561Y112267D01*
X518491Y112169D01*
X518424Y112068D01*
X518360Y111965D01*
X518300Y111860D01*
X518243Y111753D01*
X518189Y111645D01*
X518139Y111535D01*
X518093Y111423D01*
X518050Y111310D01*
X518011Y111195D01*
X523528Y108599D02*
X523607Y108676D01*
X523683Y108757D01*
X523756Y108840D01*
X523826Y108925D01*
X523893Y109013D01*
X523957Y109103D01*
X524017Y109195D01*
X524074Y109290D01*
X524128Y109386D01*
X524179Y109484D01*
X524226Y109584D01*
X524270Y109686D01*
X524310Y109789D01*
X524346Y109893D01*
X524378Y109999D01*
X524407Y110105D01*
X524432Y110213D01*
X524454Y110321D01*
X524471Y110431D01*
X524485Y110540D01*
X524494Y110650D01*
X524500Y110761D01*
X524502Y110871D01*
X523528Y108599D02*
X518010Y102108D01*
X524502Y102108D01*
D12*
X-14230Y70170D02*
X-14230Y43670D01*
X-14230Y70170D02*
X-35730Y70170D01*
X-43230Y62670D01*
X-81230Y62670D01*
X-81230Y71170D01*
X-92980Y71170D01*
X-92980Y109170D01*
X-81230Y109170D01*
X-81230Y117670D01*
X-43230Y117670D01*
X-35730Y110170D01*
X-14230Y110170D01*
X-14230Y136670D01*
X270Y128670D02*
X270Y51670D01*
X270Y136670D02*
X-14230Y136670D01*
X-14230Y43670D02*
X270Y43670D01*
D10*
X15748Y146558D02*
X23537Y158242D01*
X15748Y158242D02*
X23537Y146558D01*
X27827Y155646D02*
X31073Y158242D01*
X31073Y146558D01*
X34318Y146558D02*
X27827Y146558D01*
D12*
X691140Y135400D02*
X691140Y108900D01*
X712640Y108900D01*
X720140Y116400D01*
X758140Y116400D01*
X758140Y107900D01*
X769890Y107900D01*
X769890Y69900D01*
X758140Y69900D01*
X758140Y61400D01*
X720140Y61400D01*
X712640Y68900D01*
X691140Y68900D01*
X691140Y42400D01*
X676640Y50400D02*
X676640Y127400D01*
X676640Y42400D02*
X691140Y42400D01*
X691140Y135400D02*
X676640Y135400D01*
D10*
X652187Y156972D02*
X644398Y145288D01*
X652187Y145288D02*
X644398Y156972D01*
X660047Y156972D02*
X660154Y156970D01*
X660260Y156964D01*
X660366Y156954D01*
X660472Y156941D01*
X660578Y156923D01*
X660682Y156902D01*
X660786Y156877D01*
X660889Y156848D01*
X660990Y156816D01*
X661090Y156779D01*
X661189Y156739D01*
X661287Y156696D01*
X661383Y156649D01*
X661477Y156598D01*
X661569Y156544D01*
X661659Y156487D01*
X661747Y156427D01*
X661832Y156363D01*
X661915Y156296D01*
X661996Y156226D01*
X662074Y156154D01*
X662150Y156078D01*
X662222Y156000D01*
X662292Y155919D01*
X662359Y155836D01*
X662423Y155751D01*
X662483Y155663D01*
X662540Y155573D01*
X662594Y155481D01*
X662645Y155387D01*
X662692Y155291D01*
X662735Y155193D01*
X662775Y155094D01*
X662812Y154994D01*
X662844Y154893D01*
X662873Y154790D01*
X662898Y154686D01*
X662919Y154582D01*
X662937Y154476D01*
X662950Y154370D01*
X662960Y154264D01*
X662966Y154158D01*
X662968Y154051D01*
X660047Y156972D02*
X659926Y156970D01*
X659805Y156964D01*
X659685Y156954D01*
X659564Y156941D01*
X659445Y156923D01*
X659325Y156902D01*
X659207Y156877D01*
X659090Y156848D01*
X658973Y156815D01*
X658858Y156779D01*
X658744Y156738D01*
X658631Y156695D01*
X658519Y156647D01*
X658410Y156596D01*
X658302Y156541D01*
X658195Y156483D01*
X658091Y156422D01*
X657989Y156357D01*
X657889Y156289D01*
X657791Y156218D01*
X657695Y156144D01*
X657602Y156067D01*
X657512Y155986D01*
X657424Y155903D01*
X657339Y155817D01*
X657256Y155728D01*
X657177Y155637D01*
X657100Y155543D01*
X657027Y155447D01*
X656957Y155349D01*
X656890Y155248D01*
X656826Y155145D01*
X656766Y155040D01*
X656709Y154933D01*
X656655Y154825D01*
X656605Y154715D01*
X656559Y154603D01*
X656516Y154490D01*
X656477Y154375D01*
X661995Y151779D02*
X662074Y151856D01*
X662150Y151937D01*
X662223Y152020D01*
X662293Y152105D01*
X662360Y152193D01*
X662424Y152283D01*
X662484Y152375D01*
X662541Y152470D01*
X662595Y152566D01*
X662646Y152664D01*
X662693Y152764D01*
X662737Y152866D01*
X662777Y152969D01*
X662813Y153073D01*
X662845Y153179D01*
X662874Y153285D01*
X662899Y153393D01*
X662921Y153501D01*
X662938Y153611D01*
X662952Y153720D01*
X662961Y153830D01*
X662967Y153941D01*
X662969Y154051D01*
X661995Y151779D02*
X656477Y145288D01*
X662968Y145288D01*
M02*
