G04 EAGLE Gerber RS-274X export*
G75*
%MOMM*%
%FSLAX34Y34*%
%LPD*%
%INBottom Copper*%
%IPPOS*%
%AMOC8*
5,1,8,0,0,1.08239X$1,22.5*%
G01*
%ADD10C,1.676400*%
%ADD11R,4.191000X2.667000*%
%ADD12C,1.981200*%
%ADD13C,1.500000*%

G36*
X644589Y5092D02*
X644589Y5092D01*
X644640Y5094D01*
X644672Y5112D01*
X644708Y5120D01*
X644747Y5153D01*
X644792Y5177D01*
X644813Y5207D01*
X644841Y5230D01*
X644862Y5277D01*
X644892Y5319D01*
X644900Y5361D01*
X644912Y5389D01*
X644911Y5419D01*
X644919Y5461D01*
X644919Y215498D01*
X644908Y215548D01*
X644906Y215599D01*
X644888Y215631D01*
X644880Y215667D01*
X644847Y215706D01*
X644823Y215751D01*
X644793Y215772D01*
X644770Y215800D01*
X644723Y215821D01*
X644681Y215851D01*
X644639Y215859D01*
X644611Y215871D01*
X644581Y215870D01*
X644539Y215878D01*
X629847Y215878D01*
X629847Y231373D01*
X629836Y231423D01*
X629834Y231474D01*
X629816Y231506D01*
X629808Y231542D01*
X629775Y231581D01*
X629751Y231626D01*
X629721Y231647D01*
X629697Y231675D01*
X629651Y231696D01*
X629609Y231726D01*
X629567Y231734D01*
X629539Y231746D01*
X629509Y231745D01*
X629467Y231753D01*
X629085Y231753D01*
X629085Y231755D01*
X629467Y231755D01*
X629517Y231766D01*
X629568Y231768D01*
X629600Y231786D01*
X629636Y231794D01*
X629675Y231827D01*
X629720Y231851D01*
X629741Y231881D01*
X629769Y231905D01*
X629790Y231951D01*
X629820Y231993D01*
X629828Y232035D01*
X629840Y232063D01*
X629839Y232093D01*
X629847Y232135D01*
X629847Y247630D01*
X644539Y247630D01*
X644589Y247641D01*
X644640Y247643D01*
X644672Y247661D01*
X644708Y247669D01*
X644747Y247702D01*
X644792Y247726D01*
X644813Y247756D01*
X644841Y247779D01*
X644862Y247826D01*
X644892Y247868D01*
X644900Y247910D01*
X644912Y247938D01*
X644911Y247968D01*
X644919Y248010D01*
X644919Y285390D01*
X644908Y285440D01*
X644906Y285491D01*
X644888Y285523D01*
X644880Y285559D01*
X644847Y285598D01*
X644823Y285643D01*
X644793Y285664D01*
X644770Y285692D01*
X644723Y285713D01*
X644681Y285743D01*
X644639Y285751D01*
X644611Y285763D01*
X644581Y285762D01*
X644539Y285770D01*
X629847Y285770D01*
X629847Y301265D01*
X629836Y301315D01*
X629834Y301366D01*
X629816Y301398D01*
X629808Y301434D01*
X629775Y301473D01*
X629751Y301518D01*
X629721Y301539D01*
X629697Y301567D01*
X629651Y301588D01*
X629609Y301618D01*
X629567Y301626D01*
X629539Y301638D01*
X629509Y301637D01*
X629467Y301645D01*
X629085Y301645D01*
X629085Y301647D01*
X629467Y301647D01*
X629517Y301658D01*
X629568Y301660D01*
X629600Y301678D01*
X629636Y301686D01*
X629675Y301719D01*
X629720Y301743D01*
X629741Y301773D01*
X629769Y301797D01*
X629790Y301843D01*
X629820Y301885D01*
X629828Y301927D01*
X629840Y301955D01*
X629839Y301981D01*
X629840Y301984D01*
X629840Y301990D01*
X629847Y302027D01*
X629847Y317522D01*
X644539Y317522D01*
X644589Y317533D01*
X644640Y317535D01*
X644672Y317553D01*
X644708Y317561D01*
X644747Y317594D01*
X644792Y317618D01*
X644813Y317648D01*
X644841Y317671D01*
X644862Y317718D01*
X644892Y317760D01*
X644900Y317802D01*
X644912Y317830D01*
X644911Y317860D01*
X644919Y317902D01*
X644919Y394539D01*
X644908Y394589D01*
X644906Y394640D01*
X644888Y394672D01*
X644880Y394708D01*
X644847Y394747D01*
X644823Y394792D01*
X644793Y394813D01*
X644770Y394841D01*
X644723Y394862D01*
X644681Y394892D01*
X644639Y394900D01*
X644611Y394912D01*
X644581Y394911D01*
X644539Y394919D01*
X421518Y394919D01*
X421445Y394902D01*
X421372Y394890D01*
X421362Y394883D01*
X421349Y394880D01*
X421291Y394832D01*
X421231Y394788D01*
X421225Y394777D01*
X421216Y394770D01*
X421185Y394701D01*
X421150Y394635D01*
X421150Y394623D01*
X421145Y394611D01*
X421148Y394537D01*
X421146Y394462D01*
X421151Y394451D01*
X421151Y394438D01*
X421187Y394373D01*
X421219Y394305D01*
X421229Y394296D01*
X421234Y394286D01*
X421265Y394264D01*
X421328Y394210D01*
X427584Y390598D01*
X436318Y381864D01*
X442494Y371167D01*
X443412Y367739D01*
X443412Y367738D01*
X444635Y363176D01*
X444635Y363175D01*
X445691Y359236D01*
X445691Y346884D01*
X442494Y334953D01*
X436318Y324256D01*
X427584Y315522D01*
X416887Y309346D01*
X404956Y306149D01*
X392604Y306149D01*
X380673Y309346D01*
X369976Y315522D01*
X361242Y324256D01*
X355066Y334953D01*
X352646Y343984D01*
X351869Y346884D01*
X351869Y359236D01*
X355066Y371167D01*
X361242Y381864D01*
X369976Y390598D01*
X376232Y394210D01*
X376287Y394261D01*
X376344Y394308D01*
X376349Y394320D01*
X376358Y394328D01*
X376385Y394398D01*
X376415Y394467D01*
X376415Y394479D01*
X376419Y394491D01*
X376411Y394565D01*
X376409Y394640D01*
X376403Y394651D01*
X376401Y394663D01*
X376361Y394726D01*
X376326Y394792D01*
X376316Y394799D01*
X376309Y394810D01*
X376245Y394849D01*
X376184Y394892D01*
X376171Y394894D01*
X376161Y394900D01*
X376123Y394903D01*
X376042Y394919D01*
X5461Y394919D01*
X5411Y394908D01*
X5360Y394906D01*
X5328Y394888D01*
X5292Y394880D01*
X5253Y394847D01*
X5208Y394823D01*
X5187Y394793D01*
X5159Y394770D01*
X5138Y394723D01*
X5108Y394681D01*
X5100Y394639D01*
X5088Y394611D01*
X5089Y394581D01*
X5081Y394539D01*
X5081Y188362D01*
X5092Y188312D01*
X5094Y188261D01*
X5112Y188229D01*
X5120Y188193D01*
X5153Y188154D01*
X5177Y188109D01*
X5207Y188088D01*
X5230Y188060D01*
X5277Y188039D01*
X5319Y188009D01*
X5361Y188001D01*
X5389Y187989D01*
X5419Y187990D01*
X5461Y187982D01*
X20393Y187982D01*
X20393Y172487D01*
X20404Y172437D01*
X20406Y172386D01*
X20424Y172354D01*
X20432Y172318D01*
X20465Y172279D01*
X20489Y172234D01*
X20519Y172213D01*
X20542Y172185D01*
X20589Y172164D01*
X20631Y172134D01*
X20673Y172126D01*
X20701Y172114D01*
X20731Y172115D01*
X20773Y172107D01*
X21155Y172107D01*
X21155Y172105D01*
X20773Y172105D01*
X20723Y172094D01*
X20672Y172092D01*
X20640Y172074D01*
X20604Y172066D01*
X20565Y172033D01*
X20520Y172009D01*
X20499Y171979D01*
X20471Y171955D01*
X20450Y171909D01*
X20420Y171867D01*
X20412Y171825D01*
X20400Y171797D01*
X20401Y171767D01*
X20393Y171725D01*
X20393Y156230D01*
X5461Y156230D01*
X5411Y156219D01*
X5360Y156217D01*
X5328Y156199D01*
X5292Y156191D01*
X5253Y156158D01*
X5208Y156134D01*
X5187Y156104D01*
X5159Y156081D01*
X5138Y156034D01*
X5108Y155992D01*
X5100Y155950D01*
X5088Y155922D01*
X5089Y155892D01*
X5081Y155850D01*
X5081Y118470D01*
X5092Y118420D01*
X5094Y118369D01*
X5112Y118337D01*
X5120Y118301D01*
X5153Y118262D01*
X5177Y118217D01*
X5207Y118196D01*
X5230Y118168D01*
X5277Y118147D01*
X5319Y118117D01*
X5361Y118109D01*
X5389Y118097D01*
X5419Y118098D01*
X5461Y118090D01*
X20393Y118090D01*
X20393Y102595D01*
X20404Y102545D01*
X20406Y102494D01*
X20424Y102462D01*
X20432Y102426D01*
X20465Y102387D01*
X20489Y102342D01*
X20519Y102321D01*
X20542Y102293D01*
X20589Y102272D01*
X20631Y102242D01*
X20673Y102234D01*
X20701Y102222D01*
X20731Y102223D01*
X20773Y102215D01*
X21155Y102215D01*
X21155Y102213D01*
X20773Y102213D01*
X20723Y102202D01*
X20672Y102200D01*
X20640Y102182D01*
X20604Y102174D01*
X20565Y102141D01*
X20520Y102117D01*
X20499Y102087D01*
X20471Y102063D01*
X20450Y102017D01*
X20420Y101975D01*
X20412Y101933D01*
X20400Y101905D01*
X20401Y101875D01*
X20393Y101833D01*
X20393Y86338D01*
X5461Y86338D01*
X5411Y86327D01*
X5360Y86325D01*
X5328Y86307D01*
X5292Y86299D01*
X5253Y86266D01*
X5208Y86242D01*
X5187Y86212D01*
X5159Y86189D01*
X5138Y86142D01*
X5108Y86100D01*
X5100Y86058D01*
X5088Y86030D01*
X5089Y86000D01*
X5081Y85958D01*
X5081Y5461D01*
X5092Y5411D01*
X5094Y5360D01*
X5112Y5328D01*
X5120Y5292D01*
X5153Y5253D01*
X5177Y5208D01*
X5207Y5187D01*
X5230Y5159D01*
X5277Y5138D01*
X5319Y5108D01*
X5361Y5100D01*
X5389Y5088D01*
X5419Y5089D01*
X5461Y5081D01*
X644539Y5081D01*
X644589Y5092D01*
G37*
%LPC*%
G36*
X370702Y155955D02*
X370702Y155955D01*
X365754Y158005D01*
X361967Y161792D01*
X359917Y166740D01*
X359917Y188860D01*
X361967Y193808D01*
X365754Y197595D01*
X370702Y199645D01*
X376058Y199645D01*
X381006Y197595D01*
X384793Y193808D01*
X385729Y191549D01*
X385744Y191528D01*
X385751Y191504D01*
X385794Y191459D01*
X385830Y191409D01*
X385853Y191396D01*
X385870Y191378D01*
X385928Y191356D01*
X385983Y191327D01*
X386009Y191327D01*
X386033Y191318D01*
X386094Y191324D01*
X386156Y191322D01*
X386179Y191333D01*
X386205Y191336D01*
X386257Y191369D01*
X386313Y191395D01*
X386330Y191415D01*
X386351Y191429D01*
X386399Y191500D01*
X386422Y191529D01*
X386424Y191539D01*
X386431Y191549D01*
X387367Y193808D01*
X391154Y197595D01*
X396102Y199645D01*
X401458Y199645D01*
X406406Y197595D01*
X410193Y193808D01*
X411129Y191549D01*
X411144Y191528D01*
X411151Y191504D01*
X411194Y191459D01*
X411230Y191409D01*
X411253Y191396D01*
X411270Y191378D01*
X411328Y191356D01*
X411383Y191327D01*
X411409Y191327D01*
X411433Y191318D01*
X411494Y191324D01*
X411556Y191322D01*
X411579Y191333D01*
X411605Y191336D01*
X411657Y191369D01*
X411713Y191395D01*
X411730Y191415D01*
X411751Y191429D01*
X411799Y191500D01*
X411822Y191529D01*
X411824Y191539D01*
X411831Y191549D01*
X412767Y193808D01*
X416554Y197595D01*
X421502Y199645D01*
X426858Y199645D01*
X431806Y197595D01*
X435593Y193808D01*
X437643Y188860D01*
X437643Y166740D01*
X435593Y161792D01*
X431806Y158005D01*
X426858Y155955D01*
X421502Y155955D01*
X416554Y158005D01*
X412767Y161792D01*
X411831Y164051D01*
X411816Y164072D01*
X411809Y164096D01*
X411766Y164141D01*
X411730Y164191D01*
X411707Y164203D01*
X411690Y164222D01*
X411632Y164244D01*
X411577Y164273D01*
X411551Y164273D01*
X411527Y164282D01*
X411466Y164276D01*
X411404Y164278D01*
X411381Y164267D01*
X411355Y164264D01*
X411303Y164231D01*
X411247Y164205D01*
X411230Y164185D01*
X411209Y164171D01*
X411161Y164099D01*
X411138Y164071D01*
X411135Y164061D01*
X411129Y164051D01*
X410193Y161792D01*
X406406Y158005D01*
X401458Y155955D01*
X396102Y155955D01*
X391154Y158005D01*
X387367Y161792D01*
X386431Y164051D01*
X386416Y164072D01*
X386409Y164096D01*
X386366Y164141D01*
X386330Y164191D01*
X386307Y164203D01*
X386290Y164222D01*
X386232Y164244D01*
X386177Y164273D01*
X386151Y164273D01*
X386127Y164282D01*
X386066Y164276D01*
X386004Y164278D01*
X385981Y164267D01*
X385955Y164264D01*
X385903Y164231D01*
X385847Y164205D01*
X385830Y164185D01*
X385809Y164171D01*
X385761Y164099D01*
X385738Y164071D01*
X385735Y164061D01*
X385729Y164051D01*
X384793Y161792D01*
X381006Y158005D01*
X376058Y155955D01*
X370702Y155955D01*
G37*
%LPD*%
%LPC*%
G36*
X53153Y302259D02*
X53153Y302259D01*
X47645Y304541D01*
X43429Y308757D01*
X41147Y314265D01*
X41147Y320227D01*
X43429Y325735D01*
X47645Y329951D01*
X53153Y332233D01*
X78927Y332233D01*
X84435Y329951D01*
X88651Y325735D01*
X90933Y320227D01*
X90933Y314265D01*
X88651Y308757D01*
X84435Y304541D01*
X78927Y302259D01*
X53153Y302259D01*
G37*
%LPD*%
%LPC*%
G36*
X546006Y339919D02*
X546006Y339919D01*
X538625Y342976D01*
X532976Y348625D01*
X529919Y356006D01*
X529919Y363994D01*
X532976Y371375D01*
X538625Y377024D01*
X546006Y380081D01*
X553994Y380081D01*
X561375Y377024D01*
X567024Y371375D01*
X570081Y363994D01*
X570081Y356006D01*
X567024Y348625D01*
X561375Y342976D01*
X553994Y339919D01*
X546006Y339919D01*
G37*
%LPD*%
%LPC*%
G36*
X606006Y19919D02*
X606006Y19919D01*
X598625Y22976D01*
X592976Y28625D01*
X589919Y36006D01*
X589919Y43994D01*
X592976Y51375D01*
X598625Y57024D01*
X606006Y60081D01*
X613994Y60081D01*
X621375Y57024D01*
X627024Y51375D01*
X630081Y43994D01*
X630081Y36006D01*
X627024Y28625D01*
X621375Y22976D01*
X613994Y19919D01*
X606006Y19919D01*
G37*
%LPD*%
%LPC*%
G36*
X36006Y19919D02*
X36006Y19919D01*
X28625Y22976D01*
X22976Y28625D01*
X19919Y36006D01*
X19919Y43994D01*
X22976Y51375D01*
X28625Y57024D01*
X36006Y60081D01*
X43994Y60081D01*
X51375Y57024D01*
X57024Y51375D01*
X60081Y43994D01*
X60081Y36006D01*
X57024Y28625D01*
X51375Y22976D01*
X43994Y19919D01*
X36006Y19919D01*
G37*
%LPD*%
%LPC*%
G36*
X21915Y172867D02*
X21915Y172867D01*
X21915Y187982D01*
X42444Y187982D01*
X43090Y187809D01*
X43669Y187474D01*
X44142Y187001D01*
X44477Y186422D01*
X44650Y185776D01*
X44650Y172867D01*
X21915Y172867D01*
G37*
%LPD*%
%LPC*%
G36*
X21915Y102975D02*
X21915Y102975D01*
X21915Y118090D01*
X42444Y118090D01*
X43090Y117917D01*
X43669Y117582D01*
X44142Y117109D01*
X44477Y116530D01*
X44650Y115884D01*
X44650Y102975D01*
X21915Y102975D01*
G37*
%LPD*%
%LPC*%
G36*
X605590Y302407D02*
X605590Y302407D01*
X605590Y315316D01*
X605763Y315962D01*
X606098Y316541D01*
X606571Y317014D01*
X607150Y317349D01*
X607796Y317522D01*
X628325Y317522D01*
X628325Y302407D01*
X605590Y302407D01*
G37*
%LPD*%
%LPC*%
G36*
X605590Y232515D02*
X605590Y232515D01*
X605590Y245424D01*
X605763Y246070D01*
X606098Y246649D01*
X606571Y247122D01*
X607150Y247457D01*
X607796Y247630D01*
X628325Y247630D01*
X628325Y232515D01*
X605590Y232515D01*
G37*
%LPD*%
%LPC*%
G36*
X21915Y156230D02*
X21915Y156230D01*
X21915Y171345D01*
X44650Y171345D01*
X44650Y158436D01*
X44477Y157790D01*
X44142Y157211D01*
X43669Y156738D01*
X43090Y156403D01*
X42444Y156230D01*
X21915Y156230D01*
G37*
%LPD*%
%LPC*%
G36*
X21915Y86338D02*
X21915Y86338D01*
X21915Y101453D01*
X44650Y101453D01*
X44650Y88544D01*
X44477Y87898D01*
X44142Y87319D01*
X43669Y86846D01*
X43090Y86511D01*
X42444Y86338D01*
X21915Y86338D01*
G37*
%LPD*%
%LPC*%
G36*
X607796Y285770D02*
X607796Y285770D01*
X607150Y285943D01*
X606571Y286278D01*
X606098Y286751D01*
X605763Y287330D01*
X605590Y287976D01*
X605590Y300885D01*
X628325Y300885D01*
X628325Y285770D01*
X607796Y285770D01*
G37*
%LPD*%
%LPC*%
G36*
X607796Y215878D02*
X607796Y215878D01*
X607150Y216051D01*
X606571Y216386D01*
X606098Y216859D01*
X605763Y217438D01*
X605590Y218084D01*
X605590Y230993D01*
X628325Y230993D01*
X628325Y215878D01*
X607796Y215878D01*
G37*
%LPD*%
%LPC*%
G36*
X66801Y267969D02*
X66801Y267969D01*
X66801Y279655D01*
X76926Y279655D01*
X78861Y279348D01*
X80724Y278743D01*
X82470Y277853D01*
X84055Y276702D01*
X85440Y275317D01*
X86591Y273732D01*
X87481Y271986D01*
X88086Y270123D01*
X88393Y268188D01*
X88393Y267969D01*
X66801Y267969D01*
G37*
%LPD*%
%LPC*%
G36*
X43687Y267969D02*
X43687Y267969D01*
X43687Y268188D01*
X43994Y270123D01*
X44599Y271986D01*
X45489Y273732D01*
X46640Y275317D01*
X48025Y276702D01*
X49610Y277853D01*
X51356Y278743D01*
X53219Y279348D01*
X55154Y279655D01*
X65279Y279655D01*
X65279Y267969D01*
X43687Y267969D01*
G37*
%LPD*%
%LPC*%
G36*
X66801Y254761D02*
X66801Y254761D01*
X66801Y266447D01*
X88393Y266447D01*
X88393Y266228D01*
X88086Y264293D01*
X87481Y262430D01*
X86591Y260684D01*
X85440Y259099D01*
X84055Y257714D01*
X82470Y256563D01*
X80724Y255673D01*
X78861Y255068D01*
X76926Y254761D01*
X66801Y254761D01*
G37*
%LPD*%
%LPC*%
G36*
X55154Y254761D02*
X55154Y254761D01*
X53219Y255068D01*
X51356Y255673D01*
X49610Y256563D01*
X48025Y257714D01*
X46640Y259099D01*
X45489Y260684D01*
X44599Y262430D01*
X43994Y264293D01*
X43687Y266228D01*
X43687Y266447D01*
X65279Y266447D01*
X65279Y254761D01*
X55154Y254761D01*
G37*
%LPD*%
%LPC*%
G36*
X66039Y267207D02*
X66039Y267207D01*
X66039Y267209D01*
X66041Y267209D01*
X66041Y267207D01*
X66039Y267207D01*
G37*
%LPD*%
D10*
X373380Y169418D02*
X373380Y186182D01*
X398780Y186182D02*
X398780Y169418D01*
X424180Y169418D02*
X424180Y186182D01*
D11*
X21154Y102214D03*
X21154Y172106D03*
X629086Y301646D03*
X629086Y231754D03*
D12*
X75946Y317246D02*
X56134Y317246D01*
X56134Y267208D02*
X75946Y267208D01*
D13*
X322580Y83820D03*
M02*
