G04 EAGLE Gerber RS-274X export*
G75*
%MOMM*%
%FSLAX34Y34*%
%LPD*%
%INTop Copper*%
%IPPOS*%
%AMOC8*
5,1,8,0,0,1.08239X$1,22.5*%
G01*
%ADD10R,1.500000X1.300000*%
%ADD11R,1.300000X1.500000*%
%ADD12R,1.400000X1.000000*%
%ADD13C,1.676400*%
%ADD14R,2.000000X2.000000*%
%ADD15R,4.191000X1.778000*%
%ADD16R,4.191000X2.667000*%
%ADD17C,1.981200*%
%ADD18C,1.000000*%
%ADD19C,1.500000*%
%ADD20C,0.800000*%

G36*
X644589Y5092D02*
X644589Y5092D01*
X644640Y5094D01*
X644672Y5112D01*
X644708Y5120D01*
X644747Y5153D01*
X644792Y5177D01*
X644813Y5207D01*
X644841Y5230D01*
X644862Y5277D01*
X644892Y5319D01*
X644900Y5361D01*
X644912Y5389D01*
X644911Y5419D01*
X644919Y5461D01*
X644919Y215498D01*
X644908Y215548D01*
X644906Y215599D01*
X644888Y215631D01*
X644880Y215667D01*
X644847Y215706D01*
X644823Y215751D01*
X644793Y215772D01*
X644770Y215800D01*
X644723Y215821D01*
X644681Y215851D01*
X644639Y215859D01*
X644611Y215871D01*
X644581Y215870D01*
X644539Y215878D01*
X629847Y215878D01*
X629847Y231373D01*
X629836Y231423D01*
X629834Y231474D01*
X629816Y231506D01*
X629808Y231542D01*
X629775Y231581D01*
X629751Y231626D01*
X629721Y231647D01*
X629697Y231675D01*
X629651Y231696D01*
X629609Y231726D01*
X629567Y231734D01*
X629539Y231746D01*
X629509Y231745D01*
X629467Y231753D01*
X629085Y231753D01*
X629085Y231755D01*
X629467Y231755D01*
X629517Y231766D01*
X629568Y231768D01*
X629600Y231786D01*
X629636Y231794D01*
X629675Y231827D01*
X629720Y231851D01*
X629741Y231881D01*
X629769Y231905D01*
X629790Y231951D01*
X629820Y231993D01*
X629828Y232035D01*
X629840Y232063D01*
X629839Y232093D01*
X629847Y232135D01*
X629847Y247630D01*
X644539Y247630D01*
X644589Y247641D01*
X644640Y247643D01*
X644672Y247661D01*
X644708Y247669D01*
X644747Y247702D01*
X644792Y247726D01*
X644813Y247756D01*
X644841Y247779D01*
X644862Y247826D01*
X644892Y247868D01*
X644900Y247910D01*
X644912Y247938D01*
X644911Y247968D01*
X644919Y248010D01*
X644919Y252349D01*
X644908Y252399D01*
X644906Y252450D01*
X644888Y252482D01*
X644880Y252518D01*
X644847Y252557D01*
X644823Y252602D01*
X644793Y252623D01*
X644770Y252651D01*
X644723Y252672D01*
X644681Y252702D01*
X644639Y252710D01*
X644611Y252722D01*
X644581Y252721D01*
X644539Y252729D01*
X606026Y252729D01*
X603050Y255705D01*
X603050Y256239D01*
X603039Y256289D01*
X603037Y256340D01*
X603019Y256372D01*
X603011Y256408D01*
X602978Y256447D01*
X602954Y256492D01*
X602924Y256513D01*
X602901Y256541D01*
X602854Y256562D01*
X602812Y256592D01*
X602770Y256600D01*
X602742Y256612D01*
X602712Y256611D01*
X602670Y256619D01*
X586321Y256619D01*
X586271Y256608D01*
X586220Y256606D01*
X586188Y256588D01*
X586152Y256580D01*
X586113Y256547D01*
X586068Y256523D01*
X586047Y256493D01*
X586019Y256470D01*
X585998Y256423D01*
X585968Y256381D01*
X585960Y256339D01*
X585948Y256311D01*
X585949Y256281D01*
X585941Y256239D01*
X585941Y254595D01*
X582965Y251619D01*
X558755Y251619D01*
X555779Y254595D01*
X555779Y278805D01*
X558755Y281781D01*
X582965Y281781D01*
X585941Y278805D01*
X585941Y277161D01*
X585952Y277111D01*
X585954Y277060D01*
X585972Y277028D01*
X585980Y276992D01*
X586013Y276953D01*
X586037Y276908D01*
X586067Y276887D01*
X586090Y276859D01*
X586137Y276838D01*
X586179Y276808D01*
X586221Y276800D01*
X586249Y276788D01*
X586279Y276789D01*
X586321Y276781D01*
X602670Y276781D01*
X602720Y276792D01*
X602771Y276794D01*
X602803Y276812D01*
X602839Y276820D01*
X602878Y276853D01*
X602923Y276877D01*
X602944Y276907D01*
X602972Y276930D01*
X602993Y276977D01*
X603023Y277019D01*
X603031Y277061D01*
X603043Y277089D01*
X603042Y277119D01*
X603050Y277161D01*
X603050Y277695D01*
X606026Y280671D01*
X644539Y280671D01*
X644589Y280682D01*
X644640Y280684D01*
X644672Y280702D01*
X644708Y280710D01*
X644747Y280743D01*
X644792Y280767D01*
X644813Y280797D01*
X644841Y280820D01*
X644862Y280867D01*
X644892Y280909D01*
X644900Y280951D01*
X644912Y280979D01*
X644911Y281009D01*
X644919Y281051D01*
X644919Y285390D01*
X644908Y285440D01*
X644906Y285491D01*
X644888Y285523D01*
X644880Y285559D01*
X644847Y285598D01*
X644823Y285643D01*
X644793Y285664D01*
X644770Y285692D01*
X644723Y285713D01*
X644681Y285743D01*
X644639Y285751D01*
X644611Y285763D01*
X644581Y285762D01*
X644539Y285770D01*
X629847Y285770D01*
X629847Y301265D01*
X629836Y301315D01*
X629834Y301366D01*
X629816Y301398D01*
X629808Y301434D01*
X629775Y301473D01*
X629751Y301518D01*
X629721Y301539D01*
X629697Y301567D01*
X629651Y301588D01*
X629609Y301618D01*
X629567Y301626D01*
X629539Y301638D01*
X629509Y301637D01*
X629467Y301645D01*
X629085Y301645D01*
X629085Y301647D01*
X629467Y301647D01*
X629517Y301658D01*
X629568Y301660D01*
X629600Y301678D01*
X629636Y301686D01*
X629675Y301719D01*
X629720Y301743D01*
X629741Y301773D01*
X629769Y301797D01*
X629790Y301843D01*
X629820Y301885D01*
X629828Y301927D01*
X629840Y301955D01*
X629839Y301981D01*
X629840Y301984D01*
X629840Y301990D01*
X629847Y302027D01*
X629847Y317522D01*
X644539Y317522D01*
X644589Y317533D01*
X644640Y317535D01*
X644672Y317553D01*
X644708Y317561D01*
X644747Y317594D01*
X644792Y317618D01*
X644813Y317648D01*
X644841Y317671D01*
X644862Y317718D01*
X644892Y317760D01*
X644900Y317802D01*
X644912Y317830D01*
X644911Y317860D01*
X644919Y317902D01*
X644919Y394539D01*
X644908Y394589D01*
X644906Y394640D01*
X644888Y394672D01*
X644880Y394708D01*
X644847Y394747D01*
X644823Y394792D01*
X644793Y394813D01*
X644770Y394841D01*
X644723Y394862D01*
X644681Y394892D01*
X644639Y394900D01*
X644611Y394912D01*
X644581Y394911D01*
X644539Y394919D01*
X5461Y394919D01*
X5411Y394908D01*
X5360Y394906D01*
X5328Y394888D01*
X5292Y394880D01*
X5253Y394847D01*
X5208Y394823D01*
X5187Y394793D01*
X5159Y394770D01*
X5138Y394723D01*
X5108Y394681D01*
X5100Y394639D01*
X5088Y394611D01*
X5089Y394581D01*
X5081Y394539D01*
X5081Y188362D01*
X5092Y188312D01*
X5094Y188261D01*
X5112Y188229D01*
X5120Y188193D01*
X5153Y188154D01*
X5177Y188109D01*
X5207Y188088D01*
X5230Y188060D01*
X5277Y188039D01*
X5319Y188009D01*
X5361Y188001D01*
X5389Y187989D01*
X5419Y187990D01*
X5461Y187982D01*
X20393Y187982D01*
X20393Y172487D01*
X20404Y172437D01*
X20406Y172386D01*
X20424Y172354D01*
X20432Y172318D01*
X20465Y172279D01*
X20489Y172234D01*
X20519Y172213D01*
X20542Y172185D01*
X20589Y172164D01*
X20631Y172134D01*
X20673Y172126D01*
X20701Y172114D01*
X20731Y172115D01*
X20773Y172107D01*
X21155Y172107D01*
X21155Y172105D01*
X20773Y172105D01*
X20723Y172094D01*
X20672Y172092D01*
X20640Y172074D01*
X20604Y172066D01*
X20565Y172033D01*
X20520Y172009D01*
X20499Y171979D01*
X20471Y171955D01*
X20450Y171909D01*
X20420Y171867D01*
X20412Y171825D01*
X20400Y171797D01*
X20401Y171767D01*
X20393Y171725D01*
X20393Y156230D01*
X5461Y156230D01*
X5411Y156219D01*
X5360Y156217D01*
X5328Y156199D01*
X5292Y156191D01*
X5253Y156158D01*
X5208Y156134D01*
X5187Y156104D01*
X5159Y156081D01*
X5138Y156034D01*
X5108Y155992D01*
X5100Y155950D01*
X5088Y155922D01*
X5089Y155892D01*
X5081Y155850D01*
X5081Y151511D01*
X5092Y151461D01*
X5094Y151410D01*
X5112Y151378D01*
X5120Y151342D01*
X5153Y151303D01*
X5177Y151258D01*
X5207Y151237D01*
X5230Y151209D01*
X5277Y151188D01*
X5319Y151158D01*
X5361Y151150D01*
X5389Y151138D01*
X5419Y151139D01*
X5461Y151131D01*
X44214Y151131D01*
X47190Y148155D01*
X47190Y147621D01*
X47201Y147571D01*
X47203Y147520D01*
X47221Y147488D01*
X47229Y147452D01*
X47262Y147413D01*
X47286Y147368D01*
X47316Y147347D01*
X47339Y147319D01*
X47386Y147298D01*
X47428Y147268D01*
X47470Y147260D01*
X47498Y147248D01*
X47528Y147249D01*
X47570Y147241D01*
X55438Y147241D01*
X55512Y147258D01*
X55587Y147271D01*
X55597Y147278D01*
X55607Y147280D01*
X55636Y147304D01*
X55707Y147352D01*
X58095Y149741D01*
X75305Y149741D01*
X75931Y149114D01*
X75975Y149087D01*
X76012Y149053D01*
X76047Y149042D01*
X76078Y149023D01*
X76129Y149018D01*
X76178Y149003D01*
X76214Y149010D01*
X76251Y149006D01*
X76298Y149024D01*
X76349Y149033D01*
X76384Y149057D01*
X76413Y149068D01*
X76434Y149090D01*
X76469Y149114D01*
X76828Y149473D01*
X76868Y149538D01*
X76912Y149600D01*
X76914Y149612D01*
X76919Y149620D01*
X76923Y149657D01*
X76939Y149742D01*
X76939Y166538D01*
X76922Y166612D01*
X76909Y166687D01*
X76902Y166697D01*
X76900Y166707D01*
X76876Y166736D01*
X76828Y166807D01*
X75439Y168195D01*
X75439Y187405D01*
X78415Y190381D01*
X95625Y190381D01*
X96251Y189754D01*
X96294Y189727D01*
X96332Y189693D01*
X96367Y189682D01*
X96398Y189663D01*
X96449Y189658D01*
X96498Y189643D01*
X96534Y189650D01*
X96571Y189646D01*
X96618Y189664D01*
X96669Y189673D01*
X96704Y189697D01*
X96733Y189708D01*
X96754Y189730D01*
X96789Y189754D01*
X97415Y190381D01*
X114625Y190381D01*
X117013Y187992D01*
X117078Y187952D01*
X117140Y187908D01*
X117152Y187906D01*
X117160Y187901D01*
X117197Y187897D01*
X117282Y187881D01*
X164879Y187881D01*
X164929Y187892D01*
X164980Y187894D01*
X165012Y187912D01*
X165048Y187920D01*
X165087Y187953D01*
X165132Y187977D01*
X165153Y188007D01*
X165181Y188030D01*
X165202Y188077D01*
X165232Y188119D01*
X165240Y188161D01*
X165252Y188189D01*
X165251Y188219D01*
X165259Y188261D01*
X165259Y189905D01*
X168235Y192881D01*
X169879Y192881D01*
X169929Y192892D01*
X169980Y192894D01*
X170012Y192912D01*
X170048Y192920D01*
X170087Y192953D01*
X170132Y192977D01*
X170153Y193007D01*
X170181Y193030D01*
X170202Y193077D01*
X170232Y193119D01*
X170240Y193161D01*
X170252Y193189D01*
X170251Y193219D01*
X170259Y193261D01*
X170259Y228065D01*
X171794Y231770D01*
X186670Y246646D01*
X190375Y248181D01*
X311318Y248181D01*
X311392Y248198D01*
X311467Y248211D01*
X311477Y248218D01*
X311487Y248220D01*
X311516Y248244D01*
X311587Y248292D01*
X312388Y249093D01*
X312428Y249158D01*
X312472Y249220D01*
X312474Y249232D01*
X312479Y249240D01*
X312483Y249277D01*
X312499Y249362D01*
X312499Y306379D01*
X312488Y306429D01*
X312486Y306480D01*
X312468Y306512D01*
X312460Y306548D01*
X312427Y306587D01*
X312403Y306632D01*
X312373Y306653D01*
X312350Y306681D01*
X312303Y306702D01*
X312261Y306732D01*
X312219Y306740D01*
X312191Y306752D01*
X312161Y306751D01*
X312119Y306759D01*
X255102Y306759D01*
X255028Y306742D01*
X254953Y306729D01*
X254943Y306722D01*
X254933Y306720D01*
X254904Y306696D01*
X254833Y306648D01*
X253820Y305635D01*
X253800Y305602D01*
X253771Y305575D01*
X253755Y305529D01*
X253729Y305488D01*
X253725Y305449D01*
X253712Y305412D01*
X253716Y305353D01*
X253712Y305315D01*
X253720Y305295D01*
X253722Y305268D01*
X253881Y304675D01*
X253881Y298601D01*
X244221Y298601D01*
X244171Y298590D01*
X244120Y298588D01*
X244088Y298570D01*
X244052Y298562D01*
X244013Y298529D01*
X243968Y298505D01*
X243947Y298475D01*
X243919Y298451D01*
X243898Y298405D01*
X243868Y298363D01*
X243860Y298321D01*
X243848Y298293D01*
X243849Y298263D01*
X243841Y298221D01*
X243841Y297839D01*
X243839Y297839D01*
X243839Y298221D01*
X243828Y298271D01*
X243826Y298322D01*
X243808Y298354D01*
X243800Y298390D01*
X243767Y298429D01*
X243743Y298474D01*
X243713Y298495D01*
X243689Y298523D01*
X243643Y298544D01*
X243601Y298574D01*
X243559Y298582D01*
X243531Y298594D01*
X243501Y298593D01*
X243459Y298601D01*
X233799Y298601D01*
X233799Y304675D01*
X233958Y305268D01*
X233959Y305307D01*
X233971Y305344D01*
X233962Y305392D01*
X233964Y305441D01*
X233948Y305476D01*
X233941Y305515D01*
X233907Y305564D01*
X233892Y305598D01*
X233875Y305612D01*
X233860Y305635D01*
X232847Y306648D01*
X232782Y306688D01*
X232720Y306732D01*
X232708Y306734D01*
X232700Y306739D01*
X232663Y306743D01*
X232578Y306759D01*
X173822Y306759D01*
X173748Y306742D01*
X173673Y306729D01*
X173663Y306722D01*
X173653Y306720D01*
X173624Y306696D01*
X173553Y306648D01*
X172540Y305635D01*
X172520Y305602D01*
X172491Y305575D01*
X172475Y305529D01*
X172449Y305488D01*
X172445Y305449D01*
X172432Y305412D01*
X172436Y305353D01*
X172432Y305315D01*
X172440Y305295D01*
X172442Y305268D01*
X172601Y304675D01*
X172601Y298601D01*
X162941Y298601D01*
X162891Y298590D01*
X162840Y298588D01*
X162808Y298570D01*
X162772Y298562D01*
X162733Y298529D01*
X162688Y298505D01*
X162667Y298475D01*
X162639Y298451D01*
X162618Y298405D01*
X162588Y298363D01*
X162580Y298321D01*
X162568Y298293D01*
X162569Y298263D01*
X162561Y298221D01*
X162561Y297839D01*
X162559Y297839D01*
X162559Y298221D01*
X162548Y298271D01*
X162546Y298322D01*
X162528Y298354D01*
X162520Y298390D01*
X162487Y298429D01*
X162463Y298474D01*
X162433Y298495D01*
X162409Y298523D01*
X162363Y298544D01*
X162321Y298574D01*
X162279Y298582D01*
X162251Y298594D01*
X162221Y298593D01*
X162179Y298601D01*
X152519Y298601D01*
X152519Y304675D01*
X152678Y305268D01*
X152679Y305307D01*
X152691Y305344D01*
X152682Y305392D01*
X152684Y305441D01*
X152668Y305476D01*
X152661Y305515D01*
X152627Y305564D01*
X152612Y305598D01*
X152595Y305612D01*
X152580Y305635D01*
X151567Y306648D01*
X151502Y306688D01*
X151440Y306732D01*
X151428Y306734D01*
X151420Y306739D01*
X151383Y306743D01*
X151298Y306759D01*
X86811Y306759D01*
X86737Y306742D01*
X86662Y306729D01*
X86652Y306722D01*
X86643Y306720D01*
X86614Y306696D01*
X86542Y306648D01*
X84435Y304541D01*
X78927Y302259D01*
X53153Y302259D01*
X47645Y304541D01*
X43429Y308757D01*
X41147Y314265D01*
X41147Y320227D01*
X43429Y325735D01*
X47645Y329951D01*
X53153Y332233D01*
X78927Y332233D01*
X84435Y329951D01*
X87354Y327032D01*
X87419Y326992D01*
X87481Y326948D01*
X87493Y326946D01*
X87502Y326941D01*
X87539Y326937D01*
X87623Y326921D01*
X151298Y326921D01*
X151372Y326938D01*
X151447Y326951D01*
X151457Y326958D01*
X151467Y326960D01*
X151496Y326984D01*
X151567Y327032D01*
X152955Y328421D01*
X172165Y328421D01*
X173553Y327032D01*
X173618Y326992D01*
X173680Y326948D01*
X173692Y326946D01*
X173700Y326941D01*
X173737Y326937D01*
X173822Y326921D01*
X232578Y326921D01*
X232652Y326938D01*
X232727Y326951D01*
X232737Y326958D01*
X232747Y326960D01*
X232776Y326984D01*
X232847Y327032D01*
X234235Y328421D01*
X253445Y328421D01*
X254833Y327032D01*
X254898Y326992D01*
X254960Y326948D01*
X254972Y326946D01*
X254980Y326941D01*
X255017Y326937D01*
X255102Y326921D01*
X467485Y326921D01*
X471190Y325386D01*
X488606Y307970D01*
X490141Y304265D01*
X490141Y282161D01*
X490152Y282111D01*
X490154Y282060D01*
X490172Y282028D01*
X490180Y281992D01*
X490213Y281953D01*
X490237Y281908D01*
X490267Y281887D01*
X490290Y281859D01*
X490337Y281838D01*
X490379Y281808D01*
X490421Y281800D01*
X490449Y281788D01*
X490479Y281789D01*
X490521Y281781D01*
X492165Y281781D01*
X495141Y278805D01*
X495141Y254595D01*
X492165Y251619D01*
X467955Y251619D01*
X464979Y254595D01*
X464979Y278805D01*
X467955Y281781D01*
X469599Y281781D01*
X469649Y281792D01*
X469700Y281794D01*
X469732Y281812D01*
X469768Y281820D01*
X469807Y281853D01*
X469852Y281877D01*
X469873Y281907D01*
X469901Y281930D01*
X469922Y281977D01*
X469952Y282019D01*
X469960Y282061D01*
X469972Y282089D01*
X469971Y282119D01*
X469979Y282161D01*
X469979Y297927D01*
X469962Y298001D01*
X469949Y298076D01*
X469942Y298086D01*
X469940Y298096D01*
X469916Y298124D01*
X469868Y298196D01*
X461416Y306648D01*
X461351Y306688D01*
X461289Y306732D01*
X461277Y306734D01*
X461269Y306739D01*
X461232Y306743D01*
X461147Y306759D01*
X333041Y306759D01*
X332991Y306748D01*
X332940Y306746D01*
X332908Y306728D01*
X332872Y306720D01*
X332833Y306687D01*
X332788Y306663D01*
X332767Y306633D01*
X332739Y306610D01*
X332718Y306563D01*
X332688Y306521D01*
X332680Y306479D01*
X332668Y306451D01*
X332669Y306421D01*
X332661Y306379D01*
X332661Y249362D01*
X332678Y249288D01*
X332691Y249213D01*
X332698Y249203D01*
X332700Y249193D01*
X332724Y249164D01*
X332772Y249093D01*
X335161Y246705D01*
X335161Y229495D01*
X334534Y228869D01*
X334507Y228826D01*
X334473Y228788D01*
X334462Y228753D01*
X334443Y228722D01*
X334438Y228671D01*
X334423Y228622D01*
X334430Y228586D01*
X334426Y228549D01*
X334444Y228502D01*
X334453Y228451D01*
X334477Y228416D01*
X334488Y228387D01*
X334510Y228366D01*
X334534Y228331D01*
X335161Y227705D01*
X335161Y210495D01*
X332772Y208107D01*
X332732Y208042D01*
X332688Y207980D01*
X332686Y207968D01*
X332681Y207960D01*
X332677Y207923D01*
X332661Y207838D01*
X332661Y188402D01*
X332678Y188328D01*
X332691Y188253D01*
X332698Y188243D01*
X332700Y188233D01*
X332724Y188205D01*
X332772Y188133D01*
X332913Y187992D01*
X332978Y187952D01*
X333040Y187908D01*
X333052Y187906D01*
X333060Y187901D01*
X333097Y187897D01*
X333182Y187881D01*
X359537Y187881D01*
X359587Y187892D01*
X359638Y187894D01*
X359670Y187912D01*
X359706Y187920D01*
X359745Y187953D01*
X359790Y187977D01*
X359811Y188007D01*
X359839Y188030D01*
X359860Y188077D01*
X359890Y188119D01*
X359898Y188161D01*
X359910Y188189D01*
X359909Y188219D01*
X359917Y188261D01*
X359917Y188860D01*
X361967Y193808D01*
X365754Y197595D01*
X370702Y199645D01*
X376058Y199645D01*
X381006Y197595D01*
X384793Y193808D01*
X385729Y191549D01*
X385744Y191528D01*
X385751Y191504D01*
X385794Y191459D01*
X385830Y191409D01*
X385853Y191396D01*
X385870Y191378D01*
X385928Y191356D01*
X385983Y191327D01*
X386009Y191327D01*
X386033Y191318D01*
X386094Y191324D01*
X386156Y191322D01*
X386179Y191333D01*
X386205Y191336D01*
X386257Y191369D01*
X386313Y191395D01*
X386330Y191415D01*
X386351Y191429D01*
X386399Y191500D01*
X386422Y191529D01*
X386424Y191539D01*
X386431Y191549D01*
X387367Y193808D01*
X388588Y195029D01*
X388628Y195094D01*
X388672Y195156D01*
X388674Y195168D01*
X388679Y195176D01*
X388683Y195213D01*
X388699Y195298D01*
X388699Y207745D01*
X390234Y211450D01*
X403230Y224446D01*
X406935Y225981D01*
X464599Y225981D01*
X464649Y225992D01*
X464700Y225994D01*
X464732Y226012D01*
X464768Y226020D01*
X464807Y226053D01*
X464852Y226077D01*
X464873Y226107D01*
X464901Y226130D01*
X464922Y226177D01*
X464952Y226219D01*
X464960Y226261D01*
X464972Y226289D01*
X464971Y226312D01*
X464972Y226314D01*
X464972Y226323D01*
X464979Y226361D01*
X464979Y228005D01*
X467955Y230981D01*
X492165Y230981D01*
X495141Y228005D01*
X495141Y203795D01*
X492165Y200819D01*
X467955Y200819D01*
X464979Y203795D01*
X464979Y205439D01*
X464968Y205489D01*
X464966Y205540D01*
X464948Y205572D01*
X464940Y205608D01*
X464907Y205647D01*
X464883Y205692D01*
X464853Y205713D01*
X464830Y205741D01*
X464783Y205762D01*
X464741Y205792D01*
X464699Y205800D01*
X464671Y205812D01*
X464641Y205811D01*
X464599Y205819D01*
X413273Y205819D01*
X413199Y205802D01*
X413124Y205789D01*
X413114Y205782D01*
X413104Y205780D01*
X413076Y205756D01*
X413004Y205708D01*
X408972Y201676D01*
X408932Y201611D01*
X408888Y201549D01*
X408886Y201537D01*
X408881Y201529D01*
X408877Y201492D01*
X408861Y201407D01*
X408861Y195298D01*
X408878Y195224D01*
X408891Y195149D01*
X408898Y195139D01*
X408900Y195129D01*
X408924Y195100D01*
X408972Y195029D01*
X410193Y193808D01*
X411129Y191549D01*
X411144Y191528D01*
X411151Y191504D01*
X411194Y191459D01*
X411230Y191409D01*
X411253Y191396D01*
X411270Y191378D01*
X411328Y191356D01*
X411383Y191327D01*
X411409Y191327D01*
X411433Y191318D01*
X411494Y191324D01*
X411556Y191322D01*
X411579Y191333D01*
X411605Y191336D01*
X411657Y191369D01*
X411713Y191395D01*
X411730Y191415D01*
X411751Y191429D01*
X411799Y191500D01*
X411822Y191529D01*
X411824Y191539D01*
X411831Y191549D01*
X412767Y193808D01*
X416554Y197595D01*
X421502Y199645D01*
X426858Y199645D01*
X431806Y197595D01*
X435593Y193808D01*
X437643Y188860D01*
X437643Y166740D01*
X435593Y161792D01*
X434372Y160571D01*
X434332Y160506D01*
X434288Y160444D01*
X434286Y160432D01*
X434281Y160424D01*
X434277Y160387D01*
X434261Y160302D01*
X434261Y142682D01*
X434278Y142608D01*
X434291Y142533D01*
X434298Y142523D01*
X434300Y142513D01*
X434324Y142484D01*
X434372Y142413D01*
X435173Y141612D01*
X435238Y141572D01*
X435300Y141528D01*
X435312Y141526D01*
X435320Y141521D01*
X435357Y141517D01*
X435442Y141501D01*
X448478Y141501D01*
X448552Y141518D01*
X448627Y141531D01*
X448637Y141538D01*
X448647Y141540D01*
X448676Y141564D01*
X448747Y141612D01*
X450135Y143001D01*
X469345Y143001D01*
X472321Y140025D01*
X472321Y122815D01*
X471694Y122189D01*
X471667Y122146D01*
X471633Y122108D01*
X471622Y122073D01*
X471603Y122042D01*
X471598Y121991D01*
X471583Y121942D01*
X471590Y121906D01*
X471586Y121869D01*
X471604Y121822D01*
X471613Y121771D01*
X471637Y121736D01*
X471648Y121707D01*
X471670Y121686D01*
X471694Y121651D01*
X472321Y121025D01*
X472321Y103815D01*
X469932Y101427D01*
X469892Y101362D01*
X469848Y101300D01*
X469846Y101288D01*
X469841Y101280D01*
X469837Y101243D01*
X469821Y101158D01*
X469821Y94422D01*
X469833Y94369D01*
X469834Y94339D01*
X469842Y94324D01*
X469851Y94273D01*
X469858Y94263D01*
X469860Y94253D01*
X469884Y94225D01*
X469932Y94153D01*
X470661Y93425D01*
X470661Y74215D01*
X467685Y71239D01*
X450475Y71239D01*
X447875Y73840D01*
X447842Y73860D01*
X447815Y73889D01*
X447769Y73905D01*
X447728Y73931D01*
X447689Y73935D01*
X447652Y73948D01*
X447593Y73944D01*
X447555Y73948D01*
X447535Y73940D01*
X447508Y73938D01*
X446915Y73779D01*
X440841Y73779D01*
X440841Y83439D01*
X440830Y83489D01*
X440828Y83540D01*
X440810Y83572D01*
X440802Y83608D01*
X440769Y83647D01*
X440745Y83692D01*
X440715Y83713D01*
X440691Y83741D01*
X440645Y83762D01*
X440603Y83792D01*
X440561Y83800D01*
X440533Y83812D01*
X440503Y83811D01*
X440461Y83819D01*
X440079Y83819D01*
X440079Y83821D01*
X440461Y83821D01*
X440511Y83832D01*
X440562Y83834D01*
X440594Y83852D01*
X440630Y83860D01*
X440669Y83893D01*
X440714Y83917D01*
X440735Y83947D01*
X440763Y83971D01*
X440784Y84017D01*
X440814Y84059D01*
X440822Y84101D01*
X440834Y84129D01*
X440833Y84159D01*
X440841Y84201D01*
X440841Y93861D01*
X446915Y93861D01*
X447508Y93702D01*
X447547Y93701D01*
X447584Y93689D01*
X447632Y93698D01*
X447681Y93696D01*
X447716Y93712D01*
X447755Y93719D01*
X447804Y93753D01*
X447839Y93768D01*
X447852Y93785D01*
X447875Y93800D01*
X449548Y95473D01*
X449588Y95538D01*
X449632Y95600D01*
X449634Y95612D01*
X449639Y95620D01*
X449643Y95657D01*
X449659Y95742D01*
X449659Y101158D01*
X449642Y101232D01*
X449629Y101307D01*
X449622Y101317D01*
X449620Y101327D01*
X449596Y101356D01*
X449548Y101427D01*
X447159Y103815D01*
X447159Y120959D01*
X447148Y121009D01*
X447146Y121060D01*
X447128Y121092D01*
X447120Y121128D01*
X447087Y121167D01*
X447063Y121212D01*
X447033Y121233D01*
X447010Y121261D01*
X446963Y121282D01*
X446921Y121312D01*
X446879Y121320D01*
X446851Y121332D01*
X446821Y121331D01*
X446779Y121339D01*
X435442Y121339D01*
X435368Y121322D01*
X435293Y121309D01*
X435283Y121302D01*
X435273Y121300D01*
X435244Y121276D01*
X435173Y121228D01*
X434160Y120215D01*
X434140Y120182D01*
X434111Y120155D01*
X434095Y120109D01*
X434069Y120068D01*
X434065Y120029D01*
X434052Y119992D01*
X434056Y119933D01*
X434052Y119895D01*
X434060Y119875D01*
X434062Y119848D01*
X434221Y119255D01*
X434221Y113181D01*
X424561Y113181D01*
X424511Y113170D01*
X424460Y113168D01*
X424428Y113150D01*
X424392Y113142D01*
X424353Y113109D01*
X424308Y113085D01*
X424287Y113055D01*
X424259Y113031D01*
X424238Y112985D01*
X424208Y112943D01*
X424200Y112901D01*
X424188Y112873D01*
X424189Y112843D01*
X424181Y112801D01*
X424181Y112419D01*
X424179Y112419D01*
X424179Y112801D01*
X424168Y112851D01*
X424166Y112902D01*
X424148Y112934D01*
X424140Y112970D01*
X424107Y113009D01*
X424083Y113054D01*
X424053Y113075D01*
X424029Y113103D01*
X423983Y113124D01*
X423941Y113154D01*
X423899Y113162D01*
X423871Y113174D01*
X423841Y113173D01*
X423799Y113181D01*
X414139Y113181D01*
X414139Y119255D01*
X414298Y119848D01*
X414299Y119887D01*
X414311Y119924D01*
X414302Y119972D01*
X414304Y120021D01*
X414288Y120056D01*
X414281Y120095D01*
X414247Y120144D01*
X414232Y120178D01*
X414215Y120192D01*
X414200Y120215D01*
X411599Y122815D01*
X411599Y140025D01*
X413988Y142413D01*
X414028Y142478D01*
X414072Y142540D01*
X414074Y142552D01*
X414079Y142560D01*
X414083Y142597D01*
X414099Y142682D01*
X414099Y160302D01*
X414082Y160376D01*
X414069Y160451D01*
X414062Y160461D01*
X414060Y160471D01*
X414036Y160500D01*
X413988Y160571D01*
X412767Y161792D01*
X411831Y164051D01*
X411816Y164072D01*
X411809Y164096D01*
X411766Y164141D01*
X411730Y164191D01*
X411707Y164203D01*
X411690Y164222D01*
X411632Y164244D01*
X411577Y164273D01*
X411551Y164273D01*
X411527Y164282D01*
X411466Y164276D01*
X411404Y164278D01*
X411381Y164267D01*
X411355Y164264D01*
X411303Y164231D01*
X411247Y164205D01*
X411230Y164185D01*
X411209Y164171D01*
X411161Y164099D01*
X411138Y164071D01*
X411135Y164061D01*
X411129Y164051D01*
X410193Y161792D01*
X406406Y158005D01*
X401458Y155955D01*
X396102Y155955D01*
X391154Y158005D01*
X387367Y161792D01*
X386431Y164051D01*
X386416Y164072D01*
X386409Y164096D01*
X386366Y164141D01*
X386330Y164191D01*
X386307Y164203D01*
X386290Y164222D01*
X386232Y164244D01*
X386177Y164273D01*
X386151Y164273D01*
X386127Y164282D01*
X386066Y164276D01*
X386004Y164278D01*
X385981Y164267D01*
X385955Y164264D01*
X385903Y164231D01*
X385847Y164205D01*
X385830Y164185D01*
X385809Y164171D01*
X385761Y164099D01*
X385738Y164071D01*
X385735Y164061D01*
X385729Y164051D01*
X384793Y161792D01*
X381006Y158005D01*
X376058Y155955D01*
X370702Y155955D01*
X365754Y158005D01*
X361967Y161792D01*
X359917Y166740D01*
X359917Y167339D01*
X359906Y167389D01*
X359904Y167440D01*
X359886Y167472D01*
X359878Y167508D01*
X359845Y167547D01*
X359821Y167592D01*
X359791Y167613D01*
X359768Y167641D01*
X359721Y167662D01*
X359679Y167692D01*
X359637Y167700D01*
X359609Y167712D01*
X359579Y167711D01*
X359537Y167719D01*
X333182Y167719D01*
X333108Y167702D01*
X333033Y167689D01*
X333023Y167682D01*
X333013Y167680D01*
X332984Y167656D01*
X332913Y167608D01*
X332772Y167467D01*
X332732Y167402D01*
X332688Y167340D01*
X332686Y167328D01*
X332681Y167320D01*
X332677Y167283D01*
X332661Y167198D01*
X332661Y142682D01*
X332678Y142608D01*
X332691Y142533D01*
X332698Y142523D01*
X332700Y142513D01*
X332724Y142484D01*
X332772Y142413D01*
X335161Y140025D01*
X335161Y122815D01*
X332560Y120215D01*
X332540Y120182D01*
X332511Y120155D01*
X332495Y120109D01*
X332469Y120068D01*
X332465Y120029D01*
X332452Y119992D01*
X332456Y119933D01*
X332452Y119895D01*
X332460Y119875D01*
X332462Y119848D01*
X332621Y119255D01*
X332621Y113181D01*
X322961Y113181D01*
X322911Y113170D01*
X322860Y113168D01*
X322828Y113150D01*
X322792Y113142D01*
X322753Y113109D01*
X322708Y113085D01*
X322687Y113055D01*
X322659Y113031D01*
X322638Y112985D01*
X322608Y112943D01*
X322600Y112901D01*
X322588Y112873D01*
X322589Y112843D01*
X322581Y112801D01*
X322581Y112419D01*
X322579Y112419D01*
X322579Y112801D01*
X322568Y112851D01*
X322566Y112902D01*
X322548Y112934D01*
X322540Y112970D01*
X322507Y113009D01*
X322483Y113054D01*
X322453Y113075D01*
X322429Y113103D01*
X322383Y113124D01*
X322341Y113154D01*
X322299Y113162D01*
X322271Y113174D01*
X322241Y113173D01*
X322199Y113181D01*
X312539Y113181D01*
X312539Y119255D01*
X312698Y119848D01*
X312699Y119887D01*
X312711Y119924D01*
X312702Y119972D01*
X312704Y120021D01*
X312688Y120056D01*
X312681Y120095D01*
X312647Y120144D01*
X312632Y120178D01*
X312615Y120192D01*
X312600Y120215D01*
X309999Y122815D01*
X309999Y140025D01*
X312388Y142413D01*
X312428Y142478D01*
X312472Y142540D01*
X312474Y142552D01*
X312479Y142560D01*
X312483Y142597D01*
X312499Y142682D01*
X312499Y165276D01*
X312493Y165301D01*
X312496Y165327D01*
X312474Y165385D01*
X312460Y165445D01*
X312443Y165465D01*
X312434Y165489D01*
X312389Y165531D01*
X312350Y165578D01*
X312326Y165589D01*
X312307Y165607D01*
X312248Y165624D01*
X312191Y165649D01*
X312166Y165648D01*
X312141Y165656D01*
X312080Y165645D01*
X312018Y165643D01*
X311996Y165630D01*
X311970Y165626D01*
X311899Y165578D01*
X311866Y165560D01*
X311860Y165552D01*
X311850Y165545D01*
X311525Y165219D01*
X294315Y165219D01*
X291927Y167608D01*
X291862Y167648D01*
X291800Y167692D01*
X291788Y167694D01*
X291780Y167699D01*
X291743Y167703D01*
X291658Y167719D01*
X286601Y167719D01*
X286551Y167708D01*
X286500Y167706D01*
X286468Y167688D01*
X286432Y167680D01*
X286393Y167647D01*
X286348Y167623D01*
X286327Y167593D01*
X286299Y167570D01*
X286278Y167523D01*
X286248Y167481D01*
X286240Y167439D01*
X286228Y167411D01*
X286229Y167381D01*
X286221Y167339D01*
X286221Y165695D01*
X283245Y162719D01*
X259035Y162719D01*
X256059Y165695D01*
X256059Y189905D01*
X259035Y192881D01*
X283245Y192881D01*
X286221Y189905D01*
X286221Y188261D01*
X286232Y188211D01*
X286234Y188160D01*
X286252Y188128D01*
X286260Y188092D01*
X286293Y188053D01*
X286317Y188008D01*
X286347Y187987D01*
X286370Y187959D01*
X286417Y187938D01*
X286459Y187908D01*
X286501Y187900D01*
X286529Y187888D01*
X286559Y187889D01*
X286601Y187881D01*
X291658Y187881D01*
X291732Y187898D01*
X291807Y187911D01*
X291817Y187918D01*
X291827Y187920D01*
X291856Y187944D01*
X291927Y187992D01*
X294315Y190381D01*
X311525Y190381D01*
X311850Y190055D01*
X311872Y190041D01*
X311888Y190022D01*
X311945Y189996D01*
X311997Y189964D01*
X312023Y189961D01*
X312047Y189951D01*
X312108Y189953D01*
X312170Y189947D01*
X312194Y189956D01*
X312220Y189957D01*
X312274Y189987D01*
X312332Y190009D01*
X312349Y190028D01*
X312372Y190040D01*
X312407Y190090D01*
X312449Y190136D01*
X312457Y190161D01*
X312472Y190182D01*
X312488Y190266D01*
X312499Y190302D01*
X312497Y190312D01*
X312499Y190324D01*
X312499Y207838D01*
X312482Y207912D01*
X312469Y207987D01*
X312462Y207997D01*
X312460Y208007D01*
X312436Y208036D01*
X312388Y208107D01*
X309999Y210495D01*
X309999Y227639D01*
X309988Y227689D01*
X309986Y227740D01*
X309968Y227772D01*
X309960Y227808D01*
X309927Y227847D01*
X309903Y227892D01*
X309873Y227913D01*
X309850Y227941D01*
X309803Y227962D01*
X309761Y227992D01*
X309719Y228000D01*
X309691Y228012D01*
X309661Y228011D01*
X309619Y228019D01*
X196713Y228019D01*
X196639Y228002D01*
X196564Y227989D01*
X196554Y227982D01*
X196544Y227980D01*
X196516Y227956D01*
X196444Y227908D01*
X190532Y221996D01*
X190492Y221931D01*
X190448Y221869D01*
X190446Y221857D01*
X190441Y221849D01*
X190437Y221812D01*
X190421Y221727D01*
X190421Y193261D01*
X190432Y193211D01*
X190434Y193160D01*
X190452Y193128D01*
X190460Y193092D01*
X190493Y193053D01*
X190517Y193008D01*
X190547Y192987D01*
X190570Y192959D01*
X190617Y192938D01*
X190659Y192908D01*
X190701Y192900D01*
X190729Y192888D01*
X190759Y192889D01*
X190801Y192881D01*
X192445Y192881D01*
X195421Y189905D01*
X195421Y165695D01*
X192445Y162719D01*
X168235Y162719D01*
X165259Y165695D01*
X165259Y167339D01*
X165248Y167389D01*
X165246Y167440D01*
X165228Y167472D01*
X165220Y167508D01*
X165187Y167547D01*
X165163Y167592D01*
X165133Y167613D01*
X165110Y167641D01*
X165063Y167662D01*
X165021Y167692D01*
X164979Y167700D01*
X164951Y167712D01*
X164921Y167711D01*
X164879Y167719D01*
X117282Y167719D01*
X117208Y167702D01*
X117133Y167689D01*
X117123Y167682D01*
X117113Y167680D01*
X117084Y167656D01*
X117013Y167608D01*
X114625Y165219D01*
X97481Y165219D01*
X97431Y165208D01*
X97380Y165206D01*
X97348Y165188D01*
X97312Y165180D01*
X97273Y165147D01*
X97228Y165123D01*
X97207Y165093D01*
X97179Y165070D01*
X97158Y165023D01*
X97128Y164981D01*
X97120Y164939D01*
X97108Y164911D01*
X97109Y164881D01*
X97101Y164839D01*
X97101Y147102D01*
X97118Y147028D01*
X97131Y146953D01*
X97138Y146943D01*
X97140Y146933D01*
X97164Y146904D01*
X97212Y146833D01*
X97281Y146765D01*
X97281Y145961D01*
X97292Y145911D01*
X97294Y145860D01*
X97312Y145828D01*
X97320Y145792D01*
X97353Y145753D01*
X97377Y145708D01*
X97407Y145687D01*
X97430Y145659D01*
X97477Y145638D01*
X97519Y145608D01*
X97561Y145600D01*
X97589Y145588D01*
X97619Y145589D01*
X97661Y145581D01*
X118438Y145581D01*
X118512Y145598D01*
X118587Y145611D01*
X118597Y145618D01*
X118607Y145620D01*
X118636Y145644D01*
X118707Y145692D01*
X119595Y146581D01*
X137805Y146581D01*
X140781Y143605D01*
X140781Y137184D01*
X140787Y137159D01*
X140784Y137133D01*
X140806Y137075D01*
X140820Y137015D01*
X140837Y136995D01*
X140846Y136971D01*
X140891Y136929D01*
X140930Y136882D01*
X140954Y136871D01*
X140973Y136853D01*
X141032Y136836D01*
X141089Y136811D01*
X141114Y136812D01*
X141139Y136804D01*
X141200Y136815D01*
X141262Y136817D01*
X141284Y136830D01*
X141310Y136834D01*
X141381Y136882D01*
X141414Y136900D01*
X141420Y136908D01*
X141430Y136915D01*
X141596Y137081D01*
X159805Y137081D01*
X160693Y136192D01*
X160758Y136152D01*
X160820Y136108D01*
X160832Y136106D01*
X160840Y136101D01*
X160877Y136097D01*
X160962Y136081D01*
X164879Y136081D01*
X164929Y136092D01*
X164980Y136094D01*
X165012Y136112D01*
X165048Y136120D01*
X165087Y136153D01*
X165132Y136177D01*
X165153Y136207D01*
X165181Y136230D01*
X165202Y136277D01*
X165232Y136319D01*
X165240Y136361D01*
X165252Y136389D01*
X165251Y136419D01*
X165259Y136461D01*
X165259Y139105D01*
X168235Y142081D01*
X192445Y142081D01*
X195421Y139105D01*
X195421Y114895D01*
X192445Y111919D01*
X168235Y111919D01*
X165259Y114895D01*
X165259Y117539D01*
X165248Y117589D01*
X165246Y117640D01*
X165228Y117672D01*
X165220Y117708D01*
X165187Y117747D01*
X165163Y117792D01*
X165133Y117813D01*
X165110Y117841D01*
X165063Y117862D01*
X165021Y117892D01*
X164979Y117900D01*
X164951Y117912D01*
X164921Y117911D01*
X164879Y117919D01*
X160962Y117919D01*
X160888Y117902D01*
X160813Y117889D01*
X160803Y117882D01*
X160793Y117880D01*
X160764Y117856D01*
X160693Y117808D01*
X159805Y116919D01*
X141596Y116919D01*
X141430Y117085D01*
X141408Y117099D01*
X141392Y117118D01*
X141335Y117144D01*
X141283Y117176D01*
X141257Y117179D01*
X141233Y117189D01*
X141172Y117187D01*
X141110Y117193D01*
X141086Y117184D01*
X141060Y117183D01*
X141006Y117153D01*
X140948Y117131D01*
X140931Y117112D01*
X140908Y117100D01*
X140873Y117049D01*
X140831Y117004D01*
X140823Y116979D01*
X140808Y116958D01*
X140792Y116874D01*
X140781Y116838D01*
X140783Y116828D01*
X140781Y116816D01*
X140781Y110395D01*
X137892Y107507D01*
X137852Y107442D01*
X137808Y107380D01*
X137806Y107368D01*
X137801Y107360D01*
X137797Y107323D01*
X137781Y107238D01*
X137781Y95121D01*
X137792Y95071D01*
X137794Y95020D01*
X137812Y94988D01*
X137820Y94952D01*
X137853Y94913D01*
X137877Y94868D01*
X137907Y94847D01*
X137930Y94819D01*
X137977Y94798D01*
X138019Y94768D01*
X138061Y94760D01*
X138089Y94748D01*
X138119Y94749D01*
X138161Y94741D01*
X139145Y94741D01*
X140533Y93352D01*
X140598Y93312D01*
X140660Y93268D01*
X140672Y93266D01*
X140680Y93261D01*
X140717Y93257D01*
X140802Y93241D01*
X151298Y93241D01*
X151372Y93258D01*
X151447Y93271D01*
X151457Y93278D01*
X151467Y93280D01*
X151496Y93304D01*
X151567Y93352D01*
X152955Y94741D01*
X172165Y94741D01*
X175141Y91765D01*
X175141Y74555D01*
X174514Y73929D01*
X174487Y73886D01*
X174453Y73848D01*
X174442Y73813D01*
X174423Y73782D01*
X174418Y73731D01*
X174403Y73682D01*
X174410Y73646D01*
X174406Y73609D01*
X174424Y73562D01*
X174433Y73511D01*
X174457Y73476D01*
X174468Y73447D01*
X174490Y73426D01*
X174514Y73391D01*
X175141Y72765D01*
X175141Y55555D01*
X172752Y53167D01*
X172712Y53102D01*
X172668Y53040D01*
X172666Y53028D01*
X172661Y53020D01*
X172657Y52983D01*
X172641Y52898D01*
X172641Y48702D01*
X172658Y48628D01*
X172671Y48553D01*
X172678Y48543D01*
X172680Y48533D01*
X172704Y48504D01*
X172752Y48433D01*
X173481Y47705D01*
X173481Y28495D01*
X170505Y25519D01*
X153295Y25519D01*
X150695Y28120D01*
X150662Y28140D01*
X150635Y28169D01*
X150589Y28185D01*
X150548Y28211D01*
X150509Y28215D01*
X150472Y28228D01*
X150413Y28224D01*
X150375Y28228D01*
X150355Y28220D01*
X150328Y28218D01*
X149735Y28059D01*
X143661Y28059D01*
X143661Y37719D01*
X143650Y37769D01*
X143648Y37820D01*
X143630Y37852D01*
X143622Y37888D01*
X143589Y37927D01*
X143565Y37972D01*
X143535Y37993D01*
X143511Y38021D01*
X143465Y38042D01*
X143423Y38072D01*
X143381Y38080D01*
X143353Y38092D01*
X143323Y38091D01*
X143281Y38099D01*
X142899Y38099D01*
X142899Y38101D01*
X143281Y38101D01*
X143331Y38112D01*
X143382Y38114D01*
X143414Y38132D01*
X143450Y38140D01*
X143489Y38173D01*
X143534Y38197D01*
X143555Y38227D01*
X143583Y38251D01*
X143604Y38297D01*
X143634Y38339D01*
X143642Y38381D01*
X143654Y38409D01*
X143653Y38439D01*
X143661Y38481D01*
X143661Y48141D01*
X149735Y48141D01*
X150328Y47982D01*
X150367Y47981D01*
X150404Y47969D01*
X150452Y47978D01*
X150501Y47976D01*
X150536Y47992D01*
X150575Y47999D01*
X150624Y48033D01*
X150658Y48048D01*
X150672Y48065D01*
X150695Y48080D01*
X152368Y49753D01*
X152408Y49818D01*
X152452Y49880D01*
X152454Y49892D01*
X152459Y49900D01*
X152463Y49937D01*
X152479Y50022D01*
X152479Y52898D01*
X152462Y52972D01*
X152449Y53047D01*
X152442Y53057D01*
X152440Y53067D01*
X152416Y53096D01*
X152368Y53167D01*
X149979Y55555D01*
X149979Y72699D01*
X149968Y72749D01*
X149966Y72800D01*
X149948Y72832D01*
X149940Y72868D01*
X149907Y72907D01*
X149883Y72952D01*
X149853Y72973D01*
X149830Y73001D01*
X149783Y73022D01*
X149741Y73052D01*
X149699Y73060D01*
X149671Y73072D01*
X149641Y73071D01*
X149599Y73079D01*
X140802Y73079D01*
X140728Y73062D01*
X140653Y73049D01*
X140643Y73042D01*
X140633Y73040D01*
X140605Y73016D01*
X140533Y72968D01*
X139520Y71955D01*
X139500Y71922D01*
X139471Y71895D01*
X139455Y71849D01*
X139429Y71808D01*
X139425Y71769D01*
X139412Y71732D01*
X139416Y71673D01*
X139412Y71635D01*
X139420Y71615D01*
X139422Y71588D01*
X139581Y70995D01*
X139581Y64921D01*
X129921Y64921D01*
X129871Y64910D01*
X129820Y64908D01*
X129788Y64890D01*
X129752Y64882D01*
X129713Y64849D01*
X129668Y64825D01*
X129647Y64795D01*
X129619Y64771D01*
X129598Y64725D01*
X129568Y64683D01*
X129560Y64641D01*
X129548Y64613D01*
X129549Y64583D01*
X129541Y64541D01*
X129541Y64159D01*
X129539Y64159D01*
X129539Y64541D01*
X129528Y64591D01*
X129526Y64642D01*
X129508Y64674D01*
X129500Y64710D01*
X129467Y64749D01*
X129443Y64794D01*
X129413Y64815D01*
X129389Y64843D01*
X129343Y64864D01*
X129301Y64894D01*
X129259Y64902D01*
X129231Y64914D01*
X129201Y64913D01*
X129159Y64921D01*
X119499Y64921D01*
X119499Y70995D01*
X119658Y71588D01*
X119659Y71627D01*
X119671Y71664D01*
X119662Y71712D01*
X119664Y71761D01*
X119648Y71796D01*
X119641Y71835D01*
X119607Y71884D01*
X119592Y71918D01*
X119575Y71932D01*
X119560Y71955D01*
X116959Y74555D01*
X116959Y91765D01*
X119508Y94313D01*
X119548Y94378D01*
X119592Y94440D01*
X119594Y94452D01*
X119599Y94460D01*
X119603Y94497D01*
X119619Y94582D01*
X119619Y107238D01*
X119602Y107312D01*
X119589Y107387D01*
X119582Y107397D01*
X119580Y107407D01*
X119556Y107436D01*
X119508Y107507D01*
X116619Y110395D01*
X116619Y124605D01*
X118746Y126731D01*
X118773Y126774D01*
X118807Y126812D01*
X118818Y126847D01*
X118837Y126878D01*
X118842Y126929D01*
X118857Y126978D01*
X118850Y127014D01*
X118854Y127051D01*
X118836Y127098D01*
X118827Y127149D01*
X118803Y127184D01*
X118792Y127213D01*
X118770Y127234D01*
X118746Y127269D01*
X118707Y127308D01*
X118642Y127348D01*
X118580Y127392D01*
X118568Y127394D01*
X118560Y127399D01*
X118523Y127403D01*
X118438Y127419D01*
X97302Y127419D01*
X97228Y127402D01*
X97153Y127389D01*
X97143Y127382D01*
X97133Y127380D01*
X97105Y127356D01*
X97033Y127308D01*
X95892Y126167D01*
X95852Y126102D01*
X95808Y126040D01*
X95806Y126028D01*
X95801Y126020D01*
X95797Y125983D01*
X95781Y125898D01*
X95781Y95082D01*
X95798Y95008D01*
X95811Y94933D01*
X95818Y94923D01*
X95820Y94913D01*
X95844Y94884D01*
X95892Y94813D01*
X98941Y91765D01*
X98941Y74555D01*
X96340Y71955D01*
X96320Y71922D01*
X96291Y71895D01*
X96275Y71849D01*
X96249Y71808D01*
X96245Y71769D01*
X96232Y71732D01*
X96236Y71673D01*
X96232Y71635D01*
X96240Y71615D01*
X96242Y71588D01*
X96401Y70995D01*
X96401Y64921D01*
X86741Y64921D01*
X86691Y64910D01*
X86640Y64908D01*
X86608Y64890D01*
X86572Y64882D01*
X86533Y64849D01*
X86488Y64825D01*
X86467Y64795D01*
X86439Y64771D01*
X86418Y64725D01*
X86388Y64683D01*
X86380Y64641D01*
X86368Y64613D01*
X86369Y64583D01*
X86361Y64541D01*
X86361Y64159D01*
X86359Y64159D01*
X86359Y64541D01*
X86348Y64591D01*
X86346Y64642D01*
X86328Y64674D01*
X86320Y64710D01*
X86287Y64749D01*
X86263Y64794D01*
X86233Y64815D01*
X86209Y64843D01*
X86163Y64864D01*
X86121Y64894D01*
X86079Y64902D01*
X86051Y64914D01*
X86021Y64913D01*
X85979Y64921D01*
X76319Y64921D01*
X76319Y70995D01*
X76478Y71588D01*
X76479Y71627D01*
X76491Y71664D01*
X76482Y71712D01*
X76484Y71761D01*
X76468Y71796D01*
X76461Y71835D01*
X76427Y71884D01*
X76412Y71918D01*
X76395Y71932D01*
X76380Y71955D01*
X73779Y74555D01*
X73779Y91765D01*
X75508Y93493D01*
X75548Y93558D01*
X75592Y93620D01*
X75594Y93632D01*
X75599Y93640D01*
X75603Y93677D01*
X75619Y93762D01*
X75619Y124199D01*
X75608Y124249D01*
X75606Y124300D01*
X75588Y124332D01*
X75580Y124368D01*
X75547Y124407D01*
X75523Y124452D01*
X75493Y124473D01*
X75470Y124501D01*
X75423Y124522D01*
X75381Y124552D01*
X75339Y124560D01*
X75311Y124572D01*
X75281Y124571D01*
X75239Y124579D01*
X58095Y124579D01*
X55707Y126968D01*
X55642Y127008D01*
X55580Y127052D01*
X55568Y127054D01*
X55560Y127059D01*
X55523Y127063D01*
X55438Y127079D01*
X47570Y127079D01*
X47520Y127068D01*
X47469Y127066D01*
X47437Y127048D01*
X47401Y127040D01*
X47362Y127007D01*
X47317Y126983D01*
X47296Y126953D01*
X47268Y126930D01*
X47247Y126883D01*
X47217Y126841D01*
X47209Y126799D01*
X47197Y126771D01*
X47198Y126741D01*
X47190Y126699D01*
X47190Y126165D01*
X44214Y123189D01*
X5461Y123189D01*
X5411Y123178D01*
X5360Y123176D01*
X5328Y123158D01*
X5292Y123150D01*
X5253Y123117D01*
X5208Y123093D01*
X5187Y123063D01*
X5159Y123040D01*
X5138Y122993D01*
X5108Y122951D01*
X5100Y122909D01*
X5088Y122881D01*
X5089Y122851D01*
X5081Y122809D01*
X5081Y118470D01*
X5092Y118420D01*
X5094Y118369D01*
X5112Y118337D01*
X5120Y118301D01*
X5153Y118262D01*
X5177Y118217D01*
X5207Y118196D01*
X5230Y118168D01*
X5277Y118147D01*
X5319Y118117D01*
X5361Y118109D01*
X5389Y118097D01*
X5419Y118098D01*
X5461Y118090D01*
X20393Y118090D01*
X20393Y102595D01*
X20404Y102545D01*
X20406Y102494D01*
X20424Y102462D01*
X20432Y102426D01*
X20465Y102387D01*
X20489Y102342D01*
X20519Y102321D01*
X20542Y102293D01*
X20589Y102272D01*
X20631Y102242D01*
X20673Y102234D01*
X20701Y102222D01*
X20731Y102223D01*
X20773Y102215D01*
X21155Y102215D01*
X21155Y102213D01*
X20773Y102213D01*
X20723Y102202D01*
X20672Y102200D01*
X20640Y102182D01*
X20604Y102174D01*
X20565Y102141D01*
X20520Y102117D01*
X20499Y102087D01*
X20471Y102063D01*
X20450Y102017D01*
X20420Y101975D01*
X20412Y101933D01*
X20400Y101905D01*
X20401Y101875D01*
X20393Y101833D01*
X20393Y86338D01*
X5461Y86338D01*
X5411Y86327D01*
X5360Y86325D01*
X5328Y86307D01*
X5292Y86299D01*
X5253Y86266D01*
X5208Y86242D01*
X5187Y86212D01*
X5159Y86189D01*
X5138Y86142D01*
X5108Y86100D01*
X5100Y86058D01*
X5088Y86030D01*
X5089Y86000D01*
X5081Y85958D01*
X5081Y5461D01*
X5092Y5411D01*
X5094Y5360D01*
X5112Y5328D01*
X5120Y5292D01*
X5153Y5253D01*
X5177Y5208D01*
X5207Y5187D01*
X5230Y5159D01*
X5277Y5138D01*
X5319Y5108D01*
X5361Y5100D01*
X5389Y5088D01*
X5419Y5089D01*
X5461Y5081D01*
X644539Y5081D01*
X644589Y5092D01*
G37*
%LPC*%
G36*
X394485Y331469D02*
X394485Y331469D01*
X386550Y334756D01*
X380476Y340830D01*
X377189Y348765D01*
X377189Y357355D01*
X380476Y365290D01*
X386550Y371364D01*
X394485Y374651D01*
X403075Y374651D01*
X411010Y371364D01*
X417084Y365290D01*
X420371Y357355D01*
X420371Y348765D01*
X417084Y340830D01*
X411010Y334756D01*
X403075Y331469D01*
X394485Y331469D01*
G37*
%LPD*%
%LPC*%
G36*
X546006Y339919D02*
X546006Y339919D01*
X538625Y342976D01*
X532976Y348625D01*
X529919Y356006D01*
X529919Y363994D01*
X532976Y371375D01*
X538625Y377024D01*
X546006Y380081D01*
X553994Y380081D01*
X561375Y377024D01*
X567024Y371375D01*
X570081Y363994D01*
X570081Y356006D01*
X567024Y348625D01*
X561375Y342976D01*
X553994Y339919D01*
X546006Y339919D01*
G37*
%LPD*%
%LPC*%
G36*
X606006Y19919D02*
X606006Y19919D01*
X598625Y22976D01*
X592976Y28625D01*
X589919Y36006D01*
X589919Y43994D01*
X592976Y51375D01*
X598625Y57024D01*
X606006Y60081D01*
X613994Y60081D01*
X621375Y57024D01*
X627024Y51375D01*
X630081Y43994D01*
X630081Y36006D01*
X627024Y28625D01*
X621375Y22976D01*
X613994Y19919D01*
X606006Y19919D01*
G37*
%LPD*%
%LPC*%
G36*
X36006Y19919D02*
X36006Y19919D01*
X28625Y22976D01*
X22976Y28625D01*
X19919Y36006D01*
X19919Y43994D01*
X22976Y51375D01*
X28625Y57024D01*
X36006Y60081D01*
X43994Y60081D01*
X51375Y57024D01*
X57024Y51375D01*
X60081Y43994D01*
X60081Y36006D01*
X57024Y28625D01*
X51375Y22976D01*
X43994Y19919D01*
X36006Y19919D01*
G37*
%LPD*%
%LPC*%
G36*
X21915Y102975D02*
X21915Y102975D01*
X21915Y118090D01*
X42444Y118090D01*
X43090Y117917D01*
X43669Y117582D01*
X44142Y117109D01*
X44477Y116530D01*
X44650Y115884D01*
X44650Y102975D01*
X21915Y102975D01*
G37*
%LPD*%
%LPC*%
G36*
X21915Y172867D02*
X21915Y172867D01*
X21915Y187982D01*
X42444Y187982D01*
X43090Y187809D01*
X43669Y187474D01*
X44142Y187001D01*
X44477Y186422D01*
X44650Y185776D01*
X44650Y172867D01*
X21915Y172867D01*
G37*
%LPD*%
%LPC*%
G36*
X605590Y302407D02*
X605590Y302407D01*
X605590Y315316D01*
X605763Y315962D01*
X606098Y316541D01*
X606571Y317014D01*
X607150Y317349D01*
X607796Y317522D01*
X628325Y317522D01*
X628325Y302407D01*
X605590Y302407D01*
G37*
%LPD*%
%LPC*%
G36*
X605590Y232515D02*
X605590Y232515D01*
X605590Y245424D01*
X605763Y246070D01*
X606098Y246649D01*
X606571Y247122D01*
X607150Y247457D01*
X607796Y247630D01*
X628325Y247630D01*
X628325Y232515D01*
X605590Y232515D01*
G37*
%LPD*%
%LPC*%
G36*
X21915Y156230D02*
X21915Y156230D01*
X21915Y171345D01*
X44650Y171345D01*
X44650Y158436D01*
X44477Y157790D01*
X44142Y157211D01*
X43669Y156738D01*
X43090Y156403D01*
X42444Y156230D01*
X21915Y156230D01*
G37*
%LPD*%
%LPC*%
G36*
X21915Y86338D02*
X21915Y86338D01*
X21915Y101453D01*
X44650Y101453D01*
X44650Y88544D01*
X44477Y87898D01*
X44142Y87319D01*
X43669Y86846D01*
X43090Y86511D01*
X42444Y86338D01*
X21915Y86338D01*
G37*
%LPD*%
%LPC*%
G36*
X607796Y285770D02*
X607796Y285770D01*
X607150Y285943D01*
X606571Y286278D01*
X606098Y286751D01*
X605763Y287330D01*
X605590Y287976D01*
X605590Y300885D01*
X628325Y300885D01*
X628325Y285770D01*
X607796Y285770D01*
G37*
%LPD*%
%LPC*%
G36*
X607796Y215878D02*
X607796Y215878D01*
X607150Y216051D01*
X606571Y216386D01*
X606098Y216859D01*
X605763Y217438D01*
X605590Y218084D01*
X605590Y230993D01*
X628325Y230993D01*
X628325Y215878D01*
X607796Y215878D01*
G37*
%LPD*%
%LPC*%
G36*
X66801Y267969D02*
X66801Y267969D01*
X66801Y279655D01*
X76926Y279655D01*
X78861Y279348D01*
X80724Y278743D01*
X82470Y277853D01*
X84055Y276702D01*
X85440Y275317D01*
X86591Y273732D01*
X87481Y271986D01*
X88086Y270123D01*
X88393Y268188D01*
X88393Y267969D01*
X66801Y267969D01*
G37*
%LPD*%
%LPC*%
G36*
X43687Y267969D02*
X43687Y267969D01*
X43687Y268188D01*
X43994Y270123D01*
X44599Y271986D01*
X45489Y273732D01*
X46640Y275317D01*
X48025Y276702D01*
X49610Y277853D01*
X51356Y278743D01*
X53219Y279348D01*
X55154Y279655D01*
X65279Y279655D01*
X65279Y267969D01*
X43687Y267969D01*
G37*
%LPD*%
%LPC*%
G36*
X66801Y254761D02*
X66801Y254761D01*
X66801Y266447D01*
X88393Y266447D01*
X88393Y266228D01*
X88086Y264293D01*
X87481Y262430D01*
X86591Y260684D01*
X85440Y259099D01*
X84055Y257714D01*
X82470Y256563D01*
X80724Y255673D01*
X78861Y255068D01*
X76926Y254761D01*
X66801Y254761D01*
G37*
%LPD*%
%LPC*%
G36*
X55154Y254761D02*
X55154Y254761D01*
X53219Y255068D01*
X51356Y255673D01*
X49610Y256563D01*
X48025Y257714D01*
X46640Y259099D01*
X45489Y260684D01*
X44599Y262430D01*
X43994Y264293D01*
X43687Y266228D01*
X43687Y266447D01*
X65279Y266447D01*
X65279Y254761D01*
X55154Y254761D01*
G37*
%LPD*%
%LPC*%
G36*
X271901Y127761D02*
X271901Y127761D01*
X271901Y139541D01*
X281475Y139541D01*
X282121Y139368D01*
X282700Y139033D01*
X283173Y138560D01*
X283508Y137981D01*
X283681Y137335D01*
X283681Y127761D01*
X271901Y127761D01*
G37*
%LPD*%
%LPC*%
G36*
X571621Y216661D02*
X571621Y216661D01*
X571621Y228441D01*
X581195Y228441D01*
X581841Y228268D01*
X582420Y227933D01*
X582893Y227460D01*
X583228Y226881D01*
X583401Y226235D01*
X583401Y216661D01*
X571621Y216661D01*
G37*
%LPD*%
%LPC*%
G36*
X258599Y127761D02*
X258599Y127761D01*
X258599Y137335D01*
X258772Y137981D01*
X259107Y138560D01*
X259580Y139033D01*
X260159Y139368D01*
X260805Y139541D01*
X270379Y139541D01*
X270379Y127761D01*
X258599Y127761D01*
G37*
%LPD*%
%LPC*%
G36*
X271901Y114459D02*
X271901Y114459D01*
X271901Y126239D01*
X283681Y126239D01*
X283681Y116665D01*
X283508Y116019D01*
X283173Y115440D01*
X282700Y114967D01*
X282121Y114632D01*
X281475Y114459D01*
X271901Y114459D01*
G37*
%LPD*%
%LPC*%
G36*
X571621Y203359D02*
X571621Y203359D01*
X571621Y215139D01*
X583401Y215139D01*
X583401Y205565D01*
X583228Y204919D01*
X582893Y204340D01*
X582420Y203867D01*
X581841Y203532D01*
X581195Y203359D01*
X571621Y203359D01*
G37*
%LPD*%
%LPC*%
G36*
X558319Y216661D02*
X558319Y216661D01*
X558319Y226235D01*
X558492Y226881D01*
X558827Y227460D01*
X559300Y227933D01*
X559879Y228268D01*
X560525Y228441D01*
X570099Y228441D01*
X570099Y216661D01*
X558319Y216661D01*
G37*
%LPD*%
%LPC*%
G36*
X260805Y114459D02*
X260805Y114459D01*
X260159Y114632D01*
X259580Y114967D01*
X259107Y115440D01*
X258772Y116019D01*
X258599Y116665D01*
X258599Y126239D01*
X270379Y126239D01*
X270379Y114459D01*
X260805Y114459D01*
G37*
%LPD*%
%LPC*%
G36*
X560525Y203359D02*
X560525Y203359D01*
X559879Y203532D01*
X559300Y203867D01*
X558827Y204340D01*
X558492Y204919D01*
X558319Y205565D01*
X558319Y215139D01*
X570099Y215139D01*
X570099Y203359D01*
X560525Y203359D01*
G37*
%LPD*%
%LPC*%
G36*
X431039Y84581D02*
X431039Y84581D01*
X431039Y91655D01*
X431212Y92301D01*
X431547Y92880D01*
X432020Y93353D01*
X432599Y93688D01*
X433245Y93861D01*
X439319Y93861D01*
X439319Y84581D01*
X431039Y84581D01*
G37*
%LPD*%
%LPC*%
G36*
X133859Y38861D02*
X133859Y38861D01*
X133859Y45935D01*
X134032Y46581D01*
X134367Y47160D01*
X134840Y47633D01*
X135419Y47968D01*
X136065Y48141D01*
X142139Y48141D01*
X142139Y38861D01*
X133859Y38861D01*
G37*
%LPD*%
%LPC*%
G36*
X163321Y288799D02*
X163321Y288799D01*
X163321Y297079D01*
X172601Y297079D01*
X172601Y291005D01*
X172428Y290359D01*
X172093Y289780D01*
X171620Y289307D01*
X171041Y288972D01*
X170395Y288799D01*
X163321Y288799D01*
G37*
%LPD*%
%LPC*%
G36*
X244601Y288799D02*
X244601Y288799D01*
X244601Y297079D01*
X253881Y297079D01*
X253881Y291005D01*
X253708Y290359D01*
X253373Y289780D01*
X252900Y289307D01*
X252321Y288972D01*
X251675Y288799D01*
X244601Y288799D01*
G37*
%LPD*%
%LPC*%
G36*
X323341Y103379D02*
X323341Y103379D01*
X323341Y111659D01*
X332621Y111659D01*
X332621Y105585D01*
X332448Y104939D01*
X332113Y104360D01*
X331640Y103887D01*
X331061Y103552D01*
X330415Y103379D01*
X323341Y103379D01*
G37*
%LPD*%
%LPC*%
G36*
X424941Y103379D02*
X424941Y103379D01*
X424941Y111659D01*
X434221Y111659D01*
X434221Y105585D01*
X434048Y104939D01*
X433713Y104360D01*
X433240Y103887D01*
X432661Y103552D01*
X432015Y103379D01*
X424941Y103379D01*
G37*
%LPD*%
%LPC*%
G36*
X130301Y55119D02*
X130301Y55119D01*
X130301Y63399D01*
X139581Y63399D01*
X139581Y57325D01*
X139408Y56679D01*
X139073Y56100D01*
X138600Y55627D01*
X138021Y55292D01*
X137375Y55119D01*
X130301Y55119D01*
G37*
%LPD*%
%LPC*%
G36*
X87121Y55119D02*
X87121Y55119D01*
X87121Y63399D01*
X96401Y63399D01*
X96401Y57325D01*
X96228Y56679D01*
X95893Y56100D01*
X95420Y55627D01*
X94841Y55292D01*
X94195Y55119D01*
X87121Y55119D01*
G37*
%LPD*%
%LPC*%
G36*
X236005Y288799D02*
X236005Y288799D01*
X235359Y288972D01*
X234780Y289307D01*
X234307Y289780D01*
X233972Y290359D01*
X233799Y291005D01*
X233799Y297079D01*
X243079Y297079D01*
X243079Y288799D01*
X236005Y288799D01*
G37*
%LPD*%
%LPC*%
G36*
X154725Y288799D02*
X154725Y288799D01*
X154079Y288972D01*
X153500Y289307D01*
X153027Y289780D01*
X152692Y290359D01*
X152519Y291005D01*
X152519Y297079D01*
X161799Y297079D01*
X161799Y288799D01*
X154725Y288799D01*
G37*
%LPD*%
%LPC*%
G36*
X314745Y103379D02*
X314745Y103379D01*
X314099Y103552D01*
X313520Y103887D01*
X313047Y104360D01*
X312712Y104939D01*
X312539Y105585D01*
X312539Y111659D01*
X321819Y111659D01*
X321819Y103379D01*
X314745Y103379D01*
G37*
%LPD*%
%LPC*%
G36*
X416345Y103379D02*
X416345Y103379D01*
X415699Y103552D01*
X415120Y103887D01*
X414647Y104360D01*
X414312Y104939D01*
X414139Y105585D01*
X414139Y111659D01*
X423419Y111659D01*
X423419Y103379D01*
X416345Y103379D01*
G37*
%LPD*%
%LPC*%
G36*
X121705Y55119D02*
X121705Y55119D01*
X121059Y55292D01*
X120480Y55627D01*
X120007Y56100D01*
X119672Y56679D01*
X119499Y57325D01*
X119499Y63399D01*
X128779Y63399D01*
X128779Y55119D01*
X121705Y55119D01*
G37*
%LPD*%
%LPC*%
G36*
X78525Y55119D02*
X78525Y55119D01*
X77879Y55292D01*
X77300Y55627D01*
X76827Y56100D01*
X76492Y56679D01*
X76319Y57325D01*
X76319Y63399D01*
X85599Y63399D01*
X85599Y55119D01*
X78525Y55119D01*
G37*
%LPD*%
%LPC*%
G36*
X136065Y28059D02*
X136065Y28059D01*
X135419Y28232D01*
X134840Y28567D01*
X134367Y29040D01*
X134032Y29619D01*
X133958Y29898D01*
X133859Y30265D01*
X133859Y37339D01*
X142139Y37339D01*
X142139Y28059D01*
X136065Y28059D01*
G37*
%LPD*%
%LPC*%
G36*
X433245Y73779D02*
X433245Y73779D01*
X432599Y73952D01*
X432020Y74287D01*
X431547Y74760D01*
X431212Y75339D01*
X431039Y75985D01*
X431039Y83059D01*
X439319Y83059D01*
X439319Y73779D01*
X433245Y73779D01*
G37*
%LPD*%
%LPC*%
G36*
X66039Y267207D02*
X66039Y267207D01*
X66039Y267209D01*
X66041Y267209D01*
X66041Y267207D01*
X66039Y267207D01*
G37*
%LPD*%
%LPC*%
G36*
X271139Y126999D02*
X271139Y126999D01*
X271139Y127001D01*
X271141Y127001D01*
X271141Y126999D01*
X271139Y126999D01*
G37*
%LPD*%
%LPC*%
G36*
X570859Y215899D02*
X570859Y215899D01*
X570859Y215901D01*
X570861Y215901D01*
X570861Y215899D01*
X570859Y215899D01*
G37*
%LPD*%
D10*
X162560Y297840D03*
X162560Y316840D03*
X243840Y297840D03*
X243840Y316840D03*
D11*
X85700Y137160D03*
X66700Y137160D03*
D10*
X162560Y64160D03*
X162560Y83160D03*
D11*
X321920Y177800D03*
X302920Y177800D03*
D10*
X459740Y112420D03*
X459740Y131420D03*
D12*
X150700Y127000D03*
X128700Y117500D03*
X128700Y136500D03*
D13*
X373380Y169418D02*
X373380Y186182D01*
X398780Y186182D02*
X398780Y169418D01*
X424180Y169418D02*
X424180Y186182D01*
D11*
X106020Y177800D03*
X87020Y177800D03*
D10*
X86360Y83160D03*
X86360Y64160D03*
X129540Y64160D03*
X129540Y83160D03*
D11*
X142900Y38100D03*
X161900Y38100D03*
D10*
X322580Y219100D03*
X322580Y238100D03*
X322580Y112420D03*
X322580Y131420D03*
X424180Y112420D03*
X424180Y131420D03*
D11*
X440080Y83820D03*
X459080Y83820D03*
D14*
X180340Y177800D03*
X180340Y127000D03*
X271140Y177800D03*
X271140Y127000D03*
X480060Y266700D03*
X480060Y215900D03*
X570860Y266700D03*
X570860Y215900D03*
D15*
X21154Y137160D03*
D16*
X21154Y172106D03*
X21154Y102214D03*
D15*
X629086Y266700D03*
D16*
X629086Y231754D03*
X629086Y301646D03*
D17*
X75946Y317246D02*
X56134Y317246D01*
X56134Y267208D02*
X75946Y267208D01*
D18*
X570860Y266700D02*
X629086Y266700D01*
D19*
X322580Y83820D03*
D18*
X408940Y215900D02*
X480060Y215900D01*
X408940Y215900D02*
X398780Y205740D01*
X398780Y177800D01*
D20*
X180340Y127000D02*
X150700Y127000D01*
D18*
X162560Y83160D02*
X129540Y83160D01*
D20*
X128700Y84000D02*
X128700Y117500D01*
X128700Y84000D02*
X129540Y83160D01*
D18*
X162560Y38760D02*
X161900Y38100D01*
X162560Y38760D02*
X162560Y64160D01*
X87020Y138480D02*
X87020Y177800D01*
X87020Y138480D02*
X85700Y137160D01*
X85700Y83820D01*
X86360Y83160D01*
D20*
X89000Y136500D02*
X128700Y136500D01*
X89000Y136500D02*
X87020Y138480D01*
D18*
X66700Y137160D02*
X21154Y137160D01*
X321920Y177800D02*
X322580Y178460D01*
X322580Y219100D01*
X321920Y177800D02*
X373380Y177800D01*
X322580Y177140D02*
X321920Y177800D01*
X322580Y177140D02*
X322580Y131420D01*
X424180Y131420D02*
X424180Y177800D01*
X424180Y131420D02*
X459740Y131420D01*
X459740Y112420D02*
X459740Y84480D01*
X459080Y83820D01*
X302920Y177800D02*
X271140Y177800D01*
X162560Y316840D02*
X66446Y316840D01*
X66040Y317246D01*
X162560Y316840D02*
X243840Y316840D01*
X480060Y302260D02*
X480060Y266700D01*
X480060Y302260D02*
X465480Y316840D01*
X320040Y316840D01*
X243840Y316840D01*
X322580Y314300D02*
X322580Y238100D01*
X322580Y314300D02*
X320040Y316840D01*
X180340Y177800D02*
X106020Y177800D01*
X180340Y177800D02*
X180340Y226060D01*
X192380Y238100D02*
X322580Y238100D01*
X192380Y238100D02*
X180340Y226060D01*
M02*
