G04 EAGLE Gerber RS-274X export*
G75*
%MOMM*%
%FSLAX34Y34*%
%LPD*%
%INSoldermask Top*%
%IPPOS*%
%AMOC8*
5,1,8,0,0,1.08239X$1,22.5*%
G01*
%ADD10C,3.203200*%
%ADD11R,1.703200X1.503200*%
%ADD12R,1.503200X1.703200*%
%ADD13R,1.603200X1.203200*%
%ADD14C,1.879600*%
%ADD15C,3.505200*%
%ADD16R,2.203200X2.203200*%
%ADD17R,4.394200X1.981200*%
%ADD18R,4.394200X2.870200*%
%ADD19C,2.184400*%
%ADD20C,1.703200*%


D10*
X40000Y40000D03*
X610000Y40000D03*
X550000Y360000D03*
D11*
X162560Y297840D03*
X162560Y316840D03*
X243840Y297840D03*
X243840Y316840D03*
D12*
X85700Y137160D03*
X66700Y137160D03*
D11*
X162560Y64160D03*
X162560Y83160D03*
D12*
X321920Y177800D03*
X302920Y177800D03*
D11*
X459740Y112420D03*
X459740Y131420D03*
D13*
X150700Y127000D03*
X128700Y117500D03*
X128700Y136500D03*
D14*
X373380Y169418D02*
X373380Y186182D01*
X398780Y186182D02*
X398780Y169418D01*
X424180Y169418D02*
X424180Y186182D01*
D15*
X398780Y353060D03*
D12*
X106020Y177800D03*
X87020Y177800D03*
D11*
X86360Y83160D03*
X86360Y64160D03*
X129540Y64160D03*
X129540Y83160D03*
D12*
X142900Y38100D03*
X161900Y38100D03*
D11*
X322580Y219100D03*
X322580Y238100D03*
X322580Y112420D03*
X322580Y131420D03*
X424180Y112420D03*
X424180Y131420D03*
D12*
X440080Y83820D03*
X459080Y83820D03*
D16*
X180340Y177800D03*
X180340Y127000D03*
X271140Y177800D03*
X271140Y127000D03*
X480060Y266700D03*
X480060Y215900D03*
X570860Y266700D03*
X570860Y215900D03*
D17*
X21154Y137160D03*
D18*
X21154Y172106D03*
X21154Y102214D03*
D17*
X629086Y266700D03*
D18*
X629086Y231754D03*
X629086Y301646D03*
D19*
X75946Y317246D02*
X56134Y317246D01*
X56134Y267208D02*
X75946Y267208D01*
D20*
X322580Y83820D03*
M02*
