G04 EAGLE Gerber RS-274X export*
G75*
%MOMM*%
%FSLAX34Y34*%
%LPD*%
%INBottom Copper*%
%IPPOS*%
%AMOC8*
5,1,8,0,0,1.08239X$1,22.5*%
G01*
%ADD10R,2.667000X4.191000*%
%ADD11C,1.981200*%
%ADD12R,4.191000X2.667000*%
%ADD13C,1.500000*%
%ADD14C,0.756400*%
%ADD15C,0.600000*%

G36*
X314172Y5081D02*
X314172Y5081D01*
X314175Y5081D01*
X314269Y5101D01*
X314366Y5120D01*
X314368Y5122D01*
X314371Y5122D01*
X314451Y5178D01*
X314532Y5233D01*
X314533Y5235D01*
X314535Y5237D01*
X314589Y5320D01*
X314641Y5401D01*
X314641Y5404D01*
X314643Y5406D01*
X314659Y5502D01*
X314677Y5598D01*
X314676Y5601D01*
X314676Y5603D01*
X314654Y5698D01*
X314633Y5794D01*
X314631Y5796D01*
X314631Y5799D01*
X314528Y5947D01*
X312419Y8055D01*
X312419Y12265D01*
X315395Y15241D01*
X322051Y15241D01*
X322056Y15242D01*
X322061Y15241D01*
X322154Y15262D01*
X322248Y15280D01*
X322252Y15283D01*
X322257Y15284D01*
X322335Y15340D01*
X322413Y15393D01*
X322416Y15397D01*
X322420Y15400D01*
X322471Y15482D01*
X322523Y15561D01*
X322523Y15566D01*
X322526Y15571D01*
X322558Y15748D01*
X322558Y30299D01*
X337926Y30299D01*
X337931Y30300D01*
X337936Y30299D01*
X338029Y30320D01*
X338122Y30338D01*
X338127Y30341D01*
X338132Y30342D01*
X338210Y30398D01*
X338288Y30451D01*
X338291Y30455D01*
X338295Y30458D01*
X338346Y30540D01*
X338397Y30619D01*
X338398Y30624D01*
X338401Y30629D01*
X338433Y30806D01*
X338433Y31315D01*
X338435Y31315D01*
X338435Y30806D01*
X338436Y30801D01*
X338435Y30796D01*
X338456Y30703D01*
X338474Y30610D01*
X338477Y30605D01*
X338479Y30600D01*
X338534Y30522D01*
X338587Y30444D01*
X338591Y30441D01*
X338595Y30437D01*
X338676Y30386D01*
X338755Y30335D01*
X338760Y30334D01*
X338765Y30331D01*
X338942Y30299D01*
X354310Y30299D01*
X354310Y15748D01*
X354311Y15743D01*
X354310Y15738D01*
X354331Y15645D01*
X354349Y15551D01*
X354352Y15547D01*
X354353Y15542D01*
X354409Y15464D01*
X354462Y15386D01*
X354466Y15383D01*
X354469Y15379D01*
X354551Y15328D01*
X354630Y15276D01*
X354635Y15276D01*
X354640Y15273D01*
X354817Y15241D01*
X391943Y15241D01*
X391948Y15242D01*
X391953Y15241D01*
X392046Y15262D01*
X392140Y15280D01*
X392144Y15283D01*
X392149Y15284D01*
X392227Y15340D01*
X392305Y15393D01*
X392308Y15397D01*
X392312Y15400D01*
X392363Y15482D01*
X392415Y15561D01*
X392415Y15566D01*
X392418Y15571D01*
X392450Y15748D01*
X392450Y30299D01*
X407818Y30299D01*
X407823Y30300D01*
X407828Y30299D01*
X407921Y30320D01*
X408014Y30338D01*
X408019Y30341D01*
X408024Y30342D01*
X408102Y30398D01*
X408180Y30451D01*
X408183Y30455D01*
X408187Y30458D01*
X408238Y30540D01*
X408289Y30619D01*
X408290Y30624D01*
X408293Y30629D01*
X408325Y30806D01*
X408325Y31315D01*
X408327Y31315D01*
X408327Y30806D01*
X408328Y30801D01*
X408327Y30796D01*
X408348Y30703D01*
X408366Y30610D01*
X408369Y30605D01*
X408371Y30600D01*
X408426Y30522D01*
X408479Y30444D01*
X408483Y30441D01*
X408487Y30437D01*
X408568Y30386D01*
X408647Y30335D01*
X408652Y30334D01*
X408657Y30331D01*
X408834Y30299D01*
X424202Y30299D01*
X424202Y15748D01*
X424203Y15743D01*
X424202Y15738D01*
X424223Y15645D01*
X424241Y15551D01*
X424244Y15547D01*
X424245Y15542D01*
X424301Y15464D01*
X424354Y15386D01*
X424358Y15383D01*
X424361Y15379D01*
X424443Y15328D01*
X424522Y15276D01*
X424527Y15276D01*
X424532Y15273D01*
X424709Y15241D01*
X431365Y15241D01*
X434341Y12265D01*
X434341Y8055D01*
X432232Y5947D01*
X432230Y5944D01*
X432228Y5943D01*
X432176Y5862D01*
X432121Y5780D01*
X432120Y5777D01*
X432119Y5775D01*
X432102Y5679D01*
X432083Y5583D01*
X432084Y5580D01*
X432083Y5578D01*
X432105Y5481D01*
X432125Y5387D01*
X432126Y5385D01*
X432127Y5382D01*
X432184Y5302D01*
X432239Y5222D01*
X432241Y5221D01*
X432243Y5219D01*
X432326Y5167D01*
X432408Y5115D01*
X432411Y5114D01*
X432413Y5113D01*
X432591Y5081D01*
X719412Y5081D01*
X719417Y5082D01*
X719422Y5081D01*
X719515Y5102D01*
X719609Y5120D01*
X719613Y5123D01*
X719618Y5124D01*
X719696Y5180D01*
X719774Y5233D01*
X719777Y5237D01*
X719781Y5240D01*
X719832Y5322D01*
X719884Y5401D01*
X719884Y5406D01*
X719887Y5411D01*
X719919Y5588D01*
X719919Y294412D01*
X719918Y294417D01*
X719919Y294422D01*
X719898Y294515D01*
X719880Y294609D01*
X719877Y294613D01*
X719876Y294618D01*
X719820Y294696D01*
X719767Y294774D01*
X719763Y294777D01*
X719760Y294781D01*
X719678Y294832D01*
X719599Y294884D01*
X719594Y294884D01*
X719589Y294887D01*
X719412Y294919D01*
X5588Y294919D01*
X5583Y294918D01*
X5578Y294919D01*
X5485Y294898D01*
X5391Y294880D01*
X5387Y294877D01*
X5382Y294876D01*
X5304Y294820D01*
X5226Y294767D01*
X5223Y294763D01*
X5219Y294760D01*
X5168Y294678D01*
X5116Y294599D01*
X5116Y294594D01*
X5113Y294589D01*
X5081Y294412D01*
X5081Y5588D01*
X5082Y5583D01*
X5081Y5578D01*
X5102Y5485D01*
X5120Y5391D01*
X5123Y5387D01*
X5124Y5382D01*
X5180Y5304D01*
X5233Y5226D01*
X5237Y5223D01*
X5240Y5219D01*
X5322Y5168D01*
X5401Y5116D01*
X5406Y5116D01*
X5411Y5113D01*
X5588Y5081D01*
X314169Y5081D01*
X314172Y5081D01*
G37*
%LPC*%
G36*
X711635Y167639D02*
X711635Y167639D01*
X708659Y170615D01*
X708659Y177271D01*
X708658Y177276D01*
X708659Y177281D01*
X708638Y177374D01*
X708620Y177468D01*
X708617Y177472D01*
X708616Y177477D01*
X708560Y177555D01*
X708507Y177633D01*
X708503Y177636D01*
X708500Y177640D01*
X708418Y177691D01*
X708339Y177743D01*
X708334Y177743D01*
X708329Y177746D01*
X708152Y177778D01*
X693601Y177778D01*
X693601Y193146D01*
X693600Y193151D01*
X693601Y193156D01*
X693580Y193249D01*
X693562Y193342D01*
X693559Y193347D01*
X693557Y193352D01*
X693502Y193430D01*
X693449Y193508D01*
X693445Y193511D01*
X693441Y193515D01*
X693360Y193566D01*
X693281Y193617D01*
X693276Y193618D01*
X693271Y193621D01*
X693094Y193653D01*
X692585Y193653D01*
X692585Y193655D01*
X693094Y193655D01*
X693099Y193656D01*
X693104Y193655D01*
X693197Y193676D01*
X693290Y193694D01*
X693295Y193697D01*
X693300Y193699D01*
X693378Y193754D01*
X693456Y193807D01*
X693459Y193811D01*
X693463Y193815D01*
X693514Y193896D01*
X693565Y193975D01*
X693566Y193980D01*
X693569Y193985D01*
X693601Y194162D01*
X693601Y209530D01*
X708152Y209530D01*
X708157Y209531D01*
X708162Y209530D01*
X708255Y209551D01*
X708349Y209569D01*
X708353Y209572D01*
X708358Y209573D01*
X708436Y209629D01*
X708514Y209682D01*
X708517Y209686D01*
X708521Y209689D01*
X708572Y209771D01*
X708624Y209850D01*
X708624Y209855D01*
X708627Y209860D01*
X708659Y210037D01*
X708659Y247163D01*
X708658Y247168D01*
X708659Y247173D01*
X708638Y247266D01*
X708620Y247360D01*
X708617Y247364D01*
X708616Y247369D01*
X708560Y247447D01*
X708507Y247525D01*
X708503Y247528D01*
X708500Y247532D01*
X708418Y247583D01*
X708339Y247635D01*
X708334Y247635D01*
X708329Y247638D01*
X708152Y247670D01*
X693601Y247670D01*
X693601Y263038D01*
X693600Y263043D01*
X693601Y263048D01*
X693580Y263141D01*
X693562Y263234D01*
X693559Y263239D01*
X693557Y263244D01*
X693502Y263322D01*
X693449Y263400D01*
X693445Y263403D01*
X693441Y263407D01*
X693360Y263458D01*
X693281Y263509D01*
X693276Y263510D01*
X693271Y263513D01*
X693094Y263545D01*
X692585Y263545D01*
X692585Y263547D01*
X693094Y263547D01*
X693099Y263548D01*
X693104Y263547D01*
X693197Y263568D01*
X693290Y263586D01*
X693295Y263589D01*
X693300Y263591D01*
X693378Y263646D01*
X693456Y263699D01*
X693459Y263703D01*
X693463Y263707D01*
X693514Y263788D01*
X693565Y263867D01*
X693566Y263872D01*
X693569Y263877D01*
X693601Y264054D01*
X693601Y279422D01*
X708152Y279422D01*
X708157Y279423D01*
X708162Y279422D01*
X708255Y279443D01*
X708349Y279461D01*
X708353Y279464D01*
X708358Y279465D01*
X708436Y279521D01*
X708514Y279574D01*
X708517Y279578D01*
X708521Y279581D01*
X708572Y279663D01*
X708624Y279742D01*
X708624Y279747D01*
X708627Y279752D01*
X708659Y279929D01*
X708659Y286585D01*
X711635Y289561D01*
X715845Y289561D01*
X718821Y286585D01*
X718821Y170615D01*
X715845Y167639D01*
X711635Y167639D01*
G37*
%LPD*%
%LPC*%
G36*
X650053Y53847D02*
X650053Y53847D01*
X644545Y56129D01*
X640329Y60345D01*
X638047Y65853D01*
X638047Y71815D01*
X640329Y77323D01*
X644545Y81539D01*
X644969Y81715D01*
X644970Y81715D01*
X646194Y82222D01*
X647419Y82730D01*
X648643Y83237D01*
X649868Y83744D01*
X650053Y83821D01*
X675827Y83821D01*
X681335Y81539D01*
X685551Y77323D01*
X687833Y71815D01*
X687833Y65853D01*
X685551Y60345D01*
X681335Y56129D01*
X680460Y55766D01*
X679235Y55259D01*
X678010Y54752D01*
X676786Y54244D01*
X675827Y53847D01*
X650053Y53847D01*
G37*
%LPD*%
%LPC*%
G36*
X50613Y210819D02*
X50613Y210819D01*
X45105Y213101D01*
X40889Y217317D01*
X38607Y222825D01*
X38607Y228787D01*
X40889Y234295D01*
X45105Y238511D01*
X46194Y238963D01*
X46195Y238963D01*
X47419Y239470D01*
X48644Y239977D01*
X49868Y240484D01*
X49869Y240484D01*
X50613Y240793D01*
X76387Y240793D01*
X81895Y238511D01*
X86111Y234295D01*
X88393Y228787D01*
X88393Y222825D01*
X86111Y217317D01*
X81895Y213101D01*
X81685Y213014D01*
X80460Y212506D01*
X79236Y211999D01*
X79235Y211999D01*
X78011Y211492D01*
X76786Y210985D01*
X76387Y210819D01*
X50613Y210819D01*
G37*
%LPD*%
%LPC*%
G36*
X636006Y164919D02*
X636006Y164919D01*
X628625Y167976D01*
X622976Y173625D01*
X619919Y181006D01*
X619919Y188994D01*
X622976Y196375D01*
X628625Y202024D01*
X629632Y202441D01*
X630856Y202948D01*
X630857Y202948D01*
X632081Y203455D01*
X633306Y203962D01*
X634530Y204470D01*
X635755Y204977D01*
X636006Y205081D01*
X643994Y205081D01*
X651375Y202024D01*
X657024Y196375D01*
X660081Y188994D01*
X660081Y181006D01*
X657024Y173625D01*
X651375Y167976D01*
X651114Y167868D01*
X649890Y167361D01*
X649889Y167361D01*
X648665Y166854D01*
X647440Y166347D01*
X646216Y165839D01*
X644991Y165332D01*
X643994Y164919D01*
X636006Y164919D01*
G37*
%LPD*%
%LPC*%
G36*
X46006Y79919D02*
X46006Y79919D01*
X38625Y82976D01*
X32976Y88625D01*
X29919Y96006D01*
X29919Y103994D01*
X32976Y111375D01*
X38625Y117024D01*
X39105Y117223D01*
X39106Y117223D01*
X40330Y117730D01*
X41555Y118237D01*
X42779Y118744D01*
X44004Y119252D01*
X45228Y119759D01*
X45229Y119759D01*
X46006Y120081D01*
X53994Y120081D01*
X61375Y117024D01*
X67024Y111375D01*
X70081Y103994D01*
X70081Y96006D01*
X67024Y88625D01*
X61375Y82976D01*
X60588Y82650D01*
X59363Y82143D01*
X58139Y81636D01*
X56914Y81129D01*
X55689Y80621D01*
X54465Y80114D01*
X53994Y79919D01*
X46006Y79919D01*
G37*
%LPD*%
%LPC*%
G36*
X496006Y14919D02*
X496006Y14919D01*
X488625Y17976D01*
X482976Y23625D01*
X479919Y31006D01*
X479919Y38994D01*
X482976Y46375D01*
X488625Y52024D01*
X489279Y52295D01*
X490504Y52802D01*
X491728Y53309D01*
X491729Y53309D01*
X492953Y53816D01*
X494178Y54324D01*
X495402Y54831D01*
X496006Y55081D01*
X503994Y55081D01*
X511375Y52024D01*
X517024Y46375D01*
X520081Y38994D01*
X520081Y31006D01*
X517024Y23625D01*
X511375Y17976D01*
X510762Y17722D01*
X509537Y17215D01*
X508312Y16708D01*
X507088Y16201D01*
X505863Y15693D01*
X504639Y15186D01*
X503994Y14919D01*
X496006Y14919D01*
G37*
%LPD*%
%LPC*%
G36*
X196006Y14919D02*
X196006Y14919D01*
X188625Y17976D01*
X182976Y23625D01*
X179919Y31006D01*
X179919Y38994D01*
X182976Y46375D01*
X188625Y52024D01*
X189279Y52295D01*
X190504Y52802D01*
X191728Y53309D01*
X191729Y53309D01*
X192953Y53816D01*
X194178Y54324D01*
X195402Y54831D01*
X196006Y55081D01*
X203994Y55081D01*
X211375Y52024D01*
X217024Y46375D01*
X220081Y38994D01*
X220081Y31006D01*
X217024Y23625D01*
X211375Y17976D01*
X210762Y17722D01*
X209537Y17215D01*
X208312Y16708D01*
X207088Y16201D01*
X205863Y15693D01*
X204639Y15186D01*
X203994Y14919D01*
X196006Y14919D01*
G37*
%LPD*%
%LPC*%
G36*
X328437Y90197D02*
X328437Y90197D01*
X325180Y91547D01*
X322687Y94040D01*
X321337Y97297D01*
X321337Y100823D01*
X322687Y104080D01*
X325180Y106573D01*
X326397Y107078D01*
X327621Y107585D01*
X328437Y107923D01*
X331963Y107923D01*
X333758Y107179D01*
X333767Y107178D01*
X333774Y107173D01*
X333952Y107141D01*
X368358Y107141D01*
X368367Y107143D01*
X368376Y107141D01*
X368552Y107179D01*
X368555Y107180D01*
X369531Y107585D01*
X370347Y107923D01*
X373873Y107923D01*
X377130Y106573D01*
X379623Y104080D01*
X380973Y100823D01*
X380973Y97297D01*
X379623Y94040D01*
X377130Y91547D01*
X376472Y91274D01*
X376471Y91274D01*
X375247Y90766D01*
X374022Y90259D01*
X373873Y90197D01*
X370347Y90197D01*
X368552Y90941D01*
X368543Y90942D01*
X368536Y90947D01*
X368358Y90979D01*
X333952Y90979D01*
X333943Y90977D01*
X333934Y90979D01*
X333758Y90941D01*
X333755Y90940D01*
X333337Y90766D01*
X332112Y90259D01*
X331963Y90197D01*
X328437Y90197D01*
G37*
%LPD*%
%LPC*%
G36*
X339449Y32329D02*
X339449Y32329D01*
X339449Y54810D01*
X352104Y54810D01*
X352750Y54637D01*
X353329Y54302D01*
X353802Y53829D01*
X354137Y53250D01*
X354310Y52604D01*
X354310Y32329D01*
X339449Y32329D01*
G37*
%LPD*%
%LPC*%
G36*
X409341Y32329D02*
X409341Y32329D01*
X409341Y54810D01*
X421996Y54810D01*
X422642Y54637D01*
X423221Y54302D01*
X423694Y53829D01*
X424029Y53250D01*
X424202Y52604D01*
X424202Y32329D01*
X409341Y32329D01*
G37*
%LPD*%
%LPC*%
G36*
X669090Y264561D02*
X669090Y264561D01*
X669090Y277216D01*
X669263Y277862D01*
X669598Y278441D01*
X670071Y278914D01*
X670650Y279249D01*
X671296Y279422D01*
X691571Y279422D01*
X691571Y264561D01*
X669090Y264561D01*
G37*
%LPD*%
%LPC*%
G36*
X669090Y194669D02*
X669090Y194669D01*
X669090Y207324D01*
X669263Y207970D01*
X669598Y208549D01*
X670071Y209022D01*
X670650Y209357D01*
X671296Y209530D01*
X691571Y209530D01*
X691571Y194669D01*
X669090Y194669D01*
G37*
%LPD*%
%LPC*%
G36*
X392450Y32329D02*
X392450Y32329D01*
X392450Y52604D01*
X392623Y53250D01*
X392958Y53829D01*
X393431Y54302D01*
X394010Y54637D01*
X394656Y54810D01*
X407311Y54810D01*
X407311Y32329D01*
X392450Y32329D01*
G37*
%LPD*%
%LPC*%
G36*
X322558Y32329D02*
X322558Y32329D01*
X322558Y52604D01*
X322731Y53250D01*
X323066Y53829D01*
X323539Y54302D01*
X324118Y54637D01*
X324764Y54810D01*
X337419Y54810D01*
X337419Y32329D01*
X322558Y32329D01*
G37*
%LPD*%
%LPC*%
G36*
X671296Y247670D02*
X671296Y247670D01*
X670650Y247843D01*
X670071Y248178D01*
X669598Y248651D01*
X669263Y249230D01*
X669090Y249876D01*
X669090Y262531D01*
X691571Y262531D01*
X691571Y247670D01*
X671296Y247670D01*
G37*
%LPD*%
%LPC*%
G36*
X671296Y177778D02*
X671296Y177778D01*
X670650Y177951D01*
X670071Y178286D01*
X669598Y178759D01*
X669263Y179338D01*
X669090Y179984D01*
X669090Y192639D01*
X691571Y192639D01*
X691571Y177778D01*
X671296Y177778D01*
G37*
%LPD*%
%LPC*%
G36*
X64515Y176783D02*
X64515Y176783D01*
X64515Y188215D01*
X74386Y188215D01*
X76321Y187908D01*
X78184Y187303D01*
X79930Y186413D01*
X81514Y185262D01*
X82900Y183876D01*
X84051Y182292D01*
X84941Y180546D01*
X85546Y178683D01*
X85847Y176783D01*
X64515Y176783D01*
G37*
%LPD*%
%LPC*%
G36*
X663955Y119887D02*
X663955Y119887D01*
X663955Y131319D01*
X673826Y131319D01*
X675761Y131012D01*
X677624Y130407D01*
X679370Y129517D01*
X680954Y128366D01*
X682340Y126980D01*
X683491Y125396D01*
X684381Y123650D01*
X684986Y121787D01*
X685287Y119887D01*
X663955Y119887D01*
G37*
%LPD*%
%LPC*%
G36*
X41153Y176783D02*
X41153Y176783D01*
X41454Y178683D01*
X42059Y180546D01*
X42949Y182292D01*
X44100Y183876D01*
X45486Y185262D01*
X47070Y186413D01*
X48816Y187303D01*
X50679Y187908D01*
X52614Y188215D01*
X62485Y188215D01*
X62485Y176783D01*
X41153Y176783D01*
G37*
%LPD*%
%LPC*%
G36*
X640593Y119887D02*
X640593Y119887D01*
X640894Y121787D01*
X641499Y123650D01*
X642389Y125396D01*
X643540Y126980D01*
X644926Y128366D01*
X646510Y129517D01*
X648256Y130407D01*
X650119Y131012D01*
X652054Y131319D01*
X661925Y131319D01*
X661925Y119887D01*
X640593Y119887D01*
G37*
%LPD*%
%LPC*%
G36*
X64515Y163321D02*
X64515Y163321D01*
X64515Y174753D01*
X85847Y174753D01*
X85546Y172853D01*
X84941Y170990D01*
X84051Y169244D01*
X82900Y167660D01*
X81514Y166274D01*
X79930Y165123D01*
X78184Y164233D01*
X76321Y163628D01*
X74386Y163321D01*
X64515Y163321D01*
G37*
%LPD*%
%LPC*%
G36*
X663955Y106425D02*
X663955Y106425D01*
X663955Y117857D01*
X685287Y117857D01*
X684986Y115957D01*
X684381Y114094D01*
X683491Y112348D01*
X682340Y110764D01*
X680954Y109378D01*
X679370Y108227D01*
X677624Y107337D01*
X675761Y106732D01*
X673826Y106425D01*
X663955Y106425D01*
G37*
%LPD*%
%LPC*%
G36*
X52614Y163321D02*
X52614Y163321D01*
X50679Y163628D01*
X48816Y164233D01*
X47070Y165123D01*
X45486Y166274D01*
X44100Y167660D01*
X42949Y169244D01*
X42059Y170990D01*
X41454Y172853D01*
X41153Y174753D01*
X62485Y174753D01*
X62485Y163321D01*
X52614Y163321D01*
G37*
%LPD*%
%LPC*%
G36*
X652054Y106425D02*
X652054Y106425D01*
X650119Y106732D01*
X648256Y107337D01*
X646510Y108227D01*
X644926Y109378D01*
X643540Y110764D01*
X642389Y112348D01*
X641499Y114094D01*
X640894Y115957D01*
X640593Y117857D01*
X661925Y117857D01*
X661925Y106425D01*
X652054Y106425D01*
G37*
%LPD*%
%LPC*%
G36*
X63499Y175767D02*
X63499Y175767D01*
X63499Y175769D01*
X63501Y175769D01*
X63501Y175767D01*
X63499Y175767D01*
G37*
%LPD*%
%LPC*%
G36*
X662939Y118871D02*
X662939Y118871D01*
X662939Y118873D01*
X662941Y118873D01*
X662941Y118871D01*
X662939Y118871D01*
G37*
%LPD*%
D10*
X408326Y31314D03*
X338434Y31314D03*
D11*
X73406Y225806D02*
X53594Y225806D01*
X53594Y175768D02*
X73406Y175768D01*
D12*
X692586Y263546D03*
X692586Y193654D03*
D11*
X672846Y68834D02*
X653034Y68834D01*
X653034Y118872D02*
X672846Y118872D01*
D13*
X238760Y132080D03*
X373380Y236220D03*
D14*
X372110Y99060D03*
D15*
X330200Y99060D01*
D14*
X330200Y99060D03*
M02*
