G04 EAGLE Gerber RS-274X export*
G75*
%MOMM*%
%FSLAX34Y34*%
%LPD*%
%IN*%
%IPPOS*%
%AMOC8*
5,1,8,0,0,1.08239X$1,22.5*%
G01*
%ADD10C,0.254000*%


D10*
X0Y0D02*
X725000Y0D01*
X725000Y300000D01*
X0Y300000D01*
X0Y0D01*
X65000Y99464D02*
X64924Y98396D01*
X64771Y97335D01*
X64543Y96288D01*
X64241Y95260D01*
X63867Y94256D01*
X63422Y93281D01*
X62908Y92341D01*
X62329Y91440D01*
X61687Y90582D01*
X60985Y89772D01*
X60228Y89015D01*
X59418Y88313D01*
X58560Y87671D01*
X57659Y87092D01*
X56719Y86578D01*
X55744Y86133D01*
X54740Y85759D01*
X53712Y85457D01*
X52665Y85229D01*
X51604Y85076D01*
X50536Y85000D01*
X49464Y85000D01*
X48396Y85076D01*
X47335Y85229D01*
X46288Y85457D01*
X45260Y85759D01*
X44256Y86133D01*
X43281Y86578D01*
X42341Y87092D01*
X41440Y87671D01*
X40582Y88313D01*
X39772Y89015D01*
X39015Y89772D01*
X38313Y90582D01*
X37671Y91440D01*
X37092Y92341D01*
X36578Y93281D01*
X36133Y94256D01*
X35759Y95260D01*
X35457Y96288D01*
X35229Y97335D01*
X35076Y98396D01*
X35000Y99464D01*
X35000Y100536D01*
X35076Y101604D01*
X35229Y102665D01*
X35457Y103712D01*
X35759Y104740D01*
X36133Y105744D01*
X36578Y106719D01*
X37092Y107659D01*
X37671Y108560D01*
X38313Y109418D01*
X39015Y110228D01*
X39772Y110985D01*
X40582Y111687D01*
X41440Y112329D01*
X42341Y112908D01*
X43281Y113422D01*
X44256Y113867D01*
X45260Y114241D01*
X46288Y114543D01*
X47335Y114771D01*
X48396Y114924D01*
X49464Y115000D01*
X50536Y115000D01*
X51604Y114924D01*
X52665Y114771D01*
X53712Y114543D01*
X54740Y114241D01*
X55744Y113867D01*
X56719Y113422D01*
X57659Y112908D01*
X58560Y112329D01*
X59418Y111687D01*
X60228Y110985D01*
X60985Y110228D01*
X61687Y109418D01*
X62329Y108560D01*
X62908Y107659D01*
X63422Y106719D01*
X63867Y105744D01*
X64241Y104740D01*
X64543Y103712D01*
X64771Y102665D01*
X64924Y101604D01*
X65000Y100536D01*
X65000Y99464D01*
X655000Y184464D02*
X654924Y183396D01*
X654771Y182335D01*
X654543Y181288D01*
X654241Y180260D01*
X653867Y179256D01*
X653422Y178281D01*
X652908Y177341D01*
X652329Y176440D01*
X651687Y175582D01*
X650985Y174772D01*
X650228Y174015D01*
X649418Y173313D01*
X648560Y172671D01*
X647659Y172092D01*
X646719Y171578D01*
X645744Y171133D01*
X644740Y170759D01*
X643712Y170457D01*
X642665Y170229D01*
X641604Y170076D01*
X640536Y170000D01*
X639464Y170000D01*
X638396Y170076D01*
X637335Y170229D01*
X636288Y170457D01*
X635260Y170759D01*
X634256Y171133D01*
X633281Y171578D01*
X632341Y172092D01*
X631440Y172671D01*
X630582Y173313D01*
X629772Y174015D01*
X629015Y174772D01*
X628313Y175582D01*
X627671Y176440D01*
X627092Y177341D01*
X626578Y178281D01*
X626133Y179256D01*
X625759Y180260D01*
X625457Y181288D01*
X625229Y182335D01*
X625076Y183396D01*
X625000Y184464D01*
X625000Y185536D01*
X625076Y186604D01*
X625229Y187665D01*
X625457Y188712D01*
X625759Y189740D01*
X626133Y190744D01*
X626578Y191719D01*
X627092Y192659D01*
X627671Y193560D01*
X628313Y194418D01*
X629015Y195228D01*
X629772Y195985D01*
X630582Y196687D01*
X631440Y197329D01*
X632341Y197908D01*
X633281Y198422D01*
X634256Y198867D01*
X635260Y199241D01*
X636288Y199543D01*
X637335Y199771D01*
X638396Y199924D01*
X639464Y200000D01*
X640536Y200000D01*
X641604Y199924D01*
X642665Y199771D01*
X643712Y199543D01*
X644740Y199241D01*
X645744Y198867D01*
X646719Y198422D01*
X647659Y197908D01*
X648560Y197329D01*
X649418Y196687D01*
X650228Y195985D01*
X650985Y195228D01*
X651687Y194418D01*
X652329Y193560D01*
X652908Y192659D01*
X653422Y191719D01*
X653867Y190744D01*
X654241Y189740D01*
X654543Y188712D01*
X654771Y187665D01*
X654924Y186604D01*
X655000Y185536D01*
X655000Y184464D01*
X215000Y34464D02*
X214924Y33396D01*
X214771Y32335D01*
X214543Y31288D01*
X214241Y30260D01*
X213867Y29256D01*
X213422Y28281D01*
X212908Y27341D01*
X212329Y26440D01*
X211687Y25582D01*
X210985Y24772D01*
X210228Y24015D01*
X209418Y23313D01*
X208560Y22671D01*
X207659Y22092D01*
X206719Y21578D01*
X205744Y21133D01*
X204740Y20759D01*
X203712Y20457D01*
X202665Y20229D01*
X201604Y20076D01*
X200536Y20000D01*
X199464Y20000D01*
X198396Y20076D01*
X197335Y20229D01*
X196288Y20457D01*
X195260Y20759D01*
X194256Y21133D01*
X193281Y21578D01*
X192341Y22092D01*
X191440Y22671D01*
X190582Y23313D01*
X189772Y24015D01*
X189015Y24772D01*
X188313Y25582D01*
X187671Y26440D01*
X187092Y27341D01*
X186578Y28281D01*
X186133Y29256D01*
X185759Y30260D01*
X185457Y31288D01*
X185229Y32335D01*
X185076Y33396D01*
X185000Y34464D01*
X185000Y35536D01*
X185076Y36604D01*
X185229Y37665D01*
X185457Y38712D01*
X185759Y39740D01*
X186133Y40744D01*
X186578Y41719D01*
X187092Y42659D01*
X187671Y43560D01*
X188313Y44418D01*
X189015Y45228D01*
X189772Y45985D01*
X190582Y46687D01*
X191440Y47329D01*
X192341Y47908D01*
X193281Y48422D01*
X194256Y48867D01*
X195260Y49241D01*
X196288Y49543D01*
X197335Y49771D01*
X198396Y49924D01*
X199464Y50000D01*
X200536Y50000D01*
X201604Y49924D01*
X202665Y49771D01*
X203712Y49543D01*
X204740Y49241D01*
X205744Y48867D01*
X206719Y48422D01*
X207659Y47908D01*
X208560Y47329D01*
X209418Y46687D01*
X210228Y45985D01*
X210985Y45228D01*
X211687Y44418D01*
X212329Y43560D01*
X212908Y42659D01*
X213422Y41719D01*
X213867Y40744D01*
X214241Y39740D01*
X214543Y38712D01*
X214771Y37665D01*
X214924Y36604D01*
X215000Y35536D01*
X215000Y34464D01*
X515000Y34464D02*
X514924Y33396D01*
X514771Y32335D01*
X514543Y31288D01*
X514241Y30260D01*
X513867Y29256D01*
X513422Y28281D01*
X512908Y27341D01*
X512329Y26440D01*
X511687Y25582D01*
X510985Y24772D01*
X510228Y24015D01*
X509418Y23313D01*
X508560Y22671D01*
X507659Y22092D01*
X506719Y21578D01*
X505744Y21133D01*
X504740Y20759D01*
X503712Y20457D01*
X502665Y20229D01*
X501604Y20076D01*
X500536Y20000D01*
X499464Y20000D01*
X498396Y20076D01*
X497335Y20229D01*
X496288Y20457D01*
X495260Y20759D01*
X494256Y21133D01*
X493281Y21578D01*
X492341Y22092D01*
X491440Y22671D01*
X490582Y23313D01*
X489772Y24015D01*
X489015Y24772D01*
X488313Y25582D01*
X487671Y26440D01*
X487092Y27341D01*
X486578Y28281D01*
X486133Y29256D01*
X485759Y30260D01*
X485457Y31288D01*
X485229Y32335D01*
X485076Y33396D01*
X485000Y34464D01*
X485000Y35536D01*
X485076Y36604D01*
X485229Y37665D01*
X485457Y38712D01*
X485759Y39740D01*
X486133Y40744D01*
X486578Y41719D01*
X487092Y42659D01*
X487671Y43560D01*
X488313Y44418D01*
X489015Y45228D01*
X489772Y45985D01*
X490582Y46687D01*
X491440Y47329D01*
X492341Y47908D01*
X493281Y48422D01*
X494256Y48867D01*
X495260Y49241D01*
X496288Y49543D01*
X497335Y49771D01*
X498396Y49924D01*
X499464Y50000D01*
X500536Y50000D01*
X501604Y49924D01*
X502665Y49771D01*
X503712Y49543D01*
X504740Y49241D01*
X505744Y48867D01*
X506719Y48422D01*
X507659Y47908D01*
X508560Y47329D01*
X509418Y46687D01*
X510228Y45985D01*
X510985Y45228D01*
X511687Y44418D01*
X512329Y43560D01*
X512908Y42659D01*
X513422Y41719D01*
X513867Y40744D01*
X514241Y39740D01*
X514543Y38712D01*
X514771Y37665D01*
X514924Y36604D01*
X515000Y35536D01*
X515000Y34464D01*
M02*
