G04 EAGLE Gerber RS-274X export*
G75*
%MOMM*%
%FSLAX34Y34*%
%LPD*%
%INSilkscreen Top*%
%IPPOS*%
%AMOC8*
5,1,8,0,0,1.08239X$1,22.5*%
G01*
%ADD10C,0.101600*%
%ADD11C,0.127000*%
%ADD12C,0.203200*%
%ADD13C,0.200000*%
%ADD14C,0.152400*%


D10*
X349316Y69088D02*
X346719Y69088D01*
X346620Y69090D01*
X346520Y69096D01*
X346421Y69105D01*
X346323Y69118D01*
X346225Y69135D01*
X346127Y69156D01*
X346031Y69181D01*
X345936Y69209D01*
X345842Y69241D01*
X345749Y69276D01*
X345657Y69315D01*
X345567Y69358D01*
X345479Y69403D01*
X345392Y69453D01*
X345308Y69505D01*
X345225Y69561D01*
X345145Y69619D01*
X345067Y69681D01*
X344992Y69746D01*
X344919Y69814D01*
X344849Y69884D01*
X344781Y69957D01*
X344716Y70032D01*
X344654Y70110D01*
X344596Y70190D01*
X344540Y70273D01*
X344488Y70357D01*
X344438Y70444D01*
X344393Y70532D01*
X344350Y70622D01*
X344311Y70714D01*
X344276Y70807D01*
X344244Y70901D01*
X344216Y70996D01*
X344191Y71092D01*
X344170Y71190D01*
X344153Y71288D01*
X344140Y71386D01*
X344131Y71485D01*
X344125Y71585D01*
X344123Y71684D01*
X344123Y78176D01*
X344125Y78275D01*
X344131Y78375D01*
X344140Y78474D01*
X344153Y78572D01*
X344170Y78670D01*
X344191Y78768D01*
X344216Y78864D01*
X344244Y78959D01*
X344276Y79053D01*
X344311Y79146D01*
X344350Y79238D01*
X344393Y79328D01*
X344438Y79416D01*
X344488Y79503D01*
X344540Y79587D01*
X344596Y79670D01*
X344654Y79750D01*
X344716Y79828D01*
X344781Y79903D01*
X344849Y79976D01*
X344919Y80046D01*
X344992Y80114D01*
X345067Y80179D01*
X345145Y80241D01*
X345225Y80299D01*
X345308Y80355D01*
X345392Y80407D01*
X345479Y80457D01*
X345567Y80502D01*
X345657Y80545D01*
X345749Y80584D01*
X345841Y80619D01*
X345936Y80651D01*
X346031Y80679D01*
X346127Y80704D01*
X346225Y80725D01*
X346323Y80742D01*
X346421Y80755D01*
X346520Y80764D01*
X346620Y80770D01*
X346719Y80772D01*
X349316Y80772D01*
X353681Y78176D02*
X356926Y80772D01*
X356926Y69088D01*
X353681Y69088D02*
X360172Y69088D01*
D11*
X429260Y198920D02*
X429260Y248920D01*
X429260Y198920D02*
X489260Y198920D01*
X489260Y248920D01*
X429260Y248920D01*
D10*
X447604Y259588D02*
X450201Y259588D01*
X447604Y259588D02*
X447505Y259590D01*
X447405Y259596D01*
X447306Y259605D01*
X447208Y259618D01*
X447110Y259635D01*
X447012Y259656D01*
X446916Y259681D01*
X446821Y259709D01*
X446727Y259741D01*
X446634Y259776D01*
X446542Y259815D01*
X446452Y259858D01*
X446364Y259903D01*
X446277Y259953D01*
X446193Y260005D01*
X446110Y260061D01*
X446030Y260119D01*
X445952Y260181D01*
X445877Y260246D01*
X445804Y260314D01*
X445734Y260384D01*
X445666Y260457D01*
X445601Y260532D01*
X445539Y260610D01*
X445481Y260690D01*
X445425Y260773D01*
X445373Y260857D01*
X445323Y260944D01*
X445278Y261032D01*
X445235Y261122D01*
X445196Y261214D01*
X445161Y261307D01*
X445129Y261401D01*
X445101Y261496D01*
X445076Y261592D01*
X445055Y261690D01*
X445038Y261788D01*
X445025Y261886D01*
X445016Y261985D01*
X445010Y262085D01*
X445008Y262184D01*
X445008Y268676D01*
X445010Y268775D01*
X445016Y268875D01*
X445025Y268974D01*
X445038Y269072D01*
X445055Y269170D01*
X445076Y269268D01*
X445101Y269364D01*
X445129Y269459D01*
X445161Y269553D01*
X445196Y269646D01*
X445235Y269738D01*
X445278Y269828D01*
X445323Y269916D01*
X445373Y270003D01*
X445425Y270087D01*
X445481Y270170D01*
X445539Y270250D01*
X445601Y270328D01*
X445666Y270403D01*
X445734Y270476D01*
X445804Y270546D01*
X445877Y270614D01*
X445952Y270679D01*
X446030Y270741D01*
X446110Y270799D01*
X446193Y270855D01*
X446277Y270907D01*
X446364Y270957D01*
X446452Y271002D01*
X446542Y271045D01*
X446634Y271084D01*
X446726Y271119D01*
X446821Y271151D01*
X446916Y271179D01*
X447012Y271204D01*
X447110Y271225D01*
X447208Y271242D01*
X447306Y271255D01*
X447405Y271264D01*
X447505Y271270D01*
X447604Y271272D01*
X450201Y271272D01*
X454566Y268676D02*
X457812Y271272D01*
X457812Y259588D01*
X461057Y259588D02*
X454566Y259588D01*
X465997Y265430D02*
X466000Y265660D01*
X466008Y265890D01*
X466022Y266119D01*
X466041Y266348D01*
X466066Y266577D01*
X466096Y266804D01*
X466131Y267032D01*
X466172Y267258D01*
X466218Y267483D01*
X466270Y267707D01*
X466327Y267929D01*
X466389Y268151D01*
X466457Y268370D01*
X466530Y268588D01*
X466608Y268805D01*
X466691Y269019D01*
X466779Y269231D01*
X466872Y269441D01*
X466971Y269649D01*
X466970Y269649D02*
X467003Y269739D01*
X467039Y269828D01*
X467079Y269916D01*
X467123Y270001D01*
X467170Y270085D01*
X467220Y270167D01*
X467274Y270247D01*
X467330Y270324D01*
X467390Y270400D01*
X467453Y270473D01*
X467518Y270543D01*
X467587Y270611D01*
X467658Y270675D01*
X467731Y270737D01*
X467807Y270796D01*
X467885Y270852D01*
X467966Y270905D01*
X468048Y270954D01*
X468132Y271000D01*
X468219Y271043D01*
X468306Y271082D01*
X468396Y271118D01*
X468486Y271150D01*
X468578Y271178D01*
X468671Y271203D01*
X468765Y271224D01*
X468859Y271241D01*
X468954Y271255D01*
X469050Y271264D01*
X469146Y271270D01*
X469242Y271272D01*
X469338Y271270D01*
X469434Y271264D01*
X469530Y271255D01*
X469625Y271241D01*
X469719Y271224D01*
X469813Y271203D01*
X469906Y271178D01*
X469998Y271150D01*
X470088Y271118D01*
X470178Y271082D01*
X470265Y271043D01*
X470352Y271000D01*
X470436Y270954D01*
X470518Y270905D01*
X470599Y270852D01*
X470677Y270796D01*
X470753Y270737D01*
X470826Y270675D01*
X470897Y270611D01*
X470966Y270543D01*
X471031Y270473D01*
X471094Y270400D01*
X471154Y270324D01*
X471210Y270247D01*
X471264Y270167D01*
X471314Y270085D01*
X471361Y270001D01*
X471405Y269916D01*
X471445Y269828D01*
X471481Y269739D01*
X471514Y269649D01*
X471613Y269442D01*
X471706Y269232D01*
X471794Y269019D01*
X471877Y268805D01*
X471955Y268589D01*
X472028Y268371D01*
X472096Y268151D01*
X472158Y267930D01*
X472215Y267707D01*
X472267Y267483D01*
X472313Y267258D01*
X472354Y267032D01*
X472389Y266805D01*
X472419Y266577D01*
X472444Y266348D01*
X472463Y266119D01*
X472477Y265890D01*
X472485Y265660D01*
X472488Y265430D01*
X465996Y265430D02*
X465999Y265200D01*
X466007Y264970D01*
X466021Y264741D01*
X466040Y264512D01*
X466065Y264283D01*
X466095Y264055D01*
X466130Y263828D01*
X466171Y263602D01*
X466217Y263377D01*
X466269Y263153D01*
X466326Y262930D01*
X466388Y262709D01*
X466456Y262489D01*
X466529Y262271D01*
X466607Y262055D01*
X466690Y261841D01*
X466778Y261629D01*
X466871Y261418D01*
X466970Y261211D01*
X467003Y261121D01*
X467039Y261032D01*
X467080Y260944D01*
X467123Y260859D01*
X467170Y260775D01*
X467220Y260693D01*
X467274Y260613D01*
X467330Y260536D01*
X467390Y260460D01*
X467453Y260387D01*
X467518Y260317D01*
X467587Y260249D01*
X467658Y260185D01*
X467731Y260123D01*
X467807Y260064D01*
X467885Y260008D01*
X467966Y259955D01*
X468048Y259906D01*
X468132Y259860D01*
X468219Y259817D01*
X468306Y259778D01*
X468396Y259742D01*
X468486Y259710D01*
X468578Y259682D01*
X468671Y259657D01*
X468765Y259636D01*
X468859Y259619D01*
X468954Y259605D01*
X469050Y259596D01*
X469146Y259590D01*
X469242Y259588D01*
X471514Y261211D02*
X471613Y261418D01*
X471706Y261629D01*
X471794Y261841D01*
X471877Y262055D01*
X471955Y262271D01*
X472028Y262489D01*
X472096Y262709D01*
X472158Y262930D01*
X472215Y263153D01*
X472267Y263377D01*
X472313Y263602D01*
X472354Y263828D01*
X472389Y264055D01*
X472419Y264283D01*
X472444Y264512D01*
X472463Y264741D01*
X472477Y264970D01*
X472485Y265200D01*
X472488Y265430D01*
X471514Y261211D02*
X471481Y261121D01*
X471445Y261032D01*
X471405Y260944D01*
X471361Y260859D01*
X471314Y260775D01*
X471264Y260693D01*
X471210Y260613D01*
X471154Y260536D01*
X471094Y260460D01*
X471031Y260387D01*
X470966Y260317D01*
X470897Y260249D01*
X470826Y260185D01*
X470753Y260123D01*
X470677Y260064D01*
X470599Y260008D01*
X470518Y259955D01*
X470436Y259906D01*
X470352Y259860D01*
X470265Y259817D01*
X470178Y259778D01*
X470088Y259742D01*
X469998Y259710D01*
X469906Y259682D01*
X469813Y259657D01*
X469719Y259636D01*
X469625Y259619D01*
X469530Y259605D01*
X469434Y259596D01*
X469338Y259590D01*
X469242Y259588D01*
X466645Y262184D02*
X471838Y268676D01*
X521264Y137668D02*
X523861Y137668D01*
X521264Y137668D02*
X521165Y137670D01*
X521065Y137676D01*
X520966Y137685D01*
X520868Y137698D01*
X520770Y137715D01*
X520672Y137736D01*
X520576Y137761D01*
X520481Y137789D01*
X520387Y137821D01*
X520294Y137856D01*
X520202Y137895D01*
X520112Y137938D01*
X520024Y137983D01*
X519937Y138033D01*
X519853Y138085D01*
X519770Y138141D01*
X519690Y138199D01*
X519612Y138261D01*
X519537Y138326D01*
X519464Y138394D01*
X519394Y138464D01*
X519326Y138537D01*
X519261Y138612D01*
X519199Y138690D01*
X519141Y138770D01*
X519085Y138853D01*
X519033Y138937D01*
X518983Y139024D01*
X518938Y139112D01*
X518895Y139202D01*
X518856Y139294D01*
X518821Y139387D01*
X518789Y139481D01*
X518761Y139576D01*
X518736Y139672D01*
X518715Y139770D01*
X518698Y139868D01*
X518685Y139966D01*
X518676Y140065D01*
X518670Y140165D01*
X518668Y140264D01*
X518668Y146756D01*
X518670Y146855D01*
X518676Y146955D01*
X518685Y147054D01*
X518698Y147152D01*
X518715Y147250D01*
X518736Y147348D01*
X518761Y147444D01*
X518789Y147539D01*
X518821Y147633D01*
X518856Y147726D01*
X518895Y147818D01*
X518938Y147908D01*
X518983Y147996D01*
X519033Y148083D01*
X519085Y148167D01*
X519141Y148250D01*
X519199Y148330D01*
X519261Y148408D01*
X519326Y148483D01*
X519394Y148556D01*
X519464Y148626D01*
X519537Y148694D01*
X519612Y148759D01*
X519690Y148821D01*
X519770Y148879D01*
X519853Y148935D01*
X519937Y148987D01*
X520024Y149037D01*
X520112Y149082D01*
X520202Y149125D01*
X520294Y149164D01*
X520386Y149199D01*
X520481Y149231D01*
X520576Y149259D01*
X520672Y149284D01*
X520770Y149305D01*
X520868Y149322D01*
X520966Y149335D01*
X521065Y149344D01*
X521165Y149350D01*
X521264Y149352D01*
X523861Y149352D01*
X528226Y146756D02*
X531472Y149352D01*
X531472Y137668D01*
X534717Y137668D02*
X528226Y137668D01*
X539656Y146756D02*
X542902Y149352D01*
X542902Y137668D01*
X546147Y137668D02*
X539656Y137668D01*
X625404Y241808D02*
X628001Y241808D01*
X625404Y241808D02*
X625305Y241810D01*
X625205Y241816D01*
X625106Y241825D01*
X625008Y241838D01*
X624910Y241855D01*
X624812Y241876D01*
X624716Y241901D01*
X624621Y241929D01*
X624527Y241961D01*
X624434Y241996D01*
X624342Y242035D01*
X624252Y242078D01*
X624164Y242123D01*
X624077Y242173D01*
X623993Y242225D01*
X623910Y242281D01*
X623830Y242339D01*
X623752Y242401D01*
X623677Y242466D01*
X623604Y242534D01*
X623534Y242604D01*
X623466Y242677D01*
X623401Y242752D01*
X623339Y242830D01*
X623281Y242910D01*
X623225Y242993D01*
X623173Y243077D01*
X623123Y243164D01*
X623078Y243252D01*
X623035Y243342D01*
X622996Y243434D01*
X622961Y243527D01*
X622929Y243621D01*
X622901Y243716D01*
X622876Y243812D01*
X622855Y243910D01*
X622838Y244008D01*
X622825Y244106D01*
X622816Y244205D01*
X622810Y244305D01*
X622808Y244404D01*
X622808Y250896D01*
X622810Y250995D01*
X622816Y251095D01*
X622825Y251194D01*
X622838Y251292D01*
X622855Y251390D01*
X622876Y251488D01*
X622901Y251584D01*
X622929Y251679D01*
X622961Y251773D01*
X622996Y251866D01*
X623035Y251958D01*
X623078Y252048D01*
X623123Y252136D01*
X623173Y252223D01*
X623225Y252307D01*
X623281Y252390D01*
X623339Y252470D01*
X623401Y252548D01*
X623466Y252623D01*
X623534Y252696D01*
X623604Y252766D01*
X623677Y252834D01*
X623752Y252899D01*
X623830Y252961D01*
X623910Y253019D01*
X623993Y253075D01*
X624077Y253127D01*
X624164Y253177D01*
X624252Y253222D01*
X624342Y253265D01*
X624434Y253304D01*
X624526Y253339D01*
X624621Y253371D01*
X624716Y253399D01*
X624812Y253424D01*
X624910Y253445D01*
X625008Y253462D01*
X625106Y253475D01*
X625205Y253484D01*
X625305Y253490D01*
X625404Y253492D01*
X628001Y253492D01*
X632366Y250896D02*
X635612Y253492D01*
X635612Y241808D01*
X638857Y241808D02*
X632366Y241808D01*
X647366Y253492D02*
X647473Y253490D01*
X647579Y253484D01*
X647685Y253474D01*
X647791Y253461D01*
X647897Y253443D01*
X648001Y253422D01*
X648105Y253397D01*
X648208Y253368D01*
X648309Y253336D01*
X648409Y253299D01*
X648508Y253259D01*
X648606Y253216D01*
X648702Y253169D01*
X648796Y253118D01*
X648888Y253064D01*
X648978Y253007D01*
X649066Y252947D01*
X649151Y252883D01*
X649234Y252816D01*
X649315Y252746D01*
X649393Y252674D01*
X649469Y252598D01*
X649541Y252520D01*
X649611Y252439D01*
X649678Y252356D01*
X649742Y252271D01*
X649802Y252183D01*
X649859Y252093D01*
X649913Y252001D01*
X649964Y251907D01*
X650011Y251811D01*
X650054Y251713D01*
X650094Y251614D01*
X650131Y251514D01*
X650163Y251413D01*
X650192Y251310D01*
X650217Y251206D01*
X650238Y251102D01*
X650256Y250996D01*
X650269Y250890D01*
X650279Y250784D01*
X650285Y250678D01*
X650287Y250571D01*
X647366Y253492D02*
X647245Y253490D01*
X647124Y253484D01*
X647004Y253474D01*
X646883Y253461D01*
X646764Y253443D01*
X646644Y253422D01*
X646526Y253397D01*
X646409Y253368D01*
X646292Y253335D01*
X646177Y253299D01*
X646063Y253258D01*
X645950Y253215D01*
X645838Y253167D01*
X645729Y253116D01*
X645621Y253061D01*
X645514Y253003D01*
X645410Y252942D01*
X645308Y252877D01*
X645208Y252809D01*
X645110Y252738D01*
X645014Y252664D01*
X644921Y252587D01*
X644831Y252506D01*
X644743Y252423D01*
X644658Y252337D01*
X644575Y252248D01*
X644496Y252157D01*
X644419Y252063D01*
X644346Y251967D01*
X644276Y251869D01*
X644209Y251768D01*
X644145Y251665D01*
X644085Y251560D01*
X644028Y251453D01*
X643974Y251345D01*
X643924Y251235D01*
X643878Y251123D01*
X643835Y251010D01*
X643796Y250895D01*
X649314Y248299D02*
X649393Y248376D01*
X649469Y248457D01*
X649542Y248540D01*
X649612Y248625D01*
X649679Y248713D01*
X649743Y248803D01*
X649803Y248895D01*
X649860Y248990D01*
X649914Y249086D01*
X649965Y249184D01*
X650012Y249284D01*
X650056Y249386D01*
X650096Y249489D01*
X650132Y249593D01*
X650164Y249699D01*
X650193Y249805D01*
X650218Y249913D01*
X650240Y250021D01*
X650257Y250131D01*
X650271Y250240D01*
X650280Y250350D01*
X650286Y250461D01*
X650288Y250571D01*
X649314Y248299D02*
X643796Y241808D01*
X650287Y241808D01*
X554341Y83058D02*
X551744Y83058D01*
X551645Y83060D01*
X551545Y83066D01*
X551446Y83075D01*
X551348Y83088D01*
X551250Y83105D01*
X551152Y83126D01*
X551056Y83151D01*
X550961Y83179D01*
X550867Y83211D01*
X550774Y83246D01*
X550682Y83285D01*
X550592Y83328D01*
X550504Y83373D01*
X550417Y83423D01*
X550333Y83475D01*
X550250Y83531D01*
X550170Y83589D01*
X550092Y83651D01*
X550017Y83716D01*
X549944Y83784D01*
X549874Y83854D01*
X549806Y83927D01*
X549741Y84002D01*
X549679Y84080D01*
X549621Y84160D01*
X549565Y84243D01*
X549513Y84327D01*
X549463Y84414D01*
X549418Y84502D01*
X549375Y84592D01*
X549336Y84684D01*
X549301Y84777D01*
X549269Y84871D01*
X549241Y84966D01*
X549216Y85062D01*
X549195Y85160D01*
X549178Y85258D01*
X549165Y85356D01*
X549156Y85455D01*
X549150Y85555D01*
X549148Y85654D01*
X549148Y92146D01*
X549150Y92245D01*
X549156Y92345D01*
X549165Y92444D01*
X549178Y92542D01*
X549195Y92640D01*
X549216Y92738D01*
X549241Y92834D01*
X549269Y92929D01*
X549301Y93023D01*
X549336Y93116D01*
X549375Y93208D01*
X549418Y93298D01*
X549463Y93386D01*
X549513Y93473D01*
X549565Y93557D01*
X549621Y93640D01*
X549679Y93720D01*
X549741Y93798D01*
X549806Y93873D01*
X549874Y93946D01*
X549944Y94016D01*
X550017Y94084D01*
X550092Y94149D01*
X550170Y94211D01*
X550250Y94269D01*
X550333Y94325D01*
X550417Y94377D01*
X550504Y94427D01*
X550592Y94472D01*
X550682Y94515D01*
X550774Y94554D01*
X550866Y94589D01*
X550961Y94621D01*
X551056Y94649D01*
X551152Y94674D01*
X551250Y94695D01*
X551348Y94712D01*
X551446Y94725D01*
X551545Y94734D01*
X551645Y94740D01*
X551744Y94742D01*
X554341Y94742D01*
X558706Y92146D02*
X561952Y94742D01*
X561952Y83058D01*
X565197Y83058D02*
X558706Y83058D01*
X570136Y83058D02*
X573382Y83058D01*
X573495Y83060D01*
X573608Y83066D01*
X573721Y83076D01*
X573834Y83090D01*
X573946Y83107D01*
X574057Y83129D01*
X574167Y83154D01*
X574277Y83184D01*
X574385Y83217D01*
X574492Y83254D01*
X574598Y83294D01*
X574702Y83339D01*
X574805Y83387D01*
X574906Y83438D01*
X575005Y83493D01*
X575102Y83551D01*
X575197Y83613D01*
X575290Y83678D01*
X575380Y83746D01*
X575468Y83817D01*
X575554Y83892D01*
X575637Y83969D01*
X575717Y84049D01*
X575794Y84132D01*
X575869Y84218D01*
X575940Y84306D01*
X576008Y84396D01*
X576073Y84489D01*
X576135Y84584D01*
X576193Y84681D01*
X576248Y84780D01*
X576299Y84881D01*
X576347Y84984D01*
X576392Y85088D01*
X576432Y85194D01*
X576469Y85301D01*
X576502Y85409D01*
X576532Y85519D01*
X576557Y85629D01*
X576579Y85740D01*
X576596Y85852D01*
X576610Y85965D01*
X576620Y86078D01*
X576626Y86191D01*
X576628Y86304D01*
X576626Y86417D01*
X576620Y86530D01*
X576610Y86643D01*
X576596Y86756D01*
X576579Y86868D01*
X576557Y86979D01*
X576532Y87089D01*
X576502Y87199D01*
X576469Y87307D01*
X576432Y87414D01*
X576392Y87520D01*
X576347Y87624D01*
X576299Y87727D01*
X576248Y87828D01*
X576193Y87927D01*
X576135Y88024D01*
X576073Y88119D01*
X576008Y88212D01*
X575940Y88302D01*
X575869Y88390D01*
X575794Y88476D01*
X575717Y88559D01*
X575637Y88639D01*
X575554Y88716D01*
X575468Y88791D01*
X575380Y88862D01*
X575290Y88930D01*
X575197Y88995D01*
X575102Y89057D01*
X575005Y89115D01*
X574906Y89170D01*
X574805Y89221D01*
X574702Y89269D01*
X574598Y89314D01*
X574492Y89354D01*
X574385Y89391D01*
X574277Y89424D01*
X574167Y89454D01*
X574057Y89479D01*
X573946Y89501D01*
X573834Y89518D01*
X573721Y89532D01*
X573608Y89542D01*
X573495Y89548D01*
X573382Y89550D01*
X574031Y94742D02*
X570136Y94742D01*
X574031Y94742D02*
X574132Y94740D01*
X574232Y94734D01*
X574332Y94724D01*
X574432Y94711D01*
X574531Y94693D01*
X574630Y94672D01*
X574727Y94647D01*
X574824Y94618D01*
X574919Y94585D01*
X575013Y94549D01*
X575105Y94509D01*
X575196Y94466D01*
X575285Y94419D01*
X575372Y94369D01*
X575458Y94315D01*
X575541Y94258D01*
X575621Y94198D01*
X575700Y94135D01*
X575776Y94068D01*
X575849Y93999D01*
X575919Y93927D01*
X575987Y93853D01*
X576052Y93776D01*
X576113Y93696D01*
X576172Y93614D01*
X576227Y93530D01*
X576279Y93444D01*
X576328Y93356D01*
X576373Y93266D01*
X576415Y93174D01*
X576453Y93081D01*
X576487Y92986D01*
X576518Y92891D01*
X576545Y92794D01*
X576568Y92696D01*
X576588Y92597D01*
X576603Y92497D01*
X576615Y92397D01*
X576623Y92297D01*
X576627Y92196D01*
X576627Y92096D01*
X576623Y91995D01*
X576615Y91895D01*
X576603Y91795D01*
X576588Y91695D01*
X576568Y91596D01*
X576545Y91498D01*
X576518Y91401D01*
X576487Y91306D01*
X576453Y91211D01*
X576415Y91118D01*
X576373Y91026D01*
X576328Y90936D01*
X576279Y90848D01*
X576227Y90762D01*
X576172Y90678D01*
X576113Y90596D01*
X576052Y90516D01*
X575987Y90439D01*
X575919Y90365D01*
X575849Y90293D01*
X575776Y90224D01*
X575700Y90157D01*
X575621Y90094D01*
X575541Y90034D01*
X575458Y89977D01*
X575372Y89923D01*
X575285Y89873D01*
X575196Y89826D01*
X575105Y89783D01*
X575013Y89743D01*
X574919Y89707D01*
X574824Y89674D01*
X574727Y89645D01*
X574630Y89620D01*
X574531Y89599D01*
X574432Y89581D01*
X574332Y89568D01*
X574232Y89558D01*
X574132Y89552D01*
X574031Y89550D01*
X574031Y89549D02*
X571434Y89549D01*
X145401Y236728D02*
X142804Y236728D01*
X142705Y236730D01*
X142605Y236736D01*
X142506Y236745D01*
X142408Y236758D01*
X142310Y236775D01*
X142212Y236796D01*
X142116Y236821D01*
X142021Y236849D01*
X141927Y236881D01*
X141834Y236916D01*
X141742Y236955D01*
X141652Y236998D01*
X141564Y237043D01*
X141477Y237093D01*
X141393Y237145D01*
X141310Y237201D01*
X141230Y237259D01*
X141152Y237321D01*
X141077Y237386D01*
X141004Y237454D01*
X140934Y237524D01*
X140866Y237597D01*
X140801Y237672D01*
X140739Y237750D01*
X140681Y237830D01*
X140625Y237913D01*
X140573Y237997D01*
X140523Y238084D01*
X140478Y238172D01*
X140435Y238262D01*
X140396Y238354D01*
X140361Y238447D01*
X140329Y238541D01*
X140301Y238636D01*
X140276Y238732D01*
X140255Y238830D01*
X140238Y238928D01*
X140225Y239026D01*
X140216Y239125D01*
X140210Y239225D01*
X140208Y239324D01*
X140208Y245816D01*
X140210Y245915D01*
X140216Y246015D01*
X140225Y246114D01*
X140238Y246212D01*
X140255Y246310D01*
X140276Y246408D01*
X140301Y246504D01*
X140329Y246599D01*
X140361Y246693D01*
X140396Y246786D01*
X140435Y246878D01*
X140478Y246968D01*
X140523Y247056D01*
X140573Y247143D01*
X140625Y247227D01*
X140681Y247310D01*
X140739Y247390D01*
X140801Y247468D01*
X140866Y247543D01*
X140934Y247616D01*
X141004Y247686D01*
X141077Y247754D01*
X141152Y247819D01*
X141230Y247881D01*
X141310Y247939D01*
X141393Y247995D01*
X141477Y248047D01*
X141564Y248097D01*
X141652Y248142D01*
X141742Y248185D01*
X141834Y248224D01*
X141926Y248259D01*
X142021Y248291D01*
X142116Y248319D01*
X142212Y248344D01*
X142310Y248365D01*
X142408Y248382D01*
X142506Y248395D01*
X142605Y248404D01*
X142705Y248410D01*
X142804Y248412D01*
X145401Y248412D01*
X153336Y248412D02*
X153443Y248410D01*
X153549Y248404D01*
X153655Y248394D01*
X153761Y248381D01*
X153867Y248363D01*
X153971Y248342D01*
X154075Y248317D01*
X154178Y248288D01*
X154279Y248256D01*
X154379Y248219D01*
X154478Y248179D01*
X154576Y248136D01*
X154672Y248089D01*
X154766Y248038D01*
X154858Y247984D01*
X154948Y247927D01*
X155036Y247867D01*
X155121Y247803D01*
X155204Y247736D01*
X155285Y247666D01*
X155363Y247594D01*
X155439Y247518D01*
X155511Y247440D01*
X155581Y247359D01*
X155648Y247276D01*
X155712Y247191D01*
X155772Y247103D01*
X155829Y247013D01*
X155883Y246921D01*
X155934Y246827D01*
X155981Y246731D01*
X156024Y246633D01*
X156064Y246534D01*
X156101Y246434D01*
X156133Y246333D01*
X156162Y246230D01*
X156187Y246126D01*
X156208Y246022D01*
X156226Y245916D01*
X156239Y245810D01*
X156249Y245704D01*
X156255Y245598D01*
X156257Y245491D01*
X153336Y248412D02*
X153215Y248410D01*
X153094Y248404D01*
X152974Y248394D01*
X152853Y248381D01*
X152734Y248363D01*
X152614Y248342D01*
X152496Y248317D01*
X152379Y248288D01*
X152262Y248255D01*
X152147Y248219D01*
X152033Y248178D01*
X151920Y248135D01*
X151808Y248087D01*
X151699Y248036D01*
X151591Y247981D01*
X151484Y247923D01*
X151380Y247862D01*
X151278Y247797D01*
X151178Y247729D01*
X151080Y247658D01*
X150984Y247584D01*
X150891Y247507D01*
X150801Y247426D01*
X150713Y247343D01*
X150628Y247257D01*
X150545Y247168D01*
X150466Y247077D01*
X150389Y246983D01*
X150316Y246887D01*
X150246Y246789D01*
X150179Y246688D01*
X150115Y246585D01*
X150055Y246480D01*
X149998Y246373D01*
X149944Y246265D01*
X149894Y246155D01*
X149848Y246043D01*
X149805Y245930D01*
X149766Y245815D01*
X155284Y243219D02*
X155363Y243296D01*
X155439Y243377D01*
X155512Y243460D01*
X155582Y243545D01*
X155649Y243633D01*
X155713Y243723D01*
X155773Y243815D01*
X155830Y243910D01*
X155884Y244006D01*
X155935Y244104D01*
X155982Y244204D01*
X156026Y244306D01*
X156066Y244409D01*
X156102Y244513D01*
X156134Y244619D01*
X156163Y244725D01*
X156188Y244833D01*
X156210Y244941D01*
X156227Y245051D01*
X156241Y245160D01*
X156250Y245270D01*
X156256Y245381D01*
X156258Y245491D01*
X155284Y243219D02*
X149766Y236728D01*
X156257Y236728D01*
X422204Y173228D02*
X424801Y173228D01*
X422204Y173228D02*
X422105Y173230D01*
X422005Y173236D01*
X421906Y173245D01*
X421808Y173258D01*
X421710Y173275D01*
X421612Y173296D01*
X421516Y173321D01*
X421421Y173349D01*
X421327Y173381D01*
X421234Y173416D01*
X421142Y173455D01*
X421052Y173498D01*
X420964Y173543D01*
X420877Y173593D01*
X420793Y173645D01*
X420710Y173701D01*
X420630Y173759D01*
X420552Y173821D01*
X420477Y173886D01*
X420404Y173954D01*
X420334Y174024D01*
X420266Y174097D01*
X420201Y174172D01*
X420139Y174250D01*
X420081Y174330D01*
X420025Y174413D01*
X419973Y174497D01*
X419923Y174584D01*
X419878Y174672D01*
X419835Y174762D01*
X419796Y174854D01*
X419761Y174947D01*
X419729Y175041D01*
X419701Y175136D01*
X419676Y175232D01*
X419655Y175330D01*
X419638Y175428D01*
X419625Y175526D01*
X419616Y175625D01*
X419610Y175725D01*
X419608Y175824D01*
X419608Y182316D01*
X419610Y182415D01*
X419616Y182515D01*
X419625Y182614D01*
X419638Y182712D01*
X419655Y182810D01*
X419676Y182908D01*
X419701Y183004D01*
X419729Y183099D01*
X419761Y183193D01*
X419796Y183286D01*
X419835Y183378D01*
X419878Y183468D01*
X419923Y183556D01*
X419973Y183643D01*
X420025Y183727D01*
X420081Y183810D01*
X420139Y183890D01*
X420201Y183968D01*
X420266Y184043D01*
X420334Y184116D01*
X420404Y184186D01*
X420477Y184254D01*
X420552Y184319D01*
X420630Y184381D01*
X420710Y184439D01*
X420793Y184495D01*
X420877Y184547D01*
X420964Y184597D01*
X421052Y184642D01*
X421142Y184685D01*
X421234Y184724D01*
X421326Y184759D01*
X421421Y184791D01*
X421516Y184819D01*
X421612Y184844D01*
X421710Y184865D01*
X421808Y184882D01*
X421906Y184895D01*
X422005Y184904D01*
X422105Y184910D01*
X422204Y184912D01*
X424801Y184912D01*
X429166Y173228D02*
X432412Y173228D01*
X432525Y173230D01*
X432638Y173236D01*
X432751Y173246D01*
X432864Y173260D01*
X432976Y173277D01*
X433087Y173299D01*
X433197Y173324D01*
X433307Y173354D01*
X433415Y173387D01*
X433522Y173424D01*
X433628Y173464D01*
X433732Y173509D01*
X433835Y173557D01*
X433936Y173608D01*
X434035Y173663D01*
X434132Y173721D01*
X434227Y173783D01*
X434320Y173848D01*
X434410Y173916D01*
X434498Y173987D01*
X434584Y174062D01*
X434667Y174139D01*
X434747Y174219D01*
X434824Y174302D01*
X434899Y174388D01*
X434970Y174476D01*
X435038Y174566D01*
X435103Y174659D01*
X435165Y174754D01*
X435223Y174851D01*
X435278Y174950D01*
X435329Y175051D01*
X435377Y175154D01*
X435422Y175258D01*
X435462Y175364D01*
X435499Y175471D01*
X435532Y175579D01*
X435562Y175689D01*
X435587Y175799D01*
X435609Y175910D01*
X435626Y176022D01*
X435640Y176135D01*
X435650Y176248D01*
X435656Y176361D01*
X435658Y176474D01*
X435656Y176587D01*
X435650Y176700D01*
X435640Y176813D01*
X435626Y176926D01*
X435609Y177038D01*
X435587Y177149D01*
X435562Y177259D01*
X435532Y177369D01*
X435499Y177477D01*
X435462Y177584D01*
X435422Y177690D01*
X435377Y177794D01*
X435329Y177897D01*
X435278Y177998D01*
X435223Y178097D01*
X435165Y178194D01*
X435103Y178289D01*
X435038Y178382D01*
X434970Y178472D01*
X434899Y178560D01*
X434824Y178646D01*
X434747Y178729D01*
X434667Y178809D01*
X434584Y178886D01*
X434498Y178961D01*
X434410Y179032D01*
X434320Y179100D01*
X434227Y179165D01*
X434132Y179227D01*
X434035Y179285D01*
X433936Y179340D01*
X433835Y179391D01*
X433732Y179439D01*
X433628Y179484D01*
X433522Y179524D01*
X433415Y179561D01*
X433307Y179594D01*
X433197Y179624D01*
X433087Y179649D01*
X432976Y179671D01*
X432864Y179688D01*
X432751Y179702D01*
X432638Y179712D01*
X432525Y179718D01*
X432412Y179720D01*
X433061Y184912D02*
X429166Y184912D01*
X433061Y184912D02*
X433162Y184910D01*
X433262Y184904D01*
X433362Y184894D01*
X433462Y184881D01*
X433561Y184863D01*
X433660Y184842D01*
X433757Y184817D01*
X433854Y184788D01*
X433949Y184755D01*
X434043Y184719D01*
X434135Y184679D01*
X434226Y184636D01*
X434315Y184589D01*
X434402Y184539D01*
X434488Y184485D01*
X434571Y184428D01*
X434651Y184368D01*
X434730Y184305D01*
X434806Y184238D01*
X434879Y184169D01*
X434949Y184097D01*
X435017Y184023D01*
X435082Y183946D01*
X435143Y183866D01*
X435202Y183784D01*
X435257Y183700D01*
X435309Y183614D01*
X435358Y183526D01*
X435403Y183436D01*
X435445Y183344D01*
X435483Y183251D01*
X435517Y183156D01*
X435548Y183061D01*
X435575Y182964D01*
X435598Y182866D01*
X435618Y182767D01*
X435633Y182667D01*
X435645Y182567D01*
X435653Y182467D01*
X435657Y182366D01*
X435657Y182266D01*
X435653Y182165D01*
X435645Y182065D01*
X435633Y181965D01*
X435618Y181865D01*
X435598Y181766D01*
X435575Y181668D01*
X435548Y181571D01*
X435517Y181476D01*
X435483Y181381D01*
X435445Y181288D01*
X435403Y181196D01*
X435358Y181106D01*
X435309Y181018D01*
X435257Y180932D01*
X435202Y180848D01*
X435143Y180766D01*
X435082Y180686D01*
X435017Y180609D01*
X434949Y180535D01*
X434879Y180463D01*
X434806Y180394D01*
X434730Y180327D01*
X434651Y180264D01*
X434571Y180204D01*
X434488Y180147D01*
X434402Y180093D01*
X434315Y180043D01*
X434226Y179996D01*
X434135Y179953D01*
X434043Y179913D01*
X433949Y179877D01*
X433854Y179844D01*
X433757Y179815D01*
X433660Y179790D01*
X433561Y179769D01*
X433462Y179751D01*
X433362Y179738D01*
X433262Y179728D01*
X433162Y179722D01*
X433061Y179720D01*
X433061Y179719D02*
X430464Y179719D01*
X137781Y109728D02*
X135184Y109728D01*
X135085Y109730D01*
X134985Y109736D01*
X134886Y109745D01*
X134788Y109758D01*
X134690Y109775D01*
X134592Y109796D01*
X134496Y109821D01*
X134401Y109849D01*
X134307Y109881D01*
X134214Y109916D01*
X134122Y109955D01*
X134032Y109998D01*
X133944Y110043D01*
X133857Y110093D01*
X133773Y110145D01*
X133690Y110201D01*
X133610Y110259D01*
X133532Y110321D01*
X133457Y110386D01*
X133384Y110454D01*
X133314Y110524D01*
X133246Y110597D01*
X133181Y110672D01*
X133119Y110750D01*
X133061Y110830D01*
X133005Y110913D01*
X132953Y110997D01*
X132903Y111084D01*
X132858Y111172D01*
X132815Y111262D01*
X132776Y111354D01*
X132741Y111447D01*
X132709Y111541D01*
X132681Y111636D01*
X132656Y111732D01*
X132635Y111830D01*
X132618Y111928D01*
X132605Y112026D01*
X132596Y112125D01*
X132590Y112225D01*
X132588Y112324D01*
X132588Y118816D01*
X132590Y118915D01*
X132596Y119015D01*
X132605Y119114D01*
X132618Y119212D01*
X132635Y119310D01*
X132656Y119408D01*
X132681Y119504D01*
X132709Y119599D01*
X132741Y119693D01*
X132776Y119786D01*
X132815Y119878D01*
X132858Y119968D01*
X132903Y120056D01*
X132953Y120143D01*
X133005Y120227D01*
X133061Y120310D01*
X133119Y120390D01*
X133181Y120468D01*
X133246Y120543D01*
X133314Y120616D01*
X133384Y120686D01*
X133457Y120754D01*
X133532Y120819D01*
X133610Y120881D01*
X133690Y120939D01*
X133773Y120995D01*
X133857Y121047D01*
X133944Y121097D01*
X134032Y121142D01*
X134122Y121185D01*
X134214Y121224D01*
X134306Y121259D01*
X134401Y121291D01*
X134496Y121319D01*
X134592Y121344D01*
X134690Y121365D01*
X134788Y121382D01*
X134886Y121395D01*
X134985Y121404D01*
X135085Y121410D01*
X135184Y121412D01*
X137781Y121412D01*
X144743Y121412D02*
X142146Y112324D01*
X148637Y112324D01*
X146690Y114921D02*
X146690Y109728D01*
X198684Y112268D02*
X201281Y112268D01*
X198684Y112268D02*
X198585Y112270D01*
X198485Y112276D01*
X198386Y112285D01*
X198288Y112298D01*
X198190Y112315D01*
X198092Y112336D01*
X197996Y112361D01*
X197901Y112389D01*
X197807Y112421D01*
X197714Y112456D01*
X197622Y112495D01*
X197532Y112538D01*
X197444Y112583D01*
X197357Y112633D01*
X197273Y112685D01*
X197190Y112741D01*
X197110Y112799D01*
X197032Y112861D01*
X196957Y112926D01*
X196884Y112994D01*
X196814Y113064D01*
X196746Y113137D01*
X196681Y113212D01*
X196619Y113290D01*
X196561Y113370D01*
X196505Y113453D01*
X196453Y113537D01*
X196403Y113624D01*
X196358Y113712D01*
X196315Y113802D01*
X196276Y113894D01*
X196241Y113987D01*
X196209Y114081D01*
X196181Y114176D01*
X196156Y114272D01*
X196135Y114370D01*
X196118Y114468D01*
X196105Y114566D01*
X196096Y114665D01*
X196090Y114765D01*
X196088Y114864D01*
X196088Y121356D01*
X196090Y121455D01*
X196096Y121555D01*
X196105Y121654D01*
X196118Y121752D01*
X196135Y121850D01*
X196156Y121948D01*
X196181Y122044D01*
X196209Y122139D01*
X196241Y122233D01*
X196276Y122326D01*
X196315Y122418D01*
X196358Y122508D01*
X196403Y122596D01*
X196453Y122683D01*
X196505Y122767D01*
X196561Y122850D01*
X196619Y122930D01*
X196681Y123008D01*
X196746Y123083D01*
X196814Y123156D01*
X196884Y123226D01*
X196957Y123294D01*
X197032Y123359D01*
X197110Y123421D01*
X197190Y123479D01*
X197273Y123535D01*
X197357Y123587D01*
X197444Y123637D01*
X197532Y123682D01*
X197622Y123725D01*
X197714Y123764D01*
X197806Y123799D01*
X197901Y123831D01*
X197996Y123859D01*
X198092Y123884D01*
X198190Y123905D01*
X198288Y123922D01*
X198386Y123935D01*
X198485Y123944D01*
X198585Y123950D01*
X198684Y123952D01*
X201281Y123952D01*
X205646Y112268D02*
X209541Y112268D01*
X209640Y112270D01*
X209740Y112276D01*
X209839Y112285D01*
X209937Y112298D01*
X210035Y112315D01*
X210133Y112336D01*
X210229Y112361D01*
X210324Y112389D01*
X210418Y112421D01*
X210511Y112456D01*
X210603Y112495D01*
X210693Y112538D01*
X210781Y112583D01*
X210868Y112633D01*
X210952Y112685D01*
X211035Y112741D01*
X211115Y112799D01*
X211193Y112861D01*
X211268Y112926D01*
X211341Y112994D01*
X211411Y113064D01*
X211479Y113137D01*
X211544Y113212D01*
X211606Y113290D01*
X211664Y113370D01*
X211720Y113453D01*
X211772Y113537D01*
X211822Y113624D01*
X211867Y113712D01*
X211910Y113802D01*
X211949Y113894D01*
X211984Y113987D01*
X212016Y114081D01*
X212044Y114176D01*
X212069Y114272D01*
X212090Y114370D01*
X212107Y114468D01*
X212120Y114566D01*
X212129Y114665D01*
X212135Y114765D01*
X212137Y114864D01*
X212137Y116163D01*
X212135Y116262D01*
X212129Y116362D01*
X212120Y116461D01*
X212107Y116559D01*
X212090Y116657D01*
X212069Y116755D01*
X212044Y116851D01*
X212016Y116946D01*
X211984Y117040D01*
X211949Y117133D01*
X211910Y117225D01*
X211867Y117315D01*
X211822Y117403D01*
X211772Y117490D01*
X211720Y117574D01*
X211664Y117657D01*
X211606Y117737D01*
X211544Y117815D01*
X211479Y117890D01*
X211411Y117963D01*
X211341Y118033D01*
X211268Y118101D01*
X211193Y118166D01*
X211115Y118228D01*
X211035Y118286D01*
X210952Y118342D01*
X210868Y118394D01*
X210781Y118444D01*
X210693Y118489D01*
X210603Y118532D01*
X210511Y118571D01*
X210418Y118606D01*
X210324Y118638D01*
X210229Y118666D01*
X210133Y118691D01*
X210035Y118712D01*
X209937Y118729D01*
X209839Y118742D01*
X209740Y118751D01*
X209640Y118757D01*
X209541Y118759D01*
X205646Y118759D01*
X205646Y123952D01*
X212137Y123952D01*
X272344Y183388D02*
X274941Y183388D01*
X272344Y183388D02*
X272245Y183390D01*
X272145Y183396D01*
X272046Y183405D01*
X271948Y183418D01*
X271850Y183435D01*
X271752Y183456D01*
X271656Y183481D01*
X271561Y183509D01*
X271467Y183541D01*
X271374Y183576D01*
X271282Y183615D01*
X271192Y183658D01*
X271104Y183703D01*
X271017Y183753D01*
X270933Y183805D01*
X270850Y183861D01*
X270770Y183919D01*
X270692Y183981D01*
X270617Y184046D01*
X270544Y184114D01*
X270474Y184184D01*
X270406Y184257D01*
X270341Y184332D01*
X270279Y184410D01*
X270221Y184490D01*
X270165Y184573D01*
X270113Y184657D01*
X270063Y184744D01*
X270018Y184832D01*
X269975Y184922D01*
X269936Y185014D01*
X269901Y185107D01*
X269869Y185201D01*
X269841Y185296D01*
X269816Y185392D01*
X269795Y185490D01*
X269778Y185588D01*
X269765Y185686D01*
X269756Y185785D01*
X269750Y185885D01*
X269748Y185984D01*
X269748Y192476D01*
X269750Y192575D01*
X269756Y192675D01*
X269765Y192774D01*
X269778Y192872D01*
X269795Y192970D01*
X269816Y193068D01*
X269841Y193164D01*
X269869Y193259D01*
X269901Y193353D01*
X269936Y193446D01*
X269975Y193538D01*
X270018Y193628D01*
X270063Y193716D01*
X270113Y193803D01*
X270165Y193887D01*
X270221Y193970D01*
X270279Y194050D01*
X270341Y194128D01*
X270406Y194203D01*
X270474Y194276D01*
X270544Y194346D01*
X270617Y194414D01*
X270692Y194479D01*
X270770Y194541D01*
X270850Y194599D01*
X270933Y194655D01*
X271017Y194707D01*
X271104Y194757D01*
X271192Y194802D01*
X271282Y194845D01*
X271374Y194884D01*
X271466Y194919D01*
X271561Y194951D01*
X271656Y194979D01*
X271752Y195004D01*
X271850Y195025D01*
X271948Y195042D01*
X272046Y195055D01*
X272145Y195064D01*
X272245Y195070D01*
X272344Y195072D01*
X274941Y195072D01*
X279306Y189879D02*
X283201Y189879D01*
X283300Y189877D01*
X283400Y189871D01*
X283499Y189862D01*
X283597Y189849D01*
X283695Y189832D01*
X283793Y189811D01*
X283889Y189786D01*
X283984Y189758D01*
X284078Y189726D01*
X284171Y189691D01*
X284263Y189652D01*
X284353Y189609D01*
X284441Y189564D01*
X284528Y189514D01*
X284612Y189462D01*
X284695Y189406D01*
X284775Y189348D01*
X284853Y189286D01*
X284928Y189221D01*
X285001Y189153D01*
X285071Y189083D01*
X285139Y189010D01*
X285204Y188935D01*
X285266Y188857D01*
X285324Y188777D01*
X285380Y188694D01*
X285432Y188610D01*
X285482Y188523D01*
X285527Y188435D01*
X285570Y188345D01*
X285609Y188253D01*
X285644Y188160D01*
X285676Y188066D01*
X285704Y187971D01*
X285729Y187875D01*
X285750Y187777D01*
X285767Y187679D01*
X285780Y187581D01*
X285789Y187482D01*
X285795Y187382D01*
X285797Y187283D01*
X285797Y186634D01*
X285798Y186634D02*
X285796Y186521D01*
X285790Y186408D01*
X285780Y186295D01*
X285766Y186182D01*
X285749Y186070D01*
X285727Y185959D01*
X285702Y185849D01*
X285672Y185739D01*
X285639Y185631D01*
X285602Y185524D01*
X285562Y185418D01*
X285517Y185314D01*
X285469Y185211D01*
X285418Y185110D01*
X285363Y185011D01*
X285305Y184914D01*
X285243Y184819D01*
X285178Y184726D01*
X285110Y184636D01*
X285039Y184548D01*
X284964Y184462D01*
X284887Y184379D01*
X284807Y184299D01*
X284724Y184222D01*
X284638Y184147D01*
X284550Y184076D01*
X284460Y184008D01*
X284367Y183943D01*
X284272Y183881D01*
X284175Y183823D01*
X284076Y183768D01*
X283975Y183717D01*
X283872Y183669D01*
X283768Y183624D01*
X283662Y183584D01*
X283555Y183547D01*
X283447Y183514D01*
X283337Y183484D01*
X283227Y183459D01*
X283116Y183437D01*
X283004Y183420D01*
X282891Y183406D01*
X282778Y183396D01*
X282665Y183390D01*
X282552Y183388D01*
X282439Y183390D01*
X282326Y183396D01*
X282213Y183406D01*
X282100Y183420D01*
X281988Y183437D01*
X281877Y183459D01*
X281767Y183484D01*
X281657Y183514D01*
X281549Y183547D01*
X281442Y183584D01*
X281336Y183624D01*
X281232Y183669D01*
X281129Y183717D01*
X281028Y183768D01*
X280929Y183823D01*
X280832Y183881D01*
X280737Y183943D01*
X280644Y184008D01*
X280554Y184076D01*
X280466Y184147D01*
X280380Y184222D01*
X280297Y184299D01*
X280217Y184379D01*
X280140Y184462D01*
X280065Y184548D01*
X279994Y184636D01*
X279926Y184726D01*
X279861Y184819D01*
X279799Y184914D01*
X279741Y185011D01*
X279686Y185110D01*
X279635Y185211D01*
X279587Y185314D01*
X279542Y185418D01*
X279502Y185524D01*
X279465Y185631D01*
X279432Y185739D01*
X279402Y185849D01*
X279377Y185959D01*
X279355Y186070D01*
X279338Y186182D01*
X279324Y186295D01*
X279314Y186408D01*
X279308Y186521D01*
X279306Y186634D01*
X279306Y189879D01*
X279308Y190022D01*
X279314Y190165D01*
X279324Y190308D01*
X279338Y190450D01*
X279355Y190592D01*
X279377Y190734D01*
X279402Y190875D01*
X279432Y191015D01*
X279465Y191154D01*
X279502Y191292D01*
X279543Y191429D01*
X279587Y191565D01*
X279636Y191700D01*
X279688Y191833D01*
X279743Y191965D01*
X279803Y192095D01*
X279866Y192224D01*
X279932Y192351D01*
X280002Y192475D01*
X280075Y192598D01*
X280152Y192719D01*
X280232Y192838D01*
X280315Y192954D01*
X280401Y193069D01*
X280490Y193180D01*
X280583Y193290D01*
X280678Y193396D01*
X280777Y193500D01*
X280878Y193601D01*
X280982Y193700D01*
X281088Y193795D01*
X281198Y193888D01*
X281309Y193977D01*
X281424Y194063D01*
X281540Y194146D01*
X281659Y194226D01*
X281780Y194303D01*
X281902Y194376D01*
X282027Y194446D01*
X282154Y194512D01*
X282283Y194575D01*
X282413Y194635D01*
X282545Y194690D01*
X282678Y194742D01*
X282813Y194791D01*
X282949Y194835D01*
X283086Y194876D01*
X283224Y194913D01*
X283363Y194946D01*
X283503Y194976D01*
X283644Y195001D01*
X283786Y195023D01*
X283928Y195040D01*
X284070Y195054D01*
X284213Y195064D01*
X284356Y195070D01*
X284499Y195072D01*
X231761Y112268D02*
X229164Y112268D01*
X229065Y112270D01*
X228965Y112276D01*
X228866Y112285D01*
X228768Y112298D01*
X228670Y112315D01*
X228572Y112336D01*
X228476Y112361D01*
X228381Y112389D01*
X228287Y112421D01*
X228194Y112456D01*
X228102Y112495D01*
X228012Y112538D01*
X227924Y112583D01*
X227837Y112633D01*
X227753Y112685D01*
X227670Y112741D01*
X227590Y112799D01*
X227512Y112861D01*
X227437Y112926D01*
X227364Y112994D01*
X227294Y113064D01*
X227226Y113137D01*
X227161Y113212D01*
X227099Y113290D01*
X227041Y113370D01*
X226985Y113453D01*
X226933Y113537D01*
X226883Y113624D01*
X226838Y113712D01*
X226795Y113802D01*
X226756Y113894D01*
X226721Y113987D01*
X226689Y114081D01*
X226661Y114176D01*
X226636Y114272D01*
X226615Y114370D01*
X226598Y114468D01*
X226585Y114566D01*
X226576Y114665D01*
X226570Y114765D01*
X226568Y114864D01*
X226568Y121356D01*
X226570Y121455D01*
X226576Y121555D01*
X226585Y121654D01*
X226598Y121752D01*
X226615Y121850D01*
X226636Y121948D01*
X226661Y122044D01*
X226689Y122139D01*
X226721Y122233D01*
X226756Y122326D01*
X226795Y122418D01*
X226838Y122508D01*
X226883Y122596D01*
X226933Y122683D01*
X226985Y122767D01*
X227041Y122850D01*
X227099Y122930D01*
X227161Y123008D01*
X227226Y123083D01*
X227294Y123156D01*
X227364Y123226D01*
X227437Y123294D01*
X227512Y123359D01*
X227590Y123421D01*
X227670Y123479D01*
X227753Y123535D01*
X227837Y123587D01*
X227924Y123637D01*
X228012Y123682D01*
X228102Y123725D01*
X228194Y123764D01*
X228286Y123799D01*
X228381Y123831D01*
X228476Y123859D01*
X228572Y123884D01*
X228670Y123905D01*
X228768Y123922D01*
X228866Y123935D01*
X228965Y123944D01*
X229065Y123950D01*
X229164Y123952D01*
X231761Y123952D01*
X236126Y123952D02*
X236126Y122654D01*
X236126Y123952D02*
X242617Y123952D01*
X239372Y112268D01*
X462844Y112268D02*
X465441Y112268D01*
X462844Y112268D02*
X462745Y112270D01*
X462645Y112276D01*
X462546Y112285D01*
X462448Y112298D01*
X462350Y112315D01*
X462252Y112336D01*
X462156Y112361D01*
X462061Y112389D01*
X461967Y112421D01*
X461874Y112456D01*
X461782Y112495D01*
X461692Y112538D01*
X461604Y112583D01*
X461517Y112633D01*
X461433Y112685D01*
X461350Y112741D01*
X461270Y112799D01*
X461192Y112861D01*
X461117Y112926D01*
X461044Y112994D01*
X460974Y113064D01*
X460906Y113137D01*
X460841Y113212D01*
X460779Y113290D01*
X460721Y113370D01*
X460665Y113453D01*
X460613Y113537D01*
X460563Y113624D01*
X460518Y113712D01*
X460475Y113802D01*
X460436Y113894D01*
X460401Y113987D01*
X460369Y114081D01*
X460341Y114176D01*
X460316Y114272D01*
X460295Y114370D01*
X460278Y114468D01*
X460265Y114566D01*
X460256Y114665D01*
X460250Y114765D01*
X460248Y114864D01*
X460248Y121356D01*
X460250Y121455D01*
X460256Y121555D01*
X460265Y121654D01*
X460278Y121752D01*
X460295Y121850D01*
X460316Y121948D01*
X460341Y122044D01*
X460369Y122139D01*
X460401Y122233D01*
X460436Y122326D01*
X460475Y122418D01*
X460518Y122508D01*
X460563Y122596D01*
X460613Y122683D01*
X460665Y122767D01*
X460721Y122850D01*
X460779Y122930D01*
X460841Y123008D01*
X460906Y123083D01*
X460974Y123156D01*
X461044Y123226D01*
X461117Y123294D01*
X461192Y123359D01*
X461270Y123421D01*
X461350Y123479D01*
X461433Y123535D01*
X461517Y123587D01*
X461604Y123637D01*
X461692Y123682D01*
X461782Y123725D01*
X461874Y123764D01*
X461966Y123799D01*
X462061Y123831D01*
X462156Y123859D01*
X462252Y123884D01*
X462350Y123905D01*
X462448Y123922D01*
X462546Y123935D01*
X462645Y123944D01*
X462745Y123950D01*
X462844Y123952D01*
X465441Y123952D01*
X469806Y115514D02*
X469808Y115627D01*
X469814Y115740D01*
X469824Y115853D01*
X469838Y115966D01*
X469855Y116078D01*
X469877Y116189D01*
X469902Y116299D01*
X469932Y116409D01*
X469965Y116517D01*
X470002Y116624D01*
X470042Y116730D01*
X470087Y116834D01*
X470135Y116937D01*
X470186Y117038D01*
X470241Y117137D01*
X470299Y117234D01*
X470361Y117329D01*
X470426Y117422D01*
X470494Y117512D01*
X470565Y117600D01*
X470640Y117686D01*
X470717Y117769D01*
X470797Y117849D01*
X470880Y117926D01*
X470966Y118001D01*
X471054Y118072D01*
X471144Y118140D01*
X471237Y118205D01*
X471332Y118267D01*
X471429Y118325D01*
X471528Y118380D01*
X471629Y118431D01*
X471732Y118479D01*
X471836Y118524D01*
X471942Y118564D01*
X472049Y118601D01*
X472157Y118634D01*
X472267Y118664D01*
X472377Y118689D01*
X472488Y118711D01*
X472600Y118728D01*
X472713Y118742D01*
X472826Y118752D01*
X472939Y118758D01*
X473052Y118760D01*
X473165Y118758D01*
X473278Y118752D01*
X473391Y118742D01*
X473504Y118728D01*
X473616Y118711D01*
X473727Y118689D01*
X473837Y118664D01*
X473947Y118634D01*
X474055Y118601D01*
X474162Y118564D01*
X474268Y118524D01*
X474372Y118479D01*
X474475Y118431D01*
X474576Y118380D01*
X474675Y118325D01*
X474772Y118267D01*
X474867Y118205D01*
X474960Y118140D01*
X475050Y118072D01*
X475138Y118001D01*
X475224Y117926D01*
X475307Y117849D01*
X475387Y117769D01*
X475464Y117686D01*
X475539Y117600D01*
X475610Y117512D01*
X475678Y117422D01*
X475743Y117329D01*
X475805Y117234D01*
X475863Y117137D01*
X475918Y117038D01*
X475969Y116937D01*
X476017Y116834D01*
X476062Y116730D01*
X476102Y116624D01*
X476139Y116517D01*
X476172Y116409D01*
X476202Y116299D01*
X476227Y116189D01*
X476249Y116078D01*
X476266Y115966D01*
X476280Y115853D01*
X476290Y115740D01*
X476296Y115627D01*
X476298Y115514D01*
X476296Y115401D01*
X476290Y115288D01*
X476280Y115175D01*
X476266Y115062D01*
X476249Y114950D01*
X476227Y114839D01*
X476202Y114729D01*
X476172Y114619D01*
X476139Y114511D01*
X476102Y114404D01*
X476062Y114298D01*
X476017Y114194D01*
X475969Y114091D01*
X475918Y113990D01*
X475863Y113891D01*
X475805Y113794D01*
X475743Y113699D01*
X475678Y113606D01*
X475610Y113516D01*
X475539Y113428D01*
X475464Y113342D01*
X475387Y113259D01*
X475307Y113179D01*
X475224Y113102D01*
X475138Y113027D01*
X475050Y112956D01*
X474960Y112888D01*
X474867Y112823D01*
X474772Y112761D01*
X474675Y112703D01*
X474576Y112648D01*
X474475Y112597D01*
X474372Y112549D01*
X474268Y112504D01*
X474162Y112464D01*
X474055Y112427D01*
X473947Y112394D01*
X473837Y112364D01*
X473727Y112339D01*
X473616Y112317D01*
X473504Y112300D01*
X473391Y112286D01*
X473278Y112276D01*
X473165Y112270D01*
X473052Y112268D01*
X472939Y112270D01*
X472826Y112276D01*
X472713Y112286D01*
X472600Y112300D01*
X472488Y112317D01*
X472377Y112339D01*
X472267Y112364D01*
X472157Y112394D01*
X472049Y112427D01*
X471942Y112464D01*
X471836Y112504D01*
X471732Y112549D01*
X471629Y112597D01*
X471528Y112648D01*
X471429Y112703D01*
X471332Y112761D01*
X471237Y112823D01*
X471144Y112888D01*
X471054Y112956D01*
X470966Y113027D01*
X470880Y113102D01*
X470797Y113179D01*
X470717Y113259D01*
X470640Y113342D01*
X470565Y113428D01*
X470494Y113516D01*
X470426Y113606D01*
X470361Y113699D01*
X470299Y113794D01*
X470241Y113891D01*
X470186Y113990D01*
X470135Y114091D01*
X470087Y114194D01*
X470042Y114298D01*
X470002Y114404D01*
X469965Y114511D01*
X469932Y114619D01*
X469902Y114729D01*
X469877Y114839D01*
X469855Y114950D01*
X469838Y115062D01*
X469824Y115175D01*
X469814Y115288D01*
X469808Y115401D01*
X469806Y115514D01*
X470456Y121356D02*
X470458Y121457D01*
X470464Y121557D01*
X470474Y121657D01*
X470487Y121757D01*
X470505Y121856D01*
X470526Y121955D01*
X470551Y122052D01*
X470580Y122149D01*
X470613Y122244D01*
X470649Y122338D01*
X470689Y122430D01*
X470732Y122521D01*
X470779Y122610D01*
X470829Y122697D01*
X470883Y122783D01*
X470940Y122866D01*
X471000Y122946D01*
X471063Y123025D01*
X471130Y123101D01*
X471199Y123174D01*
X471271Y123244D01*
X471345Y123312D01*
X471422Y123377D01*
X471502Y123438D01*
X471584Y123497D01*
X471668Y123552D01*
X471754Y123604D01*
X471842Y123653D01*
X471932Y123698D01*
X472024Y123740D01*
X472117Y123778D01*
X472212Y123812D01*
X472307Y123843D01*
X472404Y123870D01*
X472502Y123893D01*
X472601Y123913D01*
X472701Y123928D01*
X472801Y123940D01*
X472901Y123948D01*
X473002Y123952D01*
X473102Y123952D01*
X473203Y123948D01*
X473303Y123940D01*
X473403Y123928D01*
X473503Y123913D01*
X473602Y123893D01*
X473700Y123870D01*
X473797Y123843D01*
X473892Y123812D01*
X473987Y123778D01*
X474080Y123740D01*
X474172Y123698D01*
X474262Y123653D01*
X474350Y123604D01*
X474436Y123552D01*
X474520Y123497D01*
X474602Y123438D01*
X474682Y123377D01*
X474759Y123312D01*
X474833Y123244D01*
X474905Y123174D01*
X474974Y123101D01*
X475041Y123025D01*
X475104Y122946D01*
X475164Y122866D01*
X475221Y122783D01*
X475275Y122697D01*
X475325Y122610D01*
X475372Y122521D01*
X475415Y122430D01*
X475455Y122338D01*
X475491Y122244D01*
X475524Y122149D01*
X475553Y122052D01*
X475578Y121955D01*
X475599Y121856D01*
X475617Y121757D01*
X475630Y121657D01*
X475640Y121557D01*
X475646Y121457D01*
X475648Y121356D01*
X475646Y121255D01*
X475640Y121155D01*
X475630Y121055D01*
X475617Y120955D01*
X475599Y120856D01*
X475578Y120757D01*
X475553Y120660D01*
X475524Y120563D01*
X475491Y120468D01*
X475455Y120374D01*
X475415Y120282D01*
X475372Y120191D01*
X475325Y120102D01*
X475275Y120015D01*
X475221Y119929D01*
X475164Y119846D01*
X475104Y119766D01*
X475041Y119687D01*
X474974Y119611D01*
X474905Y119538D01*
X474833Y119468D01*
X474759Y119400D01*
X474682Y119335D01*
X474602Y119274D01*
X474520Y119215D01*
X474436Y119160D01*
X474350Y119108D01*
X474262Y119059D01*
X474172Y119014D01*
X474080Y118972D01*
X473987Y118934D01*
X473892Y118900D01*
X473797Y118869D01*
X473700Y118842D01*
X473602Y118819D01*
X473503Y118799D01*
X473403Y118784D01*
X473303Y118772D01*
X473203Y118764D01*
X473102Y118760D01*
X473002Y118760D01*
X472901Y118764D01*
X472801Y118772D01*
X472701Y118784D01*
X472601Y118799D01*
X472502Y118819D01*
X472404Y118842D01*
X472307Y118869D01*
X472212Y118900D01*
X472117Y118934D01*
X472024Y118972D01*
X471932Y119014D01*
X471842Y119059D01*
X471754Y119108D01*
X471668Y119160D01*
X471584Y119215D01*
X471502Y119274D01*
X471422Y119335D01*
X471345Y119400D01*
X471271Y119468D01*
X471199Y119538D01*
X471130Y119611D01*
X471063Y119687D01*
X471000Y119766D01*
X470940Y119846D01*
X470883Y119929D01*
X470829Y120015D01*
X470779Y120102D01*
X470732Y120191D01*
X470689Y120282D01*
X470649Y120374D01*
X470613Y120468D01*
X470580Y120563D01*
X470551Y120660D01*
X470526Y120757D01*
X470505Y120856D01*
X470487Y120955D01*
X470474Y121055D01*
X470464Y121155D01*
X470458Y121255D01*
X470456Y121356D01*
X490784Y112268D02*
X493381Y112268D01*
X490784Y112268D02*
X490685Y112270D01*
X490585Y112276D01*
X490486Y112285D01*
X490388Y112298D01*
X490290Y112315D01*
X490192Y112336D01*
X490096Y112361D01*
X490001Y112389D01*
X489907Y112421D01*
X489814Y112456D01*
X489722Y112495D01*
X489632Y112538D01*
X489544Y112583D01*
X489457Y112633D01*
X489373Y112685D01*
X489290Y112741D01*
X489210Y112799D01*
X489132Y112861D01*
X489057Y112926D01*
X488984Y112994D01*
X488914Y113064D01*
X488846Y113137D01*
X488781Y113212D01*
X488719Y113290D01*
X488661Y113370D01*
X488605Y113453D01*
X488553Y113537D01*
X488503Y113624D01*
X488458Y113712D01*
X488415Y113802D01*
X488376Y113894D01*
X488341Y113987D01*
X488309Y114081D01*
X488281Y114176D01*
X488256Y114272D01*
X488235Y114370D01*
X488218Y114468D01*
X488205Y114566D01*
X488196Y114665D01*
X488190Y114765D01*
X488188Y114864D01*
X488188Y121356D01*
X488190Y121455D01*
X488196Y121555D01*
X488205Y121654D01*
X488218Y121752D01*
X488235Y121850D01*
X488256Y121948D01*
X488281Y122044D01*
X488309Y122139D01*
X488341Y122233D01*
X488376Y122326D01*
X488415Y122418D01*
X488458Y122508D01*
X488503Y122596D01*
X488553Y122683D01*
X488605Y122767D01*
X488661Y122850D01*
X488719Y122930D01*
X488781Y123008D01*
X488846Y123083D01*
X488914Y123156D01*
X488984Y123226D01*
X489057Y123294D01*
X489132Y123359D01*
X489210Y123421D01*
X489290Y123479D01*
X489373Y123535D01*
X489457Y123587D01*
X489544Y123637D01*
X489632Y123682D01*
X489722Y123725D01*
X489814Y123764D01*
X489906Y123799D01*
X490001Y123831D01*
X490096Y123859D01*
X490192Y123884D01*
X490290Y123905D01*
X490388Y123922D01*
X490486Y123935D01*
X490585Y123944D01*
X490685Y123950D01*
X490784Y123952D01*
X493381Y123952D01*
X500343Y117461D02*
X504237Y117461D01*
X500343Y117461D02*
X500244Y117463D01*
X500144Y117469D01*
X500045Y117478D01*
X499947Y117491D01*
X499849Y117508D01*
X499751Y117529D01*
X499655Y117554D01*
X499560Y117582D01*
X499466Y117614D01*
X499373Y117649D01*
X499281Y117688D01*
X499191Y117731D01*
X499103Y117776D01*
X499016Y117826D01*
X498932Y117878D01*
X498849Y117934D01*
X498769Y117992D01*
X498691Y118054D01*
X498616Y118119D01*
X498543Y118187D01*
X498473Y118257D01*
X498405Y118330D01*
X498340Y118405D01*
X498278Y118483D01*
X498220Y118563D01*
X498164Y118646D01*
X498112Y118730D01*
X498062Y118817D01*
X498017Y118905D01*
X497974Y118995D01*
X497935Y119087D01*
X497900Y119180D01*
X497868Y119274D01*
X497840Y119369D01*
X497815Y119465D01*
X497794Y119563D01*
X497777Y119661D01*
X497764Y119759D01*
X497755Y119858D01*
X497749Y119958D01*
X497747Y120057D01*
X497746Y120057D02*
X497746Y120706D01*
X497748Y120819D01*
X497754Y120932D01*
X497764Y121045D01*
X497778Y121158D01*
X497795Y121270D01*
X497817Y121381D01*
X497842Y121491D01*
X497872Y121601D01*
X497905Y121709D01*
X497942Y121816D01*
X497982Y121922D01*
X498027Y122026D01*
X498075Y122129D01*
X498126Y122230D01*
X498181Y122329D01*
X498239Y122426D01*
X498301Y122521D01*
X498366Y122614D01*
X498434Y122704D01*
X498505Y122792D01*
X498580Y122878D01*
X498657Y122961D01*
X498737Y123041D01*
X498820Y123118D01*
X498906Y123193D01*
X498994Y123264D01*
X499084Y123332D01*
X499177Y123397D01*
X499272Y123459D01*
X499369Y123517D01*
X499468Y123572D01*
X499569Y123623D01*
X499672Y123671D01*
X499776Y123716D01*
X499882Y123756D01*
X499989Y123793D01*
X500097Y123826D01*
X500207Y123856D01*
X500317Y123881D01*
X500428Y123903D01*
X500540Y123920D01*
X500653Y123934D01*
X500766Y123944D01*
X500879Y123950D01*
X500992Y123952D01*
X501105Y123950D01*
X501218Y123944D01*
X501331Y123934D01*
X501444Y123920D01*
X501556Y123903D01*
X501667Y123881D01*
X501777Y123856D01*
X501887Y123826D01*
X501995Y123793D01*
X502102Y123756D01*
X502208Y123716D01*
X502312Y123671D01*
X502415Y123623D01*
X502516Y123572D01*
X502615Y123517D01*
X502712Y123459D01*
X502807Y123397D01*
X502900Y123332D01*
X502990Y123264D01*
X503078Y123193D01*
X503164Y123118D01*
X503247Y123041D01*
X503327Y122961D01*
X503404Y122878D01*
X503479Y122792D01*
X503550Y122704D01*
X503618Y122614D01*
X503683Y122521D01*
X503745Y122426D01*
X503803Y122329D01*
X503858Y122230D01*
X503909Y122129D01*
X503957Y122026D01*
X504002Y121922D01*
X504042Y121816D01*
X504079Y121709D01*
X504112Y121601D01*
X504142Y121491D01*
X504167Y121381D01*
X504189Y121270D01*
X504206Y121158D01*
X504220Y121045D01*
X504230Y120932D01*
X504236Y120819D01*
X504238Y120706D01*
X504237Y120706D02*
X504237Y117461D01*
X504235Y117318D01*
X504229Y117175D01*
X504219Y117032D01*
X504205Y116890D01*
X504188Y116748D01*
X504166Y116606D01*
X504141Y116465D01*
X504111Y116325D01*
X504078Y116186D01*
X504041Y116048D01*
X504000Y115911D01*
X503956Y115775D01*
X503907Y115640D01*
X503855Y115507D01*
X503800Y115375D01*
X503740Y115245D01*
X503677Y115116D01*
X503611Y114989D01*
X503541Y114864D01*
X503468Y114742D01*
X503391Y114621D01*
X503311Y114502D01*
X503228Y114386D01*
X503142Y114271D01*
X503053Y114160D01*
X502960Y114050D01*
X502865Y113944D01*
X502766Y113840D01*
X502665Y113739D01*
X502561Y113640D01*
X502455Y113545D01*
X502345Y113452D01*
X502234Y113363D01*
X502119Y113277D01*
X502003Y113194D01*
X501884Y113114D01*
X501763Y113037D01*
X501641Y112964D01*
X501516Y112894D01*
X501389Y112828D01*
X501260Y112765D01*
X501130Y112705D01*
X500998Y112650D01*
X500865Y112598D01*
X500730Y112549D01*
X500594Y112505D01*
X500457Y112464D01*
X500319Y112427D01*
X500180Y112394D01*
X500040Y112364D01*
X499899Y112339D01*
X499757Y112317D01*
X499615Y112300D01*
X499473Y112286D01*
X499330Y112276D01*
X499187Y112270D01*
X499044Y112268D01*
D12*
X408220Y117560D02*
X408220Y90085D01*
X408220Y117560D02*
X416645Y117560D01*
X445220Y117560D02*
X445220Y90085D01*
X445220Y117560D02*
X436795Y117560D01*
X432520Y80560D02*
X420920Y80560D01*
D10*
X383600Y115443D02*
X383600Y127127D01*
X386845Y127127D01*
X386958Y127125D01*
X387071Y127119D01*
X387184Y127109D01*
X387297Y127095D01*
X387409Y127078D01*
X387520Y127056D01*
X387630Y127031D01*
X387740Y127001D01*
X387848Y126968D01*
X387955Y126931D01*
X388061Y126891D01*
X388165Y126846D01*
X388268Y126798D01*
X388369Y126747D01*
X388468Y126692D01*
X388565Y126634D01*
X388660Y126572D01*
X388753Y126507D01*
X388843Y126439D01*
X388931Y126368D01*
X389017Y126293D01*
X389100Y126216D01*
X389180Y126136D01*
X389257Y126053D01*
X389332Y125967D01*
X389403Y125879D01*
X389471Y125789D01*
X389536Y125696D01*
X389598Y125601D01*
X389656Y125504D01*
X389711Y125405D01*
X389762Y125304D01*
X389810Y125201D01*
X389855Y125097D01*
X389895Y124991D01*
X389932Y124884D01*
X389965Y124776D01*
X389995Y124666D01*
X390020Y124556D01*
X390042Y124445D01*
X390059Y124333D01*
X390073Y124220D01*
X390083Y124107D01*
X390089Y123994D01*
X390091Y123881D01*
X390089Y123768D01*
X390083Y123655D01*
X390073Y123542D01*
X390059Y123429D01*
X390042Y123317D01*
X390020Y123206D01*
X389995Y123096D01*
X389965Y122986D01*
X389932Y122878D01*
X389895Y122771D01*
X389855Y122665D01*
X389810Y122561D01*
X389762Y122458D01*
X389711Y122357D01*
X389656Y122258D01*
X389598Y122161D01*
X389536Y122066D01*
X389471Y121973D01*
X389403Y121883D01*
X389332Y121795D01*
X389257Y121709D01*
X389180Y121626D01*
X389100Y121546D01*
X389017Y121469D01*
X388931Y121394D01*
X388843Y121323D01*
X388753Y121255D01*
X388660Y121190D01*
X388565Y121128D01*
X388468Y121070D01*
X388369Y121015D01*
X388268Y120964D01*
X388165Y120916D01*
X388061Y120871D01*
X387955Y120831D01*
X387848Y120794D01*
X387740Y120761D01*
X387630Y120731D01*
X387520Y120706D01*
X387409Y120684D01*
X387297Y120667D01*
X387184Y120653D01*
X387071Y120643D01*
X386958Y120637D01*
X386845Y120635D01*
X386845Y120636D02*
X383600Y120636D01*
X387494Y120636D02*
X390091Y115443D01*
X394956Y124531D02*
X398201Y127127D01*
X398201Y115443D01*
X394956Y115443D02*
X401447Y115443D01*
X255778Y112268D02*
X255778Y123952D01*
X259024Y123952D01*
X259137Y123950D01*
X259250Y123944D01*
X259363Y123934D01*
X259476Y123920D01*
X259588Y123903D01*
X259699Y123881D01*
X259809Y123856D01*
X259919Y123826D01*
X260027Y123793D01*
X260134Y123756D01*
X260240Y123716D01*
X260344Y123671D01*
X260447Y123623D01*
X260548Y123572D01*
X260647Y123517D01*
X260744Y123459D01*
X260839Y123397D01*
X260932Y123332D01*
X261022Y123264D01*
X261110Y123193D01*
X261196Y123118D01*
X261279Y123041D01*
X261359Y122961D01*
X261436Y122878D01*
X261511Y122792D01*
X261582Y122704D01*
X261650Y122614D01*
X261715Y122521D01*
X261777Y122426D01*
X261835Y122329D01*
X261890Y122230D01*
X261941Y122129D01*
X261989Y122026D01*
X262034Y121922D01*
X262074Y121816D01*
X262111Y121709D01*
X262144Y121601D01*
X262174Y121491D01*
X262199Y121381D01*
X262221Y121270D01*
X262238Y121158D01*
X262252Y121045D01*
X262262Y120932D01*
X262268Y120819D01*
X262270Y120706D01*
X262268Y120593D01*
X262262Y120480D01*
X262252Y120367D01*
X262238Y120254D01*
X262221Y120142D01*
X262199Y120031D01*
X262174Y119921D01*
X262144Y119811D01*
X262111Y119703D01*
X262074Y119596D01*
X262034Y119490D01*
X261989Y119386D01*
X261941Y119283D01*
X261890Y119182D01*
X261835Y119083D01*
X261777Y118986D01*
X261715Y118891D01*
X261650Y118798D01*
X261582Y118708D01*
X261511Y118620D01*
X261436Y118534D01*
X261359Y118451D01*
X261279Y118371D01*
X261196Y118294D01*
X261110Y118219D01*
X261022Y118148D01*
X260932Y118080D01*
X260839Y118015D01*
X260744Y117953D01*
X260647Y117895D01*
X260548Y117840D01*
X260447Y117789D01*
X260344Y117741D01*
X260240Y117696D01*
X260134Y117656D01*
X260027Y117619D01*
X259919Y117586D01*
X259809Y117556D01*
X259699Y117531D01*
X259588Y117509D01*
X259476Y117492D01*
X259363Y117478D01*
X259250Y117468D01*
X259137Y117462D01*
X259024Y117460D01*
X259024Y117461D02*
X255778Y117461D01*
X259673Y117461D02*
X262269Y112268D01*
X267134Y121356D02*
X270380Y123952D01*
X270380Y112268D01*
X273625Y112268D02*
X267134Y112268D01*
X278565Y118110D02*
X278568Y118340D01*
X278576Y118570D01*
X278590Y118799D01*
X278609Y119028D01*
X278634Y119257D01*
X278664Y119484D01*
X278699Y119712D01*
X278740Y119938D01*
X278786Y120163D01*
X278838Y120387D01*
X278895Y120609D01*
X278957Y120831D01*
X279025Y121050D01*
X279098Y121268D01*
X279176Y121485D01*
X279259Y121699D01*
X279347Y121911D01*
X279440Y122121D01*
X279539Y122329D01*
X279538Y122329D02*
X279571Y122419D01*
X279607Y122508D01*
X279647Y122596D01*
X279691Y122681D01*
X279738Y122765D01*
X279788Y122847D01*
X279842Y122927D01*
X279898Y123004D01*
X279958Y123080D01*
X280021Y123153D01*
X280086Y123223D01*
X280155Y123291D01*
X280226Y123355D01*
X280299Y123417D01*
X280375Y123476D01*
X280453Y123532D01*
X280534Y123585D01*
X280616Y123634D01*
X280700Y123680D01*
X280787Y123723D01*
X280874Y123762D01*
X280964Y123798D01*
X281054Y123830D01*
X281146Y123858D01*
X281239Y123883D01*
X281333Y123904D01*
X281427Y123921D01*
X281522Y123935D01*
X281618Y123944D01*
X281714Y123950D01*
X281810Y123952D01*
X281906Y123950D01*
X282002Y123944D01*
X282098Y123935D01*
X282193Y123921D01*
X282287Y123904D01*
X282381Y123883D01*
X282474Y123858D01*
X282566Y123830D01*
X282656Y123798D01*
X282746Y123762D01*
X282833Y123723D01*
X282920Y123680D01*
X283004Y123634D01*
X283086Y123585D01*
X283167Y123532D01*
X283245Y123476D01*
X283321Y123417D01*
X283394Y123355D01*
X283465Y123291D01*
X283534Y123223D01*
X283599Y123153D01*
X283662Y123080D01*
X283722Y123004D01*
X283778Y122927D01*
X283832Y122847D01*
X283882Y122765D01*
X283929Y122681D01*
X283973Y122596D01*
X284013Y122508D01*
X284049Y122419D01*
X284082Y122329D01*
X284181Y122122D01*
X284274Y121912D01*
X284362Y121699D01*
X284445Y121485D01*
X284523Y121269D01*
X284596Y121051D01*
X284664Y120831D01*
X284726Y120610D01*
X284783Y120387D01*
X284835Y120163D01*
X284881Y119938D01*
X284922Y119712D01*
X284957Y119485D01*
X284987Y119257D01*
X285012Y119028D01*
X285031Y118799D01*
X285045Y118570D01*
X285053Y118340D01*
X285056Y118110D01*
X278564Y118110D02*
X278567Y117880D01*
X278575Y117650D01*
X278589Y117421D01*
X278608Y117192D01*
X278633Y116963D01*
X278663Y116735D01*
X278698Y116508D01*
X278739Y116282D01*
X278785Y116057D01*
X278837Y115833D01*
X278894Y115610D01*
X278956Y115389D01*
X279024Y115169D01*
X279097Y114951D01*
X279175Y114735D01*
X279258Y114521D01*
X279346Y114309D01*
X279439Y114098D01*
X279538Y113891D01*
X279571Y113801D01*
X279607Y113712D01*
X279648Y113624D01*
X279691Y113539D01*
X279738Y113455D01*
X279788Y113373D01*
X279842Y113293D01*
X279898Y113216D01*
X279958Y113140D01*
X280021Y113067D01*
X280086Y112997D01*
X280155Y112929D01*
X280226Y112865D01*
X280299Y112803D01*
X280375Y112744D01*
X280453Y112688D01*
X280534Y112635D01*
X280616Y112586D01*
X280700Y112540D01*
X280787Y112497D01*
X280874Y112458D01*
X280964Y112422D01*
X281054Y112390D01*
X281146Y112362D01*
X281239Y112337D01*
X281333Y112316D01*
X281427Y112299D01*
X281522Y112285D01*
X281618Y112276D01*
X281714Y112270D01*
X281810Y112268D01*
X284082Y113891D02*
X284181Y114098D01*
X284274Y114309D01*
X284362Y114521D01*
X284445Y114735D01*
X284523Y114951D01*
X284596Y115169D01*
X284664Y115389D01*
X284726Y115610D01*
X284783Y115833D01*
X284835Y116057D01*
X284881Y116282D01*
X284922Y116508D01*
X284957Y116735D01*
X284987Y116963D01*
X285012Y117192D01*
X285031Y117421D01*
X285045Y117650D01*
X285053Y117880D01*
X285056Y118110D01*
X284082Y113891D02*
X284049Y113801D01*
X284013Y113712D01*
X283973Y113624D01*
X283929Y113539D01*
X283882Y113455D01*
X283832Y113373D01*
X283778Y113293D01*
X283722Y113216D01*
X283662Y113140D01*
X283599Y113067D01*
X283534Y112997D01*
X283465Y112929D01*
X283394Y112865D01*
X283321Y112803D01*
X283245Y112744D01*
X283167Y112688D01*
X283086Y112635D01*
X283004Y112586D01*
X282920Y112540D01*
X282833Y112497D01*
X282746Y112458D01*
X282656Y112422D01*
X282566Y112390D01*
X282474Y112362D01*
X282381Y112337D01*
X282287Y112316D01*
X282193Y112299D01*
X282098Y112285D01*
X282002Y112276D01*
X281906Y112270D01*
X281810Y112268D01*
X279213Y114864D02*
X284406Y121356D01*
X311658Y126492D02*
X311658Y114808D01*
X311658Y126492D02*
X314904Y126492D01*
X315017Y126490D01*
X315130Y126484D01*
X315243Y126474D01*
X315356Y126460D01*
X315468Y126443D01*
X315579Y126421D01*
X315689Y126396D01*
X315799Y126366D01*
X315907Y126333D01*
X316014Y126296D01*
X316120Y126256D01*
X316224Y126211D01*
X316327Y126163D01*
X316428Y126112D01*
X316527Y126057D01*
X316624Y125999D01*
X316719Y125937D01*
X316812Y125872D01*
X316902Y125804D01*
X316990Y125733D01*
X317076Y125658D01*
X317159Y125581D01*
X317239Y125501D01*
X317316Y125418D01*
X317391Y125332D01*
X317462Y125244D01*
X317530Y125154D01*
X317595Y125061D01*
X317657Y124966D01*
X317715Y124869D01*
X317770Y124770D01*
X317821Y124669D01*
X317869Y124566D01*
X317914Y124462D01*
X317954Y124356D01*
X317991Y124249D01*
X318024Y124141D01*
X318054Y124031D01*
X318079Y123921D01*
X318101Y123810D01*
X318118Y123698D01*
X318132Y123585D01*
X318142Y123472D01*
X318148Y123359D01*
X318150Y123246D01*
X318148Y123133D01*
X318142Y123020D01*
X318132Y122907D01*
X318118Y122794D01*
X318101Y122682D01*
X318079Y122571D01*
X318054Y122461D01*
X318024Y122351D01*
X317991Y122243D01*
X317954Y122136D01*
X317914Y122030D01*
X317869Y121926D01*
X317821Y121823D01*
X317770Y121722D01*
X317715Y121623D01*
X317657Y121526D01*
X317595Y121431D01*
X317530Y121338D01*
X317462Y121248D01*
X317391Y121160D01*
X317316Y121074D01*
X317239Y120991D01*
X317159Y120911D01*
X317076Y120834D01*
X316990Y120759D01*
X316902Y120688D01*
X316812Y120620D01*
X316719Y120555D01*
X316624Y120493D01*
X316527Y120435D01*
X316428Y120380D01*
X316327Y120329D01*
X316224Y120281D01*
X316120Y120236D01*
X316014Y120196D01*
X315907Y120159D01*
X315799Y120126D01*
X315689Y120096D01*
X315579Y120071D01*
X315468Y120049D01*
X315356Y120032D01*
X315243Y120018D01*
X315130Y120008D01*
X315017Y120002D01*
X314904Y120000D01*
X314904Y120001D02*
X311658Y120001D01*
X315553Y120001D02*
X318149Y114808D01*
X323014Y123896D02*
X326260Y126492D01*
X326260Y114808D01*
X329505Y114808D02*
X323014Y114808D01*
X334444Y123896D02*
X337690Y126492D01*
X337690Y114808D01*
X340935Y114808D02*
X334444Y114808D01*
X265938Y220218D02*
X265938Y231902D01*
X269184Y231902D01*
X269297Y231900D01*
X269410Y231894D01*
X269523Y231884D01*
X269636Y231870D01*
X269748Y231853D01*
X269859Y231831D01*
X269969Y231806D01*
X270079Y231776D01*
X270187Y231743D01*
X270294Y231706D01*
X270400Y231666D01*
X270504Y231621D01*
X270607Y231573D01*
X270708Y231522D01*
X270807Y231467D01*
X270904Y231409D01*
X270999Y231347D01*
X271092Y231282D01*
X271182Y231214D01*
X271270Y231143D01*
X271356Y231068D01*
X271439Y230991D01*
X271519Y230911D01*
X271596Y230828D01*
X271671Y230742D01*
X271742Y230654D01*
X271810Y230564D01*
X271875Y230471D01*
X271937Y230376D01*
X271995Y230279D01*
X272050Y230180D01*
X272101Y230079D01*
X272149Y229976D01*
X272194Y229872D01*
X272234Y229766D01*
X272271Y229659D01*
X272304Y229551D01*
X272334Y229441D01*
X272359Y229331D01*
X272381Y229220D01*
X272398Y229108D01*
X272412Y228995D01*
X272422Y228882D01*
X272428Y228769D01*
X272430Y228656D01*
X272428Y228543D01*
X272422Y228430D01*
X272412Y228317D01*
X272398Y228204D01*
X272381Y228092D01*
X272359Y227981D01*
X272334Y227871D01*
X272304Y227761D01*
X272271Y227653D01*
X272234Y227546D01*
X272194Y227440D01*
X272149Y227336D01*
X272101Y227233D01*
X272050Y227132D01*
X271995Y227033D01*
X271937Y226936D01*
X271875Y226841D01*
X271810Y226748D01*
X271742Y226658D01*
X271671Y226570D01*
X271596Y226484D01*
X271519Y226401D01*
X271439Y226321D01*
X271356Y226244D01*
X271270Y226169D01*
X271182Y226098D01*
X271092Y226030D01*
X270999Y225965D01*
X270904Y225903D01*
X270807Y225845D01*
X270708Y225790D01*
X270607Y225739D01*
X270504Y225691D01*
X270400Y225646D01*
X270294Y225606D01*
X270187Y225569D01*
X270079Y225536D01*
X269969Y225506D01*
X269859Y225481D01*
X269748Y225459D01*
X269636Y225442D01*
X269523Y225428D01*
X269410Y225418D01*
X269297Y225412D01*
X269184Y225410D01*
X269184Y225411D02*
X265938Y225411D01*
X269833Y225411D02*
X272429Y220218D01*
X277294Y229306D02*
X280540Y231902D01*
X280540Y220218D01*
X283785Y220218D02*
X277294Y220218D01*
X292294Y231902D02*
X292401Y231900D01*
X292507Y231894D01*
X292613Y231884D01*
X292719Y231871D01*
X292825Y231853D01*
X292929Y231832D01*
X293033Y231807D01*
X293136Y231778D01*
X293237Y231746D01*
X293337Y231709D01*
X293436Y231669D01*
X293534Y231626D01*
X293630Y231579D01*
X293724Y231528D01*
X293816Y231474D01*
X293906Y231417D01*
X293994Y231357D01*
X294079Y231293D01*
X294162Y231226D01*
X294243Y231156D01*
X294321Y231084D01*
X294397Y231008D01*
X294469Y230930D01*
X294539Y230849D01*
X294606Y230766D01*
X294670Y230681D01*
X294730Y230593D01*
X294787Y230503D01*
X294841Y230411D01*
X294892Y230317D01*
X294939Y230221D01*
X294982Y230123D01*
X295022Y230024D01*
X295059Y229924D01*
X295091Y229823D01*
X295120Y229720D01*
X295145Y229616D01*
X295166Y229512D01*
X295184Y229406D01*
X295197Y229300D01*
X295207Y229194D01*
X295213Y229088D01*
X295215Y228981D01*
X292294Y231902D02*
X292173Y231900D01*
X292052Y231894D01*
X291932Y231884D01*
X291811Y231871D01*
X291692Y231853D01*
X291572Y231832D01*
X291454Y231807D01*
X291337Y231778D01*
X291220Y231745D01*
X291105Y231709D01*
X290991Y231668D01*
X290878Y231625D01*
X290766Y231577D01*
X290657Y231526D01*
X290549Y231471D01*
X290442Y231413D01*
X290338Y231352D01*
X290236Y231287D01*
X290136Y231219D01*
X290038Y231148D01*
X289942Y231074D01*
X289849Y230997D01*
X289759Y230916D01*
X289671Y230833D01*
X289586Y230747D01*
X289503Y230658D01*
X289424Y230567D01*
X289347Y230473D01*
X289274Y230377D01*
X289204Y230279D01*
X289137Y230178D01*
X289073Y230075D01*
X289013Y229970D01*
X288956Y229863D01*
X288902Y229755D01*
X288852Y229645D01*
X288806Y229533D01*
X288763Y229420D01*
X288724Y229305D01*
X294242Y226709D02*
X294321Y226786D01*
X294397Y226867D01*
X294470Y226950D01*
X294540Y227035D01*
X294607Y227123D01*
X294671Y227213D01*
X294731Y227305D01*
X294788Y227400D01*
X294842Y227496D01*
X294893Y227594D01*
X294940Y227694D01*
X294984Y227796D01*
X295024Y227899D01*
X295060Y228003D01*
X295092Y228109D01*
X295121Y228215D01*
X295146Y228323D01*
X295168Y228431D01*
X295185Y228541D01*
X295199Y228650D01*
X295208Y228760D01*
X295214Y228871D01*
X295216Y228981D01*
X294242Y226709D02*
X288724Y220218D01*
X295215Y220218D01*
X387858Y226568D02*
X387858Y238252D01*
X391104Y238252D01*
X391217Y238250D01*
X391330Y238244D01*
X391443Y238234D01*
X391556Y238220D01*
X391668Y238203D01*
X391779Y238181D01*
X391889Y238156D01*
X391999Y238126D01*
X392107Y238093D01*
X392214Y238056D01*
X392320Y238016D01*
X392424Y237971D01*
X392527Y237923D01*
X392628Y237872D01*
X392727Y237817D01*
X392824Y237759D01*
X392919Y237697D01*
X393012Y237632D01*
X393102Y237564D01*
X393190Y237493D01*
X393276Y237418D01*
X393359Y237341D01*
X393439Y237261D01*
X393516Y237178D01*
X393591Y237092D01*
X393662Y237004D01*
X393730Y236914D01*
X393795Y236821D01*
X393857Y236726D01*
X393915Y236629D01*
X393970Y236530D01*
X394021Y236429D01*
X394069Y236326D01*
X394114Y236222D01*
X394154Y236116D01*
X394191Y236009D01*
X394224Y235901D01*
X394254Y235791D01*
X394279Y235681D01*
X394301Y235570D01*
X394318Y235458D01*
X394332Y235345D01*
X394342Y235232D01*
X394348Y235119D01*
X394350Y235006D01*
X394348Y234893D01*
X394342Y234780D01*
X394332Y234667D01*
X394318Y234554D01*
X394301Y234442D01*
X394279Y234331D01*
X394254Y234221D01*
X394224Y234111D01*
X394191Y234003D01*
X394154Y233896D01*
X394114Y233790D01*
X394069Y233686D01*
X394021Y233583D01*
X393970Y233482D01*
X393915Y233383D01*
X393857Y233286D01*
X393795Y233191D01*
X393730Y233098D01*
X393662Y233008D01*
X393591Y232920D01*
X393516Y232834D01*
X393439Y232751D01*
X393359Y232671D01*
X393276Y232594D01*
X393190Y232519D01*
X393102Y232448D01*
X393012Y232380D01*
X392919Y232315D01*
X392824Y232253D01*
X392727Y232195D01*
X392628Y232140D01*
X392527Y232089D01*
X392424Y232041D01*
X392320Y231996D01*
X392214Y231956D01*
X392107Y231919D01*
X391999Y231886D01*
X391889Y231856D01*
X391779Y231831D01*
X391668Y231809D01*
X391556Y231792D01*
X391443Y231778D01*
X391330Y231768D01*
X391217Y231762D01*
X391104Y231760D01*
X391104Y231761D02*
X387858Y231761D01*
X391753Y231761D02*
X394349Y226568D01*
X399214Y235656D02*
X402460Y238252D01*
X402460Y226568D01*
X405705Y226568D02*
X399214Y226568D01*
X410644Y226568D02*
X413890Y226568D01*
X414003Y226570D01*
X414116Y226576D01*
X414229Y226586D01*
X414342Y226600D01*
X414454Y226617D01*
X414565Y226639D01*
X414675Y226664D01*
X414785Y226694D01*
X414893Y226727D01*
X415000Y226764D01*
X415106Y226804D01*
X415210Y226849D01*
X415313Y226897D01*
X415414Y226948D01*
X415513Y227003D01*
X415610Y227061D01*
X415705Y227123D01*
X415798Y227188D01*
X415888Y227256D01*
X415976Y227327D01*
X416062Y227402D01*
X416145Y227479D01*
X416225Y227559D01*
X416302Y227642D01*
X416377Y227728D01*
X416448Y227816D01*
X416516Y227906D01*
X416581Y227999D01*
X416643Y228094D01*
X416701Y228191D01*
X416756Y228290D01*
X416807Y228391D01*
X416855Y228494D01*
X416900Y228598D01*
X416940Y228704D01*
X416977Y228811D01*
X417010Y228919D01*
X417040Y229029D01*
X417065Y229139D01*
X417087Y229250D01*
X417104Y229362D01*
X417118Y229475D01*
X417128Y229588D01*
X417134Y229701D01*
X417136Y229814D01*
X417134Y229927D01*
X417128Y230040D01*
X417118Y230153D01*
X417104Y230266D01*
X417087Y230378D01*
X417065Y230489D01*
X417040Y230599D01*
X417010Y230709D01*
X416977Y230817D01*
X416940Y230924D01*
X416900Y231030D01*
X416855Y231134D01*
X416807Y231237D01*
X416756Y231338D01*
X416701Y231437D01*
X416643Y231534D01*
X416581Y231629D01*
X416516Y231722D01*
X416448Y231812D01*
X416377Y231900D01*
X416302Y231986D01*
X416225Y232069D01*
X416145Y232149D01*
X416062Y232226D01*
X415976Y232301D01*
X415888Y232372D01*
X415798Y232440D01*
X415705Y232505D01*
X415610Y232567D01*
X415513Y232625D01*
X415414Y232680D01*
X415313Y232731D01*
X415210Y232779D01*
X415106Y232824D01*
X415000Y232864D01*
X414893Y232901D01*
X414785Y232934D01*
X414675Y232964D01*
X414565Y232989D01*
X414454Y233011D01*
X414342Y233028D01*
X414229Y233042D01*
X414116Y233052D01*
X414003Y233058D01*
X413890Y233060D01*
X414539Y238252D02*
X410644Y238252D01*
X414539Y238252D02*
X414640Y238250D01*
X414740Y238244D01*
X414840Y238234D01*
X414940Y238221D01*
X415039Y238203D01*
X415138Y238182D01*
X415235Y238157D01*
X415332Y238128D01*
X415427Y238095D01*
X415521Y238059D01*
X415613Y238019D01*
X415704Y237976D01*
X415793Y237929D01*
X415880Y237879D01*
X415966Y237825D01*
X416049Y237768D01*
X416129Y237708D01*
X416208Y237645D01*
X416284Y237578D01*
X416357Y237509D01*
X416427Y237437D01*
X416495Y237363D01*
X416560Y237286D01*
X416621Y237206D01*
X416680Y237124D01*
X416735Y237040D01*
X416787Y236954D01*
X416836Y236866D01*
X416881Y236776D01*
X416923Y236684D01*
X416961Y236591D01*
X416995Y236496D01*
X417026Y236401D01*
X417053Y236304D01*
X417076Y236206D01*
X417096Y236107D01*
X417111Y236007D01*
X417123Y235907D01*
X417131Y235807D01*
X417135Y235706D01*
X417135Y235606D01*
X417131Y235505D01*
X417123Y235405D01*
X417111Y235305D01*
X417096Y235205D01*
X417076Y235106D01*
X417053Y235008D01*
X417026Y234911D01*
X416995Y234816D01*
X416961Y234721D01*
X416923Y234628D01*
X416881Y234536D01*
X416836Y234446D01*
X416787Y234358D01*
X416735Y234272D01*
X416680Y234188D01*
X416621Y234106D01*
X416560Y234026D01*
X416495Y233949D01*
X416427Y233875D01*
X416357Y233803D01*
X416284Y233734D01*
X416208Y233667D01*
X416129Y233604D01*
X416049Y233544D01*
X415966Y233487D01*
X415880Y233433D01*
X415793Y233383D01*
X415704Y233336D01*
X415613Y233293D01*
X415521Y233253D01*
X415427Y233217D01*
X415332Y233184D01*
X415235Y233155D01*
X415138Y233130D01*
X415039Y233109D01*
X414940Y233091D01*
X414840Y233078D01*
X414740Y233068D01*
X414640Y233062D01*
X414539Y233060D01*
X414539Y233059D02*
X411943Y233059D01*
X558038Y149352D02*
X558038Y137668D01*
X558038Y149352D02*
X561284Y149352D01*
X561397Y149350D01*
X561510Y149344D01*
X561623Y149334D01*
X561736Y149320D01*
X561848Y149303D01*
X561959Y149281D01*
X562069Y149256D01*
X562179Y149226D01*
X562287Y149193D01*
X562394Y149156D01*
X562500Y149116D01*
X562604Y149071D01*
X562707Y149023D01*
X562808Y148972D01*
X562907Y148917D01*
X563004Y148859D01*
X563099Y148797D01*
X563192Y148732D01*
X563282Y148664D01*
X563370Y148593D01*
X563456Y148518D01*
X563539Y148441D01*
X563619Y148361D01*
X563696Y148278D01*
X563771Y148192D01*
X563842Y148104D01*
X563910Y148014D01*
X563975Y147921D01*
X564037Y147826D01*
X564095Y147729D01*
X564150Y147630D01*
X564201Y147529D01*
X564249Y147426D01*
X564294Y147322D01*
X564334Y147216D01*
X564371Y147109D01*
X564404Y147001D01*
X564434Y146891D01*
X564459Y146781D01*
X564481Y146670D01*
X564498Y146558D01*
X564512Y146445D01*
X564522Y146332D01*
X564528Y146219D01*
X564530Y146106D01*
X564528Y145993D01*
X564522Y145880D01*
X564512Y145767D01*
X564498Y145654D01*
X564481Y145542D01*
X564459Y145431D01*
X564434Y145321D01*
X564404Y145211D01*
X564371Y145103D01*
X564334Y144996D01*
X564294Y144890D01*
X564249Y144786D01*
X564201Y144683D01*
X564150Y144582D01*
X564095Y144483D01*
X564037Y144386D01*
X563975Y144291D01*
X563910Y144198D01*
X563842Y144108D01*
X563771Y144020D01*
X563696Y143934D01*
X563619Y143851D01*
X563539Y143771D01*
X563456Y143694D01*
X563370Y143619D01*
X563282Y143548D01*
X563192Y143480D01*
X563099Y143415D01*
X563004Y143353D01*
X562907Y143295D01*
X562808Y143240D01*
X562707Y143189D01*
X562604Y143141D01*
X562500Y143096D01*
X562394Y143056D01*
X562287Y143019D01*
X562179Y142986D01*
X562069Y142956D01*
X561959Y142931D01*
X561848Y142909D01*
X561736Y142892D01*
X561623Y142878D01*
X561510Y142868D01*
X561397Y142862D01*
X561284Y142860D01*
X561284Y142861D02*
X558038Y142861D01*
X561933Y142861D02*
X564529Y137668D01*
X569394Y146756D02*
X572640Y149352D01*
X572640Y137668D01*
X575885Y137668D02*
X569394Y137668D01*
X580824Y140264D02*
X583421Y149352D01*
X580824Y140264D02*
X587315Y140264D01*
X585368Y142861D02*
X585368Y137668D01*
X132775Y193548D02*
X132775Y205232D01*
X136020Y205232D01*
X136133Y205230D01*
X136246Y205224D01*
X136359Y205214D01*
X136472Y205200D01*
X136584Y205183D01*
X136695Y205161D01*
X136805Y205136D01*
X136915Y205106D01*
X137023Y205073D01*
X137130Y205036D01*
X137236Y204996D01*
X137340Y204951D01*
X137443Y204903D01*
X137544Y204852D01*
X137643Y204797D01*
X137740Y204739D01*
X137835Y204677D01*
X137928Y204612D01*
X138018Y204544D01*
X138106Y204473D01*
X138192Y204398D01*
X138275Y204321D01*
X138355Y204241D01*
X138432Y204158D01*
X138507Y204072D01*
X138578Y203984D01*
X138646Y203894D01*
X138711Y203801D01*
X138773Y203706D01*
X138831Y203609D01*
X138886Y203510D01*
X138937Y203409D01*
X138985Y203306D01*
X139030Y203202D01*
X139070Y203096D01*
X139107Y202989D01*
X139140Y202881D01*
X139170Y202771D01*
X139195Y202661D01*
X139217Y202550D01*
X139234Y202438D01*
X139248Y202325D01*
X139258Y202212D01*
X139264Y202099D01*
X139266Y201986D01*
X139264Y201873D01*
X139258Y201760D01*
X139248Y201647D01*
X139234Y201534D01*
X139217Y201422D01*
X139195Y201311D01*
X139170Y201201D01*
X139140Y201091D01*
X139107Y200983D01*
X139070Y200876D01*
X139030Y200770D01*
X138985Y200666D01*
X138937Y200563D01*
X138886Y200462D01*
X138831Y200363D01*
X138773Y200266D01*
X138711Y200171D01*
X138646Y200078D01*
X138578Y199988D01*
X138507Y199900D01*
X138432Y199814D01*
X138355Y199731D01*
X138275Y199651D01*
X138192Y199574D01*
X138106Y199499D01*
X138018Y199428D01*
X137928Y199360D01*
X137835Y199295D01*
X137740Y199233D01*
X137643Y199175D01*
X137544Y199120D01*
X137443Y199069D01*
X137340Y199021D01*
X137236Y198976D01*
X137130Y198936D01*
X137023Y198899D01*
X136915Y198866D01*
X136805Y198836D01*
X136695Y198811D01*
X136584Y198789D01*
X136472Y198772D01*
X136359Y198758D01*
X136246Y198748D01*
X136133Y198742D01*
X136020Y198740D01*
X136020Y198741D02*
X132775Y198741D01*
X136669Y198741D02*
X139266Y193548D01*
X150622Y202311D02*
X150620Y202418D01*
X150614Y202524D01*
X150604Y202630D01*
X150591Y202736D01*
X150573Y202842D01*
X150552Y202946D01*
X150527Y203050D01*
X150498Y203153D01*
X150466Y203254D01*
X150429Y203354D01*
X150389Y203453D01*
X150346Y203551D01*
X150299Y203647D01*
X150248Y203741D01*
X150194Y203833D01*
X150137Y203923D01*
X150077Y204011D01*
X150013Y204096D01*
X149946Y204179D01*
X149876Y204260D01*
X149804Y204338D01*
X149728Y204414D01*
X149650Y204486D01*
X149569Y204556D01*
X149486Y204623D01*
X149401Y204687D01*
X149313Y204747D01*
X149223Y204804D01*
X149131Y204858D01*
X149037Y204909D01*
X148941Y204956D01*
X148843Y204999D01*
X148744Y205039D01*
X148644Y205076D01*
X148543Y205108D01*
X148440Y205137D01*
X148336Y205162D01*
X148232Y205183D01*
X148126Y205201D01*
X148020Y205214D01*
X147914Y205224D01*
X147808Y205230D01*
X147701Y205232D01*
X147580Y205230D01*
X147459Y205224D01*
X147339Y205214D01*
X147218Y205201D01*
X147099Y205183D01*
X146979Y205162D01*
X146861Y205137D01*
X146744Y205108D01*
X146627Y205075D01*
X146512Y205039D01*
X146398Y204998D01*
X146285Y204955D01*
X146173Y204907D01*
X146064Y204856D01*
X145956Y204801D01*
X145849Y204743D01*
X145745Y204682D01*
X145643Y204617D01*
X145543Y204549D01*
X145445Y204478D01*
X145349Y204404D01*
X145256Y204327D01*
X145166Y204246D01*
X145078Y204163D01*
X144993Y204077D01*
X144910Y203988D01*
X144831Y203897D01*
X144754Y203803D01*
X144681Y203707D01*
X144611Y203609D01*
X144544Y203508D01*
X144480Y203405D01*
X144420Y203300D01*
X144363Y203193D01*
X144309Y203085D01*
X144259Y202975D01*
X144213Y202863D01*
X144170Y202750D01*
X144131Y202635D01*
X149649Y200039D02*
X149728Y200116D01*
X149804Y200197D01*
X149877Y200280D01*
X149947Y200365D01*
X150014Y200453D01*
X150078Y200543D01*
X150138Y200635D01*
X150195Y200730D01*
X150249Y200826D01*
X150300Y200924D01*
X150347Y201024D01*
X150391Y201126D01*
X150431Y201229D01*
X150467Y201333D01*
X150499Y201439D01*
X150528Y201545D01*
X150553Y201653D01*
X150575Y201761D01*
X150592Y201871D01*
X150606Y201980D01*
X150615Y202090D01*
X150621Y202201D01*
X150623Y202311D01*
X149648Y200039D02*
X144131Y193548D01*
X150622Y193548D01*
X184658Y192532D02*
X184658Y180848D01*
X184658Y192532D02*
X187904Y192532D01*
X188017Y192530D01*
X188130Y192524D01*
X188243Y192514D01*
X188356Y192500D01*
X188468Y192483D01*
X188579Y192461D01*
X188689Y192436D01*
X188799Y192406D01*
X188907Y192373D01*
X189014Y192336D01*
X189120Y192296D01*
X189224Y192251D01*
X189327Y192203D01*
X189428Y192152D01*
X189527Y192097D01*
X189624Y192039D01*
X189719Y191977D01*
X189812Y191912D01*
X189902Y191844D01*
X189990Y191773D01*
X190076Y191698D01*
X190159Y191621D01*
X190239Y191541D01*
X190316Y191458D01*
X190391Y191372D01*
X190462Y191284D01*
X190530Y191194D01*
X190595Y191101D01*
X190657Y191006D01*
X190715Y190909D01*
X190770Y190810D01*
X190821Y190709D01*
X190869Y190606D01*
X190914Y190502D01*
X190954Y190396D01*
X190991Y190289D01*
X191024Y190181D01*
X191054Y190071D01*
X191079Y189961D01*
X191101Y189850D01*
X191118Y189738D01*
X191132Y189625D01*
X191142Y189512D01*
X191148Y189399D01*
X191150Y189286D01*
X191148Y189173D01*
X191142Y189060D01*
X191132Y188947D01*
X191118Y188834D01*
X191101Y188722D01*
X191079Y188611D01*
X191054Y188501D01*
X191024Y188391D01*
X190991Y188283D01*
X190954Y188176D01*
X190914Y188070D01*
X190869Y187966D01*
X190821Y187863D01*
X190770Y187762D01*
X190715Y187663D01*
X190657Y187566D01*
X190595Y187471D01*
X190530Y187378D01*
X190462Y187288D01*
X190391Y187200D01*
X190316Y187114D01*
X190239Y187031D01*
X190159Y186951D01*
X190076Y186874D01*
X189990Y186799D01*
X189902Y186728D01*
X189812Y186660D01*
X189719Y186595D01*
X189624Y186533D01*
X189527Y186475D01*
X189428Y186420D01*
X189327Y186369D01*
X189224Y186321D01*
X189120Y186276D01*
X189014Y186236D01*
X188907Y186199D01*
X188799Y186166D01*
X188689Y186136D01*
X188579Y186111D01*
X188468Y186089D01*
X188356Y186072D01*
X188243Y186058D01*
X188130Y186048D01*
X188017Y186042D01*
X187904Y186040D01*
X187904Y186041D02*
X184658Y186041D01*
X188553Y186041D02*
X191149Y180848D01*
X196014Y180848D02*
X199260Y180848D01*
X199373Y180850D01*
X199486Y180856D01*
X199599Y180866D01*
X199712Y180880D01*
X199824Y180897D01*
X199935Y180919D01*
X200045Y180944D01*
X200155Y180974D01*
X200263Y181007D01*
X200370Y181044D01*
X200476Y181084D01*
X200580Y181129D01*
X200683Y181177D01*
X200784Y181228D01*
X200883Y181283D01*
X200980Y181341D01*
X201075Y181403D01*
X201168Y181468D01*
X201258Y181536D01*
X201346Y181607D01*
X201432Y181682D01*
X201515Y181759D01*
X201595Y181839D01*
X201672Y181922D01*
X201747Y182008D01*
X201818Y182096D01*
X201886Y182186D01*
X201951Y182279D01*
X202013Y182374D01*
X202071Y182471D01*
X202126Y182570D01*
X202177Y182671D01*
X202225Y182774D01*
X202270Y182878D01*
X202310Y182984D01*
X202347Y183091D01*
X202380Y183199D01*
X202410Y183309D01*
X202435Y183419D01*
X202457Y183530D01*
X202474Y183642D01*
X202488Y183755D01*
X202498Y183868D01*
X202504Y183981D01*
X202506Y184094D01*
X202504Y184207D01*
X202498Y184320D01*
X202488Y184433D01*
X202474Y184546D01*
X202457Y184658D01*
X202435Y184769D01*
X202410Y184879D01*
X202380Y184989D01*
X202347Y185097D01*
X202310Y185204D01*
X202270Y185310D01*
X202225Y185414D01*
X202177Y185517D01*
X202126Y185618D01*
X202071Y185717D01*
X202013Y185814D01*
X201951Y185909D01*
X201886Y186002D01*
X201818Y186092D01*
X201747Y186180D01*
X201672Y186266D01*
X201595Y186349D01*
X201515Y186429D01*
X201432Y186506D01*
X201346Y186581D01*
X201258Y186652D01*
X201168Y186720D01*
X201075Y186785D01*
X200980Y186847D01*
X200883Y186905D01*
X200784Y186960D01*
X200683Y187011D01*
X200580Y187059D01*
X200476Y187104D01*
X200370Y187144D01*
X200263Y187181D01*
X200155Y187214D01*
X200045Y187244D01*
X199935Y187269D01*
X199824Y187291D01*
X199712Y187308D01*
X199599Y187322D01*
X199486Y187332D01*
X199373Y187338D01*
X199260Y187340D01*
X199909Y192532D02*
X196014Y192532D01*
X199909Y192532D02*
X200010Y192530D01*
X200110Y192524D01*
X200210Y192514D01*
X200310Y192501D01*
X200409Y192483D01*
X200508Y192462D01*
X200605Y192437D01*
X200702Y192408D01*
X200797Y192375D01*
X200891Y192339D01*
X200983Y192299D01*
X201074Y192256D01*
X201163Y192209D01*
X201250Y192159D01*
X201336Y192105D01*
X201419Y192048D01*
X201499Y191988D01*
X201578Y191925D01*
X201654Y191858D01*
X201727Y191789D01*
X201797Y191717D01*
X201865Y191643D01*
X201930Y191566D01*
X201991Y191486D01*
X202050Y191404D01*
X202105Y191320D01*
X202157Y191234D01*
X202206Y191146D01*
X202251Y191056D01*
X202293Y190964D01*
X202331Y190871D01*
X202365Y190776D01*
X202396Y190681D01*
X202423Y190584D01*
X202446Y190486D01*
X202466Y190387D01*
X202481Y190287D01*
X202493Y190187D01*
X202501Y190087D01*
X202505Y189986D01*
X202505Y189886D01*
X202501Y189785D01*
X202493Y189685D01*
X202481Y189585D01*
X202466Y189485D01*
X202446Y189386D01*
X202423Y189288D01*
X202396Y189191D01*
X202365Y189096D01*
X202331Y189001D01*
X202293Y188908D01*
X202251Y188816D01*
X202206Y188726D01*
X202157Y188638D01*
X202105Y188552D01*
X202050Y188468D01*
X201991Y188386D01*
X201930Y188306D01*
X201865Y188229D01*
X201797Y188155D01*
X201727Y188083D01*
X201654Y188014D01*
X201578Y187947D01*
X201499Y187884D01*
X201419Y187824D01*
X201336Y187767D01*
X201250Y187713D01*
X201163Y187663D01*
X201074Y187616D01*
X200983Y187573D01*
X200891Y187533D01*
X200797Y187497D01*
X200702Y187464D01*
X200605Y187435D01*
X200508Y187410D01*
X200409Y187389D01*
X200310Y187371D01*
X200210Y187358D01*
X200110Y187348D01*
X200010Y187342D01*
X199909Y187340D01*
X199909Y187339D02*
X197313Y187339D01*
D12*
X197400Y214545D02*
X197400Y242020D01*
X205825Y242020D01*
X234400Y242020D02*
X234400Y214545D01*
X234400Y242020D02*
X225975Y242020D01*
X221700Y205020D02*
X210100Y205020D01*
D10*
X205800Y252603D02*
X205800Y264287D01*
X209045Y264287D01*
X209158Y264285D01*
X209271Y264279D01*
X209384Y264269D01*
X209497Y264255D01*
X209609Y264238D01*
X209720Y264216D01*
X209830Y264191D01*
X209940Y264161D01*
X210048Y264128D01*
X210155Y264091D01*
X210261Y264051D01*
X210365Y264006D01*
X210468Y263958D01*
X210569Y263907D01*
X210668Y263852D01*
X210765Y263794D01*
X210860Y263732D01*
X210953Y263667D01*
X211043Y263599D01*
X211131Y263528D01*
X211217Y263453D01*
X211300Y263376D01*
X211380Y263296D01*
X211457Y263213D01*
X211532Y263127D01*
X211603Y263039D01*
X211671Y262949D01*
X211736Y262856D01*
X211798Y262761D01*
X211856Y262664D01*
X211911Y262565D01*
X211962Y262464D01*
X212010Y262361D01*
X212055Y262257D01*
X212095Y262151D01*
X212132Y262044D01*
X212165Y261936D01*
X212195Y261826D01*
X212220Y261716D01*
X212242Y261605D01*
X212259Y261493D01*
X212273Y261380D01*
X212283Y261267D01*
X212289Y261154D01*
X212291Y261041D01*
X212289Y260928D01*
X212283Y260815D01*
X212273Y260702D01*
X212259Y260589D01*
X212242Y260477D01*
X212220Y260366D01*
X212195Y260256D01*
X212165Y260146D01*
X212132Y260038D01*
X212095Y259931D01*
X212055Y259825D01*
X212010Y259721D01*
X211962Y259618D01*
X211911Y259517D01*
X211856Y259418D01*
X211798Y259321D01*
X211736Y259226D01*
X211671Y259133D01*
X211603Y259043D01*
X211532Y258955D01*
X211457Y258869D01*
X211380Y258786D01*
X211300Y258706D01*
X211217Y258629D01*
X211131Y258554D01*
X211043Y258483D01*
X210953Y258415D01*
X210860Y258350D01*
X210765Y258288D01*
X210668Y258230D01*
X210569Y258175D01*
X210468Y258124D01*
X210365Y258076D01*
X210261Y258031D01*
X210155Y257991D01*
X210048Y257954D01*
X209940Y257921D01*
X209830Y257891D01*
X209720Y257866D01*
X209609Y257844D01*
X209497Y257827D01*
X209384Y257813D01*
X209271Y257803D01*
X209158Y257797D01*
X209045Y257795D01*
X209045Y257796D02*
X205800Y257796D01*
X209694Y257796D02*
X212291Y252603D01*
X217156Y255199D02*
X219752Y264287D01*
X217156Y255199D02*
X223647Y255199D01*
X221700Y257796D02*
X221700Y252603D01*
X215138Y192532D02*
X215138Y180848D01*
X215138Y192532D02*
X218384Y192532D01*
X218497Y192530D01*
X218610Y192524D01*
X218723Y192514D01*
X218836Y192500D01*
X218948Y192483D01*
X219059Y192461D01*
X219169Y192436D01*
X219279Y192406D01*
X219387Y192373D01*
X219494Y192336D01*
X219600Y192296D01*
X219704Y192251D01*
X219807Y192203D01*
X219908Y192152D01*
X220007Y192097D01*
X220104Y192039D01*
X220199Y191977D01*
X220292Y191912D01*
X220382Y191844D01*
X220470Y191773D01*
X220556Y191698D01*
X220639Y191621D01*
X220719Y191541D01*
X220796Y191458D01*
X220871Y191372D01*
X220942Y191284D01*
X221010Y191194D01*
X221075Y191101D01*
X221137Y191006D01*
X221195Y190909D01*
X221250Y190810D01*
X221301Y190709D01*
X221349Y190606D01*
X221394Y190502D01*
X221434Y190396D01*
X221471Y190289D01*
X221504Y190181D01*
X221534Y190071D01*
X221559Y189961D01*
X221581Y189850D01*
X221598Y189738D01*
X221612Y189625D01*
X221622Y189512D01*
X221628Y189399D01*
X221630Y189286D01*
X221628Y189173D01*
X221622Y189060D01*
X221612Y188947D01*
X221598Y188834D01*
X221581Y188722D01*
X221559Y188611D01*
X221534Y188501D01*
X221504Y188391D01*
X221471Y188283D01*
X221434Y188176D01*
X221394Y188070D01*
X221349Y187966D01*
X221301Y187863D01*
X221250Y187762D01*
X221195Y187663D01*
X221137Y187566D01*
X221075Y187471D01*
X221010Y187378D01*
X220942Y187288D01*
X220871Y187200D01*
X220796Y187114D01*
X220719Y187031D01*
X220639Y186951D01*
X220556Y186874D01*
X220470Y186799D01*
X220382Y186728D01*
X220292Y186660D01*
X220199Y186595D01*
X220104Y186533D01*
X220007Y186475D01*
X219908Y186420D01*
X219807Y186369D01*
X219704Y186321D01*
X219600Y186276D01*
X219494Y186236D01*
X219387Y186199D01*
X219279Y186166D01*
X219169Y186136D01*
X219059Y186111D01*
X218948Y186089D01*
X218836Y186072D01*
X218723Y186058D01*
X218610Y186048D01*
X218497Y186042D01*
X218384Y186040D01*
X218384Y186041D02*
X215138Y186041D01*
X219033Y186041D02*
X221629Y180848D01*
X226494Y180848D02*
X230389Y180848D01*
X230488Y180850D01*
X230588Y180856D01*
X230687Y180865D01*
X230785Y180878D01*
X230883Y180895D01*
X230981Y180916D01*
X231077Y180941D01*
X231172Y180969D01*
X231266Y181001D01*
X231359Y181036D01*
X231451Y181075D01*
X231541Y181118D01*
X231629Y181163D01*
X231716Y181213D01*
X231800Y181265D01*
X231883Y181321D01*
X231963Y181379D01*
X232041Y181441D01*
X232116Y181506D01*
X232189Y181574D01*
X232259Y181644D01*
X232327Y181717D01*
X232392Y181792D01*
X232454Y181870D01*
X232512Y181950D01*
X232568Y182033D01*
X232620Y182117D01*
X232670Y182204D01*
X232715Y182292D01*
X232758Y182382D01*
X232797Y182474D01*
X232832Y182567D01*
X232864Y182661D01*
X232892Y182756D01*
X232917Y182852D01*
X232938Y182950D01*
X232955Y183048D01*
X232968Y183146D01*
X232977Y183245D01*
X232983Y183345D01*
X232985Y183444D01*
X232985Y184743D01*
X232983Y184842D01*
X232977Y184942D01*
X232968Y185041D01*
X232955Y185139D01*
X232938Y185237D01*
X232917Y185335D01*
X232892Y185431D01*
X232864Y185526D01*
X232832Y185620D01*
X232797Y185713D01*
X232758Y185805D01*
X232715Y185895D01*
X232670Y185983D01*
X232620Y186070D01*
X232568Y186154D01*
X232512Y186237D01*
X232454Y186317D01*
X232392Y186395D01*
X232327Y186470D01*
X232259Y186543D01*
X232189Y186613D01*
X232116Y186681D01*
X232041Y186746D01*
X231963Y186808D01*
X231883Y186866D01*
X231800Y186922D01*
X231716Y186974D01*
X231629Y187024D01*
X231541Y187069D01*
X231451Y187112D01*
X231359Y187151D01*
X231266Y187186D01*
X231172Y187218D01*
X231077Y187246D01*
X230981Y187271D01*
X230883Y187292D01*
X230785Y187309D01*
X230687Y187322D01*
X230588Y187331D01*
X230488Y187337D01*
X230389Y187339D01*
X226494Y187339D01*
X226494Y192532D01*
X232985Y192532D01*
X240538Y201168D02*
X240538Y212852D01*
X243784Y212852D01*
X243897Y212850D01*
X244010Y212844D01*
X244123Y212834D01*
X244236Y212820D01*
X244348Y212803D01*
X244459Y212781D01*
X244569Y212756D01*
X244679Y212726D01*
X244787Y212693D01*
X244894Y212656D01*
X245000Y212616D01*
X245104Y212571D01*
X245207Y212523D01*
X245308Y212472D01*
X245407Y212417D01*
X245504Y212359D01*
X245599Y212297D01*
X245692Y212232D01*
X245782Y212164D01*
X245870Y212093D01*
X245956Y212018D01*
X246039Y211941D01*
X246119Y211861D01*
X246196Y211778D01*
X246271Y211692D01*
X246342Y211604D01*
X246410Y211514D01*
X246475Y211421D01*
X246537Y211326D01*
X246595Y211229D01*
X246650Y211130D01*
X246701Y211029D01*
X246749Y210926D01*
X246794Y210822D01*
X246834Y210716D01*
X246871Y210609D01*
X246904Y210501D01*
X246934Y210391D01*
X246959Y210281D01*
X246981Y210170D01*
X246998Y210058D01*
X247012Y209945D01*
X247022Y209832D01*
X247028Y209719D01*
X247030Y209606D01*
X247028Y209493D01*
X247022Y209380D01*
X247012Y209267D01*
X246998Y209154D01*
X246981Y209042D01*
X246959Y208931D01*
X246934Y208821D01*
X246904Y208711D01*
X246871Y208603D01*
X246834Y208496D01*
X246794Y208390D01*
X246749Y208286D01*
X246701Y208183D01*
X246650Y208082D01*
X246595Y207983D01*
X246537Y207886D01*
X246475Y207791D01*
X246410Y207698D01*
X246342Y207608D01*
X246271Y207520D01*
X246196Y207434D01*
X246119Y207351D01*
X246039Y207271D01*
X245956Y207194D01*
X245870Y207119D01*
X245782Y207048D01*
X245692Y206980D01*
X245599Y206915D01*
X245504Y206853D01*
X245407Y206795D01*
X245308Y206740D01*
X245207Y206689D01*
X245104Y206641D01*
X245000Y206596D01*
X244894Y206556D01*
X244787Y206519D01*
X244679Y206486D01*
X244569Y206456D01*
X244459Y206431D01*
X244348Y206409D01*
X244236Y206392D01*
X244123Y206378D01*
X244010Y206368D01*
X243897Y206362D01*
X243784Y206360D01*
X243784Y206361D02*
X240538Y206361D01*
X244433Y206361D02*
X247029Y201168D01*
X251894Y207659D02*
X255789Y207659D01*
X255888Y207657D01*
X255988Y207651D01*
X256087Y207642D01*
X256185Y207629D01*
X256283Y207612D01*
X256381Y207591D01*
X256477Y207566D01*
X256572Y207538D01*
X256666Y207506D01*
X256759Y207471D01*
X256851Y207432D01*
X256941Y207389D01*
X257029Y207344D01*
X257116Y207294D01*
X257200Y207242D01*
X257283Y207186D01*
X257363Y207128D01*
X257441Y207066D01*
X257516Y207001D01*
X257589Y206933D01*
X257659Y206863D01*
X257727Y206790D01*
X257792Y206715D01*
X257854Y206637D01*
X257912Y206557D01*
X257968Y206474D01*
X258020Y206390D01*
X258070Y206303D01*
X258115Y206215D01*
X258158Y206125D01*
X258197Y206033D01*
X258232Y205940D01*
X258264Y205846D01*
X258292Y205751D01*
X258317Y205655D01*
X258338Y205557D01*
X258355Y205459D01*
X258368Y205361D01*
X258377Y205262D01*
X258383Y205162D01*
X258385Y205063D01*
X258385Y204414D01*
X258386Y204414D02*
X258384Y204301D01*
X258378Y204188D01*
X258368Y204075D01*
X258354Y203962D01*
X258337Y203850D01*
X258315Y203739D01*
X258290Y203629D01*
X258260Y203519D01*
X258227Y203411D01*
X258190Y203304D01*
X258150Y203198D01*
X258105Y203094D01*
X258057Y202991D01*
X258006Y202890D01*
X257951Y202791D01*
X257893Y202694D01*
X257831Y202599D01*
X257766Y202506D01*
X257698Y202416D01*
X257627Y202328D01*
X257552Y202242D01*
X257475Y202159D01*
X257395Y202079D01*
X257312Y202002D01*
X257226Y201927D01*
X257138Y201856D01*
X257048Y201788D01*
X256955Y201723D01*
X256860Y201661D01*
X256763Y201603D01*
X256664Y201548D01*
X256563Y201497D01*
X256460Y201449D01*
X256356Y201404D01*
X256250Y201364D01*
X256143Y201327D01*
X256035Y201294D01*
X255925Y201264D01*
X255815Y201239D01*
X255704Y201217D01*
X255592Y201200D01*
X255479Y201186D01*
X255366Y201176D01*
X255253Y201170D01*
X255140Y201168D01*
X255027Y201170D01*
X254914Y201176D01*
X254801Y201186D01*
X254688Y201200D01*
X254576Y201217D01*
X254465Y201239D01*
X254355Y201264D01*
X254245Y201294D01*
X254137Y201327D01*
X254030Y201364D01*
X253924Y201404D01*
X253820Y201449D01*
X253717Y201497D01*
X253616Y201548D01*
X253517Y201603D01*
X253420Y201661D01*
X253325Y201723D01*
X253232Y201788D01*
X253142Y201856D01*
X253054Y201927D01*
X252968Y202002D01*
X252885Y202079D01*
X252805Y202159D01*
X252728Y202242D01*
X252653Y202328D01*
X252582Y202416D01*
X252514Y202506D01*
X252449Y202599D01*
X252387Y202694D01*
X252329Y202791D01*
X252274Y202890D01*
X252223Y202991D01*
X252175Y203094D01*
X252130Y203198D01*
X252090Y203304D01*
X252053Y203411D01*
X252020Y203519D01*
X251990Y203629D01*
X251965Y203739D01*
X251943Y203850D01*
X251926Y203962D01*
X251912Y204075D01*
X251902Y204188D01*
X251896Y204301D01*
X251894Y204414D01*
X251894Y207659D01*
X251896Y207802D01*
X251902Y207945D01*
X251912Y208088D01*
X251926Y208230D01*
X251943Y208372D01*
X251965Y208514D01*
X251990Y208655D01*
X252020Y208795D01*
X252053Y208934D01*
X252090Y209072D01*
X252131Y209209D01*
X252175Y209345D01*
X252224Y209480D01*
X252276Y209613D01*
X252331Y209745D01*
X252391Y209875D01*
X252454Y210004D01*
X252520Y210131D01*
X252590Y210255D01*
X252663Y210378D01*
X252740Y210499D01*
X252820Y210618D01*
X252903Y210734D01*
X252989Y210849D01*
X253078Y210960D01*
X253171Y211070D01*
X253266Y211176D01*
X253365Y211280D01*
X253466Y211381D01*
X253570Y211480D01*
X253676Y211575D01*
X253786Y211668D01*
X253897Y211757D01*
X254012Y211843D01*
X254128Y211926D01*
X254247Y212006D01*
X254368Y212083D01*
X254490Y212156D01*
X254615Y212226D01*
X254742Y212292D01*
X254871Y212355D01*
X255001Y212415D01*
X255133Y212470D01*
X255266Y212522D01*
X255401Y212571D01*
X255537Y212615D01*
X255674Y212656D01*
X255812Y212693D01*
X255951Y212726D01*
X256091Y212756D01*
X256232Y212781D01*
X256374Y212803D01*
X256516Y212820D01*
X256658Y212834D01*
X256801Y212844D01*
X256944Y212850D01*
X257087Y212852D01*
X159258Y121412D02*
X159258Y109728D01*
X159258Y121412D02*
X162504Y121412D01*
X162617Y121410D01*
X162730Y121404D01*
X162843Y121394D01*
X162956Y121380D01*
X163068Y121363D01*
X163179Y121341D01*
X163289Y121316D01*
X163399Y121286D01*
X163507Y121253D01*
X163614Y121216D01*
X163720Y121176D01*
X163824Y121131D01*
X163927Y121083D01*
X164028Y121032D01*
X164127Y120977D01*
X164224Y120919D01*
X164319Y120857D01*
X164412Y120792D01*
X164502Y120724D01*
X164590Y120653D01*
X164676Y120578D01*
X164759Y120501D01*
X164839Y120421D01*
X164916Y120338D01*
X164991Y120252D01*
X165062Y120164D01*
X165130Y120074D01*
X165195Y119981D01*
X165257Y119886D01*
X165315Y119789D01*
X165370Y119690D01*
X165421Y119589D01*
X165469Y119486D01*
X165514Y119382D01*
X165554Y119276D01*
X165591Y119169D01*
X165624Y119061D01*
X165654Y118951D01*
X165679Y118841D01*
X165701Y118730D01*
X165718Y118618D01*
X165732Y118505D01*
X165742Y118392D01*
X165748Y118279D01*
X165750Y118166D01*
X165748Y118053D01*
X165742Y117940D01*
X165732Y117827D01*
X165718Y117714D01*
X165701Y117602D01*
X165679Y117491D01*
X165654Y117381D01*
X165624Y117271D01*
X165591Y117163D01*
X165554Y117056D01*
X165514Y116950D01*
X165469Y116846D01*
X165421Y116743D01*
X165370Y116642D01*
X165315Y116543D01*
X165257Y116446D01*
X165195Y116351D01*
X165130Y116258D01*
X165062Y116168D01*
X164991Y116080D01*
X164916Y115994D01*
X164839Y115911D01*
X164759Y115831D01*
X164676Y115754D01*
X164590Y115679D01*
X164502Y115608D01*
X164412Y115540D01*
X164319Y115475D01*
X164224Y115413D01*
X164127Y115355D01*
X164028Y115300D01*
X163927Y115249D01*
X163824Y115201D01*
X163720Y115156D01*
X163614Y115116D01*
X163507Y115079D01*
X163399Y115046D01*
X163289Y115016D01*
X163179Y114991D01*
X163068Y114969D01*
X162956Y114952D01*
X162843Y114938D01*
X162730Y114928D01*
X162617Y114922D01*
X162504Y114920D01*
X162504Y114921D02*
X159258Y114921D01*
X163153Y114921D02*
X165749Y109728D01*
X170614Y120114D02*
X170614Y121412D01*
X177105Y121412D01*
X173860Y109728D01*
X103378Y109728D02*
X103378Y121412D01*
X106624Y121412D01*
X106737Y121410D01*
X106850Y121404D01*
X106963Y121394D01*
X107076Y121380D01*
X107188Y121363D01*
X107299Y121341D01*
X107409Y121316D01*
X107519Y121286D01*
X107627Y121253D01*
X107734Y121216D01*
X107840Y121176D01*
X107944Y121131D01*
X108047Y121083D01*
X108148Y121032D01*
X108247Y120977D01*
X108344Y120919D01*
X108439Y120857D01*
X108532Y120792D01*
X108622Y120724D01*
X108710Y120653D01*
X108796Y120578D01*
X108879Y120501D01*
X108959Y120421D01*
X109036Y120338D01*
X109111Y120252D01*
X109182Y120164D01*
X109250Y120074D01*
X109315Y119981D01*
X109377Y119886D01*
X109435Y119789D01*
X109490Y119690D01*
X109541Y119589D01*
X109589Y119486D01*
X109634Y119382D01*
X109674Y119276D01*
X109711Y119169D01*
X109744Y119061D01*
X109774Y118951D01*
X109799Y118841D01*
X109821Y118730D01*
X109838Y118618D01*
X109852Y118505D01*
X109862Y118392D01*
X109868Y118279D01*
X109870Y118166D01*
X109868Y118053D01*
X109862Y117940D01*
X109852Y117827D01*
X109838Y117714D01*
X109821Y117602D01*
X109799Y117491D01*
X109774Y117381D01*
X109744Y117271D01*
X109711Y117163D01*
X109674Y117056D01*
X109634Y116950D01*
X109589Y116846D01*
X109541Y116743D01*
X109490Y116642D01*
X109435Y116543D01*
X109377Y116446D01*
X109315Y116351D01*
X109250Y116258D01*
X109182Y116168D01*
X109111Y116080D01*
X109036Y115994D01*
X108959Y115911D01*
X108879Y115831D01*
X108796Y115754D01*
X108710Y115679D01*
X108622Y115608D01*
X108532Y115540D01*
X108439Y115475D01*
X108344Y115413D01*
X108247Y115355D01*
X108148Y115300D01*
X108047Y115249D01*
X107944Y115201D01*
X107840Y115156D01*
X107734Y115116D01*
X107627Y115079D01*
X107519Y115046D01*
X107409Y115016D01*
X107299Y114991D01*
X107188Y114969D01*
X107076Y114952D01*
X106963Y114938D01*
X106850Y114928D01*
X106737Y114922D01*
X106624Y114920D01*
X106624Y114921D02*
X103378Y114921D01*
X107273Y114921D02*
X109869Y109728D01*
X114734Y112974D02*
X114736Y113087D01*
X114742Y113200D01*
X114752Y113313D01*
X114766Y113426D01*
X114783Y113538D01*
X114805Y113649D01*
X114830Y113759D01*
X114860Y113869D01*
X114893Y113977D01*
X114930Y114084D01*
X114970Y114190D01*
X115015Y114294D01*
X115063Y114397D01*
X115114Y114498D01*
X115169Y114597D01*
X115227Y114694D01*
X115289Y114789D01*
X115354Y114882D01*
X115422Y114972D01*
X115493Y115060D01*
X115568Y115146D01*
X115645Y115229D01*
X115725Y115309D01*
X115808Y115386D01*
X115894Y115461D01*
X115982Y115532D01*
X116072Y115600D01*
X116165Y115665D01*
X116260Y115727D01*
X116357Y115785D01*
X116456Y115840D01*
X116557Y115891D01*
X116660Y115939D01*
X116764Y115984D01*
X116870Y116024D01*
X116977Y116061D01*
X117085Y116094D01*
X117195Y116124D01*
X117305Y116149D01*
X117416Y116171D01*
X117528Y116188D01*
X117641Y116202D01*
X117754Y116212D01*
X117867Y116218D01*
X117980Y116220D01*
X118093Y116218D01*
X118206Y116212D01*
X118319Y116202D01*
X118432Y116188D01*
X118544Y116171D01*
X118655Y116149D01*
X118765Y116124D01*
X118875Y116094D01*
X118983Y116061D01*
X119090Y116024D01*
X119196Y115984D01*
X119300Y115939D01*
X119403Y115891D01*
X119504Y115840D01*
X119603Y115785D01*
X119700Y115727D01*
X119795Y115665D01*
X119888Y115600D01*
X119978Y115532D01*
X120066Y115461D01*
X120152Y115386D01*
X120235Y115309D01*
X120315Y115229D01*
X120392Y115146D01*
X120467Y115060D01*
X120538Y114972D01*
X120606Y114882D01*
X120671Y114789D01*
X120733Y114694D01*
X120791Y114597D01*
X120846Y114498D01*
X120897Y114397D01*
X120945Y114294D01*
X120990Y114190D01*
X121030Y114084D01*
X121067Y113977D01*
X121100Y113869D01*
X121130Y113759D01*
X121155Y113649D01*
X121177Y113538D01*
X121194Y113426D01*
X121208Y113313D01*
X121218Y113200D01*
X121224Y113087D01*
X121226Y112974D01*
X121224Y112861D01*
X121218Y112748D01*
X121208Y112635D01*
X121194Y112522D01*
X121177Y112410D01*
X121155Y112299D01*
X121130Y112189D01*
X121100Y112079D01*
X121067Y111971D01*
X121030Y111864D01*
X120990Y111758D01*
X120945Y111654D01*
X120897Y111551D01*
X120846Y111450D01*
X120791Y111351D01*
X120733Y111254D01*
X120671Y111159D01*
X120606Y111066D01*
X120538Y110976D01*
X120467Y110888D01*
X120392Y110802D01*
X120315Y110719D01*
X120235Y110639D01*
X120152Y110562D01*
X120066Y110487D01*
X119978Y110416D01*
X119888Y110348D01*
X119795Y110283D01*
X119700Y110221D01*
X119603Y110163D01*
X119504Y110108D01*
X119403Y110057D01*
X119300Y110009D01*
X119196Y109964D01*
X119090Y109924D01*
X118983Y109887D01*
X118875Y109854D01*
X118765Y109824D01*
X118655Y109799D01*
X118544Y109777D01*
X118432Y109760D01*
X118319Y109746D01*
X118206Y109736D01*
X118093Y109730D01*
X117980Y109728D01*
X117867Y109730D01*
X117754Y109736D01*
X117641Y109746D01*
X117528Y109760D01*
X117416Y109777D01*
X117305Y109799D01*
X117195Y109824D01*
X117085Y109854D01*
X116977Y109887D01*
X116870Y109924D01*
X116764Y109964D01*
X116660Y110009D01*
X116557Y110057D01*
X116456Y110108D01*
X116357Y110163D01*
X116260Y110221D01*
X116165Y110283D01*
X116072Y110348D01*
X115982Y110416D01*
X115894Y110487D01*
X115808Y110562D01*
X115725Y110639D01*
X115645Y110719D01*
X115568Y110802D01*
X115493Y110888D01*
X115422Y110976D01*
X115354Y111066D01*
X115289Y111159D01*
X115227Y111254D01*
X115169Y111351D01*
X115114Y111450D01*
X115063Y111551D01*
X115015Y111654D01*
X114970Y111758D01*
X114930Y111864D01*
X114893Y111971D01*
X114860Y112079D01*
X114830Y112189D01*
X114805Y112299D01*
X114783Y112410D01*
X114766Y112522D01*
X114752Y112635D01*
X114742Y112748D01*
X114736Y112861D01*
X114734Y112974D01*
X115384Y118816D02*
X115386Y118917D01*
X115392Y119017D01*
X115402Y119117D01*
X115415Y119217D01*
X115433Y119316D01*
X115454Y119415D01*
X115479Y119512D01*
X115508Y119609D01*
X115541Y119704D01*
X115577Y119798D01*
X115617Y119890D01*
X115660Y119981D01*
X115707Y120070D01*
X115757Y120157D01*
X115811Y120243D01*
X115868Y120326D01*
X115928Y120406D01*
X115991Y120485D01*
X116058Y120561D01*
X116127Y120634D01*
X116199Y120704D01*
X116273Y120772D01*
X116350Y120837D01*
X116430Y120898D01*
X116512Y120957D01*
X116596Y121012D01*
X116682Y121064D01*
X116770Y121113D01*
X116860Y121158D01*
X116952Y121200D01*
X117045Y121238D01*
X117140Y121272D01*
X117235Y121303D01*
X117332Y121330D01*
X117430Y121353D01*
X117529Y121373D01*
X117629Y121388D01*
X117729Y121400D01*
X117829Y121408D01*
X117930Y121412D01*
X118030Y121412D01*
X118131Y121408D01*
X118231Y121400D01*
X118331Y121388D01*
X118431Y121373D01*
X118530Y121353D01*
X118628Y121330D01*
X118725Y121303D01*
X118820Y121272D01*
X118915Y121238D01*
X119008Y121200D01*
X119100Y121158D01*
X119190Y121113D01*
X119278Y121064D01*
X119364Y121012D01*
X119448Y120957D01*
X119530Y120898D01*
X119610Y120837D01*
X119687Y120772D01*
X119761Y120704D01*
X119833Y120634D01*
X119902Y120561D01*
X119969Y120485D01*
X120032Y120406D01*
X120092Y120326D01*
X120149Y120243D01*
X120203Y120157D01*
X120253Y120070D01*
X120300Y119981D01*
X120343Y119890D01*
X120383Y119798D01*
X120419Y119704D01*
X120452Y119609D01*
X120481Y119512D01*
X120506Y119415D01*
X120527Y119316D01*
X120545Y119217D01*
X120558Y119117D01*
X120568Y119017D01*
X120574Y118917D01*
X120576Y118816D01*
X120574Y118715D01*
X120568Y118615D01*
X120558Y118515D01*
X120545Y118415D01*
X120527Y118316D01*
X120506Y118217D01*
X120481Y118120D01*
X120452Y118023D01*
X120419Y117928D01*
X120383Y117834D01*
X120343Y117742D01*
X120300Y117651D01*
X120253Y117562D01*
X120203Y117475D01*
X120149Y117389D01*
X120092Y117306D01*
X120032Y117226D01*
X119969Y117147D01*
X119902Y117071D01*
X119833Y116998D01*
X119761Y116928D01*
X119687Y116860D01*
X119610Y116795D01*
X119530Y116734D01*
X119448Y116675D01*
X119364Y116620D01*
X119278Y116568D01*
X119190Y116519D01*
X119100Y116474D01*
X119008Y116432D01*
X118915Y116394D01*
X118820Y116360D01*
X118725Y116329D01*
X118628Y116302D01*
X118530Y116279D01*
X118431Y116259D01*
X118331Y116244D01*
X118231Y116232D01*
X118131Y116224D01*
X118030Y116220D01*
X117930Y116220D01*
X117829Y116224D01*
X117729Y116232D01*
X117629Y116244D01*
X117529Y116259D01*
X117430Y116279D01*
X117332Y116302D01*
X117235Y116329D01*
X117140Y116360D01*
X117045Y116394D01*
X116952Y116432D01*
X116860Y116474D01*
X116770Y116519D01*
X116682Y116568D01*
X116596Y116620D01*
X116512Y116675D01*
X116430Y116734D01*
X116350Y116795D01*
X116273Y116860D01*
X116199Y116928D01*
X116127Y116998D01*
X116058Y117071D01*
X115991Y117147D01*
X115928Y117226D01*
X115868Y117306D01*
X115811Y117389D01*
X115757Y117475D01*
X115707Y117562D01*
X115660Y117651D01*
X115617Y117742D01*
X115577Y117834D01*
X115541Y117928D01*
X115508Y118023D01*
X115479Y118120D01*
X115454Y118217D01*
X115433Y118316D01*
X115415Y118415D01*
X115402Y118515D01*
X115392Y118615D01*
X115386Y118715D01*
X115384Y118816D01*
X390398Y173228D02*
X390398Y184912D01*
X393644Y184912D01*
X393757Y184910D01*
X393870Y184904D01*
X393983Y184894D01*
X394096Y184880D01*
X394208Y184863D01*
X394319Y184841D01*
X394429Y184816D01*
X394539Y184786D01*
X394647Y184753D01*
X394754Y184716D01*
X394860Y184676D01*
X394964Y184631D01*
X395067Y184583D01*
X395168Y184532D01*
X395267Y184477D01*
X395364Y184419D01*
X395459Y184357D01*
X395552Y184292D01*
X395642Y184224D01*
X395730Y184153D01*
X395816Y184078D01*
X395899Y184001D01*
X395979Y183921D01*
X396056Y183838D01*
X396131Y183752D01*
X396202Y183664D01*
X396270Y183574D01*
X396335Y183481D01*
X396397Y183386D01*
X396455Y183289D01*
X396510Y183190D01*
X396561Y183089D01*
X396609Y182986D01*
X396654Y182882D01*
X396694Y182776D01*
X396731Y182669D01*
X396764Y182561D01*
X396794Y182451D01*
X396819Y182341D01*
X396841Y182230D01*
X396858Y182118D01*
X396872Y182005D01*
X396882Y181892D01*
X396888Y181779D01*
X396890Y181666D01*
X396888Y181553D01*
X396882Y181440D01*
X396872Y181327D01*
X396858Y181214D01*
X396841Y181102D01*
X396819Y180991D01*
X396794Y180881D01*
X396764Y180771D01*
X396731Y180663D01*
X396694Y180556D01*
X396654Y180450D01*
X396609Y180346D01*
X396561Y180243D01*
X396510Y180142D01*
X396455Y180043D01*
X396397Y179946D01*
X396335Y179851D01*
X396270Y179758D01*
X396202Y179668D01*
X396131Y179580D01*
X396056Y179494D01*
X395979Y179411D01*
X395899Y179331D01*
X395816Y179254D01*
X395730Y179179D01*
X395642Y179108D01*
X395552Y179040D01*
X395459Y178975D01*
X395364Y178913D01*
X395267Y178855D01*
X395168Y178800D01*
X395067Y178749D01*
X394964Y178701D01*
X394860Y178656D01*
X394754Y178616D01*
X394647Y178579D01*
X394539Y178546D01*
X394429Y178516D01*
X394319Y178491D01*
X394208Y178469D01*
X394096Y178452D01*
X393983Y178438D01*
X393870Y178428D01*
X393757Y178422D01*
X393644Y178420D01*
X393644Y178421D02*
X390398Y178421D01*
X394293Y178421D02*
X396889Y173228D01*
X404351Y178421D02*
X408245Y178421D01*
X404351Y178421D02*
X404252Y178423D01*
X404152Y178429D01*
X404053Y178438D01*
X403955Y178451D01*
X403857Y178468D01*
X403759Y178489D01*
X403663Y178514D01*
X403568Y178542D01*
X403474Y178574D01*
X403381Y178609D01*
X403289Y178648D01*
X403199Y178691D01*
X403111Y178736D01*
X403024Y178786D01*
X402940Y178838D01*
X402857Y178894D01*
X402777Y178952D01*
X402699Y179014D01*
X402624Y179079D01*
X402551Y179147D01*
X402481Y179217D01*
X402413Y179290D01*
X402348Y179365D01*
X402286Y179443D01*
X402228Y179523D01*
X402172Y179606D01*
X402120Y179690D01*
X402070Y179777D01*
X402025Y179865D01*
X401982Y179955D01*
X401943Y180047D01*
X401908Y180140D01*
X401876Y180234D01*
X401848Y180329D01*
X401823Y180425D01*
X401802Y180523D01*
X401785Y180621D01*
X401772Y180719D01*
X401763Y180818D01*
X401757Y180918D01*
X401755Y181017D01*
X401754Y181017D02*
X401754Y181666D01*
X401756Y181779D01*
X401762Y181892D01*
X401772Y182005D01*
X401786Y182118D01*
X401803Y182230D01*
X401825Y182341D01*
X401850Y182451D01*
X401880Y182561D01*
X401913Y182669D01*
X401950Y182776D01*
X401990Y182882D01*
X402035Y182986D01*
X402083Y183089D01*
X402134Y183190D01*
X402189Y183289D01*
X402247Y183386D01*
X402309Y183481D01*
X402374Y183574D01*
X402442Y183664D01*
X402513Y183752D01*
X402588Y183838D01*
X402665Y183921D01*
X402745Y184001D01*
X402828Y184078D01*
X402914Y184153D01*
X403002Y184224D01*
X403092Y184292D01*
X403185Y184357D01*
X403280Y184419D01*
X403377Y184477D01*
X403476Y184532D01*
X403577Y184583D01*
X403680Y184631D01*
X403784Y184676D01*
X403890Y184716D01*
X403997Y184753D01*
X404105Y184786D01*
X404215Y184816D01*
X404325Y184841D01*
X404436Y184863D01*
X404548Y184880D01*
X404661Y184894D01*
X404774Y184904D01*
X404887Y184910D01*
X405000Y184912D01*
X405113Y184910D01*
X405226Y184904D01*
X405339Y184894D01*
X405452Y184880D01*
X405564Y184863D01*
X405675Y184841D01*
X405785Y184816D01*
X405895Y184786D01*
X406003Y184753D01*
X406110Y184716D01*
X406216Y184676D01*
X406320Y184631D01*
X406423Y184583D01*
X406524Y184532D01*
X406623Y184477D01*
X406720Y184419D01*
X406815Y184357D01*
X406908Y184292D01*
X406998Y184224D01*
X407086Y184153D01*
X407172Y184078D01*
X407255Y184001D01*
X407335Y183921D01*
X407412Y183838D01*
X407487Y183752D01*
X407558Y183664D01*
X407626Y183574D01*
X407691Y183481D01*
X407753Y183386D01*
X407811Y183289D01*
X407866Y183190D01*
X407917Y183089D01*
X407965Y182986D01*
X408010Y182882D01*
X408050Y182776D01*
X408087Y182669D01*
X408120Y182561D01*
X408150Y182451D01*
X408175Y182341D01*
X408197Y182230D01*
X408214Y182118D01*
X408228Y182005D01*
X408238Y181892D01*
X408244Y181779D01*
X408246Y181666D01*
X408245Y181666D02*
X408245Y178421D01*
X408246Y178421D02*
X408244Y178278D01*
X408238Y178135D01*
X408228Y177992D01*
X408214Y177850D01*
X408197Y177708D01*
X408175Y177566D01*
X408150Y177425D01*
X408120Y177285D01*
X408087Y177146D01*
X408050Y177008D01*
X408009Y176871D01*
X407965Y176735D01*
X407916Y176600D01*
X407864Y176467D01*
X407809Y176335D01*
X407749Y176205D01*
X407686Y176076D01*
X407620Y175949D01*
X407550Y175824D01*
X407477Y175702D01*
X407400Y175581D01*
X407320Y175462D01*
X407237Y175346D01*
X407151Y175231D01*
X407062Y175120D01*
X406969Y175010D01*
X406874Y174904D01*
X406775Y174800D01*
X406674Y174699D01*
X406570Y174600D01*
X406464Y174505D01*
X406354Y174412D01*
X406243Y174323D01*
X406128Y174237D01*
X406012Y174154D01*
X405893Y174074D01*
X405772Y173997D01*
X405650Y173924D01*
X405525Y173854D01*
X405398Y173788D01*
X405269Y173725D01*
X405139Y173665D01*
X405007Y173610D01*
X404874Y173558D01*
X404739Y173509D01*
X404603Y173465D01*
X404466Y173424D01*
X404328Y173387D01*
X404189Y173354D01*
X404049Y173324D01*
X403908Y173299D01*
X403766Y173277D01*
X403624Y173260D01*
X403482Y173246D01*
X403339Y173236D01*
X403196Y173230D01*
X403053Y173228D01*
D13*
X302680Y224340D02*
X302682Y224403D01*
X302688Y224465D01*
X302698Y224527D01*
X302711Y224589D01*
X302729Y224649D01*
X302750Y224708D01*
X302775Y224766D01*
X302804Y224822D01*
X302836Y224876D01*
X302871Y224928D01*
X302909Y224977D01*
X302951Y225025D01*
X302995Y225069D01*
X303043Y225111D01*
X303092Y225149D01*
X303144Y225184D01*
X303198Y225216D01*
X303254Y225245D01*
X303312Y225270D01*
X303371Y225291D01*
X303431Y225309D01*
X303493Y225322D01*
X303555Y225332D01*
X303617Y225338D01*
X303680Y225340D01*
X303743Y225338D01*
X303805Y225332D01*
X303867Y225322D01*
X303929Y225309D01*
X303989Y225291D01*
X304048Y225270D01*
X304106Y225245D01*
X304162Y225216D01*
X304216Y225184D01*
X304268Y225149D01*
X304317Y225111D01*
X304365Y225069D01*
X304409Y225025D01*
X304451Y224977D01*
X304489Y224928D01*
X304524Y224876D01*
X304556Y224822D01*
X304585Y224766D01*
X304610Y224708D01*
X304631Y224649D01*
X304649Y224589D01*
X304662Y224527D01*
X304672Y224465D01*
X304678Y224403D01*
X304680Y224340D01*
X304678Y224277D01*
X304672Y224215D01*
X304662Y224153D01*
X304649Y224091D01*
X304631Y224031D01*
X304610Y223972D01*
X304585Y223914D01*
X304556Y223858D01*
X304524Y223804D01*
X304489Y223752D01*
X304451Y223703D01*
X304409Y223655D01*
X304365Y223611D01*
X304317Y223569D01*
X304268Y223531D01*
X304216Y223496D01*
X304162Y223464D01*
X304106Y223435D01*
X304048Y223410D01*
X303989Y223389D01*
X303929Y223371D01*
X303867Y223358D01*
X303805Y223348D01*
X303743Y223342D01*
X303680Y223340D01*
X303617Y223342D01*
X303555Y223348D01*
X303493Y223358D01*
X303431Y223371D01*
X303371Y223389D01*
X303312Y223410D01*
X303254Y223435D01*
X303198Y223464D01*
X303144Y223496D01*
X303092Y223531D01*
X303043Y223569D01*
X302995Y223611D01*
X302951Y223655D01*
X302909Y223703D01*
X302871Y223752D01*
X302836Y223804D01*
X302804Y223858D01*
X302775Y223914D01*
X302750Y223972D01*
X302729Y224031D01*
X302711Y224091D01*
X302698Y224153D01*
X302688Y224215D01*
X302682Y224277D01*
X302680Y224340D01*
D11*
X327980Y224590D02*
X367980Y224590D01*
X367980Y136090D02*
X327980Y136090D01*
D10*
X336928Y235194D02*
X336928Y243632D01*
X336928Y235194D02*
X336930Y235081D01*
X336936Y234968D01*
X336946Y234855D01*
X336960Y234742D01*
X336977Y234630D01*
X336999Y234519D01*
X337024Y234409D01*
X337054Y234299D01*
X337087Y234191D01*
X337124Y234084D01*
X337164Y233978D01*
X337209Y233874D01*
X337257Y233771D01*
X337308Y233670D01*
X337363Y233571D01*
X337421Y233474D01*
X337483Y233379D01*
X337548Y233286D01*
X337616Y233196D01*
X337687Y233108D01*
X337762Y233022D01*
X337839Y232939D01*
X337919Y232859D01*
X338002Y232782D01*
X338088Y232707D01*
X338176Y232636D01*
X338266Y232568D01*
X338359Y232503D01*
X338454Y232441D01*
X338551Y232383D01*
X338650Y232328D01*
X338751Y232277D01*
X338854Y232229D01*
X338958Y232184D01*
X339064Y232144D01*
X339171Y232107D01*
X339279Y232074D01*
X339389Y232044D01*
X339499Y232019D01*
X339610Y231997D01*
X339722Y231980D01*
X339835Y231966D01*
X339948Y231956D01*
X340061Y231950D01*
X340174Y231948D01*
X340287Y231950D01*
X340400Y231956D01*
X340513Y231966D01*
X340626Y231980D01*
X340738Y231997D01*
X340849Y232019D01*
X340959Y232044D01*
X341069Y232074D01*
X341177Y232107D01*
X341284Y232144D01*
X341390Y232184D01*
X341494Y232229D01*
X341597Y232277D01*
X341698Y232328D01*
X341797Y232383D01*
X341894Y232441D01*
X341989Y232503D01*
X342082Y232568D01*
X342172Y232636D01*
X342260Y232707D01*
X342346Y232782D01*
X342429Y232859D01*
X342509Y232939D01*
X342586Y233022D01*
X342661Y233108D01*
X342732Y233196D01*
X342800Y233286D01*
X342865Y233379D01*
X342927Y233474D01*
X342985Y233571D01*
X343040Y233670D01*
X343091Y233771D01*
X343139Y233874D01*
X343184Y233978D01*
X343224Y234084D01*
X343261Y234191D01*
X343294Y234299D01*
X343324Y234409D01*
X343349Y234519D01*
X343371Y234630D01*
X343388Y234742D01*
X343402Y234855D01*
X343412Y234968D01*
X343418Y235081D01*
X343420Y235194D01*
X343419Y235194D02*
X343419Y243632D01*
X348739Y241036D02*
X351985Y243632D01*
X351985Y231948D01*
X355230Y231948D02*
X348739Y231948D01*
D12*
X393380Y-5340D02*
X419880Y-5340D01*
X393380Y-5340D02*
X393380Y-26840D01*
X400880Y-34340D01*
X400880Y-72340D01*
X392380Y-72340D01*
X392380Y-84090D01*
X354380Y-84090D01*
X354380Y-72340D01*
X345880Y-72340D01*
X345880Y-34340D01*
X353380Y-26840D01*
X353380Y-5340D01*
X326880Y-5340D01*
X334880Y9160D02*
X411880Y9160D01*
X326880Y9160D02*
X326880Y-5340D01*
X419880Y-5340D02*
X419880Y9160D01*
D10*
X304941Y47752D02*
X297152Y36068D01*
X304941Y36068D02*
X297152Y47752D01*
X309231Y45156D02*
X312476Y47752D01*
X312476Y36068D01*
X309231Y36068D02*
X315722Y36068D01*
D14*
X125730Y149860D02*
X95250Y149860D01*
X125730Y149860D02*
X125730Y251460D01*
X125730Y149860D02*
X125730Y144780D01*
X77470Y144780D01*
X80010Y149860D01*
X11430Y149860D02*
X8890Y144780D01*
X11430Y149860D02*
X1270Y149860D01*
X22860Y149860D02*
X25400Y144780D01*
X22860Y149860D02*
X11430Y149860D01*
X8890Y144780D02*
X25400Y144780D01*
X20320Y196088D02*
X1270Y196088D01*
X20320Y155448D02*
X66040Y155448D01*
X1270Y155448D02*
X1270Y196088D01*
X1270Y155448D02*
X1270Y149860D01*
X1270Y205486D02*
X20320Y205486D01*
X1270Y205486D02*
X1270Y196088D01*
X20320Y246126D02*
X66040Y246126D01*
X1270Y246126D02*
X1270Y251460D01*
X1270Y246126D02*
X1270Y205486D01*
X20320Y196088D02*
X20320Y155448D01*
X20320Y196088D02*
X66040Y196088D01*
X20320Y155448D02*
X1270Y155448D01*
X20320Y205486D02*
X20320Y246126D01*
X20320Y205486D02*
X66040Y205486D01*
X20320Y246126D02*
X1270Y246126D01*
X26670Y159258D02*
X58420Y159258D01*
X26670Y159258D02*
X26670Y192278D01*
X58420Y192278D01*
X58420Y209296D02*
X26670Y209296D01*
X26670Y242316D01*
X58420Y242316D01*
X69850Y251460D02*
X1270Y251460D01*
X69850Y251460D02*
X95250Y251460D01*
X80010Y149860D02*
X69850Y149860D01*
X22860Y149860D01*
X95250Y149860D02*
X95250Y251460D01*
X125730Y251460D01*
X95250Y149860D02*
X80010Y149860D01*
X97790Y196088D02*
X123190Y196088D01*
X123190Y155448D01*
X97790Y155448D01*
X97790Y196088D01*
X97790Y205486D02*
X123190Y205486D01*
X97790Y205486D02*
X97790Y246126D01*
X123190Y246126D01*
X123190Y205486D01*
X114045Y160529D02*
X113920Y160419D01*
X113793Y160313D01*
X113663Y160209D01*
X113530Y160109D01*
X113396Y160012D01*
X113258Y159918D01*
X113119Y159828D01*
X112977Y159741D01*
X112834Y159657D01*
X112688Y159577D01*
X112540Y159501D01*
X112391Y159428D01*
X112240Y159359D01*
X112087Y159294D01*
X111933Y159232D01*
X111777Y159174D01*
X111620Y159120D01*
X111461Y159070D01*
X111302Y159023D01*
X111141Y158981D01*
X110980Y158942D01*
X110817Y158907D01*
X110654Y158877D01*
X110490Y158850D01*
X110325Y158827D01*
X110160Y158809D01*
X109994Y158794D01*
X109829Y158783D01*
X109662Y158777D01*
X109496Y158774D01*
X109330Y158775D01*
X109164Y158781D01*
X108998Y158791D01*
X108833Y158804D01*
X108667Y158822D01*
X108502Y158843D01*
X108338Y158869D01*
X108175Y158898D01*
X108012Y158932D01*
X107850Y158969D01*
X107689Y159011D01*
X107529Y159056D01*
X107371Y159105D01*
X107213Y159158D01*
X107057Y159215D01*
X106902Y159276D01*
X106749Y159340D01*
X106597Y159408D01*
X106447Y159480D01*
X106299Y159556D01*
X106153Y159635D01*
X106009Y159717D01*
X105867Y159803D01*
X105727Y159892D01*
X105589Y159985D01*
X105453Y160081D01*
X105320Y160181D01*
X105189Y160283D01*
X105061Y160389D01*
X104935Y160498D01*
X104813Y160610D01*
X104692Y160724D01*
X104575Y160842D01*
X104461Y160963D01*
X104349Y161086D01*
X104689Y160622D02*
X104338Y161103D01*
X103998Y161592D01*
X103670Y162090D01*
X103355Y162595D01*
X103052Y163108D01*
X102762Y163628D01*
X102484Y164155D01*
X102220Y164688D01*
X101968Y165228D01*
X101730Y165774D01*
X101505Y166325D01*
X101294Y166882D01*
X101096Y167444D01*
X100912Y168010D01*
X100742Y168581D01*
X100586Y169156D01*
X100444Y169734D01*
X100316Y170316D01*
X100203Y170900D01*
X100103Y171488D01*
X100019Y172077D01*
X99948Y172668D01*
X99892Y173261D01*
X99850Y173855D01*
X99823Y174450D01*
X99811Y175046D01*
X99813Y175641D01*
X99830Y176237D01*
X99861Y176831D01*
X99906Y177425D01*
X99966Y178018D01*
X100041Y178608D01*
X100130Y179197D01*
X100233Y179784D01*
X100351Y180368D01*
X100482Y180948D01*
X100628Y181526D01*
X100788Y182099D01*
X100962Y182669D01*
X101150Y183234D01*
X101352Y183795D01*
X101567Y184350D01*
X101795Y184900D01*
X102037Y185444D01*
X102293Y185982D01*
X102561Y186514D01*
X102842Y187039D01*
X103136Y187557D01*
X103442Y188067D01*
X103761Y188570D01*
X104092Y189066D01*
X104435Y189552D01*
X104790Y190031D01*
X105156Y190500D01*
X113538Y192024D02*
X113922Y191705D01*
X114298Y191377D01*
X114666Y191040D01*
X115026Y190694D01*
X115378Y190340D01*
X115721Y189977D01*
X116054Y189606D01*
X116379Y189227D01*
X116695Y188840D01*
X117001Y188445D01*
X117297Y188044D01*
X117584Y187635D01*
X117860Y187220D01*
X118126Y186797D01*
X118382Y186369D01*
X118628Y185934D01*
X118863Y185494D01*
X119087Y185048D01*
X119301Y184597D01*
X119503Y184141D01*
X119694Y183680D01*
X119874Y183214D01*
X120043Y182744D01*
X120200Y182270D01*
X120346Y181793D01*
X120480Y181312D01*
X120602Y180828D01*
X120713Y180342D01*
X120812Y179852D01*
X120899Y179361D01*
X120974Y178867D01*
X121037Y178372D01*
X121087Y177876D01*
X121126Y177378D01*
X121153Y176880D01*
X121168Y176381D01*
X121171Y175881D01*
X121161Y175382D01*
X121139Y174884D01*
X121106Y174386D01*
X121060Y173889D01*
X121002Y173393D01*
X120933Y172899D01*
X120851Y172406D01*
X120757Y171916D01*
X120652Y171428D01*
X120534Y170943D01*
X120405Y170461D01*
X120265Y169982D01*
X120112Y169506D01*
X119949Y169035D01*
X119774Y168568D01*
X119587Y168104D01*
X119390Y167646D01*
X119181Y167193D01*
X118961Y166744D01*
X118731Y166302D01*
X118490Y165864D01*
X118239Y165433D01*
X117977Y165008D01*
X117704Y164590D01*
X117422Y164178D01*
X117130Y163774D01*
X116828Y163376D01*
X116517Y162986D01*
X116196Y162603D01*
X115866Y162229D01*
X115527Y161862D01*
X115180Y161504D01*
X114823Y161155D01*
X114459Y160814D01*
X114086Y160482D01*
X104797Y190079D02*
X104872Y190211D01*
X104951Y190341D01*
X105033Y190469D01*
X105119Y190594D01*
X105207Y190718D01*
X105299Y190839D01*
X105394Y190958D01*
X105492Y191074D01*
X105592Y191188D01*
X105696Y191299D01*
X105802Y191407D01*
X105912Y191513D01*
X106024Y191616D01*
X106138Y191716D01*
X106255Y191812D01*
X106374Y191906D01*
X106496Y191997D01*
X106620Y192085D01*
X106747Y192169D01*
X106875Y192251D01*
X107005Y192329D01*
X107138Y192403D01*
X107272Y192474D01*
X107408Y192542D01*
X107546Y192606D01*
X107685Y192667D01*
X107826Y192724D01*
X107968Y192777D01*
X108112Y192827D01*
X108256Y192873D01*
X108402Y192915D01*
X108549Y192954D01*
X108697Y192988D01*
X108846Y193019D01*
X108995Y193047D01*
X109146Y193070D01*
X109296Y193089D01*
X109447Y193105D01*
X109599Y193117D01*
X109751Y193125D01*
X109902Y193128D01*
X110054Y193129D01*
X110206Y193125D01*
X110358Y193117D01*
X110509Y193105D01*
X110661Y193090D01*
X110811Y193071D01*
X110961Y193047D01*
X111111Y193020D01*
X111260Y192990D01*
X111408Y192955D01*
X111555Y192916D01*
X111701Y192874D01*
X111845Y192828D01*
X111989Y192779D01*
X112131Y192725D01*
X112272Y192669D01*
X112412Y192608D01*
X112549Y192544D01*
X112685Y192477D01*
X112820Y192406D01*
X112952Y192331D01*
X113083Y192253D01*
X113211Y192172D01*
X113338Y192088D01*
X113462Y192000D01*
X113584Y191910D01*
X113703Y191816D01*
X113820Y191719D01*
X113935Y191619D01*
X114047Y191516D01*
X107950Y192024D02*
X114300Y161544D01*
X113030Y160274D02*
X106680Y190754D01*
X104349Y211124D02*
X104461Y211001D01*
X104575Y210880D01*
X104692Y210762D01*
X104813Y210648D01*
X104935Y210536D01*
X105061Y210427D01*
X105189Y210321D01*
X105320Y210219D01*
X105453Y210119D01*
X105589Y210023D01*
X105727Y209930D01*
X105867Y209841D01*
X106009Y209755D01*
X106153Y209673D01*
X106299Y209594D01*
X106447Y209518D01*
X106597Y209446D01*
X106749Y209378D01*
X106902Y209314D01*
X107057Y209253D01*
X107213Y209196D01*
X107371Y209143D01*
X107529Y209094D01*
X107689Y209049D01*
X107850Y209007D01*
X108012Y208970D01*
X108175Y208936D01*
X108338Y208907D01*
X108502Y208881D01*
X108667Y208860D01*
X108833Y208842D01*
X108998Y208829D01*
X109164Y208819D01*
X109330Y208813D01*
X109496Y208812D01*
X109662Y208815D01*
X109829Y208821D01*
X109994Y208832D01*
X110160Y208847D01*
X110325Y208865D01*
X110490Y208888D01*
X110654Y208915D01*
X110817Y208945D01*
X110980Y208980D01*
X111141Y209019D01*
X111302Y209061D01*
X111461Y209108D01*
X111620Y209158D01*
X111777Y209212D01*
X111933Y209270D01*
X112087Y209332D01*
X112240Y209397D01*
X112391Y209466D01*
X112540Y209539D01*
X112688Y209615D01*
X112834Y209695D01*
X112977Y209779D01*
X113119Y209866D01*
X113258Y209956D01*
X113396Y210050D01*
X113530Y210147D01*
X113663Y210247D01*
X113793Y210351D01*
X113920Y210457D01*
X114045Y210567D01*
X104688Y210660D02*
X104336Y211141D01*
X103997Y211630D01*
X103669Y212127D01*
X103354Y212632D01*
X103051Y213145D01*
X102760Y213665D01*
X102483Y214192D01*
X102218Y214726D01*
X101967Y215265D01*
X101729Y215811D01*
X101504Y216363D01*
X101292Y216920D01*
X101095Y217481D01*
X100911Y218048D01*
X100741Y218619D01*
X100585Y219193D01*
X100443Y219772D01*
X100315Y220353D01*
X100202Y220938D01*
X100102Y221525D01*
X100017Y222115D01*
X99947Y222706D01*
X99891Y223299D01*
X99849Y223893D01*
X99822Y224488D01*
X99810Y225084D01*
X99812Y225679D01*
X99829Y226274D01*
X99860Y226869D01*
X99905Y227463D01*
X99965Y228055D01*
X100040Y228646D01*
X100129Y229235D01*
X100232Y229822D01*
X100350Y230406D01*
X100482Y230986D01*
X100628Y231564D01*
X100788Y232137D01*
X100962Y232707D01*
X101149Y233272D01*
X101351Y233833D01*
X101566Y234388D01*
X101795Y234938D01*
X102037Y235482D01*
X102292Y236020D01*
X102560Y236552D01*
X102841Y237077D01*
X103135Y237595D01*
X103442Y238105D01*
X103761Y238608D01*
X104092Y239104D01*
X104435Y239590D01*
X104789Y240069D01*
X105156Y240538D01*
X113538Y242062D02*
X113922Y241743D01*
X114299Y241415D01*
X114667Y241078D01*
X115027Y240732D01*
X115378Y240378D01*
X115721Y240015D01*
X116055Y239644D01*
X116380Y239265D01*
X116695Y238878D01*
X117002Y238484D01*
X117298Y238082D01*
X117584Y237673D01*
X117861Y237258D01*
X118127Y236836D01*
X118384Y236407D01*
X118629Y235972D01*
X118864Y235532D01*
X119089Y235086D01*
X119302Y234635D01*
X119504Y234178D01*
X119696Y233717D01*
X119876Y233252D01*
X120044Y232782D01*
X120202Y232308D01*
X120347Y231831D01*
X120482Y231350D01*
X120604Y230866D01*
X120715Y230379D01*
X120813Y229890D01*
X120900Y229398D01*
X120975Y228905D01*
X121038Y228410D01*
X121089Y227913D01*
X121128Y227415D01*
X121155Y226917D01*
X121170Y226418D01*
X121173Y225919D01*
X121163Y225420D01*
X121142Y224921D01*
X121108Y224423D01*
X121062Y223926D01*
X121004Y223430D01*
X120935Y222936D01*
X120853Y222443D01*
X120759Y221953D01*
X120654Y221465D01*
X120537Y220980D01*
X120408Y220497D01*
X120267Y220018D01*
X120115Y219543D01*
X119951Y219072D01*
X119776Y218604D01*
X119590Y218141D01*
X119392Y217682D01*
X119183Y217229D01*
X118964Y216781D01*
X118734Y216338D01*
X118493Y215901D01*
X118241Y215469D01*
X117979Y215044D01*
X117707Y214626D01*
X117425Y214214D01*
X117133Y213809D01*
X116831Y213412D01*
X116519Y213022D01*
X116199Y212639D01*
X115869Y212265D01*
X115530Y211898D01*
X115182Y211540D01*
X114826Y211190D01*
X114461Y210849D01*
X114088Y210517D01*
X104797Y240117D02*
X104872Y240249D01*
X104951Y240379D01*
X105033Y240507D01*
X105119Y240632D01*
X105207Y240756D01*
X105299Y240877D01*
X105394Y240996D01*
X105492Y241112D01*
X105592Y241226D01*
X105696Y241337D01*
X105802Y241445D01*
X105912Y241551D01*
X106024Y241654D01*
X106138Y241754D01*
X106255Y241850D01*
X106374Y241944D01*
X106496Y242035D01*
X106620Y242123D01*
X106747Y242207D01*
X106875Y242289D01*
X107005Y242367D01*
X107138Y242441D01*
X107272Y242512D01*
X107408Y242580D01*
X107546Y242644D01*
X107685Y242705D01*
X107826Y242762D01*
X107968Y242815D01*
X108112Y242865D01*
X108256Y242911D01*
X108402Y242953D01*
X108549Y242992D01*
X108697Y243026D01*
X108846Y243057D01*
X108995Y243085D01*
X109146Y243108D01*
X109296Y243127D01*
X109447Y243143D01*
X109599Y243155D01*
X109751Y243163D01*
X109902Y243166D01*
X110054Y243167D01*
X110206Y243163D01*
X110358Y243155D01*
X110509Y243143D01*
X110661Y243128D01*
X110811Y243109D01*
X110961Y243085D01*
X111111Y243058D01*
X111260Y243028D01*
X111408Y242993D01*
X111555Y242954D01*
X111701Y242912D01*
X111845Y242866D01*
X111989Y242817D01*
X112131Y242763D01*
X112272Y242707D01*
X112412Y242646D01*
X112549Y242582D01*
X112685Y242515D01*
X112820Y242444D01*
X112952Y242369D01*
X113083Y242291D01*
X113211Y242210D01*
X113338Y242126D01*
X113462Y242038D01*
X113584Y241948D01*
X113703Y241854D01*
X113820Y241757D01*
X113935Y241657D01*
X114047Y241554D01*
X107950Y242062D02*
X114300Y211582D01*
X113030Y210312D02*
X106680Y240792D01*
X66040Y242316D02*
X66040Y246126D01*
X66040Y209296D02*
X66040Y205486D01*
X69850Y242316D02*
X69850Y251460D01*
X69850Y209296D02*
X69850Y192278D01*
X69850Y159258D02*
X69850Y149860D01*
X66040Y155448D02*
X66040Y159258D01*
X66040Y192278D02*
X66040Y196088D01*
D11*
X79375Y238633D02*
X76835Y241808D01*
X88265Y241808D01*
X88265Y238633D02*
X88265Y244983D01*
X79693Y194184D02*
X79589Y194182D01*
X79484Y194176D01*
X79380Y194167D01*
X79277Y194154D01*
X79174Y194136D01*
X79072Y194116D01*
X78970Y194091D01*
X78870Y194063D01*
X78770Y194031D01*
X78672Y193995D01*
X78575Y193956D01*
X78480Y193914D01*
X78386Y193868D01*
X78294Y193818D01*
X78204Y193766D01*
X78116Y193710D01*
X78030Y193650D01*
X77946Y193588D01*
X77865Y193523D01*
X77786Y193455D01*
X77709Y193383D01*
X77636Y193310D01*
X77564Y193233D01*
X77496Y193154D01*
X77431Y193073D01*
X77369Y192989D01*
X77309Y192903D01*
X77253Y192815D01*
X77201Y192725D01*
X77151Y192633D01*
X77105Y192539D01*
X77063Y192444D01*
X77024Y192347D01*
X76988Y192249D01*
X76956Y192149D01*
X76928Y192049D01*
X76903Y191947D01*
X76883Y191845D01*
X76865Y191742D01*
X76852Y191639D01*
X76843Y191535D01*
X76837Y191430D01*
X76835Y191326D01*
X76837Y191208D01*
X76843Y191089D01*
X76852Y190971D01*
X76865Y190854D01*
X76883Y190737D01*
X76903Y190620D01*
X76928Y190504D01*
X76956Y190389D01*
X76989Y190276D01*
X77024Y190163D01*
X77064Y190051D01*
X77106Y189941D01*
X77153Y189832D01*
X77203Y189724D01*
X77256Y189619D01*
X77313Y189515D01*
X77373Y189413D01*
X77436Y189313D01*
X77503Y189215D01*
X77572Y189119D01*
X77645Y189026D01*
X77721Y188935D01*
X77799Y188846D01*
X77881Y188760D01*
X77965Y188677D01*
X78051Y188596D01*
X78141Y188519D01*
X78232Y188444D01*
X78326Y188372D01*
X78423Y188303D01*
X78521Y188238D01*
X78622Y188175D01*
X78725Y188116D01*
X78829Y188060D01*
X78935Y188008D01*
X79043Y187959D01*
X79152Y187914D01*
X79263Y187872D01*
X79375Y187834D01*
X81915Y193231D02*
X81840Y193307D01*
X81761Y193382D01*
X81680Y193453D01*
X81596Y193522D01*
X81510Y193587D01*
X81422Y193649D01*
X81332Y193709D01*
X81240Y193765D01*
X81145Y193818D01*
X81049Y193867D01*
X80951Y193913D01*
X80852Y193956D01*
X80751Y193995D01*
X80649Y194030D01*
X80546Y194062D01*
X80442Y194090D01*
X80337Y194115D01*
X80230Y194136D01*
X80124Y194153D01*
X80017Y194166D01*
X79909Y194175D01*
X79801Y194181D01*
X79693Y194183D01*
X81915Y193231D02*
X88265Y187833D01*
X88265Y194183D01*
X13335Y137795D02*
X5715Y126365D01*
X13335Y126365D02*
X5715Y137795D01*
X21273Y137796D02*
X21377Y137794D01*
X21482Y137788D01*
X21586Y137779D01*
X21689Y137766D01*
X21792Y137748D01*
X21894Y137728D01*
X21996Y137703D01*
X22096Y137675D01*
X22196Y137643D01*
X22294Y137607D01*
X22391Y137568D01*
X22486Y137526D01*
X22580Y137480D01*
X22672Y137430D01*
X22762Y137378D01*
X22850Y137322D01*
X22936Y137262D01*
X23020Y137200D01*
X23101Y137135D01*
X23180Y137067D01*
X23257Y136995D01*
X23330Y136922D01*
X23402Y136845D01*
X23470Y136766D01*
X23535Y136685D01*
X23597Y136601D01*
X23657Y136515D01*
X23713Y136427D01*
X23765Y136337D01*
X23815Y136245D01*
X23861Y136151D01*
X23903Y136056D01*
X23942Y135959D01*
X23978Y135861D01*
X24010Y135761D01*
X24038Y135661D01*
X24063Y135559D01*
X24083Y135457D01*
X24101Y135354D01*
X24114Y135251D01*
X24123Y135147D01*
X24129Y135042D01*
X24131Y134938D01*
X21273Y137795D02*
X21155Y137793D01*
X21036Y137787D01*
X20918Y137778D01*
X20801Y137765D01*
X20684Y137747D01*
X20567Y137727D01*
X20451Y137702D01*
X20336Y137674D01*
X20223Y137641D01*
X20110Y137606D01*
X19998Y137566D01*
X19888Y137524D01*
X19779Y137477D01*
X19671Y137427D01*
X19566Y137374D01*
X19462Y137317D01*
X19360Y137257D01*
X19260Y137194D01*
X19162Y137127D01*
X19066Y137058D01*
X18973Y136985D01*
X18882Y136909D01*
X18793Y136831D01*
X18707Y136749D01*
X18624Y136665D01*
X18543Y136579D01*
X18466Y136489D01*
X18391Y136398D01*
X18319Y136304D01*
X18250Y136207D01*
X18185Y136109D01*
X18122Y136008D01*
X18063Y135905D01*
X18007Y135801D01*
X17955Y135695D01*
X17906Y135587D01*
X17861Y135478D01*
X17819Y135367D01*
X17781Y135255D01*
X23178Y132716D02*
X23254Y132791D01*
X23329Y132870D01*
X23400Y132951D01*
X23469Y133035D01*
X23534Y133121D01*
X23596Y133209D01*
X23656Y133299D01*
X23712Y133391D01*
X23765Y133486D01*
X23814Y133582D01*
X23860Y133680D01*
X23903Y133779D01*
X23942Y133880D01*
X23977Y133982D01*
X24009Y134085D01*
X24037Y134189D01*
X24062Y134294D01*
X24083Y134401D01*
X24100Y134507D01*
X24113Y134614D01*
X24122Y134722D01*
X24128Y134830D01*
X24130Y134938D01*
X23178Y132715D02*
X17780Y126365D01*
X24130Y126365D01*
D12*
X729240Y248600D02*
X729240Y275100D01*
X729240Y248600D02*
X750740Y248600D01*
X758240Y256100D01*
X796240Y256100D01*
X796240Y247600D01*
X807990Y247600D01*
X807990Y209600D01*
X796240Y209600D01*
X796240Y201100D01*
X758240Y201100D01*
X750740Y208600D01*
X729240Y208600D01*
X729240Y182100D01*
X714740Y190100D02*
X714740Y267100D01*
X714740Y182100D02*
X729240Y182100D01*
X729240Y275100D02*
X714740Y275100D01*
D10*
X652921Y278892D02*
X645132Y267208D01*
X652921Y267208D02*
X645132Y278892D01*
X657211Y267208D02*
X660456Y267208D01*
X660569Y267210D01*
X660682Y267216D01*
X660795Y267226D01*
X660908Y267240D01*
X661020Y267257D01*
X661131Y267279D01*
X661241Y267304D01*
X661351Y267334D01*
X661459Y267367D01*
X661566Y267404D01*
X661672Y267444D01*
X661776Y267489D01*
X661879Y267537D01*
X661980Y267588D01*
X662079Y267643D01*
X662176Y267701D01*
X662271Y267763D01*
X662364Y267828D01*
X662454Y267896D01*
X662542Y267967D01*
X662628Y268042D01*
X662711Y268119D01*
X662791Y268199D01*
X662868Y268282D01*
X662943Y268368D01*
X663014Y268456D01*
X663082Y268546D01*
X663147Y268639D01*
X663209Y268734D01*
X663267Y268831D01*
X663322Y268930D01*
X663373Y269031D01*
X663421Y269134D01*
X663466Y269238D01*
X663506Y269344D01*
X663543Y269451D01*
X663576Y269559D01*
X663606Y269669D01*
X663631Y269779D01*
X663653Y269890D01*
X663670Y270002D01*
X663684Y270115D01*
X663694Y270228D01*
X663700Y270341D01*
X663702Y270454D01*
X663700Y270567D01*
X663694Y270680D01*
X663684Y270793D01*
X663670Y270906D01*
X663653Y271018D01*
X663631Y271129D01*
X663606Y271239D01*
X663576Y271349D01*
X663543Y271457D01*
X663506Y271564D01*
X663466Y271670D01*
X663421Y271774D01*
X663373Y271877D01*
X663322Y271978D01*
X663267Y272077D01*
X663209Y272174D01*
X663147Y272269D01*
X663082Y272362D01*
X663014Y272452D01*
X662943Y272540D01*
X662868Y272626D01*
X662791Y272709D01*
X662711Y272789D01*
X662628Y272866D01*
X662542Y272941D01*
X662454Y273012D01*
X662364Y273080D01*
X662271Y273145D01*
X662176Y273207D01*
X662079Y273265D01*
X661980Y273320D01*
X661879Y273371D01*
X661776Y273419D01*
X661672Y273464D01*
X661566Y273504D01*
X661459Y273541D01*
X661351Y273574D01*
X661241Y273604D01*
X661131Y273629D01*
X661020Y273651D01*
X660908Y273668D01*
X660795Y273682D01*
X660682Y273692D01*
X660569Y273698D01*
X660456Y273700D01*
X661106Y278892D02*
X657211Y278892D01*
X661106Y278892D02*
X661207Y278890D01*
X661307Y278884D01*
X661407Y278874D01*
X661507Y278861D01*
X661606Y278843D01*
X661705Y278822D01*
X661802Y278797D01*
X661899Y278768D01*
X661994Y278735D01*
X662088Y278699D01*
X662180Y278659D01*
X662271Y278616D01*
X662360Y278569D01*
X662447Y278519D01*
X662533Y278465D01*
X662616Y278408D01*
X662696Y278348D01*
X662775Y278285D01*
X662851Y278218D01*
X662924Y278149D01*
X662994Y278077D01*
X663062Y278003D01*
X663127Y277926D01*
X663188Y277846D01*
X663247Y277764D01*
X663302Y277680D01*
X663354Y277594D01*
X663403Y277506D01*
X663448Y277416D01*
X663490Y277324D01*
X663528Y277231D01*
X663562Y277136D01*
X663593Y277041D01*
X663620Y276944D01*
X663643Y276846D01*
X663663Y276747D01*
X663678Y276647D01*
X663690Y276547D01*
X663698Y276447D01*
X663702Y276346D01*
X663702Y276246D01*
X663698Y276145D01*
X663690Y276045D01*
X663678Y275945D01*
X663663Y275845D01*
X663643Y275746D01*
X663620Y275648D01*
X663593Y275551D01*
X663562Y275456D01*
X663528Y275361D01*
X663490Y275268D01*
X663448Y275176D01*
X663403Y275086D01*
X663354Y274998D01*
X663302Y274912D01*
X663247Y274828D01*
X663188Y274746D01*
X663127Y274666D01*
X663062Y274589D01*
X662994Y274515D01*
X662924Y274443D01*
X662851Y274374D01*
X662775Y274307D01*
X662696Y274244D01*
X662616Y274184D01*
X662533Y274127D01*
X662447Y274073D01*
X662360Y274023D01*
X662271Y273976D01*
X662180Y273933D01*
X662088Y273893D01*
X661994Y273857D01*
X661899Y273824D01*
X661802Y273795D01*
X661705Y273770D01*
X661606Y273749D01*
X661507Y273731D01*
X661407Y273718D01*
X661307Y273708D01*
X661207Y273702D01*
X661106Y273700D01*
X661106Y273699D02*
X658509Y273699D01*
D14*
X631190Y144780D02*
X600710Y144780D01*
X600710Y43180D01*
X600710Y144780D02*
X600710Y149860D01*
X648970Y149860D01*
X646430Y144780D01*
X715010Y144780D02*
X717550Y149860D01*
X715010Y144780D02*
X725170Y144780D01*
X703580Y144780D02*
X701040Y149860D01*
X703580Y144780D02*
X715010Y144780D01*
X717550Y149860D02*
X701040Y149860D01*
X706120Y98552D02*
X725170Y98552D01*
X706120Y139192D02*
X660400Y139192D01*
X725170Y139192D02*
X725170Y98552D01*
X725170Y139192D02*
X725170Y144780D01*
X725170Y89154D02*
X706120Y89154D01*
X725170Y89154D02*
X725170Y98552D01*
X706120Y48514D02*
X660400Y48514D01*
X725170Y48514D02*
X725170Y43180D01*
X725170Y48514D02*
X725170Y89154D01*
X706120Y98552D02*
X706120Y139192D01*
X706120Y98552D02*
X660400Y98552D01*
X706120Y139192D02*
X725170Y139192D01*
X706120Y89154D02*
X706120Y48514D01*
X706120Y89154D02*
X660400Y89154D01*
X706120Y48514D02*
X725170Y48514D01*
X699770Y135382D02*
X668020Y135382D01*
X699770Y135382D02*
X699770Y102362D01*
X668020Y102362D01*
X668020Y85344D02*
X699770Y85344D01*
X699770Y52324D01*
X668020Y52324D01*
X656590Y43180D02*
X725170Y43180D01*
X656590Y43180D02*
X631190Y43180D01*
X646430Y144780D02*
X656590Y144780D01*
X703580Y144780D01*
X631190Y144780D02*
X631190Y43180D01*
X600710Y43180D01*
X631190Y144780D02*
X646430Y144780D01*
X628650Y98552D02*
X603250Y98552D01*
X603250Y139192D01*
X628650Y139192D01*
X628650Y98552D01*
X628650Y89154D02*
X603250Y89154D01*
X628650Y89154D02*
X628650Y48514D01*
X603250Y48514D01*
X603250Y89154D01*
X612395Y134111D02*
X612520Y134221D01*
X612647Y134327D01*
X612777Y134431D01*
X612910Y134531D01*
X613044Y134628D01*
X613182Y134722D01*
X613321Y134812D01*
X613463Y134899D01*
X613606Y134983D01*
X613752Y135063D01*
X613900Y135139D01*
X614049Y135212D01*
X614200Y135281D01*
X614353Y135346D01*
X614507Y135408D01*
X614663Y135466D01*
X614820Y135520D01*
X614979Y135570D01*
X615138Y135617D01*
X615299Y135659D01*
X615460Y135698D01*
X615623Y135733D01*
X615786Y135763D01*
X615950Y135790D01*
X616115Y135813D01*
X616280Y135831D01*
X616446Y135846D01*
X616611Y135857D01*
X616778Y135863D01*
X616944Y135866D01*
X617110Y135865D01*
X617276Y135859D01*
X617442Y135849D01*
X617607Y135836D01*
X617773Y135818D01*
X617938Y135797D01*
X618102Y135771D01*
X618265Y135742D01*
X618428Y135708D01*
X618590Y135671D01*
X618751Y135629D01*
X618911Y135584D01*
X619069Y135535D01*
X619227Y135482D01*
X619383Y135425D01*
X619538Y135364D01*
X619691Y135300D01*
X619843Y135232D01*
X619993Y135160D01*
X620141Y135084D01*
X620287Y135005D01*
X620431Y134923D01*
X620573Y134837D01*
X620713Y134748D01*
X620851Y134655D01*
X620987Y134559D01*
X621120Y134459D01*
X621251Y134357D01*
X621379Y134251D01*
X621505Y134142D01*
X621627Y134030D01*
X621748Y133916D01*
X621865Y133798D01*
X621979Y133677D01*
X622091Y133554D01*
X621751Y134018D02*
X622102Y133537D01*
X622442Y133048D01*
X622770Y132550D01*
X623085Y132045D01*
X623388Y131532D01*
X623678Y131012D01*
X623956Y130485D01*
X624220Y129952D01*
X624472Y129412D01*
X624710Y128866D01*
X624935Y128315D01*
X625146Y127758D01*
X625344Y127196D01*
X625528Y126630D01*
X625698Y126059D01*
X625854Y125484D01*
X625996Y124906D01*
X626124Y124324D01*
X626237Y123740D01*
X626337Y123152D01*
X626421Y122563D01*
X626492Y121972D01*
X626548Y121379D01*
X626590Y120785D01*
X626617Y120190D01*
X626629Y119594D01*
X626627Y118999D01*
X626610Y118403D01*
X626579Y117809D01*
X626534Y117215D01*
X626474Y116622D01*
X626399Y116032D01*
X626310Y115443D01*
X626207Y114856D01*
X626089Y114272D01*
X625958Y113692D01*
X625812Y113114D01*
X625652Y112541D01*
X625478Y111971D01*
X625290Y111406D01*
X625088Y110845D01*
X624873Y110290D01*
X624645Y109740D01*
X624403Y109196D01*
X624147Y108658D01*
X623879Y108126D01*
X623598Y107601D01*
X623304Y107083D01*
X622998Y106573D01*
X622679Y106070D01*
X622348Y105574D01*
X622005Y105088D01*
X621650Y104609D01*
X621284Y104140D01*
X612902Y102616D02*
X612518Y102935D01*
X612142Y103263D01*
X611774Y103600D01*
X611414Y103946D01*
X611062Y104300D01*
X610719Y104663D01*
X610386Y105034D01*
X610061Y105413D01*
X609745Y105800D01*
X609439Y106195D01*
X609143Y106596D01*
X608856Y107005D01*
X608580Y107420D01*
X608314Y107843D01*
X608058Y108271D01*
X607812Y108706D01*
X607577Y109146D01*
X607353Y109592D01*
X607139Y110043D01*
X606937Y110499D01*
X606746Y110960D01*
X606566Y111426D01*
X606397Y111896D01*
X606240Y112370D01*
X606094Y112847D01*
X605960Y113328D01*
X605838Y113812D01*
X605727Y114298D01*
X605628Y114788D01*
X605541Y115279D01*
X605466Y115773D01*
X605403Y116268D01*
X605353Y116764D01*
X605314Y117262D01*
X605287Y117760D01*
X605272Y118259D01*
X605269Y118759D01*
X605279Y119258D01*
X605301Y119756D01*
X605334Y120254D01*
X605380Y120751D01*
X605438Y121247D01*
X605507Y121741D01*
X605589Y122234D01*
X605683Y122724D01*
X605788Y123212D01*
X605906Y123697D01*
X606035Y124179D01*
X606175Y124658D01*
X606328Y125134D01*
X606491Y125605D01*
X606666Y126072D01*
X606853Y126536D01*
X607050Y126994D01*
X607259Y127447D01*
X607479Y127896D01*
X607709Y128338D01*
X607950Y128776D01*
X608201Y129207D01*
X608463Y129632D01*
X608736Y130050D01*
X609018Y130462D01*
X609310Y130866D01*
X609612Y131264D01*
X609923Y131654D01*
X610244Y132037D01*
X610574Y132411D01*
X610913Y132778D01*
X611260Y133136D01*
X611617Y133485D01*
X611981Y133826D01*
X612354Y134158D01*
X621643Y104561D02*
X621568Y104429D01*
X621489Y104299D01*
X621407Y104171D01*
X621321Y104046D01*
X621233Y103922D01*
X621141Y103801D01*
X621046Y103682D01*
X620948Y103566D01*
X620848Y103452D01*
X620744Y103341D01*
X620638Y103233D01*
X620528Y103127D01*
X620416Y103024D01*
X620302Y102924D01*
X620185Y102828D01*
X620066Y102734D01*
X619944Y102643D01*
X619820Y102555D01*
X619693Y102471D01*
X619565Y102389D01*
X619435Y102311D01*
X619302Y102237D01*
X619168Y102166D01*
X619032Y102098D01*
X618894Y102034D01*
X618755Y101973D01*
X618614Y101916D01*
X618472Y101863D01*
X618328Y101813D01*
X618184Y101767D01*
X618038Y101725D01*
X617891Y101686D01*
X617743Y101652D01*
X617594Y101621D01*
X617445Y101593D01*
X617294Y101570D01*
X617144Y101551D01*
X616993Y101535D01*
X616841Y101523D01*
X616689Y101515D01*
X616538Y101512D01*
X616386Y101511D01*
X616234Y101515D01*
X616082Y101523D01*
X615931Y101535D01*
X615779Y101550D01*
X615629Y101569D01*
X615479Y101593D01*
X615329Y101620D01*
X615180Y101650D01*
X615032Y101685D01*
X614885Y101724D01*
X614739Y101766D01*
X614595Y101812D01*
X614451Y101861D01*
X614309Y101915D01*
X614168Y101971D01*
X614028Y102032D01*
X613891Y102096D01*
X613755Y102163D01*
X613620Y102234D01*
X613488Y102309D01*
X613357Y102387D01*
X613229Y102468D01*
X613102Y102552D01*
X612978Y102640D01*
X612856Y102730D01*
X612737Y102824D01*
X612620Y102921D01*
X612505Y103021D01*
X612393Y103124D01*
X618490Y102616D02*
X612140Y133096D01*
X613410Y134366D02*
X619760Y103886D01*
X622091Y83516D02*
X621979Y83639D01*
X621865Y83760D01*
X621748Y83878D01*
X621627Y83992D01*
X621505Y84104D01*
X621379Y84213D01*
X621251Y84319D01*
X621120Y84421D01*
X620987Y84521D01*
X620851Y84617D01*
X620713Y84710D01*
X620573Y84799D01*
X620431Y84885D01*
X620287Y84967D01*
X620141Y85046D01*
X619993Y85122D01*
X619843Y85194D01*
X619691Y85262D01*
X619538Y85326D01*
X619383Y85387D01*
X619227Y85444D01*
X619069Y85497D01*
X618911Y85546D01*
X618751Y85591D01*
X618590Y85633D01*
X618428Y85670D01*
X618265Y85704D01*
X618102Y85733D01*
X617938Y85759D01*
X617773Y85780D01*
X617607Y85798D01*
X617442Y85811D01*
X617276Y85821D01*
X617110Y85827D01*
X616944Y85828D01*
X616778Y85825D01*
X616611Y85819D01*
X616446Y85808D01*
X616280Y85793D01*
X616115Y85775D01*
X615950Y85752D01*
X615786Y85725D01*
X615623Y85695D01*
X615460Y85660D01*
X615299Y85621D01*
X615138Y85579D01*
X614979Y85532D01*
X614820Y85482D01*
X614663Y85428D01*
X614507Y85370D01*
X614353Y85308D01*
X614200Y85243D01*
X614049Y85174D01*
X613900Y85101D01*
X613752Y85025D01*
X613606Y84945D01*
X613463Y84861D01*
X613321Y84774D01*
X613182Y84684D01*
X613044Y84590D01*
X612910Y84493D01*
X612777Y84393D01*
X612647Y84289D01*
X612520Y84183D01*
X612395Y84073D01*
X621752Y83980D02*
X622104Y83499D01*
X622443Y83010D01*
X622771Y82513D01*
X623086Y82008D01*
X623389Y81495D01*
X623680Y80975D01*
X623957Y80448D01*
X624222Y79914D01*
X624473Y79375D01*
X624711Y78829D01*
X624936Y78277D01*
X625148Y77720D01*
X625345Y77159D01*
X625529Y76592D01*
X625699Y76021D01*
X625855Y75447D01*
X625997Y74868D01*
X626125Y74287D01*
X626238Y73702D01*
X626338Y73115D01*
X626423Y72525D01*
X626493Y71934D01*
X626549Y71341D01*
X626591Y70747D01*
X626618Y70152D01*
X626630Y69556D01*
X626628Y68961D01*
X626611Y68366D01*
X626580Y67771D01*
X626535Y67177D01*
X626475Y66585D01*
X626400Y65994D01*
X626311Y65405D01*
X626208Y64818D01*
X626090Y64234D01*
X625958Y63654D01*
X625812Y63076D01*
X625652Y62503D01*
X625478Y61933D01*
X625291Y61368D01*
X625089Y60807D01*
X624874Y60252D01*
X624645Y59702D01*
X624403Y59158D01*
X624148Y58620D01*
X623880Y58088D01*
X623599Y57563D01*
X623305Y57045D01*
X622998Y56535D01*
X622679Y56032D01*
X622348Y55536D01*
X622005Y55050D01*
X621651Y54571D01*
X621284Y54102D01*
X612902Y52578D02*
X612518Y52897D01*
X612141Y53225D01*
X611773Y53562D01*
X611413Y53908D01*
X611062Y54262D01*
X610719Y54625D01*
X610385Y54996D01*
X610060Y55375D01*
X609745Y55762D01*
X609438Y56156D01*
X609142Y56558D01*
X608856Y56967D01*
X608579Y57382D01*
X608313Y57804D01*
X608056Y58233D01*
X607811Y58668D01*
X607576Y59108D01*
X607351Y59554D01*
X607138Y60005D01*
X606936Y60462D01*
X606744Y60923D01*
X606564Y61388D01*
X606396Y61858D01*
X606238Y62332D01*
X606093Y62809D01*
X605958Y63290D01*
X605836Y63774D01*
X605725Y64261D01*
X605627Y64750D01*
X605540Y65242D01*
X605465Y65735D01*
X605402Y66230D01*
X605351Y66727D01*
X605312Y67225D01*
X605285Y67723D01*
X605270Y68222D01*
X605267Y68721D01*
X605277Y69220D01*
X605298Y69719D01*
X605332Y70217D01*
X605378Y70714D01*
X605436Y71210D01*
X605505Y71704D01*
X605587Y72197D01*
X605681Y72687D01*
X605786Y73175D01*
X605903Y73660D01*
X606032Y74143D01*
X606173Y74622D01*
X606325Y75097D01*
X606489Y75568D01*
X606664Y76036D01*
X606850Y76499D01*
X607048Y76958D01*
X607257Y77411D01*
X607476Y77859D01*
X607706Y78302D01*
X607947Y78739D01*
X608199Y79171D01*
X608461Y79596D01*
X608733Y80014D01*
X609015Y80426D01*
X609307Y80831D01*
X609609Y81228D01*
X609921Y81618D01*
X610241Y82001D01*
X610571Y82375D01*
X610910Y82742D01*
X611258Y83100D01*
X611614Y83450D01*
X611979Y83791D01*
X612352Y84123D01*
X621643Y54523D02*
X621568Y54391D01*
X621489Y54261D01*
X621407Y54133D01*
X621321Y54008D01*
X621233Y53884D01*
X621141Y53763D01*
X621046Y53644D01*
X620948Y53528D01*
X620848Y53414D01*
X620744Y53303D01*
X620638Y53195D01*
X620528Y53089D01*
X620416Y52986D01*
X620302Y52886D01*
X620185Y52790D01*
X620066Y52696D01*
X619944Y52605D01*
X619820Y52517D01*
X619693Y52433D01*
X619565Y52351D01*
X619435Y52273D01*
X619302Y52199D01*
X619168Y52128D01*
X619032Y52060D01*
X618894Y51996D01*
X618755Y51935D01*
X618614Y51878D01*
X618472Y51825D01*
X618328Y51775D01*
X618184Y51729D01*
X618038Y51687D01*
X617891Y51648D01*
X617743Y51614D01*
X617594Y51583D01*
X617445Y51555D01*
X617294Y51532D01*
X617144Y51513D01*
X616993Y51497D01*
X616841Y51485D01*
X616689Y51477D01*
X616538Y51474D01*
X616386Y51473D01*
X616234Y51477D01*
X616082Y51485D01*
X615931Y51497D01*
X615779Y51512D01*
X615629Y51531D01*
X615479Y51555D01*
X615329Y51582D01*
X615180Y51612D01*
X615032Y51647D01*
X614885Y51686D01*
X614739Y51728D01*
X614595Y51774D01*
X614451Y51823D01*
X614309Y51877D01*
X614168Y51933D01*
X614028Y51994D01*
X613891Y52058D01*
X613755Y52125D01*
X613620Y52196D01*
X613488Y52271D01*
X613357Y52349D01*
X613229Y52430D01*
X613102Y52514D01*
X612978Y52602D01*
X612856Y52692D01*
X612737Y52786D01*
X612620Y52883D01*
X612505Y52983D01*
X612393Y53086D01*
X618490Y52578D02*
X612140Y83058D01*
X613410Y84328D02*
X619760Y53848D01*
X660400Y52324D02*
X660400Y48514D01*
X660400Y85344D02*
X660400Y89154D01*
X656590Y52324D02*
X656590Y43180D01*
X656590Y85344D02*
X656590Y102362D01*
X656590Y135382D02*
X656590Y144780D01*
X660400Y139192D02*
X660400Y135382D01*
X660400Y102362D02*
X660400Y98552D01*
D11*
X638175Y52832D02*
X640715Y49657D01*
X638175Y52832D02*
X649605Y52832D01*
X649605Y49657D02*
X649605Y56007D01*
X638175Y103950D02*
X638177Y104054D01*
X638183Y104159D01*
X638192Y104263D01*
X638205Y104366D01*
X638223Y104469D01*
X638243Y104571D01*
X638268Y104673D01*
X638296Y104773D01*
X638328Y104873D01*
X638364Y104971D01*
X638403Y105068D01*
X638445Y105163D01*
X638491Y105257D01*
X638541Y105349D01*
X638593Y105439D01*
X638649Y105527D01*
X638709Y105613D01*
X638771Y105697D01*
X638836Y105778D01*
X638904Y105857D01*
X638976Y105934D01*
X639049Y106007D01*
X639126Y106079D01*
X639205Y106147D01*
X639286Y106212D01*
X639370Y106274D01*
X639456Y106334D01*
X639544Y106390D01*
X639634Y106442D01*
X639726Y106492D01*
X639820Y106538D01*
X639915Y106580D01*
X640012Y106619D01*
X640110Y106655D01*
X640210Y106687D01*
X640310Y106715D01*
X640412Y106740D01*
X640514Y106760D01*
X640617Y106778D01*
X640720Y106791D01*
X640824Y106800D01*
X640929Y106806D01*
X641033Y106808D01*
X638175Y103950D02*
X638177Y103832D01*
X638183Y103713D01*
X638192Y103595D01*
X638205Y103478D01*
X638223Y103361D01*
X638243Y103244D01*
X638268Y103128D01*
X638296Y103013D01*
X638329Y102900D01*
X638364Y102787D01*
X638404Y102675D01*
X638446Y102565D01*
X638493Y102456D01*
X638543Y102348D01*
X638596Y102243D01*
X638653Y102139D01*
X638713Y102037D01*
X638776Y101937D01*
X638843Y101839D01*
X638912Y101743D01*
X638985Y101650D01*
X639061Y101559D01*
X639139Y101470D01*
X639221Y101384D01*
X639305Y101301D01*
X639391Y101220D01*
X639481Y101143D01*
X639572Y101068D01*
X639666Y100996D01*
X639763Y100927D01*
X639861Y100862D01*
X639962Y100799D01*
X640065Y100740D01*
X640169Y100684D01*
X640275Y100632D01*
X640383Y100583D01*
X640492Y100538D01*
X640603Y100496D01*
X640715Y100458D01*
X643255Y105855D02*
X643180Y105931D01*
X643101Y106006D01*
X643020Y106077D01*
X642936Y106146D01*
X642850Y106211D01*
X642762Y106273D01*
X642672Y106333D01*
X642580Y106389D01*
X642485Y106442D01*
X642389Y106491D01*
X642291Y106537D01*
X642192Y106580D01*
X642091Y106619D01*
X641989Y106654D01*
X641886Y106686D01*
X641782Y106714D01*
X641677Y106739D01*
X641570Y106760D01*
X641464Y106777D01*
X641357Y106790D01*
X641249Y106799D01*
X641141Y106805D01*
X641033Y106807D01*
X643255Y105855D02*
X649605Y100457D01*
X649605Y106807D01*
X703580Y33655D02*
X695960Y22225D01*
X703580Y22225D02*
X695960Y33655D01*
X710565Y33655D02*
X708025Y24765D01*
X714375Y24765D01*
X712470Y27305D02*
X712470Y22225D01*
X530860Y154000D02*
X530860Y254000D01*
X570860Y254000D01*
X570860Y154000D01*
X530860Y154000D01*
D10*
X544774Y259588D02*
X544774Y271272D01*
X548019Y271272D02*
X541528Y271272D01*
X552196Y268676D02*
X555442Y271272D01*
X555442Y259588D01*
X558687Y259588D02*
X552196Y259588D01*
M02*
