G04 EAGLE Gerber RS-274X export*
G75*
%MOMM*%
%FSLAX34Y34*%
%LPD*%
%INSolderpaste Top*%
%IPPOS*%
%AMOC8*
5,1,8,0,0,1.08239X$1,22.5*%
G01*
%ADD10R,1.300000X1.500000*%
%ADD11R,2.000000X2.000000*%
%ADD12R,1.500000X1.300000*%
%ADD13R,0.900000X2.000000*%
%ADD14R,1.300000X2.000000*%
%ADD15C,0.147500*%
%ADD16R,1.778000X4.191000*%
%ADD17R,2.667000X4.191000*%
%ADD18R,4.191000X1.778000*%
%ADD19R,4.191000X2.667000*%


D10*
X374040Y76200D03*
X393040Y76200D03*
D11*
X459260Y248920D03*
X459260Y198920D03*
D12*
X535940Y104800D03*
X535940Y123800D03*
D10*
X628040Y228600D03*
X647040Y228600D03*
D12*
X566420Y50190D03*
X566420Y69190D03*
D10*
X140360Y226060D03*
X159360Y226060D03*
D12*
X426720Y145440D03*
X426720Y164440D03*
X114300Y79400D03*
X114300Y98400D03*
X205740Y98400D03*
X205740Y79400D03*
X279400Y158140D03*
X279400Y177140D03*
X236220Y98400D03*
X236220Y79400D03*
X469900Y79400D03*
X469900Y98400D03*
X497840Y79400D03*
X497840Y98400D03*
D13*
X412720Y77060D03*
D14*
X426720Y121060D03*
D13*
X440720Y77060D03*
D12*
X266700Y79400D03*
X266700Y98400D03*
X299720Y99720D03*
X299720Y118720D03*
D10*
X295250Y210820D03*
X276250Y210820D03*
D12*
X401320Y215240D03*
X401320Y196240D03*
X566420Y123800D03*
X566420Y104800D03*
D10*
X179680Y200660D03*
X160680Y200660D03*
D12*
X195580Y155600D03*
X195580Y174600D03*
D13*
X201900Y201520D03*
D14*
X215900Y245520D03*
D13*
X229900Y201520D03*
D12*
X226060Y155600D03*
X226060Y174600D03*
X251460Y175920D03*
X251460Y194920D03*
X170180Y98400D03*
X170180Y79400D03*
X142240Y79400D03*
X142240Y98400D03*
X401320Y145440D03*
X401320Y164440D03*
D15*
X332193Y216227D02*
X314167Y216227D01*
X314167Y220653D01*
X332193Y220653D01*
X332193Y216227D01*
X332193Y217628D02*
X314167Y217628D01*
X314167Y219029D02*
X332193Y219029D01*
X332193Y220430D02*
X314167Y220430D01*
X314167Y203527D02*
X332193Y203527D01*
X314167Y203527D02*
X314167Y207953D01*
X332193Y207953D01*
X332193Y203527D01*
X332193Y204928D02*
X314167Y204928D01*
X314167Y206329D02*
X332193Y206329D01*
X332193Y207730D02*
X314167Y207730D01*
X314167Y190827D02*
X332193Y190827D01*
X314167Y190827D02*
X314167Y195253D01*
X332193Y195253D01*
X332193Y190827D01*
X332193Y192228D02*
X314167Y192228D01*
X314167Y193629D02*
X332193Y193629D01*
X332193Y195030D02*
X314167Y195030D01*
X314167Y178127D02*
X332193Y178127D01*
X314167Y178127D02*
X314167Y182553D01*
X332193Y182553D01*
X332193Y178127D01*
X332193Y179528D02*
X314167Y179528D01*
X314167Y180929D02*
X332193Y180929D01*
X332193Y182330D02*
X314167Y182330D01*
X314167Y165427D02*
X332193Y165427D01*
X314167Y165427D02*
X314167Y169853D01*
X332193Y169853D01*
X332193Y165427D01*
X332193Y166828D02*
X314167Y166828D01*
X314167Y168229D02*
X332193Y168229D01*
X332193Y169630D02*
X314167Y169630D01*
X314167Y152727D02*
X332193Y152727D01*
X314167Y152727D02*
X314167Y157153D01*
X332193Y157153D01*
X332193Y152727D01*
X332193Y154128D02*
X314167Y154128D01*
X314167Y155529D02*
X332193Y155529D01*
X332193Y156930D02*
X314167Y156930D01*
X314167Y140027D02*
X332193Y140027D01*
X314167Y140027D02*
X314167Y144453D01*
X332193Y144453D01*
X332193Y140027D01*
X332193Y141428D02*
X314167Y141428D01*
X314167Y142829D02*
X332193Y142829D01*
X332193Y144230D02*
X314167Y144230D01*
X363767Y140027D02*
X381793Y140027D01*
X363767Y140027D02*
X363767Y144453D01*
X381793Y144453D01*
X381793Y140027D01*
X381793Y141428D02*
X363767Y141428D01*
X363767Y142829D02*
X381793Y142829D01*
X381793Y144230D02*
X363767Y144230D01*
X363767Y152727D02*
X381793Y152727D01*
X363767Y152727D02*
X363767Y157153D01*
X381793Y157153D01*
X381793Y152727D01*
X381793Y154128D02*
X363767Y154128D01*
X363767Y155529D02*
X381793Y155529D01*
X381793Y156930D02*
X363767Y156930D01*
X363767Y165427D02*
X381793Y165427D01*
X363767Y165427D02*
X363767Y169853D01*
X381793Y169853D01*
X381793Y165427D01*
X381793Y166828D02*
X363767Y166828D01*
X363767Y168229D02*
X381793Y168229D01*
X381793Y169630D02*
X363767Y169630D01*
X363767Y178127D02*
X381793Y178127D01*
X363767Y178127D02*
X363767Y182553D01*
X381793Y182553D01*
X381793Y178127D01*
X381793Y179528D02*
X363767Y179528D01*
X363767Y180929D02*
X381793Y180929D01*
X381793Y182330D02*
X363767Y182330D01*
X363767Y190827D02*
X381793Y190827D01*
X363767Y190827D02*
X363767Y195253D01*
X381793Y195253D01*
X381793Y190827D01*
X381793Y192228D02*
X363767Y192228D01*
X363767Y193629D02*
X381793Y193629D01*
X381793Y195030D02*
X363767Y195030D01*
X363767Y203527D02*
X381793Y203527D01*
X363767Y203527D02*
X363767Y207953D01*
X381793Y207953D01*
X381793Y203527D01*
X381793Y204928D02*
X363767Y204928D01*
X363767Y206329D02*
X381793Y206329D01*
X381793Y207730D02*
X363767Y207730D01*
X363767Y216227D02*
X381793Y216227D01*
X363767Y216227D02*
X363767Y220653D01*
X381793Y220653D01*
X381793Y216227D01*
X381793Y217628D02*
X363767Y217628D01*
X363767Y219029D02*
X381793Y219029D01*
X381793Y220430D02*
X363767Y220430D01*
D16*
X373380Y31314D03*
D17*
X338434Y31314D03*
X408326Y31314D03*
D18*
X692586Y228600D03*
D19*
X692586Y193654D03*
X692586Y263546D03*
D11*
X505460Y254000D03*
X505460Y220900D03*
X596260Y228600D03*
X596260Y177800D03*
X505460Y185500D03*
X505460Y152400D03*
M02*
