G04 EAGLE Gerber RS-274X export*
G75*
%MOMM*%
%FSLAX34Y34*%
%LPD*%
%INSoldermask Top*%
%IPPOS*%
%AMOC8*
5,1,8,0,0,1.08239X$1,22.5*%
G01*
%ADD10C,3.203200*%
%ADD11R,1.503200X1.703200*%
%ADD12R,2.203200X2.203200*%
%ADD13R,1.703200X1.503200*%
%ADD14R,1.103200X2.203200*%
%ADD15R,1.503200X2.203200*%
%ADD16C,0.349006*%
%ADD17R,1.981200X4.394200*%
%ADD18R,2.870200X4.394200*%
%ADD19C,2.184400*%
%ADD20R,4.394200X1.981200*%
%ADD21R,4.394200X2.870200*%
%ADD22C,1.703200*%
%ADD23C,0.959600*%


D10*
X50000Y100000D03*
X640000Y185000D03*
X200000Y35000D03*
X500000Y35000D03*
D11*
X374040Y76200D03*
X393040Y76200D03*
D12*
X459260Y248920D03*
X459260Y198920D03*
D13*
X535940Y104800D03*
X535940Y123800D03*
D11*
X628040Y228600D03*
X647040Y228600D03*
D13*
X566420Y50190D03*
X566420Y69190D03*
D11*
X140360Y226060D03*
X159360Y226060D03*
D13*
X426720Y145440D03*
X426720Y164440D03*
X114300Y79400D03*
X114300Y98400D03*
X205740Y98400D03*
X205740Y79400D03*
X279400Y158140D03*
X279400Y177140D03*
X236220Y98400D03*
X236220Y79400D03*
X469900Y79400D03*
X469900Y98400D03*
X497840Y79400D03*
X497840Y98400D03*
D14*
X412720Y77060D03*
D15*
X426720Y121060D03*
D14*
X440720Y77060D03*
D13*
X266700Y79400D03*
X266700Y98400D03*
X299720Y99720D03*
X299720Y118720D03*
D11*
X295250Y210820D03*
X276250Y210820D03*
D13*
X401320Y215240D03*
X401320Y196240D03*
X566420Y123800D03*
X566420Y104800D03*
D11*
X179680Y200660D03*
X160680Y200660D03*
D13*
X195580Y155600D03*
X195580Y174600D03*
D14*
X201900Y201520D03*
D15*
X215900Y245520D03*
D14*
X229900Y201520D03*
D13*
X226060Y155600D03*
X226060Y174600D03*
X251460Y175920D03*
X251460Y194920D03*
X170180Y98400D03*
X170180Y79400D03*
X142240Y79400D03*
X142240Y98400D03*
X401320Y145440D03*
X401320Y164440D03*
D16*
X332201Y216219D02*
X314159Y216219D01*
X314159Y220661D01*
X332201Y220661D01*
X332201Y216219D01*
X332201Y219534D02*
X314159Y219534D01*
X314159Y203519D02*
X332201Y203519D01*
X314159Y203519D02*
X314159Y207961D01*
X332201Y207961D01*
X332201Y203519D01*
X332201Y206834D02*
X314159Y206834D01*
X314159Y190819D02*
X332201Y190819D01*
X314159Y190819D02*
X314159Y195261D01*
X332201Y195261D01*
X332201Y190819D01*
X332201Y194134D02*
X314159Y194134D01*
X314159Y178119D02*
X332201Y178119D01*
X314159Y178119D02*
X314159Y182561D01*
X332201Y182561D01*
X332201Y178119D01*
X332201Y181434D02*
X314159Y181434D01*
X314159Y165419D02*
X332201Y165419D01*
X314159Y165419D02*
X314159Y169861D01*
X332201Y169861D01*
X332201Y165419D01*
X332201Y168734D02*
X314159Y168734D01*
X314159Y152719D02*
X332201Y152719D01*
X314159Y152719D02*
X314159Y157161D01*
X332201Y157161D01*
X332201Y152719D01*
X332201Y156034D02*
X314159Y156034D01*
X314159Y140019D02*
X332201Y140019D01*
X314159Y140019D02*
X314159Y144461D01*
X332201Y144461D01*
X332201Y140019D01*
X332201Y143334D02*
X314159Y143334D01*
X363759Y140019D02*
X381801Y140019D01*
X363759Y140019D02*
X363759Y144461D01*
X381801Y144461D01*
X381801Y140019D01*
X381801Y143334D02*
X363759Y143334D01*
X363759Y152719D02*
X381801Y152719D01*
X363759Y152719D02*
X363759Y157161D01*
X381801Y157161D01*
X381801Y152719D01*
X381801Y156034D02*
X363759Y156034D01*
X363759Y165419D02*
X381801Y165419D01*
X363759Y165419D02*
X363759Y169861D01*
X381801Y169861D01*
X381801Y165419D01*
X381801Y168734D02*
X363759Y168734D01*
X363759Y178119D02*
X381801Y178119D01*
X363759Y178119D02*
X363759Y182561D01*
X381801Y182561D01*
X381801Y178119D01*
X381801Y181434D02*
X363759Y181434D01*
X363759Y190819D02*
X381801Y190819D01*
X363759Y190819D02*
X363759Y195261D01*
X381801Y195261D01*
X381801Y190819D01*
X381801Y194134D02*
X363759Y194134D01*
X363759Y203519D02*
X381801Y203519D01*
X363759Y203519D02*
X363759Y207961D01*
X381801Y207961D01*
X381801Y203519D01*
X381801Y206834D02*
X363759Y206834D01*
X363759Y216219D02*
X381801Y216219D01*
X363759Y216219D02*
X363759Y220661D01*
X381801Y220661D01*
X381801Y216219D01*
X381801Y219534D02*
X363759Y219534D01*
D17*
X373380Y31314D03*
D18*
X338434Y31314D03*
X408326Y31314D03*
D19*
X73406Y225806D02*
X53594Y225806D01*
X53594Y175768D02*
X73406Y175768D01*
D20*
X692586Y228600D03*
D21*
X692586Y193654D03*
X692586Y263546D03*
D19*
X672846Y68834D02*
X653034Y68834D01*
X653034Y118872D02*
X672846Y118872D01*
D12*
X505460Y254000D03*
X505460Y220900D03*
X596260Y228600D03*
X596260Y177800D03*
X505460Y185500D03*
X505460Y152400D03*
D22*
X238760Y132080D03*
X373380Y236220D03*
D23*
X372110Y99060D03*
X330200Y99060D03*
M02*
