G04 EAGLE Gerber RS-274X export*
G75*
%MOMM*%
%FSLAX34Y34*%
%LPD*%
%INTop Copper*%
%IPPOS*%
%AMOC8*
5,1,8,0,0,1.08239X$1,22.5*%
G01*
%ADD10R,1.500000X1.300000*%
%ADD11R,1.300000X1.500000*%
%ADD12R,1.200000X1.500000*%
%ADD13R,6.200000X5.400000*%
%ADD14R,1.600000X1.000000*%
%ADD15R,2.200000X0.600000*%
%ADD16C,1.981200*%
%ADD17R,1.778000X4.191000*%
%ADD18R,2.667000X4.191000*%
%ADD19R,4.191000X1.778000*%
%ADD20R,4.191000X2.667000*%
%ADD21R,1.300000X1.600000*%
%ADD22C,1.200000*%
%ADD23C,1.000000*%
%ADD24C,0.600000*%
%ADD25C,0.800000*%

G36*
X129081Y5087D02*
X129081Y5087D01*
X129107Y5084D01*
X129165Y5106D01*
X129225Y5120D01*
X129245Y5137D01*
X129269Y5146D01*
X129311Y5191D01*
X129358Y5230D01*
X129369Y5254D01*
X129387Y5273D01*
X129404Y5332D01*
X129429Y5389D01*
X129428Y5414D01*
X129436Y5439D01*
X129425Y5500D01*
X129423Y5562D01*
X129410Y5584D01*
X129406Y5610D01*
X129358Y5681D01*
X129340Y5714D01*
X129332Y5720D01*
X129325Y5730D01*
X126999Y8055D01*
X126999Y12265D01*
X129975Y15241D01*
X136758Y15241D01*
X136808Y15252D01*
X136859Y15254D01*
X136891Y15272D01*
X136927Y15280D01*
X136966Y15313D01*
X137011Y15337D01*
X137032Y15367D01*
X137060Y15390D01*
X137081Y15437D01*
X137111Y15479D01*
X137119Y15521D01*
X137131Y15549D01*
X137130Y15579D01*
X137138Y15621D01*
X137138Y30553D01*
X152633Y30553D01*
X152683Y30564D01*
X152734Y30566D01*
X152766Y30584D01*
X152802Y30592D01*
X152841Y30625D01*
X152886Y30649D01*
X152907Y30679D01*
X152935Y30702D01*
X152956Y30749D01*
X152986Y30791D01*
X152994Y30833D01*
X153006Y30861D01*
X153006Y30865D01*
X153005Y30892D01*
X153013Y30933D01*
X153013Y31315D01*
X153015Y31315D01*
X153015Y30933D01*
X153026Y30883D01*
X153028Y30832D01*
X153046Y30800D01*
X153054Y30764D01*
X153087Y30725D01*
X153111Y30680D01*
X153141Y30659D01*
X153165Y30631D01*
X153211Y30610D01*
X153253Y30580D01*
X153295Y30572D01*
X153323Y30560D01*
X153353Y30561D01*
X153395Y30553D01*
X168890Y30553D01*
X168890Y15621D01*
X168901Y15571D01*
X168903Y15520D01*
X168921Y15488D01*
X168929Y15452D01*
X168962Y15413D01*
X168986Y15368D01*
X169016Y15347D01*
X169039Y15319D01*
X169086Y15298D01*
X169128Y15268D01*
X169170Y15260D01*
X169198Y15248D01*
X169228Y15249D01*
X169270Y15241D01*
X173609Y15241D01*
X173659Y15252D01*
X173710Y15254D01*
X173742Y15272D01*
X173778Y15280D01*
X173817Y15313D01*
X173862Y15337D01*
X173883Y15367D01*
X173911Y15390D01*
X173932Y15437D01*
X173962Y15479D01*
X173970Y15521D01*
X173982Y15549D01*
X173981Y15579D01*
X173989Y15621D01*
X173989Y54374D01*
X176768Y57152D01*
X176808Y57217D01*
X176852Y57279D01*
X176854Y57291D01*
X176859Y57299D01*
X176863Y57336D01*
X176879Y57421D01*
X176879Y58779D01*
X176868Y58829D01*
X176866Y58880D01*
X176848Y58912D01*
X176840Y58948D01*
X176807Y58987D01*
X176783Y59032D01*
X176753Y59053D01*
X176730Y59081D01*
X176683Y59102D01*
X176641Y59132D01*
X176599Y59140D01*
X176571Y59152D01*
X176541Y59151D01*
X176499Y59159D01*
X171782Y59159D01*
X171708Y59142D01*
X171633Y59129D01*
X171623Y59122D01*
X171613Y59120D01*
X171585Y59096D01*
X171513Y59048D01*
X170505Y58039D01*
X153295Y58039D01*
X150695Y60640D01*
X150662Y60660D01*
X150635Y60689D01*
X150589Y60705D01*
X150548Y60731D01*
X150509Y60735D01*
X150472Y60748D01*
X150413Y60744D01*
X150375Y60748D01*
X150355Y60740D01*
X150328Y60738D01*
X149735Y60579D01*
X143661Y60579D01*
X143661Y70739D01*
X143650Y70789D01*
X143648Y70840D01*
X143630Y70872D01*
X143622Y70908D01*
X143589Y70947D01*
X143565Y70992D01*
X143535Y71013D01*
X143511Y71041D01*
X143465Y71062D01*
X143423Y71092D01*
X143381Y71100D01*
X143353Y71112D01*
X143323Y71111D01*
X143281Y71119D01*
X142899Y71119D01*
X142899Y71121D01*
X143281Y71121D01*
X143331Y71132D01*
X143382Y71134D01*
X143414Y71152D01*
X143450Y71160D01*
X143489Y71193D01*
X143534Y71217D01*
X143555Y71247D01*
X143583Y71271D01*
X143604Y71317D01*
X143634Y71359D01*
X143642Y71401D01*
X143654Y71429D01*
X143653Y71459D01*
X143661Y71501D01*
X143661Y81661D01*
X149735Y81661D01*
X150328Y81502D01*
X150367Y81501D01*
X150404Y81489D01*
X150452Y81498D01*
X150501Y81496D01*
X150536Y81512D01*
X150575Y81519D01*
X150624Y81553D01*
X150658Y81568D01*
X150672Y81585D01*
X150695Y81600D01*
X153295Y84201D01*
X170505Y84201D01*
X173481Y81225D01*
X173481Y79701D01*
X173492Y79651D01*
X173494Y79600D01*
X173512Y79568D01*
X173520Y79532D01*
X173553Y79493D01*
X173577Y79448D01*
X173607Y79427D01*
X173630Y79399D01*
X173677Y79378D01*
X173719Y79348D01*
X173761Y79340D01*
X173789Y79328D01*
X173819Y79329D01*
X173861Y79321D01*
X174999Y79321D01*
X175049Y79332D01*
X175100Y79334D01*
X175132Y79352D01*
X175168Y79360D01*
X175207Y79393D01*
X175252Y79417D01*
X175273Y79447D01*
X175301Y79470D01*
X175322Y79517D01*
X175352Y79559D01*
X175360Y79601D01*
X175372Y79629D01*
X175371Y79659D01*
X175379Y79701D01*
X175379Y96845D01*
X178355Y99821D01*
X179499Y99821D01*
X179549Y99832D01*
X179600Y99834D01*
X179632Y99852D01*
X179668Y99860D01*
X179707Y99893D01*
X179752Y99917D01*
X179773Y99947D01*
X179801Y99970D01*
X179822Y100017D01*
X179852Y100059D01*
X179860Y100101D01*
X179872Y100129D01*
X179871Y100159D01*
X179879Y100201D01*
X179879Y118447D01*
X181109Y121417D01*
X191003Y131311D01*
X193973Y132541D01*
X194959Y132541D01*
X195009Y132552D01*
X195060Y132554D01*
X195092Y132572D01*
X195128Y132580D01*
X195167Y132613D01*
X195212Y132637D01*
X195233Y132667D01*
X195261Y132690D01*
X195282Y132737D01*
X195312Y132779D01*
X195320Y132821D01*
X195332Y132849D01*
X195331Y132879D01*
X195339Y132921D01*
X195339Y142265D01*
X196316Y143241D01*
X196325Y143256D01*
X196331Y143261D01*
X196338Y143277D01*
X196343Y143284D01*
X196377Y143322D01*
X196388Y143357D01*
X196407Y143388D01*
X196412Y143439D01*
X196427Y143488D01*
X196420Y143524D01*
X196424Y143561D01*
X196406Y143608D01*
X196397Y143659D01*
X196373Y143694D01*
X196362Y143723D01*
X196340Y143744D01*
X196316Y143779D01*
X195339Y144755D01*
X195339Y154965D01*
X198315Y157941D01*
X203019Y157941D01*
X203069Y157952D01*
X203120Y157954D01*
X203152Y157972D01*
X203188Y157980D01*
X203227Y158013D01*
X203272Y158037D01*
X203293Y158067D01*
X203321Y158090D01*
X203342Y158137D01*
X203372Y158179D01*
X203380Y158221D01*
X203392Y158249D01*
X203391Y158279D01*
X203399Y158321D01*
X203399Y162299D01*
X203388Y162349D01*
X203386Y162400D01*
X203368Y162432D01*
X203360Y162468D01*
X203327Y162507D01*
X203303Y162552D01*
X203273Y162573D01*
X203250Y162601D01*
X203203Y162622D01*
X203161Y162652D01*
X203119Y162660D01*
X203091Y162672D01*
X203061Y162671D01*
X203019Y162679D01*
X202875Y162679D01*
X199899Y165655D01*
X199899Y184865D01*
X201288Y186253D01*
X201328Y186318D01*
X201372Y186380D01*
X201374Y186392D01*
X201379Y186400D01*
X201383Y186437D01*
X201399Y186522D01*
X201399Y191938D01*
X201382Y192012D01*
X201369Y192087D01*
X201362Y192097D01*
X201360Y192107D01*
X201336Y192136D01*
X201288Y192207D01*
X199899Y193595D01*
X199899Y212805D01*
X201888Y214793D01*
X201928Y214858D01*
X201972Y214920D01*
X201974Y214932D01*
X201979Y214940D01*
X201983Y214977D01*
X201999Y215062D01*
X201999Y218199D01*
X201988Y218249D01*
X201986Y218300D01*
X201968Y218332D01*
X201960Y218368D01*
X201927Y218407D01*
X201903Y218452D01*
X201873Y218473D01*
X201850Y218501D01*
X201803Y218522D01*
X201761Y218552D01*
X201719Y218560D01*
X201691Y218572D01*
X201661Y218571D01*
X201619Y218579D01*
X200975Y218579D01*
X197999Y221555D01*
X197999Y235765D01*
X200975Y238741D01*
X221185Y238741D01*
X224161Y235765D01*
X224161Y221555D01*
X221185Y218579D01*
X220541Y218579D01*
X220491Y218568D01*
X220440Y218566D01*
X220408Y218548D01*
X220372Y218540D01*
X220333Y218507D01*
X220288Y218483D01*
X220267Y218453D01*
X220239Y218430D01*
X220218Y218383D01*
X220188Y218341D01*
X220180Y218299D01*
X220168Y218271D01*
X220169Y218241D01*
X220161Y218199D01*
X220161Y215862D01*
X220178Y215788D01*
X220191Y215713D01*
X220198Y215703D01*
X220200Y215693D01*
X220224Y215664D01*
X220272Y215593D01*
X222685Y213180D01*
X222718Y213160D01*
X222745Y213131D01*
X222788Y213115D01*
X222803Y213105D01*
X222807Y213104D01*
X222832Y213089D01*
X222871Y213085D01*
X222908Y213072D01*
X222967Y213076D01*
X223005Y213072D01*
X223025Y213080D01*
X223052Y213082D01*
X223645Y213241D01*
X229719Y213241D01*
X229719Y203581D01*
X229730Y203531D01*
X229732Y203480D01*
X229750Y203448D01*
X229758Y203412D01*
X229791Y203373D01*
X229815Y203328D01*
X229845Y203307D01*
X229868Y203279D01*
X229915Y203258D01*
X229957Y203228D01*
X229999Y203220D01*
X230027Y203208D01*
X230057Y203209D01*
X230099Y203201D01*
X230481Y203201D01*
X230481Y203199D01*
X230099Y203199D01*
X230049Y203188D01*
X229998Y203186D01*
X229966Y203168D01*
X229930Y203160D01*
X229891Y203127D01*
X229846Y203103D01*
X229825Y203073D01*
X229797Y203049D01*
X229776Y203003D01*
X229746Y202961D01*
X229738Y202919D01*
X229726Y202891D01*
X229726Y202884D01*
X229726Y202883D01*
X229727Y202859D01*
X229719Y202819D01*
X229719Y193159D01*
X223645Y193159D01*
X223052Y193318D01*
X223013Y193319D01*
X222976Y193331D01*
X222928Y193322D01*
X222879Y193324D01*
X222844Y193308D01*
X222805Y193301D01*
X222756Y193267D01*
X222722Y193252D01*
X222708Y193235D01*
X222685Y193220D01*
X221672Y192207D01*
X221632Y192142D01*
X221588Y192080D01*
X221586Y192068D01*
X221581Y192060D01*
X221577Y192023D01*
X221561Y191938D01*
X221561Y186522D01*
X221578Y186448D01*
X221591Y186373D01*
X221598Y186363D01*
X221600Y186353D01*
X221624Y186325D01*
X221672Y186253D01*
X222685Y185240D01*
X222718Y185220D01*
X222745Y185191D01*
X222791Y185175D01*
X222832Y185149D01*
X222871Y185145D01*
X222908Y185132D01*
X222967Y185136D01*
X223005Y185132D01*
X223025Y185140D01*
X223052Y185142D01*
X223645Y185301D01*
X229719Y185301D01*
X229719Y175641D01*
X229730Y175591D01*
X229732Y175540D01*
X229750Y175508D01*
X229758Y175472D01*
X229791Y175433D01*
X229815Y175388D01*
X229845Y175367D01*
X229868Y175339D01*
X229915Y175318D01*
X229957Y175288D01*
X229999Y175280D01*
X230027Y175268D01*
X230057Y175269D01*
X230099Y175261D01*
X230481Y175261D01*
X230481Y175259D01*
X230099Y175259D01*
X230049Y175248D01*
X229998Y175246D01*
X229966Y175228D01*
X229930Y175220D01*
X229891Y175187D01*
X229846Y175163D01*
X229825Y175133D01*
X229797Y175109D01*
X229776Y175063D01*
X229746Y175021D01*
X229738Y174979D01*
X229726Y174951D01*
X229727Y174921D01*
X229719Y174879D01*
X229719Y165219D01*
X223645Y165219D01*
X223052Y165378D01*
X223013Y165379D01*
X222976Y165391D01*
X222928Y165382D01*
X222879Y165384D01*
X222844Y165368D01*
X222805Y165361D01*
X222756Y165327D01*
X222722Y165312D01*
X222708Y165295D01*
X222685Y165280D01*
X220085Y162679D01*
X219941Y162679D01*
X219891Y162668D01*
X219840Y162666D01*
X219808Y162648D01*
X219772Y162640D01*
X219733Y162607D01*
X219688Y162583D01*
X219667Y162553D01*
X219639Y162530D01*
X219618Y162483D01*
X219588Y162441D01*
X219580Y162399D01*
X219568Y162371D01*
X219569Y162341D01*
X219561Y162299D01*
X219561Y158321D01*
X219572Y158271D01*
X219574Y158220D01*
X219592Y158188D01*
X219600Y158152D01*
X219633Y158113D01*
X219657Y158068D01*
X219687Y158047D01*
X219710Y158019D01*
X219757Y157998D01*
X219799Y157968D01*
X219841Y157960D01*
X219869Y157948D01*
X219899Y157949D01*
X219941Y157941D01*
X224525Y157941D01*
X227501Y154965D01*
X227501Y144755D01*
X226524Y143779D01*
X226497Y143736D01*
X226463Y143698D01*
X226452Y143663D01*
X226433Y143632D01*
X226428Y143581D01*
X226413Y143532D01*
X226420Y143496D01*
X226416Y143459D01*
X226434Y143412D01*
X226443Y143361D01*
X226467Y143326D01*
X226478Y143297D01*
X226500Y143276D01*
X226524Y143241D01*
X227501Y142265D01*
X227501Y132055D01*
X226524Y131079D01*
X226497Y131036D01*
X226463Y130998D01*
X226452Y130963D01*
X226433Y130932D01*
X226428Y130881D01*
X226413Y130832D01*
X226420Y130796D01*
X226416Y130759D01*
X226434Y130712D01*
X226443Y130661D01*
X226467Y130626D01*
X226478Y130597D01*
X226500Y130576D01*
X226524Y130541D01*
X227501Y129565D01*
X227501Y120221D01*
X227512Y120171D01*
X227514Y120120D01*
X227532Y120088D01*
X227540Y120052D01*
X227573Y120013D01*
X227597Y119968D01*
X227627Y119947D01*
X227650Y119919D01*
X227697Y119898D01*
X227739Y119868D01*
X227781Y119860D01*
X227809Y119848D01*
X227839Y119849D01*
X227881Y119841D01*
X230879Y119841D01*
X230929Y119852D01*
X230980Y119854D01*
X231012Y119872D01*
X231048Y119880D01*
X231087Y119913D01*
X231132Y119937D01*
X231153Y119967D01*
X231181Y119990D01*
X231202Y120037D01*
X231232Y120079D01*
X231240Y120121D01*
X231252Y120149D01*
X231251Y120179D01*
X231259Y120221D01*
X231259Y123565D01*
X231886Y124191D01*
X231913Y124234D01*
X231947Y124272D01*
X231958Y124307D01*
X231977Y124338D01*
X231982Y124389D01*
X231997Y124438D01*
X231990Y124474D01*
X231994Y124511D01*
X231976Y124558D01*
X231967Y124609D01*
X231943Y124644D01*
X231932Y124673D01*
X231910Y124694D01*
X231886Y124729D01*
X231259Y125355D01*
X231259Y142565D01*
X234235Y145541D01*
X253445Y145541D01*
X253833Y145152D01*
X253898Y145112D01*
X253960Y145068D01*
X253972Y145066D01*
X253980Y145061D01*
X254017Y145057D01*
X254102Y145041D01*
X269930Y145041D01*
X269980Y145052D01*
X270031Y145054D01*
X270063Y145072D01*
X270099Y145080D01*
X270138Y145113D01*
X270183Y145137D01*
X270204Y145167D01*
X270232Y145190D01*
X270253Y145237D01*
X270283Y145279D01*
X270291Y145321D01*
X270303Y145349D01*
X270302Y145379D01*
X270310Y145421D01*
X270310Y145615D01*
X273286Y148591D01*
X312039Y148591D01*
X312089Y148602D01*
X312140Y148604D01*
X312172Y148622D01*
X312208Y148630D01*
X312247Y148663D01*
X312292Y148687D01*
X312313Y148717D01*
X312341Y148740D01*
X312362Y148787D01*
X312392Y148829D01*
X312400Y148871D01*
X312412Y148899D01*
X312411Y148929D01*
X312419Y148971D01*
X312419Y153310D01*
X312408Y153360D01*
X312406Y153411D01*
X312388Y153443D01*
X312380Y153479D01*
X312347Y153518D01*
X312323Y153563D01*
X312293Y153584D01*
X312270Y153612D01*
X312223Y153633D01*
X312181Y153663D01*
X312139Y153671D01*
X312111Y153683D01*
X312081Y153682D01*
X312039Y153690D01*
X297107Y153690D01*
X297107Y169185D01*
X297096Y169235D01*
X297094Y169286D01*
X297076Y169318D01*
X297068Y169354D01*
X297035Y169393D01*
X297011Y169438D01*
X296981Y169459D01*
X296957Y169487D01*
X296911Y169508D01*
X296869Y169538D01*
X296827Y169546D01*
X296799Y169558D01*
X296769Y169557D01*
X296727Y169565D01*
X296345Y169565D01*
X296345Y169567D01*
X296727Y169567D01*
X296777Y169578D01*
X296828Y169580D01*
X296860Y169598D01*
X296896Y169606D01*
X296935Y169639D01*
X296980Y169663D01*
X297001Y169693D01*
X297029Y169717D01*
X297050Y169763D01*
X297080Y169805D01*
X297088Y169847D01*
X297100Y169875D01*
X297099Y169905D01*
X297107Y169947D01*
X297107Y185442D01*
X312039Y185442D01*
X312089Y185453D01*
X312140Y185455D01*
X312172Y185473D01*
X312208Y185481D01*
X312247Y185514D01*
X312292Y185538D01*
X312313Y185568D01*
X312341Y185591D01*
X312362Y185638D01*
X312392Y185680D01*
X312400Y185722D01*
X312412Y185750D01*
X312411Y185780D01*
X312419Y185822D01*
X312419Y192605D01*
X315395Y195581D01*
X319605Y195581D01*
X322581Y192605D01*
X322581Y76635D01*
X319605Y73659D01*
X315395Y73659D01*
X312419Y76635D01*
X312419Y83418D01*
X312408Y83468D01*
X312406Y83519D01*
X312388Y83551D01*
X312380Y83587D01*
X312347Y83626D01*
X312323Y83671D01*
X312293Y83692D01*
X312270Y83720D01*
X312223Y83741D01*
X312181Y83771D01*
X312139Y83779D01*
X312111Y83791D01*
X312081Y83790D01*
X312039Y83798D01*
X297107Y83798D01*
X297107Y99293D01*
X297096Y99343D01*
X297094Y99394D01*
X297076Y99426D01*
X297068Y99462D01*
X297035Y99501D01*
X297011Y99546D01*
X296981Y99567D01*
X296957Y99595D01*
X296911Y99616D01*
X296869Y99646D01*
X296827Y99654D01*
X296799Y99666D01*
X296769Y99665D01*
X296727Y99673D01*
X296345Y99673D01*
X296345Y99675D01*
X296727Y99675D01*
X296777Y99686D01*
X296828Y99688D01*
X296860Y99706D01*
X296896Y99714D01*
X296935Y99747D01*
X296980Y99771D01*
X297001Y99801D01*
X297029Y99825D01*
X297050Y99871D01*
X297080Y99913D01*
X297088Y99955D01*
X297100Y99983D01*
X297099Y100013D01*
X297107Y100055D01*
X297107Y115550D01*
X312039Y115550D01*
X312089Y115561D01*
X312140Y115563D01*
X312172Y115581D01*
X312208Y115589D01*
X312247Y115622D01*
X312292Y115646D01*
X312313Y115676D01*
X312341Y115699D01*
X312362Y115746D01*
X312392Y115788D01*
X312400Y115830D01*
X312412Y115858D01*
X312411Y115888D01*
X312419Y115930D01*
X312419Y120269D01*
X312408Y120319D01*
X312406Y120370D01*
X312388Y120402D01*
X312380Y120438D01*
X312347Y120477D01*
X312323Y120522D01*
X312293Y120543D01*
X312270Y120571D01*
X312223Y120592D01*
X312181Y120622D01*
X312139Y120630D01*
X312111Y120642D01*
X312081Y120641D01*
X312039Y120649D01*
X273286Y120649D01*
X271168Y122768D01*
X271103Y122808D01*
X271041Y122852D01*
X271029Y122854D01*
X271021Y122859D01*
X270984Y122863D01*
X270899Y122879D01*
X256801Y122879D01*
X256751Y122868D01*
X256700Y122866D01*
X256668Y122848D01*
X256632Y122840D01*
X256593Y122807D01*
X256548Y122783D01*
X256527Y122753D01*
X256499Y122730D01*
X256478Y122683D01*
X256448Y122641D01*
X256440Y122599D01*
X256428Y122571D01*
X256429Y122541D01*
X256421Y122499D01*
X256421Y106355D01*
X253445Y103379D01*
X234236Y103379D01*
X234047Y103568D01*
X233982Y103608D01*
X233920Y103652D01*
X233908Y103654D01*
X233900Y103659D01*
X233863Y103663D01*
X233778Y103679D01*
X198315Y103679D01*
X196690Y105305D01*
X196668Y105319D01*
X196652Y105338D01*
X196595Y105364D01*
X196543Y105396D01*
X196517Y105399D01*
X196493Y105409D01*
X196432Y105407D01*
X196370Y105413D01*
X196346Y105404D01*
X196320Y105403D01*
X196266Y105373D01*
X196208Y105351D01*
X196191Y105332D01*
X196168Y105320D01*
X196133Y105270D01*
X196091Y105224D01*
X196083Y105199D01*
X196068Y105178D01*
X196052Y105094D01*
X196041Y105058D01*
X196043Y105048D01*
X196041Y105036D01*
X196041Y100201D01*
X196052Y100151D01*
X196054Y100100D01*
X196072Y100068D01*
X196080Y100032D01*
X196113Y99993D01*
X196137Y99948D01*
X196167Y99927D01*
X196190Y99899D01*
X196237Y99878D01*
X196279Y99848D01*
X196321Y99840D01*
X196349Y99828D01*
X196379Y99829D01*
X196421Y99821D01*
X197565Y99821D01*
X200541Y96845D01*
X200541Y79635D01*
X199914Y79009D01*
X199887Y78966D01*
X199853Y78928D01*
X199842Y78893D01*
X199823Y78862D01*
X199818Y78811D01*
X199803Y78762D01*
X199810Y78726D01*
X199806Y78689D01*
X199824Y78642D01*
X199833Y78591D01*
X199857Y78556D01*
X199868Y78527D01*
X199890Y78506D01*
X199914Y78471D01*
X200541Y77845D01*
X200541Y60635D01*
X199152Y59247D01*
X199112Y59182D01*
X199068Y59120D01*
X199066Y59108D01*
X199061Y59100D01*
X199057Y59063D01*
X199041Y58978D01*
X199041Y57421D01*
X199058Y57347D01*
X199071Y57272D01*
X199078Y57262D01*
X199080Y57252D01*
X199104Y57223D01*
X199152Y57152D01*
X201931Y54374D01*
X201931Y15621D01*
X201942Y15571D01*
X201944Y15520D01*
X201962Y15488D01*
X201970Y15452D01*
X202003Y15413D01*
X202027Y15368D01*
X202057Y15347D01*
X202080Y15319D01*
X202127Y15298D01*
X202169Y15268D01*
X202211Y15260D01*
X202239Y15248D01*
X202269Y15249D01*
X202311Y15241D01*
X206650Y15241D01*
X206700Y15252D01*
X206751Y15254D01*
X206783Y15272D01*
X206819Y15280D01*
X206858Y15313D01*
X206903Y15337D01*
X206924Y15367D01*
X206952Y15390D01*
X206973Y15437D01*
X207003Y15479D01*
X207011Y15521D01*
X207023Y15549D01*
X207022Y15579D01*
X207030Y15621D01*
X207030Y30553D01*
X222525Y30553D01*
X222575Y30564D01*
X222626Y30566D01*
X222658Y30584D01*
X222694Y30592D01*
X222733Y30625D01*
X222778Y30649D01*
X222799Y30679D01*
X222827Y30702D01*
X222848Y30749D01*
X222878Y30791D01*
X222886Y30833D01*
X222898Y30861D01*
X222898Y30865D01*
X222897Y30892D01*
X222905Y30933D01*
X222905Y31315D01*
X222907Y31315D01*
X222907Y30933D01*
X222918Y30883D01*
X222920Y30832D01*
X222938Y30800D01*
X222946Y30764D01*
X222979Y30725D01*
X223003Y30680D01*
X223033Y30659D01*
X223057Y30631D01*
X223103Y30610D01*
X223145Y30580D01*
X223187Y30572D01*
X223215Y30560D01*
X223245Y30561D01*
X223287Y30553D01*
X238782Y30553D01*
X238782Y15621D01*
X238793Y15571D01*
X238795Y15520D01*
X238813Y15488D01*
X238821Y15452D01*
X238854Y15413D01*
X238878Y15368D01*
X238908Y15347D01*
X238931Y15319D01*
X238978Y15298D01*
X239020Y15268D01*
X239062Y15260D01*
X239090Y15248D01*
X239120Y15249D01*
X239162Y15241D01*
X245945Y15241D01*
X248921Y12265D01*
X248921Y8055D01*
X246595Y5730D01*
X246581Y5708D01*
X246562Y5692D01*
X246536Y5635D01*
X246504Y5583D01*
X246501Y5557D01*
X246491Y5533D01*
X246493Y5472D01*
X246487Y5410D01*
X246496Y5386D01*
X246497Y5360D01*
X246527Y5306D01*
X246549Y5248D01*
X246568Y5231D01*
X246580Y5208D01*
X246630Y5173D01*
X246676Y5131D01*
X246701Y5123D01*
X246722Y5108D01*
X246806Y5092D01*
X246842Y5081D01*
X246852Y5083D01*
X246864Y5081D01*
X324539Y5081D01*
X324589Y5092D01*
X324640Y5094D01*
X324672Y5112D01*
X324708Y5120D01*
X324747Y5153D01*
X324792Y5177D01*
X324813Y5207D01*
X324841Y5230D01*
X324862Y5277D01*
X324892Y5319D01*
X324900Y5361D01*
X324912Y5389D01*
X324911Y5419D01*
X324919Y5461D01*
X324919Y324539D01*
X324908Y324589D01*
X324906Y324640D01*
X324888Y324672D01*
X324880Y324708D01*
X324847Y324747D01*
X324823Y324792D01*
X324793Y324813D01*
X324770Y324841D01*
X324723Y324862D01*
X324681Y324892D01*
X324639Y324900D01*
X324611Y324912D01*
X324581Y324911D01*
X324539Y324919D01*
X5461Y324919D01*
X5411Y324908D01*
X5360Y324906D01*
X5328Y324888D01*
X5292Y324880D01*
X5253Y324847D01*
X5208Y324823D01*
X5187Y324793D01*
X5159Y324770D01*
X5138Y324723D01*
X5108Y324681D01*
X5100Y324639D01*
X5088Y324611D01*
X5089Y324581D01*
X5081Y324539D01*
X5081Y208764D01*
X5087Y208739D01*
X5084Y208713D01*
X5106Y208655D01*
X5120Y208595D01*
X5137Y208575D01*
X5146Y208551D01*
X5191Y208509D01*
X5230Y208462D01*
X5254Y208451D01*
X5273Y208433D01*
X5332Y208416D01*
X5389Y208391D01*
X5414Y208392D01*
X5439Y208384D01*
X5500Y208395D01*
X5562Y208397D01*
X5584Y208410D01*
X5610Y208414D01*
X5681Y208462D01*
X5714Y208480D01*
X5720Y208488D01*
X5730Y208495D01*
X8055Y210821D01*
X12265Y210821D01*
X15241Y207845D01*
X15241Y201062D01*
X15252Y201012D01*
X15254Y200961D01*
X15272Y200929D01*
X15280Y200893D01*
X15313Y200854D01*
X15337Y200809D01*
X15367Y200788D01*
X15390Y200760D01*
X15437Y200739D01*
X15479Y200709D01*
X15521Y200701D01*
X15549Y200689D01*
X15579Y200690D01*
X15621Y200682D01*
X30553Y200682D01*
X30553Y185187D01*
X30564Y185137D01*
X30566Y185086D01*
X30584Y185054D01*
X30592Y185018D01*
X30625Y184979D01*
X30649Y184934D01*
X30679Y184913D01*
X30702Y184885D01*
X30749Y184864D01*
X30791Y184834D01*
X30833Y184826D01*
X30861Y184814D01*
X30891Y184815D01*
X30933Y184807D01*
X31315Y184807D01*
X31315Y184805D01*
X30933Y184805D01*
X30883Y184794D01*
X30832Y184792D01*
X30800Y184774D01*
X30764Y184766D01*
X30725Y184733D01*
X30680Y184709D01*
X30659Y184679D01*
X30631Y184655D01*
X30610Y184609D01*
X30580Y184567D01*
X30572Y184525D01*
X30560Y184497D01*
X30561Y184467D01*
X30553Y184425D01*
X30553Y168930D01*
X15621Y168930D01*
X15571Y168919D01*
X15520Y168917D01*
X15488Y168899D01*
X15452Y168891D01*
X15413Y168858D01*
X15368Y168834D01*
X15347Y168804D01*
X15319Y168781D01*
X15298Y168734D01*
X15268Y168692D01*
X15260Y168650D01*
X15248Y168622D01*
X15249Y168592D01*
X15241Y168550D01*
X15241Y164211D01*
X15252Y164161D01*
X15254Y164110D01*
X15272Y164078D01*
X15280Y164042D01*
X15313Y164003D01*
X15337Y163958D01*
X15367Y163937D01*
X15390Y163909D01*
X15437Y163888D01*
X15479Y163858D01*
X15521Y163850D01*
X15549Y163838D01*
X15579Y163839D01*
X15621Y163831D01*
X54374Y163831D01*
X57152Y161052D01*
X57217Y161012D01*
X57279Y160968D01*
X57291Y160966D01*
X57299Y160961D01*
X57336Y160957D01*
X57421Y160941D01*
X69138Y160941D01*
X69212Y160958D01*
X69287Y160971D01*
X69297Y160978D01*
X69307Y160980D01*
X69336Y161004D01*
X69407Y161052D01*
X70795Y162441D01*
X88005Y162441D01*
X88631Y161814D01*
X88674Y161787D01*
X88712Y161753D01*
X88747Y161742D01*
X88778Y161723D01*
X88829Y161718D01*
X88878Y161703D01*
X88914Y161710D01*
X88951Y161706D01*
X88998Y161724D01*
X89049Y161733D01*
X89084Y161757D01*
X89113Y161768D01*
X89134Y161790D01*
X89169Y161814D01*
X89795Y162441D01*
X107005Y162441D01*
X109981Y159465D01*
X109981Y158321D01*
X109992Y158271D01*
X109994Y158220D01*
X110012Y158188D01*
X110020Y158152D01*
X110053Y158113D01*
X110077Y158068D01*
X110107Y158047D01*
X110130Y158019D01*
X110177Y157998D01*
X110219Y157968D01*
X110261Y157960D01*
X110289Y157948D01*
X110319Y157949D01*
X110361Y157941D01*
X172525Y157941D01*
X175501Y154965D01*
X175501Y144755D01*
X174524Y143779D01*
X174497Y143736D01*
X174463Y143698D01*
X174452Y143663D01*
X174433Y143632D01*
X174428Y143581D01*
X174413Y143532D01*
X174420Y143496D01*
X174416Y143459D01*
X174434Y143412D01*
X174443Y143361D01*
X174467Y143326D01*
X174478Y143297D01*
X174500Y143276D01*
X174524Y143241D01*
X175501Y142265D01*
X175501Y132055D01*
X172664Y129219D01*
X172663Y129218D01*
X172662Y129217D01*
X172617Y129143D01*
X172572Y129071D01*
X172572Y129070D01*
X172572Y129069D01*
X172564Y128983D01*
X172556Y128899D01*
X172556Y128898D01*
X172556Y128897D01*
X172603Y128760D01*
X172788Y128441D01*
X172961Y127795D01*
X172961Y125221D01*
X159801Y125221D01*
X159751Y125210D01*
X159700Y125208D01*
X159668Y125190D01*
X159632Y125182D01*
X159593Y125149D01*
X159548Y125125D01*
X159527Y125095D01*
X159499Y125071D01*
X159478Y125025D01*
X159448Y124983D01*
X159440Y124941D01*
X159428Y124913D01*
X159429Y124883D01*
X159421Y124841D01*
X159421Y124079D01*
X159432Y124029D01*
X159434Y123978D01*
X159452Y123946D01*
X159460Y123910D01*
X159493Y123871D01*
X159517Y123826D01*
X159547Y123805D01*
X159571Y123777D01*
X159617Y123756D01*
X159659Y123726D01*
X159701Y123718D01*
X159729Y123706D01*
X159759Y123707D01*
X159801Y123699D01*
X172961Y123699D01*
X172961Y121125D01*
X172788Y120479D01*
X172603Y120160D01*
X172603Y120159D01*
X172602Y120158D01*
X172578Y120076D01*
X172553Y119995D01*
X172553Y119993D01*
X172553Y119992D01*
X172568Y119907D01*
X172582Y119824D01*
X172583Y119823D01*
X172583Y119821D01*
X172664Y119701D01*
X175501Y116865D01*
X175501Y106655D01*
X172525Y103679D01*
X146315Y103679D01*
X143339Y106655D01*
X143339Y116865D01*
X146176Y119701D01*
X146177Y119702D01*
X146178Y119703D01*
X146222Y119776D01*
X146268Y119849D01*
X146268Y119850D01*
X146268Y119851D01*
X146276Y119937D01*
X146284Y120021D01*
X146284Y120022D01*
X146284Y120023D01*
X146237Y120160D01*
X146052Y120479D01*
X145879Y121125D01*
X145879Y123699D01*
X159039Y123699D01*
X159089Y123710D01*
X159140Y123712D01*
X159172Y123730D01*
X159208Y123738D01*
X159247Y123771D01*
X159292Y123795D01*
X159313Y123825D01*
X159341Y123848D01*
X159362Y123895D01*
X159392Y123937D01*
X159400Y123979D01*
X159412Y124007D01*
X159411Y124025D01*
X159412Y124027D01*
X159412Y124040D01*
X159419Y124079D01*
X159419Y124841D01*
X159408Y124891D01*
X159406Y124942D01*
X159388Y124974D01*
X159380Y125010D01*
X159347Y125049D01*
X159323Y125094D01*
X159293Y125115D01*
X159269Y125143D01*
X159223Y125164D01*
X159181Y125194D01*
X159139Y125202D01*
X159111Y125214D01*
X159081Y125213D01*
X159039Y125221D01*
X145879Y125221D01*
X145879Y127795D01*
X146052Y128441D01*
X146092Y128509D01*
X146110Y128569D01*
X146136Y128627D01*
X146135Y128651D01*
X146142Y128675D01*
X146132Y128737D01*
X146129Y128800D01*
X146117Y128821D01*
X146113Y128846D01*
X146077Y128897D01*
X146046Y128952D01*
X146026Y128966D01*
X146012Y128986D01*
X145956Y129015D01*
X145905Y129052D01*
X145878Y129057D01*
X145859Y129067D01*
X145821Y129068D01*
X145763Y129079D01*
X142501Y129079D01*
X142451Y129068D01*
X142400Y129066D01*
X142368Y129048D01*
X142332Y129040D01*
X142293Y129007D01*
X142248Y128983D01*
X142227Y128953D01*
X142199Y128930D01*
X142178Y128883D01*
X142148Y128841D01*
X142140Y128799D01*
X142128Y128771D01*
X142129Y128741D01*
X142121Y128699D01*
X142121Y125355D01*
X139520Y122755D01*
X139500Y122722D01*
X139471Y122695D01*
X139455Y122649D01*
X139429Y122608D01*
X139425Y122569D01*
X139412Y122532D01*
X139416Y122473D01*
X139412Y122435D01*
X139420Y122415D01*
X139422Y122388D01*
X139581Y121795D01*
X139581Y115721D01*
X129921Y115721D01*
X129871Y115710D01*
X129820Y115708D01*
X129788Y115690D01*
X129752Y115682D01*
X129713Y115649D01*
X129668Y115625D01*
X129647Y115595D01*
X129619Y115571D01*
X129598Y115525D01*
X129568Y115483D01*
X129560Y115441D01*
X129548Y115413D01*
X129549Y115383D01*
X129541Y115341D01*
X129541Y114959D01*
X129539Y114959D01*
X129539Y115341D01*
X129528Y115391D01*
X129526Y115442D01*
X129508Y115474D01*
X129500Y115510D01*
X129467Y115549D01*
X129443Y115594D01*
X129413Y115615D01*
X129389Y115643D01*
X129343Y115664D01*
X129301Y115694D01*
X129259Y115702D01*
X129231Y115714D01*
X129201Y115713D01*
X129159Y115721D01*
X119499Y115721D01*
X119499Y121795D01*
X119658Y122388D01*
X119659Y122427D01*
X119671Y122464D01*
X119662Y122512D01*
X119664Y122561D01*
X119648Y122596D01*
X119641Y122635D01*
X119607Y122684D01*
X119592Y122718D01*
X119575Y122732D01*
X119560Y122755D01*
X116959Y125355D01*
X116959Y141399D01*
X116948Y141449D01*
X116946Y141500D01*
X116928Y141532D01*
X116920Y141568D01*
X116887Y141607D01*
X116863Y141652D01*
X116833Y141673D01*
X116810Y141701D01*
X116763Y141722D01*
X116721Y141752D01*
X116679Y141760D01*
X116651Y141772D01*
X116621Y141771D01*
X116579Y141779D01*
X110361Y141779D01*
X110311Y141768D01*
X110260Y141766D01*
X110228Y141748D01*
X110192Y141740D01*
X110153Y141707D01*
X110108Y141683D01*
X110087Y141653D01*
X110059Y141630D01*
X110038Y141583D01*
X110008Y141541D01*
X110000Y141499D01*
X109988Y141471D01*
X109989Y141441D01*
X109981Y141399D01*
X109981Y140255D01*
X107005Y137279D01*
X89795Y137279D01*
X89169Y137906D01*
X89126Y137933D01*
X89088Y137967D01*
X89053Y137978D01*
X89022Y137997D01*
X88971Y138002D01*
X88922Y138017D01*
X88886Y138010D01*
X88849Y138014D01*
X88802Y137996D01*
X88751Y137987D01*
X88716Y137963D01*
X88687Y137952D01*
X88666Y137930D01*
X88631Y137906D01*
X88005Y137279D01*
X70795Y137279D01*
X69407Y138668D01*
X69342Y138708D01*
X69280Y138752D01*
X69268Y138754D01*
X69260Y138759D01*
X69223Y138763D01*
X69138Y138779D01*
X57421Y138779D01*
X57347Y138762D01*
X57272Y138749D01*
X57262Y138742D01*
X57252Y138740D01*
X57223Y138716D01*
X57152Y138668D01*
X54374Y135889D01*
X15621Y135889D01*
X15571Y135878D01*
X15520Y135876D01*
X15488Y135858D01*
X15452Y135850D01*
X15413Y135817D01*
X15368Y135793D01*
X15347Y135763D01*
X15319Y135740D01*
X15298Y135693D01*
X15268Y135651D01*
X15260Y135609D01*
X15248Y135581D01*
X15248Y135579D01*
X15249Y135550D01*
X15241Y135509D01*
X15241Y131170D01*
X15252Y131120D01*
X15254Y131069D01*
X15272Y131037D01*
X15280Y131001D01*
X15313Y130962D01*
X15337Y130917D01*
X15367Y130896D01*
X15390Y130868D01*
X15437Y130847D01*
X15479Y130817D01*
X15521Y130809D01*
X15549Y130797D01*
X15579Y130798D01*
X15621Y130790D01*
X30553Y130790D01*
X30553Y115295D01*
X30564Y115245D01*
X30566Y115194D01*
X30584Y115162D01*
X30592Y115126D01*
X30625Y115087D01*
X30649Y115042D01*
X30679Y115021D01*
X30702Y114993D01*
X30749Y114972D01*
X30791Y114942D01*
X30833Y114934D01*
X30861Y114922D01*
X30891Y114923D01*
X30933Y114915D01*
X31315Y114915D01*
X31315Y114913D01*
X30933Y114913D01*
X30883Y114902D01*
X30832Y114900D01*
X30800Y114882D01*
X30764Y114874D01*
X30725Y114841D01*
X30680Y114817D01*
X30659Y114787D01*
X30631Y114763D01*
X30610Y114717D01*
X30580Y114675D01*
X30572Y114633D01*
X30560Y114605D01*
X30561Y114575D01*
X30553Y114533D01*
X30553Y99038D01*
X15621Y99038D01*
X15571Y99027D01*
X15520Y99025D01*
X15488Y99007D01*
X15452Y98999D01*
X15413Y98966D01*
X15368Y98942D01*
X15347Y98912D01*
X15319Y98889D01*
X15298Y98842D01*
X15268Y98800D01*
X15260Y98758D01*
X15248Y98730D01*
X15249Y98700D01*
X15248Y98695D01*
X15248Y98694D01*
X15241Y98658D01*
X15241Y91875D01*
X12265Y88899D01*
X8055Y88899D01*
X5730Y91225D01*
X5708Y91239D01*
X5692Y91258D01*
X5635Y91284D01*
X5583Y91316D01*
X5557Y91319D01*
X5533Y91329D01*
X5472Y91327D01*
X5410Y91333D01*
X5386Y91324D01*
X5360Y91323D01*
X5306Y91293D01*
X5248Y91271D01*
X5231Y91252D01*
X5208Y91240D01*
X5173Y91190D01*
X5131Y91144D01*
X5123Y91119D01*
X5108Y91098D01*
X5092Y91014D01*
X5081Y90978D01*
X5083Y90968D01*
X5081Y90956D01*
X5081Y5461D01*
X5092Y5411D01*
X5094Y5360D01*
X5112Y5328D01*
X5120Y5292D01*
X5153Y5253D01*
X5177Y5208D01*
X5207Y5187D01*
X5230Y5159D01*
X5277Y5138D01*
X5319Y5108D01*
X5361Y5100D01*
X5389Y5088D01*
X5419Y5089D01*
X5461Y5081D01*
X129056Y5081D01*
X129081Y5087D01*
G37*
%LPC*%
G36*
X139699Y274979D02*
X139699Y274979D01*
X139699Y275361D01*
X139688Y275411D01*
X139686Y275462D01*
X139668Y275494D01*
X139660Y275530D01*
X139627Y275569D01*
X139603Y275614D01*
X139573Y275635D01*
X139549Y275663D01*
X139503Y275684D01*
X139461Y275714D01*
X139419Y275722D01*
X139391Y275734D01*
X139361Y275733D01*
X139319Y275741D01*
X129659Y275741D01*
X129659Y281815D01*
X129818Y282408D01*
X129819Y282447D01*
X129831Y282484D01*
X129822Y282532D01*
X129824Y282581D01*
X129808Y282616D01*
X129801Y282655D01*
X129767Y282704D01*
X129752Y282738D01*
X129735Y282752D01*
X129720Y282775D01*
X129555Y282940D01*
X129490Y282980D01*
X129428Y283024D01*
X129416Y283026D01*
X129408Y283031D01*
X129371Y283035D01*
X129286Y283051D01*
X83677Y283051D01*
X83603Y283034D01*
X83528Y283021D01*
X83518Y283014D01*
X83509Y283012D01*
X83480Y282988D01*
X83408Y282940D01*
X81895Y281427D01*
X76387Y279145D01*
X50613Y279145D01*
X45105Y281427D01*
X40889Y285643D01*
X38607Y291151D01*
X38607Y297113D01*
X40889Y302621D01*
X45105Y306837D01*
X50613Y309119D01*
X76387Y309119D01*
X81895Y306837D01*
X83408Y305324D01*
X83473Y305284D01*
X83535Y305240D01*
X83547Y305238D01*
X83556Y305233D01*
X83593Y305229D01*
X83677Y305213D01*
X129590Y305213D01*
X129664Y305230D01*
X129739Y305243D01*
X129749Y305250D01*
X129759Y305252D01*
X129787Y305276D01*
X129859Y305324D01*
X130095Y305561D01*
X149304Y305561D01*
X149493Y305372D01*
X149558Y305332D01*
X149620Y305288D01*
X149632Y305286D01*
X149640Y305281D01*
X149677Y305277D01*
X149762Y305261D01*
X153639Y305261D01*
X153689Y305272D01*
X153740Y305274D01*
X153772Y305292D01*
X153808Y305300D01*
X153847Y305333D01*
X153892Y305357D01*
X153913Y305387D01*
X153941Y305410D01*
X153962Y305457D01*
X153992Y305499D01*
X154000Y305541D01*
X154012Y305569D01*
X154011Y305599D01*
X154019Y305641D01*
X154019Y308585D01*
X156995Y311561D01*
X173205Y311561D01*
X176181Y308585D01*
X176181Y289375D01*
X173205Y286399D01*
X156995Y286399D01*
X154407Y288988D01*
X154342Y289028D01*
X154280Y289072D01*
X154268Y289074D01*
X154260Y289079D01*
X154223Y289083D01*
X154138Y289099D01*
X152661Y289099D01*
X152611Y289088D01*
X152560Y289086D01*
X152528Y289068D01*
X152492Y289060D01*
X152453Y289027D01*
X152408Y289003D01*
X152387Y288973D01*
X152359Y288950D01*
X152338Y288903D01*
X152308Y288861D01*
X152300Y288819D01*
X152288Y288791D01*
X152289Y288761D01*
X152281Y288719D01*
X152281Y285375D01*
X149680Y282775D01*
X149660Y282742D01*
X149631Y282715D01*
X149615Y282669D01*
X149589Y282628D01*
X149585Y282589D01*
X149572Y282552D01*
X149576Y282493D01*
X149572Y282455D01*
X149580Y282435D01*
X149582Y282408D01*
X149741Y281815D01*
X149741Y275741D01*
X140081Y275741D01*
X140031Y275730D01*
X139980Y275728D01*
X139948Y275710D01*
X139912Y275702D01*
X139873Y275669D01*
X139828Y275645D01*
X139807Y275615D01*
X139779Y275591D01*
X139758Y275545D01*
X139728Y275503D01*
X139720Y275461D01*
X139708Y275433D01*
X139709Y275403D01*
X139701Y275361D01*
X139701Y274979D01*
X139699Y274979D01*
G37*
%LPD*%
%LPC*%
G36*
X156995Y257399D02*
X156995Y257399D01*
X154019Y260375D01*
X154019Y279585D01*
X156995Y282561D01*
X173204Y282561D01*
X173313Y282452D01*
X173378Y282412D01*
X173440Y282368D01*
X173452Y282366D01*
X173460Y282361D01*
X173497Y282357D01*
X173582Y282341D01*
X177539Y282341D01*
X177589Y282352D01*
X177640Y282354D01*
X177672Y282372D01*
X177708Y282380D01*
X177747Y282413D01*
X177792Y282437D01*
X177813Y282467D01*
X177841Y282490D01*
X177862Y282537D01*
X177892Y282579D01*
X177900Y282621D01*
X177912Y282649D01*
X177911Y282679D01*
X177919Y282721D01*
X177919Y283585D01*
X180520Y286185D01*
X180540Y286218D01*
X180569Y286245D01*
X180585Y286291D01*
X180611Y286332D01*
X180615Y286371D01*
X180628Y286408D01*
X180624Y286467D01*
X180628Y286505D01*
X180620Y286525D01*
X180618Y286552D01*
X180459Y287145D01*
X180459Y293219D01*
X190119Y293219D01*
X190169Y293230D01*
X190220Y293232D01*
X190252Y293250D01*
X190288Y293258D01*
X190327Y293291D01*
X190372Y293315D01*
X190393Y293345D01*
X190421Y293368D01*
X190442Y293415D01*
X190472Y293457D01*
X190480Y293499D01*
X190492Y293527D01*
X190491Y293557D01*
X190499Y293599D01*
X190499Y293981D01*
X190501Y293981D01*
X190501Y293599D01*
X190512Y293549D01*
X190514Y293498D01*
X190532Y293466D01*
X190540Y293430D01*
X190573Y293391D01*
X190597Y293346D01*
X190627Y293325D01*
X190651Y293297D01*
X190697Y293276D01*
X190739Y293246D01*
X190781Y293238D01*
X190809Y293226D01*
X190839Y293227D01*
X190881Y293219D01*
X200541Y293219D01*
X200541Y287145D01*
X200382Y286552D01*
X200382Y286544D01*
X200379Y286538D01*
X200380Y286511D01*
X200369Y286476D01*
X200378Y286428D01*
X200376Y286379D01*
X200392Y286344D01*
X200399Y286305D01*
X200433Y286256D01*
X200448Y286222D01*
X200465Y286208D01*
X200480Y286185D01*
X202213Y284452D01*
X202278Y284412D01*
X202340Y284368D01*
X202352Y284366D01*
X202360Y284361D01*
X202397Y284357D01*
X202482Y284341D01*
X221185Y284341D01*
X224161Y281365D01*
X224161Y267155D01*
X221185Y264179D01*
X201042Y264179D01*
X200968Y264162D01*
X200893Y264149D01*
X200883Y264142D01*
X200873Y264140D01*
X200844Y264116D01*
X200773Y264068D01*
X200105Y263399D01*
X180895Y263399D01*
X178227Y266068D01*
X178162Y266108D01*
X178100Y266152D01*
X178088Y266154D01*
X178080Y266159D01*
X178043Y266163D01*
X177958Y266179D01*
X176561Y266179D01*
X176511Y266168D01*
X176460Y266166D01*
X176428Y266148D01*
X176392Y266140D01*
X176353Y266107D01*
X176308Y266083D01*
X176287Y266053D01*
X176259Y266030D01*
X176238Y265983D01*
X176208Y265941D01*
X176200Y265899D01*
X176188Y265871D01*
X176189Y265841D01*
X176181Y265799D01*
X176181Y260375D01*
X173205Y257399D01*
X156995Y257399D01*
G37*
%LPD*%
%LPC*%
G36*
X136006Y169919D02*
X136006Y169919D01*
X128625Y172976D01*
X122976Y178625D01*
X119919Y186006D01*
X119919Y193994D01*
X122976Y201375D01*
X128625Y207024D01*
X136006Y210081D01*
X143994Y210081D01*
X151375Y207024D01*
X157024Y201375D01*
X160081Y193994D01*
X160081Y186006D01*
X157024Y178625D01*
X151375Y172976D01*
X143994Y169919D01*
X136006Y169919D01*
G37*
%LPD*%
%LPC*%
G36*
X276006Y19919D02*
X276006Y19919D01*
X268625Y22976D01*
X262976Y28625D01*
X259919Y36006D01*
X259919Y43994D01*
X262976Y51375D01*
X268625Y57024D01*
X276006Y60081D01*
X283994Y60081D01*
X291375Y57024D01*
X297024Y51375D01*
X300081Y43994D01*
X300081Y36006D01*
X297024Y28625D01*
X291375Y22976D01*
X283994Y19919D01*
X276006Y19919D01*
G37*
%LPD*%
%LPC*%
G36*
X36006Y19919D02*
X36006Y19919D01*
X28625Y22976D01*
X22976Y28625D01*
X19919Y36006D01*
X19919Y43994D01*
X22976Y51375D01*
X28625Y57024D01*
X36006Y60081D01*
X43994Y60081D01*
X51375Y57024D01*
X57024Y51375D01*
X60081Y43994D01*
X60081Y36006D01*
X57024Y28625D01*
X51375Y22976D01*
X43994Y19919D01*
X36006Y19919D01*
G37*
%LPD*%
%LPC*%
G36*
X284841Y252221D02*
X284841Y252221D01*
X284841Y281001D01*
X315415Y281001D01*
X316061Y280828D01*
X316640Y280493D01*
X317113Y280020D01*
X317448Y279441D01*
X317621Y278795D01*
X317621Y252221D01*
X284841Y252221D01*
G37*
%LPD*%
%LPC*%
G36*
X250539Y252221D02*
X250539Y252221D01*
X250539Y278795D01*
X250712Y279441D01*
X251047Y280020D01*
X251520Y280493D01*
X252099Y280828D01*
X252745Y281001D01*
X283319Y281001D01*
X283319Y252221D01*
X250539Y252221D01*
G37*
%LPD*%
%LPC*%
G36*
X284841Y221919D02*
X284841Y221919D01*
X284841Y250699D01*
X317621Y250699D01*
X317621Y224125D01*
X317448Y223479D01*
X317113Y222900D01*
X316640Y222427D01*
X316061Y222092D01*
X315415Y221919D01*
X284841Y221919D01*
G37*
%LPD*%
%LPC*%
G36*
X252745Y221919D02*
X252745Y221919D01*
X252099Y222092D01*
X251520Y222427D01*
X251047Y222900D01*
X250712Y223479D01*
X250539Y224125D01*
X250539Y250699D01*
X283319Y250699D01*
X283319Y221919D01*
X252745Y221919D01*
G37*
%LPD*%
%LPC*%
G36*
X223667Y32075D02*
X223667Y32075D01*
X223667Y54810D01*
X236576Y54810D01*
X237222Y54637D01*
X237801Y54302D01*
X238274Y53829D01*
X238609Y53250D01*
X238782Y52604D01*
X238782Y32075D01*
X223667Y32075D01*
G37*
%LPD*%
%LPC*%
G36*
X153775Y32075D02*
X153775Y32075D01*
X153775Y54810D01*
X166684Y54810D01*
X167330Y54637D01*
X167909Y54302D01*
X168382Y53829D01*
X168717Y53250D01*
X168890Y52604D01*
X168890Y32075D01*
X153775Y32075D01*
G37*
%LPD*%
%LPC*%
G36*
X32075Y185567D02*
X32075Y185567D01*
X32075Y200682D01*
X52604Y200682D01*
X53250Y200509D01*
X53829Y200174D01*
X54302Y199701D01*
X54637Y199122D01*
X54810Y198476D01*
X54810Y185567D01*
X32075Y185567D01*
G37*
%LPD*%
%LPC*%
G36*
X32075Y115675D02*
X32075Y115675D01*
X32075Y130790D01*
X52604Y130790D01*
X53250Y130617D01*
X53829Y130282D01*
X54302Y129809D01*
X54637Y129230D01*
X54810Y128584D01*
X54810Y115675D01*
X32075Y115675D01*
G37*
%LPD*%
%LPC*%
G36*
X272850Y170327D02*
X272850Y170327D01*
X272850Y183236D01*
X273023Y183882D01*
X273358Y184461D01*
X273831Y184934D01*
X274410Y185269D01*
X275056Y185442D01*
X295585Y185442D01*
X295585Y170327D01*
X272850Y170327D01*
G37*
%LPD*%
%LPC*%
G36*
X272850Y100435D02*
X272850Y100435D01*
X272850Y113344D01*
X273023Y113990D01*
X273358Y114569D01*
X273831Y115042D01*
X274410Y115377D01*
X275056Y115550D01*
X295585Y115550D01*
X295585Y100435D01*
X272850Y100435D01*
G37*
%LPD*%
%LPC*%
G36*
X32075Y99038D02*
X32075Y99038D01*
X32075Y114153D01*
X54810Y114153D01*
X54810Y101244D01*
X54637Y100598D01*
X54302Y100019D01*
X53829Y99546D01*
X53250Y99211D01*
X52604Y99038D01*
X32075Y99038D01*
G37*
%LPD*%
%LPC*%
G36*
X207030Y32075D02*
X207030Y32075D01*
X207030Y52604D01*
X207203Y53250D01*
X207538Y53829D01*
X208011Y54302D01*
X208590Y54637D01*
X209236Y54810D01*
X222145Y54810D01*
X222145Y32075D01*
X207030Y32075D01*
G37*
%LPD*%
%LPC*%
G36*
X32075Y168930D02*
X32075Y168930D01*
X32075Y184045D01*
X54810Y184045D01*
X54810Y171136D01*
X54637Y170490D01*
X54302Y169911D01*
X53829Y169438D01*
X53250Y169103D01*
X52604Y168930D01*
X32075Y168930D01*
G37*
%LPD*%
%LPC*%
G36*
X137138Y32075D02*
X137138Y32075D01*
X137138Y52604D01*
X137311Y53250D01*
X137646Y53829D01*
X138119Y54302D01*
X138698Y54637D01*
X139344Y54810D01*
X152253Y54810D01*
X152253Y32075D01*
X137138Y32075D01*
G37*
%LPD*%
%LPC*%
G36*
X275056Y153690D02*
X275056Y153690D01*
X274410Y153863D01*
X273831Y154198D01*
X273358Y154671D01*
X273023Y155250D01*
X272850Y155896D01*
X272850Y168805D01*
X295585Y168805D01*
X295585Y153690D01*
X275056Y153690D01*
G37*
%LPD*%
%LPC*%
G36*
X275056Y83798D02*
X275056Y83798D01*
X274410Y83971D01*
X273831Y84306D01*
X273358Y84779D01*
X273023Y85358D01*
X272850Y86004D01*
X272850Y98913D01*
X295585Y98913D01*
X295585Y83798D01*
X275056Y83798D01*
G37*
%LPD*%
%LPC*%
G36*
X64261Y244855D02*
X64261Y244855D01*
X64261Y256541D01*
X74386Y256541D01*
X76321Y256234D01*
X78184Y255629D01*
X79930Y254739D01*
X81515Y253588D01*
X82900Y252203D01*
X84051Y250618D01*
X84941Y248872D01*
X85546Y247009D01*
X85853Y245074D01*
X85853Y244855D01*
X64261Y244855D01*
G37*
%LPD*%
%LPC*%
G36*
X41147Y244855D02*
X41147Y244855D01*
X41147Y245074D01*
X41454Y247009D01*
X42059Y248872D01*
X42949Y250618D01*
X44100Y252203D01*
X45485Y253588D01*
X47070Y254739D01*
X48816Y255629D01*
X50679Y256234D01*
X52614Y256541D01*
X62739Y256541D01*
X62739Y244855D01*
X41147Y244855D01*
G37*
%LPD*%
%LPC*%
G36*
X64261Y231647D02*
X64261Y231647D01*
X64261Y243333D01*
X85853Y243333D01*
X85853Y243114D01*
X85546Y241179D01*
X84941Y239316D01*
X84051Y237570D01*
X82900Y235985D01*
X81515Y234600D01*
X79930Y233449D01*
X78184Y232559D01*
X76321Y231954D01*
X74386Y231647D01*
X64261Y231647D01*
G37*
%LPD*%
%LPC*%
G36*
X52614Y231647D02*
X52614Y231647D01*
X50679Y231954D01*
X48816Y232559D01*
X47070Y233449D01*
X45485Y234600D01*
X44100Y235985D01*
X42949Y237570D01*
X42059Y239316D01*
X41454Y241179D01*
X41147Y243114D01*
X41147Y243333D01*
X62739Y243333D01*
X62739Y231647D01*
X52614Y231647D01*
G37*
%LPD*%
%LPC*%
G36*
X133859Y71881D02*
X133859Y71881D01*
X133859Y79455D01*
X134032Y80101D01*
X134367Y80680D01*
X134840Y81153D01*
X135419Y81488D01*
X136065Y81661D01*
X142139Y81661D01*
X142139Y71881D01*
X133859Y71881D01*
G37*
%LPD*%
%LPC*%
G36*
X136065Y60579D02*
X136065Y60579D01*
X135419Y60752D01*
X134840Y61087D01*
X134367Y61560D01*
X134032Y62139D01*
X133859Y62785D01*
X133859Y70359D01*
X142139Y70359D01*
X142139Y60579D01*
X136065Y60579D01*
G37*
%LPD*%
%LPC*%
G36*
X231241Y203961D02*
X231241Y203961D01*
X231241Y213241D01*
X237315Y213241D01*
X237961Y213068D01*
X238540Y212733D01*
X239013Y212260D01*
X239348Y211681D01*
X239521Y211035D01*
X239521Y203961D01*
X231241Y203961D01*
G37*
%LPD*%
%LPC*%
G36*
X231241Y176021D02*
X231241Y176021D01*
X231241Y185301D01*
X237315Y185301D01*
X237961Y185128D01*
X238540Y184793D01*
X239013Y184320D01*
X239348Y183741D01*
X239521Y183095D01*
X239521Y176021D01*
X231241Y176021D01*
G37*
%LPD*%
%LPC*%
G36*
X191261Y294741D02*
X191261Y294741D01*
X191261Y303021D01*
X198335Y303021D01*
X198981Y302848D01*
X199560Y302513D01*
X200033Y302040D01*
X200368Y301461D01*
X200541Y300815D01*
X200541Y294741D01*
X191261Y294741D01*
G37*
%LPD*%
%LPC*%
G36*
X231241Y165219D02*
X231241Y165219D01*
X231241Y174499D01*
X239521Y174499D01*
X239521Y167425D01*
X239348Y166779D01*
X239013Y166200D01*
X238540Y165727D01*
X237961Y165392D01*
X237315Y165219D01*
X231241Y165219D01*
G37*
%LPD*%
%LPC*%
G36*
X231241Y193159D02*
X231241Y193159D01*
X231241Y202439D01*
X239521Y202439D01*
X239521Y195365D01*
X239348Y194719D01*
X239013Y194140D01*
X238540Y193667D01*
X237961Y193332D01*
X237315Y193159D01*
X231241Y193159D01*
G37*
%LPD*%
%LPC*%
G36*
X180459Y294741D02*
X180459Y294741D01*
X180459Y300815D01*
X180632Y301461D01*
X180967Y302040D01*
X181440Y302513D01*
X182019Y302848D01*
X182665Y303021D01*
X189739Y303021D01*
X189739Y294741D01*
X180459Y294741D01*
G37*
%LPD*%
%LPC*%
G36*
X140461Y265939D02*
X140461Y265939D01*
X140461Y274219D01*
X149741Y274219D01*
X149741Y268145D01*
X149568Y267499D01*
X149233Y266920D01*
X148760Y266447D01*
X148181Y266112D01*
X147535Y265939D01*
X140461Y265939D01*
G37*
%LPD*%
%LPC*%
G36*
X130301Y105919D02*
X130301Y105919D01*
X130301Y114199D01*
X139581Y114199D01*
X139581Y108125D01*
X139408Y107479D01*
X139073Y106900D01*
X138600Y106427D01*
X138021Y106092D01*
X137375Y105919D01*
X130301Y105919D01*
G37*
%LPD*%
%LPC*%
G36*
X131865Y265939D02*
X131865Y265939D01*
X131219Y266112D01*
X130640Y266447D01*
X130167Y266920D01*
X129832Y267499D01*
X129716Y267934D01*
X129659Y268145D01*
X129659Y274219D01*
X138939Y274219D01*
X138939Y265939D01*
X131865Y265939D01*
G37*
%LPD*%
%LPC*%
G36*
X121705Y105919D02*
X121705Y105919D01*
X121059Y106092D01*
X120480Y106427D01*
X120007Y106900D01*
X119672Y107479D01*
X119499Y108125D01*
X119499Y114199D01*
X128779Y114199D01*
X128779Y105919D01*
X121705Y105919D01*
G37*
%LPD*%
%LPC*%
G36*
X63499Y244093D02*
X63499Y244093D01*
X63499Y244095D01*
X63501Y244095D01*
X63501Y244093D01*
X63499Y244093D01*
G37*
%LPD*%
%LPC*%
G36*
X284079Y251459D02*
X284079Y251459D01*
X284079Y251461D01*
X284081Y251461D01*
X284081Y251459D01*
X284079Y251459D01*
G37*
%LPD*%
D10*
X139700Y274980D03*
X139700Y293980D03*
X190500Y293980D03*
X190500Y274980D03*
D11*
X98400Y149860D03*
X79400Y149860D03*
X230480Y203200D03*
X211480Y203200D03*
D10*
X129540Y114960D03*
X129540Y133960D03*
X187960Y88240D03*
X187960Y69240D03*
D11*
X230480Y175260D03*
X211480Y175260D03*
D10*
X243840Y133960D03*
X243840Y114960D03*
D12*
X165100Y269980D03*
X165100Y298980D03*
D13*
X284080Y251460D03*
D14*
X211080Y274260D03*
X211080Y228660D03*
D15*
X159420Y137160D03*
X211420Y137160D03*
X159420Y149860D03*
X159420Y124460D03*
X159420Y111760D03*
X211420Y149860D03*
X211420Y124460D03*
X211420Y111760D03*
D16*
X73406Y244094D02*
X53594Y244094D01*
X53594Y294132D02*
X73406Y294132D01*
D17*
X187960Y31314D03*
D18*
X153014Y31314D03*
X222906Y31314D03*
D19*
X31314Y149860D03*
D20*
X31314Y184806D03*
X31314Y114914D03*
D19*
X296346Y134620D03*
D20*
X296346Y99674D03*
X296346Y169566D03*
D21*
X142900Y71120D03*
X161900Y71120D03*
D22*
X187960Y69240D02*
X187960Y31314D01*
D23*
X187960Y69240D02*
X163780Y69240D01*
X161900Y71120D01*
D22*
X243840Y133960D02*
X295686Y133960D01*
X296346Y134620D01*
D24*
X132740Y137160D02*
X129540Y133960D01*
X132740Y137160D02*
X159420Y137160D01*
D22*
X79400Y149860D02*
X31314Y149860D01*
D24*
X98400Y149860D02*
X159420Y149860D01*
X195580Y124460D02*
X211420Y124460D01*
X195580Y124460D02*
X187960Y116840D01*
X187960Y88240D01*
X240640Y111760D02*
X243840Y114960D01*
X240640Y111760D02*
X211420Y111760D01*
D25*
X211080Y274260D02*
X191220Y274260D01*
X190500Y274980D01*
D24*
X169380Y274260D02*
X165100Y269980D01*
X169380Y274260D02*
X191220Y274260D01*
X211480Y175260D02*
X211480Y149920D01*
X211420Y149860D01*
D25*
X211080Y203600D02*
X211080Y228660D01*
X211080Y203600D02*
X211480Y203200D01*
D23*
X211480Y175260D01*
D22*
X139548Y294132D02*
X63500Y294132D01*
X139548Y294132D02*
X139700Y293980D01*
D24*
X142900Y297180D01*
X163300Y297180D02*
X165100Y298980D01*
X163300Y297180D02*
X142900Y297180D01*
M02*
