G04 EAGLE Gerber RS-274X export*
G75*
%MOMM*%
%FSLAX34Y34*%
%LPD*%
%IN*%
%IPPOS*%
%AMOC8*
5,1,8,0,0,1.08239X$1,22.5*%
G01*
%ADD10C,0.254000*%


D10*
X0Y0D02*
X330000Y0D01*
X330000Y330000D01*
X0Y330000D01*
X0Y0D01*
X55000Y39464D02*
X54924Y38396D01*
X54771Y37335D01*
X54543Y36288D01*
X54241Y35260D01*
X53867Y34256D01*
X53422Y33281D01*
X52908Y32341D01*
X52329Y31440D01*
X51687Y30582D01*
X50985Y29772D01*
X50228Y29015D01*
X49418Y28313D01*
X48560Y27671D01*
X47659Y27092D01*
X46719Y26578D01*
X45744Y26133D01*
X44740Y25759D01*
X43712Y25457D01*
X42665Y25229D01*
X41604Y25076D01*
X40536Y25000D01*
X39464Y25000D01*
X38396Y25076D01*
X37335Y25229D01*
X36288Y25457D01*
X35260Y25759D01*
X34256Y26133D01*
X33281Y26578D01*
X32341Y27092D01*
X31440Y27671D01*
X30582Y28313D01*
X29772Y29015D01*
X29015Y29772D01*
X28313Y30582D01*
X27671Y31440D01*
X27092Y32341D01*
X26578Y33281D01*
X26133Y34256D01*
X25759Y35260D01*
X25457Y36288D01*
X25229Y37335D01*
X25076Y38396D01*
X25000Y39464D01*
X25000Y40536D01*
X25076Y41604D01*
X25229Y42665D01*
X25457Y43712D01*
X25759Y44740D01*
X26133Y45744D01*
X26578Y46719D01*
X27092Y47659D01*
X27671Y48560D01*
X28313Y49418D01*
X29015Y50228D01*
X29772Y50985D01*
X30582Y51687D01*
X31440Y52329D01*
X32341Y52908D01*
X33281Y53422D01*
X34256Y53867D01*
X35260Y54241D01*
X36288Y54543D01*
X37335Y54771D01*
X38396Y54924D01*
X39464Y55000D01*
X40536Y55000D01*
X41604Y54924D01*
X42665Y54771D01*
X43712Y54543D01*
X44740Y54241D01*
X45744Y53867D01*
X46719Y53422D01*
X47659Y52908D01*
X48560Y52329D01*
X49418Y51687D01*
X50228Y50985D01*
X50985Y50228D01*
X51687Y49418D01*
X52329Y48560D01*
X52908Y47659D01*
X53422Y46719D01*
X53867Y45744D01*
X54241Y44740D01*
X54543Y43712D01*
X54771Y42665D01*
X54924Y41604D01*
X55000Y40536D01*
X55000Y39464D01*
X295000Y39464D02*
X294924Y38396D01*
X294771Y37335D01*
X294543Y36288D01*
X294241Y35260D01*
X293867Y34256D01*
X293422Y33281D01*
X292908Y32341D01*
X292329Y31440D01*
X291687Y30582D01*
X290985Y29772D01*
X290228Y29015D01*
X289418Y28313D01*
X288560Y27671D01*
X287659Y27092D01*
X286719Y26578D01*
X285744Y26133D01*
X284740Y25759D01*
X283712Y25457D01*
X282665Y25229D01*
X281604Y25076D01*
X280536Y25000D01*
X279464Y25000D01*
X278396Y25076D01*
X277335Y25229D01*
X276288Y25457D01*
X275260Y25759D01*
X274256Y26133D01*
X273281Y26578D01*
X272341Y27092D01*
X271440Y27671D01*
X270582Y28313D01*
X269772Y29015D01*
X269015Y29772D01*
X268313Y30582D01*
X267671Y31440D01*
X267092Y32341D01*
X266578Y33281D01*
X266133Y34256D01*
X265759Y35260D01*
X265457Y36288D01*
X265229Y37335D01*
X265076Y38396D01*
X265000Y39464D01*
X265000Y40536D01*
X265076Y41604D01*
X265229Y42665D01*
X265457Y43712D01*
X265759Y44740D01*
X266133Y45744D01*
X266578Y46719D01*
X267092Y47659D01*
X267671Y48560D01*
X268313Y49418D01*
X269015Y50228D01*
X269772Y50985D01*
X270582Y51687D01*
X271440Y52329D01*
X272341Y52908D01*
X273281Y53422D01*
X274256Y53867D01*
X275260Y54241D01*
X276288Y54543D01*
X277335Y54771D01*
X278396Y54924D01*
X279464Y55000D01*
X280536Y55000D01*
X281604Y54924D01*
X282665Y54771D01*
X283712Y54543D01*
X284740Y54241D01*
X285744Y53867D01*
X286719Y53422D01*
X287659Y52908D01*
X288560Y52329D01*
X289418Y51687D01*
X290228Y50985D01*
X290985Y50228D01*
X291687Y49418D01*
X292329Y48560D01*
X292908Y47659D01*
X293422Y46719D01*
X293867Y45744D01*
X294241Y44740D01*
X294543Y43712D01*
X294771Y42665D01*
X294924Y41604D01*
X295000Y40536D01*
X295000Y39464D01*
X155000Y189464D02*
X154924Y188396D01*
X154771Y187335D01*
X154543Y186288D01*
X154241Y185260D01*
X153867Y184256D01*
X153422Y183281D01*
X152908Y182341D01*
X152329Y181440D01*
X151687Y180582D01*
X150985Y179772D01*
X150228Y179015D01*
X149418Y178313D01*
X148560Y177671D01*
X147659Y177092D01*
X146719Y176578D01*
X145744Y176133D01*
X144740Y175759D01*
X143712Y175457D01*
X142665Y175229D01*
X141604Y175076D01*
X140536Y175000D01*
X139464Y175000D01*
X138396Y175076D01*
X137335Y175229D01*
X136288Y175457D01*
X135260Y175759D01*
X134256Y176133D01*
X133281Y176578D01*
X132341Y177092D01*
X131440Y177671D01*
X130582Y178313D01*
X129772Y179015D01*
X129015Y179772D01*
X128313Y180582D01*
X127671Y181440D01*
X127092Y182341D01*
X126578Y183281D01*
X126133Y184256D01*
X125759Y185260D01*
X125457Y186288D01*
X125229Y187335D01*
X125076Y188396D01*
X125000Y189464D01*
X125000Y190536D01*
X125076Y191604D01*
X125229Y192665D01*
X125457Y193712D01*
X125759Y194740D01*
X126133Y195744D01*
X126578Y196719D01*
X127092Y197659D01*
X127671Y198560D01*
X128313Y199418D01*
X129015Y200228D01*
X129772Y200985D01*
X130582Y201687D01*
X131440Y202329D01*
X132341Y202908D01*
X133281Y203422D01*
X134256Y203867D01*
X135260Y204241D01*
X136288Y204543D01*
X137335Y204771D01*
X138396Y204924D01*
X139464Y205000D01*
X140536Y205000D01*
X141604Y204924D01*
X142665Y204771D01*
X143712Y204543D01*
X144740Y204241D01*
X145744Y203867D01*
X146719Y203422D01*
X147659Y202908D01*
X148560Y202329D01*
X149418Y201687D01*
X150228Y200985D01*
X150985Y200228D01*
X151687Y199418D01*
X152329Y198560D01*
X152908Y197659D01*
X153422Y196719D01*
X153867Y195744D01*
X154241Y194740D01*
X154543Y193712D01*
X154771Y192665D01*
X154924Y191604D01*
X155000Y190536D01*
X155000Y189464D01*
M02*
