G04 EAGLE Gerber RS-274X export*
G75*
%MOMM*%
%FSLAX34Y34*%
%LPD*%
%INSilkscreen Top*%
%IPPOS*%
%AMOC8*
5,1,8,0,0,1.08239X$1,22.5*%
G01*
%ADD10C,0.152400*%
%ADD11C,0.127000*%
%ADD12C,0.101600*%
%ADD13C,0.254000*%


D10*
X76200Y99060D02*
X76200Y91440D01*
X72390Y95250D02*
X80010Y95250D01*
X41910Y68580D02*
X41920Y69422D01*
X41951Y70263D01*
X42003Y71103D01*
X42075Y71941D01*
X42168Y72777D01*
X42281Y73611D01*
X42415Y74442D01*
X42569Y75270D01*
X42743Y76093D01*
X42938Y76912D01*
X43152Y77726D01*
X43387Y78534D01*
X43641Y79336D01*
X43914Y80132D01*
X44208Y80921D01*
X44520Y81702D01*
X44852Y82476D01*
X45202Y83241D01*
X45571Y83997D01*
X45959Y84744D01*
X46365Y85481D01*
X46788Y86209D01*
X47230Y86925D01*
X47689Y87631D01*
X48165Y88324D01*
X48658Y89007D01*
X49168Y89676D01*
X49693Y90333D01*
X50235Y90977D01*
X50793Y91608D01*
X51366Y92224D01*
X51953Y92827D01*
X52556Y93414D01*
X53172Y93987D01*
X53803Y94545D01*
X54447Y95087D01*
X55104Y95612D01*
X55773Y96122D01*
X56456Y96615D01*
X57149Y97091D01*
X57855Y97550D01*
X58571Y97992D01*
X59299Y98415D01*
X60036Y98821D01*
X60783Y99209D01*
X61539Y99578D01*
X62304Y99928D01*
X63078Y100260D01*
X63859Y100572D01*
X64648Y100866D01*
X65444Y101139D01*
X66246Y101393D01*
X67054Y101628D01*
X67868Y101842D01*
X68687Y102037D01*
X69510Y102211D01*
X70338Y102365D01*
X71169Y102499D01*
X72003Y102612D01*
X72839Y102705D01*
X73677Y102777D01*
X74517Y102829D01*
X75358Y102860D01*
X76200Y102870D01*
X77042Y102860D01*
X77883Y102829D01*
X78723Y102777D01*
X79561Y102705D01*
X80397Y102612D01*
X81231Y102499D01*
X82062Y102365D01*
X82890Y102211D01*
X83713Y102037D01*
X84532Y101842D01*
X85346Y101628D01*
X86154Y101393D01*
X86956Y101139D01*
X87752Y100866D01*
X88541Y100572D01*
X89322Y100260D01*
X90096Y99928D01*
X90861Y99578D01*
X91617Y99209D01*
X92364Y98821D01*
X93101Y98415D01*
X93829Y97992D01*
X94545Y97550D01*
X95251Y97091D01*
X95944Y96615D01*
X96627Y96122D01*
X97296Y95612D01*
X97953Y95087D01*
X98597Y94545D01*
X99228Y93987D01*
X99844Y93414D01*
X100447Y92827D01*
X101034Y92224D01*
X101607Y91608D01*
X102165Y90977D01*
X102707Y90333D01*
X103232Y89676D01*
X103742Y89007D01*
X104235Y88324D01*
X104711Y87631D01*
X105170Y86925D01*
X105612Y86209D01*
X106035Y85481D01*
X106441Y84744D01*
X106829Y83997D01*
X107198Y83241D01*
X107548Y82476D01*
X107880Y81702D01*
X108192Y80921D01*
X108486Y80132D01*
X108759Y79336D01*
X109013Y78534D01*
X109248Y77726D01*
X109462Y76912D01*
X109657Y76093D01*
X109831Y75270D01*
X109985Y74442D01*
X110119Y73611D01*
X110232Y72777D01*
X110325Y71941D01*
X110397Y71103D01*
X110449Y70263D01*
X110480Y69422D01*
X110490Y68580D01*
X110480Y67738D01*
X110449Y66897D01*
X110397Y66057D01*
X110325Y65219D01*
X110232Y64383D01*
X110119Y63549D01*
X109985Y62718D01*
X109831Y61890D01*
X109657Y61067D01*
X109462Y60248D01*
X109248Y59434D01*
X109013Y58626D01*
X108759Y57824D01*
X108486Y57028D01*
X108192Y56239D01*
X107880Y55458D01*
X107548Y54684D01*
X107198Y53919D01*
X106829Y53163D01*
X106441Y52416D01*
X106035Y51679D01*
X105612Y50951D01*
X105170Y50235D01*
X104711Y49529D01*
X104235Y48836D01*
X103742Y48153D01*
X103232Y47484D01*
X102707Y46827D01*
X102165Y46183D01*
X101607Y45552D01*
X101034Y44936D01*
X100447Y44333D01*
X99844Y43746D01*
X99228Y43173D01*
X98597Y42615D01*
X97953Y42073D01*
X97296Y41548D01*
X96627Y41038D01*
X95944Y40545D01*
X95251Y40069D01*
X94545Y39610D01*
X93829Y39168D01*
X93101Y38745D01*
X92364Y38339D01*
X91617Y37951D01*
X90861Y37582D01*
X90096Y37232D01*
X89322Y36900D01*
X88541Y36588D01*
X87752Y36294D01*
X86956Y36021D01*
X86154Y35767D01*
X85346Y35532D01*
X84532Y35318D01*
X83713Y35123D01*
X82890Y34949D01*
X82062Y34795D01*
X81231Y34661D01*
X80397Y34548D01*
X79561Y34455D01*
X78723Y34383D01*
X77883Y34331D01*
X77042Y34300D01*
X76200Y34290D01*
X75358Y34300D01*
X74517Y34331D01*
X73677Y34383D01*
X72839Y34455D01*
X72003Y34548D01*
X71169Y34661D01*
X70338Y34795D01*
X69510Y34949D01*
X68687Y35123D01*
X67868Y35318D01*
X67054Y35532D01*
X66246Y35767D01*
X65444Y36021D01*
X64648Y36294D01*
X63859Y36588D01*
X63078Y36900D01*
X62304Y37232D01*
X61539Y37582D01*
X60783Y37951D01*
X60036Y38339D01*
X59299Y38745D01*
X58571Y39168D01*
X57855Y39610D01*
X57149Y40069D01*
X56456Y40545D01*
X55773Y41038D01*
X55104Y41548D01*
X54447Y42073D01*
X53803Y42615D01*
X53172Y43173D01*
X52556Y43746D01*
X51953Y44333D01*
X51366Y44936D01*
X50793Y45552D01*
X50235Y46183D01*
X49693Y46827D01*
X49168Y47484D01*
X48658Y48153D01*
X48165Y48836D01*
X47689Y49529D01*
X47230Y50235D01*
X46788Y50951D01*
X46365Y51679D01*
X45959Y52416D01*
X45571Y53163D01*
X45202Y53919D01*
X44852Y54684D01*
X44520Y55458D01*
X44208Y56239D01*
X43914Y57028D01*
X43641Y57824D01*
X43387Y58626D01*
X43152Y59434D01*
X42938Y60248D01*
X42743Y61067D01*
X42569Y61890D01*
X42415Y62718D01*
X42281Y63549D01*
X42168Y64383D01*
X42075Y65219D01*
X42003Y66057D01*
X41951Y66897D01*
X41920Y67738D01*
X41910Y68580D01*
D11*
X41275Y23495D02*
X43815Y23495D01*
X41275Y23495D02*
X41175Y23497D01*
X41076Y23503D01*
X40976Y23513D01*
X40878Y23526D01*
X40779Y23544D01*
X40682Y23565D01*
X40586Y23590D01*
X40490Y23619D01*
X40396Y23652D01*
X40303Y23688D01*
X40212Y23728D01*
X40122Y23772D01*
X40034Y23819D01*
X39948Y23869D01*
X39864Y23923D01*
X39782Y23980D01*
X39703Y24040D01*
X39625Y24104D01*
X39551Y24170D01*
X39479Y24239D01*
X39410Y24311D01*
X39344Y24385D01*
X39280Y24463D01*
X39220Y24542D01*
X39163Y24624D01*
X39109Y24708D01*
X39059Y24794D01*
X39012Y24882D01*
X38968Y24972D01*
X38928Y25063D01*
X38892Y25156D01*
X38859Y25250D01*
X38830Y25346D01*
X38805Y25442D01*
X38784Y25539D01*
X38766Y25638D01*
X38753Y25736D01*
X38743Y25836D01*
X38737Y25935D01*
X38735Y26035D01*
X38735Y32385D01*
X38737Y32485D01*
X38743Y32584D01*
X38753Y32684D01*
X38766Y32782D01*
X38784Y32881D01*
X38805Y32978D01*
X38830Y33074D01*
X38859Y33170D01*
X38892Y33264D01*
X38928Y33357D01*
X38968Y33448D01*
X39012Y33538D01*
X39059Y33626D01*
X39109Y33712D01*
X39163Y33796D01*
X39220Y33878D01*
X39280Y33957D01*
X39344Y34035D01*
X39410Y34109D01*
X39479Y34181D01*
X39551Y34250D01*
X39625Y34316D01*
X39703Y34380D01*
X39782Y34440D01*
X39864Y34497D01*
X39948Y34551D01*
X40034Y34601D01*
X40122Y34648D01*
X40212Y34692D01*
X40303Y34732D01*
X40396Y34768D01*
X40490Y34801D01*
X40586Y34830D01*
X40682Y34855D01*
X40779Y34876D01*
X40878Y34894D01*
X40976Y34907D01*
X41076Y34917D01*
X41175Y34923D01*
X41275Y34925D01*
X43815Y34925D01*
X48297Y32385D02*
X51472Y34925D01*
X51472Y23495D01*
X48297Y23495D02*
X54647Y23495D01*
D12*
X119944Y94488D02*
X122541Y94488D01*
X119944Y94488D02*
X119845Y94490D01*
X119745Y94496D01*
X119646Y94505D01*
X119548Y94518D01*
X119450Y94535D01*
X119352Y94556D01*
X119256Y94581D01*
X119161Y94609D01*
X119067Y94641D01*
X118974Y94676D01*
X118882Y94715D01*
X118792Y94758D01*
X118704Y94803D01*
X118617Y94853D01*
X118533Y94905D01*
X118450Y94961D01*
X118370Y95019D01*
X118292Y95081D01*
X118217Y95146D01*
X118144Y95214D01*
X118074Y95284D01*
X118006Y95357D01*
X117941Y95432D01*
X117879Y95510D01*
X117821Y95590D01*
X117765Y95673D01*
X117713Y95757D01*
X117663Y95844D01*
X117618Y95932D01*
X117575Y96022D01*
X117536Y96114D01*
X117501Y96207D01*
X117469Y96301D01*
X117441Y96396D01*
X117416Y96492D01*
X117395Y96590D01*
X117378Y96688D01*
X117365Y96786D01*
X117356Y96885D01*
X117350Y96985D01*
X117348Y97084D01*
X117348Y103576D01*
X117350Y103675D01*
X117356Y103775D01*
X117365Y103874D01*
X117378Y103972D01*
X117395Y104070D01*
X117416Y104168D01*
X117441Y104264D01*
X117469Y104359D01*
X117501Y104453D01*
X117536Y104546D01*
X117575Y104638D01*
X117618Y104728D01*
X117663Y104816D01*
X117713Y104903D01*
X117765Y104987D01*
X117821Y105070D01*
X117879Y105150D01*
X117941Y105228D01*
X118006Y105303D01*
X118074Y105376D01*
X118144Y105446D01*
X118217Y105514D01*
X118292Y105579D01*
X118370Y105641D01*
X118450Y105699D01*
X118533Y105755D01*
X118617Y105807D01*
X118704Y105857D01*
X118792Y105902D01*
X118882Y105945D01*
X118974Y105984D01*
X119066Y106019D01*
X119161Y106051D01*
X119256Y106079D01*
X119352Y106104D01*
X119450Y106125D01*
X119548Y106142D01*
X119646Y106155D01*
X119745Y106164D01*
X119845Y106170D01*
X119944Y106172D01*
X122541Y106172D01*
X130476Y106172D02*
X130583Y106170D01*
X130689Y106164D01*
X130795Y106154D01*
X130901Y106141D01*
X131007Y106123D01*
X131111Y106102D01*
X131215Y106077D01*
X131318Y106048D01*
X131419Y106016D01*
X131519Y105979D01*
X131618Y105939D01*
X131716Y105896D01*
X131812Y105849D01*
X131906Y105798D01*
X131998Y105744D01*
X132088Y105687D01*
X132176Y105627D01*
X132261Y105563D01*
X132344Y105496D01*
X132425Y105426D01*
X132503Y105354D01*
X132579Y105278D01*
X132651Y105200D01*
X132721Y105119D01*
X132788Y105036D01*
X132852Y104951D01*
X132912Y104863D01*
X132969Y104773D01*
X133023Y104681D01*
X133074Y104587D01*
X133121Y104491D01*
X133164Y104393D01*
X133204Y104294D01*
X133241Y104194D01*
X133273Y104093D01*
X133302Y103990D01*
X133327Y103886D01*
X133348Y103782D01*
X133366Y103676D01*
X133379Y103570D01*
X133389Y103464D01*
X133395Y103358D01*
X133397Y103251D01*
X130476Y106172D02*
X130355Y106170D01*
X130234Y106164D01*
X130114Y106154D01*
X129993Y106141D01*
X129874Y106123D01*
X129754Y106102D01*
X129636Y106077D01*
X129519Y106048D01*
X129402Y106015D01*
X129287Y105979D01*
X129173Y105938D01*
X129060Y105895D01*
X128948Y105847D01*
X128839Y105796D01*
X128731Y105741D01*
X128624Y105683D01*
X128520Y105622D01*
X128418Y105557D01*
X128318Y105489D01*
X128220Y105418D01*
X128124Y105344D01*
X128031Y105267D01*
X127941Y105186D01*
X127853Y105103D01*
X127768Y105017D01*
X127685Y104928D01*
X127606Y104837D01*
X127529Y104743D01*
X127456Y104647D01*
X127386Y104549D01*
X127319Y104448D01*
X127255Y104345D01*
X127195Y104240D01*
X127138Y104133D01*
X127084Y104025D01*
X127034Y103915D01*
X126988Y103803D01*
X126945Y103690D01*
X126906Y103575D01*
X132424Y100979D02*
X132503Y101056D01*
X132579Y101137D01*
X132652Y101220D01*
X132722Y101305D01*
X132789Y101393D01*
X132853Y101483D01*
X132913Y101575D01*
X132970Y101670D01*
X133024Y101766D01*
X133075Y101864D01*
X133122Y101964D01*
X133166Y102066D01*
X133206Y102169D01*
X133242Y102273D01*
X133274Y102379D01*
X133303Y102485D01*
X133328Y102593D01*
X133350Y102701D01*
X133367Y102811D01*
X133381Y102920D01*
X133390Y103030D01*
X133396Y103141D01*
X133398Y103251D01*
X132424Y100979D02*
X126906Y94488D01*
X133397Y94488D01*
X194319Y33528D02*
X196916Y33528D01*
X194319Y33528D02*
X194220Y33530D01*
X194120Y33536D01*
X194021Y33545D01*
X193923Y33558D01*
X193825Y33575D01*
X193727Y33596D01*
X193631Y33621D01*
X193536Y33649D01*
X193442Y33681D01*
X193349Y33716D01*
X193257Y33755D01*
X193167Y33798D01*
X193079Y33843D01*
X192992Y33893D01*
X192908Y33945D01*
X192825Y34001D01*
X192745Y34059D01*
X192667Y34121D01*
X192592Y34186D01*
X192519Y34254D01*
X192449Y34324D01*
X192381Y34397D01*
X192316Y34472D01*
X192254Y34550D01*
X192196Y34630D01*
X192140Y34713D01*
X192088Y34797D01*
X192038Y34884D01*
X191993Y34972D01*
X191950Y35062D01*
X191911Y35154D01*
X191876Y35247D01*
X191844Y35341D01*
X191816Y35436D01*
X191791Y35532D01*
X191770Y35630D01*
X191753Y35728D01*
X191740Y35826D01*
X191731Y35925D01*
X191725Y36025D01*
X191723Y36124D01*
X191723Y42616D01*
X191725Y42715D01*
X191731Y42815D01*
X191740Y42914D01*
X191753Y43012D01*
X191770Y43110D01*
X191791Y43208D01*
X191816Y43304D01*
X191844Y43399D01*
X191876Y43493D01*
X191911Y43586D01*
X191950Y43678D01*
X191993Y43768D01*
X192038Y43856D01*
X192088Y43943D01*
X192140Y44027D01*
X192196Y44110D01*
X192254Y44190D01*
X192316Y44268D01*
X192381Y44343D01*
X192449Y44416D01*
X192519Y44486D01*
X192592Y44554D01*
X192667Y44619D01*
X192745Y44681D01*
X192825Y44739D01*
X192908Y44795D01*
X192992Y44847D01*
X193079Y44897D01*
X193167Y44942D01*
X193257Y44985D01*
X193349Y45024D01*
X193441Y45059D01*
X193536Y45091D01*
X193631Y45119D01*
X193727Y45144D01*
X193825Y45165D01*
X193923Y45182D01*
X194021Y45195D01*
X194120Y45204D01*
X194220Y45210D01*
X194319Y45212D01*
X196916Y45212D01*
X201281Y33528D02*
X204526Y33528D01*
X204639Y33530D01*
X204752Y33536D01*
X204865Y33546D01*
X204978Y33560D01*
X205090Y33577D01*
X205201Y33599D01*
X205311Y33624D01*
X205421Y33654D01*
X205529Y33687D01*
X205636Y33724D01*
X205742Y33764D01*
X205846Y33809D01*
X205949Y33857D01*
X206050Y33908D01*
X206149Y33963D01*
X206246Y34021D01*
X206341Y34083D01*
X206434Y34148D01*
X206524Y34216D01*
X206612Y34287D01*
X206698Y34362D01*
X206781Y34439D01*
X206861Y34519D01*
X206938Y34602D01*
X207013Y34688D01*
X207084Y34776D01*
X207152Y34866D01*
X207217Y34959D01*
X207279Y35054D01*
X207337Y35151D01*
X207392Y35250D01*
X207443Y35351D01*
X207491Y35454D01*
X207536Y35558D01*
X207576Y35664D01*
X207613Y35771D01*
X207646Y35879D01*
X207676Y35989D01*
X207701Y36099D01*
X207723Y36210D01*
X207740Y36322D01*
X207754Y36435D01*
X207764Y36548D01*
X207770Y36661D01*
X207772Y36774D01*
X207770Y36887D01*
X207764Y37000D01*
X207754Y37113D01*
X207740Y37226D01*
X207723Y37338D01*
X207701Y37449D01*
X207676Y37559D01*
X207646Y37669D01*
X207613Y37777D01*
X207576Y37884D01*
X207536Y37990D01*
X207491Y38094D01*
X207443Y38197D01*
X207392Y38298D01*
X207337Y38397D01*
X207279Y38494D01*
X207217Y38589D01*
X207152Y38682D01*
X207084Y38772D01*
X207013Y38860D01*
X206938Y38946D01*
X206861Y39029D01*
X206781Y39109D01*
X206698Y39186D01*
X206612Y39261D01*
X206524Y39332D01*
X206434Y39400D01*
X206341Y39465D01*
X206246Y39527D01*
X206149Y39585D01*
X206050Y39640D01*
X205949Y39691D01*
X205846Y39739D01*
X205742Y39784D01*
X205636Y39824D01*
X205529Y39861D01*
X205421Y39894D01*
X205311Y39924D01*
X205201Y39949D01*
X205090Y39971D01*
X204978Y39988D01*
X204865Y40002D01*
X204752Y40012D01*
X204639Y40018D01*
X204526Y40020D01*
X205176Y45212D02*
X201281Y45212D01*
X205176Y45212D02*
X205277Y45210D01*
X205377Y45204D01*
X205477Y45194D01*
X205577Y45181D01*
X205676Y45163D01*
X205775Y45142D01*
X205872Y45117D01*
X205969Y45088D01*
X206064Y45055D01*
X206158Y45019D01*
X206250Y44979D01*
X206341Y44936D01*
X206430Y44889D01*
X206517Y44839D01*
X206603Y44785D01*
X206686Y44728D01*
X206766Y44668D01*
X206845Y44605D01*
X206921Y44538D01*
X206994Y44469D01*
X207064Y44397D01*
X207132Y44323D01*
X207197Y44246D01*
X207258Y44166D01*
X207317Y44084D01*
X207372Y44000D01*
X207424Y43914D01*
X207473Y43826D01*
X207518Y43736D01*
X207560Y43644D01*
X207598Y43551D01*
X207632Y43456D01*
X207663Y43361D01*
X207690Y43264D01*
X207713Y43166D01*
X207733Y43067D01*
X207748Y42967D01*
X207760Y42867D01*
X207768Y42767D01*
X207772Y42666D01*
X207772Y42566D01*
X207768Y42465D01*
X207760Y42365D01*
X207748Y42265D01*
X207733Y42165D01*
X207713Y42066D01*
X207690Y41968D01*
X207663Y41871D01*
X207632Y41776D01*
X207598Y41681D01*
X207560Y41588D01*
X207518Y41496D01*
X207473Y41406D01*
X207424Y41318D01*
X207372Y41232D01*
X207317Y41148D01*
X207258Y41066D01*
X207197Y40986D01*
X207132Y40909D01*
X207064Y40835D01*
X206994Y40763D01*
X206921Y40694D01*
X206845Y40627D01*
X206766Y40564D01*
X206686Y40504D01*
X206603Y40447D01*
X206517Y40393D01*
X206430Y40343D01*
X206341Y40296D01*
X206250Y40253D01*
X206158Y40213D01*
X206064Y40177D01*
X205969Y40144D01*
X205872Y40115D01*
X205775Y40090D01*
X205676Y40069D01*
X205577Y40051D01*
X205477Y40038D01*
X205377Y40028D01*
X205277Y40022D01*
X205176Y40020D01*
X205176Y40019D02*
X202579Y40019D01*
X193661Y94488D02*
X191064Y94488D01*
X190965Y94490D01*
X190865Y94496D01*
X190766Y94505D01*
X190668Y94518D01*
X190570Y94535D01*
X190472Y94556D01*
X190376Y94581D01*
X190281Y94609D01*
X190187Y94641D01*
X190094Y94676D01*
X190002Y94715D01*
X189912Y94758D01*
X189824Y94803D01*
X189737Y94853D01*
X189653Y94905D01*
X189570Y94961D01*
X189490Y95019D01*
X189412Y95081D01*
X189337Y95146D01*
X189264Y95214D01*
X189194Y95284D01*
X189126Y95357D01*
X189061Y95432D01*
X188999Y95510D01*
X188941Y95590D01*
X188885Y95673D01*
X188833Y95757D01*
X188783Y95844D01*
X188738Y95932D01*
X188695Y96022D01*
X188656Y96114D01*
X188621Y96207D01*
X188589Y96301D01*
X188561Y96396D01*
X188536Y96492D01*
X188515Y96590D01*
X188498Y96688D01*
X188485Y96786D01*
X188476Y96885D01*
X188470Y96985D01*
X188468Y97084D01*
X188468Y103576D01*
X188470Y103675D01*
X188476Y103775D01*
X188485Y103874D01*
X188498Y103972D01*
X188515Y104070D01*
X188536Y104168D01*
X188561Y104264D01*
X188589Y104359D01*
X188621Y104453D01*
X188656Y104546D01*
X188695Y104638D01*
X188738Y104728D01*
X188783Y104816D01*
X188833Y104903D01*
X188885Y104987D01*
X188941Y105070D01*
X188999Y105150D01*
X189061Y105228D01*
X189126Y105303D01*
X189194Y105376D01*
X189264Y105446D01*
X189337Y105514D01*
X189412Y105579D01*
X189490Y105641D01*
X189570Y105699D01*
X189653Y105755D01*
X189737Y105807D01*
X189824Y105857D01*
X189912Y105902D01*
X190002Y105945D01*
X190094Y105984D01*
X190186Y106019D01*
X190281Y106051D01*
X190376Y106079D01*
X190472Y106104D01*
X190570Y106125D01*
X190668Y106142D01*
X190766Y106155D01*
X190865Y106164D01*
X190965Y106170D01*
X191064Y106172D01*
X193661Y106172D01*
X200623Y106172D02*
X198026Y97084D01*
X204517Y97084D01*
X202570Y99681D02*
X202570Y94488D01*
D13*
X153725Y90170D02*
X153725Y100330D01*
X153725Y90170D02*
X158241Y90170D01*
X163211Y98072D02*
X166033Y100330D01*
X166033Y90170D01*
X163211Y90170D02*
X168855Y90170D01*
D12*
X150555Y19812D02*
X150555Y8128D01*
X150555Y19812D02*
X153800Y19812D01*
X153913Y19810D01*
X154026Y19804D01*
X154139Y19794D01*
X154252Y19780D01*
X154364Y19763D01*
X154475Y19741D01*
X154585Y19716D01*
X154695Y19686D01*
X154803Y19653D01*
X154910Y19616D01*
X155016Y19576D01*
X155120Y19531D01*
X155223Y19483D01*
X155324Y19432D01*
X155423Y19377D01*
X155520Y19319D01*
X155615Y19257D01*
X155708Y19192D01*
X155798Y19124D01*
X155886Y19053D01*
X155972Y18978D01*
X156055Y18901D01*
X156135Y18821D01*
X156212Y18738D01*
X156287Y18652D01*
X156358Y18564D01*
X156426Y18474D01*
X156491Y18381D01*
X156553Y18286D01*
X156611Y18189D01*
X156666Y18090D01*
X156717Y17989D01*
X156765Y17886D01*
X156810Y17782D01*
X156850Y17676D01*
X156887Y17569D01*
X156920Y17461D01*
X156950Y17351D01*
X156975Y17241D01*
X156997Y17130D01*
X157014Y17018D01*
X157028Y16905D01*
X157038Y16792D01*
X157044Y16679D01*
X157046Y16566D01*
X157044Y16453D01*
X157038Y16340D01*
X157028Y16227D01*
X157014Y16114D01*
X156997Y16002D01*
X156975Y15891D01*
X156950Y15781D01*
X156920Y15671D01*
X156887Y15563D01*
X156850Y15456D01*
X156810Y15350D01*
X156765Y15246D01*
X156717Y15143D01*
X156666Y15042D01*
X156611Y14943D01*
X156553Y14846D01*
X156491Y14751D01*
X156426Y14658D01*
X156358Y14568D01*
X156287Y14480D01*
X156212Y14394D01*
X156135Y14311D01*
X156055Y14231D01*
X155972Y14154D01*
X155886Y14079D01*
X155798Y14008D01*
X155708Y13940D01*
X155615Y13875D01*
X155520Y13813D01*
X155423Y13755D01*
X155324Y13700D01*
X155223Y13649D01*
X155120Y13601D01*
X155016Y13556D01*
X154910Y13516D01*
X154803Y13479D01*
X154695Y13446D01*
X154585Y13416D01*
X154475Y13391D01*
X154364Y13369D01*
X154252Y13352D01*
X154139Y13338D01*
X154026Y13328D01*
X153913Y13322D01*
X153800Y13320D01*
X153800Y13321D02*
X150555Y13321D01*
X154449Y13321D02*
X157046Y8128D01*
X161911Y17216D02*
X165156Y19812D01*
X165156Y8128D01*
X161911Y8128D02*
X168402Y8128D01*
D10*
X7620Y49530D02*
X7620Y62230D01*
X13970Y68580D01*
X26670Y68580D01*
X33020Y62230D01*
X26670Y43180D02*
X13970Y43180D01*
X7620Y49530D01*
X26670Y43180D02*
X33020Y49530D01*
X33020Y62230D01*
X13970Y68580D02*
X7620Y74930D01*
X7620Y87630D01*
X13970Y93980D01*
X26670Y93980D01*
X33020Y87630D01*
X33020Y74930D01*
X26670Y68580D01*
D11*
X9958Y104267D02*
X9958Y113157D01*
X9958Y104267D02*
X9956Y104167D01*
X9950Y104068D01*
X9940Y103968D01*
X9927Y103870D01*
X9909Y103771D01*
X9888Y103674D01*
X9863Y103578D01*
X9834Y103482D01*
X9801Y103388D01*
X9765Y103295D01*
X9725Y103204D01*
X9681Y103114D01*
X9634Y103026D01*
X9584Y102940D01*
X9530Y102856D01*
X9473Y102774D01*
X9413Y102695D01*
X9349Y102617D01*
X9283Y102543D01*
X9214Y102471D01*
X9142Y102402D01*
X9068Y102336D01*
X8990Y102272D01*
X8911Y102212D01*
X8829Y102155D01*
X8745Y102101D01*
X8659Y102051D01*
X8571Y102004D01*
X8481Y101960D01*
X8390Y101920D01*
X8297Y101884D01*
X8203Y101851D01*
X8107Y101822D01*
X8011Y101797D01*
X7914Y101776D01*
X7815Y101758D01*
X7717Y101745D01*
X7617Y101735D01*
X7518Y101729D01*
X7418Y101727D01*
X6148Y101727D01*
X15939Y101727D02*
X15939Y113157D01*
X19114Y113157D01*
X19225Y113155D01*
X19335Y113149D01*
X19446Y113140D01*
X19556Y113126D01*
X19665Y113109D01*
X19774Y113088D01*
X19882Y113063D01*
X19989Y113034D01*
X20095Y113002D01*
X20200Y112966D01*
X20303Y112926D01*
X20405Y112883D01*
X20506Y112836D01*
X20605Y112785D01*
X20702Y112732D01*
X20796Y112675D01*
X20889Y112614D01*
X20980Y112551D01*
X21069Y112484D01*
X21155Y112414D01*
X21238Y112341D01*
X21320Y112266D01*
X21398Y112188D01*
X21473Y112106D01*
X21546Y112023D01*
X21616Y111937D01*
X21683Y111848D01*
X21746Y111757D01*
X21807Y111664D01*
X21864Y111569D01*
X21917Y111473D01*
X21968Y111374D01*
X22015Y111273D01*
X22058Y111171D01*
X22098Y111068D01*
X22134Y110963D01*
X22166Y110857D01*
X22195Y110750D01*
X22220Y110642D01*
X22241Y110533D01*
X22258Y110424D01*
X22272Y110314D01*
X22281Y110203D01*
X22287Y110093D01*
X22289Y109982D01*
X22287Y109871D01*
X22281Y109761D01*
X22272Y109650D01*
X22258Y109540D01*
X22241Y109431D01*
X22220Y109322D01*
X22195Y109214D01*
X22166Y109107D01*
X22134Y109001D01*
X22098Y108896D01*
X22058Y108793D01*
X22015Y108691D01*
X21968Y108590D01*
X21917Y108491D01*
X21864Y108394D01*
X21807Y108300D01*
X21746Y108207D01*
X21683Y108116D01*
X21616Y108027D01*
X21546Y107941D01*
X21473Y107858D01*
X21398Y107776D01*
X21320Y107698D01*
X21238Y107623D01*
X21155Y107550D01*
X21069Y107480D01*
X20980Y107413D01*
X20889Y107350D01*
X20796Y107289D01*
X20701Y107232D01*
X20605Y107179D01*
X20506Y107128D01*
X20405Y107081D01*
X20303Y107038D01*
X20200Y106998D01*
X20095Y106962D01*
X19989Y106930D01*
X19882Y106901D01*
X19774Y106876D01*
X19665Y106855D01*
X19556Y106838D01*
X19446Y106824D01*
X19335Y106815D01*
X19225Y106809D01*
X19114Y106807D01*
X15939Y106807D01*
X26797Y110617D02*
X29972Y113157D01*
X29972Y101727D01*
X26797Y101727D02*
X33147Y101727D01*
D10*
X241300Y86360D02*
X241300Y73660D01*
X234950Y67310D01*
X222250Y67310D01*
X215900Y73660D01*
X222250Y92710D02*
X234950Y92710D01*
X241300Y86360D01*
X222250Y92710D02*
X215900Y86360D01*
X215900Y73660D01*
X234950Y67310D02*
X241300Y60960D01*
X241300Y48260D01*
X234950Y41910D01*
X222250Y41910D01*
X215900Y48260D01*
X215900Y60960D01*
X222250Y67310D01*
D11*
X219583Y101473D02*
X219583Y110363D01*
X219583Y101473D02*
X219581Y101373D01*
X219575Y101274D01*
X219565Y101174D01*
X219552Y101076D01*
X219534Y100977D01*
X219513Y100880D01*
X219488Y100784D01*
X219459Y100688D01*
X219426Y100594D01*
X219390Y100501D01*
X219350Y100410D01*
X219306Y100320D01*
X219259Y100232D01*
X219209Y100146D01*
X219155Y100062D01*
X219098Y99980D01*
X219038Y99901D01*
X218974Y99823D01*
X218908Y99749D01*
X218839Y99677D01*
X218767Y99608D01*
X218693Y99542D01*
X218615Y99478D01*
X218536Y99418D01*
X218454Y99361D01*
X218370Y99307D01*
X218284Y99257D01*
X218196Y99210D01*
X218106Y99166D01*
X218015Y99126D01*
X217922Y99090D01*
X217828Y99057D01*
X217732Y99028D01*
X217636Y99003D01*
X217539Y98982D01*
X217440Y98964D01*
X217342Y98951D01*
X217242Y98941D01*
X217143Y98935D01*
X217043Y98933D01*
X215773Y98933D01*
X225563Y98933D02*
X225563Y110363D01*
X228738Y110363D01*
X228849Y110361D01*
X228959Y110355D01*
X229070Y110346D01*
X229180Y110332D01*
X229289Y110315D01*
X229398Y110294D01*
X229506Y110269D01*
X229613Y110240D01*
X229719Y110208D01*
X229824Y110172D01*
X229927Y110132D01*
X230029Y110089D01*
X230130Y110042D01*
X230229Y109991D01*
X230326Y109938D01*
X230420Y109881D01*
X230513Y109820D01*
X230604Y109757D01*
X230693Y109690D01*
X230779Y109620D01*
X230862Y109547D01*
X230944Y109472D01*
X231022Y109394D01*
X231097Y109312D01*
X231170Y109229D01*
X231240Y109143D01*
X231307Y109054D01*
X231370Y108963D01*
X231431Y108870D01*
X231488Y108775D01*
X231541Y108679D01*
X231592Y108580D01*
X231639Y108479D01*
X231682Y108377D01*
X231722Y108274D01*
X231758Y108169D01*
X231790Y108063D01*
X231819Y107956D01*
X231844Y107848D01*
X231865Y107739D01*
X231882Y107630D01*
X231896Y107520D01*
X231905Y107409D01*
X231911Y107299D01*
X231913Y107188D01*
X231911Y107077D01*
X231905Y106967D01*
X231896Y106856D01*
X231882Y106746D01*
X231865Y106637D01*
X231844Y106528D01*
X231819Y106420D01*
X231790Y106313D01*
X231758Y106207D01*
X231722Y106102D01*
X231682Y105999D01*
X231639Y105897D01*
X231592Y105796D01*
X231541Y105697D01*
X231488Y105600D01*
X231431Y105506D01*
X231370Y105413D01*
X231307Y105322D01*
X231240Y105233D01*
X231170Y105147D01*
X231097Y105064D01*
X231022Y104982D01*
X230944Y104904D01*
X230862Y104829D01*
X230779Y104756D01*
X230693Y104686D01*
X230604Y104619D01*
X230513Y104556D01*
X230420Y104495D01*
X230325Y104438D01*
X230229Y104385D01*
X230130Y104334D01*
X230029Y104287D01*
X229927Y104244D01*
X229824Y104204D01*
X229719Y104168D01*
X229613Y104136D01*
X229506Y104107D01*
X229398Y104082D01*
X229289Y104061D01*
X229180Y104044D01*
X229070Y104030D01*
X228959Y104021D01*
X228849Y104015D01*
X228738Y104013D01*
X225563Y104013D01*
X239914Y110364D02*
X240018Y110362D01*
X240123Y110356D01*
X240227Y110347D01*
X240330Y110334D01*
X240433Y110316D01*
X240535Y110296D01*
X240637Y110271D01*
X240737Y110243D01*
X240837Y110211D01*
X240935Y110175D01*
X241032Y110136D01*
X241127Y110094D01*
X241221Y110048D01*
X241313Y109998D01*
X241403Y109946D01*
X241491Y109890D01*
X241577Y109830D01*
X241661Y109768D01*
X241742Y109703D01*
X241821Y109635D01*
X241898Y109563D01*
X241971Y109490D01*
X242043Y109413D01*
X242111Y109334D01*
X242176Y109253D01*
X242238Y109169D01*
X242298Y109083D01*
X242354Y108995D01*
X242406Y108905D01*
X242456Y108813D01*
X242502Y108719D01*
X242544Y108624D01*
X242583Y108527D01*
X242619Y108429D01*
X242651Y108329D01*
X242679Y108229D01*
X242704Y108127D01*
X242724Y108025D01*
X242742Y107922D01*
X242755Y107819D01*
X242764Y107715D01*
X242770Y107610D01*
X242772Y107506D01*
X239914Y110363D02*
X239796Y110361D01*
X239677Y110355D01*
X239559Y110346D01*
X239442Y110333D01*
X239325Y110315D01*
X239208Y110295D01*
X239092Y110270D01*
X238977Y110242D01*
X238864Y110209D01*
X238751Y110174D01*
X238639Y110134D01*
X238529Y110092D01*
X238420Y110045D01*
X238312Y109995D01*
X238207Y109942D01*
X238103Y109885D01*
X238001Y109825D01*
X237901Y109762D01*
X237803Y109695D01*
X237707Y109626D01*
X237614Y109553D01*
X237523Y109477D01*
X237434Y109399D01*
X237348Y109317D01*
X237265Y109233D01*
X237184Y109147D01*
X237107Y109057D01*
X237032Y108966D01*
X236960Y108872D01*
X236891Y108775D01*
X236826Y108677D01*
X236763Y108576D01*
X236704Y108473D01*
X236648Y108369D01*
X236596Y108263D01*
X236547Y108155D01*
X236502Y108046D01*
X236460Y107935D01*
X236422Y107823D01*
X241820Y105284D02*
X241896Y105359D01*
X241971Y105438D01*
X242042Y105519D01*
X242111Y105603D01*
X242176Y105689D01*
X242238Y105777D01*
X242298Y105867D01*
X242354Y105959D01*
X242407Y106054D01*
X242456Y106150D01*
X242502Y106248D01*
X242545Y106347D01*
X242584Y106448D01*
X242619Y106550D01*
X242651Y106653D01*
X242679Y106757D01*
X242704Y106862D01*
X242725Y106969D01*
X242742Y107075D01*
X242755Y107182D01*
X242764Y107290D01*
X242770Y107398D01*
X242772Y107506D01*
X241819Y105283D02*
X236422Y98933D01*
X242772Y98933D01*
M02*
