G04 EAGLE Gerber RS-274X export*
G75*
%MOMM*%
%FSLAX34Y34*%
%LPD*%
%INSilkscreen Top*%
%IPPOS*%
%AMOC8*
5,1,8,0,0,1.08239X$1,22.5*%
G01*
%ADD10C,0.101600*%
%ADD11C,0.152400*%
%ADD12R,2.540000X0.508000*%
%ADD13R,0.762000X1.905000*%
%ADD14C,0.127000*%
%ADD15C,0.203200*%


D10*
X361414Y170688D02*
X365309Y182372D01*
X369203Y170688D01*
X368230Y173609D02*
X362388Y173609D01*
X373874Y170688D02*
X373874Y182372D01*
X380365Y170688D01*
X380365Y182372D01*
X388168Y182372D02*
X388168Y170688D01*
X384923Y182372D02*
X391414Y182372D01*
X395083Y171337D02*
X395083Y170688D01*
X395083Y171337D02*
X395732Y171337D01*
X395732Y170688D01*
X395083Y170688D01*
X286964Y183388D02*
X286964Y195072D01*
X290209Y195072D02*
X283718Y195072D01*
X293737Y183388D02*
X301526Y195072D01*
X293737Y195072D02*
X301526Y183388D01*
X153715Y14732D02*
X153715Y3048D01*
X153715Y14732D02*
X156961Y14732D01*
X157074Y14730D01*
X157187Y14724D01*
X157300Y14714D01*
X157413Y14700D01*
X157525Y14683D01*
X157636Y14661D01*
X157746Y14636D01*
X157856Y14606D01*
X157964Y14573D01*
X158071Y14536D01*
X158177Y14496D01*
X158281Y14451D01*
X158384Y14403D01*
X158485Y14352D01*
X158584Y14297D01*
X158681Y14239D01*
X158776Y14177D01*
X158869Y14112D01*
X158959Y14044D01*
X159047Y13973D01*
X159133Y13898D01*
X159216Y13821D01*
X159296Y13741D01*
X159373Y13658D01*
X159448Y13572D01*
X159519Y13484D01*
X159587Y13394D01*
X159652Y13301D01*
X159714Y13206D01*
X159772Y13109D01*
X159827Y13010D01*
X159878Y12909D01*
X159926Y12806D01*
X159971Y12702D01*
X160011Y12596D01*
X160048Y12489D01*
X160081Y12381D01*
X160111Y12271D01*
X160136Y12161D01*
X160158Y12050D01*
X160175Y11938D01*
X160189Y11825D01*
X160199Y11712D01*
X160205Y11599D01*
X160207Y11486D01*
X160205Y11373D01*
X160199Y11260D01*
X160189Y11147D01*
X160175Y11034D01*
X160158Y10922D01*
X160136Y10811D01*
X160111Y10701D01*
X160081Y10591D01*
X160048Y10483D01*
X160011Y10376D01*
X159971Y10270D01*
X159926Y10166D01*
X159878Y10063D01*
X159827Y9962D01*
X159772Y9863D01*
X159714Y9766D01*
X159652Y9671D01*
X159587Y9578D01*
X159519Y9488D01*
X159448Y9400D01*
X159373Y9314D01*
X159296Y9231D01*
X159216Y9151D01*
X159133Y9074D01*
X159047Y8999D01*
X158959Y8928D01*
X158869Y8860D01*
X158776Y8795D01*
X158681Y8733D01*
X158584Y8675D01*
X158485Y8620D01*
X158384Y8569D01*
X158281Y8521D01*
X158177Y8476D01*
X158071Y8436D01*
X157964Y8399D01*
X157856Y8366D01*
X157746Y8336D01*
X157636Y8311D01*
X157525Y8289D01*
X157413Y8272D01*
X157300Y8258D01*
X157187Y8248D01*
X157074Y8242D01*
X156961Y8240D01*
X156961Y8241D02*
X153715Y8241D01*
X157610Y8241D02*
X160207Y3048D01*
X164423Y3048D02*
X172212Y14732D01*
X164423Y14732D02*
X172212Y3048D01*
D11*
X101600Y78740D02*
X101600Y119380D01*
X101600Y78740D02*
X127000Y78740D01*
X127000Y119380D01*
X101600Y119380D01*
X114300Y105410D02*
X114300Y99060D01*
X120650Y88900D02*
X107950Y88900D01*
X114300Y99060D01*
X114300Y83820D01*
X120650Y88900D02*
X114300Y99060D01*
X120650Y99060D01*
X114300Y99060D02*
X107950Y99060D01*
D12*
X114300Y113030D03*
D13*
X114300Y69215D03*
X114300Y128905D03*
D14*
X75184Y104775D02*
X75184Y93345D01*
X75184Y104775D02*
X78359Y104775D01*
X78470Y104773D01*
X78580Y104767D01*
X78691Y104758D01*
X78801Y104744D01*
X78910Y104727D01*
X79019Y104706D01*
X79127Y104681D01*
X79234Y104652D01*
X79340Y104620D01*
X79445Y104584D01*
X79548Y104544D01*
X79650Y104501D01*
X79751Y104454D01*
X79850Y104403D01*
X79947Y104350D01*
X80041Y104293D01*
X80134Y104232D01*
X80225Y104169D01*
X80314Y104102D01*
X80400Y104032D01*
X80483Y103959D01*
X80565Y103884D01*
X80643Y103806D01*
X80718Y103724D01*
X80791Y103641D01*
X80861Y103555D01*
X80928Y103466D01*
X80991Y103375D01*
X81052Y103282D01*
X81109Y103188D01*
X81162Y103091D01*
X81213Y102992D01*
X81260Y102891D01*
X81303Y102789D01*
X81343Y102686D01*
X81379Y102581D01*
X81411Y102475D01*
X81440Y102368D01*
X81465Y102260D01*
X81486Y102151D01*
X81503Y102042D01*
X81517Y101932D01*
X81526Y101821D01*
X81532Y101711D01*
X81534Y101600D01*
X81534Y96520D01*
X81532Y96409D01*
X81526Y96299D01*
X81517Y96188D01*
X81503Y96078D01*
X81486Y95969D01*
X81465Y95860D01*
X81440Y95752D01*
X81411Y95645D01*
X81379Y95539D01*
X81343Y95434D01*
X81303Y95331D01*
X81260Y95229D01*
X81213Y95128D01*
X81162Y95029D01*
X81109Y94932D01*
X81052Y94838D01*
X80991Y94745D01*
X80928Y94654D01*
X80861Y94565D01*
X80791Y94479D01*
X80718Y94396D01*
X80643Y94314D01*
X80565Y94236D01*
X80483Y94161D01*
X80400Y94088D01*
X80314Y94018D01*
X80225Y93951D01*
X80134Y93888D01*
X80041Y93827D01*
X79946Y93770D01*
X79850Y93717D01*
X79751Y93666D01*
X79650Y93619D01*
X79548Y93576D01*
X79445Y93536D01*
X79340Y93500D01*
X79234Y93468D01*
X79127Y93439D01*
X79019Y93414D01*
X78910Y93393D01*
X78801Y93376D01*
X78691Y93362D01*
X78580Y93353D01*
X78470Y93347D01*
X78359Y93345D01*
X75184Y93345D01*
X86995Y102235D02*
X90170Y104775D01*
X90170Y93345D01*
X86995Y93345D02*
X93345Y93345D01*
D11*
X7620Y143510D02*
X7620Y156210D01*
X13970Y162560D01*
X26670Y162560D01*
X33020Y156210D01*
X13970Y162560D02*
X7620Y168910D01*
X7620Y181610D01*
X13970Y187960D01*
X26670Y187960D01*
X33020Y181610D01*
X33020Y168910D01*
X26670Y162560D01*
X26670Y137160D02*
X13970Y137160D01*
X7620Y143510D01*
X26670Y137160D02*
X33020Y143510D01*
X33020Y156210D01*
X13970Y187960D02*
X7620Y194310D01*
X7620Y207010D01*
X13970Y213360D01*
X26670Y213360D01*
X33020Y207010D01*
X33020Y194310D01*
X26670Y187960D01*
D14*
X44323Y182753D02*
X44323Y173863D01*
X44321Y173763D01*
X44315Y173664D01*
X44305Y173564D01*
X44292Y173466D01*
X44274Y173367D01*
X44253Y173270D01*
X44228Y173174D01*
X44199Y173078D01*
X44166Y172984D01*
X44130Y172891D01*
X44090Y172800D01*
X44046Y172710D01*
X43999Y172622D01*
X43949Y172536D01*
X43895Y172452D01*
X43838Y172370D01*
X43778Y172291D01*
X43714Y172213D01*
X43648Y172139D01*
X43579Y172067D01*
X43507Y171998D01*
X43433Y171932D01*
X43355Y171868D01*
X43276Y171808D01*
X43194Y171751D01*
X43110Y171697D01*
X43024Y171647D01*
X42936Y171600D01*
X42846Y171556D01*
X42755Y171516D01*
X42662Y171480D01*
X42568Y171447D01*
X42472Y171418D01*
X42376Y171393D01*
X42279Y171372D01*
X42180Y171354D01*
X42082Y171341D01*
X41982Y171331D01*
X41883Y171325D01*
X41783Y171323D01*
X40513Y171323D01*
X50303Y171323D02*
X50303Y182753D01*
X53478Y182753D01*
X53589Y182751D01*
X53699Y182745D01*
X53810Y182736D01*
X53920Y182722D01*
X54029Y182705D01*
X54138Y182684D01*
X54246Y182659D01*
X54353Y182630D01*
X54459Y182598D01*
X54564Y182562D01*
X54667Y182522D01*
X54769Y182479D01*
X54870Y182432D01*
X54969Y182381D01*
X55066Y182328D01*
X55160Y182271D01*
X55253Y182210D01*
X55344Y182147D01*
X55433Y182080D01*
X55519Y182010D01*
X55602Y181937D01*
X55684Y181862D01*
X55762Y181784D01*
X55837Y181702D01*
X55910Y181619D01*
X55980Y181533D01*
X56047Y181444D01*
X56110Y181353D01*
X56171Y181260D01*
X56228Y181165D01*
X56281Y181069D01*
X56332Y180970D01*
X56379Y180869D01*
X56422Y180767D01*
X56462Y180664D01*
X56498Y180559D01*
X56530Y180453D01*
X56559Y180346D01*
X56584Y180238D01*
X56605Y180129D01*
X56622Y180020D01*
X56636Y179910D01*
X56645Y179799D01*
X56651Y179689D01*
X56653Y179578D01*
X56651Y179467D01*
X56645Y179357D01*
X56636Y179246D01*
X56622Y179136D01*
X56605Y179027D01*
X56584Y178918D01*
X56559Y178810D01*
X56530Y178703D01*
X56498Y178597D01*
X56462Y178492D01*
X56422Y178389D01*
X56379Y178287D01*
X56332Y178186D01*
X56281Y178087D01*
X56228Y177990D01*
X56171Y177896D01*
X56110Y177803D01*
X56047Y177712D01*
X55980Y177623D01*
X55910Y177537D01*
X55837Y177454D01*
X55762Y177372D01*
X55684Y177294D01*
X55602Y177219D01*
X55519Y177146D01*
X55433Y177076D01*
X55344Y177009D01*
X55253Y176946D01*
X55160Y176885D01*
X55065Y176828D01*
X54969Y176775D01*
X54870Y176724D01*
X54769Y176677D01*
X54667Y176634D01*
X54564Y176594D01*
X54459Y176558D01*
X54353Y176526D01*
X54246Y176497D01*
X54138Y176472D01*
X54029Y176451D01*
X53920Y176434D01*
X53810Y176420D01*
X53699Y176411D01*
X53589Y176405D01*
X53478Y176403D01*
X50303Y176403D01*
X61162Y180213D02*
X64337Y182753D01*
X64337Y171323D01*
X61162Y171323D02*
X67512Y171323D01*
D11*
X7620Y52070D02*
X7620Y39370D01*
X7620Y52070D02*
X13970Y58420D01*
X26670Y58420D01*
X33020Y52070D01*
X13970Y58420D02*
X7620Y64770D01*
X7620Y77470D01*
X13970Y83820D01*
X26670Y83820D01*
X33020Y77470D01*
X33020Y64770D01*
X26670Y58420D01*
X26670Y33020D02*
X13970Y33020D01*
X7620Y39370D01*
X26670Y33020D02*
X33020Y39370D01*
X33020Y52070D01*
X13970Y83820D02*
X7620Y90170D01*
X7620Y102870D01*
X13970Y109220D01*
X26670Y109220D01*
X33020Y102870D01*
X33020Y90170D01*
X26670Y83820D01*
D14*
X44323Y78613D02*
X44323Y69723D01*
X44321Y69623D01*
X44315Y69524D01*
X44305Y69424D01*
X44292Y69326D01*
X44274Y69227D01*
X44253Y69130D01*
X44228Y69034D01*
X44199Y68938D01*
X44166Y68844D01*
X44130Y68751D01*
X44090Y68660D01*
X44046Y68570D01*
X43999Y68482D01*
X43949Y68396D01*
X43895Y68312D01*
X43838Y68230D01*
X43778Y68151D01*
X43714Y68073D01*
X43648Y67999D01*
X43579Y67927D01*
X43507Y67858D01*
X43433Y67792D01*
X43355Y67728D01*
X43276Y67668D01*
X43194Y67611D01*
X43110Y67557D01*
X43024Y67507D01*
X42936Y67460D01*
X42846Y67416D01*
X42755Y67376D01*
X42662Y67340D01*
X42568Y67307D01*
X42472Y67278D01*
X42376Y67253D01*
X42279Y67232D01*
X42180Y67214D01*
X42082Y67201D01*
X41982Y67191D01*
X41883Y67185D01*
X41783Y67183D01*
X40513Y67183D01*
X50303Y67183D02*
X50303Y78613D01*
X53478Y78613D01*
X53589Y78611D01*
X53699Y78605D01*
X53810Y78596D01*
X53920Y78582D01*
X54029Y78565D01*
X54138Y78544D01*
X54246Y78519D01*
X54353Y78490D01*
X54459Y78458D01*
X54564Y78422D01*
X54667Y78382D01*
X54769Y78339D01*
X54870Y78292D01*
X54969Y78241D01*
X55066Y78188D01*
X55160Y78131D01*
X55253Y78070D01*
X55344Y78007D01*
X55433Y77940D01*
X55519Y77870D01*
X55602Y77797D01*
X55684Y77722D01*
X55762Y77644D01*
X55837Y77562D01*
X55910Y77479D01*
X55980Y77393D01*
X56047Y77304D01*
X56110Y77213D01*
X56171Y77120D01*
X56228Y77025D01*
X56281Y76929D01*
X56332Y76830D01*
X56379Y76729D01*
X56422Y76627D01*
X56462Y76524D01*
X56498Y76419D01*
X56530Y76313D01*
X56559Y76206D01*
X56584Y76098D01*
X56605Y75989D01*
X56622Y75880D01*
X56636Y75770D01*
X56645Y75659D01*
X56651Y75549D01*
X56653Y75438D01*
X56651Y75327D01*
X56645Y75217D01*
X56636Y75106D01*
X56622Y74996D01*
X56605Y74887D01*
X56584Y74778D01*
X56559Y74670D01*
X56530Y74563D01*
X56498Y74457D01*
X56462Y74352D01*
X56422Y74249D01*
X56379Y74147D01*
X56332Y74046D01*
X56281Y73947D01*
X56228Y73850D01*
X56171Y73756D01*
X56110Y73663D01*
X56047Y73572D01*
X55980Y73483D01*
X55910Y73397D01*
X55837Y73314D01*
X55762Y73232D01*
X55684Y73154D01*
X55602Y73079D01*
X55519Y73006D01*
X55433Y72936D01*
X55344Y72869D01*
X55253Y72806D01*
X55160Y72745D01*
X55065Y72688D01*
X54969Y72635D01*
X54870Y72584D01*
X54769Y72537D01*
X54667Y72494D01*
X54564Y72454D01*
X54459Y72418D01*
X54353Y72386D01*
X54246Y72357D01*
X54138Y72332D01*
X54029Y72311D01*
X53920Y72294D01*
X53810Y72280D01*
X53699Y72271D01*
X53589Y72265D01*
X53478Y72263D01*
X50303Y72263D01*
X64654Y78614D02*
X64758Y78612D01*
X64863Y78606D01*
X64967Y78597D01*
X65070Y78584D01*
X65173Y78566D01*
X65275Y78546D01*
X65377Y78521D01*
X65477Y78493D01*
X65577Y78461D01*
X65675Y78425D01*
X65772Y78386D01*
X65867Y78344D01*
X65961Y78298D01*
X66053Y78248D01*
X66143Y78196D01*
X66231Y78140D01*
X66317Y78080D01*
X66401Y78018D01*
X66482Y77953D01*
X66561Y77885D01*
X66638Y77813D01*
X66711Y77740D01*
X66783Y77663D01*
X66851Y77584D01*
X66916Y77503D01*
X66978Y77419D01*
X67038Y77333D01*
X67094Y77245D01*
X67146Y77155D01*
X67196Y77063D01*
X67242Y76969D01*
X67284Y76874D01*
X67323Y76777D01*
X67359Y76679D01*
X67391Y76579D01*
X67419Y76479D01*
X67444Y76377D01*
X67464Y76275D01*
X67482Y76172D01*
X67495Y76069D01*
X67504Y75965D01*
X67510Y75860D01*
X67512Y75756D01*
X64654Y78613D02*
X64536Y78611D01*
X64417Y78605D01*
X64299Y78596D01*
X64182Y78583D01*
X64065Y78565D01*
X63948Y78545D01*
X63832Y78520D01*
X63717Y78492D01*
X63604Y78459D01*
X63491Y78424D01*
X63379Y78384D01*
X63269Y78342D01*
X63160Y78295D01*
X63052Y78245D01*
X62947Y78192D01*
X62843Y78135D01*
X62741Y78075D01*
X62641Y78012D01*
X62543Y77945D01*
X62447Y77876D01*
X62354Y77803D01*
X62263Y77727D01*
X62174Y77649D01*
X62088Y77567D01*
X62005Y77483D01*
X61924Y77397D01*
X61847Y77307D01*
X61772Y77216D01*
X61700Y77122D01*
X61631Y77025D01*
X61566Y76927D01*
X61503Y76826D01*
X61444Y76723D01*
X61388Y76619D01*
X61336Y76513D01*
X61287Y76405D01*
X61242Y76296D01*
X61200Y76185D01*
X61162Y76073D01*
X66560Y73534D02*
X66636Y73609D01*
X66711Y73688D01*
X66782Y73769D01*
X66851Y73853D01*
X66916Y73939D01*
X66978Y74027D01*
X67038Y74117D01*
X67094Y74209D01*
X67147Y74304D01*
X67196Y74400D01*
X67242Y74498D01*
X67285Y74597D01*
X67324Y74698D01*
X67359Y74800D01*
X67391Y74903D01*
X67419Y75007D01*
X67444Y75112D01*
X67465Y75219D01*
X67482Y75325D01*
X67495Y75432D01*
X67504Y75540D01*
X67510Y75648D01*
X67512Y75756D01*
X66559Y73533D02*
X61162Y67183D01*
X67512Y67183D01*
D15*
X248600Y-15500D02*
X275100Y-15500D01*
X248600Y-15500D02*
X248600Y-37000D01*
X256100Y-44500D01*
X256100Y-82500D01*
X247600Y-82500D01*
X247600Y-94250D01*
X209600Y-94250D01*
X209600Y-82500D01*
X201100Y-82500D01*
X201100Y-44500D01*
X208600Y-37000D01*
X208600Y-15500D01*
X182100Y-15500D01*
X190100Y-1000D02*
X267100Y-1000D01*
X182100Y-1000D02*
X182100Y-15500D01*
X275100Y-15500D02*
X275100Y-1000D01*
D10*
X161431Y37592D02*
X153642Y25908D01*
X161431Y25908D02*
X153642Y37592D01*
X165721Y34996D02*
X168966Y37592D01*
X168966Y25908D01*
X165721Y25908D02*
X172212Y25908D01*
D15*
X182100Y235500D02*
X208600Y235500D01*
X208600Y257000D01*
X201100Y264500D01*
X201100Y302500D01*
X209600Y302500D01*
X209600Y314250D01*
X247600Y314250D01*
X247600Y302500D01*
X256100Y302500D01*
X256100Y264500D01*
X248600Y257000D01*
X248600Y235500D01*
X275100Y235500D01*
X267100Y221000D02*
X190100Y221000D01*
X275100Y221000D02*
X275100Y235500D01*
X182100Y235500D02*
X182100Y221000D01*
D10*
X283718Y203868D02*
X291507Y215552D01*
X283718Y215552D02*
X291507Y203868D01*
X302288Y212631D02*
X302286Y212738D01*
X302280Y212844D01*
X302270Y212950D01*
X302257Y213056D01*
X302239Y213162D01*
X302218Y213266D01*
X302193Y213370D01*
X302164Y213473D01*
X302132Y213574D01*
X302095Y213674D01*
X302055Y213773D01*
X302012Y213871D01*
X301965Y213967D01*
X301914Y214061D01*
X301860Y214153D01*
X301803Y214243D01*
X301743Y214331D01*
X301679Y214416D01*
X301612Y214499D01*
X301542Y214580D01*
X301470Y214658D01*
X301394Y214734D01*
X301316Y214806D01*
X301235Y214876D01*
X301152Y214943D01*
X301067Y215007D01*
X300979Y215067D01*
X300889Y215124D01*
X300797Y215178D01*
X300703Y215229D01*
X300607Y215276D01*
X300509Y215319D01*
X300410Y215359D01*
X300310Y215396D01*
X300209Y215428D01*
X300106Y215457D01*
X300002Y215482D01*
X299898Y215503D01*
X299792Y215521D01*
X299686Y215534D01*
X299580Y215544D01*
X299474Y215550D01*
X299367Y215552D01*
X299246Y215550D01*
X299125Y215544D01*
X299005Y215534D01*
X298884Y215521D01*
X298765Y215503D01*
X298645Y215482D01*
X298527Y215457D01*
X298410Y215428D01*
X298293Y215395D01*
X298178Y215359D01*
X298064Y215318D01*
X297951Y215275D01*
X297839Y215227D01*
X297730Y215176D01*
X297622Y215121D01*
X297515Y215063D01*
X297411Y215002D01*
X297309Y214937D01*
X297209Y214869D01*
X297111Y214798D01*
X297015Y214724D01*
X296922Y214647D01*
X296832Y214566D01*
X296744Y214483D01*
X296659Y214397D01*
X296576Y214308D01*
X296497Y214217D01*
X296420Y214123D01*
X296347Y214027D01*
X296277Y213929D01*
X296210Y213828D01*
X296146Y213725D01*
X296086Y213620D01*
X296029Y213513D01*
X295975Y213405D01*
X295925Y213295D01*
X295879Y213183D01*
X295836Y213070D01*
X295797Y212955D01*
X301315Y210359D02*
X301394Y210436D01*
X301470Y210517D01*
X301543Y210600D01*
X301613Y210685D01*
X301680Y210773D01*
X301744Y210863D01*
X301804Y210955D01*
X301861Y211050D01*
X301915Y211146D01*
X301966Y211244D01*
X302013Y211344D01*
X302057Y211446D01*
X302097Y211549D01*
X302133Y211653D01*
X302165Y211759D01*
X302194Y211865D01*
X302219Y211973D01*
X302241Y212081D01*
X302258Y212191D01*
X302272Y212300D01*
X302281Y212410D01*
X302287Y212521D01*
X302289Y212631D01*
X301315Y210359D02*
X295797Y203868D01*
X302288Y203868D01*
D15*
X415500Y161500D02*
X415500Y135000D01*
X437000Y135000D01*
X444500Y142500D01*
X482500Y142500D01*
X482500Y134000D01*
X494250Y134000D01*
X494250Y96000D01*
X482500Y96000D01*
X482500Y87500D01*
X444500Y87500D01*
X437000Y95000D01*
X415500Y95000D01*
X415500Y68500D01*
X401000Y76500D02*
X401000Y153500D01*
X401000Y68500D02*
X415500Y68500D01*
X415500Y161500D02*
X401000Y161500D01*
D10*
X375102Y191008D02*
X382891Y202692D01*
X375102Y202692D02*
X382891Y191008D01*
X387181Y191008D02*
X390426Y191008D01*
X390539Y191010D01*
X390652Y191016D01*
X390765Y191026D01*
X390878Y191040D01*
X390990Y191057D01*
X391101Y191079D01*
X391211Y191104D01*
X391321Y191134D01*
X391429Y191167D01*
X391536Y191204D01*
X391642Y191244D01*
X391746Y191289D01*
X391849Y191337D01*
X391950Y191388D01*
X392049Y191443D01*
X392146Y191501D01*
X392241Y191563D01*
X392334Y191628D01*
X392424Y191696D01*
X392512Y191767D01*
X392598Y191842D01*
X392681Y191919D01*
X392761Y191999D01*
X392838Y192082D01*
X392913Y192168D01*
X392984Y192256D01*
X393052Y192346D01*
X393117Y192439D01*
X393179Y192534D01*
X393237Y192631D01*
X393292Y192730D01*
X393343Y192831D01*
X393391Y192934D01*
X393436Y193038D01*
X393476Y193144D01*
X393513Y193251D01*
X393546Y193359D01*
X393576Y193469D01*
X393601Y193579D01*
X393623Y193690D01*
X393640Y193802D01*
X393654Y193915D01*
X393664Y194028D01*
X393670Y194141D01*
X393672Y194254D01*
X393670Y194367D01*
X393664Y194480D01*
X393654Y194593D01*
X393640Y194706D01*
X393623Y194818D01*
X393601Y194929D01*
X393576Y195039D01*
X393546Y195149D01*
X393513Y195257D01*
X393476Y195364D01*
X393436Y195470D01*
X393391Y195574D01*
X393343Y195677D01*
X393292Y195778D01*
X393237Y195877D01*
X393179Y195974D01*
X393117Y196069D01*
X393052Y196162D01*
X392984Y196252D01*
X392913Y196340D01*
X392838Y196426D01*
X392761Y196509D01*
X392681Y196589D01*
X392598Y196666D01*
X392512Y196741D01*
X392424Y196812D01*
X392334Y196880D01*
X392241Y196945D01*
X392146Y197007D01*
X392049Y197065D01*
X391950Y197120D01*
X391849Y197171D01*
X391746Y197219D01*
X391642Y197264D01*
X391536Y197304D01*
X391429Y197341D01*
X391321Y197374D01*
X391211Y197404D01*
X391101Y197429D01*
X390990Y197451D01*
X390878Y197468D01*
X390765Y197482D01*
X390652Y197492D01*
X390539Y197498D01*
X390426Y197500D01*
X391076Y202692D02*
X387181Y202692D01*
X391076Y202692D02*
X391177Y202690D01*
X391277Y202684D01*
X391377Y202674D01*
X391477Y202661D01*
X391576Y202643D01*
X391675Y202622D01*
X391772Y202597D01*
X391869Y202568D01*
X391964Y202535D01*
X392058Y202499D01*
X392150Y202459D01*
X392241Y202416D01*
X392330Y202369D01*
X392417Y202319D01*
X392503Y202265D01*
X392586Y202208D01*
X392666Y202148D01*
X392745Y202085D01*
X392821Y202018D01*
X392894Y201949D01*
X392964Y201877D01*
X393032Y201803D01*
X393097Y201726D01*
X393158Y201646D01*
X393217Y201564D01*
X393272Y201480D01*
X393324Y201394D01*
X393373Y201306D01*
X393418Y201216D01*
X393460Y201124D01*
X393498Y201031D01*
X393532Y200936D01*
X393563Y200841D01*
X393590Y200744D01*
X393613Y200646D01*
X393633Y200547D01*
X393648Y200447D01*
X393660Y200347D01*
X393668Y200247D01*
X393672Y200146D01*
X393672Y200046D01*
X393668Y199945D01*
X393660Y199845D01*
X393648Y199745D01*
X393633Y199645D01*
X393613Y199546D01*
X393590Y199448D01*
X393563Y199351D01*
X393532Y199256D01*
X393498Y199161D01*
X393460Y199068D01*
X393418Y198976D01*
X393373Y198886D01*
X393324Y198798D01*
X393272Y198712D01*
X393217Y198628D01*
X393158Y198546D01*
X393097Y198466D01*
X393032Y198389D01*
X392964Y198315D01*
X392894Y198243D01*
X392821Y198174D01*
X392745Y198107D01*
X392666Y198044D01*
X392586Y197984D01*
X392503Y197927D01*
X392417Y197873D01*
X392330Y197823D01*
X392241Y197776D01*
X392150Y197733D01*
X392058Y197693D01*
X391964Y197657D01*
X391869Y197624D01*
X391772Y197595D01*
X391675Y197570D01*
X391576Y197549D01*
X391477Y197531D01*
X391377Y197518D01*
X391277Y197508D01*
X391177Y197502D01*
X391076Y197500D01*
X391076Y197499D02*
X388479Y197499D01*
D11*
X147320Y101600D02*
X144780Y101600D01*
X147320Y101600D02*
X157480Y101600D01*
X170180Y101600D02*
X170180Y119380D01*
X167640Y119380D01*
X157480Y119380D01*
X144780Y119380D02*
X144780Y101600D01*
X157480Y101600D02*
X157480Y90170D01*
X157480Y101600D02*
X170180Y101600D01*
X157480Y119380D02*
X157480Y130810D01*
X157480Y119380D02*
X144780Y119380D01*
X139700Y60960D02*
X341700Y60960D01*
X341700Y160960D01*
X139700Y160960D01*
X139700Y60960D01*
D14*
X228600Y83820D02*
X228600Y93980D01*
X274320Y93980D01*
X279400Y88900D02*
X279400Y83820D01*
X279400Y99060D02*
X330200Y99060D01*
X330200Y83820D01*
X284480Y88900D02*
X274320Y93980D01*
X228600Y129540D02*
X228600Y139700D01*
X228600Y129540D02*
X274320Y129540D01*
X284480Y134620D01*
X279400Y134620D02*
X279400Y139700D01*
X330200Y139700D02*
X330200Y124460D01*
X279400Y124460D01*
D11*
X167640Y119380D02*
X147320Y101600D01*
D14*
X140335Y168275D02*
X140335Y179705D01*
X146685Y179705D02*
X140335Y172720D01*
X142875Y175260D02*
X146685Y168275D01*
X151194Y177165D02*
X154369Y179705D01*
X154369Y168275D01*
X151194Y168275D02*
X157544Y168275D01*
M02*
