G04 EAGLE Gerber RS-274X export*
G75*
%MOMM*%
%FSLAX34Y34*%
%LPD*%
%INBottom Copper*%
%IPPOS*%
%AMOC8*
5,1,8,0,0,1.08239X$1,22.5*%
G01*
%ADD10R,4.191000X2.667000*%

G36*
X689194Y5085D02*
X689194Y5085D01*
X689219Y5082D01*
X689314Y5104D01*
X689411Y5120D01*
X689432Y5132D01*
X689456Y5138D01*
X689540Y5189D01*
X689626Y5235D01*
X689643Y5253D01*
X689664Y5266D01*
X689726Y5342D01*
X689793Y5413D01*
X689803Y5436D01*
X689819Y5455D01*
X689853Y5546D01*
X689894Y5636D01*
X689896Y5660D01*
X689905Y5683D01*
X689919Y5830D01*
X689919Y174170D01*
X689915Y174194D01*
X689918Y174219D01*
X689896Y174314D01*
X689880Y174411D01*
X689868Y174432D01*
X689862Y174456D01*
X689811Y174540D01*
X689765Y174626D01*
X689747Y174643D01*
X689734Y174664D01*
X689658Y174726D01*
X689587Y174793D01*
X689564Y174803D01*
X689545Y174819D01*
X689454Y174853D01*
X689364Y174894D01*
X689340Y174896D01*
X689317Y174905D01*
X689170Y174919D01*
X5830Y174919D01*
X5806Y174915D01*
X5781Y174918D01*
X5686Y174896D01*
X5589Y174880D01*
X5568Y174868D01*
X5544Y174862D01*
X5460Y174811D01*
X5374Y174765D01*
X5357Y174747D01*
X5336Y174734D01*
X5274Y174658D01*
X5207Y174587D01*
X5197Y174564D01*
X5181Y174545D01*
X5147Y174454D01*
X5106Y174364D01*
X5104Y174340D01*
X5095Y174317D01*
X5081Y174170D01*
X5081Y148695D01*
X5093Y148622D01*
X5095Y148549D01*
X5112Y148503D01*
X5120Y148454D01*
X5155Y148389D01*
X5181Y148320D01*
X5212Y148282D01*
X5235Y148239D01*
X5289Y148189D01*
X5336Y148132D01*
X5377Y148106D01*
X5413Y148072D01*
X5480Y148042D01*
X5543Y148003D01*
X5591Y147992D01*
X5636Y147971D01*
X5709Y147964D01*
X5780Y147947D01*
X5829Y147952D01*
X5879Y147947D01*
X5950Y147964D01*
X6023Y147971D01*
X6068Y147991D01*
X6116Y148002D01*
X6179Y148041D01*
X6246Y148071D01*
X6302Y148118D01*
X6324Y148131D01*
X6334Y148144D01*
X6360Y148165D01*
X9326Y151131D01*
X13534Y151131D01*
X16511Y148154D01*
X16511Y141741D01*
X16515Y141717D01*
X16512Y141692D01*
X16534Y141597D01*
X16550Y141500D01*
X16562Y141479D01*
X16568Y141455D01*
X16619Y141371D01*
X16665Y141285D01*
X16683Y141268D01*
X16696Y141247D01*
X16772Y141185D01*
X16843Y141118D01*
X16866Y141108D01*
X16885Y141092D01*
X16976Y141058D01*
X17066Y141017D01*
X17090Y141015D01*
X17113Y141006D01*
X17260Y140992D01*
X31085Y140992D01*
X31085Y125866D01*
X31089Y125842D01*
X31086Y125818D01*
X31109Y125722D01*
X31125Y125625D01*
X31136Y125604D01*
X31142Y125580D01*
X31193Y125497D01*
X31240Y125410D01*
X31257Y125393D01*
X31270Y125373D01*
X31346Y125310D01*
X31418Y125243D01*
X31440Y125233D01*
X31459Y125218D01*
X31550Y125183D01*
X31640Y125142D01*
X31664Y125140D01*
X31687Y125131D01*
X31834Y125117D01*
X32585Y125117D01*
X32585Y125115D01*
X31834Y125115D01*
X31810Y125111D01*
X31786Y125114D01*
X31690Y125091D01*
X31593Y125075D01*
X31572Y125064D01*
X31548Y125058D01*
X31464Y125007D01*
X31378Y124960D01*
X31361Y124943D01*
X31341Y124930D01*
X31278Y124854D01*
X31211Y124782D01*
X31201Y124760D01*
X31186Y124741D01*
X31151Y124650D01*
X31110Y124560D01*
X31108Y124536D01*
X31099Y124513D01*
X31085Y124366D01*
X31085Y109240D01*
X17260Y109240D01*
X17236Y109236D01*
X17211Y109239D01*
X17116Y109217D01*
X17019Y109201D01*
X16998Y109189D01*
X16974Y109183D01*
X16890Y109132D01*
X16804Y109086D01*
X16787Y109068D01*
X16766Y109055D01*
X16704Y108979D01*
X16637Y108908D01*
X16627Y108885D01*
X16611Y108866D01*
X16577Y108775D01*
X16536Y108685D01*
X16534Y108661D01*
X16525Y108638D01*
X16511Y108491D01*
X16511Y71849D01*
X16515Y71825D01*
X16512Y71800D01*
X16534Y71705D01*
X16550Y71608D01*
X16562Y71587D01*
X16568Y71563D01*
X16619Y71479D01*
X16665Y71393D01*
X16683Y71376D01*
X16696Y71355D01*
X16772Y71293D01*
X16843Y71226D01*
X16866Y71216D01*
X16885Y71200D01*
X16976Y71166D01*
X17066Y71125D01*
X17090Y71123D01*
X17113Y71114D01*
X17260Y71100D01*
X31085Y71100D01*
X31085Y55974D01*
X31089Y55950D01*
X31086Y55926D01*
X31109Y55830D01*
X31125Y55733D01*
X31136Y55712D01*
X31142Y55688D01*
X31193Y55605D01*
X31240Y55518D01*
X31257Y55501D01*
X31270Y55481D01*
X31346Y55418D01*
X31418Y55351D01*
X31440Y55341D01*
X31459Y55326D01*
X31550Y55291D01*
X31640Y55250D01*
X31664Y55248D01*
X31687Y55239D01*
X31834Y55225D01*
X32585Y55225D01*
X32585Y55223D01*
X31834Y55223D01*
X31810Y55219D01*
X31786Y55222D01*
X31690Y55199D01*
X31593Y55183D01*
X31572Y55172D01*
X31548Y55166D01*
X31464Y55115D01*
X31378Y55068D01*
X31361Y55051D01*
X31341Y55038D01*
X31278Y54962D01*
X31211Y54890D01*
X31201Y54868D01*
X31186Y54849D01*
X31151Y54758D01*
X31110Y54668D01*
X31108Y54644D01*
X31099Y54621D01*
X31085Y54474D01*
X31085Y39348D01*
X17260Y39348D01*
X17236Y39344D01*
X17211Y39347D01*
X17116Y39325D01*
X17019Y39309D01*
X16998Y39297D01*
X16974Y39291D01*
X16890Y39240D01*
X16804Y39194D01*
X16787Y39176D01*
X16766Y39163D01*
X16704Y39087D01*
X16637Y39016D01*
X16627Y38993D01*
X16611Y38974D01*
X16577Y38883D01*
X16536Y38793D01*
X16534Y38769D01*
X16525Y38746D01*
X16511Y38599D01*
X16511Y32186D01*
X13534Y29209D01*
X9326Y29209D01*
X6360Y32175D01*
X6300Y32218D01*
X6246Y32268D01*
X6202Y32288D01*
X6161Y32317D01*
X6091Y32338D01*
X6024Y32369D01*
X5975Y32374D01*
X5928Y32388D01*
X5855Y32386D01*
X5781Y32393D01*
X5733Y32382D01*
X5684Y32380D01*
X5615Y32354D01*
X5544Y32338D01*
X5502Y32312D01*
X5456Y32294D01*
X5399Y32248D01*
X5336Y32209D01*
X5305Y32171D01*
X5267Y32140D01*
X5228Y32077D01*
X5181Y32020D01*
X5164Y31974D01*
X5138Y31932D01*
X5121Y31861D01*
X5095Y31792D01*
X5088Y31719D01*
X5082Y31695D01*
X5084Y31678D01*
X5081Y31645D01*
X5081Y5830D01*
X5085Y5806D01*
X5082Y5781D01*
X5104Y5686D01*
X5120Y5589D01*
X5132Y5568D01*
X5138Y5544D01*
X5189Y5460D01*
X5235Y5374D01*
X5253Y5357D01*
X5266Y5336D01*
X5342Y5274D01*
X5413Y5207D01*
X5436Y5197D01*
X5455Y5181D01*
X5546Y5147D01*
X5636Y5106D01*
X5660Y5104D01*
X5683Y5095D01*
X5830Y5081D01*
X689170Y5081D01*
X689194Y5085D01*
G37*
%LPC*%
G36*
X681156Y27939D02*
X681156Y27939D01*
X678179Y30916D01*
X678179Y37329D01*
X678177Y37342D01*
X678178Y37347D01*
X678176Y37356D01*
X678178Y37378D01*
X678156Y37473D01*
X678140Y37570D01*
X678128Y37591D01*
X678122Y37615D01*
X678071Y37699D01*
X678025Y37785D01*
X678007Y37802D01*
X677994Y37823D01*
X677918Y37885D01*
X677847Y37952D01*
X677824Y37962D01*
X677805Y37978D01*
X677714Y38012D01*
X677624Y38053D01*
X677600Y38055D01*
X677577Y38064D01*
X677430Y38078D01*
X663605Y38078D01*
X663605Y53204D01*
X663601Y53228D01*
X663604Y53252D01*
X663581Y53348D01*
X663565Y53445D01*
X663554Y53466D01*
X663548Y53490D01*
X663497Y53573D01*
X663450Y53660D01*
X663433Y53677D01*
X663420Y53697D01*
X663344Y53760D01*
X663272Y53827D01*
X663250Y53837D01*
X663231Y53852D01*
X663140Y53887D01*
X663050Y53928D01*
X663026Y53930D01*
X663003Y53939D01*
X662856Y53953D01*
X662105Y53953D01*
X662105Y53955D01*
X662856Y53955D01*
X662880Y53959D01*
X662904Y53956D01*
X663000Y53979D01*
X663097Y53995D01*
X663118Y54006D01*
X663142Y54012D01*
X663225Y54063D01*
X663312Y54110D01*
X663329Y54127D01*
X663349Y54140D01*
X663412Y54216D01*
X663479Y54288D01*
X663489Y54310D01*
X663504Y54329D01*
X663539Y54420D01*
X663580Y54510D01*
X663582Y54534D01*
X663591Y54557D01*
X663605Y54704D01*
X663605Y69830D01*
X677430Y69830D01*
X677454Y69834D01*
X677479Y69831D01*
X677574Y69853D01*
X677671Y69869D01*
X677692Y69881D01*
X677716Y69887D01*
X677800Y69938D01*
X677886Y69984D01*
X677903Y70002D01*
X677924Y70015D01*
X677986Y70091D01*
X678053Y70162D01*
X678063Y70185D01*
X678079Y70204D01*
X678113Y70295D01*
X678154Y70385D01*
X678156Y70409D01*
X678165Y70432D01*
X678179Y70579D01*
X678179Y107221D01*
X678175Y107245D01*
X678178Y107270D01*
X678156Y107365D01*
X678140Y107462D01*
X678128Y107483D01*
X678122Y107507D01*
X678071Y107591D01*
X678025Y107677D01*
X678007Y107694D01*
X677994Y107715D01*
X677918Y107777D01*
X677847Y107844D01*
X677824Y107854D01*
X677805Y107870D01*
X677714Y107904D01*
X677624Y107945D01*
X677600Y107947D01*
X677577Y107956D01*
X677430Y107970D01*
X663605Y107970D01*
X663605Y123096D01*
X663601Y123120D01*
X663604Y123144D01*
X663581Y123240D01*
X663565Y123337D01*
X663554Y123358D01*
X663548Y123382D01*
X663497Y123465D01*
X663450Y123552D01*
X663433Y123569D01*
X663420Y123589D01*
X663344Y123652D01*
X663272Y123719D01*
X663250Y123729D01*
X663231Y123744D01*
X663140Y123779D01*
X663050Y123820D01*
X663026Y123822D01*
X663003Y123831D01*
X662856Y123845D01*
X662105Y123845D01*
X662105Y123847D01*
X662856Y123847D01*
X662880Y123851D01*
X662904Y123848D01*
X663000Y123871D01*
X663097Y123887D01*
X663118Y123898D01*
X663142Y123904D01*
X663225Y123955D01*
X663312Y124002D01*
X663329Y124019D01*
X663349Y124032D01*
X663412Y124108D01*
X663479Y124180D01*
X663489Y124202D01*
X663504Y124221D01*
X663539Y124312D01*
X663580Y124402D01*
X663582Y124426D01*
X663591Y124449D01*
X663605Y124596D01*
X663605Y139722D01*
X677430Y139722D01*
X677454Y139726D01*
X677479Y139723D01*
X677574Y139745D01*
X677671Y139761D01*
X677692Y139773D01*
X677716Y139779D01*
X677800Y139830D01*
X677886Y139876D01*
X677903Y139894D01*
X677924Y139907D01*
X677986Y139983D01*
X678053Y140054D01*
X678063Y140077D01*
X678079Y140096D01*
X678113Y140187D01*
X678154Y140277D01*
X678156Y140301D01*
X678165Y140324D01*
X678179Y140471D01*
X678179Y146884D01*
X681156Y149861D01*
X685364Y149861D01*
X688341Y146884D01*
X688341Y30916D01*
X685364Y27939D01*
X681156Y27939D01*
G37*
%LPD*%
%LPC*%
G36*
X516006Y119919D02*
X516006Y119919D01*
X508625Y122976D01*
X502976Y128625D01*
X499919Y136006D01*
X499919Y143994D01*
X502976Y151375D01*
X508625Y157024D01*
X516006Y160081D01*
X523994Y160081D01*
X531375Y157024D01*
X537024Y151375D01*
X540081Y143994D01*
X540081Y136006D01*
X537024Y128625D01*
X531375Y122976D01*
X523994Y119919D01*
X516006Y119919D01*
G37*
%LPD*%
%LPC*%
G36*
X166006Y119919D02*
X166006Y119919D01*
X158625Y122976D01*
X152976Y128625D01*
X149919Y136006D01*
X149919Y143994D01*
X152976Y151375D01*
X158625Y157024D01*
X166006Y160081D01*
X173994Y160081D01*
X181375Y157024D01*
X187024Y151375D01*
X190081Y143994D01*
X190081Y136006D01*
X187024Y128625D01*
X181375Y122976D01*
X173994Y119919D01*
X166006Y119919D01*
G37*
%LPD*%
%LPC*%
G36*
X341006Y19919D02*
X341006Y19919D01*
X333625Y22976D01*
X327976Y28625D01*
X324919Y36006D01*
X324919Y43994D01*
X327976Y51375D01*
X333625Y57024D01*
X341006Y60081D01*
X348994Y60081D01*
X356375Y57024D01*
X362024Y51375D01*
X365081Y43994D01*
X365081Y36006D01*
X362024Y28625D01*
X356375Y22976D01*
X348994Y19919D01*
X341006Y19919D01*
G37*
%LPD*%
%LPC*%
G36*
X34083Y126615D02*
X34083Y126615D01*
X34083Y140992D01*
X53873Y140992D01*
X54520Y140819D01*
X55099Y140484D01*
X55572Y140011D01*
X55907Y139432D01*
X56080Y138785D01*
X56080Y126615D01*
X34083Y126615D01*
G37*
%LPD*%
%LPC*%
G36*
X34083Y56723D02*
X34083Y56723D01*
X34083Y71100D01*
X53873Y71100D01*
X54520Y70927D01*
X55099Y70592D01*
X55572Y70119D01*
X55907Y69540D01*
X56080Y68893D01*
X56080Y56723D01*
X34083Y56723D01*
G37*
%LPD*%
%LPC*%
G36*
X638610Y125345D02*
X638610Y125345D01*
X638610Y137515D01*
X638783Y138162D01*
X639118Y138741D01*
X639591Y139214D01*
X640170Y139549D01*
X640817Y139722D01*
X660607Y139722D01*
X660607Y125345D01*
X638610Y125345D01*
G37*
%LPD*%
%LPC*%
G36*
X638610Y55453D02*
X638610Y55453D01*
X638610Y67623D01*
X638783Y68270D01*
X639118Y68849D01*
X639591Y69322D01*
X640170Y69657D01*
X640817Y69830D01*
X660607Y69830D01*
X660607Y55453D01*
X638610Y55453D01*
G37*
%LPD*%
%LPC*%
G36*
X640817Y107970D02*
X640817Y107970D01*
X640170Y108143D01*
X639591Y108478D01*
X639118Y108951D01*
X638783Y109530D01*
X638610Y110177D01*
X638610Y122347D01*
X660607Y122347D01*
X660607Y107970D01*
X640817Y107970D01*
G37*
%LPD*%
%LPC*%
G36*
X640817Y38078D02*
X640817Y38078D01*
X640170Y38251D01*
X639591Y38586D01*
X639118Y39059D01*
X638783Y39638D01*
X638610Y40285D01*
X638610Y52455D01*
X660607Y52455D01*
X660607Y38078D01*
X640817Y38078D01*
G37*
%LPD*%
%LPC*%
G36*
X34083Y39348D02*
X34083Y39348D01*
X34083Y53725D01*
X56080Y53725D01*
X56080Y41555D01*
X55995Y41239D01*
X55907Y40908D01*
X55572Y40329D01*
X55099Y39856D01*
X54520Y39521D01*
X53873Y39348D01*
X34083Y39348D01*
G37*
%LPD*%
%LPC*%
G36*
X34083Y109240D02*
X34083Y109240D01*
X34083Y123617D01*
X56080Y123617D01*
X56080Y111447D01*
X55938Y110919D01*
X55907Y110800D01*
X55572Y110221D01*
X55099Y109748D01*
X54520Y109413D01*
X53873Y109240D01*
X34083Y109240D01*
G37*
%LPD*%
D10*
X32584Y55224D03*
X32584Y125116D03*
X662106Y123846D03*
X662106Y53954D03*
M02*
