G04 EAGLE Gerber RS-274X export*
G75*
%MOMM*%
%FSLAX34Y34*%
%LPD*%
%IN*%
%IPPOS*%
%AMOC8*
5,1,8,0,0,1.08239X$1,22.5*%
G01*
%ADD10C,0.254000*%


D10*
X0Y0D02*
X695000Y0D01*
X695000Y180000D01*
X0Y180000D01*
X0Y0D01*
X360000Y39464D02*
X359924Y38396D01*
X359771Y37335D01*
X359543Y36288D01*
X359241Y35260D01*
X358867Y34256D01*
X358422Y33281D01*
X357908Y32341D01*
X357329Y31440D01*
X356687Y30582D01*
X355985Y29772D01*
X355228Y29015D01*
X354418Y28313D01*
X353560Y27671D01*
X352659Y27092D01*
X351719Y26578D01*
X350744Y26133D01*
X349740Y25759D01*
X348712Y25457D01*
X347665Y25229D01*
X346604Y25076D01*
X345536Y25000D01*
X344464Y25000D01*
X343396Y25076D01*
X342335Y25229D01*
X341288Y25457D01*
X340260Y25759D01*
X339256Y26133D01*
X338281Y26578D01*
X337341Y27092D01*
X336440Y27671D01*
X335582Y28313D01*
X334772Y29015D01*
X334015Y29772D01*
X333313Y30582D01*
X332671Y31440D01*
X332092Y32341D01*
X331578Y33281D01*
X331133Y34256D01*
X330759Y35260D01*
X330457Y36288D01*
X330229Y37335D01*
X330076Y38396D01*
X330000Y39464D01*
X330000Y40536D01*
X330076Y41604D01*
X330229Y42665D01*
X330457Y43712D01*
X330759Y44740D01*
X331133Y45744D01*
X331578Y46719D01*
X332092Y47659D01*
X332671Y48560D01*
X333313Y49418D01*
X334015Y50228D01*
X334772Y50985D01*
X335582Y51687D01*
X336440Y52329D01*
X337341Y52908D01*
X338281Y53422D01*
X339256Y53867D01*
X340260Y54241D01*
X341288Y54543D01*
X342335Y54771D01*
X343396Y54924D01*
X344464Y55000D01*
X345536Y55000D01*
X346604Y54924D01*
X347665Y54771D01*
X348712Y54543D01*
X349740Y54241D01*
X350744Y53867D01*
X351719Y53422D01*
X352659Y52908D01*
X353560Y52329D01*
X354418Y51687D01*
X355228Y50985D01*
X355985Y50228D01*
X356687Y49418D01*
X357329Y48560D01*
X357908Y47659D01*
X358422Y46719D01*
X358867Y45744D01*
X359241Y44740D01*
X359543Y43712D01*
X359771Y42665D01*
X359924Y41604D01*
X360000Y40536D01*
X360000Y39464D01*
X185000Y139464D02*
X184924Y138396D01*
X184771Y137335D01*
X184543Y136288D01*
X184241Y135260D01*
X183867Y134256D01*
X183422Y133281D01*
X182908Y132341D01*
X182329Y131440D01*
X181687Y130582D01*
X180985Y129772D01*
X180228Y129015D01*
X179418Y128313D01*
X178560Y127671D01*
X177659Y127092D01*
X176719Y126578D01*
X175744Y126133D01*
X174740Y125759D01*
X173712Y125457D01*
X172665Y125229D01*
X171604Y125076D01*
X170536Y125000D01*
X169464Y125000D01*
X168396Y125076D01*
X167335Y125229D01*
X166288Y125457D01*
X165260Y125759D01*
X164256Y126133D01*
X163281Y126578D01*
X162341Y127092D01*
X161440Y127671D01*
X160582Y128313D01*
X159772Y129015D01*
X159015Y129772D01*
X158313Y130582D01*
X157671Y131440D01*
X157092Y132341D01*
X156578Y133281D01*
X156133Y134256D01*
X155759Y135260D01*
X155457Y136288D01*
X155229Y137335D01*
X155076Y138396D01*
X155000Y139464D01*
X155000Y140536D01*
X155076Y141604D01*
X155229Y142665D01*
X155457Y143712D01*
X155759Y144740D01*
X156133Y145744D01*
X156578Y146719D01*
X157092Y147659D01*
X157671Y148560D01*
X158313Y149418D01*
X159015Y150228D01*
X159772Y150985D01*
X160582Y151687D01*
X161440Y152329D01*
X162341Y152908D01*
X163281Y153422D01*
X164256Y153867D01*
X165260Y154241D01*
X166288Y154543D01*
X167335Y154771D01*
X168396Y154924D01*
X169464Y155000D01*
X170536Y155000D01*
X171604Y154924D01*
X172665Y154771D01*
X173712Y154543D01*
X174740Y154241D01*
X175744Y153867D01*
X176719Y153422D01*
X177659Y152908D01*
X178560Y152329D01*
X179418Y151687D01*
X180228Y150985D01*
X180985Y150228D01*
X181687Y149418D01*
X182329Y148560D01*
X182908Y147659D01*
X183422Y146719D01*
X183867Y145744D01*
X184241Y144740D01*
X184543Y143712D01*
X184771Y142665D01*
X184924Y141604D01*
X185000Y140536D01*
X185000Y139464D01*
X535000Y139464D02*
X534924Y138396D01*
X534771Y137335D01*
X534543Y136288D01*
X534241Y135260D01*
X533867Y134256D01*
X533422Y133281D01*
X532908Y132341D01*
X532329Y131440D01*
X531687Y130582D01*
X530985Y129772D01*
X530228Y129015D01*
X529418Y128313D01*
X528560Y127671D01*
X527659Y127092D01*
X526719Y126578D01*
X525744Y126133D01*
X524740Y125759D01*
X523712Y125457D01*
X522665Y125229D01*
X521604Y125076D01*
X520536Y125000D01*
X519464Y125000D01*
X518396Y125076D01*
X517335Y125229D01*
X516288Y125457D01*
X515260Y125759D01*
X514256Y126133D01*
X513281Y126578D01*
X512341Y127092D01*
X511440Y127671D01*
X510582Y128313D01*
X509772Y129015D01*
X509015Y129772D01*
X508313Y130582D01*
X507671Y131440D01*
X507092Y132341D01*
X506578Y133281D01*
X506133Y134256D01*
X505759Y135260D01*
X505457Y136288D01*
X505229Y137335D01*
X505076Y138396D01*
X505000Y139464D01*
X505000Y140536D01*
X505076Y141604D01*
X505229Y142665D01*
X505457Y143712D01*
X505759Y144740D01*
X506133Y145744D01*
X506578Y146719D01*
X507092Y147659D01*
X507671Y148560D01*
X508313Y149418D01*
X509015Y150228D01*
X509772Y150985D01*
X510582Y151687D01*
X511440Y152329D01*
X512341Y152908D01*
X513281Y153422D01*
X514256Y153867D01*
X515260Y154241D01*
X516288Y154543D01*
X517335Y154771D01*
X518396Y154924D01*
X519464Y155000D01*
X520536Y155000D01*
X521604Y154924D01*
X522665Y154771D01*
X523712Y154543D01*
X524740Y154241D01*
X525744Y153867D01*
X526719Y153422D01*
X527659Y152908D01*
X528560Y152329D01*
X529418Y151687D01*
X530228Y150985D01*
X530985Y150228D01*
X531687Y149418D01*
X532329Y148560D01*
X532908Y147659D01*
X533422Y146719D01*
X533867Y145744D01*
X534241Y144740D01*
X534543Y143712D01*
X534771Y142665D01*
X534924Y141604D01*
X535000Y140536D01*
X535000Y139464D01*
M02*
