G04 EAGLE Gerber RS-274X export*
G75*
%MOMM*%
%FSLAX34Y34*%
%LPD*%
%INBottom Copper*%
%IPPOS*%
%AMOC8*
5,1,8,0,0,1.08239X$1,22.5*%
G01*
%ADD10R,4.191000X2.667000*%
%ADD11C,1.524000*%

G36*
X382669Y7012D02*
X382669Y7012D01*
X382720Y7014D01*
X382752Y7032D01*
X382788Y7040D01*
X382827Y7073D01*
X382872Y7097D01*
X382893Y7127D01*
X382921Y7150D01*
X382942Y7197D01*
X382972Y7239D01*
X382980Y7281D01*
X382992Y7309D01*
X382991Y7339D01*
X382999Y7381D01*
X382999Y81582D01*
X382990Y81619D01*
X382992Y81657D01*
X382971Y81702D01*
X382960Y81750D01*
X382935Y81780D01*
X382919Y81815D01*
X382881Y81846D01*
X382850Y81884D01*
X382814Y81900D01*
X382785Y81924D01*
X382736Y81935D01*
X382691Y81955D01*
X382653Y81953D01*
X382615Y81962D01*
X382556Y81950D01*
X382518Y81948D01*
X382500Y81938D01*
X382473Y81933D01*
X382393Y81899D01*
X379607Y81899D01*
X377034Y82965D01*
X375065Y84934D01*
X373999Y87507D01*
X373999Y93578D01*
X373988Y93628D01*
X373986Y93679D01*
X373968Y93711D01*
X373960Y93747D01*
X373927Y93786D01*
X373903Y93831D01*
X373873Y93852D01*
X373850Y93880D01*
X373803Y93901D01*
X373761Y93931D01*
X373719Y93939D01*
X373691Y93951D01*
X373661Y93950D01*
X373619Y93958D01*
X360607Y93958D01*
X360607Y109453D01*
X360596Y109503D01*
X360594Y109554D01*
X360576Y109586D01*
X360568Y109622D01*
X360535Y109661D01*
X360511Y109706D01*
X360481Y109727D01*
X360457Y109755D01*
X360411Y109776D01*
X360369Y109806D01*
X360327Y109814D01*
X360299Y109826D01*
X360269Y109825D01*
X360227Y109833D01*
X359845Y109833D01*
X359845Y109835D01*
X360227Y109835D01*
X360277Y109846D01*
X360328Y109848D01*
X360360Y109866D01*
X360396Y109874D01*
X360435Y109907D01*
X360480Y109931D01*
X360501Y109961D01*
X360529Y109985D01*
X360550Y110031D01*
X360580Y110073D01*
X360588Y110115D01*
X360600Y110143D01*
X360599Y110173D01*
X360607Y110215D01*
X360607Y125710D01*
X373619Y125710D01*
X373669Y125721D01*
X373720Y125723D01*
X373752Y125741D01*
X373788Y125749D01*
X373827Y125782D01*
X373872Y125806D01*
X373893Y125836D01*
X373921Y125859D01*
X373942Y125906D01*
X373972Y125948D01*
X373980Y125990D01*
X373992Y126018D01*
X373991Y126048D01*
X373999Y126090D01*
X373999Y163470D01*
X373988Y163520D01*
X373986Y163571D01*
X373968Y163603D01*
X373960Y163639D01*
X373927Y163678D01*
X373903Y163723D01*
X373873Y163744D01*
X373850Y163772D01*
X373803Y163793D01*
X373761Y163823D01*
X373719Y163831D01*
X373691Y163843D01*
X373661Y163842D01*
X373619Y163850D01*
X360607Y163850D01*
X360607Y179345D01*
X360596Y179395D01*
X360594Y179446D01*
X360576Y179478D01*
X360568Y179514D01*
X360535Y179553D01*
X360511Y179598D01*
X360481Y179619D01*
X360457Y179647D01*
X360411Y179668D01*
X360369Y179698D01*
X360327Y179706D01*
X360299Y179718D01*
X360269Y179717D01*
X360227Y179725D01*
X359845Y179725D01*
X359845Y179727D01*
X360227Y179727D01*
X360277Y179738D01*
X360328Y179740D01*
X360360Y179758D01*
X360396Y179766D01*
X360435Y179799D01*
X360480Y179823D01*
X360501Y179853D01*
X360529Y179877D01*
X360550Y179923D01*
X360580Y179965D01*
X360588Y180007D01*
X360600Y180035D01*
X360599Y180065D01*
X360607Y180107D01*
X360607Y195602D01*
X373619Y195602D01*
X373669Y195613D01*
X373720Y195615D01*
X373752Y195633D01*
X373788Y195641D01*
X373827Y195674D01*
X373872Y195698D01*
X373893Y195728D01*
X373921Y195751D01*
X373942Y195798D01*
X373972Y195840D01*
X373980Y195882D01*
X373992Y195910D01*
X373992Y195912D01*
X373991Y195941D01*
X373999Y195982D01*
X373999Y202053D01*
X375065Y204626D01*
X377034Y206595D01*
X379607Y207661D01*
X382393Y207661D01*
X382473Y207627D01*
X382511Y207621D01*
X382547Y207605D01*
X382596Y207607D01*
X382644Y207599D01*
X382681Y207610D01*
X382720Y207612D01*
X382763Y207635D01*
X382810Y207650D01*
X382838Y207676D01*
X382872Y207695D01*
X382900Y207735D01*
X382936Y207769D01*
X382950Y207805D01*
X382972Y207836D01*
X382983Y207896D01*
X382996Y207931D01*
X382994Y207952D01*
X382999Y207978D01*
X382999Y242619D01*
X382988Y242669D01*
X382986Y242720D01*
X382968Y242752D01*
X382960Y242788D01*
X382927Y242827D01*
X382903Y242872D01*
X382873Y242893D01*
X382850Y242921D01*
X382803Y242942D01*
X382761Y242972D01*
X382719Y242980D01*
X382691Y242992D01*
X382661Y242991D01*
X382619Y242999D01*
X7381Y242999D01*
X7331Y242988D01*
X7280Y242986D01*
X7248Y242968D01*
X7212Y242960D01*
X7173Y242927D01*
X7128Y242903D01*
X7107Y242873D01*
X7079Y242850D01*
X7058Y242803D01*
X7028Y242761D01*
X7020Y242719D01*
X7008Y242691D01*
X7009Y242661D01*
X7001Y242619D01*
X7001Y179558D01*
X7010Y179521D01*
X7008Y179482D01*
X7029Y179437D01*
X7040Y179389D01*
X7065Y179360D01*
X7081Y179325D01*
X7119Y179294D01*
X7150Y179256D01*
X7186Y179240D01*
X7215Y179216D01*
X7263Y179205D01*
X7309Y179185D01*
X7347Y179186D01*
X7385Y179178D01*
X7444Y179190D01*
X7482Y179191D01*
X7500Y179201D01*
X7527Y179207D01*
X8768Y179721D01*
X11553Y179721D01*
X14126Y178655D01*
X16095Y176686D01*
X17161Y174113D01*
X17161Y168042D01*
X17172Y167992D01*
X17174Y167941D01*
X17192Y167909D01*
X17200Y167873D01*
X17233Y167834D01*
X17257Y167789D01*
X17287Y167768D01*
X17310Y167740D01*
X17357Y167719D01*
X17399Y167689D01*
X17441Y167681D01*
X17469Y167669D01*
X17499Y167670D01*
X17541Y167662D01*
X30553Y167662D01*
X30553Y152167D01*
X30564Y152117D01*
X30566Y152066D01*
X30584Y152034D01*
X30592Y151998D01*
X30625Y151959D01*
X30649Y151914D01*
X30679Y151893D01*
X30702Y151865D01*
X30749Y151844D01*
X30791Y151814D01*
X30833Y151806D01*
X30861Y151794D01*
X30891Y151795D01*
X30933Y151787D01*
X31315Y151787D01*
X31315Y151785D01*
X30933Y151785D01*
X30883Y151774D01*
X30832Y151772D01*
X30800Y151754D01*
X30764Y151746D01*
X30725Y151713D01*
X30680Y151689D01*
X30659Y151659D01*
X30631Y151635D01*
X30610Y151589D01*
X30580Y151547D01*
X30572Y151505D01*
X30560Y151477D01*
X30561Y151447D01*
X30553Y151405D01*
X30553Y135910D01*
X17541Y135910D01*
X17491Y135899D01*
X17440Y135897D01*
X17408Y135879D01*
X17372Y135871D01*
X17333Y135838D01*
X17288Y135814D01*
X17267Y135784D01*
X17239Y135761D01*
X17218Y135714D01*
X17188Y135672D01*
X17180Y135630D01*
X17168Y135602D01*
X17168Y135598D01*
X17169Y135571D01*
X17161Y135530D01*
X17161Y98150D01*
X17172Y98100D01*
X17174Y98049D01*
X17192Y98017D01*
X17200Y97981D01*
X17233Y97942D01*
X17257Y97897D01*
X17287Y97876D01*
X17310Y97848D01*
X17357Y97827D01*
X17399Y97797D01*
X17441Y97789D01*
X17469Y97777D01*
X17499Y97778D01*
X17541Y97770D01*
X30553Y97770D01*
X30553Y82275D01*
X30564Y82225D01*
X30566Y82174D01*
X30584Y82142D01*
X30592Y82106D01*
X30625Y82067D01*
X30649Y82022D01*
X30679Y82001D01*
X30702Y81973D01*
X30749Y81952D01*
X30791Y81922D01*
X30833Y81914D01*
X30861Y81902D01*
X30891Y81903D01*
X30933Y81895D01*
X31315Y81895D01*
X31315Y81893D01*
X30933Y81893D01*
X30883Y81882D01*
X30832Y81880D01*
X30800Y81862D01*
X30764Y81854D01*
X30725Y81821D01*
X30680Y81797D01*
X30659Y81767D01*
X30631Y81743D01*
X30610Y81697D01*
X30580Y81655D01*
X30572Y81613D01*
X30560Y81585D01*
X30561Y81555D01*
X30553Y81513D01*
X30553Y66018D01*
X17541Y66018D01*
X17491Y66007D01*
X17440Y66005D01*
X17408Y65987D01*
X17372Y65979D01*
X17333Y65946D01*
X17288Y65922D01*
X17267Y65892D01*
X17239Y65869D01*
X17218Y65822D01*
X17188Y65780D01*
X17180Y65738D01*
X17168Y65710D01*
X17169Y65680D01*
X17161Y65638D01*
X17161Y59567D01*
X16095Y56994D01*
X14126Y55025D01*
X11553Y53959D01*
X8768Y53959D01*
X7527Y54473D01*
X7489Y54480D01*
X7453Y54495D01*
X7404Y54493D01*
X7356Y54501D01*
X7319Y54490D01*
X7280Y54489D01*
X7237Y54465D01*
X7190Y54451D01*
X7162Y54424D01*
X7128Y54406D01*
X7100Y54366D01*
X7064Y54332D01*
X7051Y54296D01*
X7028Y54264D01*
X7017Y54205D01*
X7004Y54169D01*
X7006Y54149D01*
X7001Y54122D01*
X7001Y7381D01*
X7012Y7331D01*
X7014Y7280D01*
X7032Y7248D01*
X7040Y7212D01*
X7073Y7173D01*
X7097Y7128D01*
X7127Y7107D01*
X7150Y7079D01*
X7197Y7058D01*
X7239Y7028D01*
X7281Y7020D01*
X7309Y7008D01*
X7339Y7009D01*
X7381Y7001D01*
X382619Y7001D01*
X382669Y7012D01*
G37*
%LPC*%
G36*
X295624Y187999D02*
X295624Y187999D01*
X287538Y191349D01*
X281349Y197538D01*
X277999Y205624D01*
X277999Y214376D01*
X281349Y222462D01*
X287538Y228651D01*
X295624Y232001D01*
X304376Y232001D01*
X312462Y228651D01*
X318651Y222462D01*
X322001Y214376D01*
X322001Y205624D01*
X318651Y197538D01*
X312462Y191349D01*
X304376Y187999D01*
X295624Y187999D01*
G37*
%LPD*%
%LPC*%
G36*
X35624Y12999D02*
X35624Y12999D01*
X27538Y16349D01*
X21349Y22538D01*
X17999Y30624D01*
X17999Y39376D01*
X21349Y47462D01*
X27538Y53651D01*
X35624Y57001D01*
X44376Y57001D01*
X52462Y53651D01*
X58651Y47462D01*
X62001Y39376D01*
X62001Y30624D01*
X58651Y22538D01*
X52462Y16349D01*
X44376Y12999D01*
X35624Y12999D01*
G37*
%LPD*%
%LPC*%
G36*
X37732Y183499D02*
X37732Y183499D01*
X32358Y185725D01*
X28245Y189838D01*
X26019Y195212D01*
X26019Y201028D01*
X28245Y206402D01*
X32358Y210515D01*
X37732Y212741D01*
X38914Y212741D01*
X38970Y212754D01*
X39027Y212758D01*
X39053Y212773D01*
X39083Y212780D01*
X39127Y212817D01*
X39177Y212846D01*
X39193Y212871D01*
X39217Y212890D01*
X39240Y212943D01*
X39271Y212991D01*
X39275Y213021D01*
X39287Y213049D01*
X39285Y213106D01*
X39292Y213163D01*
X39282Y213191D01*
X39281Y213222D01*
X39253Y213272D01*
X39234Y213326D01*
X39213Y213347D01*
X39198Y213374D01*
X39151Y213407D01*
X39110Y213447D01*
X39077Y213459D01*
X39056Y213474D01*
X39014Y213482D01*
X38974Y213497D01*
X38261Y213609D01*
X36740Y214104D01*
X35315Y214830D01*
X34021Y215770D01*
X32890Y216901D01*
X31950Y218195D01*
X31224Y219620D01*
X30729Y221141D01*
X30479Y222720D01*
X30479Y222759D01*
X47879Y222759D01*
X47929Y222770D01*
X47980Y222772D01*
X48012Y222790D01*
X48048Y222798D01*
X48087Y222831D01*
X48132Y222855D01*
X48153Y222885D01*
X48181Y222908D01*
X48202Y222955D01*
X48231Y222997D01*
X48240Y223039D01*
X48252Y223067D01*
X48251Y223097D01*
X48259Y223139D01*
X48259Y223521D01*
X48261Y223521D01*
X48261Y223139D01*
X48273Y223089D01*
X48274Y223038D01*
X48292Y223006D01*
X48300Y222970D01*
X48333Y222931D01*
X48357Y222886D01*
X48387Y222865D01*
X48411Y222837D01*
X48457Y222816D01*
X48499Y222786D01*
X48541Y222778D01*
X48569Y222766D01*
X48599Y222767D01*
X48641Y222759D01*
X66041Y222759D01*
X66041Y222720D01*
X65791Y221141D01*
X65296Y219620D01*
X64570Y218195D01*
X63630Y216901D01*
X62499Y215770D01*
X61205Y214830D01*
X59780Y214104D01*
X58259Y213609D01*
X57546Y213497D01*
X57493Y213475D01*
X57437Y213462D01*
X57414Y213443D01*
X57386Y213431D01*
X57348Y213388D01*
X57303Y213352D01*
X57291Y213324D01*
X57271Y213301D01*
X57256Y213246D01*
X57233Y213193D01*
X57234Y213163D01*
X57226Y213134D01*
X57237Y213078D01*
X57239Y213020D01*
X57254Y212994D01*
X57259Y212964D01*
X57294Y212919D01*
X57322Y212868D01*
X57347Y212851D01*
X57365Y212827D01*
X57417Y212801D01*
X57464Y212768D01*
X57497Y212762D01*
X57521Y212750D01*
X57564Y212749D01*
X57606Y212741D01*
X58788Y212741D01*
X64162Y210515D01*
X68275Y206402D01*
X70501Y201028D01*
X70501Y195212D01*
X68275Y189838D01*
X64162Y185725D01*
X58788Y183499D01*
X37732Y183499D01*
G37*
%LPD*%
%LPC*%
G36*
X32075Y152547D02*
X32075Y152547D01*
X32075Y167662D01*
X52604Y167662D01*
X53250Y167489D01*
X53829Y167154D01*
X54302Y166681D01*
X54637Y166102D01*
X54810Y165456D01*
X54810Y152547D01*
X32075Y152547D01*
G37*
%LPD*%
%LPC*%
G36*
X32075Y82655D02*
X32075Y82655D01*
X32075Y97770D01*
X52604Y97770D01*
X53250Y97597D01*
X53829Y97262D01*
X54302Y96789D01*
X54637Y96210D01*
X54810Y95564D01*
X54810Y82655D01*
X32075Y82655D01*
G37*
%LPD*%
%LPC*%
G36*
X336350Y180487D02*
X336350Y180487D01*
X336350Y193396D01*
X336523Y194042D01*
X336858Y194621D01*
X337331Y195094D01*
X337910Y195429D01*
X338556Y195602D01*
X359085Y195602D01*
X359085Y180487D01*
X336350Y180487D01*
G37*
%LPD*%
%LPC*%
G36*
X336350Y110595D02*
X336350Y110595D01*
X336350Y123504D01*
X336523Y124150D01*
X336858Y124729D01*
X337331Y125202D01*
X337910Y125537D01*
X338556Y125710D01*
X359085Y125710D01*
X359085Y110595D01*
X336350Y110595D01*
G37*
%LPD*%
%LPC*%
G36*
X32075Y135910D02*
X32075Y135910D01*
X32075Y151025D01*
X54810Y151025D01*
X54810Y138116D01*
X54637Y137470D01*
X54302Y136891D01*
X53829Y136418D01*
X53250Y136083D01*
X52604Y135910D01*
X32075Y135910D01*
G37*
%LPD*%
%LPC*%
G36*
X32075Y66018D02*
X32075Y66018D01*
X32075Y81133D01*
X54810Y81133D01*
X54810Y68224D01*
X54637Y67578D01*
X54302Y66999D01*
X53829Y66526D01*
X53250Y66191D01*
X52604Y66018D01*
X32075Y66018D01*
G37*
%LPD*%
%LPC*%
G36*
X338556Y93958D02*
X338556Y93958D01*
X337910Y94131D01*
X337331Y94466D01*
X336858Y94939D01*
X336523Y95518D01*
X336475Y95700D01*
X336350Y96164D01*
X336350Y109073D01*
X359085Y109073D01*
X359085Y93958D01*
X338556Y93958D01*
G37*
%LPD*%
%LPC*%
G36*
X338556Y163850D02*
X338556Y163850D01*
X337910Y164023D01*
X337331Y164358D01*
X336858Y164831D01*
X336523Y165410D01*
X336350Y166056D01*
X336350Y178965D01*
X359085Y178965D01*
X359085Y163850D01*
X338556Y163850D01*
G37*
%LPD*%
%LPC*%
G36*
X49021Y224281D02*
X49021Y224281D01*
X49021Y233681D01*
X56680Y233681D01*
X58259Y233431D01*
X59780Y232936D01*
X61205Y232210D01*
X62499Y231270D01*
X63630Y230139D01*
X64570Y228845D01*
X65296Y227420D01*
X65791Y225899D01*
X66041Y224320D01*
X66041Y224281D01*
X49021Y224281D01*
G37*
%LPD*%
%LPC*%
G36*
X30479Y224281D02*
X30479Y224281D01*
X30479Y224320D01*
X30729Y225899D01*
X31224Y227420D01*
X31950Y228845D01*
X32890Y230139D01*
X34021Y231270D01*
X35315Y232210D01*
X36740Y232936D01*
X38261Y233431D01*
X39840Y233681D01*
X47499Y233681D01*
X47499Y224281D01*
X30479Y224281D01*
G37*
%LPD*%
D10*
X31314Y81894D03*
X31314Y151786D03*
X359846Y179726D03*
X359846Y109834D03*
D11*
X55880Y198120D02*
X40640Y198120D01*
X40640Y223520D02*
X55880Y223520D01*
M02*
