G04 EAGLE Gerber RS-274X export*
G75*
%MOMM*%
%FSLAX34Y34*%
%LPD*%
%INBottom Copper*%
%IPPOS*%
%AMOC8*
5,1,8,0,0,1.08239X$1,22.5*%
G01*
%ADD10P,1.649562X8X22.500000*%
%ADD11C,1.508000*%
%ADD12C,2.184400*%
%ADD13C,1.500000*%
%ADD14C,0.756400*%
%ADD15C,0.584200*%

G36*
X592258Y7004D02*
X592258Y7004D01*
X592277Y7002D01*
X592379Y7024D01*
X592481Y7040D01*
X592498Y7050D01*
X592518Y7054D01*
X592607Y7107D01*
X592698Y7156D01*
X592712Y7170D01*
X592729Y7180D01*
X592796Y7259D01*
X592868Y7334D01*
X592876Y7352D01*
X592889Y7367D01*
X592928Y7463D01*
X592971Y7557D01*
X592973Y7577D01*
X592981Y7595D01*
X592999Y7762D01*
X592999Y292238D01*
X592996Y292258D01*
X592998Y292277D01*
X592976Y292379D01*
X592960Y292481D01*
X592950Y292498D01*
X592946Y292518D01*
X592893Y292607D01*
X592844Y292698D01*
X592830Y292712D01*
X592820Y292729D01*
X592741Y292796D01*
X592666Y292868D01*
X592648Y292876D01*
X592633Y292889D01*
X592537Y292928D01*
X592443Y292971D01*
X592423Y292973D01*
X592405Y292981D01*
X592238Y292999D01*
X7762Y292999D01*
X7742Y292996D01*
X7723Y292998D01*
X7621Y292976D01*
X7519Y292960D01*
X7502Y292950D01*
X7482Y292946D01*
X7393Y292893D01*
X7302Y292844D01*
X7288Y292830D01*
X7271Y292820D01*
X7204Y292741D01*
X7132Y292666D01*
X7124Y292648D01*
X7111Y292633D01*
X7072Y292537D01*
X7029Y292443D01*
X7027Y292423D01*
X7019Y292405D01*
X7001Y292238D01*
X7001Y7762D01*
X7004Y7742D01*
X7002Y7723D01*
X7024Y7621D01*
X7040Y7519D01*
X7050Y7502D01*
X7054Y7482D01*
X7107Y7393D01*
X7156Y7302D01*
X7170Y7288D01*
X7180Y7271D01*
X7259Y7204D01*
X7334Y7132D01*
X7352Y7124D01*
X7367Y7111D01*
X7463Y7072D01*
X7557Y7029D01*
X7577Y7027D01*
X7595Y7019D01*
X7762Y7001D01*
X592238Y7001D01*
X592258Y7004D01*
G37*
%LPC*%
G36*
X84535Y156937D02*
X84535Y156937D01*
X77948Y159666D01*
X72906Y164708D01*
X70177Y171295D01*
X70177Y178425D01*
X72906Y185012D01*
X74715Y186822D01*
X74727Y186838D01*
X74742Y186850D01*
X74798Y186938D01*
X74859Y187021D01*
X74865Y187040D01*
X74875Y187057D01*
X74901Y187158D01*
X74931Y187257D01*
X74931Y187276D01*
X74935Y187296D01*
X74927Y187399D01*
X74925Y187502D01*
X74918Y187521D01*
X74916Y187541D01*
X74876Y187636D01*
X74840Y187733D01*
X74828Y187749D01*
X74820Y187767D01*
X74715Y187898D01*
X72906Y189708D01*
X70177Y196295D01*
X70177Y203425D01*
X72906Y210012D01*
X77948Y215054D01*
X84535Y217783D01*
X91665Y217783D01*
X98252Y215054D01*
X103294Y210012D01*
X106023Y203425D01*
X106023Y196295D01*
X103294Y189708D01*
X101485Y187898D01*
X101473Y187882D01*
X101458Y187870D01*
X101402Y187782D01*
X101341Y187699D01*
X101335Y187680D01*
X101325Y187663D01*
X101299Y187562D01*
X101269Y187463D01*
X101269Y187444D01*
X101265Y187424D01*
X101273Y187321D01*
X101275Y187218D01*
X101282Y187199D01*
X101284Y187179D01*
X101324Y187084D01*
X101360Y186987D01*
X101372Y186971D01*
X101380Y186953D01*
X101485Y186822D01*
X103294Y185012D01*
X106023Y178425D01*
X106023Y171295D01*
X103294Y164708D01*
X98252Y159666D01*
X91665Y156937D01*
X84535Y156937D01*
G37*
%LPD*%
%LPC*%
G36*
X84535Y81937D02*
X84535Y81937D01*
X77948Y84666D01*
X72906Y89708D01*
X70177Y96295D01*
X70177Y103425D01*
X72906Y110012D01*
X74715Y111822D01*
X74727Y111838D01*
X74742Y111850D01*
X74798Y111938D01*
X74859Y112021D01*
X74865Y112040D01*
X74875Y112057D01*
X74901Y112158D01*
X74931Y112257D01*
X74931Y112276D01*
X74935Y112296D01*
X74927Y112399D01*
X74925Y112502D01*
X74918Y112521D01*
X74916Y112541D01*
X74876Y112636D01*
X74840Y112733D01*
X74828Y112749D01*
X74820Y112767D01*
X74715Y112898D01*
X72906Y114708D01*
X70177Y121295D01*
X70177Y128425D01*
X72906Y135012D01*
X77948Y140054D01*
X84535Y142783D01*
X91665Y142783D01*
X98252Y140054D01*
X103294Y135012D01*
X106023Y128425D01*
X106023Y121295D01*
X103294Y114708D01*
X101485Y112898D01*
X101473Y112882D01*
X101458Y112870D01*
X101402Y112782D01*
X101341Y112699D01*
X101335Y112680D01*
X101325Y112663D01*
X101299Y112562D01*
X101269Y112463D01*
X101269Y112444D01*
X101265Y112424D01*
X101273Y112321D01*
X101275Y112218D01*
X101282Y112199D01*
X101284Y112179D01*
X101324Y112084D01*
X101360Y111987D01*
X101372Y111971D01*
X101380Y111953D01*
X101485Y111822D01*
X103294Y110012D01*
X106023Y103425D01*
X106023Y96295D01*
X103294Y89708D01*
X98252Y84666D01*
X91665Y81937D01*
X84535Y81937D01*
G37*
%LPD*%
%LPC*%
G36*
X345624Y222999D02*
X345624Y222999D01*
X337538Y226349D01*
X331349Y232538D01*
X327999Y240624D01*
X327999Y249376D01*
X331349Y257462D01*
X337538Y263651D01*
X345624Y267001D01*
X354376Y267001D01*
X362462Y263651D01*
X368651Y257462D01*
X372001Y249376D01*
X372001Y240624D01*
X368651Y232538D01*
X362462Y226349D01*
X354376Y222999D01*
X345624Y222999D01*
G37*
%LPD*%
%LPC*%
G36*
X475624Y77999D02*
X475624Y77999D01*
X467538Y81349D01*
X461349Y87538D01*
X457999Y95624D01*
X457999Y104376D01*
X461349Y112462D01*
X467538Y118651D01*
X475624Y122001D01*
X484376Y122001D01*
X492462Y118651D01*
X498651Y112462D01*
X502001Y104376D01*
X502001Y95624D01*
X498651Y87538D01*
X492462Y81349D01*
X484376Y77999D01*
X475624Y77999D01*
G37*
%LPD*%
%LPC*%
G36*
X115624Y17999D02*
X115624Y17999D01*
X107538Y21349D01*
X101349Y27538D01*
X97999Y35624D01*
X97999Y44376D01*
X101349Y52462D01*
X107538Y58651D01*
X115624Y62001D01*
X124376Y62001D01*
X132462Y58651D01*
X138651Y52462D01*
X142001Y44376D01*
X142001Y35624D01*
X138651Y27538D01*
X132462Y21349D01*
X124376Y17999D01*
X115624Y17999D01*
G37*
%LPD*%
%LPC*%
G36*
X343905Y106057D02*
X343905Y106057D01*
X339942Y107699D01*
X336909Y110732D01*
X335267Y114695D01*
X335267Y118985D01*
X336070Y120924D01*
X336079Y120962D01*
X336089Y120983D01*
X336091Y121002D01*
X336110Y121048D01*
X336119Y121131D01*
X336126Y121163D01*
X336125Y121182D01*
X336128Y121215D01*
X336128Y151835D01*
X336118Y151900D01*
X336117Y151965D01*
X336094Y152045D01*
X336089Y152078D01*
X336079Y152095D01*
X336070Y152126D01*
X335267Y154065D01*
X335267Y158355D01*
X336909Y162318D01*
X339942Y165351D01*
X343905Y166993D01*
X348195Y166993D01*
X352158Y165351D01*
X355191Y162318D01*
X356833Y158355D01*
X356833Y154065D01*
X356030Y152126D01*
X356015Y152063D01*
X355990Y152002D01*
X355981Y151919D01*
X355974Y151887D01*
X355975Y151868D01*
X355972Y151835D01*
X355972Y121215D01*
X355982Y121150D01*
X355983Y121085D01*
X356006Y121005D01*
X356011Y120972D01*
X356021Y120955D01*
X356030Y120924D01*
X356833Y118985D01*
X356833Y114695D01*
X355191Y110732D01*
X352158Y107699D01*
X348195Y106057D01*
X343905Y106057D01*
G37*
%LPD*%
%LPC*%
G36*
X27668Y262039D02*
X27668Y262039D01*
X22323Y264253D01*
X18233Y268343D01*
X16019Y273688D01*
X16019Y279472D01*
X18233Y284817D01*
X22323Y288907D01*
X27668Y291121D01*
X48532Y291121D01*
X53877Y288907D01*
X57967Y284817D01*
X60181Y279472D01*
X60181Y273688D01*
X57967Y268343D01*
X53877Y264253D01*
X48532Y262039D01*
X27668Y262039D01*
G37*
%LPD*%
%LPC*%
G36*
X545828Y105829D02*
X545828Y105829D01*
X540483Y108043D01*
X536393Y112133D01*
X534179Y117478D01*
X534179Y123262D01*
X536393Y128607D01*
X540483Y132697D01*
X545828Y134911D01*
X566692Y134911D01*
X572037Y132697D01*
X576127Y128607D01*
X578341Y123262D01*
X578341Y117478D01*
X576127Y112133D01*
X572037Y108043D01*
X566692Y105829D01*
X545828Y105829D01*
G37*
%LPD*%
%LPC*%
G36*
X27668Y43599D02*
X27668Y43599D01*
X22323Y45813D01*
X18233Y49903D01*
X16019Y55248D01*
X16019Y61032D01*
X18233Y66377D01*
X22323Y70467D01*
X27668Y72681D01*
X48532Y72681D01*
X53877Y70467D01*
X57967Y66377D01*
X60181Y61032D01*
X60181Y55248D01*
X57967Y49903D01*
X53877Y45813D01*
X48532Y43599D01*
X27668Y43599D01*
G37*
%LPD*%
%LPC*%
G36*
X124754Y135239D02*
X124754Y135239D01*
X116189Y143804D01*
X116189Y155916D01*
X124754Y164481D01*
X136866Y164481D01*
X145431Y155916D01*
X145431Y143804D01*
X136866Y135239D01*
X124754Y135239D01*
G37*
%LPD*%
%LPC*%
G36*
X39623Y243103D02*
X39623Y243103D01*
X39623Y251661D01*
X46433Y251661D01*
X48001Y251413D01*
X49510Y250922D01*
X50923Y250202D01*
X52207Y249269D01*
X53329Y248147D01*
X54262Y246863D01*
X54982Y245450D01*
X55473Y243941D01*
X55605Y243103D01*
X39623Y243103D01*
G37*
%LPD*%
%LPC*%
G36*
X557783Y86893D02*
X557783Y86893D01*
X557783Y95451D01*
X564593Y95451D01*
X566161Y95203D01*
X567670Y94712D01*
X569083Y93992D01*
X570367Y93059D01*
X571489Y91937D01*
X572422Y90653D01*
X573142Y89240D01*
X573633Y87731D01*
X573765Y86893D01*
X557783Y86893D01*
G37*
%LPD*%
%LPC*%
G36*
X39623Y24663D02*
X39623Y24663D01*
X39623Y33221D01*
X46433Y33221D01*
X48001Y32973D01*
X49510Y32482D01*
X50923Y31762D01*
X52207Y30829D01*
X53329Y29707D01*
X54262Y28423D01*
X54982Y27010D01*
X55473Y25501D01*
X55605Y24663D01*
X39623Y24663D01*
G37*
%LPD*%
%LPC*%
G36*
X20595Y243103D02*
X20595Y243103D01*
X20727Y243941D01*
X21218Y245450D01*
X21938Y246863D01*
X22871Y248147D01*
X23993Y249269D01*
X25277Y250202D01*
X26690Y250922D01*
X28199Y251413D01*
X29767Y251661D01*
X36577Y251661D01*
X36577Y243103D01*
X20595Y243103D01*
G37*
%LPD*%
%LPC*%
G36*
X538755Y86893D02*
X538755Y86893D01*
X538887Y87731D01*
X539378Y89240D01*
X540098Y90653D01*
X541031Y91937D01*
X542153Y93059D01*
X543437Y93992D01*
X544850Y94712D01*
X546359Y95203D01*
X547927Y95451D01*
X554737Y95451D01*
X554737Y86893D01*
X538755Y86893D01*
G37*
%LPD*%
%LPC*%
G36*
X20595Y24663D02*
X20595Y24663D01*
X20727Y25501D01*
X21218Y27010D01*
X21938Y28423D01*
X22871Y29707D01*
X23993Y30829D01*
X25277Y31762D01*
X26690Y32482D01*
X28199Y32973D01*
X29767Y33221D01*
X36577Y33221D01*
X36577Y24663D01*
X20595Y24663D01*
G37*
%LPD*%
%LPC*%
G36*
X39623Y231499D02*
X39623Y231499D01*
X39623Y240057D01*
X55605Y240057D01*
X55473Y239219D01*
X54982Y237710D01*
X54262Y236297D01*
X53329Y235013D01*
X52207Y233891D01*
X50923Y232958D01*
X49510Y232238D01*
X48001Y231747D01*
X46433Y231499D01*
X39623Y231499D01*
G37*
%LPD*%
%LPC*%
G36*
X557783Y75289D02*
X557783Y75289D01*
X557783Y83847D01*
X573765Y83847D01*
X573633Y83009D01*
X573142Y81500D01*
X572422Y80087D01*
X571489Y78803D01*
X570367Y77681D01*
X569083Y76748D01*
X567670Y76028D01*
X566161Y75537D01*
X564593Y75289D01*
X557783Y75289D01*
G37*
%LPD*%
%LPC*%
G36*
X39623Y13059D02*
X39623Y13059D01*
X39623Y21617D01*
X55605Y21617D01*
X55473Y20779D01*
X54982Y19270D01*
X54262Y17857D01*
X53329Y16573D01*
X52207Y15451D01*
X50923Y14518D01*
X49510Y13798D01*
X48001Y13307D01*
X46433Y13059D01*
X39623Y13059D01*
G37*
%LPD*%
%LPC*%
G36*
X29767Y231499D02*
X29767Y231499D01*
X28199Y231747D01*
X26690Y232238D01*
X25277Y232958D01*
X23993Y233891D01*
X22871Y235013D01*
X21938Y236297D01*
X21218Y237710D01*
X20727Y239219D01*
X20595Y240057D01*
X36577Y240057D01*
X36577Y231499D01*
X29767Y231499D01*
G37*
%LPD*%
%LPC*%
G36*
X547927Y75289D02*
X547927Y75289D01*
X546359Y75537D01*
X544850Y76028D01*
X543437Y76748D01*
X542153Y77681D01*
X541031Y78803D01*
X540098Y80087D01*
X539378Y81500D01*
X538887Y83009D01*
X538755Y83847D01*
X554737Y83847D01*
X554737Y75289D01*
X547927Y75289D01*
G37*
%LPD*%
%LPC*%
G36*
X29767Y13059D02*
X29767Y13059D01*
X28199Y13307D01*
X26690Y13798D01*
X25277Y14518D01*
X23993Y15451D01*
X22871Y16573D01*
X21938Y17857D01*
X21218Y19270D01*
X20727Y20779D01*
X20595Y21617D01*
X36577Y21617D01*
X36577Y13059D01*
X29767Y13059D01*
G37*
%LPD*%
%LPC*%
G36*
X39623Y151383D02*
X39623Y151383D01*
X39623Y163249D01*
X41252Y162991D01*
X43268Y162336D01*
X45156Y161374D01*
X46870Y160129D01*
X48369Y158630D01*
X49614Y156916D01*
X50576Y155028D01*
X51231Y153012D01*
X51489Y151383D01*
X39623Y151383D01*
G37*
%LPD*%
%LPC*%
G36*
X24711Y151383D02*
X24711Y151383D01*
X24969Y153012D01*
X25624Y155028D01*
X26586Y156916D01*
X27831Y158630D01*
X29330Y160129D01*
X31044Y161374D01*
X32932Y162336D01*
X34948Y162991D01*
X36577Y163249D01*
X36577Y151383D01*
X24711Y151383D01*
G37*
%LPD*%
%LPC*%
G36*
X39623Y148337D02*
X39623Y148337D01*
X51489Y148337D01*
X51231Y146708D01*
X50576Y144692D01*
X49614Y142804D01*
X48369Y141090D01*
X46870Y139591D01*
X45156Y138346D01*
X43268Y137384D01*
X41252Y136729D01*
X39623Y136471D01*
X39623Y148337D01*
G37*
%LPD*%
%LPC*%
G36*
X34948Y136729D02*
X34948Y136729D01*
X32932Y137384D01*
X31044Y138346D01*
X29330Y139591D01*
X27831Y141090D01*
X26586Y142804D01*
X25624Y144692D01*
X24969Y146708D01*
X24711Y148337D01*
X36577Y148337D01*
X36577Y136471D01*
X34948Y136729D01*
G37*
%LPD*%
%LPC*%
G36*
X38099Y241579D02*
X38099Y241579D01*
X38099Y241581D01*
X38101Y241581D01*
X38101Y241579D01*
X38099Y241579D01*
G37*
%LPD*%
%LPC*%
G36*
X38099Y149859D02*
X38099Y149859D01*
X38099Y149861D01*
X38101Y149861D01*
X38101Y149859D01*
X38099Y149859D01*
G37*
%LPD*%
%LPC*%
G36*
X556259Y85369D02*
X556259Y85369D01*
X556259Y85371D01*
X556261Y85371D01*
X556261Y85369D01*
X556259Y85369D01*
G37*
%LPD*%
%LPC*%
G36*
X38099Y23139D02*
X38099Y23139D01*
X38099Y23141D01*
X38101Y23141D01*
X38101Y23139D01*
X38099Y23139D01*
G37*
%LPD*%
D10*
X130810Y149860D03*
D11*
X45640Y241580D02*
X30560Y241580D01*
X30560Y276580D02*
X45640Y276580D01*
X45640Y23140D02*
X30560Y23140D01*
X30560Y58140D02*
X45640Y58140D01*
X548720Y85370D02*
X563800Y85370D01*
X563800Y120370D02*
X548720Y120370D01*
D12*
X38100Y149860D03*
X88100Y174860D03*
X88100Y199860D03*
X88100Y124860D03*
X88100Y99860D03*
D13*
X287020Y226060D03*
X444500Y147320D03*
D14*
X346050Y116840D03*
D15*
X346050Y156210D01*
D14*
X346050Y156210D03*
M02*
