G04 EAGLE Gerber RS-274X export*
G75*
%MOMM*%
%FSLAX34Y34*%
%LPD*%
%INSilkscreen Top*%
%IPPOS*%
%AMOC8*
5,1,8,0,0,1.08239X$1,22.5*%
G01*
%ADD10C,0.076200*%
%ADD11C,0.152400*%
%ADD12C,0.101600*%
%ADD13C,0.203200*%
%ADD14C,0.127000*%


D10*
X79829Y287401D02*
X77741Y287401D01*
X77652Y287403D01*
X77564Y287409D01*
X77476Y287418D01*
X77388Y287431D01*
X77301Y287448D01*
X77215Y287468D01*
X77130Y287493D01*
X77045Y287520D01*
X76962Y287552D01*
X76881Y287586D01*
X76801Y287625D01*
X76723Y287666D01*
X76646Y287711D01*
X76572Y287759D01*
X76499Y287810D01*
X76429Y287864D01*
X76362Y287922D01*
X76296Y287982D01*
X76234Y288044D01*
X76174Y288110D01*
X76116Y288177D01*
X76062Y288247D01*
X76011Y288320D01*
X75963Y288394D01*
X75918Y288471D01*
X75877Y288549D01*
X75838Y288629D01*
X75804Y288710D01*
X75772Y288793D01*
X75745Y288878D01*
X75720Y288963D01*
X75700Y289049D01*
X75683Y289136D01*
X75670Y289224D01*
X75661Y289312D01*
X75655Y289400D01*
X75653Y289489D01*
X75652Y289489D02*
X75652Y294711D01*
X75653Y294711D02*
X75655Y294802D01*
X75661Y294893D01*
X75671Y294984D01*
X75685Y295074D01*
X75702Y295163D01*
X75724Y295251D01*
X75750Y295339D01*
X75779Y295425D01*
X75812Y295510D01*
X75849Y295593D01*
X75889Y295675D01*
X75933Y295755D01*
X75980Y295833D01*
X76031Y295909D01*
X76084Y295982D01*
X76141Y296053D01*
X76202Y296122D01*
X76265Y296187D01*
X76330Y296250D01*
X76399Y296310D01*
X76470Y296368D01*
X76543Y296421D01*
X76619Y296472D01*
X76697Y296519D01*
X76777Y296563D01*
X76859Y296603D01*
X76942Y296640D01*
X77027Y296673D01*
X77113Y296702D01*
X77201Y296728D01*
X77289Y296750D01*
X77378Y296767D01*
X77468Y296781D01*
X77559Y296791D01*
X77650Y296797D01*
X77741Y296799D01*
X79829Y296799D01*
X86170Y296800D02*
X86265Y296798D01*
X86359Y296792D01*
X86453Y296783D01*
X86547Y296770D01*
X86640Y296753D01*
X86732Y296732D01*
X86824Y296707D01*
X86914Y296679D01*
X87003Y296647D01*
X87091Y296612D01*
X87177Y296573D01*
X87262Y296531D01*
X87345Y296485D01*
X87426Y296436D01*
X87505Y296384D01*
X87582Y296329D01*
X87656Y296270D01*
X87728Y296209D01*
X87798Y296145D01*
X87865Y296078D01*
X87929Y296008D01*
X87990Y295936D01*
X88049Y295862D01*
X88104Y295785D01*
X88156Y295706D01*
X88205Y295625D01*
X88251Y295542D01*
X88293Y295457D01*
X88332Y295371D01*
X88367Y295283D01*
X88399Y295194D01*
X88427Y295104D01*
X88452Y295012D01*
X88473Y294920D01*
X88490Y294827D01*
X88503Y294733D01*
X88512Y294639D01*
X88518Y294545D01*
X88520Y294450D01*
X86170Y296799D02*
X86062Y296797D01*
X85953Y296791D01*
X85845Y296781D01*
X85738Y296768D01*
X85631Y296750D01*
X85524Y296729D01*
X85419Y296704D01*
X85314Y296675D01*
X85211Y296643D01*
X85109Y296606D01*
X85008Y296566D01*
X84909Y296523D01*
X84811Y296476D01*
X84715Y296425D01*
X84621Y296371D01*
X84529Y296314D01*
X84439Y296253D01*
X84351Y296189D01*
X84266Y296123D01*
X84183Y296053D01*
X84103Y295980D01*
X84025Y295904D01*
X83950Y295826D01*
X83878Y295745D01*
X83809Y295661D01*
X83743Y295575D01*
X83680Y295487D01*
X83621Y295396D01*
X83564Y295304D01*
X83511Y295209D01*
X83462Y295113D01*
X83416Y295014D01*
X83373Y294915D01*
X83334Y294813D01*
X83299Y294711D01*
X87736Y292622D02*
X87805Y292691D01*
X87871Y292762D01*
X87935Y292835D01*
X87996Y292911D01*
X88054Y292990D01*
X88108Y293070D01*
X88160Y293153D01*
X88208Y293237D01*
X88254Y293323D01*
X88295Y293411D01*
X88334Y293501D01*
X88369Y293592D01*
X88400Y293684D01*
X88428Y293777D01*
X88452Y293871D01*
X88472Y293966D01*
X88489Y294062D01*
X88502Y294159D01*
X88511Y294256D01*
X88517Y294353D01*
X88519Y294450D01*
X87736Y292622D02*
X83298Y287401D01*
X88519Y287401D01*
X402519Y242951D02*
X404608Y242951D01*
X402519Y242951D02*
X402430Y242953D01*
X402342Y242959D01*
X402254Y242968D01*
X402166Y242981D01*
X402079Y242998D01*
X401993Y243018D01*
X401908Y243043D01*
X401823Y243070D01*
X401740Y243102D01*
X401659Y243136D01*
X401579Y243175D01*
X401501Y243216D01*
X401424Y243261D01*
X401350Y243309D01*
X401277Y243360D01*
X401207Y243414D01*
X401140Y243472D01*
X401074Y243532D01*
X401012Y243594D01*
X400952Y243660D01*
X400894Y243727D01*
X400840Y243797D01*
X400789Y243870D01*
X400741Y243944D01*
X400696Y244021D01*
X400655Y244099D01*
X400616Y244179D01*
X400582Y244260D01*
X400550Y244343D01*
X400523Y244428D01*
X400498Y244513D01*
X400478Y244599D01*
X400461Y244686D01*
X400448Y244774D01*
X400439Y244862D01*
X400433Y244950D01*
X400431Y245039D01*
X400431Y250261D01*
X400433Y250352D01*
X400439Y250443D01*
X400449Y250534D01*
X400463Y250624D01*
X400480Y250713D01*
X400502Y250801D01*
X400528Y250889D01*
X400557Y250975D01*
X400590Y251060D01*
X400627Y251143D01*
X400667Y251225D01*
X400711Y251305D01*
X400758Y251383D01*
X400809Y251459D01*
X400862Y251532D01*
X400919Y251603D01*
X400980Y251672D01*
X401043Y251737D01*
X401108Y251800D01*
X401177Y251860D01*
X401248Y251918D01*
X401321Y251971D01*
X401397Y252022D01*
X401475Y252069D01*
X401555Y252113D01*
X401637Y252153D01*
X401720Y252190D01*
X401805Y252223D01*
X401891Y252252D01*
X401979Y252278D01*
X402067Y252300D01*
X402156Y252317D01*
X402246Y252331D01*
X402337Y252341D01*
X402428Y252347D01*
X402519Y252349D01*
X404608Y252349D01*
X410165Y247128D02*
X413298Y247128D01*
X410165Y247128D02*
X410076Y247130D01*
X409988Y247136D01*
X409900Y247145D01*
X409812Y247158D01*
X409725Y247175D01*
X409639Y247195D01*
X409554Y247220D01*
X409469Y247247D01*
X409386Y247279D01*
X409305Y247313D01*
X409225Y247352D01*
X409147Y247393D01*
X409070Y247438D01*
X408996Y247486D01*
X408923Y247537D01*
X408853Y247591D01*
X408786Y247649D01*
X408720Y247709D01*
X408658Y247771D01*
X408598Y247837D01*
X408540Y247904D01*
X408486Y247974D01*
X408435Y248047D01*
X408387Y248121D01*
X408342Y248198D01*
X408301Y248276D01*
X408262Y248356D01*
X408228Y248437D01*
X408196Y248520D01*
X408169Y248605D01*
X408144Y248690D01*
X408124Y248776D01*
X408107Y248863D01*
X408094Y248951D01*
X408085Y249039D01*
X408079Y249127D01*
X408077Y249216D01*
X408077Y249738D01*
X408076Y249738D02*
X408078Y249839D01*
X408084Y249940D01*
X408094Y250041D01*
X408107Y250141D01*
X408125Y250241D01*
X408146Y250340D01*
X408172Y250438D01*
X408201Y250535D01*
X408233Y250631D01*
X408270Y250725D01*
X408310Y250818D01*
X408354Y250910D01*
X408401Y250999D01*
X408452Y251087D01*
X408506Y251173D01*
X408563Y251256D01*
X408623Y251338D01*
X408687Y251416D01*
X408753Y251493D01*
X408823Y251566D01*
X408895Y251637D01*
X408970Y251705D01*
X409048Y251770D01*
X409128Y251832D01*
X409210Y251891D01*
X409295Y251947D01*
X409382Y251999D01*
X409470Y252048D01*
X409561Y252094D01*
X409653Y252135D01*
X409747Y252174D01*
X409842Y252208D01*
X409938Y252239D01*
X410036Y252266D01*
X410134Y252290D01*
X410234Y252309D01*
X410334Y252325D01*
X410434Y252337D01*
X410535Y252345D01*
X410636Y252349D01*
X410738Y252349D01*
X410839Y252345D01*
X410940Y252337D01*
X411040Y252325D01*
X411140Y252309D01*
X411240Y252290D01*
X411338Y252266D01*
X411436Y252239D01*
X411532Y252208D01*
X411627Y252174D01*
X411721Y252135D01*
X411813Y252094D01*
X411904Y252048D01*
X411993Y251999D01*
X412079Y251947D01*
X412164Y251891D01*
X412246Y251832D01*
X412326Y251770D01*
X412404Y251705D01*
X412479Y251637D01*
X412551Y251566D01*
X412621Y251493D01*
X412687Y251416D01*
X412751Y251338D01*
X412811Y251256D01*
X412868Y251173D01*
X412922Y251087D01*
X412973Y250999D01*
X413020Y250910D01*
X413064Y250818D01*
X413104Y250725D01*
X413141Y250631D01*
X413173Y250535D01*
X413202Y250438D01*
X413228Y250340D01*
X413249Y250241D01*
X413267Y250141D01*
X413280Y250041D01*
X413290Y249940D01*
X413296Y249839D01*
X413298Y249738D01*
X413298Y247128D01*
X413296Y247002D01*
X413290Y246876D01*
X413281Y246750D01*
X413268Y246625D01*
X413250Y246500D01*
X413230Y246375D01*
X413205Y246251D01*
X413177Y246128D01*
X413145Y246006D01*
X413109Y245885D01*
X413070Y245765D01*
X413027Y245647D01*
X412980Y245530D01*
X412930Y245414D01*
X412876Y245299D01*
X412820Y245187D01*
X412759Y245076D01*
X412696Y244967D01*
X412629Y244860D01*
X412559Y244755D01*
X412485Y244652D01*
X412409Y244552D01*
X412330Y244454D01*
X412248Y244358D01*
X412162Y244265D01*
X412075Y244174D01*
X411984Y244087D01*
X411891Y244001D01*
X411795Y243919D01*
X411697Y243840D01*
X411597Y243764D01*
X411494Y243690D01*
X411389Y243620D01*
X411282Y243553D01*
X411173Y243490D01*
X411062Y243429D01*
X410950Y243373D01*
X410835Y243319D01*
X410719Y243269D01*
X410602Y243222D01*
X410484Y243179D01*
X410364Y243140D01*
X410243Y243104D01*
X410121Y243072D01*
X409998Y243044D01*
X409874Y243019D01*
X409749Y242999D01*
X409624Y242981D01*
X409499Y242968D01*
X409373Y242959D01*
X409247Y242953D01*
X409121Y242951D01*
X431729Y168021D02*
X433818Y168021D01*
X431729Y168021D02*
X431640Y168023D01*
X431552Y168029D01*
X431464Y168038D01*
X431376Y168051D01*
X431289Y168068D01*
X431203Y168088D01*
X431118Y168113D01*
X431033Y168140D01*
X430950Y168172D01*
X430869Y168206D01*
X430789Y168245D01*
X430711Y168286D01*
X430634Y168331D01*
X430560Y168379D01*
X430487Y168430D01*
X430417Y168484D01*
X430350Y168542D01*
X430284Y168602D01*
X430222Y168664D01*
X430162Y168730D01*
X430104Y168797D01*
X430050Y168867D01*
X429999Y168940D01*
X429951Y169014D01*
X429906Y169091D01*
X429865Y169169D01*
X429826Y169249D01*
X429792Y169330D01*
X429760Y169413D01*
X429733Y169498D01*
X429708Y169583D01*
X429688Y169669D01*
X429671Y169756D01*
X429658Y169844D01*
X429649Y169932D01*
X429643Y170020D01*
X429641Y170109D01*
X429641Y175331D01*
X429643Y175422D01*
X429649Y175513D01*
X429659Y175604D01*
X429673Y175694D01*
X429690Y175783D01*
X429712Y175871D01*
X429738Y175959D01*
X429767Y176045D01*
X429800Y176130D01*
X429837Y176213D01*
X429877Y176295D01*
X429921Y176375D01*
X429968Y176453D01*
X430019Y176529D01*
X430072Y176602D01*
X430129Y176673D01*
X430190Y176742D01*
X430253Y176807D01*
X430318Y176870D01*
X430387Y176930D01*
X430458Y176988D01*
X430531Y177041D01*
X430607Y177092D01*
X430685Y177139D01*
X430765Y177183D01*
X430847Y177223D01*
X430930Y177260D01*
X431015Y177293D01*
X431101Y177322D01*
X431189Y177348D01*
X431277Y177370D01*
X431366Y177387D01*
X431456Y177401D01*
X431547Y177411D01*
X431638Y177417D01*
X431729Y177419D01*
X433818Y177419D01*
X437287Y175331D02*
X439897Y177419D01*
X439897Y168021D01*
X437287Y168021D02*
X442508Y168021D01*
X446430Y172720D02*
X446432Y172905D01*
X446439Y173090D01*
X446450Y173274D01*
X446465Y173458D01*
X446485Y173642D01*
X446509Y173826D01*
X446538Y174008D01*
X446571Y174190D01*
X446608Y174371D01*
X446650Y174551D01*
X446696Y174731D01*
X446746Y174909D01*
X446800Y175085D01*
X446859Y175261D01*
X446921Y175435D01*
X446988Y175607D01*
X447059Y175778D01*
X447134Y175947D01*
X447213Y176114D01*
X447243Y176194D01*
X447276Y176273D01*
X447313Y176350D01*
X447353Y176426D01*
X447396Y176500D01*
X447442Y176572D01*
X447492Y176641D01*
X447544Y176709D01*
X447600Y176774D01*
X447658Y176837D01*
X447720Y176896D01*
X447783Y176954D01*
X447850Y177008D01*
X447918Y177059D01*
X447989Y177107D01*
X448062Y177152D01*
X448136Y177194D01*
X448213Y177232D01*
X448291Y177267D01*
X448370Y177299D01*
X448451Y177327D01*
X448533Y177351D01*
X448617Y177372D01*
X448700Y177389D01*
X448785Y177402D01*
X448870Y177411D01*
X448955Y177417D01*
X449041Y177419D01*
X449127Y177417D01*
X449212Y177411D01*
X449297Y177402D01*
X449382Y177389D01*
X449465Y177372D01*
X449549Y177351D01*
X449631Y177327D01*
X449712Y177299D01*
X449791Y177267D01*
X449869Y177232D01*
X449946Y177194D01*
X450020Y177152D01*
X450093Y177107D01*
X450164Y177059D01*
X450232Y177008D01*
X450299Y176954D01*
X450362Y176896D01*
X450424Y176837D01*
X450482Y176774D01*
X450538Y176709D01*
X450590Y176641D01*
X450640Y176572D01*
X450686Y176500D01*
X450729Y176426D01*
X450769Y176350D01*
X450806Y176273D01*
X450839Y176194D01*
X450869Y176114D01*
X450948Y175947D01*
X451023Y175778D01*
X451094Y175607D01*
X451161Y175435D01*
X451223Y175261D01*
X451282Y175085D01*
X451336Y174909D01*
X451386Y174731D01*
X451432Y174551D01*
X451474Y174371D01*
X451511Y174190D01*
X451544Y174008D01*
X451573Y173826D01*
X451597Y173642D01*
X451617Y173458D01*
X451632Y173274D01*
X451643Y173090D01*
X451650Y172905D01*
X451652Y172720D01*
X446431Y172720D02*
X446433Y172535D01*
X446440Y172350D01*
X446451Y172166D01*
X446466Y171982D01*
X446486Y171798D01*
X446510Y171614D01*
X446539Y171432D01*
X446572Y171250D01*
X446609Y171069D01*
X446651Y170889D01*
X446697Y170709D01*
X446747Y170531D01*
X446801Y170355D01*
X446860Y170179D01*
X446922Y170005D01*
X446989Y169833D01*
X447060Y169662D01*
X447135Y169493D01*
X447214Y169326D01*
X447213Y169326D02*
X447243Y169246D01*
X447276Y169167D01*
X447313Y169090D01*
X447353Y169014D01*
X447396Y168940D01*
X447442Y168868D01*
X447492Y168799D01*
X447545Y168731D01*
X447600Y168666D01*
X447659Y168603D01*
X447720Y168544D01*
X447783Y168486D01*
X447850Y168432D01*
X447918Y168381D01*
X447989Y168333D01*
X448062Y168288D01*
X448136Y168246D01*
X448213Y168208D01*
X448291Y168173D01*
X448370Y168141D01*
X448451Y168113D01*
X448533Y168089D01*
X448617Y168068D01*
X448700Y168051D01*
X448785Y168038D01*
X448870Y168029D01*
X448955Y168023D01*
X449041Y168021D01*
X450869Y169326D02*
X450948Y169493D01*
X451023Y169662D01*
X451094Y169833D01*
X451161Y170005D01*
X451223Y170179D01*
X451282Y170355D01*
X451336Y170531D01*
X451386Y170709D01*
X451432Y170889D01*
X451474Y171069D01*
X451511Y171250D01*
X451544Y171432D01*
X451573Y171614D01*
X451597Y171798D01*
X451617Y171982D01*
X451632Y172166D01*
X451643Y172350D01*
X451650Y172535D01*
X451652Y172720D01*
X450869Y169326D02*
X450839Y169246D01*
X450806Y169167D01*
X450769Y169090D01*
X450729Y169014D01*
X450686Y168940D01*
X450640Y168868D01*
X450590Y168799D01*
X450538Y168731D01*
X450482Y168666D01*
X450424Y168603D01*
X450362Y168544D01*
X450299Y168486D01*
X450232Y168432D01*
X450164Y168381D01*
X450093Y168333D01*
X450020Y168288D01*
X449946Y168246D01*
X449869Y168208D01*
X449791Y168173D01*
X449712Y168141D01*
X449631Y168113D01*
X449549Y168089D01*
X449465Y168068D01*
X449382Y168051D01*
X449297Y168038D01*
X449212Y168029D01*
X449127Y168023D01*
X449041Y168021D01*
X446953Y170109D02*
X451130Y175331D01*
X509199Y142621D02*
X511288Y142621D01*
X509199Y142621D02*
X509110Y142623D01*
X509022Y142629D01*
X508934Y142638D01*
X508846Y142651D01*
X508759Y142668D01*
X508673Y142688D01*
X508588Y142713D01*
X508503Y142740D01*
X508420Y142772D01*
X508339Y142806D01*
X508259Y142845D01*
X508181Y142886D01*
X508104Y142931D01*
X508030Y142979D01*
X507957Y143030D01*
X507887Y143084D01*
X507820Y143142D01*
X507754Y143202D01*
X507692Y143264D01*
X507632Y143330D01*
X507574Y143397D01*
X507520Y143467D01*
X507469Y143540D01*
X507421Y143614D01*
X507376Y143691D01*
X507335Y143769D01*
X507296Y143849D01*
X507262Y143930D01*
X507230Y144013D01*
X507203Y144098D01*
X507178Y144183D01*
X507158Y144269D01*
X507141Y144356D01*
X507128Y144444D01*
X507119Y144532D01*
X507113Y144620D01*
X507111Y144709D01*
X507111Y149931D01*
X507113Y150022D01*
X507119Y150113D01*
X507129Y150204D01*
X507143Y150294D01*
X507160Y150383D01*
X507182Y150471D01*
X507208Y150559D01*
X507237Y150645D01*
X507270Y150730D01*
X507307Y150813D01*
X507347Y150895D01*
X507391Y150975D01*
X507438Y151053D01*
X507489Y151129D01*
X507542Y151202D01*
X507599Y151273D01*
X507660Y151342D01*
X507723Y151407D01*
X507788Y151470D01*
X507857Y151530D01*
X507928Y151588D01*
X508001Y151641D01*
X508077Y151692D01*
X508155Y151739D01*
X508235Y151783D01*
X508317Y151823D01*
X508400Y151860D01*
X508485Y151893D01*
X508571Y151922D01*
X508659Y151948D01*
X508747Y151970D01*
X508836Y151987D01*
X508926Y152001D01*
X509017Y152011D01*
X509108Y152017D01*
X509199Y152019D01*
X511288Y152019D01*
X514757Y149931D02*
X517367Y152019D01*
X517367Y142621D01*
X514757Y142621D02*
X519978Y142621D01*
X523901Y149931D02*
X526511Y152019D01*
X526511Y142621D01*
X523901Y142621D02*
X529122Y142621D01*
X517638Y230251D02*
X515549Y230251D01*
X515460Y230253D01*
X515372Y230259D01*
X515284Y230268D01*
X515196Y230281D01*
X515109Y230298D01*
X515023Y230318D01*
X514938Y230343D01*
X514853Y230370D01*
X514770Y230402D01*
X514689Y230436D01*
X514609Y230475D01*
X514531Y230516D01*
X514454Y230561D01*
X514380Y230609D01*
X514307Y230660D01*
X514237Y230714D01*
X514170Y230772D01*
X514104Y230832D01*
X514042Y230894D01*
X513982Y230960D01*
X513924Y231027D01*
X513870Y231097D01*
X513819Y231170D01*
X513771Y231244D01*
X513726Y231321D01*
X513685Y231399D01*
X513646Y231479D01*
X513612Y231560D01*
X513580Y231643D01*
X513553Y231728D01*
X513528Y231813D01*
X513508Y231899D01*
X513491Y231986D01*
X513478Y232074D01*
X513469Y232162D01*
X513463Y232250D01*
X513461Y232339D01*
X513461Y237561D01*
X513463Y237652D01*
X513469Y237743D01*
X513479Y237834D01*
X513493Y237924D01*
X513510Y238013D01*
X513532Y238101D01*
X513558Y238189D01*
X513587Y238275D01*
X513620Y238360D01*
X513657Y238443D01*
X513697Y238525D01*
X513741Y238605D01*
X513788Y238683D01*
X513839Y238759D01*
X513892Y238832D01*
X513949Y238903D01*
X514010Y238972D01*
X514073Y239037D01*
X514138Y239100D01*
X514207Y239160D01*
X514278Y239218D01*
X514351Y239271D01*
X514427Y239322D01*
X514505Y239369D01*
X514585Y239413D01*
X514667Y239453D01*
X514750Y239490D01*
X514835Y239523D01*
X514921Y239552D01*
X515009Y239578D01*
X515097Y239600D01*
X515186Y239617D01*
X515276Y239631D01*
X515367Y239641D01*
X515458Y239647D01*
X515549Y239649D01*
X517638Y239649D01*
X521107Y237561D02*
X523717Y239649D01*
X523717Y230251D01*
X521107Y230251D02*
X526328Y230251D01*
X535472Y237300D02*
X535470Y237395D01*
X535464Y237489D01*
X535455Y237583D01*
X535442Y237677D01*
X535425Y237770D01*
X535404Y237862D01*
X535379Y237954D01*
X535351Y238044D01*
X535319Y238133D01*
X535284Y238221D01*
X535245Y238307D01*
X535203Y238392D01*
X535157Y238475D01*
X535108Y238556D01*
X535056Y238635D01*
X535001Y238712D01*
X534942Y238786D01*
X534881Y238858D01*
X534817Y238928D01*
X534750Y238995D01*
X534680Y239059D01*
X534608Y239120D01*
X534534Y239179D01*
X534457Y239234D01*
X534378Y239286D01*
X534297Y239335D01*
X534214Y239381D01*
X534129Y239423D01*
X534043Y239462D01*
X533955Y239497D01*
X533866Y239529D01*
X533776Y239557D01*
X533684Y239582D01*
X533592Y239603D01*
X533499Y239620D01*
X533405Y239633D01*
X533311Y239642D01*
X533217Y239648D01*
X533122Y239650D01*
X533122Y239649D02*
X533014Y239647D01*
X532905Y239641D01*
X532797Y239631D01*
X532690Y239618D01*
X532583Y239600D01*
X532476Y239579D01*
X532371Y239554D01*
X532266Y239525D01*
X532163Y239493D01*
X532061Y239456D01*
X531960Y239416D01*
X531861Y239373D01*
X531763Y239326D01*
X531667Y239275D01*
X531573Y239221D01*
X531481Y239164D01*
X531391Y239103D01*
X531303Y239039D01*
X531218Y238973D01*
X531135Y238903D01*
X531055Y238830D01*
X530977Y238754D01*
X530902Y238676D01*
X530830Y238595D01*
X530761Y238511D01*
X530695Y238425D01*
X530632Y238337D01*
X530573Y238246D01*
X530516Y238154D01*
X530463Y238059D01*
X530414Y237963D01*
X530368Y237864D01*
X530325Y237765D01*
X530286Y237663D01*
X530251Y237561D01*
X534689Y235472D02*
X534758Y235541D01*
X534824Y235612D01*
X534888Y235685D01*
X534949Y235761D01*
X535007Y235840D01*
X535061Y235920D01*
X535113Y236003D01*
X535161Y236087D01*
X535207Y236173D01*
X535248Y236261D01*
X535287Y236351D01*
X535322Y236442D01*
X535353Y236534D01*
X535381Y236627D01*
X535405Y236721D01*
X535425Y236816D01*
X535442Y236912D01*
X535455Y237009D01*
X535464Y237106D01*
X535470Y237203D01*
X535472Y237300D01*
X534689Y235472D02*
X530251Y230251D01*
X535472Y230251D01*
X297928Y215011D02*
X295839Y215011D01*
X295750Y215013D01*
X295662Y215019D01*
X295574Y215028D01*
X295486Y215041D01*
X295399Y215058D01*
X295313Y215078D01*
X295228Y215103D01*
X295143Y215130D01*
X295060Y215162D01*
X294979Y215196D01*
X294899Y215235D01*
X294821Y215276D01*
X294744Y215321D01*
X294670Y215369D01*
X294597Y215420D01*
X294527Y215474D01*
X294460Y215532D01*
X294394Y215592D01*
X294332Y215654D01*
X294272Y215720D01*
X294214Y215787D01*
X294160Y215857D01*
X294109Y215930D01*
X294061Y216004D01*
X294016Y216081D01*
X293975Y216159D01*
X293936Y216239D01*
X293902Y216320D01*
X293870Y216403D01*
X293843Y216488D01*
X293818Y216573D01*
X293798Y216659D01*
X293781Y216746D01*
X293768Y216834D01*
X293759Y216922D01*
X293753Y217010D01*
X293751Y217099D01*
X293751Y222321D01*
X293753Y222412D01*
X293759Y222503D01*
X293769Y222594D01*
X293783Y222684D01*
X293800Y222773D01*
X293822Y222861D01*
X293848Y222949D01*
X293877Y223035D01*
X293910Y223120D01*
X293947Y223203D01*
X293987Y223285D01*
X294031Y223365D01*
X294078Y223443D01*
X294129Y223519D01*
X294182Y223592D01*
X294239Y223663D01*
X294300Y223732D01*
X294363Y223797D01*
X294428Y223860D01*
X294497Y223920D01*
X294568Y223978D01*
X294641Y224031D01*
X294717Y224082D01*
X294795Y224129D01*
X294875Y224173D01*
X294957Y224213D01*
X295040Y224250D01*
X295125Y224283D01*
X295211Y224312D01*
X295299Y224338D01*
X295387Y224360D01*
X295476Y224377D01*
X295566Y224391D01*
X295657Y224401D01*
X295748Y224407D01*
X295839Y224409D01*
X297928Y224409D01*
X303485Y224409D02*
X301397Y217099D01*
X306618Y217099D01*
X305051Y215011D02*
X305051Y219188D01*
X503191Y262001D02*
X505279Y262001D01*
X503191Y262001D02*
X503102Y262003D01*
X503014Y262009D01*
X502926Y262018D01*
X502838Y262031D01*
X502751Y262048D01*
X502665Y262068D01*
X502580Y262093D01*
X502495Y262120D01*
X502412Y262152D01*
X502331Y262186D01*
X502251Y262225D01*
X502173Y262266D01*
X502096Y262311D01*
X502022Y262359D01*
X501949Y262410D01*
X501879Y262464D01*
X501812Y262522D01*
X501746Y262582D01*
X501684Y262644D01*
X501624Y262710D01*
X501566Y262777D01*
X501512Y262847D01*
X501461Y262920D01*
X501413Y262994D01*
X501368Y263071D01*
X501327Y263149D01*
X501288Y263229D01*
X501254Y263310D01*
X501222Y263393D01*
X501195Y263478D01*
X501170Y263563D01*
X501150Y263649D01*
X501133Y263736D01*
X501120Y263824D01*
X501111Y263912D01*
X501105Y264000D01*
X501103Y264089D01*
X501102Y264089D02*
X501102Y269311D01*
X501103Y269311D02*
X501105Y269402D01*
X501111Y269493D01*
X501121Y269584D01*
X501135Y269674D01*
X501152Y269763D01*
X501174Y269851D01*
X501200Y269939D01*
X501229Y270025D01*
X501262Y270110D01*
X501299Y270193D01*
X501339Y270275D01*
X501383Y270355D01*
X501430Y270433D01*
X501481Y270509D01*
X501534Y270582D01*
X501591Y270653D01*
X501652Y270722D01*
X501715Y270787D01*
X501780Y270850D01*
X501849Y270910D01*
X501920Y270968D01*
X501993Y271021D01*
X502069Y271072D01*
X502147Y271119D01*
X502227Y271163D01*
X502309Y271203D01*
X502392Y271240D01*
X502477Y271273D01*
X502563Y271302D01*
X502651Y271328D01*
X502739Y271350D01*
X502828Y271367D01*
X502918Y271381D01*
X503009Y271391D01*
X503100Y271397D01*
X503191Y271399D01*
X505279Y271399D01*
X508748Y271399D02*
X508748Y270355D01*
X508748Y271399D02*
X513969Y271399D01*
X511358Y262001D01*
X162038Y160401D02*
X159949Y160401D01*
X159860Y160403D01*
X159772Y160409D01*
X159684Y160418D01*
X159596Y160431D01*
X159509Y160448D01*
X159423Y160468D01*
X159338Y160493D01*
X159253Y160520D01*
X159170Y160552D01*
X159089Y160586D01*
X159009Y160625D01*
X158931Y160666D01*
X158854Y160711D01*
X158780Y160759D01*
X158707Y160810D01*
X158637Y160864D01*
X158570Y160922D01*
X158504Y160982D01*
X158442Y161044D01*
X158382Y161110D01*
X158324Y161177D01*
X158270Y161247D01*
X158219Y161320D01*
X158171Y161394D01*
X158126Y161471D01*
X158085Y161549D01*
X158046Y161629D01*
X158012Y161710D01*
X157980Y161793D01*
X157953Y161878D01*
X157928Y161963D01*
X157908Y162049D01*
X157891Y162136D01*
X157878Y162224D01*
X157869Y162312D01*
X157863Y162400D01*
X157861Y162489D01*
X157861Y167711D01*
X157863Y167802D01*
X157869Y167893D01*
X157879Y167984D01*
X157893Y168074D01*
X157910Y168163D01*
X157932Y168251D01*
X157958Y168339D01*
X157987Y168425D01*
X158020Y168510D01*
X158057Y168593D01*
X158097Y168675D01*
X158141Y168755D01*
X158188Y168833D01*
X158239Y168909D01*
X158292Y168982D01*
X158349Y169053D01*
X158410Y169122D01*
X158473Y169187D01*
X158538Y169250D01*
X158607Y169310D01*
X158678Y169368D01*
X158751Y169421D01*
X158827Y169472D01*
X158905Y169519D01*
X158985Y169563D01*
X159067Y169603D01*
X159150Y169640D01*
X159235Y169673D01*
X159321Y169702D01*
X159409Y169728D01*
X159497Y169750D01*
X159586Y169767D01*
X159676Y169781D01*
X159767Y169791D01*
X159858Y169797D01*
X159949Y169799D01*
X162038Y169799D01*
X165507Y167711D02*
X168117Y169799D01*
X168117Y160401D01*
X165507Y160401D02*
X170728Y160401D01*
X212361Y221361D02*
X214449Y221361D01*
X212361Y221361D02*
X212272Y221363D01*
X212184Y221369D01*
X212096Y221378D01*
X212008Y221391D01*
X211921Y221408D01*
X211835Y221428D01*
X211750Y221453D01*
X211665Y221480D01*
X211582Y221512D01*
X211501Y221546D01*
X211421Y221585D01*
X211343Y221626D01*
X211266Y221671D01*
X211192Y221719D01*
X211119Y221770D01*
X211049Y221824D01*
X210982Y221882D01*
X210916Y221942D01*
X210854Y222004D01*
X210794Y222070D01*
X210736Y222137D01*
X210682Y222207D01*
X210631Y222280D01*
X210583Y222354D01*
X210538Y222431D01*
X210497Y222509D01*
X210458Y222589D01*
X210424Y222670D01*
X210392Y222753D01*
X210365Y222838D01*
X210340Y222923D01*
X210320Y223009D01*
X210303Y223096D01*
X210290Y223184D01*
X210281Y223272D01*
X210275Y223360D01*
X210273Y223449D01*
X210272Y223449D02*
X210272Y228671D01*
X210273Y228671D02*
X210275Y228762D01*
X210281Y228853D01*
X210291Y228944D01*
X210305Y229034D01*
X210322Y229123D01*
X210344Y229211D01*
X210370Y229299D01*
X210399Y229385D01*
X210432Y229470D01*
X210469Y229553D01*
X210509Y229635D01*
X210553Y229715D01*
X210600Y229793D01*
X210651Y229869D01*
X210704Y229942D01*
X210761Y230013D01*
X210822Y230082D01*
X210885Y230147D01*
X210950Y230210D01*
X211019Y230270D01*
X211090Y230328D01*
X211163Y230381D01*
X211239Y230432D01*
X211317Y230479D01*
X211397Y230523D01*
X211479Y230563D01*
X211562Y230600D01*
X211647Y230633D01*
X211733Y230662D01*
X211821Y230688D01*
X211909Y230710D01*
X211998Y230727D01*
X212088Y230741D01*
X212179Y230751D01*
X212270Y230757D01*
X212361Y230759D01*
X214449Y230759D01*
X217918Y221361D02*
X220528Y221361D01*
X220629Y221363D01*
X220730Y221369D01*
X220831Y221379D01*
X220931Y221392D01*
X221031Y221410D01*
X221130Y221431D01*
X221228Y221457D01*
X221325Y221486D01*
X221421Y221518D01*
X221515Y221555D01*
X221608Y221595D01*
X221700Y221639D01*
X221789Y221686D01*
X221877Y221737D01*
X221963Y221791D01*
X222046Y221848D01*
X222128Y221908D01*
X222206Y221972D01*
X222283Y222038D01*
X222356Y222108D01*
X222427Y222180D01*
X222495Y222255D01*
X222560Y222333D01*
X222622Y222413D01*
X222681Y222495D01*
X222737Y222580D01*
X222789Y222666D01*
X222838Y222755D01*
X222884Y222846D01*
X222925Y222938D01*
X222964Y223032D01*
X222998Y223127D01*
X223029Y223223D01*
X223056Y223321D01*
X223080Y223419D01*
X223099Y223519D01*
X223115Y223619D01*
X223127Y223719D01*
X223135Y223820D01*
X223139Y223921D01*
X223139Y224023D01*
X223135Y224124D01*
X223127Y224225D01*
X223115Y224325D01*
X223099Y224425D01*
X223080Y224525D01*
X223056Y224623D01*
X223029Y224721D01*
X222998Y224817D01*
X222964Y224912D01*
X222925Y225006D01*
X222884Y225098D01*
X222838Y225189D01*
X222789Y225277D01*
X222737Y225364D01*
X222681Y225449D01*
X222622Y225531D01*
X222560Y225611D01*
X222495Y225689D01*
X222427Y225764D01*
X222356Y225836D01*
X222283Y225906D01*
X222206Y225972D01*
X222128Y226036D01*
X222046Y226096D01*
X221963Y226153D01*
X221877Y226207D01*
X221789Y226258D01*
X221700Y226305D01*
X221608Y226349D01*
X221515Y226389D01*
X221421Y226426D01*
X221325Y226458D01*
X221228Y226487D01*
X221130Y226513D01*
X221031Y226534D01*
X220931Y226552D01*
X220831Y226565D01*
X220730Y226575D01*
X220629Y226581D01*
X220528Y226583D01*
X221051Y230759D02*
X217918Y230759D01*
X221051Y230759D02*
X221141Y230757D01*
X221230Y230751D01*
X221320Y230742D01*
X221409Y230728D01*
X221497Y230711D01*
X221584Y230690D01*
X221671Y230665D01*
X221756Y230636D01*
X221840Y230604D01*
X221922Y230569D01*
X222003Y230529D01*
X222082Y230487D01*
X222159Y230441D01*
X222234Y230391D01*
X222307Y230339D01*
X222378Y230283D01*
X222446Y230225D01*
X222511Y230163D01*
X222574Y230099D01*
X222634Y230032D01*
X222691Y229963D01*
X222745Y229891D01*
X222796Y229817D01*
X222844Y229741D01*
X222888Y229663D01*
X222929Y229583D01*
X222967Y229501D01*
X223001Y229418D01*
X223031Y229333D01*
X223058Y229247D01*
X223081Y229161D01*
X223100Y229073D01*
X223115Y228984D01*
X223127Y228895D01*
X223135Y228806D01*
X223139Y228716D01*
X223139Y228626D01*
X223135Y228536D01*
X223127Y228447D01*
X223115Y228358D01*
X223100Y228269D01*
X223081Y228181D01*
X223058Y228095D01*
X223031Y228009D01*
X223001Y227924D01*
X222967Y227841D01*
X222929Y227759D01*
X222888Y227679D01*
X222844Y227601D01*
X222796Y227525D01*
X222745Y227451D01*
X222691Y227379D01*
X222634Y227310D01*
X222574Y227243D01*
X222511Y227179D01*
X222446Y227117D01*
X222378Y227059D01*
X222307Y227003D01*
X222234Y226951D01*
X222159Y226901D01*
X222082Y226855D01*
X222003Y226813D01*
X221922Y226773D01*
X221840Y226738D01*
X221756Y226706D01*
X221671Y226677D01*
X221584Y226652D01*
X221497Y226631D01*
X221409Y226614D01*
X221320Y226600D01*
X221230Y226591D01*
X221141Y226585D01*
X221051Y226583D01*
X221051Y226582D02*
X218962Y226582D01*
X258081Y112141D02*
X260169Y112141D01*
X258081Y112141D02*
X257992Y112143D01*
X257904Y112149D01*
X257816Y112158D01*
X257728Y112171D01*
X257641Y112188D01*
X257555Y112208D01*
X257470Y112233D01*
X257385Y112260D01*
X257302Y112292D01*
X257221Y112326D01*
X257141Y112365D01*
X257063Y112406D01*
X256986Y112451D01*
X256912Y112499D01*
X256839Y112550D01*
X256769Y112604D01*
X256702Y112662D01*
X256636Y112722D01*
X256574Y112784D01*
X256514Y112850D01*
X256456Y112917D01*
X256402Y112987D01*
X256351Y113060D01*
X256303Y113134D01*
X256258Y113211D01*
X256217Y113289D01*
X256178Y113369D01*
X256144Y113450D01*
X256112Y113533D01*
X256085Y113618D01*
X256060Y113703D01*
X256040Y113789D01*
X256023Y113876D01*
X256010Y113964D01*
X256001Y114052D01*
X255995Y114140D01*
X255993Y114229D01*
X255992Y114229D02*
X255992Y119451D01*
X255993Y119451D02*
X255995Y119542D01*
X256001Y119633D01*
X256011Y119724D01*
X256025Y119814D01*
X256042Y119903D01*
X256064Y119991D01*
X256090Y120079D01*
X256119Y120165D01*
X256152Y120250D01*
X256189Y120333D01*
X256229Y120415D01*
X256273Y120495D01*
X256320Y120573D01*
X256371Y120649D01*
X256424Y120722D01*
X256481Y120793D01*
X256542Y120862D01*
X256605Y120927D01*
X256670Y120990D01*
X256739Y121050D01*
X256810Y121108D01*
X256883Y121161D01*
X256959Y121212D01*
X257037Y121259D01*
X257117Y121303D01*
X257199Y121343D01*
X257282Y121380D01*
X257367Y121413D01*
X257453Y121442D01*
X257541Y121468D01*
X257629Y121490D01*
X257718Y121507D01*
X257808Y121521D01*
X257899Y121531D01*
X257990Y121537D01*
X258081Y121539D01*
X260169Y121539D01*
X263638Y112141D02*
X266771Y112141D01*
X266860Y112143D01*
X266948Y112149D01*
X267036Y112158D01*
X267124Y112171D01*
X267211Y112188D01*
X267297Y112208D01*
X267382Y112233D01*
X267467Y112260D01*
X267550Y112292D01*
X267631Y112326D01*
X267711Y112365D01*
X267789Y112406D01*
X267866Y112451D01*
X267940Y112499D01*
X268013Y112550D01*
X268083Y112604D01*
X268150Y112662D01*
X268216Y112722D01*
X268278Y112784D01*
X268338Y112850D01*
X268396Y112917D01*
X268450Y112987D01*
X268501Y113060D01*
X268549Y113134D01*
X268594Y113211D01*
X268635Y113289D01*
X268674Y113369D01*
X268708Y113450D01*
X268740Y113533D01*
X268767Y113618D01*
X268792Y113703D01*
X268812Y113789D01*
X268829Y113876D01*
X268842Y113964D01*
X268851Y114052D01*
X268857Y114140D01*
X268859Y114229D01*
X268859Y115274D01*
X268857Y115363D01*
X268851Y115451D01*
X268842Y115539D01*
X268829Y115627D01*
X268812Y115714D01*
X268792Y115800D01*
X268767Y115885D01*
X268740Y115970D01*
X268708Y116053D01*
X268674Y116134D01*
X268635Y116214D01*
X268594Y116292D01*
X268549Y116369D01*
X268501Y116443D01*
X268450Y116516D01*
X268396Y116586D01*
X268338Y116653D01*
X268278Y116719D01*
X268216Y116781D01*
X268150Y116841D01*
X268083Y116899D01*
X268013Y116953D01*
X267940Y117004D01*
X267866Y117052D01*
X267789Y117097D01*
X267711Y117138D01*
X267631Y117177D01*
X267550Y117211D01*
X267467Y117243D01*
X267382Y117270D01*
X267297Y117295D01*
X267211Y117315D01*
X267124Y117332D01*
X267036Y117345D01*
X266948Y117354D01*
X266860Y117360D01*
X266771Y117362D01*
X263638Y117362D01*
X263638Y121539D01*
X268859Y121539D01*
X333939Y94361D02*
X336028Y94361D01*
X333939Y94361D02*
X333850Y94363D01*
X333762Y94369D01*
X333674Y94378D01*
X333586Y94391D01*
X333499Y94408D01*
X333413Y94428D01*
X333328Y94453D01*
X333243Y94480D01*
X333160Y94512D01*
X333079Y94546D01*
X332999Y94585D01*
X332921Y94626D01*
X332844Y94671D01*
X332770Y94719D01*
X332697Y94770D01*
X332627Y94824D01*
X332560Y94882D01*
X332494Y94942D01*
X332432Y95004D01*
X332372Y95070D01*
X332314Y95137D01*
X332260Y95207D01*
X332209Y95280D01*
X332161Y95354D01*
X332116Y95431D01*
X332075Y95509D01*
X332036Y95589D01*
X332002Y95670D01*
X331970Y95753D01*
X331943Y95838D01*
X331918Y95923D01*
X331898Y96009D01*
X331881Y96096D01*
X331868Y96184D01*
X331859Y96272D01*
X331853Y96360D01*
X331851Y96449D01*
X331851Y101671D01*
X331853Y101762D01*
X331859Y101853D01*
X331869Y101944D01*
X331883Y102034D01*
X331900Y102123D01*
X331922Y102211D01*
X331948Y102299D01*
X331977Y102385D01*
X332010Y102470D01*
X332047Y102553D01*
X332087Y102635D01*
X332131Y102715D01*
X332178Y102793D01*
X332229Y102869D01*
X332282Y102942D01*
X332339Y103013D01*
X332400Y103082D01*
X332463Y103147D01*
X332528Y103210D01*
X332597Y103270D01*
X332668Y103328D01*
X332741Y103381D01*
X332817Y103432D01*
X332895Y103479D01*
X332975Y103523D01*
X333057Y103563D01*
X333140Y103600D01*
X333225Y103633D01*
X333311Y103662D01*
X333399Y103688D01*
X333487Y103710D01*
X333576Y103727D01*
X333666Y103741D01*
X333757Y103751D01*
X333848Y103757D01*
X333939Y103759D01*
X336028Y103759D01*
X339497Y99582D02*
X342629Y99582D01*
X342718Y99580D01*
X342806Y99574D01*
X342894Y99565D01*
X342982Y99552D01*
X343069Y99535D01*
X343155Y99515D01*
X343240Y99490D01*
X343325Y99463D01*
X343408Y99431D01*
X343489Y99397D01*
X343569Y99358D01*
X343647Y99317D01*
X343724Y99272D01*
X343798Y99224D01*
X343871Y99173D01*
X343941Y99119D01*
X344008Y99061D01*
X344074Y99001D01*
X344136Y98939D01*
X344196Y98873D01*
X344254Y98806D01*
X344308Y98736D01*
X344359Y98663D01*
X344407Y98589D01*
X344452Y98512D01*
X344493Y98434D01*
X344532Y98354D01*
X344566Y98273D01*
X344598Y98190D01*
X344625Y98105D01*
X344650Y98020D01*
X344670Y97934D01*
X344687Y97847D01*
X344700Y97759D01*
X344709Y97671D01*
X344715Y97583D01*
X344717Y97494D01*
X344718Y97494D02*
X344718Y96972D01*
X344716Y96871D01*
X344710Y96770D01*
X344700Y96669D01*
X344687Y96569D01*
X344669Y96469D01*
X344648Y96370D01*
X344622Y96272D01*
X344593Y96175D01*
X344561Y96079D01*
X344524Y95985D01*
X344484Y95892D01*
X344440Y95800D01*
X344393Y95711D01*
X344342Y95623D01*
X344288Y95537D01*
X344231Y95454D01*
X344171Y95372D01*
X344107Y95294D01*
X344041Y95217D01*
X343971Y95144D01*
X343899Y95073D01*
X343824Y95005D01*
X343746Y94940D01*
X343666Y94878D01*
X343584Y94819D01*
X343499Y94763D01*
X343412Y94711D01*
X343324Y94662D01*
X343233Y94616D01*
X343141Y94575D01*
X343047Y94536D01*
X342952Y94502D01*
X342856Y94471D01*
X342758Y94444D01*
X342660Y94420D01*
X342560Y94401D01*
X342460Y94385D01*
X342360Y94373D01*
X342259Y94365D01*
X342158Y94361D01*
X342056Y94361D01*
X341955Y94365D01*
X341854Y94373D01*
X341754Y94385D01*
X341654Y94401D01*
X341554Y94420D01*
X341456Y94444D01*
X341358Y94471D01*
X341262Y94502D01*
X341167Y94536D01*
X341073Y94575D01*
X340981Y94616D01*
X340890Y94662D01*
X340802Y94711D01*
X340715Y94763D01*
X340630Y94819D01*
X340548Y94878D01*
X340468Y94940D01*
X340390Y95005D01*
X340315Y95073D01*
X340243Y95144D01*
X340173Y95217D01*
X340107Y95294D01*
X340043Y95372D01*
X339983Y95454D01*
X339926Y95537D01*
X339872Y95623D01*
X339821Y95711D01*
X339774Y95800D01*
X339730Y95892D01*
X339690Y95985D01*
X339653Y96079D01*
X339621Y96175D01*
X339592Y96272D01*
X339566Y96370D01*
X339545Y96469D01*
X339527Y96569D01*
X339514Y96669D01*
X339504Y96770D01*
X339498Y96871D01*
X339496Y96972D01*
X339497Y96972D02*
X339497Y99582D01*
X339499Y99711D01*
X339505Y99839D01*
X339515Y99967D01*
X339529Y100095D01*
X339546Y100223D01*
X339568Y100350D01*
X339594Y100476D01*
X339623Y100601D01*
X339656Y100725D01*
X339694Y100848D01*
X339734Y100970D01*
X339779Y101091D01*
X339827Y101210D01*
X339879Y101328D01*
X339935Y101444D01*
X339994Y101558D01*
X340057Y101670D01*
X340123Y101781D01*
X340192Y101889D01*
X340265Y101995D01*
X340341Y102099D01*
X340420Y102201D01*
X340502Y102300D01*
X340587Y102396D01*
X340675Y102490D01*
X340766Y102581D01*
X340860Y102669D01*
X340956Y102754D01*
X341055Y102836D01*
X341157Y102915D01*
X341261Y102991D01*
X341367Y103064D01*
X341475Y103133D01*
X341585Y103199D01*
X341698Y103262D01*
X341812Y103321D01*
X341928Y103377D01*
X342046Y103429D01*
X342165Y103477D01*
X342286Y103522D01*
X342408Y103562D01*
X342531Y103600D01*
X342655Y103633D01*
X342780Y103662D01*
X342906Y103688D01*
X343033Y103710D01*
X343161Y103727D01*
X343289Y103741D01*
X343417Y103751D01*
X343545Y103757D01*
X343674Y103759D01*
X373309Y165481D02*
X375398Y165481D01*
X373309Y165481D02*
X373220Y165483D01*
X373132Y165489D01*
X373044Y165498D01*
X372956Y165511D01*
X372869Y165528D01*
X372783Y165548D01*
X372698Y165573D01*
X372613Y165600D01*
X372530Y165632D01*
X372449Y165666D01*
X372369Y165705D01*
X372291Y165746D01*
X372214Y165791D01*
X372140Y165839D01*
X372067Y165890D01*
X371997Y165944D01*
X371930Y166002D01*
X371864Y166062D01*
X371802Y166124D01*
X371742Y166190D01*
X371684Y166257D01*
X371630Y166327D01*
X371579Y166400D01*
X371531Y166474D01*
X371486Y166551D01*
X371445Y166629D01*
X371406Y166709D01*
X371372Y166790D01*
X371340Y166873D01*
X371313Y166958D01*
X371288Y167043D01*
X371268Y167129D01*
X371251Y167216D01*
X371238Y167304D01*
X371229Y167392D01*
X371223Y167480D01*
X371221Y167569D01*
X371221Y172791D01*
X371223Y172882D01*
X371229Y172973D01*
X371239Y173064D01*
X371253Y173154D01*
X371270Y173243D01*
X371292Y173331D01*
X371318Y173419D01*
X371347Y173505D01*
X371380Y173590D01*
X371417Y173673D01*
X371457Y173755D01*
X371501Y173835D01*
X371548Y173913D01*
X371599Y173989D01*
X371652Y174062D01*
X371709Y174133D01*
X371770Y174202D01*
X371833Y174267D01*
X371898Y174330D01*
X371967Y174390D01*
X372038Y174448D01*
X372111Y174501D01*
X372187Y174552D01*
X372265Y174599D01*
X372345Y174643D01*
X372427Y174683D01*
X372510Y174720D01*
X372595Y174753D01*
X372681Y174782D01*
X372769Y174808D01*
X372857Y174830D01*
X372946Y174847D01*
X373036Y174861D01*
X373127Y174871D01*
X373218Y174877D01*
X373309Y174879D01*
X375398Y174879D01*
X378866Y168092D02*
X378868Y168193D01*
X378874Y168294D01*
X378884Y168395D01*
X378897Y168495D01*
X378915Y168595D01*
X378936Y168694D01*
X378962Y168792D01*
X378991Y168889D01*
X379023Y168985D01*
X379060Y169079D01*
X379100Y169172D01*
X379144Y169264D01*
X379191Y169353D01*
X379242Y169441D01*
X379296Y169527D01*
X379353Y169610D01*
X379413Y169692D01*
X379477Y169770D01*
X379543Y169847D01*
X379613Y169920D01*
X379685Y169991D01*
X379760Y170059D01*
X379838Y170124D01*
X379918Y170186D01*
X380000Y170245D01*
X380085Y170301D01*
X380172Y170353D01*
X380260Y170402D01*
X380351Y170448D01*
X380443Y170489D01*
X380537Y170528D01*
X380632Y170562D01*
X380728Y170593D01*
X380826Y170620D01*
X380924Y170644D01*
X381024Y170663D01*
X381124Y170679D01*
X381224Y170691D01*
X381325Y170699D01*
X381426Y170703D01*
X381528Y170703D01*
X381629Y170699D01*
X381730Y170691D01*
X381830Y170679D01*
X381930Y170663D01*
X382030Y170644D01*
X382128Y170620D01*
X382226Y170593D01*
X382322Y170562D01*
X382417Y170528D01*
X382511Y170489D01*
X382603Y170448D01*
X382694Y170402D01*
X382783Y170353D01*
X382869Y170301D01*
X382954Y170245D01*
X383036Y170186D01*
X383116Y170124D01*
X383194Y170059D01*
X383269Y169991D01*
X383341Y169920D01*
X383411Y169847D01*
X383477Y169770D01*
X383541Y169692D01*
X383601Y169610D01*
X383658Y169527D01*
X383712Y169441D01*
X383763Y169353D01*
X383810Y169264D01*
X383854Y169172D01*
X383894Y169079D01*
X383931Y168985D01*
X383963Y168889D01*
X383992Y168792D01*
X384018Y168694D01*
X384039Y168595D01*
X384057Y168495D01*
X384070Y168395D01*
X384080Y168294D01*
X384086Y168193D01*
X384088Y168092D01*
X384086Y167991D01*
X384080Y167890D01*
X384070Y167789D01*
X384057Y167689D01*
X384039Y167589D01*
X384018Y167490D01*
X383992Y167392D01*
X383963Y167295D01*
X383931Y167199D01*
X383894Y167105D01*
X383854Y167012D01*
X383810Y166920D01*
X383763Y166831D01*
X383712Y166743D01*
X383658Y166657D01*
X383601Y166574D01*
X383541Y166492D01*
X383477Y166414D01*
X383411Y166337D01*
X383341Y166264D01*
X383269Y166193D01*
X383194Y166125D01*
X383116Y166060D01*
X383036Y165998D01*
X382954Y165939D01*
X382869Y165883D01*
X382782Y165831D01*
X382694Y165782D01*
X382603Y165736D01*
X382511Y165695D01*
X382417Y165656D01*
X382322Y165622D01*
X382226Y165591D01*
X382128Y165564D01*
X382030Y165540D01*
X381930Y165521D01*
X381830Y165505D01*
X381730Y165493D01*
X381629Y165485D01*
X381528Y165481D01*
X381426Y165481D01*
X381325Y165485D01*
X381224Y165493D01*
X381124Y165505D01*
X381024Y165521D01*
X380924Y165540D01*
X380826Y165564D01*
X380728Y165591D01*
X380632Y165622D01*
X380537Y165656D01*
X380443Y165695D01*
X380351Y165736D01*
X380260Y165782D01*
X380172Y165831D01*
X380085Y165883D01*
X380000Y165939D01*
X379918Y165998D01*
X379838Y166060D01*
X379760Y166125D01*
X379685Y166193D01*
X379613Y166264D01*
X379543Y166337D01*
X379477Y166414D01*
X379413Y166492D01*
X379353Y166574D01*
X379296Y166657D01*
X379242Y166743D01*
X379191Y166831D01*
X379144Y166920D01*
X379100Y167012D01*
X379060Y167105D01*
X379023Y167199D01*
X378991Y167295D01*
X378962Y167392D01*
X378936Y167490D01*
X378915Y167589D01*
X378897Y167689D01*
X378884Y167789D01*
X378874Y167890D01*
X378868Y167991D01*
X378866Y168092D01*
X379389Y172791D02*
X379391Y172881D01*
X379397Y172970D01*
X379406Y173060D01*
X379420Y173149D01*
X379437Y173237D01*
X379458Y173324D01*
X379483Y173411D01*
X379512Y173496D01*
X379544Y173580D01*
X379579Y173662D01*
X379619Y173743D01*
X379661Y173822D01*
X379707Y173899D01*
X379757Y173974D01*
X379809Y174047D01*
X379865Y174118D01*
X379923Y174186D01*
X379985Y174251D01*
X380049Y174314D01*
X380116Y174374D01*
X380185Y174431D01*
X380257Y174485D01*
X380331Y174536D01*
X380407Y174584D01*
X380485Y174628D01*
X380565Y174669D01*
X380647Y174707D01*
X380730Y174741D01*
X380815Y174771D01*
X380901Y174798D01*
X380987Y174821D01*
X381075Y174840D01*
X381164Y174855D01*
X381253Y174867D01*
X381342Y174875D01*
X381432Y174879D01*
X381522Y174879D01*
X381612Y174875D01*
X381701Y174867D01*
X381790Y174855D01*
X381879Y174840D01*
X381967Y174821D01*
X382053Y174798D01*
X382139Y174771D01*
X382224Y174741D01*
X382307Y174707D01*
X382389Y174669D01*
X382469Y174628D01*
X382547Y174584D01*
X382623Y174536D01*
X382697Y174485D01*
X382769Y174431D01*
X382838Y174374D01*
X382905Y174314D01*
X382969Y174251D01*
X383031Y174186D01*
X383089Y174118D01*
X383145Y174047D01*
X383197Y173974D01*
X383247Y173899D01*
X383293Y173822D01*
X383335Y173743D01*
X383375Y173662D01*
X383410Y173580D01*
X383442Y173496D01*
X383471Y173411D01*
X383496Y173324D01*
X383517Y173237D01*
X383534Y173149D01*
X383548Y173060D01*
X383557Y172970D01*
X383563Y172881D01*
X383565Y172791D01*
X383563Y172701D01*
X383557Y172612D01*
X383548Y172522D01*
X383534Y172433D01*
X383517Y172345D01*
X383496Y172258D01*
X383471Y172171D01*
X383442Y172086D01*
X383410Y172002D01*
X383375Y171920D01*
X383335Y171839D01*
X383293Y171760D01*
X383247Y171683D01*
X383197Y171608D01*
X383145Y171535D01*
X383089Y171464D01*
X383031Y171396D01*
X382969Y171331D01*
X382905Y171268D01*
X382838Y171208D01*
X382769Y171151D01*
X382697Y171097D01*
X382623Y171046D01*
X382547Y170998D01*
X382469Y170954D01*
X382389Y170913D01*
X382307Y170875D01*
X382224Y170841D01*
X382139Y170811D01*
X382053Y170784D01*
X381967Y170761D01*
X381879Y170742D01*
X381790Y170727D01*
X381701Y170715D01*
X381612Y170707D01*
X381522Y170703D01*
X381432Y170703D01*
X381342Y170707D01*
X381253Y170715D01*
X381164Y170727D01*
X381075Y170742D01*
X380987Y170761D01*
X380901Y170784D01*
X380815Y170811D01*
X380730Y170841D01*
X380647Y170875D01*
X380565Y170913D01*
X380485Y170954D01*
X380407Y170998D01*
X380331Y171046D01*
X380257Y171097D01*
X380185Y171151D01*
X380116Y171208D01*
X380049Y171268D01*
X379985Y171331D01*
X379923Y171396D01*
X379865Y171464D01*
X379809Y171535D01*
X379757Y171608D01*
X379707Y171683D01*
X379661Y171760D01*
X379619Y171839D01*
X379579Y171920D01*
X379544Y172002D01*
X379512Y172086D01*
X379483Y172171D01*
X379458Y172258D01*
X379437Y172345D01*
X379420Y172433D01*
X379406Y172522D01*
X379397Y172612D01*
X379391Y172701D01*
X379389Y172791D01*
X274701Y185872D02*
X274701Y192659D01*
X274701Y185872D02*
X274703Y185771D01*
X274709Y185670D01*
X274719Y185569D01*
X274732Y185469D01*
X274750Y185369D01*
X274771Y185270D01*
X274797Y185172D01*
X274826Y185075D01*
X274858Y184979D01*
X274895Y184885D01*
X274935Y184792D01*
X274979Y184700D01*
X275026Y184611D01*
X275077Y184523D01*
X275131Y184437D01*
X275188Y184354D01*
X275248Y184272D01*
X275312Y184194D01*
X275378Y184117D01*
X275448Y184044D01*
X275520Y183973D01*
X275595Y183905D01*
X275673Y183840D01*
X275753Y183778D01*
X275835Y183719D01*
X275920Y183663D01*
X276007Y183611D01*
X276095Y183562D01*
X276186Y183516D01*
X276278Y183475D01*
X276372Y183436D01*
X276467Y183402D01*
X276563Y183371D01*
X276661Y183344D01*
X276759Y183320D01*
X276859Y183301D01*
X276959Y183285D01*
X277059Y183273D01*
X277160Y183265D01*
X277261Y183261D01*
X277363Y183261D01*
X277464Y183265D01*
X277565Y183273D01*
X277665Y183285D01*
X277765Y183301D01*
X277865Y183320D01*
X277963Y183344D01*
X278061Y183371D01*
X278157Y183402D01*
X278252Y183436D01*
X278346Y183475D01*
X278438Y183516D01*
X278529Y183562D01*
X278617Y183611D01*
X278704Y183663D01*
X278789Y183719D01*
X278871Y183778D01*
X278951Y183840D01*
X279029Y183905D01*
X279104Y183973D01*
X279176Y184044D01*
X279246Y184117D01*
X279312Y184194D01*
X279376Y184272D01*
X279436Y184354D01*
X279493Y184437D01*
X279547Y184523D01*
X279598Y184611D01*
X279645Y184700D01*
X279689Y184792D01*
X279729Y184885D01*
X279766Y184979D01*
X279798Y185075D01*
X279827Y185172D01*
X279853Y185270D01*
X279874Y185369D01*
X279892Y185469D01*
X279905Y185569D01*
X279915Y185670D01*
X279921Y185771D01*
X279923Y185872D01*
X279922Y185872D02*
X279922Y192659D01*
X284150Y190571D02*
X286760Y192659D01*
X286760Y183261D01*
X284150Y183261D02*
X289371Y183261D01*
X449961Y240482D02*
X449961Y247269D01*
X449961Y240482D02*
X449963Y240381D01*
X449969Y240280D01*
X449979Y240179D01*
X449992Y240079D01*
X450010Y239979D01*
X450031Y239880D01*
X450057Y239782D01*
X450086Y239685D01*
X450118Y239589D01*
X450155Y239495D01*
X450195Y239402D01*
X450239Y239310D01*
X450286Y239221D01*
X450337Y239133D01*
X450391Y239047D01*
X450448Y238964D01*
X450508Y238882D01*
X450572Y238804D01*
X450638Y238727D01*
X450708Y238654D01*
X450780Y238583D01*
X450855Y238515D01*
X450933Y238450D01*
X451013Y238388D01*
X451095Y238329D01*
X451180Y238273D01*
X451267Y238221D01*
X451355Y238172D01*
X451446Y238126D01*
X451538Y238085D01*
X451632Y238046D01*
X451727Y238012D01*
X451823Y237981D01*
X451921Y237954D01*
X452019Y237930D01*
X452119Y237911D01*
X452219Y237895D01*
X452319Y237883D01*
X452420Y237875D01*
X452521Y237871D01*
X452623Y237871D01*
X452724Y237875D01*
X452825Y237883D01*
X452925Y237895D01*
X453025Y237911D01*
X453125Y237930D01*
X453223Y237954D01*
X453321Y237981D01*
X453417Y238012D01*
X453512Y238046D01*
X453606Y238085D01*
X453698Y238126D01*
X453789Y238172D01*
X453877Y238221D01*
X453964Y238273D01*
X454049Y238329D01*
X454131Y238388D01*
X454211Y238450D01*
X454289Y238515D01*
X454364Y238583D01*
X454436Y238654D01*
X454506Y238727D01*
X454572Y238804D01*
X454636Y238882D01*
X454696Y238964D01*
X454753Y239047D01*
X454807Y239133D01*
X454858Y239221D01*
X454905Y239310D01*
X454949Y239402D01*
X454989Y239495D01*
X455026Y239589D01*
X455058Y239685D01*
X455087Y239782D01*
X455113Y239880D01*
X455134Y239979D01*
X455152Y240079D01*
X455165Y240179D01*
X455175Y240280D01*
X455181Y240381D01*
X455183Y240482D01*
X455182Y240482D02*
X455182Y247269D01*
X462281Y247270D02*
X462376Y247268D01*
X462470Y247262D01*
X462564Y247253D01*
X462658Y247240D01*
X462751Y247223D01*
X462843Y247202D01*
X462935Y247177D01*
X463025Y247149D01*
X463114Y247117D01*
X463202Y247082D01*
X463288Y247043D01*
X463373Y247001D01*
X463456Y246955D01*
X463537Y246906D01*
X463616Y246854D01*
X463693Y246799D01*
X463767Y246740D01*
X463839Y246679D01*
X463909Y246615D01*
X463976Y246548D01*
X464040Y246478D01*
X464101Y246406D01*
X464160Y246332D01*
X464215Y246255D01*
X464267Y246176D01*
X464316Y246095D01*
X464362Y246012D01*
X464404Y245927D01*
X464443Y245841D01*
X464478Y245753D01*
X464510Y245664D01*
X464538Y245574D01*
X464563Y245482D01*
X464584Y245390D01*
X464601Y245297D01*
X464614Y245203D01*
X464623Y245109D01*
X464629Y245015D01*
X464631Y244920D01*
X462281Y247269D02*
X462173Y247267D01*
X462064Y247261D01*
X461956Y247251D01*
X461849Y247238D01*
X461742Y247220D01*
X461635Y247199D01*
X461530Y247174D01*
X461425Y247145D01*
X461322Y247113D01*
X461220Y247076D01*
X461119Y247036D01*
X461020Y246993D01*
X460922Y246946D01*
X460826Y246895D01*
X460732Y246841D01*
X460640Y246784D01*
X460550Y246723D01*
X460462Y246659D01*
X460377Y246593D01*
X460294Y246523D01*
X460214Y246450D01*
X460136Y246374D01*
X460061Y246296D01*
X459989Y246215D01*
X459920Y246131D01*
X459854Y246045D01*
X459791Y245957D01*
X459732Y245866D01*
X459675Y245774D01*
X459622Y245679D01*
X459573Y245583D01*
X459527Y245484D01*
X459484Y245385D01*
X459445Y245283D01*
X459410Y245181D01*
X463848Y243092D02*
X463917Y243161D01*
X463983Y243232D01*
X464047Y243305D01*
X464108Y243381D01*
X464166Y243460D01*
X464220Y243540D01*
X464272Y243623D01*
X464320Y243707D01*
X464366Y243793D01*
X464407Y243881D01*
X464446Y243971D01*
X464481Y244062D01*
X464512Y244154D01*
X464540Y244247D01*
X464564Y244341D01*
X464584Y244436D01*
X464601Y244532D01*
X464614Y244629D01*
X464623Y244726D01*
X464629Y244823D01*
X464631Y244920D01*
X463848Y243092D02*
X459410Y237871D01*
X464631Y237871D01*
D11*
X137160Y162560D02*
X124460Y162560D01*
X137160Y162560D02*
X143510Y156210D01*
X143510Y143510D01*
X137160Y137160D01*
X118110Y143510D02*
X118110Y156210D01*
X124460Y162560D01*
X118110Y143510D02*
X124460Y137160D01*
X137160Y137160D01*
D12*
X122174Y161798D02*
X122174Y168910D01*
X122174Y161798D02*
X122172Y161709D01*
X122166Y161621D01*
X122157Y161533D01*
X122143Y161445D01*
X122126Y161358D01*
X122105Y161272D01*
X122080Y161187D01*
X122051Y161103D01*
X122019Y161020D01*
X121984Y160939D01*
X121944Y160860D01*
X121902Y160782D01*
X121856Y160706D01*
X121807Y160632D01*
X121754Y160561D01*
X121699Y160492D01*
X121640Y160425D01*
X121579Y160361D01*
X121515Y160300D01*
X121448Y160241D01*
X121379Y160186D01*
X121308Y160133D01*
X121234Y160084D01*
X121158Y160038D01*
X121080Y159996D01*
X121001Y159956D01*
X120920Y159921D01*
X120837Y159889D01*
X120753Y159860D01*
X120668Y159835D01*
X120582Y159814D01*
X120495Y159797D01*
X120407Y159783D01*
X120319Y159774D01*
X120231Y159768D01*
X120142Y159766D01*
X119126Y159766D01*
X126958Y159766D02*
X126958Y168910D01*
X129498Y168910D01*
X129598Y168908D01*
X129697Y168902D01*
X129797Y168892D01*
X129895Y168879D01*
X129994Y168861D01*
X130091Y168840D01*
X130187Y168815D01*
X130283Y168786D01*
X130377Y168753D01*
X130470Y168717D01*
X130561Y168677D01*
X130651Y168633D01*
X130739Y168586D01*
X130825Y168536D01*
X130909Y168482D01*
X130991Y168425D01*
X131070Y168365D01*
X131148Y168301D01*
X131222Y168235D01*
X131294Y168166D01*
X131363Y168094D01*
X131429Y168020D01*
X131493Y167942D01*
X131553Y167863D01*
X131610Y167781D01*
X131664Y167697D01*
X131714Y167611D01*
X131761Y167523D01*
X131805Y167433D01*
X131845Y167342D01*
X131881Y167249D01*
X131914Y167155D01*
X131943Y167059D01*
X131968Y166963D01*
X131989Y166866D01*
X132007Y166767D01*
X132020Y166669D01*
X132030Y166569D01*
X132036Y166470D01*
X132038Y166370D01*
X132036Y166270D01*
X132030Y166171D01*
X132020Y166071D01*
X132007Y165973D01*
X131989Y165874D01*
X131968Y165777D01*
X131943Y165681D01*
X131914Y165585D01*
X131881Y165491D01*
X131845Y165398D01*
X131805Y165307D01*
X131761Y165217D01*
X131714Y165129D01*
X131664Y165043D01*
X131610Y164959D01*
X131553Y164877D01*
X131493Y164798D01*
X131429Y164720D01*
X131363Y164646D01*
X131294Y164574D01*
X131222Y164505D01*
X131148Y164439D01*
X131070Y164375D01*
X130991Y164315D01*
X130909Y164258D01*
X130825Y164204D01*
X130739Y164154D01*
X130651Y164107D01*
X130561Y164063D01*
X130470Y164023D01*
X130377Y163987D01*
X130283Y163954D01*
X130187Y163925D01*
X130091Y163900D01*
X129994Y163879D01*
X129895Y163861D01*
X129797Y163848D01*
X129697Y163838D01*
X129598Y163832D01*
X129498Y163830D01*
X126958Y163830D01*
X135645Y166878D02*
X138185Y168910D01*
X138185Y159766D01*
X135645Y159766D02*
X140725Y159766D01*
D10*
X157777Y256921D02*
X157777Y266319D01*
X160388Y266319D01*
X160489Y266317D01*
X160590Y266311D01*
X160691Y266301D01*
X160791Y266288D01*
X160891Y266270D01*
X160990Y266249D01*
X161088Y266223D01*
X161185Y266194D01*
X161281Y266162D01*
X161375Y266125D01*
X161468Y266085D01*
X161560Y266041D01*
X161649Y265994D01*
X161737Y265943D01*
X161823Y265889D01*
X161906Y265832D01*
X161988Y265772D01*
X162066Y265708D01*
X162143Y265642D01*
X162216Y265572D01*
X162287Y265500D01*
X162355Y265425D01*
X162420Y265347D01*
X162482Y265267D01*
X162541Y265185D01*
X162597Y265100D01*
X162649Y265013D01*
X162698Y264925D01*
X162744Y264834D01*
X162785Y264742D01*
X162824Y264648D01*
X162858Y264553D01*
X162889Y264457D01*
X162916Y264359D01*
X162940Y264261D01*
X162959Y264161D01*
X162975Y264061D01*
X162987Y263961D01*
X162995Y263860D01*
X162999Y263759D01*
X162999Y263657D01*
X162995Y263556D01*
X162987Y263455D01*
X162975Y263355D01*
X162959Y263255D01*
X162940Y263155D01*
X162916Y263057D01*
X162889Y262959D01*
X162858Y262863D01*
X162824Y262768D01*
X162785Y262674D01*
X162744Y262582D01*
X162698Y262491D01*
X162649Y262403D01*
X162597Y262316D01*
X162541Y262231D01*
X162482Y262149D01*
X162420Y262069D01*
X162355Y261991D01*
X162287Y261916D01*
X162216Y261844D01*
X162143Y261774D01*
X162066Y261708D01*
X161988Y261644D01*
X161906Y261584D01*
X161823Y261527D01*
X161737Y261473D01*
X161649Y261422D01*
X161560Y261375D01*
X161468Y261331D01*
X161375Y261291D01*
X161281Y261254D01*
X161185Y261222D01*
X161088Y261193D01*
X160990Y261167D01*
X160891Y261146D01*
X160791Y261128D01*
X160691Y261115D01*
X160590Y261105D01*
X160489Y261099D01*
X160388Y261097D01*
X160388Y261098D02*
X157777Y261098D01*
X160910Y261098D02*
X162998Y256921D01*
X166864Y264231D02*
X169474Y266319D01*
X169474Y256921D01*
X166864Y256921D02*
X172085Y256921D01*
X176008Y256921D02*
X178618Y256921D01*
X178719Y256923D01*
X178820Y256929D01*
X178921Y256939D01*
X179021Y256952D01*
X179121Y256970D01*
X179220Y256991D01*
X179318Y257017D01*
X179415Y257046D01*
X179511Y257078D01*
X179605Y257115D01*
X179698Y257155D01*
X179790Y257199D01*
X179879Y257246D01*
X179967Y257297D01*
X180053Y257351D01*
X180136Y257408D01*
X180218Y257468D01*
X180296Y257532D01*
X180373Y257598D01*
X180446Y257668D01*
X180517Y257740D01*
X180585Y257815D01*
X180650Y257893D01*
X180712Y257973D01*
X180771Y258055D01*
X180827Y258140D01*
X180879Y258226D01*
X180928Y258315D01*
X180974Y258406D01*
X181015Y258498D01*
X181054Y258592D01*
X181088Y258687D01*
X181119Y258783D01*
X181146Y258881D01*
X181170Y258979D01*
X181189Y259079D01*
X181205Y259179D01*
X181217Y259279D01*
X181225Y259380D01*
X181229Y259481D01*
X181229Y259583D01*
X181225Y259684D01*
X181217Y259785D01*
X181205Y259885D01*
X181189Y259985D01*
X181170Y260085D01*
X181146Y260183D01*
X181119Y260281D01*
X181088Y260377D01*
X181054Y260472D01*
X181015Y260566D01*
X180974Y260658D01*
X180928Y260749D01*
X180879Y260837D01*
X180827Y260924D01*
X180771Y261009D01*
X180712Y261091D01*
X180650Y261171D01*
X180585Y261249D01*
X180517Y261324D01*
X180446Y261396D01*
X180373Y261466D01*
X180296Y261532D01*
X180218Y261596D01*
X180136Y261656D01*
X180053Y261713D01*
X179967Y261767D01*
X179879Y261818D01*
X179790Y261865D01*
X179698Y261909D01*
X179605Y261949D01*
X179511Y261986D01*
X179415Y262018D01*
X179318Y262047D01*
X179220Y262073D01*
X179121Y262094D01*
X179021Y262112D01*
X178921Y262125D01*
X178820Y262135D01*
X178719Y262141D01*
X178618Y262143D01*
X179141Y266319D02*
X176008Y266319D01*
X179141Y266319D02*
X179231Y266317D01*
X179320Y266311D01*
X179410Y266302D01*
X179499Y266288D01*
X179587Y266271D01*
X179674Y266250D01*
X179761Y266225D01*
X179846Y266196D01*
X179930Y266164D01*
X180012Y266129D01*
X180093Y266089D01*
X180172Y266047D01*
X180249Y266001D01*
X180324Y265951D01*
X180397Y265899D01*
X180468Y265843D01*
X180536Y265785D01*
X180601Y265723D01*
X180664Y265659D01*
X180724Y265592D01*
X180781Y265523D01*
X180835Y265451D01*
X180886Y265377D01*
X180934Y265301D01*
X180978Y265223D01*
X181019Y265143D01*
X181057Y265061D01*
X181091Y264978D01*
X181121Y264893D01*
X181148Y264807D01*
X181171Y264721D01*
X181190Y264633D01*
X181205Y264544D01*
X181217Y264455D01*
X181225Y264366D01*
X181229Y264276D01*
X181229Y264186D01*
X181225Y264096D01*
X181217Y264007D01*
X181205Y263918D01*
X181190Y263829D01*
X181171Y263741D01*
X181148Y263655D01*
X181121Y263569D01*
X181091Y263484D01*
X181057Y263401D01*
X181019Y263319D01*
X180978Y263239D01*
X180934Y263161D01*
X180886Y263085D01*
X180835Y263011D01*
X180781Y262939D01*
X180724Y262870D01*
X180664Y262803D01*
X180601Y262739D01*
X180536Y262677D01*
X180468Y262619D01*
X180397Y262563D01*
X180324Y262511D01*
X180249Y262461D01*
X180172Y262415D01*
X180093Y262373D01*
X180012Y262333D01*
X179930Y262298D01*
X179846Y262266D01*
X179761Y262237D01*
X179674Y262212D01*
X179587Y262191D01*
X179499Y262174D01*
X179410Y262160D01*
X179320Y262151D01*
X179231Y262145D01*
X179141Y262143D01*
X179141Y262142D02*
X177052Y262142D01*
X146431Y223139D02*
X146431Y213741D01*
X146431Y223139D02*
X149042Y223139D01*
X149143Y223137D01*
X149244Y223131D01*
X149345Y223121D01*
X149445Y223108D01*
X149545Y223090D01*
X149644Y223069D01*
X149742Y223043D01*
X149839Y223014D01*
X149935Y222982D01*
X150029Y222945D01*
X150122Y222905D01*
X150214Y222861D01*
X150303Y222814D01*
X150391Y222763D01*
X150477Y222709D01*
X150560Y222652D01*
X150642Y222592D01*
X150720Y222528D01*
X150797Y222462D01*
X150870Y222392D01*
X150941Y222320D01*
X151009Y222245D01*
X151074Y222167D01*
X151136Y222087D01*
X151195Y222005D01*
X151251Y221920D01*
X151303Y221833D01*
X151352Y221745D01*
X151398Y221654D01*
X151439Y221562D01*
X151478Y221468D01*
X151512Y221373D01*
X151543Y221277D01*
X151570Y221179D01*
X151594Y221081D01*
X151613Y220981D01*
X151629Y220881D01*
X151641Y220781D01*
X151649Y220680D01*
X151653Y220579D01*
X151653Y220477D01*
X151649Y220376D01*
X151641Y220275D01*
X151629Y220175D01*
X151613Y220075D01*
X151594Y219975D01*
X151570Y219877D01*
X151543Y219779D01*
X151512Y219683D01*
X151478Y219588D01*
X151439Y219494D01*
X151398Y219402D01*
X151352Y219311D01*
X151303Y219222D01*
X151251Y219136D01*
X151195Y219051D01*
X151136Y218969D01*
X151074Y218889D01*
X151009Y218811D01*
X150941Y218736D01*
X150870Y218664D01*
X150797Y218594D01*
X150720Y218528D01*
X150642Y218464D01*
X150560Y218404D01*
X150477Y218347D01*
X150391Y218293D01*
X150303Y218242D01*
X150214Y218195D01*
X150122Y218151D01*
X150029Y218111D01*
X149935Y218074D01*
X149839Y218042D01*
X149742Y218013D01*
X149644Y217987D01*
X149545Y217966D01*
X149445Y217948D01*
X149345Y217935D01*
X149244Y217925D01*
X149143Y217919D01*
X149042Y217917D01*
X149042Y217918D02*
X146431Y217918D01*
X149564Y217918D02*
X151652Y213741D01*
X155518Y213741D02*
X158128Y213741D01*
X158229Y213743D01*
X158330Y213749D01*
X158431Y213759D01*
X158531Y213772D01*
X158631Y213790D01*
X158730Y213811D01*
X158828Y213837D01*
X158925Y213866D01*
X159021Y213898D01*
X159115Y213935D01*
X159208Y213975D01*
X159300Y214019D01*
X159389Y214066D01*
X159477Y214117D01*
X159563Y214171D01*
X159646Y214228D01*
X159728Y214288D01*
X159806Y214352D01*
X159883Y214418D01*
X159956Y214488D01*
X160027Y214560D01*
X160095Y214635D01*
X160160Y214713D01*
X160222Y214793D01*
X160281Y214875D01*
X160337Y214960D01*
X160389Y215046D01*
X160438Y215135D01*
X160484Y215226D01*
X160525Y215318D01*
X160564Y215412D01*
X160598Y215507D01*
X160629Y215603D01*
X160656Y215701D01*
X160680Y215799D01*
X160699Y215899D01*
X160715Y215999D01*
X160727Y216099D01*
X160735Y216200D01*
X160739Y216301D01*
X160739Y216403D01*
X160735Y216504D01*
X160727Y216605D01*
X160715Y216705D01*
X160699Y216805D01*
X160680Y216905D01*
X160656Y217003D01*
X160629Y217101D01*
X160598Y217197D01*
X160564Y217292D01*
X160525Y217386D01*
X160484Y217478D01*
X160438Y217569D01*
X160389Y217657D01*
X160337Y217744D01*
X160281Y217829D01*
X160222Y217911D01*
X160160Y217991D01*
X160095Y218069D01*
X160027Y218144D01*
X159956Y218216D01*
X159883Y218286D01*
X159806Y218352D01*
X159728Y218416D01*
X159646Y218476D01*
X159563Y218533D01*
X159477Y218587D01*
X159389Y218638D01*
X159300Y218685D01*
X159208Y218729D01*
X159115Y218769D01*
X159021Y218806D01*
X158925Y218838D01*
X158828Y218867D01*
X158730Y218893D01*
X158631Y218914D01*
X158531Y218932D01*
X158431Y218945D01*
X158330Y218955D01*
X158229Y218961D01*
X158128Y218963D01*
X158651Y223139D02*
X155518Y223139D01*
X158651Y223139D02*
X158741Y223137D01*
X158830Y223131D01*
X158920Y223122D01*
X159009Y223108D01*
X159097Y223091D01*
X159184Y223070D01*
X159271Y223045D01*
X159356Y223016D01*
X159440Y222984D01*
X159522Y222949D01*
X159603Y222909D01*
X159682Y222867D01*
X159759Y222821D01*
X159834Y222771D01*
X159907Y222719D01*
X159978Y222663D01*
X160046Y222605D01*
X160111Y222543D01*
X160174Y222479D01*
X160234Y222412D01*
X160291Y222343D01*
X160345Y222271D01*
X160396Y222197D01*
X160444Y222121D01*
X160488Y222043D01*
X160529Y221963D01*
X160567Y221881D01*
X160601Y221798D01*
X160631Y221713D01*
X160658Y221627D01*
X160681Y221541D01*
X160700Y221453D01*
X160715Y221364D01*
X160727Y221275D01*
X160735Y221186D01*
X160739Y221096D01*
X160739Y221006D01*
X160735Y220916D01*
X160727Y220827D01*
X160715Y220738D01*
X160700Y220649D01*
X160681Y220561D01*
X160658Y220475D01*
X160631Y220389D01*
X160601Y220304D01*
X160567Y220221D01*
X160529Y220139D01*
X160488Y220059D01*
X160444Y219981D01*
X160396Y219905D01*
X160345Y219831D01*
X160291Y219759D01*
X160234Y219690D01*
X160174Y219623D01*
X160111Y219559D01*
X160046Y219497D01*
X159978Y219439D01*
X159907Y219383D01*
X159834Y219331D01*
X159759Y219281D01*
X159682Y219235D01*
X159603Y219193D01*
X159522Y219153D01*
X159440Y219118D01*
X159356Y219086D01*
X159271Y219057D01*
X159184Y219032D01*
X159097Y219011D01*
X159009Y218994D01*
X158920Y218980D01*
X158830Y218971D01*
X158741Y218965D01*
X158651Y218963D01*
X158651Y218962D02*
X156562Y218962D01*
X397891Y134239D02*
X397891Y124841D01*
X397891Y134239D02*
X400502Y134239D01*
X400603Y134237D01*
X400704Y134231D01*
X400805Y134221D01*
X400905Y134208D01*
X401005Y134190D01*
X401104Y134169D01*
X401202Y134143D01*
X401299Y134114D01*
X401395Y134082D01*
X401489Y134045D01*
X401582Y134005D01*
X401674Y133961D01*
X401763Y133914D01*
X401851Y133863D01*
X401937Y133809D01*
X402020Y133752D01*
X402102Y133692D01*
X402180Y133628D01*
X402257Y133562D01*
X402330Y133492D01*
X402401Y133420D01*
X402469Y133345D01*
X402534Y133267D01*
X402596Y133187D01*
X402655Y133105D01*
X402711Y133020D01*
X402763Y132933D01*
X402812Y132845D01*
X402858Y132754D01*
X402899Y132662D01*
X402938Y132568D01*
X402972Y132473D01*
X403003Y132377D01*
X403030Y132279D01*
X403054Y132181D01*
X403073Y132081D01*
X403089Y131981D01*
X403101Y131881D01*
X403109Y131780D01*
X403113Y131679D01*
X403113Y131577D01*
X403109Y131476D01*
X403101Y131375D01*
X403089Y131275D01*
X403073Y131175D01*
X403054Y131075D01*
X403030Y130977D01*
X403003Y130879D01*
X402972Y130783D01*
X402938Y130688D01*
X402899Y130594D01*
X402858Y130502D01*
X402812Y130411D01*
X402763Y130322D01*
X402711Y130236D01*
X402655Y130151D01*
X402596Y130069D01*
X402534Y129989D01*
X402469Y129911D01*
X402401Y129836D01*
X402330Y129764D01*
X402257Y129694D01*
X402180Y129628D01*
X402102Y129564D01*
X402020Y129504D01*
X401937Y129447D01*
X401851Y129393D01*
X401763Y129342D01*
X401674Y129295D01*
X401582Y129251D01*
X401489Y129211D01*
X401395Y129174D01*
X401299Y129142D01*
X401202Y129113D01*
X401104Y129087D01*
X401005Y129066D01*
X400905Y129048D01*
X400805Y129035D01*
X400704Y129025D01*
X400603Y129019D01*
X400502Y129017D01*
X400502Y129018D02*
X397891Y129018D01*
X401024Y129018D02*
X403112Y124841D01*
X406978Y132151D02*
X409588Y134239D01*
X409588Y124841D01*
X406978Y124841D02*
X412199Y124841D01*
X416122Y133195D02*
X416122Y134239D01*
X421343Y134239D01*
X418732Y124841D01*
X385191Y58039D02*
X385191Y48641D01*
X385191Y58039D02*
X387802Y58039D01*
X387903Y58037D01*
X388004Y58031D01*
X388105Y58021D01*
X388205Y58008D01*
X388305Y57990D01*
X388404Y57969D01*
X388502Y57943D01*
X388599Y57914D01*
X388695Y57882D01*
X388789Y57845D01*
X388882Y57805D01*
X388974Y57761D01*
X389063Y57714D01*
X389151Y57663D01*
X389237Y57609D01*
X389320Y57552D01*
X389402Y57492D01*
X389480Y57428D01*
X389557Y57362D01*
X389630Y57292D01*
X389701Y57220D01*
X389769Y57145D01*
X389834Y57067D01*
X389896Y56987D01*
X389955Y56905D01*
X390011Y56820D01*
X390063Y56733D01*
X390112Y56645D01*
X390158Y56554D01*
X390199Y56462D01*
X390238Y56368D01*
X390272Y56273D01*
X390303Y56177D01*
X390330Y56079D01*
X390354Y55981D01*
X390373Y55881D01*
X390389Y55781D01*
X390401Y55681D01*
X390409Y55580D01*
X390413Y55479D01*
X390413Y55377D01*
X390409Y55276D01*
X390401Y55175D01*
X390389Y55075D01*
X390373Y54975D01*
X390354Y54875D01*
X390330Y54777D01*
X390303Y54679D01*
X390272Y54583D01*
X390238Y54488D01*
X390199Y54394D01*
X390158Y54302D01*
X390112Y54211D01*
X390063Y54122D01*
X390011Y54036D01*
X389955Y53951D01*
X389896Y53869D01*
X389834Y53789D01*
X389769Y53711D01*
X389701Y53636D01*
X389630Y53564D01*
X389557Y53494D01*
X389480Y53428D01*
X389402Y53364D01*
X389320Y53304D01*
X389237Y53247D01*
X389151Y53193D01*
X389063Y53142D01*
X388974Y53095D01*
X388882Y53051D01*
X388789Y53011D01*
X388695Y52974D01*
X388599Y52942D01*
X388502Y52913D01*
X388404Y52887D01*
X388305Y52866D01*
X388205Y52848D01*
X388105Y52835D01*
X388004Y52825D01*
X387903Y52819D01*
X387802Y52817D01*
X387802Y52818D02*
X385191Y52818D01*
X388324Y52818D02*
X390412Y48641D01*
X394278Y55951D02*
X396888Y58039D01*
X396888Y48641D01*
X394278Y48641D02*
X399499Y48641D01*
X403421Y51252D02*
X403423Y51353D01*
X403429Y51454D01*
X403439Y51555D01*
X403452Y51655D01*
X403470Y51755D01*
X403491Y51854D01*
X403517Y51952D01*
X403546Y52049D01*
X403578Y52145D01*
X403615Y52239D01*
X403655Y52332D01*
X403699Y52424D01*
X403746Y52513D01*
X403797Y52601D01*
X403851Y52687D01*
X403908Y52770D01*
X403968Y52852D01*
X404032Y52930D01*
X404098Y53007D01*
X404168Y53080D01*
X404240Y53151D01*
X404315Y53219D01*
X404393Y53284D01*
X404473Y53346D01*
X404555Y53405D01*
X404640Y53461D01*
X404727Y53513D01*
X404815Y53562D01*
X404906Y53608D01*
X404998Y53649D01*
X405092Y53688D01*
X405187Y53722D01*
X405283Y53753D01*
X405381Y53780D01*
X405479Y53804D01*
X405579Y53823D01*
X405679Y53839D01*
X405779Y53851D01*
X405880Y53859D01*
X405981Y53863D01*
X406083Y53863D01*
X406184Y53859D01*
X406285Y53851D01*
X406385Y53839D01*
X406485Y53823D01*
X406585Y53804D01*
X406683Y53780D01*
X406781Y53753D01*
X406877Y53722D01*
X406972Y53688D01*
X407066Y53649D01*
X407158Y53608D01*
X407249Y53562D01*
X407338Y53513D01*
X407424Y53461D01*
X407509Y53405D01*
X407591Y53346D01*
X407671Y53284D01*
X407749Y53219D01*
X407824Y53151D01*
X407896Y53080D01*
X407966Y53007D01*
X408032Y52930D01*
X408096Y52852D01*
X408156Y52770D01*
X408213Y52687D01*
X408267Y52601D01*
X408318Y52513D01*
X408365Y52424D01*
X408409Y52332D01*
X408449Y52239D01*
X408486Y52145D01*
X408518Y52049D01*
X408547Y51952D01*
X408573Y51854D01*
X408594Y51755D01*
X408612Y51655D01*
X408625Y51555D01*
X408635Y51454D01*
X408641Y51353D01*
X408643Y51252D01*
X408641Y51151D01*
X408635Y51050D01*
X408625Y50949D01*
X408612Y50849D01*
X408594Y50749D01*
X408573Y50650D01*
X408547Y50552D01*
X408518Y50455D01*
X408486Y50359D01*
X408449Y50265D01*
X408409Y50172D01*
X408365Y50080D01*
X408318Y49991D01*
X408267Y49903D01*
X408213Y49817D01*
X408156Y49734D01*
X408096Y49652D01*
X408032Y49574D01*
X407966Y49497D01*
X407896Y49424D01*
X407824Y49353D01*
X407749Y49285D01*
X407671Y49220D01*
X407591Y49158D01*
X407509Y49099D01*
X407424Y49043D01*
X407337Y48991D01*
X407249Y48942D01*
X407158Y48896D01*
X407066Y48855D01*
X406972Y48816D01*
X406877Y48782D01*
X406781Y48751D01*
X406683Y48724D01*
X406585Y48700D01*
X406485Y48681D01*
X406385Y48665D01*
X406285Y48653D01*
X406184Y48645D01*
X406083Y48641D01*
X405981Y48641D01*
X405880Y48645D01*
X405779Y48653D01*
X405679Y48665D01*
X405579Y48681D01*
X405479Y48700D01*
X405381Y48724D01*
X405283Y48751D01*
X405187Y48782D01*
X405092Y48816D01*
X404998Y48855D01*
X404906Y48896D01*
X404815Y48942D01*
X404727Y48991D01*
X404640Y49043D01*
X404555Y49099D01*
X404473Y49158D01*
X404393Y49220D01*
X404315Y49285D01*
X404240Y49353D01*
X404168Y49424D01*
X404098Y49497D01*
X404032Y49574D01*
X403968Y49652D01*
X403908Y49734D01*
X403851Y49817D01*
X403797Y49903D01*
X403746Y49991D01*
X403699Y50080D01*
X403655Y50172D01*
X403615Y50265D01*
X403578Y50359D01*
X403546Y50455D01*
X403517Y50552D01*
X403491Y50650D01*
X403470Y50749D01*
X403452Y50849D01*
X403439Y50949D01*
X403429Y51050D01*
X403423Y51151D01*
X403421Y51252D01*
X403944Y55951D02*
X403946Y56041D01*
X403952Y56130D01*
X403961Y56220D01*
X403975Y56309D01*
X403992Y56397D01*
X404013Y56484D01*
X404038Y56571D01*
X404067Y56656D01*
X404099Y56740D01*
X404134Y56822D01*
X404174Y56903D01*
X404216Y56982D01*
X404262Y57059D01*
X404312Y57134D01*
X404364Y57207D01*
X404420Y57278D01*
X404478Y57346D01*
X404540Y57411D01*
X404604Y57474D01*
X404671Y57534D01*
X404740Y57591D01*
X404812Y57645D01*
X404886Y57696D01*
X404962Y57744D01*
X405040Y57788D01*
X405120Y57829D01*
X405202Y57867D01*
X405285Y57901D01*
X405370Y57931D01*
X405456Y57958D01*
X405542Y57981D01*
X405630Y58000D01*
X405719Y58015D01*
X405808Y58027D01*
X405897Y58035D01*
X405987Y58039D01*
X406077Y58039D01*
X406167Y58035D01*
X406256Y58027D01*
X406345Y58015D01*
X406434Y58000D01*
X406522Y57981D01*
X406608Y57958D01*
X406694Y57931D01*
X406779Y57901D01*
X406862Y57867D01*
X406944Y57829D01*
X407024Y57788D01*
X407102Y57744D01*
X407178Y57696D01*
X407252Y57645D01*
X407324Y57591D01*
X407393Y57534D01*
X407460Y57474D01*
X407524Y57411D01*
X407586Y57346D01*
X407644Y57278D01*
X407700Y57207D01*
X407752Y57134D01*
X407802Y57059D01*
X407848Y56982D01*
X407890Y56903D01*
X407930Y56822D01*
X407965Y56740D01*
X407997Y56656D01*
X408026Y56571D01*
X408051Y56484D01*
X408072Y56397D01*
X408089Y56309D01*
X408103Y56220D01*
X408112Y56130D01*
X408118Y56041D01*
X408120Y55951D01*
X408118Y55861D01*
X408112Y55772D01*
X408103Y55682D01*
X408089Y55593D01*
X408072Y55505D01*
X408051Y55418D01*
X408026Y55331D01*
X407997Y55246D01*
X407965Y55162D01*
X407930Y55080D01*
X407890Y54999D01*
X407848Y54920D01*
X407802Y54843D01*
X407752Y54768D01*
X407700Y54695D01*
X407644Y54624D01*
X407586Y54556D01*
X407524Y54491D01*
X407460Y54428D01*
X407393Y54368D01*
X407324Y54311D01*
X407252Y54257D01*
X407178Y54206D01*
X407102Y54158D01*
X407024Y54114D01*
X406944Y54073D01*
X406862Y54035D01*
X406779Y54001D01*
X406694Y53971D01*
X406608Y53944D01*
X406522Y53921D01*
X406434Y53902D01*
X406345Y53887D01*
X406256Y53875D01*
X406167Y53867D01*
X406077Y53863D01*
X405987Y53863D01*
X405897Y53867D01*
X405808Y53875D01*
X405719Y53887D01*
X405630Y53902D01*
X405542Y53921D01*
X405456Y53944D01*
X405370Y53971D01*
X405285Y54001D01*
X405202Y54035D01*
X405120Y54073D01*
X405040Y54114D01*
X404962Y54158D01*
X404886Y54206D01*
X404812Y54257D01*
X404740Y54311D01*
X404671Y54368D01*
X404604Y54428D01*
X404540Y54491D01*
X404478Y54556D01*
X404420Y54624D01*
X404364Y54695D01*
X404312Y54768D01*
X404262Y54843D01*
X404216Y54920D01*
X404174Y54999D01*
X404134Y55080D01*
X404099Y55162D01*
X404067Y55246D01*
X404038Y55331D01*
X404013Y55418D01*
X403992Y55505D01*
X403975Y55593D01*
X403961Y55682D01*
X403952Y55772D01*
X403946Y55861D01*
X403944Y55951D01*
D13*
X278850Y208830D02*
X278850Y236305D01*
X278850Y208830D02*
X270425Y208830D01*
X241850Y208830D02*
X241850Y236305D01*
X241850Y208830D02*
X250275Y208830D01*
X254550Y245830D02*
X266150Y245830D01*
D10*
X252476Y249936D02*
X252476Y259334D01*
X255087Y259334D01*
X255188Y259332D01*
X255289Y259326D01*
X255390Y259316D01*
X255490Y259303D01*
X255590Y259285D01*
X255689Y259264D01*
X255787Y259238D01*
X255884Y259209D01*
X255980Y259177D01*
X256074Y259140D01*
X256167Y259100D01*
X256259Y259056D01*
X256348Y259009D01*
X256436Y258958D01*
X256522Y258904D01*
X256605Y258847D01*
X256687Y258787D01*
X256765Y258723D01*
X256842Y258657D01*
X256915Y258587D01*
X256986Y258515D01*
X257054Y258440D01*
X257119Y258362D01*
X257181Y258282D01*
X257240Y258200D01*
X257296Y258115D01*
X257348Y258028D01*
X257397Y257940D01*
X257443Y257849D01*
X257484Y257757D01*
X257523Y257663D01*
X257557Y257568D01*
X257588Y257472D01*
X257615Y257374D01*
X257639Y257276D01*
X257658Y257176D01*
X257674Y257076D01*
X257686Y256976D01*
X257694Y256875D01*
X257698Y256774D01*
X257698Y256672D01*
X257694Y256571D01*
X257686Y256470D01*
X257674Y256370D01*
X257658Y256270D01*
X257639Y256170D01*
X257615Y256072D01*
X257588Y255974D01*
X257557Y255878D01*
X257523Y255783D01*
X257484Y255689D01*
X257443Y255597D01*
X257397Y255506D01*
X257348Y255417D01*
X257296Y255331D01*
X257240Y255246D01*
X257181Y255164D01*
X257119Y255084D01*
X257054Y255006D01*
X256986Y254931D01*
X256915Y254859D01*
X256842Y254789D01*
X256765Y254723D01*
X256687Y254659D01*
X256605Y254599D01*
X256522Y254542D01*
X256436Y254488D01*
X256348Y254437D01*
X256259Y254390D01*
X256167Y254346D01*
X256074Y254306D01*
X255980Y254269D01*
X255884Y254237D01*
X255787Y254208D01*
X255689Y254182D01*
X255590Y254161D01*
X255490Y254143D01*
X255390Y254130D01*
X255289Y254120D01*
X255188Y254114D01*
X255087Y254112D01*
X255087Y254113D02*
X252476Y254113D01*
X255609Y254113D02*
X257697Y249936D01*
X261562Y252547D02*
X261564Y252648D01*
X261570Y252749D01*
X261580Y252850D01*
X261593Y252950D01*
X261611Y253050D01*
X261632Y253149D01*
X261658Y253247D01*
X261687Y253344D01*
X261719Y253440D01*
X261756Y253534D01*
X261796Y253627D01*
X261840Y253719D01*
X261887Y253808D01*
X261938Y253896D01*
X261992Y253982D01*
X262049Y254065D01*
X262109Y254147D01*
X262173Y254225D01*
X262239Y254302D01*
X262309Y254375D01*
X262381Y254446D01*
X262456Y254514D01*
X262534Y254579D01*
X262614Y254641D01*
X262696Y254700D01*
X262781Y254756D01*
X262868Y254808D01*
X262956Y254857D01*
X263047Y254903D01*
X263139Y254944D01*
X263233Y254983D01*
X263328Y255017D01*
X263424Y255048D01*
X263522Y255075D01*
X263620Y255099D01*
X263720Y255118D01*
X263820Y255134D01*
X263920Y255146D01*
X264021Y255154D01*
X264122Y255158D01*
X264224Y255158D01*
X264325Y255154D01*
X264426Y255146D01*
X264526Y255134D01*
X264626Y255118D01*
X264726Y255099D01*
X264824Y255075D01*
X264922Y255048D01*
X265018Y255017D01*
X265113Y254983D01*
X265207Y254944D01*
X265299Y254903D01*
X265390Y254857D01*
X265479Y254808D01*
X265565Y254756D01*
X265650Y254700D01*
X265732Y254641D01*
X265812Y254579D01*
X265890Y254514D01*
X265965Y254446D01*
X266037Y254375D01*
X266107Y254302D01*
X266173Y254225D01*
X266237Y254147D01*
X266297Y254065D01*
X266354Y253982D01*
X266408Y253896D01*
X266459Y253808D01*
X266506Y253719D01*
X266550Y253627D01*
X266590Y253534D01*
X266627Y253440D01*
X266659Y253344D01*
X266688Y253247D01*
X266714Y253149D01*
X266735Y253050D01*
X266753Y252950D01*
X266766Y252850D01*
X266776Y252749D01*
X266782Y252648D01*
X266784Y252547D01*
X266782Y252446D01*
X266776Y252345D01*
X266766Y252244D01*
X266753Y252144D01*
X266735Y252044D01*
X266714Y251945D01*
X266688Y251847D01*
X266659Y251750D01*
X266627Y251654D01*
X266590Y251560D01*
X266550Y251467D01*
X266506Y251375D01*
X266459Y251286D01*
X266408Y251198D01*
X266354Y251112D01*
X266297Y251029D01*
X266237Y250947D01*
X266173Y250869D01*
X266107Y250792D01*
X266037Y250719D01*
X265965Y250648D01*
X265890Y250580D01*
X265812Y250515D01*
X265732Y250453D01*
X265650Y250394D01*
X265565Y250338D01*
X265478Y250286D01*
X265390Y250237D01*
X265299Y250191D01*
X265207Y250150D01*
X265113Y250111D01*
X265018Y250077D01*
X264922Y250046D01*
X264824Y250019D01*
X264726Y249995D01*
X264626Y249976D01*
X264526Y249960D01*
X264426Y249948D01*
X264325Y249940D01*
X264224Y249936D01*
X264122Y249936D01*
X264021Y249940D01*
X263920Y249948D01*
X263820Y249960D01*
X263720Y249976D01*
X263620Y249995D01*
X263522Y250019D01*
X263424Y250046D01*
X263328Y250077D01*
X263233Y250111D01*
X263139Y250150D01*
X263047Y250191D01*
X262956Y250237D01*
X262868Y250286D01*
X262781Y250338D01*
X262696Y250394D01*
X262614Y250453D01*
X262534Y250515D01*
X262456Y250580D01*
X262381Y250648D01*
X262309Y250719D01*
X262239Y250792D01*
X262173Y250869D01*
X262109Y250947D01*
X262049Y251029D01*
X261992Y251112D01*
X261938Y251198D01*
X261887Y251286D01*
X261840Y251375D01*
X261796Y251467D01*
X261756Y251560D01*
X261719Y251654D01*
X261687Y251750D01*
X261658Y251847D01*
X261632Y251945D01*
X261611Y252044D01*
X261593Y252144D01*
X261580Y252244D01*
X261570Y252345D01*
X261564Y252446D01*
X261562Y252547D01*
X262085Y257246D02*
X262087Y257336D01*
X262093Y257425D01*
X262102Y257515D01*
X262116Y257604D01*
X262133Y257692D01*
X262154Y257779D01*
X262179Y257866D01*
X262208Y257951D01*
X262240Y258035D01*
X262275Y258117D01*
X262315Y258198D01*
X262357Y258277D01*
X262403Y258354D01*
X262453Y258429D01*
X262505Y258502D01*
X262561Y258573D01*
X262619Y258641D01*
X262681Y258706D01*
X262745Y258769D01*
X262812Y258829D01*
X262881Y258886D01*
X262953Y258940D01*
X263027Y258991D01*
X263103Y259039D01*
X263181Y259083D01*
X263261Y259124D01*
X263343Y259162D01*
X263426Y259196D01*
X263511Y259226D01*
X263597Y259253D01*
X263683Y259276D01*
X263771Y259295D01*
X263860Y259310D01*
X263949Y259322D01*
X264038Y259330D01*
X264128Y259334D01*
X264218Y259334D01*
X264308Y259330D01*
X264397Y259322D01*
X264486Y259310D01*
X264575Y259295D01*
X264663Y259276D01*
X264749Y259253D01*
X264835Y259226D01*
X264920Y259196D01*
X265003Y259162D01*
X265085Y259124D01*
X265165Y259083D01*
X265243Y259039D01*
X265319Y258991D01*
X265393Y258940D01*
X265465Y258886D01*
X265534Y258829D01*
X265601Y258769D01*
X265665Y258706D01*
X265727Y258641D01*
X265785Y258573D01*
X265841Y258502D01*
X265893Y258429D01*
X265943Y258354D01*
X265989Y258277D01*
X266031Y258198D01*
X266071Y258117D01*
X266106Y258035D01*
X266138Y257951D01*
X266167Y257866D01*
X266192Y257779D01*
X266213Y257692D01*
X266230Y257604D01*
X266244Y257515D01*
X266253Y257425D01*
X266259Y257336D01*
X266261Y257246D01*
X266259Y257156D01*
X266253Y257067D01*
X266244Y256977D01*
X266230Y256888D01*
X266213Y256800D01*
X266192Y256713D01*
X266167Y256626D01*
X266138Y256541D01*
X266106Y256457D01*
X266071Y256375D01*
X266031Y256294D01*
X265989Y256215D01*
X265943Y256138D01*
X265893Y256063D01*
X265841Y255990D01*
X265785Y255919D01*
X265727Y255851D01*
X265665Y255786D01*
X265601Y255723D01*
X265534Y255663D01*
X265465Y255606D01*
X265393Y255552D01*
X265319Y255501D01*
X265243Y255453D01*
X265165Y255409D01*
X265085Y255368D01*
X265003Y255330D01*
X264920Y255296D01*
X264835Y255266D01*
X264749Y255239D01*
X264663Y255216D01*
X264575Y255197D01*
X264486Y255182D01*
X264397Y255170D01*
X264308Y255162D01*
X264218Y255158D01*
X264128Y255158D01*
X264038Y255162D01*
X263949Y255170D01*
X263860Y255182D01*
X263771Y255197D01*
X263683Y255216D01*
X263597Y255239D01*
X263511Y255266D01*
X263426Y255296D01*
X263343Y255330D01*
X263261Y255368D01*
X263181Y255409D01*
X263103Y255453D01*
X263027Y255501D01*
X262953Y255552D01*
X262881Y255606D01*
X262812Y255663D01*
X262745Y255723D01*
X262681Y255786D01*
X262619Y255851D01*
X262561Y255919D01*
X262505Y255990D01*
X262453Y256063D01*
X262403Y256138D01*
X262357Y256215D01*
X262315Y256294D01*
X262275Y256375D01*
X262240Y256457D01*
X262208Y256541D01*
X262179Y256626D01*
X262154Y256713D01*
X262133Y256800D01*
X262116Y256888D01*
X262102Y256977D01*
X262093Y257067D01*
X262087Y257156D01*
X262085Y257246D01*
D13*
X574760Y185505D02*
X574760Y158030D01*
X566335Y158030D01*
X537760Y158030D02*
X537760Y185505D01*
X537760Y158030D02*
X546185Y158030D01*
X550460Y195030D02*
X562060Y195030D01*
D10*
X543306Y211836D02*
X543306Y221234D01*
X545917Y221234D01*
X546018Y221232D01*
X546119Y221226D01*
X546220Y221216D01*
X546320Y221203D01*
X546420Y221185D01*
X546519Y221164D01*
X546617Y221138D01*
X546714Y221109D01*
X546810Y221077D01*
X546904Y221040D01*
X546997Y221000D01*
X547089Y220956D01*
X547178Y220909D01*
X547266Y220858D01*
X547352Y220804D01*
X547435Y220747D01*
X547517Y220687D01*
X547595Y220623D01*
X547672Y220557D01*
X547745Y220487D01*
X547816Y220415D01*
X547884Y220340D01*
X547949Y220262D01*
X548011Y220182D01*
X548070Y220100D01*
X548126Y220015D01*
X548178Y219928D01*
X548227Y219840D01*
X548273Y219749D01*
X548314Y219657D01*
X548353Y219563D01*
X548387Y219468D01*
X548418Y219372D01*
X548445Y219274D01*
X548469Y219176D01*
X548488Y219076D01*
X548504Y218976D01*
X548516Y218876D01*
X548524Y218775D01*
X548528Y218674D01*
X548528Y218572D01*
X548524Y218471D01*
X548516Y218370D01*
X548504Y218270D01*
X548488Y218170D01*
X548469Y218070D01*
X548445Y217972D01*
X548418Y217874D01*
X548387Y217778D01*
X548353Y217683D01*
X548314Y217589D01*
X548273Y217497D01*
X548227Y217406D01*
X548178Y217317D01*
X548126Y217231D01*
X548070Y217146D01*
X548011Y217064D01*
X547949Y216984D01*
X547884Y216906D01*
X547816Y216831D01*
X547745Y216759D01*
X547672Y216689D01*
X547595Y216623D01*
X547517Y216559D01*
X547435Y216499D01*
X547352Y216442D01*
X547266Y216388D01*
X547178Y216337D01*
X547089Y216290D01*
X546997Y216246D01*
X546904Y216206D01*
X546810Y216169D01*
X546714Y216137D01*
X546617Y216108D01*
X546519Y216082D01*
X546420Y216061D01*
X546320Y216043D01*
X546220Y216030D01*
X546119Y216020D01*
X546018Y216014D01*
X545917Y216012D01*
X545917Y216013D02*
X543306Y216013D01*
X546439Y216013D02*
X548527Y211836D01*
X557615Y218885D02*
X557613Y218980D01*
X557607Y219074D01*
X557598Y219168D01*
X557585Y219262D01*
X557568Y219355D01*
X557547Y219447D01*
X557522Y219539D01*
X557494Y219629D01*
X557462Y219718D01*
X557427Y219806D01*
X557388Y219892D01*
X557346Y219977D01*
X557300Y220060D01*
X557251Y220141D01*
X557199Y220220D01*
X557144Y220297D01*
X557085Y220371D01*
X557024Y220443D01*
X556960Y220513D01*
X556893Y220580D01*
X556823Y220644D01*
X556751Y220705D01*
X556677Y220764D01*
X556600Y220819D01*
X556521Y220871D01*
X556440Y220920D01*
X556357Y220966D01*
X556272Y221008D01*
X556186Y221047D01*
X556098Y221082D01*
X556009Y221114D01*
X555919Y221142D01*
X555827Y221167D01*
X555735Y221188D01*
X555642Y221205D01*
X555548Y221218D01*
X555454Y221227D01*
X555360Y221233D01*
X555265Y221235D01*
X555265Y221234D02*
X555157Y221232D01*
X555048Y221226D01*
X554940Y221216D01*
X554833Y221203D01*
X554726Y221185D01*
X554619Y221164D01*
X554514Y221139D01*
X554409Y221110D01*
X554306Y221078D01*
X554204Y221041D01*
X554103Y221001D01*
X554004Y220958D01*
X553906Y220911D01*
X553810Y220860D01*
X553716Y220806D01*
X553624Y220749D01*
X553534Y220688D01*
X553446Y220624D01*
X553361Y220558D01*
X553278Y220488D01*
X553198Y220415D01*
X553120Y220339D01*
X553045Y220261D01*
X552973Y220180D01*
X552904Y220096D01*
X552838Y220010D01*
X552775Y219922D01*
X552716Y219831D01*
X552659Y219739D01*
X552606Y219644D01*
X552557Y219548D01*
X552511Y219449D01*
X552468Y219350D01*
X552429Y219248D01*
X552394Y219146D01*
X556831Y217057D02*
X556900Y217126D01*
X556966Y217197D01*
X557030Y217270D01*
X557091Y217346D01*
X557149Y217425D01*
X557203Y217505D01*
X557255Y217588D01*
X557303Y217672D01*
X557349Y217758D01*
X557390Y217846D01*
X557429Y217936D01*
X557464Y218027D01*
X557495Y218119D01*
X557523Y218212D01*
X557547Y218306D01*
X557567Y218401D01*
X557584Y218497D01*
X557597Y218594D01*
X557606Y218691D01*
X557612Y218788D01*
X557614Y218885D01*
X556831Y217057D02*
X552393Y211836D01*
X557614Y211836D01*
X561537Y216535D02*
X561539Y216720D01*
X561546Y216905D01*
X561557Y217089D01*
X561572Y217273D01*
X561592Y217457D01*
X561616Y217641D01*
X561645Y217823D01*
X561678Y218005D01*
X561715Y218186D01*
X561757Y218366D01*
X561803Y218546D01*
X561853Y218724D01*
X561907Y218900D01*
X561966Y219076D01*
X562028Y219250D01*
X562095Y219422D01*
X562166Y219593D01*
X562241Y219762D01*
X562320Y219929D01*
X562319Y219929D02*
X562349Y220009D01*
X562382Y220088D01*
X562419Y220165D01*
X562459Y220241D01*
X562502Y220315D01*
X562548Y220387D01*
X562598Y220456D01*
X562650Y220524D01*
X562706Y220589D01*
X562764Y220652D01*
X562826Y220711D01*
X562889Y220769D01*
X562956Y220823D01*
X563024Y220874D01*
X563095Y220922D01*
X563168Y220967D01*
X563242Y221009D01*
X563319Y221047D01*
X563397Y221082D01*
X563476Y221114D01*
X563557Y221142D01*
X563639Y221166D01*
X563723Y221187D01*
X563806Y221204D01*
X563891Y221217D01*
X563976Y221226D01*
X564061Y221232D01*
X564147Y221234D01*
X564233Y221232D01*
X564318Y221226D01*
X564403Y221217D01*
X564488Y221204D01*
X564571Y221187D01*
X564655Y221166D01*
X564737Y221142D01*
X564818Y221114D01*
X564897Y221082D01*
X564975Y221047D01*
X565052Y221009D01*
X565126Y220967D01*
X565199Y220922D01*
X565270Y220874D01*
X565338Y220823D01*
X565405Y220769D01*
X565468Y220711D01*
X565530Y220652D01*
X565588Y220589D01*
X565644Y220524D01*
X565696Y220456D01*
X565746Y220387D01*
X565792Y220315D01*
X565835Y220241D01*
X565875Y220165D01*
X565912Y220088D01*
X565945Y220009D01*
X565975Y219929D01*
X566054Y219762D01*
X566129Y219593D01*
X566200Y219422D01*
X566267Y219250D01*
X566329Y219076D01*
X566388Y218900D01*
X566442Y218724D01*
X566492Y218546D01*
X566538Y218366D01*
X566580Y218186D01*
X566617Y218005D01*
X566650Y217823D01*
X566679Y217641D01*
X566703Y217457D01*
X566723Y217273D01*
X566738Y217089D01*
X566749Y216905D01*
X566756Y216720D01*
X566758Y216535D01*
X561537Y216535D02*
X561539Y216350D01*
X561546Y216165D01*
X561557Y215981D01*
X561572Y215797D01*
X561592Y215613D01*
X561616Y215429D01*
X561645Y215247D01*
X561678Y215065D01*
X561715Y214884D01*
X561757Y214704D01*
X561803Y214524D01*
X561853Y214346D01*
X561907Y214170D01*
X561966Y213994D01*
X562028Y213820D01*
X562095Y213648D01*
X562166Y213477D01*
X562241Y213308D01*
X562320Y213141D01*
X562319Y213141D02*
X562349Y213061D01*
X562382Y212982D01*
X562419Y212905D01*
X562459Y212829D01*
X562502Y212755D01*
X562548Y212683D01*
X562598Y212614D01*
X562651Y212546D01*
X562706Y212481D01*
X562765Y212418D01*
X562826Y212359D01*
X562889Y212301D01*
X562956Y212247D01*
X563024Y212196D01*
X563095Y212148D01*
X563168Y212103D01*
X563242Y212061D01*
X563319Y212023D01*
X563397Y211988D01*
X563476Y211956D01*
X563557Y211928D01*
X563639Y211904D01*
X563723Y211883D01*
X563806Y211866D01*
X563891Y211853D01*
X563976Y211844D01*
X564061Y211838D01*
X564147Y211836D01*
X565975Y213141D02*
X566054Y213308D01*
X566129Y213477D01*
X566200Y213648D01*
X566267Y213820D01*
X566329Y213994D01*
X566388Y214170D01*
X566442Y214346D01*
X566492Y214524D01*
X566538Y214704D01*
X566580Y214884D01*
X566617Y215065D01*
X566650Y215247D01*
X566679Y215429D01*
X566703Y215613D01*
X566723Y215797D01*
X566738Y215981D01*
X566749Y216165D01*
X566756Y216350D01*
X566758Y216535D01*
X565975Y213141D02*
X565945Y213061D01*
X565912Y212982D01*
X565875Y212905D01*
X565835Y212829D01*
X565792Y212755D01*
X565746Y212683D01*
X565696Y212614D01*
X565644Y212546D01*
X565588Y212481D01*
X565530Y212418D01*
X565468Y212359D01*
X565405Y212301D01*
X565338Y212247D01*
X565270Y212196D01*
X565199Y212148D01*
X565126Y212103D01*
X565052Y212061D01*
X564975Y212023D01*
X564897Y211988D01*
X564818Y211956D01*
X564737Y211928D01*
X564655Y211904D01*
X564571Y211883D01*
X564488Y211866D01*
X564403Y211853D01*
X564318Y211844D01*
X564233Y211838D01*
X564147Y211836D01*
X562059Y213924D02*
X566236Y219146D01*
X245407Y97409D02*
X245407Y88011D01*
X245407Y97409D02*
X248018Y97409D01*
X248119Y97407D01*
X248220Y97401D01*
X248321Y97391D01*
X248421Y97378D01*
X248521Y97360D01*
X248620Y97339D01*
X248718Y97313D01*
X248815Y97284D01*
X248911Y97252D01*
X249005Y97215D01*
X249098Y97175D01*
X249190Y97131D01*
X249279Y97084D01*
X249367Y97033D01*
X249453Y96979D01*
X249536Y96922D01*
X249618Y96862D01*
X249696Y96798D01*
X249773Y96732D01*
X249846Y96662D01*
X249917Y96590D01*
X249985Y96515D01*
X250050Y96437D01*
X250112Y96357D01*
X250171Y96275D01*
X250227Y96190D01*
X250279Y96103D01*
X250328Y96015D01*
X250374Y95924D01*
X250415Y95832D01*
X250454Y95738D01*
X250488Y95643D01*
X250519Y95547D01*
X250546Y95449D01*
X250570Y95351D01*
X250589Y95251D01*
X250605Y95151D01*
X250617Y95051D01*
X250625Y94950D01*
X250629Y94849D01*
X250629Y94747D01*
X250625Y94646D01*
X250617Y94545D01*
X250605Y94445D01*
X250589Y94345D01*
X250570Y94245D01*
X250546Y94147D01*
X250519Y94049D01*
X250488Y93953D01*
X250454Y93858D01*
X250415Y93764D01*
X250374Y93672D01*
X250328Y93581D01*
X250279Y93492D01*
X250227Y93406D01*
X250171Y93321D01*
X250112Y93239D01*
X250050Y93159D01*
X249985Y93081D01*
X249917Y93006D01*
X249846Y92934D01*
X249773Y92864D01*
X249696Y92798D01*
X249618Y92734D01*
X249536Y92674D01*
X249453Y92617D01*
X249367Y92563D01*
X249279Y92512D01*
X249190Y92465D01*
X249098Y92421D01*
X249005Y92381D01*
X248911Y92344D01*
X248815Y92312D01*
X248718Y92283D01*
X248620Y92257D01*
X248521Y92236D01*
X248421Y92218D01*
X248321Y92205D01*
X248220Y92195D01*
X248119Y92189D01*
X248018Y92187D01*
X248018Y92188D02*
X245407Y92188D01*
X248540Y92188D02*
X250628Y88011D01*
X254494Y95321D02*
X257104Y97409D01*
X257104Y88011D01*
X254494Y88011D02*
X259715Y88011D01*
X263638Y92710D02*
X263640Y92895D01*
X263647Y93080D01*
X263658Y93264D01*
X263673Y93448D01*
X263693Y93632D01*
X263717Y93816D01*
X263746Y93998D01*
X263779Y94180D01*
X263816Y94361D01*
X263858Y94541D01*
X263904Y94721D01*
X263954Y94899D01*
X264008Y95075D01*
X264067Y95251D01*
X264129Y95425D01*
X264196Y95597D01*
X264267Y95768D01*
X264342Y95937D01*
X264421Y96104D01*
X264420Y96104D02*
X264450Y96184D01*
X264483Y96263D01*
X264520Y96340D01*
X264560Y96416D01*
X264603Y96490D01*
X264649Y96562D01*
X264699Y96631D01*
X264751Y96699D01*
X264807Y96764D01*
X264865Y96827D01*
X264927Y96886D01*
X264990Y96944D01*
X265057Y96998D01*
X265125Y97049D01*
X265196Y97097D01*
X265269Y97142D01*
X265343Y97184D01*
X265420Y97222D01*
X265498Y97257D01*
X265577Y97289D01*
X265658Y97317D01*
X265740Y97341D01*
X265824Y97362D01*
X265907Y97379D01*
X265992Y97392D01*
X266077Y97401D01*
X266162Y97407D01*
X266248Y97409D01*
X266334Y97407D01*
X266419Y97401D01*
X266504Y97392D01*
X266589Y97379D01*
X266672Y97362D01*
X266756Y97341D01*
X266838Y97317D01*
X266919Y97289D01*
X266998Y97257D01*
X267076Y97222D01*
X267153Y97184D01*
X267227Y97142D01*
X267300Y97097D01*
X267371Y97049D01*
X267439Y96998D01*
X267506Y96944D01*
X267569Y96886D01*
X267631Y96827D01*
X267689Y96764D01*
X267745Y96699D01*
X267797Y96631D01*
X267847Y96562D01*
X267893Y96490D01*
X267936Y96416D01*
X267976Y96340D01*
X268013Y96263D01*
X268046Y96184D01*
X268076Y96104D01*
X268155Y95937D01*
X268230Y95768D01*
X268301Y95597D01*
X268368Y95425D01*
X268430Y95251D01*
X268489Y95075D01*
X268543Y94899D01*
X268593Y94721D01*
X268639Y94541D01*
X268681Y94361D01*
X268718Y94180D01*
X268751Y93998D01*
X268780Y93816D01*
X268804Y93632D01*
X268824Y93448D01*
X268839Y93264D01*
X268850Y93080D01*
X268857Y92895D01*
X268859Y92710D01*
X263638Y92710D02*
X263640Y92525D01*
X263647Y92340D01*
X263658Y92156D01*
X263673Y91972D01*
X263693Y91788D01*
X263717Y91604D01*
X263746Y91422D01*
X263779Y91240D01*
X263816Y91059D01*
X263858Y90879D01*
X263904Y90699D01*
X263954Y90521D01*
X264008Y90345D01*
X264067Y90169D01*
X264129Y89995D01*
X264196Y89823D01*
X264267Y89652D01*
X264342Y89483D01*
X264421Y89316D01*
X264420Y89316D02*
X264450Y89236D01*
X264483Y89157D01*
X264520Y89080D01*
X264560Y89004D01*
X264603Y88930D01*
X264649Y88858D01*
X264699Y88789D01*
X264752Y88721D01*
X264807Y88656D01*
X264866Y88593D01*
X264927Y88534D01*
X264990Y88476D01*
X265057Y88422D01*
X265125Y88371D01*
X265196Y88323D01*
X265269Y88278D01*
X265343Y88236D01*
X265420Y88198D01*
X265498Y88163D01*
X265577Y88131D01*
X265658Y88103D01*
X265740Y88079D01*
X265824Y88058D01*
X265907Y88041D01*
X265992Y88028D01*
X266077Y88019D01*
X266162Y88013D01*
X266248Y88011D01*
X268076Y89316D02*
X268155Y89483D01*
X268230Y89652D01*
X268301Y89823D01*
X268368Y89995D01*
X268430Y90169D01*
X268489Y90345D01*
X268543Y90521D01*
X268593Y90699D01*
X268639Y90879D01*
X268681Y91059D01*
X268718Y91240D01*
X268751Y91422D01*
X268780Y91604D01*
X268804Y91788D01*
X268824Y91972D01*
X268839Y92156D01*
X268850Y92340D01*
X268857Y92525D01*
X268859Y92710D01*
X268076Y89316D02*
X268046Y89236D01*
X268013Y89157D01*
X267976Y89080D01*
X267936Y89004D01*
X267893Y88930D01*
X267847Y88858D01*
X267797Y88789D01*
X267745Y88721D01*
X267689Y88656D01*
X267631Y88593D01*
X267569Y88534D01*
X267506Y88476D01*
X267439Y88422D01*
X267371Y88371D01*
X267300Y88323D01*
X267227Y88278D01*
X267153Y88236D01*
X267076Y88198D01*
X266998Y88163D01*
X266919Y88131D01*
X266838Y88103D01*
X266756Y88079D01*
X266672Y88058D01*
X266589Y88041D01*
X266504Y88028D01*
X266419Y88019D01*
X266334Y88013D01*
X266248Y88011D01*
X264160Y90099D02*
X268337Y95321D01*
X335661Y138811D02*
X335661Y148209D01*
X338272Y148209D01*
X338373Y148207D01*
X338474Y148201D01*
X338575Y148191D01*
X338675Y148178D01*
X338775Y148160D01*
X338874Y148139D01*
X338972Y148113D01*
X339069Y148084D01*
X339165Y148052D01*
X339259Y148015D01*
X339352Y147975D01*
X339444Y147931D01*
X339533Y147884D01*
X339621Y147833D01*
X339707Y147779D01*
X339790Y147722D01*
X339872Y147662D01*
X339950Y147598D01*
X340027Y147532D01*
X340100Y147462D01*
X340171Y147390D01*
X340239Y147315D01*
X340304Y147237D01*
X340366Y147157D01*
X340425Y147075D01*
X340481Y146990D01*
X340533Y146903D01*
X340582Y146815D01*
X340628Y146724D01*
X340669Y146632D01*
X340708Y146538D01*
X340742Y146443D01*
X340773Y146347D01*
X340800Y146249D01*
X340824Y146151D01*
X340843Y146051D01*
X340859Y145951D01*
X340871Y145851D01*
X340879Y145750D01*
X340883Y145649D01*
X340883Y145547D01*
X340879Y145446D01*
X340871Y145345D01*
X340859Y145245D01*
X340843Y145145D01*
X340824Y145045D01*
X340800Y144947D01*
X340773Y144849D01*
X340742Y144753D01*
X340708Y144658D01*
X340669Y144564D01*
X340628Y144472D01*
X340582Y144381D01*
X340533Y144292D01*
X340481Y144206D01*
X340425Y144121D01*
X340366Y144039D01*
X340304Y143959D01*
X340239Y143881D01*
X340171Y143806D01*
X340100Y143734D01*
X340027Y143664D01*
X339950Y143598D01*
X339872Y143534D01*
X339790Y143474D01*
X339707Y143417D01*
X339621Y143363D01*
X339533Y143312D01*
X339444Y143265D01*
X339352Y143221D01*
X339259Y143181D01*
X339165Y143144D01*
X339069Y143112D01*
X338972Y143083D01*
X338874Y143057D01*
X338775Y143036D01*
X338675Y143018D01*
X338575Y143005D01*
X338474Y142995D01*
X338373Y142989D01*
X338272Y142987D01*
X338272Y142988D02*
X335661Y142988D01*
X338794Y142988D02*
X340882Y138811D01*
X344748Y146121D02*
X347358Y148209D01*
X347358Y138811D01*
X344748Y138811D02*
X349969Y138811D01*
X353892Y146121D02*
X356502Y148209D01*
X356502Y138811D01*
X353892Y138811D02*
X359113Y138811D01*
X367411Y134239D02*
X367411Y124841D01*
X367411Y134239D02*
X370022Y134239D01*
X370123Y134237D01*
X370224Y134231D01*
X370325Y134221D01*
X370425Y134208D01*
X370525Y134190D01*
X370624Y134169D01*
X370722Y134143D01*
X370819Y134114D01*
X370915Y134082D01*
X371009Y134045D01*
X371102Y134005D01*
X371194Y133961D01*
X371283Y133914D01*
X371371Y133863D01*
X371457Y133809D01*
X371540Y133752D01*
X371622Y133692D01*
X371700Y133628D01*
X371777Y133562D01*
X371850Y133492D01*
X371921Y133420D01*
X371989Y133345D01*
X372054Y133267D01*
X372116Y133187D01*
X372175Y133105D01*
X372231Y133020D01*
X372283Y132933D01*
X372332Y132845D01*
X372378Y132754D01*
X372419Y132662D01*
X372458Y132568D01*
X372492Y132473D01*
X372523Y132377D01*
X372550Y132279D01*
X372574Y132181D01*
X372593Y132081D01*
X372609Y131981D01*
X372621Y131881D01*
X372629Y131780D01*
X372633Y131679D01*
X372633Y131577D01*
X372629Y131476D01*
X372621Y131375D01*
X372609Y131275D01*
X372593Y131175D01*
X372574Y131075D01*
X372550Y130977D01*
X372523Y130879D01*
X372492Y130783D01*
X372458Y130688D01*
X372419Y130594D01*
X372378Y130502D01*
X372332Y130411D01*
X372283Y130322D01*
X372231Y130236D01*
X372175Y130151D01*
X372116Y130069D01*
X372054Y129989D01*
X371989Y129911D01*
X371921Y129836D01*
X371850Y129764D01*
X371777Y129694D01*
X371700Y129628D01*
X371622Y129564D01*
X371540Y129504D01*
X371457Y129447D01*
X371371Y129393D01*
X371283Y129342D01*
X371194Y129295D01*
X371102Y129251D01*
X371009Y129211D01*
X370915Y129174D01*
X370819Y129142D01*
X370722Y129113D01*
X370624Y129087D01*
X370525Y129066D01*
X370425Y129048D01*
X370325Y129035D01*
X370224Y129025D01*
X370123Y129019D01*
X370022Y129017D01*
X370022Y129018D02*
X367411Y129018D01*
X370544Y129018D02*
X372632Y124841D01*
X376498Y132151D02*
X379108Y134239D01*
X379108Y124841D01*
X376498Y124841D02*
X381719Y124841D01*
X390863Y131890D02*
X390861Y131985D01*
X390855Y132079D01*
X390846Y132173D01*
X390833Y132267D01*
X390816Y132360D01*
X390795Y132452D01*
X390770Y132544D01*
X390742Y132634D01*
X390710Y132723D01*
X390675Y132811D01*
X390636Y132897D01*
X390594Y132982D01*
X390548Y133065D01*
X390499Y133146D01*
X390447Y133225D01*
X390392Y133302D01*
X390333Y133376D01*
X390272Y133448D01*
X390208Y133518D01*
X390141Y133585D01*
X390071Y133649D01*
X389999Y133710D01*
X389925Y133769D01*
X389848Y133824D01*
X389769Y133876D01*
X389688Y133925D01*
X389605Y133971D01*
X389520Y134013D01*
X389434Y134052D01*
X389346Y134087D01*
X389257Y134119D01*
X389167Y134147D01*
X389075Y134172D01*
X388983Y134193D01*
X388890Y134210D01*
X388796Y134223D01*
X388702Y134232D01*
X388608Y134238D01*
X388513Y134240D01*
X388513Y134239D02*
X388405Y134237D01*
X388296Y134231D01*
X388188Y134221D01*
X388081Y134208D01*
X387974Y134190D01*
X387867Y134169D01*
X387762Y134144D01*
X387657Y134115D01*
X387554Y134083D01*
X387452Y134046D01*
X387351Y134006D01*
X387252Y133963D01*
X387154Y133916D01*
X387058Y133865D01*
X386964Y133811D01*
X386872Y133754D01*
X386782Y133693D01*
X386694Y133629D01*
X386609Y133563D01*
X386526Y133493D01*
X386446Y133420D01*
X386368Y133344D01*
X386293Y133266D01*
X386221Y133185D01*
X386152Y133101D01*
X386086Y133015D01*
X386023Y132927D01*
X385964Y132836D01*
X385907Y132744D01*
X385854Y132649D01*
X385805Y132553D01*
X385759Y132454D01*
X385716Y132355D01*
X385677Y132253D01*
X385642Y132151D01*
X390080Y130062D02*
X390149Y130131D01*
X390215Y130202D01*
X390279Y130275D01*
X390340Y130351D01*
X390398Y130430D01*
X390452Y130510D01*
X390504Y130593D01*
X390552Y130677D01*
X390598Y130763D01*
X390639Y130851D01*
X390678Y130941D01*
X390713Y131032D01*
X390744Y131124D01*
X390772Y131217D01*
X390796Y131311D01*
X390816Y131406D01*
X390833Y131502D01*
X390846Y131599D01*
X390855Y131696D01*
X390861Y131793D01*
X390863Y131890D01*
X390080Y130062D02*
X385642Y124841D01*
X390863Y124841D01*
X344467Y215011D02*
X344467Y224409D01*
X347078Y224409D01*
X347179Y224407D01*
X347280Y224401D01*
X347381Y224391D01*
X347481Y224378D01*
X347581Y224360D01*
X347680Y224339D01*
X347778Y224313D01*
X347875Y224284D01*
X347971Y224252D01*
X348065Y224215D01*
X348158Y224175D01*
X348250Y224131D01*
X348339Y224084D01*
X348427Y224033D01*
X348513Y223979D01*
X348596Y223922D01*
X348678Y223862D01*
X348756Y223798D01*
X348833Y223732D01*
X348906Y223662D01*
X348977Y223590D01*
X349045Y223515D01*
X349110Y223437D01*
X349172Y223357D01*
X349231Y223275D01*
X349287Y223190D01*
X349339Y223103D01*
X349388Y223015D01*
X349434Y222924D01*
X349475Y222832D01*
X349514Y222738D01*
X349548Y222643D01*
X349579Y222547D01*
X349606Y222449D01*
X349630Y222351D01*
X349649Y222251D01*
X349665Y222151D01*
X349677Y222051D01*
X349685Y221950D01*
X349689Y221849D01*
X349689Y221747D01*
X349685Y221646D01*
X349677Y221545D01*
X349665Y221445D01*
X349649Y221345D01*
X349630Y221245D01*
X349606Y221147D01*
X349579Y221049D01*
X349548Y220953D01*
X349514Y220858D01*
X349475Y220764D01*
X349434Y220672D01*
X349388Y220581D01*
X349339Y220492D01*
X349287Y220406D01*
X349231Y220321D01*
X349172Y220239D01*
X349110Y220159D01*
X349045Y220081D01*
X348977Y220006D01*
X348906Y219934D01*
X348833Y219864D01*
X348756Y219798D01*
X348678Y219734D01*
X348596Y219674D01*
X348513Y219617D01*
X348427Y219563D01*
X348339Y219512D01*
X348250Y219465D01*
X348158Y219421D01*
X348065Y219381D01*
X347971Y219344D01*
X347875Y219312D01*
X347778Y219283D01*
X347680Y219257D01*
X347581Y219236D01*
X347481Y219218D01*
X347381Y219205D01*
X347280Y219195D01*
X347179Y219189D01*
X347078Y219187D01*
X347078Y219188D02*
X344467Y219188D01*
X347600Y219188D02*
X349688Y215011D01*
X353554Y222321D02*
X356164Y224409D01*
X356164Y215011D01*
X353554Y215011D02*
X358775Y215011D01*
X362698Y215011D02*
X365831Y215011D01*
X365920Y215013D01*
X366008Y215019D01*
X366096Y215028D01*
X366184Y215041D01*
X366271Y215058D01*
X366357Y215078D01*
X366442Y215103D01*
X366527Y215130D01*
X366610Y215162D01*
X366691Y215196D01*
X366771Y215235D01*
X366849Y215276D01*
X366926Y215321D01*
X367000Y215369D01*
X367073Y215420D01*
X367143Y215474D01*
X367210Y215532D01*
X367276Y215592D01*
X367338Y215654D01*
X367398Y215720D01*
X367456Y215787D01*
X367510Y215857D01*
X367561Y215930D01*
X367609Y216004D01*
X367654Y216081D01*
X367695Y216159D01*
X367734Y216239D01*
X367768Y216320D01*
X367800Y216403D01*
X367827Y216488D01*
X367852Y216573D01*
X367872Y216659D01*
X367889Y216746D01*
X367902Y216834D01*
X367911Y216922D01*
X367917Y217010D01*
X367919Y217099D01*
X367919Y218144D01*
X367917Y218233D01*
X367911Y218321D01*
X367902Y218409D01*
X367889Y218497D01*
X367872Y218584D01*
X367852Y218670D01*
X367827Y218755D01*
X367800Y218840D01*
X367768Y218923D01*
X367734Y219004D01*
X367695Y219084D01*
X367654Y219162D01*
X367609Y219239D01*
X367561Y219313D01*
X367510Y219386D01*
X367456Y219456D01*
X367398Y219523D01*
X367338Y219589D01*
X367276Y219651D01*
X367210Y219711D01*
X367143Y219769D01*
X367073Y219823D01*
X367000Y219874D01*
X366926Y219922D01*
X366849Y219967D01*
X366771Y220008D01*
X366691Y220047D01*
X366610Y220081D01*
X366527Y220113D01*
X366442Y220140D01*
X366357Y220165D01*
X366271Y220185D01*
X366184Y220202D01*
X366096Y220215D01*
X366008Y220224D01*
X365920Y220230D01*
X365831Y220232D01*
X362698Y220232D01*
X362698Y224409D01*
X367919Y224409D01*
X380027Y191389D02*
X380027Y181991D01*
X380027Y191389D02*
X382638Y191389D01*
X382739Y191387D01*
X382840Y191381D01*
X382941Y191371D01*
X383041Y191358D01*
X383141Y191340D01*
X383240Y191319D01*
X383338Y191293D01*
X383435Y191264D01*
X383531Y191232D01*
X383625Y191195D01*
X383718Y191155D01*
X383810Y191111D01*
X383899Y191064D01*
X383987Y191013D01*
X384073Y190959D01*
X384156Y190902D01*
X384238Y190842D01*
X384316Y190778D01*
X384393Y190712D01*
X384466Y190642D01*
X384537Y190570D01*
X384605Y190495D01*
X384670Y190417D01*
X384732Y190337D01*
X384791Y190255D01*
X384847Y190170D01*
X384899Y190083D01*
X384948Y189995D01*
X384994Y189904D01*
X385035Y189812D01*
X385074Y189718D01*
X385108Y189623D01*
X385139Y189527D01*
X385166Y189429D01*
X385190Y189331D01*
X385209Y189231D01*
X385225Y189131D01*
X385237Y189031D01*
X385245Y188930D01*
X385249Y188829D01*
X385249Y188727D01*
X385245Y188626D01*
X385237Y188525D01*
X385225Y188425D01*
X385209Y188325D01*
X385190Y188225D01*
X385166Y188127D01*
X385139Y188029D01*
X385108Y187933D01*
X385074Y187838D01*
X385035Y187744D01*
X384994Y187652D01*
X384948Y187561D01*
X384899Y187472D01*
X384847Y187386D01*
X384791Y187301D01*
X384732Y187219D01*
X384670Y187139D01*
X384605Y187061D01*
X384537Y186986D01*
X384466Y186914D01*
X384393Y186844D01*
X384316Y186778D01*
X384238Y186714D01*
X384156Y186654D01*
X384073Y186597D01*
X383987Y186543D01*
X383899Y186492D01*
X383810Y186445D01*
X383718Y186401D01*
X383625Y186361D01*
X383531Y186324D01*
X383435Y186292D01*
X383338Y186263D01*
X383240Y186237D01*
X383141Y186216D01*
X383041Y186198D01*
X382941Y186185D01*
X382840Y186175D01*
X382739Y186169D01*
X382638Y186167D01*
X382638Y186168D02*
X380027Y186168D01*
X383160Y186168D02*
X385248Y181991D01*
X389114Y189301D02*
X391724Y191389D01*
X391724Y181991D01*
X389114Y181991D02*
X394335Y181991D01*
X398258Y187212D02*
X401391Y187212D01*
X401480Y187210D01*
X401568Y187204D01*
X401656Y187195D01*
X401744Y187182D01*
X401831Y187165D01*
X401917Y187145D01*
X402002Y187120D01*
X402087Y187093D01*
X402170Y187061D01*
X402251Y187027D01*
X402331Y186988D01*
X402409Y186947D01*
X402486Y186902D01*
X402560Y186854D01*
X402633Y186803D01*
X402703Y186749D01*
X402770Y186691D01*
X402836Y186631D01*
X402898Y186569D01*
X402958Y186503D01*
X403016Y186436D01*
X403070Y186366D01*
X403121Y186293D01*
X403169Y186219D01*
X403214Y186142D01*
X403255Y186064D01*
X403294Y185984D01*
X403328Y185903D01*
X403360Y185820D01*
X403387Y185735D01*
X403412Y185650D01*
X403432Y185564D01*
X403449Y185477D01*
X403462Y185389D01*
X403471Y185301D01*
X403477Y185213D01*
X403479Y185124D01*
X403479Y184602D01*
X403477Y184501D01*
X403471Y184400D01*
X403461Y184299D01*
X403448Y184199D01*
X403430Y184099D01*
X403409Y184000D01*
X403383Y183902D01*
X403354Y183805D01*
X403322Y183709D01*
X403285Y183615D01*
X403245Y183522D01*
X403201Y183430D01*
X403154Y183341D01*
X403103Y183253D01*
X403049Y183167D01*
X402992Y183084D01*
X402932Y183002D01*
X402868Y182924D01*
X402802Y182847D01*
X402732Y182774D01*
X402660Y182703D01*
X402585Y182635D01*
X402507Y182570D01*
X402427Y182508D01*
X402345Y182449D01*
X402260Y182393D01*
X402173Y182341D01*
X402085Y182292D01*
X401994Y182246D01*
X401902Y182205D01*
X401808Y182166D01*
X401713Y182132D01*
X401617Y182101D01*
X401519Y182074D01*
X401421Y182050D01*
X401321Y182031D01*
X401221Y182015D01*
X401121Y182003D01*
X401020Y181995D01*
X400919Y181991D01*
X400817Y181991D01*
X400716Y181995D01*
X400615Y182003D01*
X400515Y182015D01*
X400415Y182031D01*
X400315Y182050D01*
X400217Y182074D01*
X400119Y182101D01*
X400023Y182132D01*
X399928Y182166D01*
X399834Y182205D01*
X399742Y182246D01*
X399651Y182292D01*
X399563Y182341D01*
X399476Y182393D01*
X399391Y182449D01*
X399309Y182508D01*
X399229Y182570D01*
X399151Y182635D01*
X399076Y182703D01*
X399004Y182774D01*
X398934Y182847D01*
X398868Y182924D01*
X398804Y183002D01*
X398744Y183084D01*
X398687Y183167D01*
X398633Y183253D01*
X398582Y183341D01*
X398535Y183430D01*
X398491Y183522D01*
X398451Y183615D01*
X398414Y183709D01*
X398382Y183805D01*
X398353Y183902D01*
X398327Y184000D01*
X398306Y184099D01*
X398288Y184199D01*
X398275Y184299D01*
X398265Y184400D01*
X398259Y184501D01*
X398257Y184602D01*
X398258Y184602D02*
X398258Y187212D01*
X398260Y187341D01*
X398266Y187469D01*
X398276Y187597D01*
X398290Y187725D01*
X398307Y187853D01*
X398329Y187980D01*
X398355Y188106D01*
X398384Y188231D01*
X398417Y188355D01*
X398455Y188478D01*
X398495Y188600D01*
X398540Y188721D01*
X398588Y188840D01*
X398640Y188958D01*
X398696Y189074D01*
X398755Y189188D01*
X398818Y189300D01*
X398884Y189411D01*
X398953Y189519D01*
X399026Y189625D01*
X399102Y189729D01*
X399181Y189831D01*
X399263Y189930D01*
X399348Y190026D01*
X399436Y190120D01*
X399527Y190211D01*
X399621Y190299D01*
X399717Y190384D01*
X399816Y190466D01*
X399918Y190545D01*
X400022Y190621D01*
X400128Y190694D01*
X400236Y190763D01*
X400346Y190829D01*
X400459Y190892D01*
X400573Y190951D01*
X400689Y191007D01*
X400807Y191059D01*
X400926Y191107D01*
X401047Y191152D01*
X401169Y191192D01*
X401292Y191230D01*
X401416Y191263D01*
X401541Y191292D01*
X401667Y191318D01*
X401794Y191340D01*
X401922Y191357D01*
X402050Y191371D01*
X402178Y191381D01*
X402306Y191387D01*
X402435Y191389D01*
X123571Y213741D02*
X123571Y223139D01*
X126182Y223139D01*
X126283Y223137D01*
X126384Y223131D01*
X126485Y223121D01*
X126585Y223108D01*
X126685Y223090D01*
X126784Y223069D01*
X126882Y223043D01*
X126979Y223014D01*
X127075Y222982D01*
X127169Y222945D01*
X127262Y222905D01*
X127354Y222861D01*
X127443Y222814D01*
X127531Y222763D01*
X127617Y222709D01*
X127700Y222652D01*
X127782Y222592D01*
X127860Y222528D01*
X127937Y222462D01*
X128010Y222392D01*
X128081Y222320D01*
X128149Y222245D01*
X128214Y222167D01*
X128276Y222087D01*
X128335Y222005D01*
X128391Y221920D01*
X128443Y221833D01*
X128492Y221745D01*
X128538Y221654D01*
X128579Y221562D01*
X128618Y221468D01*
X128652Y221373D01*
X128683Y221277D01*
X128710Y221179D01*
X128734Y221081D01*
X128753Y220981D01*
X128769Y220881D01*
X128781Y220781D01*
X128789Y220680D01*
X128793Y220579D01*
X128793Y220477D01*
X128789Y220376D01*
X128781Y220275D01*
X128769Y220175D01*
X128753Y220075D01*
X128734Y219975D01*
X128710Y219877D01*
X128683Y219779D01*
X128652Y219683D01*
X128618Y219588D01*
X128579Y219494D01*
X128538Y219402D01*
X128492Y219311D01*
X128443Y219222D01*
X128391Y219136D01*
X128335Y219051D01*
X128276Y218969D01*
X128214Y218889D01*
X128149Y218811D01*
X128081Y218736D01*
X128010Y218664D01*
X127937Y218594D01*
X127860Y218528D01*
X127782Y218464D01*
X127700Y218404D01*
X127617Y218347D01*
X127531Y218293D01*
X127443Y218242D01*
X127354Y218195D01*
X127262Y218151D01*
X127169Y218111D01*
X127075Y218074D01*
X126979Y218042D01*
X126882Y218013D01*
X126784Y217987D01*
X126685Y217966D01*
X126585Y217948D01*
X126485Y217935D01*
X126384Y217925D01*
X126283Y217919D01*
X126182Y217917D01*
X126182Y217918D02*
X123571Y217918D01*
X126704Y217918D02*
X128792Y213741D01*
X132658Y221051D02*
X135268Y223139D01*
X135268Y213741D01*
X132658Y213741D02*
X137879Y213741D01*
X507111Y174879D02*
X507111Y165481D01*
X507111Y174879D02*
X509722Y174879D01*
X509823Y174877D01*
X509924Y174871D01*
X510025Y174861D01*
X510125Y174848D01*
X510225Y174830D01*
X510324Y174809D01*
X510422Y174783D01*
X510519Y174754D01*
X510615Y174722D01*
X510709Y174685D01*
X510802Y174645D01*
X510894Y174601D01*
X510983Y174554D01*
X511071Y174503D01*
X511157Y174449D01*
X511240Y174392D01*
X511322Y174332D01*
X511400Y174268D01*
X511477Y174202D01*
X511550Y174132D01*
X511621Y174060D01*
X511689Y173985D01*
X511754Y173907D01*
X511816Y173827D01*
X511875Y173745D01*
X511931Y173660D01*
X511983Y173573D01*
X512032Y173485D01*
X512078Y173394D01*
X512119Y173302D01*
X512158Y173208D01*
X512192Y173113D01*
X512223Y173017D01*
X512250Y172919D01*
X512274Y172821D01*
X512293Y172721D01*
X512309Y172621D01*
X512321Y172521D01*
X512329Y172420D01*
X512333Y172319D01*
X512333Y172217D01*
X512329Y172116D01*
X512321Y172015D01*
X512309Y171915D01*
X512293Y171815D01*
X512274Y171715D01*
X512250Y171617D01*
X512223Y171519D01*
X512192Y171423D01*
X512158Y171328D01*
X512119Y171234D01*
X512078Y171142D01*
X512032Y171051D01*
X511983Y170962D01*
X511931Y170876D01*
X511875Y170791D01*
X511816Y170709D01*
X511754Y170629D01*
X511689Y170551D01*
X511621Y170476D01*
X511550Y170404D01*
X511477Y170334D01*
X511400Y170268D01*
X511322Y170204D01*
X511240Y170144D01*
X511157Y170087D01*
X511071Y170033D01*
X510983Y169982D01*
X510894Y169935D01*
X510802Y169891D01*
X510709Y169851D01*
X510615Y169814D01*
X510519Y169782D01*
X510422Y169753D01*
X510324Y169727D01*
X510225Y169706D01*
X510125Y169688D01*
X510025Y169675D01*
X509924Y169665D01*
X509823Y169659D01*
X509722Y169657D01*
X509722Y169658D02*
X507111Y169658D01*
X510244Y169658D02*
X512332Y165481D01*
X516198Y172791D02*
X518808Y174879D01*
X518808Y165481D01*
X516198Y165481D02*
X521419Y165481D01*
X527430Y169658D02*
X530563Y169658D01*
X527430Y169658D02*
X527341Y169660D01*
X527253Y169666D01*
X527165Y169675D01*
X527077Y169688D01*
X526990Y169705D01*
X526904Y169725D01*
X526819Y169750D01*
X526734Y169777D01*
X526651Y169809D01*
X526570Y169843D01*
X526490Y169882D01*
X526412Y169923D01*
X526335Y169968D01*
X526261Y170016D01*
X526188Y170067D01*
X526118Y170121D01*
X526051Y170179D01*
X525985Y170239D01*
X525923Y170301D01*
X525863Y170367D01*
X525805Y170434D01*
X525751Y170504D01*
X525700Y170577D01*
X525652Y170651D01*
X525607Y170728D01*
X525566Y170806D01*
X525527Y170886D01*
X525493Y170967D01*
X525461Y171050D01*
X525434Y171135D01*
X525409Y171220D01*
X525389Y171306D01*
X525372Y171393D01*
X525359Y171481D01*
X525350Y171569D01*
X525344Y171657D01*
X525342Y171746D01*
X525342Y172268D01*
X525341Y172268D02*
X525343Y172369D01*
X525349Y172470D01*
X525359Y172571D01*
X525372Y172671D01*
X525390Y172771D01*
X525411Y172870D01*
X525437Y172968D01*
X525466Y173065D01*
X525498Y173161D01*
X525535Y173255D01*
X525575Y173348D01*
X525619Y173440D01*
X525666Y173529D01*
X525717Y173617D01*
X525771Y173703D01*
X525828Y173786D01*
X525888Y173868D01*
X525952Y173946D01*
X526018Y174023D01*
X526088Y174096D01*
X526160Y174167D01*
X526235Y174235D01*
X526313Y174300D01*
X526393Y174362D01*
X526475Y174421D01*
X526560Y174477D01*
X526647Y174529D01*
X526735Y174578D01*
X526826Y174624D01*
X526918Y174665D01*
X527012Y174704D01*
X527107Y174738D01*
X527203Y174769D01*
X527301Y174796D01*
X527399Y174820D01*
X527499Y174839D01*
X527599Y174855D01*
X527699Y174867D01*
X527800Y174875D01*
X527901Y174879D01*
X528003Y174879D01*
X528104Y174875D01*
X528205Y174867D01*
X528305Y174855D01*
X528405Y174839D01*
X528505Y174820D01*
X528603Y174796D01*
X528701Y174769D01*
X528797Y174738D01*
X528892Y174704D01*
X528986Y174665D01*
X529078Y174624D01*
X529169Y174578D01*
X529258Y174529D01*
X529344Y174477D01*
X529429Y174421D01*
X529511Y174362D01*
X529591Y174300D01*
X529669Y174235D01*
X529744Y174167D01*
X529816Y174096D01*
X529886Y174023D01*
X529952Y173946D01*
X530016Y173868D01*
X530076Y173786D01*
X530133Y173703D01*
X530187Y173617D01*
X530238Y173529D01*
X530285Y173440D01*
X530329Y173348D01*
X530369Y173255D01*
X530406Y173161D01*
X530438Y173065D01*
X530467Y172968D01*
X530493Y172870D01*
X530514Y172771D01*
X530532Y172671D01*
X530545Y172571D01*
X530555Y172470D01*
X530561Y172369D01*
X530563Y172268D01*
X530563Y169658D01*
X530561Y169532D01*
X530555Y169406D01*
X530546Y169280D01*
X530533Y169155D01*
X530515Y169030D01*
X530495Y168905D01*
X530470Y168781D01*
X530442Y168658D01*
X530410Y168536D01*
X530374Y168415D01*
X530335Y168295D01*
X530292Y168177D01*
X530245Y168060D01*
X530195Y167944D01*
X530141Y167829D01*
X530085Y167717D01*
X530024Y167606D01*
X529961Y167497D01*
X529894Y167390D01*
X529824Y167285D01*
X529750Y167182D01*
X529674Y167082D01*
X529595Y166984D01*
X529513Y166888D01*
X529427Y166795D01*
X529340Y166704D01*
X529249Y166617D01*
X529156Y166531D01*
X529060Y166449D01*
X528962Y166370D01*
X528862Y166294D01*
X528759Y166220D01*
X528654Y166150D01*
X528547Y166083D01*
X528438Y166020D01*
X528327Y165959D01*
X528215Y165903D01*
X528100Y165849D01*
X527984Y165799D01*
X527867Y165752D01*
X527749Y165709D01*
X527629Y165670D01*
X527508Y165634D01*
X527386Y165602D01*
X527263Y165574D01*
X527139Y165549D01*
X527014Y165529D01*
X526889Y165511D01*
X526764Y165498D01*
X526638Y165489D01*
X526512Y165483D01*
X526386Y165481D01*
X122301Y85979D02*
X122301Y76581D01*
X122301Y85979D02*
X124912Y85979D01*
X125013Y85977D01*
X125114Y85971D01*
X125215Y85961D01*
X125315Y85948D01*
X125415Y85930D01*
X125514Y85909D01*
X125612Y85883D01*
X125709Y85854D01*
X125805Y85822D01*
X125899Y85785D01*
X125992Y85745D01*
X126084Y85701D01*
X126173Y85654D01*
X126261Y85603D01*
X126347Y85549D01*
X126430Y85492D01*
X126512Y85432D01*
X126590Y85368D01*
X126667Y85302D01*
X126740Y85232D01*
X126811Y85160D01*
X126879Y85085D01*
X126944Y85007D01*
X127006Y84927D01*
X127065Y84845D01*
X127121Y84760D01*
X127173Y84673D01*
X127222Y84585D01*
X127268Y84494D01*
X127309Y84402D01*
X127348Y84308D01*
X127382Y84213D01*
X127413Y84117D01*
X127440Y84019D01*
X127464Y83921D01*
X127483Y83821D01*
X127499Y83721D01*
X127511Y83621D01*
X127519Y83520D01*
X127523Y83419D01*
X127523Y83317D01*
X127519Y83216D01*
X127511Y83115D01*
X127499Y83015D01*
X127483Y82915D01*
X127464Y82815D01*
X127440Y82717D01*
X127413Y82619D01*
X127382Y82523D01*
X127348Y82428D01*
X127309Y82334D01*
X127268Y82242D01*
X127222Y82151D01*
X127173Y82062D01*
X127121Y81976D01*
X127065Y81891D01*
X127006Y81809D01*
X126944Y81729D01*
X126879Y81651D01*
X126811Y81576D01*
X126740Y81504D01*
X126667Y81434D01*
X126590Y81368D01*
X126512Y81304D01*
X126430Y81244D01*
X126347Y81187D01*
X126261Y81133D01*
X126173Y81082D01*
X126084Y81035D01*
X125992Y80991D01*
X125899Y80951D01*
X125805Y80914D01*
X125709Y80882D01*
X125612Y80853D01*
X125514Y80827D01*
X125415Y80806D01*
X125315Y80788D01*
X125215Y80775D01*
X125114Y80765D01*
X125013Y80759D01*
X124912Y80757D01*
X124912Y80758D02*
X122301Y80758D01*
X125434Y80758D02*
X127522Y76581D01*
X136610Y83630D02*
X136608Y83725D01*
X136602Y83819D01*
X136593Y83913D01*
X136580Y84007D01*
X136563Y84100D01*
X136542Y84192D01*
X136517Y84284D01*
X136489Y84374D01*
X136457Y84463D01*
X136422Y84551D01*
X136383Y84637D01*
X136341Y84722D01*
X136295Y84805D01*
X136246Y84886D01*
X136194Y84965D01*
X136139Y85042D01*
X136080Y85116D01*
X136019Y85188D01*
X135955Y85258D01*
X135888Y85325D01*
X135818Y85389D01*
X135746Y85450D01*
X135672Y85509D01*
X135595Y85564D01*
X135516Y85616D01*
X135435Y85665D01*
X135352Y85711D01*
X135267Y85753D01*
X135181Y85792D01*
X135093Y85827D01*
X135004Y85859D01*
X134914Y85887D01*
X134822Y85912D01*
X134730Y85933D01*
X134637Y85950D01*
X134543Y85963D01*
X134449Y85972D01*
X134355Y85978D01*
X134260Y85980D01*
X134260Y85979D02*
X134152Y85977D01*
X134043Y85971D01*
X133935Y85961D01*
X133828Y85948D01*
X133721Y85930D01*
X133614Y85909D01*
X133509Y85884D01*
X133404Y85855D01*
X133301Y85823D01*
X133199Y85786D01*
X133098Y85746D01*
X132999Y85703D01*
X132901Y85656D01*
X132805Y85605D01*
X132711Y85551D01*
X132619Y85494D01*
X132529Y85433D01*
X132441Y85369D01*
X132356Y85303D01*
X132273Y85233D01*
X132193Y85160D01*
X132115Y85084D01*
X132040Y85006D01*
X131968Y84925D01*
X131899Y84841D01*
X131833Y84755D01*
X131770Y84667D01*
X131711Y84576D01*
X131654Y84484D01*
X131601Y84389D01*
X131552Y84293D01*
X131506Y84194D01*
X131463Y84095D01*
X131424Y83993D01*
X131389Y83891D01*
X135826Y81802D02*
X135895Y81871D01*
X135961Y81942D01*
X136025Y82015D01*
X136086Y82091D01*
X136144Y82170D01*
X136198Y82250D01*
X136250Y82333D01*
X136298Y82417D01*
X136344Y82503D01*
X136385Y82591D01*
X136424Y82681D01*
X136459Y82772D01*
X136490Y82864D01*
X136518Y82957D01*
X136542Y83051D01*
X136562Y83146D01*
X136579Y83242D01*
X136592Y83339D01*
X136601Y83436D01*
X136607Y83533D01*
X136609Y83630D01*
X135826Y81802D02*
X131388Y76581D01*
X136609Y76581D01*
X146431Y76581D02*
X146431Y85979D01*
X149042Y85979D01*
X149143Y85977D01*
X149244Y85971D01*
X149345Y85961D01*
X149445Y85948D01*
X149545Y85930D01*
X149644Y85909D01*
X149742Y85883D01*
X149839Y85854D01*
X149935Y85822D01*
X150029Y85785D01*
X150122Y85745D01*
X150214Y85701D01*
X150303Y85654D01*
X150391Y85603D01*
X150477Y85549D01*
X150560Y85492D01*
X150642Y85432D01*
X150720Y85368D01*
X150797Y85302D01*
X150870Y85232D01*
X150941Y85160D01*
X151009Y85085D01*
X151074Y85007D01*
X151136Y84927D01*
X151195Y84845D01*
X151251Y84760D01*
X151303Y84673D01*
X151352Y84585D01*
X151398Y84494D01*
X151439Y84402D01*
X151478Y84308D01*
X151512Y84213D01*
X151543Y84117D01*
X151570Y84019D01*
X151594Y83921D01*
X151613Y83821D01*
X151629Y83721D01*
X151641Y83621D01*
X151649Y83520D01*
X151653Y83419D01*
X151653Y83317D01*
X151649Y83216D01*
X151641Y83115D01*
X151629Y83015D01*
X151613Y82915D01*
X151594Y82815D01*
X151570Y82717D01*
X151543Y82619D01*
X151512Y82523D01*
X151478Y82428D01*
X151439Y82334D01*
X151398Y82242D01*
X151352Y82151D01*
X151303Y82062D01*
X151251Y81976D01*
X151195Y81891D01*
X151136Y81809D01*
X151074Y81729D01*
X151009Y81651D01*
X150941Y81576D01*
X150870Y81504D01*
X150797Y81434D01*
X150720Y81368D01*
X150642Y81304D01*
X150560Y81244D01*
X150477Y81187D01*
X150391Y81133D01*
X150303Y81082D01*
X150214Y81035D01*
X150122Y80991D01*
X150029Y80951D01*
X149935Y80914D01*
X149839Y80882D01*
X149742Y80853D01*
X149644Y80827D01*
X149545Y80806D01*
X149445Y80788D01*
X149345Y80775D01*
X149244Y80765D01*
X149143Y80759D01*
X149042Y80757D01*
X149042Y80758D02*
X146431Y80758D01*
X149564Y80758D02*
X151652Y76581D01*
X155518Y78669D02*
X157606Y85979D01*
X155518Y78669D02*
X160739Y78669D01*
X159173Y80758D02*
X159173Y76581D01*
X169291Y76581D02*
X169291Y85979D01*
X171902Y85979D01*
X172003Y85977D01*
X172104Y85971D01*
X172205Y85961D01*
X172305Y85948D01*
X172405Y85930D01*
X172504Y85909D01*
X172602Y85883D01*
X172699Y85854D01*
X172795Y85822D01*
X172889Y85785D01*
X172982Y85745D01*
X173074Y85701D01*
X173163Y85654D01*
X173251Y85603D01*
X173337Y85549D01*
X173420Y85492D01*
X173502Y85432D01*
X173580Y85368D01*
X173657Y85302D01*
X173730Y85232D01*
X173801Y85160D01*
X173869Y85085D01*
X173934Y85007D01*
X173996Y84927D01*
X174055Y84845D01*
X174111Y84760D01*
X174163Y84673D01*
X174212Y84585D01*
X174258Y84494D01*
X174299Y84402D01*
X174338Y84308D01*
X174372Y84213D01*
X174403Y84117D01*
X174430Y84019D01*
X174454Y83921D01*
X174473Y83821D01*
X174489Y83721D01*
X174501Y83621D01*
X174509Y83520D01*
X174513Y83419D01*
X174513Y83317D01*
X174509Y83216D01*
X174501Y83115D01*
X174489Y83015D01*
X174473Y82915D01*
X174454Y82815D01*
X174430Y82717D01*
X174403Y82619D01*
X174372Y82523D01*
X174338Y82428D01*
X174299Y82334D01*
X174258Y82242D01*
X174212Y82151D01*
X174163Y82062D01*
X174111Y81976D01*
X174055Y81891D01*
X173996Y81809D01*
X173934Y81729D01*
X173869Y81651D01*
X173801Y81576D01*
X173730Y81504D01*
X173657Y81434D01*
X173580Y81368D01*
X173502Y81304D01*
X173420Y81244D01*
X173337Y81187D01*
X173251Y81133D01*
X173163Y81082D01*
X173074Y81035D01*
X172982Y80991D01*
X172889Y80951D01*
X172795Y80914D01*
X172699Y80882D01*
X172602Y80853D01*
X172504Y80827D01*
X172405Y80806D01*
X172305Y80788D01*
X172205Y80775D01*
X172104Y80765D01*
X172003Y80759D01*
X171902Y80757D01*
X171902Y80758D02*
X169291Y80758D01*
X172424Y80758D02*
X174512Y76581D01*
X178378Y81802D02*
X181511Y81802D01*
X181600Y81800D01*
X181688Y81794D01*
X181776Y81785D01*
X181864Y81772D01*
X181951Y81755D01*
X182037Y81735D01*
X182122Y81710D01*
X182207Y81683D01*
X182290Y81651D01*
X182371Y81617D01*
X182451Y81578D01*
X182529Y81537D01*
X182606Y81492D01*
X182680Y81444D01*
X182753Y81393D01*
X182823Y81339D01*
X182890Y81281D01*
X182956Y81221D01*
X183018Y81159D01*
X183078Y81093D01*
X183136Y81026D01*
X183190Y80956D01*
X183241Y80883D01*
X183289Y80809D01*
X183334Y80732D01*
X183375Y80654D01*
X183414Y80574D01*
X183448Y80493D01*
X183480Y80410D01*
X183507Y80325D01*
X183532Y80240D01*
X183552Y80154D01*
X183569Y80067D01*
X183582Y79979D01*
X183591Y79891D01*
X183597Y79803D01*
X183599Y79714D01*
X183599Y79192D01*
X183597Y79091D01*
X183591Y78990D01*
X183581Y78889D01*
X183568Y78789D01*
X183550Y78689D01*
X183529Y78590D01*
X183503Y78492D01*
X183474Y78395D01*
X183442Y78299D01*
X183405Y78205D01*
X183365Y78112D01*
X183321Y78020D01*
X183274Y77931D01*
X183223Y77843D01*
X183169Y77757D01*
X183112Y77674D01*
X183052Y77592D01*
X182988Y77514D01*
X182922Y77437D01*
X182852Y77364D01*
X182780Y77293D01*
X182705Y77225D01*
X182627Y77160D01*
X182547Y77098D01*
X182465Y77039D01*
X182380Y76983D01*
X182293Y76931D01*
X182205Y76882D01*
X182114Y76836D01*
X182022Y76795D01*
X181928Y76756D01*
X181833Y76722D01*
X181737Y76691D01*
X181639Y76664D01*
X181541Y76640D01*
X181441Y76621D01*
X181341Y76605D01*
X181241Y76593D01*
X181140Y76585D01*
X181039Y76581D01*
X180937Y76581D01*
X180836Y76585D01*
X180735Y76593D01*
X180635Y76605D01*
X180535Y76621D01*
X180435Y76640D01*
X180337Y76664D01*
X180239Y76691D01*
X180143Y76722D01*
X180048Y76756D01*
X179954Y76795D01*
X179862Y76836D01*
X179771Y76882D01*
X179683Y76931D01*
X179596Y76983D01*
X179511Y77039D01*
X179429Y77098D01*
X179349Y77160D01*
X179271Y77225D01*
X179196Y77293D01*
X179124Y77364D01*
X179054Y77437D01*
X178988Y77514D01*
X178924Y77592D01*
X178864Y77674D01*
X178807Y77757D01*
X178753Y77843D01*
X178702Y77931D01*
X178655Y78020D01*
X178611Y78112D01*
X178571Y78205D01*
X178534Y78299D01*
X178502Y78395D01*
X178473Y78492D01*
X178447Y78590D01*
X178426Y78689D01*
X178408Y78789D01*
X178395Y78889D01*
X178385Y78990D01*
X178379Y79091D01*
X178377Y79192D01*
X178378Y79192D02*
X178378Y81802D01*
X178380Y81931D01*
X178386Y82059D01*
X178396Y82187D01*
X178410Y82315D01*
X178427Y82443D01*
X178449Y82570D01*
X178475Y82696D01*
X178504Y82821D01*
X178537Y82945D01*
X178575Y83068D01*
X178615Y83190D01*
X178660Y83311D01*
X178708Y83430D01*
X178760Y83548D01*
X178816Y83664D01*
X178875Y83778D01*
X178938Y83890D01*
X179004Y84001D01*
X179073Y84109D01*
X179146Y84215D01*
X179222Y84319D01*
X179301Y84421D01*
X179383Y84520D01*
X179468Y84616D01*
X179556Y84710D01*
X179647Y84801D01*
X179741Y84889D01*
X179837Y84974D01*
X179936Y85056D01*
X180038Y85135D01*
X180142Y85211D01*
X180248Y85284D01*
X180356Y85353D01*
X180466Y85419D01*
X180579Y85482D01*
X180693Y85541D01*
X180809Y85597D01*
X180927Y85649D01*
X181046Y85697D01*
X181167Y85742D01*
X181289Y85782D01*
X181412Y85820D01*
X181536Y85853D01*
X181661Y85882D01*
X181787Y85908D01*
X181914Y85930D01*
X182042Y85947D01*
X182170Y85961D01*
X182298Y85971D01*
X182426Y85977D01*
X182555Y85979D01*
X169291Y213741D02*
X169291Y223139D01*
X171902Y223139D01*
X172003Y223137D01*
X172104Y223131D01*
X172205Y223121D01*
X172305Y223108D01*
X172405Y223090D01*
X172504Y223069D01*
X172602Y223043D01*
X172699Y223014D01*
X172795Y222982D01*
X172889Y222945D01*
X172982Y222905D01*
X173074Y222861D01*
X173163Y222814D01*
X173251Y222763D01*
X173337Y222709D01*
X173420Y222652D01*
X173502Y222592D01*
X173580Y222528D01*
X173657Y222462D01*
X173730Y222392D01*
X173801Y222320D01*
X173869Y222245D01*
X173934Y222167D01*
X173996Y222087D01*
X174055Y222005D01*
X174111Y221920D01*
X174163Y221833D01*
X174212Y221745D01*
X174258Y221654D01*
X174299Y221562D01*
X174338Y221468D01*
X174372Y221373D01*
X174403Y221277D01*
X174430Y221179D01*
X174454Y221081D01*
X174473Y220981D01*
X174489Y220881D01*
X174501Y220781D01*
X174509Y220680D01*
X174513Y220579D01*
X174513Y220477D01*
X174509Y220376D01*
X174501Y220275D01*
X174489Y220175D01*
X174473Y220075D01*
X174454Y219975D01*
X174430Y219877D01*
X174403Y219779D01*
X174372Y219683D01*
X174338Y219588D01*
X174299Y219494D01*
X174258Y219402D01*
X174212Y219311D01*
X174163Y219222D01*
X174111Y219136D01*
X174055Y219051D01*
X173996Y218969D01*
X173934Y218889D01*
X173869Y218811D01*
X173801Y218736D01*
X173730Y218664D01*
X173657Y218594D01*
X173580Y218528D01*
X173502Y218464D01*
X173420Y218404D01*
X173337Y218347D01*
X173251Y218293D01*
X173163Y218242D01*
X173074Y218195D01*
X172982Y218151D01*
X172889Y218111D01*
X172795Y218074D01*
X172699Y218042D01*
X172602Y218013D01*
X172504Y217987D01*
X172405Y217966D01*
X172305Y217948D01*
X172205Y217935D01*
X172104Y217925D01*
X172003Y217919D01*
X171902Y217917D01*
X171902Y217918D02*
X169291Y217918D01*
X172424Y217918D02*
X174512Y213741D01*
X178378Y213741D02*
X181511Y213741D01*
X181600Y213743D01*
X181688Y213749D01*
X181776Y213758D01*
X181864Y213771D01*
X181951Y213788D01*
X182037Y213808D01*
X182122Y213833D01*
X182207Y213860D01*
X182290Y213892D01*
X182371Y213926D01*
X182451Y213965D01*
X182529Y214006D01*
X182606Y214051D01*
X182680Y214099D01*
X182753Y214150D01*
X182823Y214204D01*
X182890Y214262D01*
X182956Y214322D01*
X183018Y214384D01*
X183078Y214450D01*
X183136Y214517D01*
X183190Y214587D01*
X183241Y214660D01*
X183289Y214734D01*
X183334Y214811D01*
X183375Y214889D01*
X183414Y214969D01*
X183448Y215050D01*
X183480Y215133D01*
X183507Y215218D01*
X183532Y215303D01*
X183552Y215389D01*
X183569Y215476D01*
X183582Y215564D01*
X183591Y215652D01*
X183597Y215740D01*
X183599Y215829D01*
X183599Y216874D01*
X183597Y216963D01*
X183591Y217051D01*
X183582Y217139D01*
X183569Y217227D01*
X183552Y217314D01*
X183532Y217400D01*
X183507Y217485D01*
X183480Y217570D01*
X183448Y217653D01*
X183414Y217734D01*
X183375Y217814D01*
X183334Y217892D01*
X183289Y217969D01*
X183241Y218043D01*
X183190Y218116D01*
X183136Y218186D01*
X183078Y218253D01*
X183018Y218319D01*
X182956Y218381D01*
X182890Y218441D01*
X182823Y218499D01*
X182753Y218553D01*
X182680Y218604D01*
X182606Y218652D01*
X182529Y218697D01*
X182451Y218738D01*
X182371Y218777D01*
X182290Y218811D01*
X182207Y218843D01*
X182122Y218870D01*
X182037Y218895D01*
X181951Y218915D01*
X181864Y218932D01*
X181776Y218945D01*
X181688Y218954D01*
X181600Y218960D01*
X181511Y218962D01*
X178378Y218962D01*
X178378Y223139D01*
X183599Y223139D01*
X199941Y152019D02*
X199941Y142621D01*
X199941Y152019D02*
X202552Y152019D01*
X202653Y152017D01*
X202754Y152011D01*
X202855Y152001D01*
X202955Y151988D01*
X203055Y151970D01*
X203154Y151949D01*
X203252Y151923D01*
X203349Y151894D01*
X203445Y151862D01*
X203539Y151825D01*
X203632Y151785D01*
X203724Y151741D01*
X203813Y151694D01*
X203901Y151643D01*
X203987Y151589D01*
X204070Y151532D01*
X204152Y151472D01*
X204230Y151408D01*
X204307Y151342D01*
X204380Y151272D01*
X204451Y151200D01*
X204519Y151125D01*
X204584Y151047D01*
X204646Y150967D01*
X204705Y150885D01*
X204761Y150800D01*
X204813Y150713D01*
X204862Y150625D01*
X204908Y150534D01*
X204949Y150442D01*
X204988Y150348D01*
X205022Y150253D01*
X205053Y150157D01*
X205080Y150059D01*
X205104Y149961D01*
X205123Y149861D01*
X205139Y149761D01*
X205151Y149661D01*
X205159Y149560D01*
X205163Y149459D01*
X205163Y149357D01*
X205159Y149256D01*
X205151Y149155D01*
X205139Y149055D01*
X205123Y148955D01*
X205104Y148855D01*
X205080Y148757D01*
X205053Y148659D01*
X205022Y148563D01*
X204988Y148468D01*
X204949Y148374D01*
X204908Y148282D01*
X204862Y148191D01*
X204813Y148102D01*
X204761Y148016D01*
X204705Y147931D01*
X204646Y147849D01*
X204584Y147769D01*
X204519Y147691D01*
X204451Y147616D01*
X204380Y147544D01*
X204307Y147474D01*
X204230Y147408D01*
X204152Y147344D01*
X204070Y147284D01*
X203987Y147227D01*
X203901Y147173D01*
X203813Y147122D01*
X203724Y147075D01*
X203632Y147031D01*
X203539Y146991D01*
X203445Y146954D01*
X203349Y146922D01*
X203252Y146893D01*
X203154Y146867D01*
X203055Y146846D01*
X202955Y146828D01*
X202855Y146815D01*
X202754Y146805D01*
X202653Y146799D01*
X202552Y146797D01*
X202552Y146798D02*
X199941Y146798D01*
X203074Y146798D02*
X205162Y142621D01*
X209028Y150975D02*
X209028Y152019D01*
X214249Y152019D01*
X211638Y142621D01*
X222801Y142621D02*
X222801Y152019D01*
X225412Y152019D01*
X225513Y152017D01*
X225614Y152011D01*
X225715Y152001D01*
X225815Y151988D01*
X225915Y151970D01*
X226014Y151949D01*
X226112Y151923D01*
X226209Y151894D01*
X226305Y151862D01*
X226399Y151825D01*
X226492Y151785D01*
X226584Y151741D01*
X226673Y151694D01*
X226761Y151643D01*
X226847Y151589D01*
X226930Y151532D01*
X227012Y151472D01*
X227090Y151408D01*
X227167Y151342D01*
X227240Y151272D01*
X227311Y151200D01*
X227379Y151125D01*
X227444Y151047D01*
X227506Y150967D01*
X227565Y150885D01*
X227621Y150800D01*
X227673Y150713D01*
X227722Y150625D01*
X227768Y150534D01*
X227809Y150442D01*
X227848Y150348D01*
X227882Y150253D01*
X227913Y150157D01*
X227940Y150059D01*
X227964Y149961D01*
X227983Y149861D01*
X227999Y149761D01*
X228011Y149661D01*
X228019Y149560D01*
X228023Y149459D01*
X228023Y149357D01*
X228019Y149256D01*
X228011Y149155D01*
X227999Y149055D01*
X227983Y148955D01*
X227964Y148855D01*
X227940Y148757D01*
X227913Y148659D01*
X227882Y148563D01*
X227848Y148468D01*
X227809Y148374D01*
X227768Y148282D01*
X227722Y148191D01*
X227673Y148102D01*
X227621Y148016D01*
X227565Y147931D01*
X227506Y147849D01*
X227444Y147769D01*
X227379Y147691D01*
X227311Y147616D01*
X227240Y147544D01*
X227167Y147474D01*
X227090Y147408D01*
X227012Y147344D01*
X226930Y147284D01*
X226847Y147227D01*
X226761Y147173D01*
X226673Y147122D01*
X226584Y147075D01*
X226492Y147031D01*
X226399Y146991D01*
X226305Y146954D01*
X226209Y146922D01*
X226112Y146893D01*
X226014Y146867D01*
X225915Y146846D01*
X225815Y146828D01*
X225715Y146815D01*
X225614Y146805D01*
X225513Y146799D01*
X225412Y146797D01*
X225412Y146798D02*
X222801Y146798D01*
X225934Y146798D02*
X228022Y142621D01*
X233976Y146798D02*
X237109Y146798D01*
X233976Y146798D02*
X233887Y146800D01*
X233799Y146806D01*
X233711Y146815D01*
X233623Y146828D01*
X233536Y146845D01*
X233450Y146865D01*
X233365Y146890D01*
X233280Y146917D01*
X233197Y146949D01*
X233116Y146983D01*
X233036Y147022D01*
X232958Y147063D01*
X232881Y147108D01*
X232807Y147156D01*
X232734Y147207D01*
X232664Y147261D01*
X232597Y147319D01*
X232531Y147379D01*
X232469Y147441D01*
X232409Y147507D01*
X232351Y147574D01*
X232297Y147644D01*
X232246Y147717D01*
X232198Y147791D01*
X232153Y147868D01*
X232112Y147946D01*
X232073Y148026D01*
X232039Y148107D01*
X232007Y148190D01*
X231980Y148275D01*
X231955Y148360D01*
X231935Y148446D01*
X231918Y148533D01*
X231905Y148621D01*
X231896Y148709D01*
X231890Y148797D01*
X231888Y148886D01*
X231888Y149408D01*
X231887Y149408D02*
X231889Y149509D01*
X231895Y149610D01*
X231905Y149711D01*
X231918Y149811D01*
X231936Y149911D01*
X231957Y150010D01*
X231983Y150108D01*
X232012Y150205D01*
X232044Y150301D01*
X232081Y150395D01*
X232121Y150488D01*
X232165Y150580D01*
X232212Y150669D01*
X232263Y150757D01*
X232317Y150843D01*
X232374Y150926D01*
X232434Y151008D01*
X232498Y151086D01*
X232564Y151163D01*
X232634Y151236D01*
X232706Y151307D01*
X232781Y151375D01*
X232859Y151440D01*
X232939Y151502D01*
X233021Y151561D01*
X233106Y151617D01*
X233193Y151669D01*
X233281Y151718D01*
X233372Y151764D01*
X233464Y151805D01*
X233558Y151844D01*
X233653Y151878D01*
X233749Y151909D01*
X233847Y151936D01*
X233945Y151960D01*
X234045Y151979D01*
X234145Y151995D01*
X234245Y152007D01*
X234346Y152015D01*
X234447Y152019D01*
X234549Y152019D01*
X234650Y152015D01*
X234751Y152007D01*
X234851Y151995D01*
X234951Y151979D01*
X235051Y151960D01*
X235149Y151936D01*
X235247Y151909D01*
X235343Y151878D01*
X235438Y151844D01*
X235532Y151805D01*
X235624Y151764D01*
X235715Y151718D01*
X235804Y151669D01*
X235890Y151617D01*
X235975Y151561D01*
X236057Y151502D01*
X236137Y151440D01*
X236215Y151375D01*
X236290Y151307D01*
X236362Y151236D01*
X236432Y151163D01*
X236498Y151086D01*
X236562Y151008D01*
X236622Y150926D01*
X236679Y150843D01*
X236733Y150757D01*
X236784Y150669D01*
X236831Y150580D01*
X236875Y150488D01*
X236915Y150395D01*
X236952Y150301D01*
X236984Y150205D01*
X237013Y150108D01*
X237039Y150010D01*
X237060Y149911D01*
X237078Y149811D01*
X237091Y149711D01*
X237101Y149610D01*
X237107Y149509D01*
X237109Y149408D01*
X237109Y146798D01*
X237107Y146672D01*
X237101Y146546D01*
X237092Y146420D01*
X237079Y146295D01*
X237061Y146170D01*
X237041Y146045D01*
X237016Y145921D01*
X236988Y145798D01*
X236956Y145676D01*
X236920Y145555D01*
X236881Y145435D01*
X236838Y145317D01*
X236791Y145200D01*
X236741Y145084D01*
X236687Y144969D01*
X236631Y144857D01*
X236570Y144746D01*
X236507Y144637D01*
X236440Y144530D01*
X236370Y144425D01*
X236296Y144322D01*
X236220Y144222D01*
X236141Y144124D01*
X236059Y144028D01*
X235973Y143935D01*
X235886Y143844D01*
X235795Y143757D01*
X235702Y143671D01*
X235606Y143589D01*
X235508Y143510D01*
X235408Y143434D01*
X235305Y143360D01*
X235200Y143290D01*
X235093Y143223D01*
X234984Y143160D01*
X234873Y143099D01*
X234761Y143043D01*
X234646Y142989D01*
X234530Y142939D01*
X234413Y142892D01*
X234295Y142849D01*
X234175Y142810D01*
X234054Y142774D01*
X233932Y142742D01*
X233809Y142714D01*
X233685Y142689D01*
X233560Y142669D01*
X233435Y142651D01*
X233310Y142638D01*
X233184Y142629D01*
X233058Y142623D01*
X232932Y142621D01*
X112057Y256921D02*
X112057Y266319D01*
X114668Y266319D01*
X114769Y266317D01*
X114870Y266311D01*
X114971Y266301D01*
X115071Y266288D01*
X115171Y266270D01*
X115270Y266249D01*
X115368Y266223D01*
X115465Y266194D01*
X115561Y266162D01*
X115655Y266125D01*
X115748Y266085D01*
X115840Y266041D01*
X115929Y265994D01*
X116017Y265943D01*
X116103Y265889D01*
X116186Y265832D01*
X116268Y265772D01*
X116346Y265708D01*
X116423Y265642D01*
X116496Y265572D01*
X116567Y265500D01*
X116635Y265425D01*
X116700Y265347D01*
X116762Y265267D01*
X116821Y265185D01*
X116877Y265100D01*
X116929Y265013D01*
X116978Y264925D01*
X117024Y264834D01*
X117065Y264742D01*
X117104Y264648D01*
X117138Y264553D01*
X117169Y264457D01*
X117196Y264359D01*
X117220Y264261D01*
X117239Y264161D01*
X117255Y264061D01*
X117267Y263961D01*
X117275Y263860D01*
X117279Y263759D01*
X117279Y263657D01*
X117275Y263556D01*
X117267Y263455D01*
X117255Y263355D01*
X117239Y263255D01*
X117220Y263155D01*
X117196Y263057D01*
X117169Y262959D01*
X117138Y262863D01*
X117104Y262768D01*
X117065Y262674D01*
X117024Y262582D01*
X116978Y262491D01*
X116929Y262403D01*
X116877Y262316D01*
X116821Y262231D01*
X116762Y262149D01*
X116700Y262069D01*
X116635Y261991D01*
X116567Y261916D01*
X116496Y261844D01*
X116423Y261774D01*
X116346Y261708D01*
X116268Y261644D01*
X116186Y261584D01*
X116103Y261527D01*
X116017Y261473D01*
X115929Y261422D01*
X115840Y261375D01*
X115748Y261331D01*
X115655Y261291D01*
X115561Y261254D01*
X115465Y261222D01*
X115368Y261193D01*
X115270Y261167D01*
X115171Y261146D01*
X115071Y261128D01*
X114971Y261115D01*
X114870Y261105D01*
X114769Y261099D01*
X114668Y261097D01*
X114668Y261098D02*
X112057Y261098D01*
X115190Y261098D02*
X117278Y256921D01*
X121144Y264231D02*
X123754Y266319D01*
X123754Y256921D01*
X121144Y256921D02*
X126365Y256921D01*
X130288Y259009D02*
X132376Y266319D01*
X130288Y259009D02*
X135509Y259009D01*
X133943Y261098D02*
X133943Y256921D01*
D13*
X64100Y225080D02*
X3600Y225080D01*
X3600Y293080D01*
X64100Y293080D01*
X64100Y225080D01*
X56100Y225580D02*
X56100Y292080D01*
X6600Y292080D02*
X6600Y226080D01*
X19100Y226080D02*
X19100Y292080D01*
D12*
X18100Y286580D02*
X8100Y286580D01*
X8100Y266580D02*
X18100Y266580D01*
X18100Y251580D02*
X8100Y251580D01*
X8100Y231580D02*
X18100Y231580D01*
D13*
X27600Y241580D02*
X27603Y241838D01*
X27613Y242095D01*
X27628Y242352D01*
X27651Y242609D01*
X27679Y242865D01*
X27714Y243121D01*
X27755Y243375D01*
X27802Y243628D01*
X27855Y243881D01*
X27915Y244131D01*
X27980Y244380D01*
X28052Y244628D01*
X28130Y244874D01*
X28214Y245117D01*
X28304Y245359D01*
X28399Y245598D01*
X28501Y245835D01*
X28608Y246069D01*
X28721Y246301D01*
X28840Y246530D01*
X28964Y246755D01*
X29094Y246978D01*
X29229Y247197D01*
X29370Y247413D01*
X29515Y247626D01*
X29666Y247835D01*
X29822Y248040D01*
X29983Y248241D01*
X30149Y248438D01*
X30320Y248631D01*
X30495Y248820D01*
X30675Y249005D01*
X30860Y249185D01*
X31049Y249360D01*
X31242Y249531D01*
X31439Y249697D01*
X31640Y249858D01*
X31845Y250014D01*
X32054Y250165D01*
X32267Y250310D01*
X32483Y250451D01*
X32702Y250586D01*
X32925Y250716D01*
X33150Y250840D01*
X33379Y250959D01*
X33611Y251072D01*
X33845Y251179D01*
X34082Y251281D01*
X34321Y251376D01*
X34563Y251466D01*
X34806Y251550D01*
X35052Y251628D01*
X35300Y251700D01*
X35549Y251765D01*
X35799Y251825D01*
X36052Y251878D01*
X36305Y251925D01*
X36559Y251966D01*
X36815Y252001D01*
X37071Y252029D01*
X37328Y252052D01*
X37585Y252067D01*
X37842Y252077D01*
X38100Y252080D01*
X38358Y252077D01*
X38615Y252067D01*
X38872Y252052D01*
X39129Y252029D01*
X39385Y252001D01*
X39641Y251966D01*
X39895Y251925D01*
X40148Y251878D01*
X40401Y251825D01*
X40651Y251765D01*
X40900Y251700D01*
X41148Y251628D01*
X41394Y251550D01*
X41637Y251466D01*
X41879Y251376D01*
X42118Y251281D01*
X42355Y251179D01*
X42589Y251072D01*
X42821Y250959D01*
X43050Y250840D01*
X43275Y250716D01*
X43498Y250586D01*
X43717Y250451D01*
X43933Y250310D01*
X44146Y250165D01*
X44355Y250014D01*
X44560Y249858D01*
X44761Y249697D01*
X44958Y249531D01*
X45151Y249360D01*
X45340Y249185D01*
X45525Y249005D01*
X45705Y248820D01*
X45880Y248631D01*
X46051Y248438D01*
X46217Y248241D01*
X46378Y248040D01*
X46534Y247835D01*
X46685Y247626D01*
X46830Y247413D01*
X46971Y247197D01*
X47106Y246978D01*
X47236Y246755D01*
X47360Y246530D01*
X47479Y246301D01*
X47592Y246069D01*
X47699Y245835D01*
X47801Y245598D01*
X47896Y245359D01*
X47986Y245117D01*
X48070Y244874D01*
X48148Y244628D01*
X48220Y244380D01*
X48285Y244131D01*
X48345Y243881D01*
X48398Y243628D01*
X48445Y243375D01*
X48486Y243121D01*
X48521Y242865D01*
X48549Y242609D01*
X48572Y242352D01*
X48587Y242095D01*
X48597Y241838D01*
X48600Y241580D01*
X48597Y241322D01*
X48587Y241065D01*
X48572Y240808D01*
X48549Y240551D01*
X48521Y240295D01*
X48486Y240039D01*
X48445Y239785D01*
X48398Y239532D01*
X48345Y239279D01*
X48285Y239029D01*
X48220Y238780D01*
X48148Y238532D01*
X48070Y238286D01*
X47986Y238043D01*
X47896Y237801D01*
X47801Y237562D01*
X47699Y237325D01*
X47592Y237091D01*
X47479Y236859D01*
X47360Y236630D01*
X47236Y236405D01*
X47106Y236182D01*
X46971Y235963D01*
X46830Y235747D01*
X46685Y235534D01*
X46534Y235325D01*
X46378Y235120D01*
X46217Y234919D01*
X46051Y234722D01*
X45880Y234529D01*
X45705Y234340D01*
X45525Y234155D01*
X45340Y233975D01*
X45151Y233800D01*
X44958Y233629D01*
X44761Y233463D01*
X44560Y233302D01*
X44355Y233146D01*
X44146Y232995D01*
X43933Y232850D01*
X43717Y232709D01*
X43498Y232574D01*
X43275Y232444D01*
X43050Y232320D01*
X42821Y232201D01*
X42589Y232088D01*
X42355Y231981D01*
X42118Y231879D01*
X41879Y231784D01*
X41637Y231694D01*
X41394Y231610D01*
X41148Y231532D01*
X40900Y231460D01*
X40651Y231395D01*
X40401Y231335D01*
X40148Y231282D01*
X39895Y231235D01*
X39641Y231194D01*
X39385Y231159D01*
X39129Y231131D01*
X38872Y231108D01*
X38615Y231093D01*
X38358Y231083D01*
X38100Y231080D01*
X37842Y231083D01*
X37585Y231093D01*
X37328Y231108D01*
X37071Y231131D01*
X36815Y231159D01*
X36559Y231194D01*
X36305Y231235D01*
X36052Y231282D01*
X35799Y231335D01*
X35549Y231395D01*
X35300Y231460D01*
X35052Y231532D01*
X34806Y231610D01*
X34563Y231694D01*
X34321Y231784D01*
X34082Y231879D01*
X33845Y231981D01*
X33611Y232088D01*
X33379Y232201D01*
X33150Y232320D01*
X32925Y232444D01*
X32702Y232574D01*
X32483Y232709D01*
X32267Y232850D01*
X32054Y232995D01*
X31845Y233146D01*
X31640Y233302D01*
X31439Y233463D01*
X31242Y233629D01*
X31049Y233800D01*
X30860Y233975D01*
X30675Y234155D01*
X30495Y234340D01*
X30320Y234529D01*
X30149Y234722D01*
X29983Y234919D01*
X29822Y235120D01*
X29666Y235325D01*
X29515Y235534D01*
X29370Y235747D01*
X29229Y235963D01*
X29094Y236182D01*
X28964Y236405D01*
X28840Y236630D01*
X28721Y236859D01*
X28608Y237091D01*
X28501Y237325D01*
X28399Y237562D01*
X28304Y237801D01*
X28214Y238043D01*
X28130Y238286D01*
X28052Y238532D01*
X27980Y238780D01*
X27915Y239029D01*
X27855Y239279D01*
X27802Y239532D01*
X27755Y239785D01*
X27714Y240039D01*
X27679Y240295D01*
X27651Y240551D01*
X27628Y240808D01*
X27613Y241065D01*
X27603Y241322D01*
X27600Y241580D01*
X27600Y276580D02*
X27603Y276838D01*
X27613Y277095D01*
X27628Y277352D01*
X27651Y277609D01*
X27679Y277865D01*
X27714Y278121D01*
X27755Y278375D01*
X27802Y278628D01*
X27855Y278881D01*
X27915Y279131D01*
X27980Y279380D01*
X28052Y279628D01*
X28130Y279874D01*
X28214Y280117D01*
X28304Y280359D01*
X28399Y280598D01*
X28501Y280835D01*
X28608Y281069D01*
X28721Y281301D01*
X28840Y281530D01*
X28964Y281755D01*
X29094Y281978D01*
X29229Y282197D01*
X29370Y282413D01*
X29515Y282626D01*
X29666Y282835D01*
X29822Y283040D01*
X29983Y283241D01*
X30149Y283438D01*
X30320Y283631D01*
X30495Y283820D01*
X30675Y284005D01*
X30860Y284185D01*
X31049Y284360D01*
X31242Y284531D01*
X31439Y284697D01*
X31640Y284858D01*
X31845Y285014D01*
X32054Y285165D01*
X32267Y285310D01*
X32483Y285451D01*
X32702Y285586D01*
X32925Y285716D01*
X33150Y285840D01*
X33379Y285959D01*
X33611Y286072D01*
X33845Y286179D01*
X34082Y286281D01*
X34321Y286376D01*
X34563Y286466D01*
X34806Y286550D01*
X35052Y286628D01*
X35300Y286700D01*
X35549Y286765D01*
X35799Y286825D01*
X36052Y286878D01*
X36305Y286925D01*
X36559Y286966D01*
X36815Y287001D01*
X37071Y287029D01*
X37328Y287052D01*
X37585Y287067D01*
X37842Y287077D01*
X38100Y287080D01*
X38358Y287077D01*
X38615Y287067D01*
X38872Y287052D01*
X39129Y287029D01*
X39385Y287001D01*
X39641Y286966D01*
X39895Y286925D01*
X40148Y286878D01*
X40401Y286825D01*
X40651Y286765D01*
X40900Y286700D01*
X41148Y286628D01*
X41394Y286550D01*
X41637Y286466D01*
X41879Y286376D01*
X42118Y286281D01*
X42355Y286179D01*
X42589Y286072D01*
X42821Y285959D01*
X43050Y285840D01*
X43275Y285716D01*
X43498Y285586D01*
X43717Y285451D01*
X43933Y285310D01*
X44146Y285165D01*
X44355Y285014D01*
X44560Y284858D01*
X44761Y284697D01*
X44958Y284531D01*
X45151Y284360D01*
X45340Y284185D01*
X45525Y284005D01*
X45705Y283820D01*
X45880Y283631D01*
X46051Y283438D01*
X46217Y283241D01*
X46378Y283040D01*
X46534Y282835D01*
X46685Y282626D01*
X46830Y282413D01*
X46971Y282197D01*
X47106Y281978D01*
X47236Y281755D01*
X47360Y281530D01*
X47479Y281301D01*
X47592Y281069D01*
X47699Y280835D01*
X47801Y280598D01*
X47896Y280359D01*
X47986Y280117D01*
X48070Y279874D01*
X48148Y279628D01*
X48220Y279380D01*
X48285Y279131D01*
X48345Y278881D01*
X48398Y278628D01*
X48445Y278375D01*
X48486Y278121D01*
X48521Y277865D01*
X48549Y277609D01*
X48572Y277352D01*
X48587Y277095D01*
X48597Y276838D01*
X48600Y276580D01*
X48597Y276322D01*
X48587Y276065D01*
X48572Y275808D01*
X48549Y275551D01*
X48521Y275295D01*
X48486Y275039D01*
X48445Y274785D01*
X48398Y274532D01*
X48345Y274279D01*
X48285Y274029D01*
X48220Y273780D01*
X48148Y273532D01*
X48070Y273286D01*
X47986Y273043D01*
X47896Y272801D01*
X47801Y272562D01*
X47699Y272325D01*
X47592Y272091D01*
X47479Y271859D01*
X47360Y271630D01*
X47236Y271405D01*
X47106Y271182D01*
X46971Y270963D01*
X46830Y270747D01*
X46685Y270534D01*
X46534Y270325D01*
X46378Y270120D01*
X46217Y269919D01*
X46051Y269722D01*
X45880Y269529D01*
X45705Y269340D01*
X45525Y269155D01*
X45340Y268975D01*
X45151Y268800D01*
X44958Y268629D01*
X44761Y268463D01*
X44560Y268302D01*
X44355Y268146D01*
X44146Y267995D01*
X43933Y267850D01*
X43717Y267709D01*
X43498Y267574D01*
X43275Y267444D01*
X43050Y267320D01*
X42821Y267201D01*
X42589Y267088D01*
X42355Y266981D01*
X42118Y266879D01*
X41879Y266784D01*
X41637Y266694D01*
X41394Y266610D01*
X41148Y266532D01*
X40900Y266460D01*
X40651Y266395D01*
X40401Y266335D01*
X40148Y266282D01*
X39895Y266235D01*
X39641Y266194D01*
X39385Y266159D01*
X39129Y266131D01*
X38872Y266108D01*
X38615Y266093D01*
X38358Y266083D01*
X38100Y266080D01*
X37842Y266083D01*
X37585Y266093D01*
X37328Y266108D01*
X37071Y266131D01*
X36815Y266159D01*
X36559Y266194D01*
X36305Y266235D01*
X36052Y266282D01*
X35799Y266335D01*
X35549Y266395D01*
X35300Y266460D01*
X35052Y266532D01*
X34806Y266610D01*
X34563Y266694D01*
X34321Y266784D01*
X34082Y266879D01*
X33845Y266981D01*
X33611Y267088D01*
X33379Y267201D01*
X33150Y267320D01*
X32925Y267444D01*
X32702Y267574D01*
X32483Y267709D01*
X32267Y267850D01*
X32054Y267995D01*
X31845Y268146D01*
X31640Y268302D01*
X31439Y268463D01*
X31242Y268629D01*
X31049Y268800D01*
X30860Y268975D01*
X30675Y269155D01*
X30495Y269340D01*
X30320Y269529D01*
X30149Y269722D01*
X29983Y269919D01*
X29822Y270120D01*
X29666Y270325D01*
X29515Y270534D01*
X29370Y270747D01*
X29229Y270963D01*
X29094Y271182D01*
X28964Y271405D01*
X28840Y271630D01*
X28721Y271859D01*
X28608Y272091D01*
X28501Y272325D01*
X28399Y272562D01*
X28304Y272801D01*
X28214Y273043D01*
X28130Y273286D01*
X28052Y273532D01*
X27980Y273780D01*
X27915Y274029D01*
X27855Y274279D01*
X27802Y274532D01*
X27755Y274785D01*
X27714Y275039D01*
X27679Y275295D01*
X27651Y275551D01*
X27628Y275808D01*
X27613Y276065D01*
X27603Y276322D01*
X27600Y276580D01*
D10*
X76496Y238379D02*
X70231Y228981D01*
X76496Y228981D02*
X70231Y238379D01*
X82769Y238380D02*
X82864Y238378D01*
X82958Y238372D01*
X83052Y238363D01*
X83146Y238350D01*
X83239Y238333D01*
X83331Y238312D01*
X83423Y238287D01*
X83513Y238259D01*
X83602Y238227D01*
X83690Y238192D01*
X83776Y238153D01*
X83861Y238111D01*
X83944Y238065D01*
X84025Y238016D01*
X84104Y237964D01*
X84181Y237909D01*
X84255Y237850D01*
X84327Y237789D01*
X84397Y237725D01*
X84464Y237658D01*
X84528Y237588D01*
X84589Y237516D01*
X84648Y237442D01*
X84703Y237365D01*
X84755Y237286D01*
X84804Y237205D01*
X84850Y237122D01*
X84892Y237037D01*
X84931Y236951D01*
X84966Y236863D01*
X84998Y236774D01*
X85026Y236684D01*
X85051Y236592D01*
X85072Y236500D01*
X85089Y236407D01*
X85102Y236313D01*
X85111Y236219D01*
X85117Y236125D01*
X85119Y236030D01*
X82769Y238379D02*
X82661Y238377D01*
X82552Y238371D01*
X82444Y238361D01*
X82337Y238348D01*
X82230Y238330D01*
X82123Y238309D01*
X82018Y238284D01*
X81913Y238255D01*
X81810Y238223D01*
X81708Y238186D01*
X81607Y238146D01*
X81508Y238103D01*
X81410Y238056D01*
X81314Y238005D01*
X81220Y237951D01*
X81128Y237894D01*
X81038Y237833D01*
X80950Y237769D01*
X80865Y237703D01*
X80782Y237633D01*
X80702Y237560D01*
X80624Y237484D01*
X80549Y237406D01*
X80477Y237325D01*
X80408Y237241D01*
X80342Y237155D01*
X80279Y237067D01*
X80220Y236976D01*
X80163Y236884D01*
X80110Y236789D01*
X80061Y236693D01*
X80015Y236594D01*
X79972Y236495D01*
X79933Y236393D01*
X79898Y236291D01*
X84336Y234202D02*
X84405Y234271D01*
X84471Y234342D01*
X84535Y234415D01*
X84596Y234491D01*
X84654Y234570D01*
X84708Y234650D01*
X84760Y234733D01*
X84808Y234817D01*
X84854Y234903D01*
X84895Y234991D01*
X84934Y235081D01*
X84969Y235172D01*
X85000Y235264D01*
X85028Y235357D01*
X85052Y235451D01*
X85072Y235546D01*
X85089Y235642D01*
X85102Y235739D01*
X85111Y235836D01*
X85117Y235933D01*
X85119Y236030D01*
X84335Y234202D02*
X79897Y228981D01*
X85118Y228981D01*
D13*
X64100Y6640D02*
X3600Y6640D01*
X3600Y74640D01*
X64100Y74640D01*
X64100Y6640D01*
X56100Y7140D02*
X56100Y73640D01*
X6600Y73640D02*
X6600Y7640D01*
X19100Y7640D02*
X19100Y73640D01*
D12*
X18100Y68140D02*
X8100Y68140D01*
X8100Y48140D02*
X18100Y48140D01*
X18100Y33140D02*
X8100Y33140D01*
X8100Y13140D02*
X18100Y13140D01*
D13*
X27600Y23140D02*
X27603Y23398D01*
X27613Y23655D01*
X27628Y23912D01*
X27651Y24169D01*
X27679Y24425D01*
X27714Y24681D01*
X27755Y24935D01*
X27802Y25188D01*
X27855Y25441D01*
X27915Y25691D01*
X27980Y25940D01*
X28052Y26188D01*
X28130Y26434D01*
X28214Y26677D01*
X28304Y26919D01*
X28399Y27158D01*
X28501Y27395D01*
X28608Y27629D01*
X28721Y27861D01*
X28840Y28090D01*
X28964Y28315D01*
X29094Y28538D01*
X29229Y28757D01*
X29370Y28973D01*
X29515Y29186D01*
X29666Y29395D01*
X29822Y29600D01*
X29983Y29801D01*
X30149Y29998D01*
X30320Y30191D01*
X30495Y30380D01*
X30675Y30565D01*
X30860Y30745D01*
X31049Y30920D01*
X31242Y31091D01*
X31439Y31257D01*
X31640Y31418D01*
X31845Y31574D01*
X32054Y31725D01*
X32267Y31870D01*
X32483Y32011D01*
X32702Y32146D01*
X32925Y32276D01*
X33150Y32400D01*
X33379Y32519D01*
X33611Y32632D01*
X33845Y32739D01*
X34082Y32841D01*
X34321Y32936D01*
X34563Y33026D01*
X34806Y33110D01*
X35052Y33188D01*
X35300Y33260D01*
X35549Y33325D01*
X35799Y33385D01*
X36052Y33438D01*
X36305Y33485D01*
X36559Y33526D01*
X36815Y33561D01*
X37071Y33589D01*
X37328Y33612D01*
X37585Y33627D01*
X37842Y33637D01*
X38100Y33640D01*
X38358Y33637D01*
X38615Y33627D01*
X38872Y33612D01*
X39129Y33589D01*
X39385Y33561D01*
X39641Y33526D01*
X39895Y33485D01*
X40148Y33438D01*
X40401Y33385D01*
X40651Y33325D01*
X40900Y33260D01*
X41148Y33188D01*
X41394Y33110D01*
X41637Y33026D01*
X41879Y32936D01*
X42118Y32841D01*
X42355Y32739D01*
X42589Y32632D01*
X42821Y32519D01*
X43050Y32400D01*
X43275Y32276D01*
X43498Y32146D01*
X43717Y32011D01*
X43933Y31870D01*
X44146Y31725D01*
X44355Y31574D01*
X44560Y31418D01*
X44761Y31257D01*
X44958Y31091D01*
X45151Y30920D01*
X45340Y30745D01*
X45525Y30565D01*
X45705Y30380D01*
X45880Y30191D01*
X46051Y29998D01*
X46217Y29801D01*
X46378Y29600D01*
X46534Y29395D01*
X46685Y29186D01*
X46830Y28973D01*
X46971Y28757D01*
X47106Y28538D01*
X47236Y28315D01*
X47360Y28090D01*
X47479Y27861D01*
X47592Y27629D01*
X47699Y27395D01*
X47801Y27158D01*
X47896Y26919D01*
X47986Y26677D01*
X48070Y26434D01*
X48148Y26188D01*
X48220Y25940D01*
X48285Y25691D01*
X48345Y25441D01*
X48398Y25188D01*
X48445Y24935D01*
X48486Y24681D01*
X48521Y24425D01*
X48549Y24169D01*
X48572Y23912D01*
X48587Y23655D01*
X48597Y23398D01*
X48600Y23140D01*
X48597Y22882D01*
X48587Y22625D01*
X48572Y22368D01*
X48549Y22111D01*
X48521Y21855D01*
X48486Y21599D01*
X48445Y21345D01*
X48398Y21092D01*
X48345Y20839D01*
X48285Y20589D01*
X48220Y20340D01*
X48148Y20092D01*
X48070Y19846D01*
X47986Y19603D01*
X47896Y19361D01*
X47801Y19122D01*
X47699Y18885D01*
X47592Y18651D01*
X47479Y18419D01*
X47360Y18190D01*
X47236Y17965D01*
X47106Y17742D01*
X46971Y17523D01*
X46830Y17307D01*
X46685Y17094D01*
X46534Y16885D01*
X46378Y16680D01*
X46217Y16479D01*
X46051Y16282D01*
X45880Y16089D01*
X45705Y15900D01*
X45525Y15715D01*
X45340Y15535D01*
X45151Y15360D01*
X44958Y15189D01*
X44761Y15023D01*
X44560Y14862D01*
X44355Y14706D01*
X44146Y14555D01*
X43933Y14410D01*
X43717Y14269D01*
X43498Y14134D01*
X43275Y14004D01*
X43050Y13880D01*
X42821Y13761D01*
X42589Y13648D01*
X42355Y13541D01*
X42118Y13439D01*
X41879Y13344D01*
X41637Y13254D01*
X41394Y13170D01*
X41148Y13092D01*
X40900Y13020D01*
X40651Y12955D01*
X40401Y12895D01*
X40148Y12842D01*
X39895Y12795D01*
X39641Y12754D01*
X39385Y12719D01*
X39129Y12691D01*
X38872Y12668D01*
X38615Y12653D01*
X38358Y12643D01*
X38100Y12640D01*
X37842Y12643D01*
X37585Y12653D01*
X37328Y12668D01*
X37071Y12691D01*
X36815Y12719D01*
X36559Y12754D01*
X36305Y12795D01*
X36052Y12842D01*
X35799Y12895D01*
X35549Y12955D01*
X35300Y13020D01*
X35052Y13092D01*
X34806Y13170D01*
X34563Y13254D01*
X34321Y13344D01*
X34082Y13439D01*
X33845Y13541D01*
X33611Y13648D01*
X33379Y13761D01*
X33150Y13880D01*
X32925Y14004D01*
X32702Y14134D01*
X32483Y14269D01*
X32267Y14410D01*
X32054Y14555D01*
X31845Y14706D01*
X31640Y14862D01*
X31439Y15023D01*
X31242Y15189D01*
X31049Y15360D01*
X30860Y15535D01*
X30675Y15715D01*
X30495Y15900D01*
X30320Y16089D01*
X30149Y16282D01*
X29983Y16479D01*
X29822Y16680D01*
X29666Y16885D01*
X29515Y17094D01*
X29370Y17307D01*
X29229Y17523D01*
X29094Y17742D01*
X28964Y17965D01*
X28840Y18190D01*
X28721Y18419D01*
X28608Y18651D01*
X28501Y18885D01*
X28399Y19122D01*
X28304Y19361D01*
X28214Y19603D01*
X28130Y19846D01*
X28052Y20092D01*
X27980Y20340D01*
X27915Y20589D01*
X27855Y20839D01*
X27802Y21092D01*
X27755Y21345D01*
X27714Y21599D01*
X27679Y21855D01*
X27651Y22111D01*
X27628Y22368D01*
X27613Y22625D01*
X27603Y22882D01*
X27600Y23140D01*
X27600Y58140D02*
X27603Y58398D01*
X27613Y58655D01*
X27628Y58912D01*
X27651Y59169D01*
X27679Y59425D01*
X27714Y59681D01*
X27755Y59935D01*
X27802Y60188D01*
X27855Y60441D01*
X27915Y60691D01*
X27980Y60940D01*
X28052Y61188D01*
X28130Y61434D01*
X28214Y61677D01*
X28304Y61919D01*
X28399Y62158D01*
X28501Y62395D01*
X28608Y62629D01*
X28721Y62861D01*
X28840Y63090D01*
X28964Y63315D01*
X29094Y63538D01*
X29229Y63757D01*
X29370Y63973D01*
X29515Y64186D01*
X29666Y64395D01*
X29822Y64600D01*
X29983Y64801D01*
X30149Y64998D01*
X30320Y65191D01*
X30495Y65380D01*
X30675Y65565D01*
X30860Y65745D01*
X31049Y65920D01*
X31242Y66091D01*
X31439Y66257D01*
X31640Y66418D01*
X31845Y66574D01*
X32054Y66725D01*
X32267Y66870D01*
X32483Y67011D01*
X32702Y67146D01*
X32925Y67276D01*
X33150Y67400D01*
X33379Y67519D01*
X33611Y67632D01*
X33845Y67739D01*
X34082Y67841D01*
X34321Y67936D01*
X34563Y68026D01*
X34806Y68110D01*
X35052Y68188D01*
X35300Y68260D01*
X35549Y68325D01*
X35799Y68385D01*
X36052Y68438D01*
X36305Y68485D01*
X36559Y68526D01*
X36815Y68561D01*
X37071Y68589D01*
X37328Y68612D01*
X37585Y68627D01*
X37842Y68637D01*
X38100Y68640D01*
X38358Y68637D01*
X38615Y68627D01*
X38872Y68612D01*
X39129Y68589D01*
X39385Y68561D01*
X39641Y68526D01*
X39895Y68485D01*
X40148Y68438D01*
X40401Y68385D01*
X40651Y68325D01*
X40900Y68260D01*
X41148Y68188D01*
X41394Y68110D01*
X41637Y68026D01*
X41879Y67936D01*
X42118Y67841D01*
X42355Y67739D01*
X42589Y67632D01*
X42821Y67519D01*
X43050Y67400D01*
X43275Y67276D01*
X43498Y67146D01*
X43717Y67011D01*
X43933Y66870D01*
X44146Y66725D01*
X44355Y66574D01*
X44560Y66418D01*
X44761Y66257D01*
X44958Y66091D01*
X45151Y65920D01*
X45340Y65745D01*
X45525Y65565D01*
X45705Y65380D01*
X45880Y65191D01*
X46051Y64998D01*
X46217Y64801D01*
X46378Y64600D01*
X46534Y64395D01*
X46685Y64186D01*
X46830Y63973D01*
X46971Y63757D01*
X47106Y63538D01*
X47236Y63315D01*
X47360Y63090D01*
X47479Y62861D01*
X47592Y62629D01*
X47699Y62395D01*
X47801Y62158D01*
X47896Y61919D01*
X47986Y61677D01*
X48070Y61434D01*
X48148Y61188D01*
X48220Y60940D01*
X48285Y60691D01*
X48345Y60441D01*
X48398Y60188D01*
X48445Y59935D01*
X48486Y59681D01*
X48521Y59425D01*
X48549Y59169D01*
X48572Y58912D01*
X48587Y58655D01*
X48597Y58398D01*
X48600Y58140D01*
X48597Y57882D01*
X48587Y57625D01*
X48572Y57368D01*
X48549Y57111D01*
X48521Y56855D01*
X48486Y56599D01*
X48445Y56345D01*
X48398Y56092D01*
X48345Y55839D01*
X48285Y55589D01*
X48220Y55340D01*
X48148Y55092D01*
X48070Y54846D01*
X47986Y54603D01*
X47896Y54361D01*
X47801Y54122D01*
X47699Y53885D01*
X47592Y53651D01*
X47479Y53419D01*
X47360Y53190D01*
X47236Y52965D01*
X47106Y52742D01*
X46971Y52523D01*
X46830Y52307D01*
X46685Y52094D01*
X46534Y51885D01*
X46378Y51680D01*
X46217Y51479D01*
X46051Y51282D01*
X45880Y51089D01*
X45705Y50900D01*
X45525Y50715D01*
X45340Y50535D01*
X45151Y50360D01*
X44958Y50189D01*
X44761Y50023D01*
X44560Y49862D01*
X44355Y49706D01*
X44146Y49555D01*
X43933Y49410D01*
X43717Y49269D01*
X43498Y49134D01*
X43275Y49004D01*
X43050Y48880D01*
X42821Y48761D01*
X42589Y48648D01*
X42355Y48541D01*
X42118Y48439D01*
X41879Y48344D01*
X41637Y48254D01*
X41394Y48170D01*
X41148Y48092D01*
X40900Y48020D01*
X40651Y47955D01*
X40401Y47895D01*
X40148Y47842D01*
X39895Y47795D01*
X39641Y47754D01*
X39385Y47719D01*
X39129Y47691D01*
X38872Y47668D01*
X38615Y47653D01*
X38358Y47643D01*
X38100Y47640D01*
X37842Y47643D01*
X37585Y47653D01*
X37328Y47668D01*
X37071Y47691D01*
X36815Y47719D01*
X36559Y47754D01*
X36305Y47795D01*
X36052Y47842D01*
X35799Y47895D01*
X35549Y47955D01*
X35300Y48020D01*
X35052Y48092D01*
X34806Y48170D01*
X34563Y48254D01*
X34321Y48344D01*
X34082Y48439D01*
X33845Y48541D01*
X33611Y48648D01*
X33379Y48761D01*
X33150Y48880D01*
X32925Y49004D01*
X32702Y49134D01*
X32483Y49269D01*
X32267Y49410D01*
X32054Y49555D01*
X31845Y49706D01*
X31640Y49862D01*
X31439Y50023D01*
X31242Y50189D01*
X31049Y50360D01*
X30860Y50535D01*
X30675Y50715D01*
X30495Y50900D01*
X30320Y51089D01*
X30149Y51282D01*
X29983Y51479D01*
X29822Y51680D01*
X29666Y51885D01*
X29515Y52094D01*
X29370Y52307D01*
X29229Y52523D01*
X29094Y52742D01*
X28964Y52965D01*
X28840Y53190D01*
X28721Y53419D01*
X28608Y53651D01*
X28501Y53885D01*
X28399Y54122D01*
X28304Y54361D01*
X28214Y54603D01*
X28130Y54846D01*
X28052Y55092D01*
X27980Y55340D01*
X27915Y55589D01*
X27855Y55839D01*
X27802Y56092D01*
X27755Y56345D01*
X27714Y56599D01*
X27679Y56855D01*
X27651Y57111D01*
X27628Y57368D01*
X27613Y57625D01*
X27603Y57882D01*
X27600Y58140D01*
D10*
X70231Y53721D02*
X76496Y63119D01*
X70231Y63119D02*
X76496Y53721D01*
X79897Y61031D02*
X82508Y63119D01*
X82508Y53721D01*
X85118Y53721D02*
X79897Y53721D01*
D13*
X521760Y68870D02*
X582260Y68870D01*
X521760Y68870D02*
X521760Y136870D01*
X582260Y136870D01*
X582260Y68870D01*
X574260Y69370D02*
X574260Y135870D01*
X524760Y135870D02*
X524760Y69870D01*
X537260Y69870D02*
X537260Y135870D01*
D12*
X536260Y130370D02*
X526260Y130370D01*
X526260Y110370D02*
X536260Y110370D01*
X536260Y95370D02*
X526260Y95370D01*
X526260Y75370D02*
X536260Y75370D01*
D13*
X545760Y85370D02*
X545763Y85628D01*
X545773Y85885D01*
X545788Y86142D01*
X545811Y86399D01*
X545839Y86655D01*
X545874Y86911D01*
X545915Y87165D01*
X545962Y87418D01*
X546015Y87671D01*
X546075Y87921D01*
X546140Y88170D01*
X546212Y88418D01*
X546290Y88664D01*
X546374Y88907D01*
X546464Y89149D01*
X546559Y89388D01*
X546661Y89625D01*
X546768Y89859D01*
X546881Y90091D01*
X547000Y90320D01*
X547124Y90545D01*
X547254Y90768D01*
X547389Y90987D01*
X547530Y91203D01*
X547675Y91416D01*
X547826Y91625D01*
X547982Y91830D01*
X548143Y92031D01*
X548309Y92228D01*
X548480Y92421D01*
X548655Y92610D01*
X548835Y92795D01*
X549020Y92975D01*
X549209Y93150D01*
X549402Y93321D01*
X549599Y93487D01*
X549800Y93648D01*
X550005Y93804D01*
X550214Y93955D01*
X550427Y94100D01*
X550643Y94241D01*
X550862Y94376D01*
X551085Y94506D01*
X551310Y94630D01*
X551539Y94749D01*
X551771Y94862D01*
X552005Y94969D01*
X552242Y95071D01*
X552481Y95166D01*
X552723Y95256D01*
X552966Y95340D01*
X553212Y95418D01*
X553460Y95490D01*
X553709Y95555D01*
X553959Y95615D01*
X554212Y95668D01*
X554465Y95715D01*
X554719Y95756D01*
X554975Y95791D01*
X555231Y95819D01*
X555488Y95842D01*
X555745Y95857D01*
X556002Y95867D01*
X556260Y95870D01*
X556518Y95867D01*
X556775Y95857D01*
X557032Y95842D01*
X557289Y95819D01*
X557545Y95791D01*
X557801Y95756D01*
X558055Y95715D01*
X558308Y95668D01*
X558561Y95615D01*
X558811Y95555D01*
X559060Y95490D01*
X559308Y95418D01*
X559554Y95340D01*
X559797Y95256D01*
X560039Y95166D01*
X560278Y95071D01*
X560515Y94969D01*
X560749Y94862D01*
X560981Y94749D01*
X561210Y94630D01*
X561435Y94506D01*
X561658Y94376D01*
X561877Y94241D01*
X562093Y94100D01*
X562306Y93955D01*
X562515Y93804D01*
X562720Y93648D01*
X562921Y93487D01*
X563118Y93321D01*
X563311Y93150D01*
X563500Y92975D01*
X563685Y92795D01*
X563865Y92610D01*
X564040Y92421D01*
X564211Y92228D01*
X564377Y92031D01*
X564538Y91830D01*
X564694Y91625D01*
X564845Y91416D01*
X564990Y91203D01*
X565131Y90987D01*
X565266Y90768D01*
X565396Y90545D01*
X565520Y90320D01*
X565639Y90091D01*
X565752Y89859D01*
X565859Y89625D01*
X565961Y89388D01*
X566056Y89149D01*
X566146Y88907D01*
X566230Y88664D01*
X566308Y88418D01*
X566380Y88170D01*
X566445Y87921D01*
X566505Y87671D01*
X566558Y87418D01*
X566605Y87165D01*
X566646Y86911D01*
X566681Y86655D01*
X566709Y86399D01*
X566732Y86142D01*
X566747Y85885D01*
X566757Y85628D01*
X566760Y85370D01*
X566757Y85112D01*
X566747Y84855D01*
X566732Y84598D01*
X566709Y84341D01*
X566681Y84085D01*
X566646Y83829D01*
X566605Y83575D01*
X566558Y83322D01*
X566505Y83069D01*
X566445Y82819D01*
X566380Y82570D01*
X566308Y82322D01*
X566230Y82076D01*
X566146Y81833D01*
X566056Y81591D01*
X565961Y81352D01*
X565859Y81115D01*
X565752Y80881D01*
X565639Y80649D01*
X565520Y80420D01*
X565396Y80195D01*
X565266Y79972D01*
X565131Y79753D01*
X564990Y79537D01*
X564845Y79324D01*
X564694Y79115D01*
X564538Y78910D01*
X564377Y78709D01*
X564211Y78512D01*
X564040Y78319D01*
X563865Y78130D01*
X563685Y77945D01*
X563500Y77765D01*
X563311Y77590D01*
X563118Y77419D01*
X562921Y77253D01*
X562720Y77092D01*
X562515Y76936D01*
X562306Y76785D01*
X562093Y76640D01*
X561877Y76499D01*
X561658Y76364D01*
X561435Y76234D01*
X561210Y76110D01*
X560981Y75991D01*
X560749Y75878D01*
X560515Y75771D01*
X560278Y75669D01*
X560039Y75574D01*
X559797Y75484D01*
X559554Y75400D01*
X559308Y75322D01*
X559060Y75250D01*
X558811Y75185D01*
X558561Y75125D01*
X558308Y75072D01*
X558055Y75025D01*
X557801Y74984D01*
X557545Y74949D01*
X557289Y74921D01*
X557032Y74898D01*
X556775Y74883D01*
X556518Y74873D01*
X556260Y74870D01*
X556002Y74873D01*
X555745Y74883D01*
X555488Y74898D01*
X555231Y74921D01*
X554975Y74949D01*
X554719Y74984D01*
X554465Y75025D01*
X554212Y75072D01*
X553959Y75125D01*
X553709Y75185D01*
X553460Y75250D01*
X553212Y75322D01*
X552966Y75400D01*
X552723Y75484D01*
X552481Y75574D01*
X552242Y75669D01*
X552005Y75771D01*
X551771Y75878D01*
X551539Y75991D01*
X551310Y76110D01*
X551085Y76234D01*
X550862Y76364D01*
X550643Y76499D01*
X550427Y76640D01*
X550214Y76785D01*
X550005Y76936D01*
X549800Y77092D01*
X549599Y77253D01*
X549402Y77419D01*
X549209Y77590D01*
X549020Y77765D01*
X548835Y77945D01*
X548655Y78130D01*
X548480Y78319D01*
X548309Y78512D01*
X548143Y78709D01*
X547982Y78910D01*
X547826Y79115D01*
X547675Y79324D01*
X547530Y79537D01*
X547389Y79753D01*
X547254Y79972D01*
X547124Y80195D01*
X547000Y80420D01*
X546881Y80649D01*
X546768Y80881D01*
X546661Y81115D01*
X546559Y81352D01*
X546464Y81591D01*
X546374Y81833D01*
X546290Y82076D01*
X546212Y82322D01*
X546140Y82570D01*
X546075Y82819D01*
X546015Y83069D01*
X545962Y83322D01*
X545915Y83575D01*
X545874Y83829D01*
X545839Y84085D01*
X545811Y84341D01*
X545788Y84598D01*
X545773Y84855D01*
X545763Y85112D01*
X545760Y85370D01*
X545760Y120370D02*
X545763Y120628D01*
X545773Y120885D01*
X545788Y121142D01*
X545811Y121399D01*
X545839Y121655D01*
X545874Y121911D01*
X545915Y122165D01*
X545962Y122418D01*
X546015Y122671D01*
X546075Y122921D01*
X546140Y123170D01*
X546212Y123418D01*
X546290Y123664D01*
X546374Y123907D01*
X546464Y124149D01*
X546559Y124388D01*
X546661Y124625D01*
X546768Y124859D01*
X546881Y125091D01*
X547000Y125320D01*
X547124Y125545D01*
X547254Y125768D01*
X547389Y125987D01*
X547530Y126203D01*
X547675Y126416D01*
X547826Y126625D01*
X547982Y126830D01*
X548143Y127031D01*
X548309Y127228D01*
X548480Y127421D01*
X548655Y127610D01*
X548835Y127795D01*
X549020Y127975D01*
X549209Y128150D01*
X549402Y128321D01*
X549599Y128487D01*
X549800Y128648D01*
X550005Y128804D01*
X550214Y128955D01*
X550427Y129100D01*
X550643Y129241D01*
X550862Y129376D01*
X551085Y129506D01*
X551310Y129630D01*
X551539Y129749D01*
X551771Y129862D01*
X552005Y129969D01*
X552242Y130071D01*
X552481Y130166D01*
X552723Y130256D01*
X552966Y130340D01*
X553212Y130418D01*
X553460Y130490D01*
X553709Y130555D01*
X553959Y130615D01*
X554212Y130668D01*
X554465Y130715D01*
X554719Y130756D01*
X554975Y130791D01*
X555231Y130819D01*
X555488Y130842D01*
X555745Y130857D01*
X556002Y130867D01*
X556260Y130870D01*
X556518Y130867D01*
X556775Y130857D01*
X557032Y130842D01*
X557289Y130819D01*
X557545Y130791D01*
X557801Y130756D01*
X558055Y130715D01*
X558308Y130668D01*
X558561Y130615D01*
X558811Y130555D01*
X559060Y130490D01*
X559308Y130418D01*
X559554Y130340D01*
X559797Y130256D01*
X560039Y130166D01*
X560278Y130071D01*
X560515Y129969D01*
X560749Y129862D01*
X560981Y129749D01*
X561210Y129630D01*
X561435Y129506D01*
X561658Y129376D01*
X561877Y129241D01*
X562093Y129100D01*
X562306Y128955D01*
X562515Y128804D01*
X562720Y128648D01*
X562921Y128487D01*
X563118Y128321D01*
X563311Y128150D01*
X563500Y127975D01*
X563685Y127795D01*
X563865Y127610D01*
X564040Y127421D01*
X564211Y127228D01*
X564377Y127031D01*
X564538Y126830D01*
X564694Y126625D01*
X564845Y126416D01*
X564990Y126203D01*
X565131Y125987D01*
X565266Y125768D01*
X565396Y125545D01*
X565520Y125320D01*
X565639Y125091D01*
X565752Y124859D01*
X565859Y124625D01*
X565961Y124388D01*
X566056Y124149D01*
X566146Y123907D01*
X566230Y123664D01*
X566308Y123418D01*
X566380Y123170D01*
X566445Y122921D01*
X566505Y122671D01*
X566558Y122418D01*
X566605Y122165D01*
X566646Y121911D01*
X566681Y121655D01*
X566709Y121399D01*
X566732Y121142D01*
X566747Y120885D01*
X566757Y120628D01*
X566760Y120370D01*
X566757Y120112D01*
X566747Y119855D01*
X566732Y119598D01*
X566709Y119341D01*
X566681Y119085D01*
X566646Y118829D01*
X566605Y118575D01*
X566558Y118322D01*
X566505Y118069D01*
X566445Y117819D01*
X566380Y117570D01*
X566308Y117322D01*
X566230Y117076D01*
X566146Y116833D01*
X566056Y116591D01*
X565961Y116352D01*
X565859Y116115D01*
X565752Y115881D01*
X565639Y115649D01*
X565520Y115420D01*
X565396Y115195D01*
X565266Y114972D01*
X565131Y114753D01*
X564990Y114537D01*
X564845Y114324D01*
X564694Y114115D01*
X564538Y113910D01*
X564377Y113709D01*
X564211Y113512D01*
X564040Y113319D01*
X563865Y113130D01*
X563685Y112945D01*
X563500Y112765D01*
X563311Y112590D01*
X563118Y112419D01*
X562921Y112253D01*
X562720Y112092D01*
X562515Y111936D01*
X562306Y111785D01*
X562093Y111640D01*
X561877Y111499D01*
X561658Y111364D01*
X561435Y111234D01*
X561210Y111110D01*
X560981Y110991D01*
X560749Y110878D01*
X560515Y110771D01*
X560278Y110669D01*
X560039Y110574D01*
X559797Y110484D01*
X559554Y110400D01*
X559308Y110322D01*
X559060Y110250D01*
X558811Y110185D01*
X558561Y110125D01*
X558308Y110072D01*
X558055Y110025D01*
X557801Y109984D01*
X557545Y109949D01*
X557289Y109921D01*
X557032Y109898D01*
X556775Y109883D01*
X556518Y109873D01*
X556260Y109870D01*
X556002Y109873D01*
X555745Y109883D01*
X555488Y109898D01*
X555231Y109921D01*
X554975Y109949D01*
X554719Y109984D01*
X554465Y110025D01*
X554212Y110072D01*
X553959Y110125D01*
X553709Y110185D01*
X553460Y110250D01*
X553212Y110322D01*
X552966Y110400D01*
X552723Y110484D01*
X552481Y110574D01*
X552242Y110669D01*
X552005Y110771D01*
X551771Y110878D01*
X551539Y110991D01*
X551310Y111110D01*
X551085Y111234D01*
X550862Y111364D01*
X550643Y111499D01*
X550427Y111640D01*
X550214Y111785D01*
X550005Y111936D01*
X549800Y112092D01*
X549599Y112253D01*
X549402Y112419D01*
X549209Y112590D01*
X549020Y112765D01*
X548835Y112945D01*
X548655Y113130D01*
X548480Y113319D01*
X548309Y113512D01*
X548143Y113709D01*
X547982Y113910D01*
X547826Y114115D01*
X547675Y114324D01*
X547530Y114537D01*
X547389Y114753D01*
X547254Y114972D01*
X547124Y115195D01*
X547000Y115420D01*
X546881Y115649D01*
X546768Y115881D01*
X546661Y116115D01*
X546559Y116352D01*
X546464Y116591D01*
X546374Y116833D01*
X546290Y117076D01*
X546212Y117322D01*
X546140Y117570D01*
X546075Y117819D01*
X546015Y118069D01*
X545962Y118322D01*
X545915Y118575D01*
X545874Y118829D01*
X545839Y119085D01*
X545811Y119341D01*
X545788Y119598D01*
X545773Y119855D01*
X545763Y120112D01*
X545760Y120370D01*
D10*
X507026Y79629D02*
X500761Y70231D01*
X507026Y70231D02*
X500761Y79629D01*
X510427Y70231D02*
X513038Y70231D01*
X513139Y70233D01*
X513240Y70239D01*
X513341Y70249D01*
X513441Y70262D01*
X513541Y70280D01*
X513640Y70301D01*
X513738Y70327D01*
X513835Y70356D01*
X513931Y70388D01*
X514025Y70425D01*
X514118Y70465D01*
X514210Y70509D01*
X514299Y70556D01*
X514387Y70607D01*
X514473Y70661D01*
X514556Y70718D01*
X514638Y70778D01*
X514716Y70842D01*
X514793Y70908D01*
X514866Y70978D01*
X514937Y71050D01*
X515005Y71125D01*
X515070Y71203D01*
X515132Y71283D01*
X515191Y71365D01*
X515247Y71450D01*
X515299Y71536D01*
X515348Y71625D01*
X515394Y71716D01*
X515435Y71808D01*
X515474Y71902D01*
X515508Y71997D01*
X515539Y72093D01*
X515566Y72191D01*
X515590Y72289D01*
X515609Y72389D01*
X515625Y72489D01*
X515637Y72589D01*
X515645Y72690D01*
X515649Y72791D01*
X515649Y72893D01*
X515645Y72994D01*
X515637Y73095D01*
X515625Y73195D01*
X515609Y73295D01*
X515590Y73395D01*
X515566Y73493D01*
X515539Y73591D01*
X515508Y73687D01*
X515474Y73782D01*
X515435Y73876D01*
X515394Y73968D01*
X515348Y74059D01*
X515299Y74147D01*
X515247Y74234D01*
X515191Y74319D01*
X515132Y74401D01*
X515070Y74481D01*
X515005Y74559D01*
X514937Y74634D01*
X514866Y74706D01*
X514793Y74776D01*
X514716Y74842D01*
X514638Y74906D01*
X514556Y74966D01*
X514473Y75023D01*
X514387Y75077D01*
X514299Y75128D01*
X514210Y75175D01*
X514118Y75219D01*
X514025Y75259D01*
X513931Y75296D01*
X513835Y75328D01*
X513738Y75357D01*
X513640Y75383D01*
X513541Y75404D01*
X513441Y75422D01*
X513341Y75435D01*
X513240Y75445D01*
X513139Y75451D01*
X513038Y75453D01*
X513560Y79629D02*
X510427Y79629D01*
X513560Y79629D02*
X513650Y79627D01*
X513739Y79621D01*
X513829Y79612D01*
X513918Y79598D01*
X514006Y79581D01*
X514093Y79560D01*
X514180Y79535D01*
X514265Y79506D01*
X514349Y79474D01*
X514431Y79439D01*
X514512Y79399D01*
X514591Y79357D01*
X514668Y79311D01*
X514743Y79261D01*
X514816Y79209D01*
X514887Y79153D01*
X514955Y79095D01*
X515020Y79033D01*
X515083Y78969D01*
X515143Y78902D01*
X515200Y78833D01*
X515254Y78761D01*
X515305Y78687D01*
X515353Y78611D01*
X515397Y78533D01*
X515438Y78453D01*
X515476Y78371D01*
X515510Y78288D01*
X515540Y78203D01*
X515567Y78117D01*
X515590Y78031D01*
X515609Y77943D01*
X515624Y77854D01*
X515636Y77765D01*
X515644Y77676D01*
X515648Y77586D01*
X515648Y77496D01*
X515644Y77406D01*
X515636Y77317D01*
X515624Y77228D01*
X515609Y77139D01*
X515590Y77051D01*
X515567Y76965D01*
X515540Y76879D01*
X515510Y76794D01*
X515476Y76711D01*
X515438Y76629D01*
X515397Y76549D01*
X515353Y76471D01*
X515305Y76395D01*
X515254Y76321D01*
X515200Y76249D01*
X515143Y76180D01*
X515083Y76113D01*
X515020Y76049D01*
X514955Y75987D01*
X514887Y75929D01*
X514816Y75873D01*
X514743Y75821D01*
X514668Y75771D01*
X514591Y75725D01*
X514512Y75683D01*
X514431Y75643D01*
X514349Y75608D01*
X514265Y75576D01*
X514180Y75547D01*
X514093Y75522D01*
X514006Y75501D01*
X513918Y75484D01*
X513829Y75470D01*
X513739Y75461D01*
X513650Y75455D01*
X513560Y75453D01*
X513560Y75452D02*
X511471Y75452D01*
D13*
X113100Y89860D02*
X113100Y209860D01*
X73100Y209860D02*
X3100Y209860D01*
X103100Y209860D02*
X113100Y209860D01*
X3100Y209860D02*
X3100Y89860D01*
X73100Y89860D01*
X103100Y89860D02*
X113100Y89860D01*
D14*
X27644Y171887D02*
X27644Y175641D01*
X27643Y171887D02*
X27641Y171822D01*
X27635Y171758D01*
X27625Y171694D01*
X27612Y171630D01*
X27594Y171568D01*
X27573Y171507D01*
X27549Y171447D01*
X27520Y171389D01*
X27488Y171332D01*
X27453Y171278D01*
X27415Y171226D01*
X27373Y171176D01*
X27329Y171129D01*
X27282Y171085D01*
X27232Y171043D01*
X27180Y171005D01*
X27126Y170970D01*
X27069Y170938D01*
X27011Y170909D01*
X26951Y170885D01*
X26890Y170864D01*
X26828Y170846D01*
X26764Y170833D01*
X26700Y170823D01*
X26636Y170817D01*
X26571Y170815D01*
X26035Y170815D01*
X30592Y174569D02*
X31932Y175641D01*
X31932Y170815D01*
X30592Y170815D02*
X33273Y170815D01*
M02*
