G04 EAGLE Gerber RS-274X export*
G75*
%MOMM*%
%FSLAX34Y34*%
%LPD*%
%INSoldermask Top*%
%IPPOS*%
%AMOC8*
5,1,8,0,0,1.08239X$1,22.5*%
G01*
%ADD10C,3.203200*%
%ADD11R,1.703200X1.503200*%
%ADD12R,1.503200X1.703200*%
%ADD13R,2.403200X0.803200*%
%ADD14P,1.869504X8X22.500000*%
%ADD15R,1.103200X2.203200*%
%ADD16R,1.503200X2.203200*%
%ADD17C,1.711200*%
%ADD18C,2.387600*%
%ADD19C,1.703200*%
%ADD20C,0.959600*%


D10*
X120000Y40000D03*
X350000Y245000D03*
X480000Y100000D03*
D11*
X81280Y257200D03*
X81280Y276200D03*
D12*
X398170Y229870D03*
X417170Y229870D03*
D11*
X417830Y163220D03*
X417830Y182220D03*
D12*
X475640Y144780D03*
X494640Y144780D03*
D11*
X521970Y217780D03*
X521970Y198780D03*
D12*
X291490Y201930D03*
X310490Y201930D03*
X513690Y248920D03*
X494690Y248920D03*
X158140Y149860D03*
X177140Y149860D03*
X225400Y208280D03*
X206400Y208280D03*
X282600Y116840D03*
X301600Y116840D03*
X327050Y116840D03*
X346050Y116840D03*
D11*
X378460Y156820D03*
X378460Y137820D03*
D13*
X257210Y162560D03*
X309210Y162560D03*
X257210Y175260D03*
X257210Y149860D03*
X257210Y137160D03*
X309210Y175260D03*
X309210Y149860D03*
X309210Y137160D03*
X442630Y217170D03*
X494630Y217170D03*
X442630Y229870D03*
X442630Y204470D03*
X442630Y191770D03*
X494630Y229870D03*
X494630Y204470D03*
X494630Y191770D03*
D14*
X130810Y149860D03*
D12*
X177140Y243840D03*
X158140Y243840D03*
D11*
X154940Y200000D03*
X154940Y181000D03*
X406400Y113640D03*
X406400Y94640D03*
D12*
X405740Y71120D03*
X386740Y71120D03*
D15*
X274350Y249330D03*
D16*
X260350Y205330D03*
D15*
X246350Y249330D03*
X570260Y198530D03*
D16*
X556260Y154530D03*
D15*
X542260Y198530D03*
D12*
X301600Y93980D03*
X282600Y93980D03*
D11*
X346710Y175870D03*
X346710Y156870D03*
X378460Y113640D03*
X378460Y94640D03*
D12*
X366370Y204470D03*
X347370Y204470D03*
X417170Y204470D03*
X398170Y204470D03*
D11*
X130810Y181000D03*
X130810Y200000D03*
D12*
X494640Y170180D03*
X475640Y170180D03*
D11*
X130810Y118720D03*
X130810Y99720D03*
X154940Y118720D03*
X154940Y99720D03*
X177800Y118720D03*
X177800Y99720D03*
X177800Y200000D03*
X177800Y181000D03*
X205740Y165760D03*
X205740Y184760D03*
X228600Y165760D03*
X228600Y184760D03*
D12*
X131420Y243840D03*
X112420Y243840D03*
D17*
X45640Y241580D02*
X30560Y241580D01*
X30560Y276580D02*
X45640Y276580D01*
X45640Y23140D02*
X30560Y23140D01*
X30560Y58140D02*
X45640Y58140D01*
X548720Y85370D02*
X563800Y85370D01*
X563800Y120370D02*
X548720Y120370D01*
D18*
X38100Y149860D03*
X88100Y174860D03*
X88100Y199860D03*
X88100Y124860D03*
X88100Y99860D03*
D19*
X287020Y226060D03*
X444500Y147320D03*
D20*
X346050Y116840D03*
X346050Y156210D03*
M02*
