G04 EAGLE Gerber RS-274X export*
G75*
%MOMM*%
%FSLAX34Y34*%
%LPD*%
%INSolderpaste Top*%
%IPPOS*%
%AMOC8*
5,1,8,0,0,1.08239X$1,22.5*%
G01*
%ADD10R,1.500000X1.300000*%
%ADD11R,1.300000X1.500000*%
%ADD12R,2.200000X0.600000*%
%ADD13R,0.900000X2.000000*%
%ADD14R,1.300000X2.000000*%


D10*
X81280Y257200D03*
X81280Y276200D03*
D11*
X398170Y229870D03*
X417170Y229870D03*
D10*
X417830Y163220D03*
X417830Y182220D03*
D11*
X475640Y144780D03*
X494640Y144780D03*
D10*
X521970Y217780D03*
X521970Y198780D03*
D11*
X291490Y201930D03*
X310490Y201930D03*
X513690Y248920D03*
X494690Y248920D03*
X158140Y149860D03*
X177140Y149860D03*
X225400Y208280D03*
X206400Y208280D03*
X282600Y116840D03*
X301600Y116840D03*
X327050Y116840D03*
X346050Y116840D03*
D10*
X378460Y156820D03*
X378460Y137820D03*
D12*
X257210Y162560D03*
X309210Y162560D03*
X257210Y175260D03*
X257210Y149860D03*
X257210Y137160D03*
X309210Y175260D03*
X309210Y149860D03*
X309210Y137160D03*
X442630Y217170D03*
X494630Y217170D03*
X442630Y229870D03*
X442630Y204470D03*
X442630Y191770D03*
X494630Y229870D03*
X494630Y204470D03*
X494630Y191770D03*
D11*
X177140Y243840D03*
X158140Y243840D03*
D10*
X154940Y200000D03*
X154940Y181000D03*
X406400Y113640D03*
X406400Y94640D03*
D11*
X405740Y71120D03*
X386740Y71120D03*
D13*
X274350Y249330D03*
D14*
X260350Y205330D03*
D13*
X246350Y249330D03*
X570260Y198530D03*
D14*
X556260Y154530D03*
D13*
X542260Y198530D03*
D11*
X301600Y93980D03*
X282600Y93980D03*
D10*
X346710Y175870D03*
X346710Y156870D03*
X378460Y113640D03*
X378460Y94640D03*
D11*
X366370Y204470D03*
X347370Y204470D03*
X417170Y204470D03*
X398170Y204470D03*
D10*
X130810Y181000D03*
X130810Y200000D03*
D11*
X494640Y170180D03*
X475640Y170180D03*
D10*
X130810Y118720D03*
X130810Y99720D03*
X154940Y118720D03*
X154940Y99720D03*
X177800Y118720D03*
X177800Y99720D03*
X177800Y200000D03*
X177800Y181000D03*
X205740Y165760D03*
X205740Y184760D03*
X228600Y165760D03*
X228600Y184760D03*
D11*
X131420Y243840D03*
X112420Y243840D03*
M02*
