G04 EAGLE Gerber RS-274X export*
G75*
%MOMM*%
%FSLAX34Y34*%
%LPD*%
%INSilkscreen Top*%
%IPPOS*%
%AMOC8*
5,1,8,0,0,1.08239X$1,22.5*%
G01*
%ADD10C,0.101600*%
%ADD11C,0.203200*%
%ADD12C,0.200000*%
%ADD13C,0.127000*%
%ADD14C,0.152400*%


D10*
X332806Y65278D02*
X330209Y65278D01*
X330110Y65280D01*
X330010Y65286D01*
X329911Y65295D01*
X329813Y65308D01*
X329715Y65325D01*
X329617Y65346D01*
X329521Y65371D01*
X329426Y65399D01*
X329332Y65431D01*
X329239Y65466D01*
X329147Y65505D01*
X329057Y65548D01*
X328969Y65593D01*
X328882Y65643D01*
X328798Y65695D01*
X328715Y65751D01*
X328635Y65809D01*
X328557Y65871D01*
X328482Y65936D01*
X328409Y66004D01*
X328339Y66074D01*
X328271Y66147D01*
X328206Y66222D01*
X328144Y66300D01*
X328086Y66380D01*
X328030Y66463D01*
X327978Y66547D01*
X327928Y66634D01*
X327883Y66722D01*
X327840Y66812D01*
X327801Y66904D01*
X327766Y66997D01*
X327734Y67091D01*
X327706Y67186D01*
X327681Y67282D01*
X327660Y67380D01*
X327643Y67478D01*
X327630Y67576D01*
X327621Y67675D01*
X327615Y67775D01*
X327613Y67874D01*
X327613Y74366D01*
X327615Y74465D01*
X327621Y74565D01*
X327630Y74664D01*
X327643Y74762D01*
X327660Y74860D01*
X327681Y74958D01*
X327706Y75054D01*
X327734Y75149D01*
X327766Y75243D01*
X327801Y75336D01*
X327840Y75428D01*
X327883Y75518D01*
X327928Y75606D01*
X327978Y75693D01*
X328030Y75777D01*
X328086Y75860D01*
X328144Y75940D01*
X328206Y76018D01*
X328271Y76093D01*
X328339Y76166D01*
X328409Y76236D01*
X328482Y76304D01*
X328557Y76369D01*
X328635Y76431D01*
X328715Y76489D01*
X328798Y76545D01*
X328882Y76597D01*
X328969Y76647D01*
X329057Y76692D01*
X329147Y76735D01*
X329239Y76774D01*
X329331Y76809D01*
X329426Y76841D01*
X329521Y76869D01*
X329617Y76894D01*
X329715Y76915D01*
X329813Y76932D01*
X329911Y76945D01*
X330010Y76954D01*
X330110Y76960D01*
X330209Y76962D01*
X332806Y76962D01*
X337171Y74366D02*
X340416Y76962D01*
X340416Y65278D01*
X337171Y65278D02*
X343662Y65278D01*
X474274Y244348D02*
X476871Y244348D01*
X474274Y244348D02*
X474175Y244350D01*
X474075Y244356D01*
X473976Y244365D01*
X473878Y244378D01*
X473780Y244395D01*
X473682Y244416D01*
X473586Y244441D01*
X473491Y244469D01*
X473397Y244501D01*
X473304Y244536D01*
X473212Y244575D01*
X473122Y244618D01*
X473034Y244663D01*
X472947Y244713D01*
X472863Y244765D01*
X472780Y244821D01*
X472700Y244879D01*
X472622Y244941D01*
X472547Y245006D01*
X472474Y245074D01*
X472404Y245144D01*
X472336Y245217D01*
X472271Y245292D01*
X472209Y245370D01*
X472151Y245450D01*
X472095Y245533D01*
X472043Y245617D01*
X471993Y245704D01*
X471948Y245792D01*
X471905Y245882D01*
X471866Y245974D01*
X471831Y246067D01*
X471799Y246161D01*
X471771Y246256D01*
X471746Y246352D01*
X471725Y246450D01*
X471708Y246548D01*
X471695Y246646D01*
X471686Y246745D01*
X471680Y246845D01*
X471678Y246944D01*
X471678Y253436D01*
X471680Y253535D01*
X471686Y253635D01*
X471695Y253734D01*
X471708Y253832D01*
X471725Y253930D01*
X471746Y254028D01*
X471771Y254124D01*
X471799Y254219D01*
X471831Y254313D01*
X471866Y254406D01*
X471905Y254498D01*
X471948Y254588D01*
X471993Y254676D01*
X472043Y254763D01*
X472095Y254847D01*
X472151Y254930D01*
X472209Y255010D01*
X472271Y255088D01*
X472336Y255163D01*
X472404Y255236D01*
X472474Y255306D01*
X472547Y255374D01*
X472622Y255439D01*
X472700Y255501D01*
X472780Y255559D01*
X472863Y255615D01*
X472947Y255667D01*
X473034Y255717D01*
X473122Y255762D01*
X473212Y255805D01*
X473304Y255844D01*
X473396Y255879D01*
X473491Y255911D01*
X473586Y255939D01*
X473682Y255964D01*
X473780Y255985D01*
X473878Y256002D01*
X473976Y256015D01*
X474075Y256024D01*
X474175Y256030D01*
X474274Y256032D01*
X476871Y256032D01*
X481236Y253436D02*
X484482Y256032D01*
X484482Y244348D01*
X487727Y244348D02*
X481236Y244348D01*
X492666Y253436D02*
X495912Y256032D01*
X495912Y244348D01*
X499157Y244348D02*
X492666Y244348D01*
X488301Y142748D02*
X485704Y142748D01*
X485605Y142750D01*
X485505Y142756D01*
X485406Y142765D01*
X485308Y142778D01*
X485210Y142795D01*
X485112Y142816D01*
X485016Y142841D01*
X484921Y142869D01*
X484827Y142901D01*
X484734Y142936D01*
X484642Y142975D01*
X484552Y143018D01*
X484464Y143063D01*
X484377Y143113D01*
X484293Y143165D01*
X484210Y143221D01*
X484130Y143279D01*
X484052Y143341D01*
X483977Y143406D01*
X483904Y143474D01*
X483834Y143544D01*
X483766Y143617D01*
X483701Y143692D01*
X483639Y143770D01*
X483581Y143850D01*
X483525Y143933D01*
X483473Y144017D01*
X483423Y144104D01*
X483378Y144192D01*
X483335Y144282D01*
X483296Y144374D01*
X483261Y144467D01*
X483229Y144561D01*
X483201Y144656D01*
X483176Y144752D01*
X483155Y144850D01*
X483138Y144948D01*
X483125Y145046D01*
X483116Y145145D01*
X483110Y145245D01*
X483108Y145344D01*
X483108Y151836D01*
X483110Y151935D01*
X483116Y152035D01*
X483125Y152134D01*
X483138Y152232D01*
X483155Y152330D01*
X483176Y152428D01*
X483201Y152524D01*
X483229Y152619D01*
X483261Y152713D01*
X483296Y152806D01*
X483335Y152898D01*
X483378Y152988D01*
X483423Y153076D01*
X483473Y153163D01*
X483525Y153247D01*
X483581Y153330D01*
X483639Y153410D01*
X483701Y153488D01*
X483766Y153563D01*
X483834Y153636D01*
X483904Y153706D01*
X483977Y153774D01*
X484052Y153839D01*
X484130Y153901D01*
X484210Y153959D01*
X484293Y154015D01*
X484377Y154067D01*
X484464Y154117D01*
X484552Y154162D01*
X484642Y154205D01*
X484734Y154244D01*
X484826Y154279D01*
X484921Y154311D01*
X485016Y154339D01*
X485112Y154364D01*
X485210Y154385D01*
X485308Y154402D01*
X485406Y154415D01*
X485505Y154424D01*
X485605Y154430D01*
X485704Y154432D01*
X488301Y154432D01*
X492666Y151836D02*
X495912Y154432D01*
X495912Y142748D01*
X499157Y142748D02*
X492666Y142748D01*
X507666Y154432D02*
X507773Y154430D01*
X507879Y154424D01*
X507985Y154414D01*
X508091Y154401D01*
X508197Y154383D01*
X508301Y154362D01*
X508405Y154337D01*
X508508Y154308D01*
X508609Y154276D01*
X508709Y154239D01*
X508808Y154199D01*
X508906Y154156D01*
X509002Y154109D01*
X509096Y154058D01*
X509188Y154004D01*
X509278Y153947D01*
X509366Y153887D01*
X509451Y153823D01*
X509534Y153756D01*
X509615Y153686D01*
X509693Y153614D01*
X509769Y153538D01*
X509841Y153460D01*
X509911Y153379D01*
X509978Y153296D01*
X510042Y153211D01*
X510102Y153123D01*
X510159Y153033D01*
X510213Y152941D01*
X510264Y152847D01*
X510311Y152751D01*
X510354Y152653D01*
X510394Y152554D01*
X510431Y152454D01*
X510463Y152353D01*
X510492Y152250D01*
X510517Y152146D01*
X510538Y152042D01*
X510556Y151936D01*
X510569Y151830D01*
X510579Y151724D01*
X510585Y151618D01*
X510587Y151511D01*
X507666Y154432D02*
X507545Y154430D01*
X507424Y154424D01*
X507304Y154414D01*
X507183Y154401D01*
X507064Y154383D01*
X506944Y154362D01*
X506826Y154337D01*
X506709Y154308D01*
X506592Y154275D01*
X506477Y154239D01*
X506363Y154198D01*
X506250Y154155D01*
X506138Y154107D01*
X506029Y154056D01*
X505921Y154001D01*
X505814Y153943D01*
X505710Y153882D01*
X505608Y153817D01*
X505508Y153749D01*
X505410Y153678D01*
X505314Y153604D01*
X505221Y153527D01*
X505131Y153446D01*
X505043Y153363D01*
X504958Y153277D01*
X504875Y153188D01*
X504796Y153097D01*
X504719Y153003D01*
X504646Y152907D01*
X504576Y152809D01*
X504509Y152708D01*
X504445Y152605D01*
X504385Y152500D01*
X504328Y152393D01*
X504274Y152285D01*
X504224Y152175D01*
X504178Y152063D01*
X504135Y151950D01*
X504096Y151835D01*
X509614Y149239D02*
X509693Y149316D01*
X509769Y149397D01*
X509842Y149480D01*
X509912Y149565D01*
X509979Y149653D01*
X510043Y149743D01*
X510103Y149835D01*
X510160Y149930D01*
X510214Y150026D01*
X510265Y150124D01*
X510312Y150224D01*
X510356Y150326D01*
X510396Y150429D01*
X510432Y150533D01*
X510464Y150639D01*
X510493Y150745D01*
X510518Y150853D01*
X510540Y150961D01*
X510557Y151071D01*
X510571Y151180D01*
X510580Y151290D01*
X510586Y151401D01*
X510588Y151511D01*
X509614Y149239D02*
X504096Y142748D01*
X510587Y142748D01*
X497191Y102108D02*
X494594Y102108D01*
X494495Y102110D01*
X494395Y102116D01*
X494296Y102125D01*
X494198Y102138D01*
X494100Y102155D01*
X494002Y102176D01*
X493906Y102201D01*
X493811Y102229D01*
X493717Y102261D01*
X493624Y102296D01*
X493532Y102335D01*
X493442Y102378D01*
X493354Y102423D01*
X493267Y102473D01*
X493183Y102525D01*
X493100Y102581D01*
X493020Y102639D01*
X492942Y102701D01*
X492867Y102766D01*
X492794Y102834D01*
X492724Y102904D01*
X492656Y102977D01*
X492591Y103052D01*
X492529Y103130D01*
X492471Y103210D01*
X492415Y103293D01*
X492363Y103377D01*
X492313Y103464D01*
X492268Y103552D01*
X492225Y103642D01*
X492186Y103734D01*
X492151Y103827D01*
X492119Y103921D01*
X492091Y104016D01*
X492066Y104112D01*
X492045Y104210D01*
X492028Y104308D01*
X492015Y104406D01*
X492006Y104505D01*
X492000Y104605D01*
X491998Y104704D01*
X491998Y111196D01*
X492000Y111295D01*
X492006Y111395D01*
X492015Y111494D01*
X492028Y111592D01*
X492045Y111690D01*
X492066Y111788D01*
X492091Y111884D01*
X492119Y111979D01*
X492151Y112073D01*
X492186Y112166D01*
X492225Y112258D01*
X492268Y112348D01*
X492313Y112436D01*
X492363Y112523D01*
X492415Y112607D01*
X492471Y112690D01*
X492529Y112770D01*
X492591Y112848D01*
X492656Y112923D01*
X492724Y112996D01*
X492794Y113066D01*
X492867Y113134D01*
X492942Y113199D01*
X493020Y113261D01*
X493100Y113319D01*
X493183Y113375D01*
X493267Y113427D01*
X493354Y113477D01*
X493442Y113522D01*
X493532Y113565D01*
X493624Y113604D01*
X493716Y113639D01*
X493811Y113671D01*
X493906Y113699D01*
X494002Y113724D01*
X494100Y113745D01*
X494198Y113762D01*
X494296Y113775D01*
X494395Y113784D01*
X494495Y113790D01*
X494594Y113792D01*
X497191Y113792D01*
X501556Y111196D02*
X504802Y113792D01*
X504802Y102108D01*
X508047Y102108D02*
X501556Y102108D01*
X512986Y102108D02*
X516232Y102108D01*
X516345Y102110D01*
X516458Y102116D01*
X516571Y102126D01*
X516684Y102140D01*
X516796Y102157D01*
X516907Y102179D01*
X517017Y102204D01*
X517127Y102234D01*
X517235Y102267D01*
X517342Y102304D01*
X517448Y102344D01*
X517552Y102389D01*
X517655Y102437D01*
X517756Y102488D01*
X517855Y102543D01*
X517952Y102601D01*
X518047Y102663D01*
X518140Y102728D01*
X518230Y102796D01*
X518318Y102867D01*
X518404Y102942D01*
X518487Y103019D01*
X518567Y103099D01*
X518644Y103182D01*
X518719Y103268D01*
X518790Y103356D01*
X518858Y103446D01*
X518923Y103539D01*
X518985Y103634D01*
X519043Y103731D01*
X519098Y103830D01*
X519149Y103931D01*
X519197Y104034D01*
X519242Y104138D01*
X519282Y104244D01*
X519319Y104351D01*
X519352Y104459D01*
X519382Y104569D01*
X519407Y104679D01*
X519429Y104790D01*
X519446Y104902D01*
X519460Y105015D01*
X519470Y105128D01*
X519476Y105241D01*
X519478Y105354D01*
X519476Y105467D01*
X519470Y105580D01*
X519460Y105693D01*
X519446Y105806D01*
X519429Y105918D01*
X519407Y106029D01*
X519382Y106139D01*
X519352Y106249D01*
X519319Y106357D01*
X519282Y106464D01*
X519242Y106570D01*
X519197Y106674D01*
X519149Y106777D01*
X519098Y106878D01*
X519043Y106977D01*
X518985Y107074D01*
X518923Y107169D01*
X518858Y107262D01*
X518790Y107352D01*
X518719Y107440D01*
X518644Y107526D01*
X518567Y107609D01*
X518487Y107689D01*
X518404Y107766D01*
X518318Y107841D01*
X518230Y107912D01*
X518140Y107980D01*
X518047Y108045D01*
X517952Y108107D01*
X517855Y108165D01*
X517756Y108220D01*
X517655Y108271D01*
X517552Y108319D01*
X517448Y108364D01*
X517342Y108404D01*
X517235Y108441D01*
X517127Y108474D01*
X517017Y108504D01*
X516907Y108529D01*
X516796Y108551D01*
X516684Y108568D01*
X516571Y108582D01*
X516458Y108592D01*
X516345Y108598D01*
X516232Y108600D01*
X516881Y113792D02*
X512986Y113792D01*
X516881Y113792D02*
X516982Y113790D01*
X517082Y113784D01*
X517182Y113774D01*
X517282Y113761D01*
X517381Y113743D01*
X517480Y113722D01*
X517577Y113697D01*
X517674Y113668D01*
X517769Y113635D01*
X517863Y113599D01*
X517955Y113559D01*
X518046Y113516D01*
X518135Y113469D01*
X518222Y113419D01*
X518308Y113365D01*
X518391Y113308D01*
X518471Y113248D01*
X518550Y113185D01*
X518626Y113118D01*
X518699Y113049D01*
X518769Y112977D01*
X518837Y112903D01*
X518902Y112826D01*
X518963Y112746D01*
X519022Y112664D01*
X519077Y112580D01*
X519129Y112494D01*
X519178Y112406D01*
X519223Y112316D01*
X519265Y112224D01*
X519303Y112131D01*
X519337Y112036D01*
X519368Y111941D01*
X519395Y111844D01*
X519418Y111746D01*
X519438Y111647D01*
X519453Y111547D01*
X519465Y111447D01*
X519473Y111347D01*
X519477Y111246D01*
X519477Y111146D01*
X519473Y111045D01*
X519465Y110945D01*
X519453Y110845D01*
X519438Y110745D01*
X519418Y110646D01*
X519395Y110548D01*
X519368Y110451D01*
X519337Y110356D01*
X519303Y110261D01*
X519265Y110168D01*
X519223Y110076D01*
X519178Y109986D01*
X519129Y109898D01*
X519077Y109812D01*
X519022Y109728D01*
X518963Y109646D01*
X518902Y109566D01*
X518837Y109489D01*
X518769Y109415D01*
X518699Y109343D01*
X518626Y109274D01*
X518550Y109207D01*
X518471Y109144D01*
X518391Y109084D01*
X518308Y109027D01*
X518222Y108973D01*
X518135Y108923D01*
X518046Y108876D01*
X517955Y108833D01*
X517863Y108793D01*
X517769Y108757D01*
X517674Y108724D01*
X517577Y108695D01*
X517480Y108670D01*
X517381Y108649D01*
X517282Y108631D01*
X517182Y108618D01*
X517082Y108608D01*
X516982Y108602D01*
X516881Y108600D01*
X516881Y108599D02*
X514284Y108599D01*
X145401Y234188D02*
X142804Y234188D01*
X142705Y234190D01*
X142605Y234196D01*
X142506Y234205D01*
X142408Y234218D01*
X142310Y234235D01*
X142212Y234256D01*
X142116Y234281D01*
X142021Y234309D01*
X141927Y234341D01*
X141834Y234376D01*
X141742Y234415D01*
X141652Y234458D01*
X141564Y234503D01*
X141477Y234553D01*
X141393Y234605D01*
X141310Y234661D01*
X141230Y234719D01*
X141152Y234781D01*
X141077Y234846D01*
X141004Y234914D01*
X140934Y234984D01*
X140866Y235057D01*
X140801Y235132D01*
X140739Y235210D01*
X140681Y235290D01*
X140625Y235373D01*
X140573Y235457D01*
X140523Y235544D01*
X140478Y235632D01*
X140435Y235722D01*
X140396Y235814D01*
X140361Y235907D01*
X140329Y236001D01*
X140301Y236096D01*
X140276Y236192D01*
X140255Y236290D01*
X140238Y236388D01*
X140225Y236486D01*
X140216Y236585D01*
X140210Y236685D01*
X140208Y236784D01*
X140208Y243276D01*
X140210Y243375D01*
X140216Y243475D01*
X140225Y243574D01*
X140238Y243672D01*
X140255Y243770D01*
X140276Y243868D01*
X140301Y243964D01*
X140329Y244059D01*
X140361Y244153D01*
X140396Y244246D01*
X140435Y244338D01*
X140478Y244428D01*
X140523Y244516D01*
X140573Y244603D01*
X140625Y244687D01*
X140681Y244770D01*
X140739Y244850D01*
X140801Y244928D01*
X140866Y245003D01*
X140934Y245076D01*
X141004Y245146D01*
X141077Y245214D01*
X141152Y245279D01*
X141230Y245341D01*
X141310Y245399D01*
X141393Y245455D01*
X141477Y245507D01*
X141564Y245557D01*
X141652Y245602D01*
X141742Y245645D01*
X141834Y245684D01*
X141926Y245719D01*
X142021Y245751D01*
X142116Y245779D01*
X142212Y245804D01*
X142310Y245825D01*
X142408Y245842D01*
X142506Y245855D01*
X142605Y245864D01*
X142705Y245870D01*
X142804Y245872D01*
X145401Y245872D01*
X153336Y245872D02*
X153443Y245870D01*
X153549Y245864D01*
X153655Y245854D01*
X153761Y245841D01*
X153867Y245823D01*
X153971Y245802D01*
X154075Y245777D01*
X154178Y245748D01*
X154279Y245716D01*
X154379Y245679D01*
X154478Y245639D01*
X154576Y245596D01*
X154672Y245549D01*
X154766Y245498D01*
X154858Y245444D01*
X154948Y245387D01*
X155036Y245327D01*
X155121Y245263D01*
X155204Y245196D01*
X155285Y245126D01*
X155363Y245054D01*
X155439Y244978D01*
X155511Y244900D01*
X155581Y244819D01*
X155648Y244736D01*
X155712Y244651D01*
X155772Y244563D01*
X155829Y244473D01*
X155883Y244381D01*
X155934Y244287D01*
X155981Y244191D01*
X156024Y244093D01*
X156064Y243994D01*
X156101Y243894D01*
X156133Y243793D01*
X156162Y243690D01*
X156187Y243586D01*
X156208Y243482D01*
X156226Y243376D01*
X156239Y243270D01*
X156249Y243164D01*
X156255Y243058D01*
X156257Y242951D01*
X153336Y245872D02*
X153215Y245870D01*
X153094Y245864D01*
X152974Y245854D01*
X152853Y245841D01*
X152734Y245823D01*
X152614Y245802D01*
X152496Y245777D01*
X152379Y245748D01*
X152262Y245715D01*
X152147Y245679D01*
X152033Y245638D01*
X151920Y245595D01*
X151808Y245547D01*
X151699Y245496D01*
X151591Y245441D01*
X151484Y245383D01*
X151380Y245322D01*
X151278Y245257D01*
X151178Y245189D01*
X151080Y245118D01*
X150984Y245044D01*
X150891Y244967D01*
X150801Y244886D01*
X150713Y244803D01*
X150628Y244717D01*
X150545Y244628D01*
X150466Y244537D01*
X150389Y244443D01*
X150316Y244347D01*
X150246Y244249D01*
X150179Y244148D01*
X150115Y244045D01*
X150055Y243940D01*
X149998Y243833D01*
X149944Y243725D01*
X149894Y243615D01*
X149848Y243503D01*
X149805Y243390D01*
X149766Y243275D01*
X155284Y240679D02*
X155363Y240756D01*
X155439Y240837D01*
X155512Y240920D01*
X155582Y241005D01*
X155649Y241093D01*
X155713Y241183D01*
X155773Y241275D01*
X155830Y241370D01*
X155884Y241466D01*
X155935Y241564D01*
X155982Y241664D01*
X156026Y241766D01*
X156066Y241869D01*
X156102Y241973D01*
X156134Y242079D01*
X156163Y242185D01*
X156188Y242293D01*
X156210Y242401D01*
X156227Y242511D01*
X156241Y242620D01*
X156250Y242730D01*
X156256Y242841D01*
X156258Y242951D01*
X155284Y240679D02*
X149766Y234188D01*
X156257Y234188D01*
X403154Y170688D02*
X405751Y170688D01*
X403154Y170688D02*
X403055Y170690D01*
X402955Y170696D01*
X402856Y170705D01*
X402758Y170718D01*
X402660Y170735D01*
X402562Y170756D01*
X402466Y170781D01*
X402371Y170809D01*
X402277Y170841D01*
X402184Y170876D01*
X402092Y170915D01*
X402002Y170958D01*
X401914Y171003D01*
X401827Y171053D01*
X401743Y171105D01*
X401660Y171161D01*
X401580Y171219D01*
X401502Y171281D01*
X401427Y171346D01*
X401354Y171414D01*
X401284Y171484D01*
X401216Y171557D01*
X401151Y171632D01*
X401089Y171710D01*
X401031Y171790D01*
X400975Y171873D01*
X400923Y171957D01*
X400873Y172044D01*
X400828Y172132D01*
X400785Y172222D01*
X400746Y172314D01*
X400711Y172407D01*
X400679Y172501D01*
X400651Y172596D01*
X400626Y172692D01*
X400605Y172790D01*
X400588Y172888D01*
X400575Y172986D01*
X400566Y173085D01*
X400560Y173185D01*
X400558Y173284D01*
X400558Y179776D01*
X400560Y179875D01*
X400566Y179975D01*
X400575Y180074D01*
X400588Y180172D01*
X400605Y180270D01*
X400626Y180368D01*
X400651Y180464D01*
X400679Y180559D01*
X400711Y180653D01*
X400746Y180746D01*
X400785Y180838D01*
X400828Y180928D01*
X400873Y181016D01*
X400923Y181103D01*
X400975Y181187D01*
X401031Y181270D01*
X401089Y181350D01*
X401151Y181428D01*
X401216Y181503D01*
X401284Y181576D01*
X401354Y181646D01*
X401427Y181714D01*
X401502Y181779D01*
X401580Y181841D01*
X401660Y181899D01*
X401743Y181955D01*
X401827Y182007D01*
X401914Y182057D01*
X402002Y182102D01*
X402092Y182145D01*
X402184Y182184D01*
X402276Y182219D01*
X402371Y182251D01*
X402466Y182279D01*
X402562Y182304D01*
X402660Y182325D01*
X402758Y182342D01*
X402856Y182355D01*
X402955Y182364D01*
X403055Y182370D01*
X403154Y182372D01*
X405751Y182372D01*
X410116Y170688D02*
X413362Y170688D01*
X413475Y170690D01*
X413588Y170696D01*
X413701Y170706D01*
X413814Y170720D01*
X413926Y170737D01*
X414037Y170759D01*
X414147Y170784D01*
X414257Y170814D01*
X414365Y170847D01*
X414472Y170884D01*
X414578Y170924D01*
X414682Y170969D01*
X414785Y171017D01*
X414886Y171068D01*
X414985Y171123D01*
X415082Y171181D01*
X415177Y171243D01*
X415270Y171308D01*
X415360Y171376D01*
X415448Y171447D01*
X415534Y171522D01*
X415617Y171599D01*
X415697Y171679D01*
X415774Y171762D01*
X415849Y171848D01*
X415920Y171936D01*
X415988Y172026D01*
X416053Y172119D01*
X416115Y172214D01*
X416173Y172311D01*
X416228Y172410D01*
X416279Y172511D01*
X416327Y172614D01*
X416372Y172718D01*
X416412Y172824D01*
X416449Y172931D01*
X416482Y173039D01*
X416512Y173149D01*
X416537Y173259D01*
X416559Y173370D01*
X416576Y173482D01*
X416590Y173595D01*
X416600Y173708D01*
X416606Y173821D01*
X416608Y173934D01*
X416606Y174047D01*
X416600Y174160D01*
X416590Y174273D01*
X416576Y174386D01*
X416559Y174498D01*
X416537Y174609D01*
X416512Y174719D01*
X416482Y174829D01*
X416449Y174937D01*
X416412Y175044D01*
X416372Y175150D01*
X416327Y175254D01*
X416279Y175357D01*
X416228Y175458D01*
X416173Y175557D01*
X416115Y175654D01*
X416053Y175749D01*
X415988Y175842D01*
X415920Y175932D01*
X415849Y176020D01*
X415774Y176106D01*
X415697Y176189D01*
X415617Y176269D01*
X415534Y176346D01*
X415448Y176421D01*
X415360Y176492D01*
X415270Y176560D01*
X415177Y176625D01*
X415082Y176687D01*
X414985Y176745D01*
X414886Y176800D01*
X414785Y176851D01*
X414682Y176899D01*
X414578Y176944D01*
X414472Y176984D01*
X414365Y177021D01*
X414257Y177054D01*
X414147Y177084D01*
X414037Y177109D01*
X413926Y177131D01*
X413814Y177148D01*
X413701Y177162D01*
X413588Y177172D01*
X413475Y177178D01*
X413362Y177180D01*
X414011Y182372D02*
X410116Y182372D01*
X414011Y182372D02*
X414112Y182370D01*
X414212Y182364D01*
X414312Y182354D01*
X414412Y182341D01*
X414511Y182323D01*
X414610Y182302D01*
X414707Y182277D01*
X414804Y182248D01*
X414899Y182215D01*
X414993Y182179D01*
X415085Y182139D01*
X415176Y182096D01*
X415265Y182049D01*
X415352Y181999D01*
X415438Y181945D01*
X415521Y181888D01*
X415601Y181828D01*
X415680Y181765D01*
X415756Y181698D01*
X415829Y181629D01*
X415899Y181557D01*
X415967Y181483D01*
X416032Y181406D01*
X416093Y181326D01*
X416152Y181244D01*
X416207Y181160D01*
X416259Y181074D01*
X416308Y180986D01*
X416353Y180896D01*
X416395Y180804D01*
X416433Y180711D01*
X416467Y180616D01*
X416498Y180521D01*
X416525Y180424D01*
X416548Y180326D01*
X416568Y180227D01*
X416583Y180127D01*
X416595Y180027D01*
X416603Y179927D01*
X416607Y179826D01*
X416607Y179726D01*
X416603Y179625D01*
X416595Y179525D01*
X416583Y179425D01*
X416568Y179325D01*
X416548Y179226D01*
X416525Y179128D01*
X416498Y179031D01*
X416467Y178936D01*
X416433Y178841D01*
X416395Y178748D01*
X416353Y178656D01*
X416308Y178566D01*
X416259Y178478D01*
X416207Y178392D01*
X416152Y178308D01*
X416093Y178226D01*
X416032Y178146D01*
X415967Y178069D01*
X415899Y177995D01*
X415829Y177923D01*
X415756Y177854D01*
X415680Y177787D01*
X415601Y177724D01*
X415521Y177664D01*
X415438Y177607D01*
X415352Y177553D01*
X415265Y177503D01*
X415176Y177456D01*
X415085Y177413D01*
X414993Y177373D01*
X414899Y177337D01*
X414804Y177304D01*
X414707Y177275D01*
X414610Y177250D01*
X414511Y177229D01*
X414412Y177211D01*
X414312Y177198D01*
X414212Y177188D01*
X414112Y177182D01*
X414011Y177180D01*
X414011Y177179D02*
X411414Y177179D01*
X187311Y107188D02*
X184714Y107188D01*
X184615Y107190D01*
X184515Y107196D01*
X184416Y107205D01*
X184318Y107218D01*
X184220Y107235D01*
X184122Y107256D01*
X184026Y107281D01*
X183931Y107309D01*
X183837Y107341D01*
X183744Y107376D01*
X183652Y107415D01*
X183562Y107458D01*
X183474Y107503D01*
X183387Y107553D01*
X183303Y107605D01*
X183220Y107661D01*
X183140Y107719D01*
X183062Y107781D01*
X182987Y107846D01*
X182914Y107914D01*
X182844Y107984D01*
X182776Y108057D01*
X182711Y108132D01*
X182649Y108210D01*
X182591Y108290D01*
X182535Y108373D01*
X182483Y108457D01*
X182433Y108544D01*
X182388Y108632D01*
X182345Y108722D01*
X182306Y108814D01*
X182271Y108907D01*
X182239Y109001D01*
X182211Y109096D01*
X182186Y109192D01*
X182165Y109290D01*
X182148Y109388D01*
X182135Y109486D01*
X182126Y109585D01*
X182120Y109685D01*
X182118Y109784D01*
X182118Y116276D01*
X182120Y116375D01*
X182126Y116475D01*
X182135Y116574D01*
X182148Y116672D01*
X182165Y116770D01*
X182186Y116868D01*
X182211Y116964D01*
X182239Y117059D01*
X182271Y117153D01*
X182306Y117246D01*
X182345Y117338D01*
X182388Y117428D01*
X182433Y117516D01*
X182483Y117603D01*
X182535Y117687D01*
X182591Y117770D01*
X182649Y117850D01*
X182711Y117928D01*
X182776Y118003D01*
X182844Y118076D01*
X182914Y118146D01*
X182987Y118214D01*
X183062Y118279D01*
X183140Y118341D01*
X183220Y118399D01*
X183303Y118455D01*
X183387Y118507D01*
X183474Y118557D01*
X183562Y118602D01*
X183652Y118645D01*
X183744Y118684D01*
X183836Y118719D01*
X183931Y118751D01*
X184026Y118779D01*
X184122Y118804D01*
X184220Y118825D01*
X184318Y118842D01*
X184416Y118855D01*
X184515Y118864D01*
X184615Y118870D01*
X184714Y118872D01*
X187311Y118872D01*
X191676Y107188D02*
X195571Y107188D01*
X195670Y107190D01*
X195770Y107196D01*
X195869Y107205D01*
X195967Y107218D01*
X196065Y107235D01*
X196163Y107256D01*
X196259Y107281D01*
X196354Y107309D01*
X196448Y107341D01*
X196541Y107376D01*
X196633Y107415D01*
X196723Y107458D01*
X196811Y107503D01*
X196898Y107553D01*
X196982Y107605D01*
X197065Y107661D01*
X197145Y107719D01*
X197223Y107781D01*
X197298Y107846D01*
X197371Y107914D01*
X197441Y107984D01*
X197509Y108057D01*
X197574Y108132D01*
X197636Y108210D01*
X197694Y108290D01*
X197750Y108373D01*
X197802Y108457D01*
X197852Y108544D01*
X197897Y108632D01*
X197940Y108722D01*
X197979Y108814D01*
X198014Y108907D01*
X198046Y109001D01*
X198074Y109096D01*
X198099Y109192D01*
X198120Y109290D01*
X198137Y109388D01*
X198150Y109486D01*
X198159Y109585D01*
X198165Y109685D01*
X198167Y109784D01*
X198167Y111083D01*
X198165Y111182D01*
X198159Y111282D01*
X198150Y111381D01*
X198137Y111479D01*
X198120Y111577D01*
X198099Y111675D01*
X198074Y111771D01*
X198046Y111866D01*
X198014Y111960D01*
X197979Y112053D01*
X197940Y112145D01*
X197897Y112235D01*
X197852Y112323D01*
X197802Y112410D01*
X197750Y112494D01*
X197694Y112577D01*
X197636Y112657D01*
X197574Y112735D01*
X197509Y112810D01*
X197441Y112883D01*
X197371Y112953D01*
X197298Y113021D01*
X197223Y113086D01*
X197145Y113148D01*
X197065Y113206D01*
X196982Y113262D01*
X196898Y113314D01*
X196811Y113364D01*
X196723Y113409D01*
X196633Y113452D01*
X196541Y113491D01*
X196448Y113526D01*
X196354Y113558D01*
X196259Y113586D01*
X196163Y113611D01*
X196065Y113632D01*
X195967Y113649D01*
X195869Y113662D01*
X195770Y113671D01*
X195670Y113677D01*
X195571Y113679D01*
X191676Y113679D01*
X191676Y118872D01*
X198167Y118872D01*
X220274Y188468D02*
X222871Y188468D01*
X220274Y188468D02*
X220175Y188470D01*
X220075Y188476D01*
X219976Y188485D01*
X219878Y188498D01*
X219780Y188515D01*
X219682Y188536D01*
X219586Y188561D01*
X219491Y188589D01*
X219397Y188621D01*
X219304Y188656D01*
X219212Y188695D01*
X219122Y188738D01*
X219034Y188783D01*
X218947Y188833D01*
X218863Y188885D01*
X218780Y188941D01*
X218700Y188999D01*
X218622Y189061D01*
X218547Y189126D01*
X218474Y189194D01*
X218404Y189264D01*
X218336Y189337D01*
X218271Y189412D01*
X218209Y189490D01*
X218151Y189570D01*
X218095Y189653D01*
X218043Y189737D01*
X217993Y189824D01*
X217948Y189912D01*
X217905Y190002D01*
X217866Y190094D01*
X217831Y190187D01*
X217799Y190281D01*
X217771Y190376D01*
X217746Y190472D01*
X217725Y190570D01*
X217708Y190668D01*
X217695Y190766D01*
X217686Y190865D01*
X217680Y190965D01*
X217678Y191064D01*
X217678Y197556D01*
X217680Y197655D01*
X217686Y197755D01*
X217695Y197854D01*
X217708Y197952D01*
X217725Y198050D01*
X217746Y198148D01*
X217771Y198244D01*
X217799Y198339D01*
X217831Y198433D01*
X217866Y198526D01*
X217905Y198618D01*
X217948Y198708D01*
X217993Y198796D01*
X218043Y198883D01*
X218095Y198967D01*
X218151Y199050D01*
X218209Y199130D01*
X218271Y199208D01*
X218336Y199283D01*
X218404Y199356D01*
X218474Y199426D01*
X218547Y199494D01*
X218622Y199559D01*
X218700Y199621D01*
X218780Y199679D01*
X218863Y199735D01*
X218947Y199787D01*
X219034Y199837D01*
X219122Y199882D01*
X219212Y199925D01*
X219304Y199964D01*
X219396Y199999D01*
X219491Y200031D01*
X219586Y200059D01*
X219682Y200084D01*
X219780Y200105D01*
X219878Y200122D01*
X219976Y200135D01*
X220075Y200144D01*
X220175Y200150D01*
X220274Y200152D01*
X222871Y200152D01*
X227236Y194959D02*
X231131Y194959D01*
X231230Y194957D01*
X231330Y194951D01*
X231429Y194942D01*
X231527Y194929D01*
X231625Y194912D01*
X231723Y194891D01*
X231819Y194866D01*
X231914Y194838D01*
X232008Y194806D01*
X232101Y194771D01*
X232193Y194732D01*
X232283Y194689D01*
X232371Y194644D01*
X232458Y194594D01*
X232542Y194542D01*
X232625Y194486D01*
X232705Y194428D01*
X232783Y194366D01*
X232858Y194301D01*
X232931Y194233D01*
X233001Y194163D01*
X233069Y194090D01*
X233134Y194015D01*
X233196Y193937D01*
X233254Y193857D01*
X233310Y193774D01*
X233362Y193690D01*
X233412Y193603D01*
X233457Y193515D01*
X233500Y193425D01*
X233539Y193333D01*
X233574Y193240D01*
X233606Y193146D01*
X233634Y193051D01*
X233659Y192955D01*
X233680Y192857D01*
X233697Y192759D01*
X233710Y192661D01*
X233719Y192562D01*
X233725Y192462D01*
X233727Y192363D01*
X233727Y191714D01*
X233728Y191714D02*
X233726Y191601D01*
X233720Y191488D01*
X233710Y191375D01*
X233696Y191262D01*
X233679Y191150D01*
X233657Y191039D01*
X233632Y190929D01*
X233602Y190819D01*
X233569Y190711D01*
X233532Y190604D01*
X233492Y190498D01*
X233447Y190394D01*
X233399Y190291D01*
X233348Y190190D01*
X233293Y190091D01*
X233235Y189994D01*
X233173Y189899D01*
X233108Y189806D01*
X233040Y189716D01*
X232969Y189628D01*
X232894Y189542D01*
X232817Y189459D01*
X232737Y189379D01*
X232654Y189302D01*
X232568Y189227D01*
X232480Y189156D01*
X232390Y189088D01*
X232297Y189023D01*
X232202Y188961D01*
X232105Y188903D01*
X232006Y188848D01*
X231905Y188797D01*
X231802Y188749D01*
X231698Y188704D01*
X231592Y188664D01*
X231485Y188627D01*
X231377Y188594D01*
X231267Y188564D01*
X231157Y188539D01*
X231046Y188517D01*
X230934Y188500D01*
X230821Y188486D01*
X230708Y188476D01*
X230595Y188470D01*
X230482Y188468D01*
X230369Y188470D01*
X230256Y188476D01*
X230143Y188486D01*
X230030Y188500D01*
X229918Y188517D01*
X229807Y188539D01*
X229697Y188564D01*
X229587Y188594D01*
X229479Y188627D01*
X229372Y188664D01*
X229266Y188704D01*
X229162Y188749D01*
X229059Y188797D01*
X228958Y188848D01*
X228859Y188903D01*
X228762Y188961D01*
X228667Y189023D01*
X228574Y189088D01*
X228484Y189156D01*
X228396Y189227D01*
X228310Y189302D01*
X228227Y189379D01*
X228147Y189459D01*
X228070Y189542D01*
X227995Y189628D01*
X227924Y189716D01*
X227856Y189806D01*
X227791Y189899D01*
X227729Y189994D01*
X227671Y190091D01*
X227616Y190190D01*
X227565Y190291D01*
X227517Y190394D01*
X227472Y190498D01*
X227432Y190604D01*
X227395Y190711D01*
X227362Y190819D01*
X227332Y190929D01*
X227307Y191039D01*
X227285Y191150D01*
X227268Y191262D01*
X227254Y191375D01*
X227244Y191488D01*
X227238Y191601D01*
X227236Y191714D01*
X227236Y194959D01*
X227238Y195102D01*
X227244Y195245D01*
X227254Y195388D01*
X227268Y195530D01*
X227285Y195672D01*
X227307Y195814D01*
X227332Y195955D01*
X227362Y196095D01*
X227395Y196234D01*
X227432Y196372D01*
X227473Y196509D01*
X227517Y196645D01*
X227566Y196780D01*
X227618Y196913D01*
X227673Y197045D01*
X227733Y197175D01*
X227796Y197304D01*
X227862Y197431D01*
X227932Y197555D01*
X228005Y197678D01*
X228082Y197799D01*
X228162Y197918D01*
X228245Y198034D01*
X228331Y198149D01*
X228420Y198260D01*
X228513Y198370D01*
X228608Y198476D01*
X228707Y198580D01*
X228808Y198681D01*
X228912Y198780D01*
X229018Y198875D01*
X229128Y198968D01*
X229239Y199057D01*
X229354Y199143D01*
X229470Y199226D01*
X229589Y199306D01*
X229710Y199383D01*
X229832Y199456D01*
X229957Y199526D01*
X230084Y199592D01*
X230213Y199655D01*
X230343Y199715D01*
X230475Y199770D01*
X230608Y199822D01*
X230743Y199871D01*
X230879Y199915D01*
X231016Y199956D01*
X231154Y199993D01*
X231293Y200026D01*
X231433Y200056D01*
X231574Y200081D01*
X231716Y200103D01*
X231858Y200120D01*
X232000Y200134D01*
X232143Y200144D01*
X232286Y200150D01*
X232429Y200152D01*
X217791Y107188D02*
X215194Y107188D01*
X215095Y107190D01*
X214995Y107196D01*
X214896Y107205D01*
X214798Y107218D01*
X214700Y107235D01*
X214602Y107256D01*
X214506Y107281D01*
X214411Y107309D01*
X214317Y107341D01*
X214224Y107376D01*
X214132Y107415D01*
X214042Y107458D01*
X213954Y107503D01*
X213867Y107553D01*
X213783Y107605D01*
X213700Y107661D01*
X213620Y107719D01*
X213542Y107781D01*
X213467Y107846D01*
X213394Y107914D01*
X213324Y107984D01*
X213256Y108057D01*
X213191Y108132D01*
X213129Y108210D01*
X213071Y108290D01*
X213015Y108373D01*
X212963Y108457D01*
X212913Y108544D01*
X212868Y108632D01*
X212825Y108722D01*
X212786Y108814D01*
X212751Y108907D01*
X212719Y109001D01*
X212691Y109096D01*
X212666Y109192D01*
X212645Y109290D01*
X212628Y109388D01*
X212615Y109486D01*
X212606Y109585D01*
X212600Y109685D01*
X212598Y109784D01*
X212598Y116276D01*
X212600Y116375D01*
X212606Y116475D01*
X212615Y116574D01*
X212628Y116672D01*
X212645Y116770D01*
X212666Y116868D01*
X212691Y116964D01*
X212719Y117059D01*
X212751Y117153D01*
X212786Y117246D01*
X212825Y117338D01*
X212868Y117428D01*
X212913Y117516D01*
X212963Y117603D01*
X213015Y117687D01*
X213071Y117770D01*
X213129Y117850D01*
X213191Y117928D01*
X213256Y118003D01*
X213324Y118076D01*
X213394Y118146D01*
X213467Y118214D01*
X213542Y118279D01*
X213620Y118341D01*
X213700Y118399D01*
X213783Y118455D01*
X213867Y118507D01*
X213954Y118557D01*
X214042Y118602D01*
X214132Y118645D01*
X214224Y118684D01*
X214316Y118719D01*
X214411Y118751D01*
X214506Y118779D01*
X214602Y118804D01*
X214700Y118825D01*
X214798Y118842D01*
X214896Y118855D01*
X214995Y118864D01*
X215095Y118870D01*
X215194Y118872D01*
X217791Y118872D01*
X222156Y118872D02*
X222156Y117574D01*
X222156Y118872D02*
X228647Y118872D01*
X225402Y107188D01*
X268534Y157988D02*
X271131Y157988D01*
X268534Y157988D02*
X268435Y157990D01*
X268335Y157996D01*
X268236Y158005D01*
X268138Y158018D01*
X268040Y158035D01*
X267942Y158056D01*
X267846Y158081D01*
X267751Y158109D01*
X267657Y158141D01*
X267564Y158176D01*
X267472Y158215D01*
X267382Y158258D01*
X267294Y158303D01*
X267207Y158353D01*
X267123Y158405D01*
X267040Y158461D01*
X266960Y158519D01*
X266882Y158581D01*
X266807Y158646D01*
X266734Y158714D01*
X266664Y158784D01*
X266596Y158857D01*
X266531Y158932D01*
X266469Y159010D01*
X266411Y159090D01*
X266355Y159173D01*
X266303Y159257D01*
X266253Y159344D01*
X266208Y159432D01*
X266165Y159522D01*
X266126Y159614D01*
X266091Y159707D01*
X266059Y159801D01*
X266031Y159896D01*
X266006Y159992D01*
X265985Y160090D01*
X265968Y160188D01*
X265955Y160286D01*
X265946Y160385D01*
X265940Y160485D01*
X265938Y160584D01*
X265938Y167076D01*
X265940Y167175D01*
X265946Y167275D01*
X265955Y167374D01*
X265968Y167472D01*
X265985Y167570D01*
X266006Y167668D01*
X266031Y167764D01*
X266059Y167859D01*
X266091Y167953D01*
X266126Y168046D01*
X266165Y168138D01*
X266208Y168228D01*
X266253Y168316D01*
X266303Y168403D01*
X266355Y168487D01*
X266411Y168570D01*
X266469Y168650D01*
X266531Y168728D01*
X266596Y168803D01*
X266664Y168876D01*
X266734Y168946D01*
X266807Y169014D01*
X266882Y169079D01*
X266960Y169141D01*
X267040Y169199D01*
X267123Y169255D01*
X267207Y169307D01*
X267294Y169357D01*
X267382Y169402D01*
X267472Y169445D01*
X267564Y169484D01*
X267656Y169519D01*
X267751Y169551D01*
X267846Y169579D01*
X267942Y169604D01*
X268040Y169625D01*
X268138Y169642D01*
X268236Y169655D01*
X268335Y169664D01*
X268435Y169670D01*
X268534Y169672D01*
X271131Y169672D01*
X275496Y161234D02*
X275498Y161347D01*
X275504Y161460D01*
X275514Y161573D01*
X275528Y161686D01*
X275545Y161798D01*
X275567Y161909D01*
X275592Y162019D01*
X275622Y162129D01*
X275655Y162237D01*
X275692Y162344D01*
X275732Y162450D01*
X275777Y162554D01*
X275825Y162657D01*
X275876Y162758D01*
X275931Y162857D01*
X275989Y162954D01*
X276051Y163049D01*
X276116Y163142D01*
X276184Y163232D01*
X276255Y163320D01*
X276330Y163406D01*
X276407Y163489D01*
X276487Y163569D01*
X276570Y163646D01*
X276656Y163721D01*
X276744Y163792D01*
X276834Y163860D01*
X276927Y163925D01*
X277022Y163987D01*
X277119Y164045D01*
X277218Y164100D01*
X277319Y164151D01*
X277422Y164199D01*
X277526Y164244D01*
X277632Y164284D01*
X277739Y164321D01*
X277847Y164354D01*
X277957Y164384D01*
X278067Y164409D01*
X278178Y164431D01*
X278290Y164448D01*
X278403Y164462D01*
X278516Y164472D01*
X278629Y164478D01*
X278742Y164480D01*
X278855Y164478D01*
X278968Y164472D01*
X279081Y164462D01*
X279194Y164448D01*
X279306Y164431D01*
X279417Y164409D01*
X279527Y164384D01*
X279637Y164354D01*
X279745Y164321D01*
X279852Y164284D01*
X279958Y164244D01*
X280062Y164199D01*
X280165Y164151D01*
X280266Y164100D01*
X280365Y164045D01*
X280462Y163987D01*
X280557Y163925D01*
X280650Y163860D01*
X280740Y163792D01*
X280828Y163721D01*
X280914Y163646D01*
X280997Y163569D01*
X281077Y163489D01*
X281154Y163406D01*
X281229Y163320D01*
X281300Y163232D01*
X281368Y163142D01*
X281433Y163049D01*
X281495Y162954D01*
X281553Y162857D01*
X281608Y162758D01*
X281659Y162657D01*
X281707Y162554D01*
X281752Y162450D01*
X281792Y162344D01*
X281829Y162237D01*
X281862Y162129D01*
X281892Y162019D01*
X281917Y161909D01*
X281939Y161798D01*
X281956Y161686D01*
X281970Y161573D01*
X281980Y161460D01*
X281986Y161347D01*
X281988Y161234D01*
X281986Y161121D01*
X281980Y161008D01*
X281970Y160895D01*
X281956Y160782D01*
X281939Y160670D01*
X281917Y160559D01*
X281892Y160449D01*
X281862Y160339D01*
X281829Y160231D01*
X281792Y160124D01*
X281752Y160018D01*
X281707Y159914D01*
X281659Y159811D01*
X281608Y159710D01*
X281553Y159611D01*
X281495Y159514D01*
X281433Y159419D01*
X281368Y159326D01*
X281300Y159236D01*
X281229Y159148D01*
X281154Y159062D01*
X281077Y158979D01*
X280997Y158899D01*
X280914Y158822D01*
X280828Y158747D01*
X280740Y158676D01*
X280650Y158608D01*
X280557Y158543D01*
X280462Y158481D01*
X280365Y158423D01*
X280266Y158368D01*
X280165Y158317D01*
X280062Y158269D01*
X279958Y158224D01*
X279852Y158184D01*
X279745Y158147D01*
X279637Y158114D01*
X279527Y158084D01*
X279417Y158059D01*
X279306Y158037D01*
X279194Y158020D01*
X279081Y158006D01*
X278968Y157996D01*
X278855Y157990D01*
X278742Y157988D01*
X278629Y157990D01*
X278516Y157996D01*
X278403Y158006D01*
X278290Y158020D01*
X278178Y158037D01*
X278067Y158059D01*
X277957Y158084D01*
X277847Y158114D01*
X277739Y158147D01*
X277632Y158184D01*
X277526Y158224D01*
X277422Y158269D01*
X277319Y158317D01*
X277218Y158368D01*
X277119Y158423D01*
X277022Y158481D01*
X276927Y158543D01*
X276834Y158608D01*
X276744Y158676D01*
X276656Y158747D01*
X276570Y158822D01*
X276487Y158899D01*
X276407Y158979D01*
X276330Y159062D01*
X276255Y159148D01*
X276184Y159236D01*
X276116Y159326D01*
X276051Y159419D01*
X275989Y159514D01*
X275931Y159611D01*
X275876Y159710D01*
X275825Y159811D01*
X275777Y159914D01*
X275732Y160018D01*
X275692Y160124D01*
X275655Y160231D01*
X275622Y160339D01*
X275592Y160449D01*
X275567Y160559D01*
X275545Y160670D01*
X275528Y160782D01*
X275514Y160895D01*
X275504Y161008D01*
X275498Y161121D01*
X275496Y161234D01*
X276146Y167076D02*
X276148Y167177D01*
X276154Y167277D01*
X276164Y167377D01*
X276177Y167477D01*
X276195Y167576D01*
X276216Y167675D01*
X276241Y167772D01*
X276270Y167869D01*
X276303Y167964D01*
X276339Y168058D01*
X276379Y168150D01*
X276422Y168241D01*
X276469Y168330D01*
X276519Y168417D01*
X276573Y168503D01*
X276630Y168586D01*
X276690Y168666D01*
X276753Y168745D01*
X276820Y168821D01*
X276889Y168894D01*
X276961Y168964D01*
X277035Y169032D01*
X277112Y169097D01*
X277192Y169158D01*
X277274Y169217D01*
X277358Y169272D01*
X277444Y169324D01*
X277532Y169373D01*
X277622Y169418D01*
X277714Y169460D01*
X277807Y169498D01*
X277902Y169532D01*
X277997Y169563D01*
X278094Y169590D01*
X278192Y169613D01*
X278291Y169633D01*
X278391Y169648D01*
X278491Y169660D01*
X278591Y169668D01*
X278692Y169672D01*
X278792Y169672D01*
X278893Y169668D01*
X278993Y169660D01*
X279093Y169648D01*
X279193Y169633D01*
X279292Y169613D01*
X279390Y169590D01*
X279487Y169563D01*
X279582Y169532D01*
X279677Y169498D01*
X279770Y169460D01*
X279862Y169418D01*
X279952Y169373D01*
X280040Y169324D01*
X280126Y169272D01*
X280210Y169217D01*
X280292Y169158D01*
X280372Y169097D01*
X280449Y169032D01*
X280523Y168964D01*
X280595Y168894D01*
X280664Y168821D01*
X280731Y168745D01*
X280794Y168666D01*
X280854Y168586D01*
X280911Y168503D01*
X280965Y168417D01*
X281015Y168330D01*
X281062Y168241D01*
X281105Y168150D01*
X281145Y168058D01*
X281181Y167964D01*
X281214Y167869D01*
X281243Y167772D01*
X281268Y167675D01*
X281289Y167576D01*
X281307Y167477D01*
X281320Y167377D01*
X281330Y167277D01*
X281336Y167177D01*
X281338Y167076D01*
X281336Y166975D01*
X281330Y166875D01*
X281320Y166775D01*
X281307Y166675D01*
X281289Y166576D01*
X281268Y166477D01*
X281243Y166380D01*
X281214Y166283D01*
X281181Y166188D01*
X281145Y166094D01*
X281105Y166002D01*
X281062Y165911D01*
X281015Y165822D01*
X280965Y165735D01*
X280911Y165649D01*
X280854Y165566D01*
X280794Y165486D01*
X280731Y165407D01*
X280664Y165331D01*
X280595Y165258D01*
X280523Y165188D01*
X280449Y165120D01*
X280372Y165055D01*
X280292Y164994D01*
X280210Y164935D01*
X280126Y164880D01*
X280040Y164828D01*
X279952Y164779D01*
X279862Y164734D01*
X279770Y164692D01*
X279677Y164654D01*
X279582Y164620D01*
X279487Y164589D01*
X279390Y164562D01*
X279292Y164539D01*
X279193Y164519D01*
X279093Y164504D01*
X278993Y164492D01*
X278893Y164484D01*
X278792Y164480D01*
X278692Y164480D01*
X278591Y164484D01*
X278491Y164492D01*
X278391Y164504D01*
X278291Y164519D01*
X278192Y164539D01*
X278094Y164562D01*
X277997Y164589D01*
X277902Y164620D01*
X277807Y164654D01*
X277714Y164692D01*
X277622Y164734D01*
X277532Y164779D01*
X277444Y164828D01*
X277358Y164880D01*
X277274Y164935D01*
X277192Y164994D01*
X277112Y165055D01*
X277035Y165120D01*
X276961Y165188D01*
X276889Y165258D01*
X276820Y165331D01*
X276753Y165407D01*
X276690Y165486D01*
X276630Y165566D01*
X276573Y165649D01*
X276519Y165735D01*
X276469Y165822D01*
X276422Y165911D01*
X276379Y166002D01*
X276339Y166094D01*
X276303Y166188D01*
X276270Y166283D01*
X276241Y166380D01*
X276216Y166477D01*
X276195Y166576D01*
X276177Y166675D01*
X276164Y166775D01*
X276154Y166875D01*
X276148Y166975D01*
X276146Y167076D01*
X438714Y244348D02*
X441311Y244348D01*
X438714Y244348D02*
X438615Y244350D01*
X438515Y244356D01*
X438416Y244365D01*
X438318Y244378D01*
X438220Y244395D01*
X438122Y244416D01*
X438026Y244441D01*
X437931Y244469D01*
X437837Y244501D01*
X437744Y244536D01*
X437652Y244575D01*
X437562Y244618D01*
X437474Y244663D01*
X437387Y244713D01*
X437303Y244765D01*
X437220Y244821D01*
X437140Y244879D01*
X437062Y244941D01*
X436987Y245006D01*
X436914Y245074D01*
X436844Y245144D01*
X436776Y245217D01*
X436711Y245292D01*
X436649Y245370D01*
X436591Y245450D01*
X436535Y245533D01*
X436483Y245617D01*
X436433Y245704D01*
X436388Y245792D01*
X436345Y245882D01*
X436306Y245974D01*
X436271Y246067D01*
X436239Y246161D01*
X436211Y246256D01*
X436186Y246352D01*
X436165Y246450D01*
X436148Y246548D01*
X436135Y246646D01*
X436126Y246745D01*
X436120Y246845D01*
X436118Y246944D01*
X436118Y253436D01*
X436120Y253535D01*
X436126Y253635D01*
X436135Y253734D01*
X436148Y253832D01*
X436165Y253930D01*
X436186Y254028D01*
X436211Y254124D01*
X436239Y254219D01*
X436271Y254313D01*
X436306Y254406D01*
X436345Y254498D01*
X436388Y254588D01*
X436433Y254676D01*
X436483Y254763D01*
X436535Y254847D01*
X436591Y254930D01*
X436649Y255010D01*
X436711Y255088D01*
X436776Y255163D01*
X436844Y255236D01*
X436914Y255306D01*
X436987Y255374D01*
X437062Y255439D01*
X437140Y255501D01*
X437220Y255559D01*
X437303Y255615D01*
X437387Y255667D01*
X437474Y255717D01*
X437562Y255762D01*
X437652Y255805D01*
X437744Y255844D01*
X437836Y255879D01*
X437931Y255911D01*
X438026Y255939D01*
X438122Y255964D01*
X438220Y255985D01*
X438318Y256002D01*
X438416Y256015D01*
X438515Y256024D01*
X438615Y256030D01*
X438714Y256032D01*
X441311Y256032D01*
X448273Y249541D02*
X452167Y249541D01*
X448273Y249541D02*
X448174Y249543D01*
X448074Y249549D01*
X447975Y249558D01*
X447877Y249571D01*
X447779Y249588D01*
X447681Y249609D01*
X447585Y249634D01*
X447490Y249662D01*
X447396Y249694D01*
X447303Y249729D01*
X447211Y249768D01*
X447121Y249811D01*
X447033Y249856D01*
X446946Y249906D01*
X446862Y249958D01*
X446779Y250014D01*
X446699Y250072D01*
X446621Y250134D01*
X446546Y250199D01*
X446473Y250267D01*
X446403Y250337D01*
X446335Y250410D01*
X446270Y250485D01*
X446208Y250563D01*
X446150Y250643D01*
X446094Y250726D01*
X446042Y250810D01*
X445992Y250897D01*
X445947Y250985D01*
X445904Y251075D01*
X445865Y251167D01*
X445830Y251260D01*
X445798Y251354D01*
X445770Y251449D01*
X445745Y251545D01*
X445724Y251643D01*
X445707Y251741D01*
X445694Y251839D01*
X445685Y251938D01*
X445679Y252038D01*
X445677Y252137D01*
X445676Y252137D02*
X445676Y252786D01*
X445678Y252899D01*
X445684Y253012D01*
X445694Y253125D01*
X445708Y253238D01*
X445725Y253350D01*
X445747Y253461D01*
X445772Y253571D01*
X445802Y253681D01*
X445835Y253789D01*
X445872Y253896D01*
X445912Y254002D01*
X445957Y254106D01*
X446005Y254209D01*
X446056Y254310D01*
X446111Y254409D01*
X446169Y254506D01*
X446231Y254601D01*
X446296Y254694D01*
X446364Y254784D01*
X446435Y254872D01*
X446510Y254958D01*
X446587Y255041D01*
X446667Y255121D01*
X446750Y255198D01*
X446836Y255273D01*
X446924Y255344D01*
X447014Y255412D01*
X447107Y255477D01*
X447202Y255539D01*
X447299Y255597D01*
X447398Y255652D01*
X447499Y255703D01*
X447602Y255751D01*
X447706Y255796D01*
X447812Y255836D01*
X447919Y255873D01*
X448027Y255906D01*
X448137Y255936D01*
X448247Y255961D01*
X448358Y255983D01*
X448470Y256000D01*
X448583Y256014D01*
X448696Y256024D01*
X448809Y256030D01*
X448922Y256032D01*
X449035Y256030D01*
X449148Y256024D01*
X449261Y256014D01*
X449374Y256000D01*
X449486Y255983D01*
X449597Y255961D01*
X449707Y255936D01*
X449817Y255906D01*
X449925Y255873D01*
X450032Y255836D01*
X450138Y255796D01*
X450242Y255751D01*
X450345Y255703D01*
X450446Y255652D01*
X450545Y255597D01*
X450642Y255539D01*
X450737Y255477D01*
X450830Y255412D01*
X450920Y255344D01*
X451008Y255273D01*
X451094Y255198D01*
X451177Y255121D01*
X451257Y255041D01*
X451334Y254958D01*
X451409Y254872D01*
X451480Y254784D01*
X451548Y254694D01*
X451613Y254601D01*
X451675Y254506D01*
X451733Y254409D01*
X451788Y254310D01*
X451839Y254209D01*
X451887Y254106D01*
X451932Y254002D01*
X451972Y253896D01*
X452009Y253789D01*
X452042Y253681D01*
X452072Y253571D01*
X452097Y253461D01*
X452119Y253350D01*
X452136Y253238D01*
X452150Y253125D01*
X452160Y253012D01*
X452166Y252899D01*
X452168Y252786D01*
X452167Y252786D02*
X452167Y249541D01*
X452165Y249398D01*
X452159Y249255D01*
X452149Y249112D01*
X452135Y248970D01*
X452118Y248828D01*
X452096Y248686D01*
X452071Y248545D01*
X452041Y248405D01*
X452008Y248266D01*
X451971Y248128D01*
X451930Y247991D01*
X451886Y247855D01*
X451837Y247720D01*
X451785Y247587D01*
X451730Y247455D01*
X451670Y247325D01*
X451607Y247196D01*
X451541Y247069D01*
X451471Y246944D01*
X451398Y246822D01*
X451321Y246701D01*
X451241Y246582D01*
X451158Y246466D01*
X451072Y246351D01*
X450983Y246240D01*
X450890Y246130D01*
X450795Y246024D01*
X450696Y245920D01*
X450595Y245819D01*
X450491Y245720D01*
X450385Y245625D01*
X450275Y245532D01*
X450164Y245443D01*
X450049Y245357D01*
X449933Y245274D01*
X449814Y245194D01*
X449693Y245117D01*
X449571Y245044D01*
X449446Y244974D01*
X449319Y244908D01*
X449190Y244845D01*
X449060Y244785D01*
X448928Y244730D01*
X448795Y244678D01*
X448660Y244629D01*
X448524Y244585D01*
X448387Y244544D01*
X448249Y244507D01*
X448110Y244474D01*
X447970Y244444D01*
X447829Y244419D01*
X447687Y244397D01*
X447545Y244380D01*
X447403Y244366D01*
X447260Y244356D01*
X447117Y244350D01*
X446974Y244348D01*
X456494Y102108D02*
X459091Y102108D01*
X456494Y102108D02*
X456395Y102110D01*
X456295Y102116D01*
X456196Y102125D01*
X456098Y102138D01*
X456000Y102155D01*
X455902Y102176D01*
X455806Y102201D01*
X455711Y102229D01*
X455617Y102261D01*
X455524Y102296D01*
X455432Y102335D01*
X455342Y102378D01*
X455254Y102423D01*
X455167Y102473D01*
X455083Y102525D01*
X455000Y102581D01*
X454920Y102639D01*
X454842Y102701D01*
X454767Y102766D01*
X454694Y102834D01*
X454624Y102904D01*
X454556Y102977D01*
X454491Y103052D01*
X454429Y103130D01*
X454371Y103210D01*
X454315Y103293D01*
X454263Y103377D01*
X454213Y103464D01*
X454168Y103552D01*
X454125Y103642D01*
X454086Y103734D01*
X454051Y103827D01*
X454019Y103921D01*
X453991Y104016D01*
X453966Y104112D01*
X453945Y104210D01*
X453928Y104308D01*
X453915Y104406D01*
X453906Y104505D01*
X453900Y104605D01*
X453898Y104704D01*
X453898Y111196D01*
X453900Y111295D01*
X453906Y111395D01*
X453915Y111494D01*
X453928Y111592D01*
X453945Y111690D01*
X453966Y111788D01*
X453991Y111884D01*
X454019Y111979D01*
X454051Y112073D01*
X454086Y112166D01*
X454125Y112258D01*
X454168Y112348D01*
X454213Y112436D01*
X454263Y112523D01*
X454315Y112607D01*
X454371Y112690D01*
X454429Y112770D01*
X454491Y112848D01*
X454556Y112923D01*
X454624Y112996D01*
X454694Y113066D01*
X454767Y113134D01*
X454842Y113199D01*
X454920Y113261D01*
X455000Y113319D01*
X455083Y113375D01*
X455167Y113427D01*
X455254Y113477D01*
X455342Y113522D01*
X455432Y113565D01*
X455524Y113604D01*
X455616Y113639D01*
X455711Y113671D01*
X455806Y113699D01*
X455902Y113724D01*
X456000Y113745D01*
X456098Y113762D01*
X456196Y113775D01*
X456295Y113784D01*
X456395Y113790D01*
X456494Y113792D01*
X459091Y113792D01*
X463456Y111196D02*
X466702Y113792D01*
X466702Y102108D01*
X469947Y102108D02*
X463456Y102108D01*
X474887Y107950D02*
X474890Y108180D01*
X474898Y108410D01*
X474912Y108639D01*
X474931Y108868D01*
X474956Y109097D01*
X474986Y109324D01*
X475021Y109552D01*
X475062Y109778D01*
X475108Y110003D01*
X475160Y110227D01*
X475217Y110449D01*
X475279Y110671D01*
X475347Y110890D01*
X475420Y111108D01*
X475498Y111325D01*
X475581Y111539D01*
X475669Y111751D01*
X475762Y111961D01*
X475861Y112169D01*
X475860Y112169D02*
X475893Y112259D01*
X475929Y112348D01*
X475969Y112436D01*
X476013Y112521D01*
X476060Y112605D01*
X476110Y112687D01*
X476164Y112767D01*
X476220Y112844D01*
X476280Y112920D01*
X476343Y112993D01*
X476408Y113063D01*
X476477Y113131D01*
X476548Y113195D01*
X476621Y113257D01*
X476697Y113316D01*
X476775Y113372D01*
X476856Y113425D01*
X476938Y113474D01*
X477022Y113520D01*
X477109Y113563D01*
X477196Y113602D01*
X477286Y113638D01*
X477376Y113670D01*
X477468Y113698D01*
X477561Y113723D01*
X477655Y113744D01*
X477749Y113761D01*
X477844Y113775D01*
X477940Y113784D01*
X478036Y113790D01*
X478132Y113792D01*
X478228Y113790D01*
X478324Y113784D01*
X478420Y113775D01*
X478515Y113761D01*
X478609Y113744D01*
X478703Y113723D01*
X478796Y113698D01*
X478888Y113670D01*
X478978Y113638D01*
X479068Y113602D01*
X479155Y113563D01*
X479242Y113520D01*
X479326Y113474D01*
X479408Y113425D01*
X479489Y113372D01*
X479567Y113316D01*
X479643Y113257D01*
X479716Y113195D01*
X479787Y113131D01*
X479856Y113063D01*
X479921Y112993D01*
X479984Y112920D01*
X480044Y112844D01*
X480100Y112767D01*
X480154Y112687D01*
X480204Y112605D01*
X480251Y112521D01*
X480295Y112436D01*
X480335Y112348D01*
X480371Y112259D01*
X480404Y112169D01*
X480503Y111962D01*
X480596Y111752D01*
X480684Y111539D01*
X480767Y111325D01*
X480845Y111109D01*
X480918Y110891D01*
X480986Y110671D01*
X481048Y110450D01*
X481105Y110227D01*
X481157Y110003D01*
X481203Y109778D01*
X481244Y109552D01*
X481279Y109325D01*
X481309Y109097D01*
X481334Y108868D01*
X481353Y108639D01*
X481367Y108410D01*
X481375Y108180D01*
X481378Y107950D01*
X474886Y107950D02*
X474889Y107720D01*
X474897Y107490D01*
X474911Y107261D01*
X474930Y107032D01*
X474955Y106803D01*
X474985Y106575D01*
X475020Y106348D01*
X475061Y106122D01*
X475107Y105897D01*
X475159Y105673D01*
X475216Y105450D01*
X475278Y105229D01*
X475346Y105009D01*
X475419Y104791D01*
X475497Y104575D01*
X475580Y104361D01*
X475668Y104149D01*
X475761Y103938D01*
X475860Y103731D01*
X475893Y103641D01*
X475929Y103552D01*
X475970Y103464D01*
X476013Y103379D01*
X476060Y103295D01*
X476110Y103213D01*
X476164Y103133D01*
X476220Y103056D01*
X476280Y102980D01*
X476343Y102907D01*
X476408Y102837D01*
X476477Y102769D01*
X476548Y102705D01*
X476621Y102643D01*
X476697Y102584D01*
X476775Y102528D01*
X476856Y102475D01*
X476938Y102426D01*
X477022Y102380D01*
X477109Y102337D01*
X477196Y102298D01*
X477286Y102262D01*
X477376Y102230D01*
X477468Y102202D01*
X477561Y102177D01*
X477655Y102156D01*
X477749Y102139D01*
X477844Y102125D01*
X477940Y102116D01*
X478036Y102110D01*
X478132Y102108D01*
X480404Y103731D02*
X480503Y103938D01*
X480596Y104149D01*
X480684Y104361D01*
X480767Y104575D01*
X480845Y104791D01*
X480918Y105009D01*
X480986Y105229D01*
X481048Y105450D01*
X481105Y105673D01*
X481157Y105897D01*
X481203Y106122D01*
X481244Y106348D01*
X481279Y106575D01*
X481309Y106803D01*
X481334Y107032D01*
X481353Y107261D01*
X481367Y107490D01*
X481375Y107720D01*
X481378Y107950D01*
X480404Y103731D02*
X480371Y103641D01*
X480335Y103552D01*
X480295Y103464D01*
X480251Y103379D01*
X480204Y103295D01*
X480154Y103213D01*
X480100Y103133D01*
X480044Y103056D01*
X479984Y102980D01*
X479921Y102907D01*
X479856Y102837D01*
X479787Y102769D01*
X479716Y102705D01*
X479643Y102643D01*
X479567Y102584D01*
X479489Y102528D01*
X479408Y102475D01*
X479326Y102426D01*
X479242Y102380D01*
X479155Y102337D01*
X479068Y102298D01*
X478978Y102262D01*
X478888Y102230D01*
X478796Y102202D01*
X478703Y102177D01*
X478609Y102156D01*
X478515Y102139D01*
X478420Y102125D01*
X478324Y102116D01*
X478228Y102110D01*
X478132Y102108D01*
X475535Y104704D02*
X480728Y111196D01*
D11*
X391710Y115020D02*
X391710Y87545D01*
X391710Y115020D02*
X400135Y115020D01*
X428710Y115020D02*
X428710Y87545D01*
X428710Y115020D02*
X420285Y115020D01*
X416010Y78020D02*
X404410Y78020D01*
D10*
X401193Y125603D02*
X401193Y137287D01*
X404439Y137287D01*
X404552Y137285D01*
X404665Y137279D01*
X404778Y137269D01*
X404891Y137255D01*
X405003Y137238D01*
X405114Y137216D01*
X405224Y137191D01*
X405334Y137161D01*
X405442Y137128D01*
X405549Y137091D01*
X405655Y137051D01*
X405759Y137006D01*
X405862Y136958D01*
X405963Y136907D01*
X406062Y136852D01*
X406159Y136794D01*
X406254Y136732D01*
X406347Y136667D01*
X406437Y136599D01*
X406525Y136528D01*
X406611Y136453D01*
X406694Y136376D01*
X406774Y136296D01*
X406851Y136213D01*
X406926Y136127D01*
X406997Y136039D01*
X407065Y135949D01*
X407130Y135856D01*
X407192Y135761D01*
X407250Y135664D01*
X407305Y135565D01*
X407356Y135464D01*
X407404Y135361D01*
X407449Y135257D01*
X407489Y135151D01*
X407526Y135044D01*
X407559Y134936D01*
X407589Y134826D01*
X407614Y134716D01*
X407636Y134605D01*
X407653Y134493D01*
X407667Y134380D01*
X407677Y134267D01*
X407683Y134154D01*
X407685Y134041D01*
X407683Y133928D01*
X407677Y133815D01*
X407667Y133702D01*
X407653Y133589D01*
X407636Y133477D01*
X407614Y133366D01*
X407589Y133256D01*
X407559Y133146D01*
X407526Y133038D01*
X407489Y132931D01*
X407449Y132825D01*
X407404Y132721D01*
X407356Y132618D01*
X407305Y132517D01*
X407250Y132418D01*
X407192Y132321D01*
X407130Y132226D01*
X407065Y132133D01*
X406997Y132043D01*
X406926Y131955D01*
X406851Y131869D01*
X406774Y131786D01*
X406694Y131706D01*
X406611Y131629D01*
X406525Y131554D01*
X406437Y131483D01*
X406347Y131415D01*
X406254Y131350D01*
X406159Y131288D01*
X406062Y131230D01*
X405963Y131175D01*
X405862Y131124D01*
X405759Y131076D01*
X405655Y131031D01*
X405549Y130991D01*
X405442Y130954D01*
X405334Y130921D01*
X405224Y130891D01*
X405114Y130866D01*
X405003Y130844D01*
X404891Y130827D01*
X404778Y130813D01*
X404665Y130803D01*
X404552Y130797D01*
X404439Y130795D01*
X404439Y130796D02*
X401193Y130796D01*
X405088Y130796D02*
X407684Y125603D01*
X412549Y134691D02*
X415795Y137287D01*
X415795Y125603D01*
X419040Y125603D02*
X412549Y125603D01*
X241808Y217678D02*
X241808Y229362D01*
X245054Y229362D01*
X245167Y229360D01*
X245280Y229354D01*
X245393Y229344D01*
X245506Y229330D01*
X245618Y229313D01*
X245729Y229291D01*
X245839Y229266D01*
X245949Y229236D01*
X246057Y229203D01*
X246164Y229166D01*
X246270Y229126D01*
X246374Y229081D01*
X246477Y229033D01*
X246578Y228982D01*
X246677Y228927D01*
X246774Y228869D01*
X246869Y228807D01*
X246962Y228742D01*
X247052Y228674D01*
X247140Y228603D01*
X247226Y228528D01*
X247309Y228451D01*
X247389Y228371D01*
X247466Y228288D01*
X247541Y228202D01*
X247612Y228114D01*
X247680Y228024D01*
X247745Y227931D01*
X247807Y227836D01*
X247865Y227739D01*
X247920Y227640D01*
X247971Y227539D01*
X248019Y227436D01*
X248064Y227332D01*
X248104Y227226D01*
X248141Y227119D01*
X248174Y227011D01*
X248204Y226901D01*
X248229Y226791D01*
X248251Y226680D01*
X248268Y226568D01*
X248282Y226455D01*
X248292Y226342D01*
X248298Y226229D01*
X248300Y226116D01*
X248298Y226003D01*
X248292Y225890D01*
X248282Y225777D01*
X248268Y225664D01*
X248251Y225552D01*
X248229Y225441D01*
X248204Y225331D01*
X248174Y225221D01*
X248141Y225113D01*
X248104Y225006D01*
X248064Y224900D01*
X248019Y224796D01*
X247971Y224693D01*
X247920Y224592D01*
X247865Y224493D01*
X247807Y224396D01*
X247745Y224301D01*
X247680Y224208D01*
X247612Y224118D01*
X247541Y224030D01*
X247466Y223944D01*
X247389Y223861D01*
X247309Y223781D01*
X247226Y223704D01*
X247140Y223629D01*
X247052Y223558D01*
X246962Y223490D01*
X246869Y223425D01*
X246774Y223363D01*
X246677Y223305D01*
X246578Y223250D01*
X246477Y223199D01*
X246374Y223151D01*
X246270Y223106D01*
X246164Y223066D01*
X246057Y223029D01*
X245949Y222996D01*
X245839Y222966D01*
X245729Y222941D01*
X245618Y222919D01*
X245506Y222902D01*
X245393Y222888D01*
X245280Y222878D01*
X245167Y222872D01*
X245054Y222870D01*
X245054Y222871D02*
X241808Y222871D01*
X245703Y222871D02*
X248299Y217678D01*
X253164Y226766D02*
X256410Y229362D01*
X256410Y217678D01*
X259655Y217678D02*
X253164Y217678D01*
X264595Y223520D02*
X264598Y223750D01*
X264606Y223980D01*
X264620Y224209D01*
X264639Y224438D01*
X264664Y224667D01*
X264694Y224894D01*
X264729Y225122D01*
X264770Y225348D01*
X264816Y225573D01*
X264868Y225797D01*
X264925Y226019D01*
X264987Y226241D01*
X265055Y226460D01*
X265128Y226678D01*
X265206Y226895D01*
X265289Y227109D01*
X265377Y227321D01*
X265470Y227531D01*
X265569Y227739D01*
X265568Y227739D02*
X265601Y227829D01*
X265637Y227918D01*
X265677Y228006D01*
X265721Y228091D01*
X265768Y228175D01*
X265818Y228257D01*
X265872Y228337D01*
X265928Y228414D01*
X265988Y228490D01*
X266051Y228563D01*
X266116Y228633D01*
X266185Y228701D01*
X266256Y228765D01*
X266329Y228827D01*
X266405Y228886D01*
X266483Y228942D01*
X266564Y228995D01*
X266646Y229044D01*
X266730Y229090D01*
X266817Y229133D01*
X266904Y229172D01*
X266994Y229208D01*
X267084Y229240D01*
X267176Y229268D01*
X267269Y229293D01*
X267363Y229314D01*
X267457Y229331D01*
X267552Y229345D01*
X267648Y229354D01*
X267744Y229360D01*
X267840Y229362D01*
X267936Y229360D01*
X268032Y229354D01*
X268128Y229345D01*
X268223Y229331D01*
X268317Y229314D01*
X268411Y229293D01*
X268504Y229268D01*
X268596Y229240D01*
X268686Y229208D01*
X268776Y229172D01*
X268863Y229133D01*
X268950Y229090D01*
X269034Y229044D01*
X269116Y228995D01*
X269197Y228942D01*
X269275Y228886D01*
X269351Y228827D01*
X269424Y228765D01*
X269495Y228701D01*
X269564Y228633D01*
X269629Y228563D01*
X269692Y228490D01*
X269752Y228414D01*
X269808Y228337D01*
X269862Y228257D01*
X269912Y228175D01*
X269959Y228091D01*
X270003Y228006D01*
X270043Y227918D01*
X270079Y227829D01*
X270112Y227739D01*
X270211Y227532D01*
X270304Y227322D01*
X270392Y227109D01*
X270475Y226895D01*
X270553Y226679D01*
X270626Y226461D01*
X270694Y226241D01*
X270756Y226020D01*
X270813Y225797D01*
X270865Y225573D01*
X270911Y225348D01*
X270952Y225122D01*
X270987Y224895D01*
X271017Y224667D01*
X271042Y224438D01*
X271061Y224209D01*
X271075Y223980D01*
X271083Y223750D01*
X271086Y223520D01*
X264594Y223520D02*
X264597Y223290D01*
X264605Y223060D01*
X264619Y222831D01*
X264638Y222602D01*
X264663Y222373D01*
X264693Y222145D01*
X264728Y221918D01*
X264769Y221692D01*
X264815Y221467D01*
X264867Y221243D01*
X264924Y221020D01*
X264986Y220799D01*
X265054Y220579D01*
X265127Y220361D01*
X265205Y220145D01*
X265288Y219931D01*
X265376Y219719D01*
X265469Y219508D01*
X265568Y219301D01*
X265601Y219211D01*
X265637Y219122D01*
X265678Y219034D01*
X265721Y218949D01*
X265768Y218865D01*
X265818Y218783D01*
X265872Y218703D01*
X265928Y218626D01*
X265988Y218550D01*
X266051Y218477D01*
X266116Y218407D01*
X266185Y218339D01*
X266256Y218275D01*
X266329Y218213D01*
X266405Y218154D01*
X266483Y218098D01*
X266564Y218045D01*
X266646Y217996D01*
X266730Y217950D01*
X266817Y217907D01*
X266904Y217868D01*
X266994Y217832D01*
X267084Y217800D01*
X267176Y217772D01*
X267269Y217747D01*
X267363Y217726D01*
X267457Y217709D01*
X267552Y217695D01*
X267648Y217686D01*
X267744Y217680D01*
X267840Y217678D01*
X270112Y219301D02*
X270211Y219508D01*
X270304Y219719D01*
X270392Y219931D01*
X270475Y220145D01*
X270553Y220361D01*
X270626Y220579D01*
X270694Y220799D01*
X270756Y221020D01*
X270813Y221243D01*
X270865Y221467D01*
X270911Y221692D01*
X270952Y221918D01*
X270987Y222145D01*
X271017Y222373D01*
X271042Y222602D01*
X271061Y222831D01*
X271075Y223060D01*
X271083Y223290D01*
X271086Y223520D01*
X270112Y219301D02*
X270079Y219211D01*
X270043Y219122D01*
X270003Y219034D01*
X269959Y218949D01*
X269912Y218865D01*
X269862Y218783D01*
X269808Y218703D01*
X269752Y218626D01*
X269692Y218550D01*
X269629Y218477D01*
X269564Y218407D01*
X269495Y218339D01*
X269424Y218275D01*
X269351Y218213D01*
X269275Y218154D01*
X269197Y218098D01*
X269116Y218045D01*
X269034Y217996D01*
X268950Y217950D01*
X268863Y217907D01*
X268776Y217868D01*
X268686Y217832D01*
X268596Y217800D01*
X268504Y217772D01*
X268411Y217747D01*
X268317Y217726D01*
X268223Y217709D01*
X268128Y217695D01*
X268032Y217686D01*
X267936Y217680D01*
X267840Y217678D01*
X265243Y220274D02*
X270436Y226766D01*
X432308Y164592D02*
X432308Y152908D01*
X432308Y164592D02*
X435554Y164592D01*
X435667Y164590D01*
X435780Y164584D01*
X435893Y164574D01*
X436006Y164560D01*
X436118Y164543D01*
X436229Y164521D01*
X436339Y164496D01*
X436449Y164466D01*
X436557Y164433D01*
X436664Y164396D01*
X436770Y164356D01*
X436874Y164311D01*
X436977Y164263D01*
X437078Y164212D01*
X437177Y164157D01*
X437274Y164099D01*
X437369Y164037D01*
X437462Y163972D01*
X437552Y163904D01*
X437640Y163833D01*
X437726Y163758D01*
X437809Y163681D01*
X437889Y163601D01*
X437966Y163518D01*
X438041Y163432D01*
X438112Y163344D01*
X438180Y163254D01*
X438245Y163161D01*
X438307Y163066D01*
X438365Y162969D01*
X438420Y162870D01*
X438471Y162769D01*
X438519Y162666D01*
X438564Y162562D01*
X438604Y162456D01*
X438641Y162349D01*
X438674Y162241D01*
X438704Y162131D01*
X438729Y162021D01*
X438751Y161910D01*
X438768Y161798D01*
X438782Y161685D01*
X438792Y161572D01*
X438798Y161459D01*
X438800Y161346D01*
X438798Y161233D01*
X438792Y161120D01*
X438782Y161007D01*
X438768Y160894D01*
X438751Y160782D01*
X438729Y160671D01*
X438704Y160561D01*
X438674Y160451D01*
X438641Y160343D01*
X438604Y160236D01*
X438564Y160130D01*
X438519Y160026D01*
X438471Y159923D01*
X438420Y159822D01*
X438365Y159723D01*
X438307Y159626D01*
X438245Y159531D01*
X438180Y159438D01*
X438112Y159348D01*
X438041Y159260D01*
X437966Y159174D01*
X437889Y159091D01*
X437809Y159011D01*
X437726Y158934D01*
X437640Y158859D01*
X437552Y158788D01*
X437462Y158720D01*
X437369Y158655D01*
X437274Y158593D01*
X437177Y158535D01*
X437078Y158480D01*
X436977Y158429D01*
X436874Y158381D01*
X436770Y158336D01*
X436664Y158296D01*
X436557Y158259D01*
X436449Y158226D01*
X436339Y158196D01*
X436229Y158171D01*
X436118Y158149D01*
X436006Y158132D01*
X435893Y158118D01*
X435780Y158108D01*
X435667Y158102D01*
X435554Y158100D01*
X435554Y158101D02*
X432308Y158101D01*
X436203Y158101D02*
X438799Y152908D01*
X443664Y161996D02*
X446910Y164592D01*
X446910Y152908D01*
X450155Y152908D02*
X443664Y152908D01*
X455094Y161996D02*
X458340Y164592D01*
X458340Y152908D01*
X461585Y152908D02*
X455094Y152908D01*
X462788Y201168D02*
X462788Y212852D01*
X466034Y212852D01*
X466147Y212850D01*
X466260Y212844D01*
X466373Y212834D01*
X466486Y212820D01*
X466598Y212803D01*
X466709Y212781D01*
X466819Y212756D01*
X466929Y212726D01*
X467037Y212693D01*
X467144Y212656D01*
X467250Y212616D01*
X467354Y212571D01*
X467457Y212523D01*
X467558Y212472D01*
X467657Y212417D01*
X467754Y212359D01*
X467849Y212297D01*
X467942Y212232D01*
X468032Y212164D01*
X468120Y212093D01*
X468206Y212018D01*
X468289Y211941D01*
X468369Y211861D01*
X468446Y211778D01*
X468521Y211692D01*
X468592Y211604D01*
X468660Y211514D01*
X468725Y211421D01*
X468787Y211326D01*
X468845Y211229D01*
X468900Y211130D01*
X468951Y211029D01*
X468999Y210926D01*
X469044Y210822D01*
X469084Y210716D01*
X469121Y210609D01*
X469154Y210501D01*
X469184Y210391D01*
X469209Y210281D01*
X469231Y210170D01*
X469248Y210058D01*
X469262Y209945D01*
X469272Y209832D01*
X469278Y209719D01*
X469280Y209606D01*
X469278Y209493D01*
X469272Y209380D01*
X469262Y209267D01*
X469248Y209154D01*
X469231Y209042D01*
X469209Y208931D01*
X469184Y208821D01*
X469154Y208711D01*
X469121Y208603D01*
X469084Y208496D01*
X469044Y208390D01*
X468999Y208286D01*
X468951Y208183D01*
X468900Y208082D01*
X468845Y207983D01*
X468787Y207886D01*
X468725Y207791D01*
X468660Y207698D01*
X468592Y207608D01*
X468521Y207520D01*
X468446Y207434D01*
X468369Y207351D01*
X468289Y207271D01*
X468206Y207194D01*
X468120Y207119D01*
X468032Y207048D01*
X467942Y206980D01*
X467849Y206915D01*
X467754Y206853D01*
X467657Y206795D01*
X467558Y206740D01*
X467457Y206689D01*
X467354Y206641D01*
X467250Y206596D01*
X467144Y206556D01*
X467037Y206519D01*
X466929Y206486D01*
X466819Y206456D01*
X466709Y206431D01*
X466598Y206409D01*
X466486Y206392D01*
X466373Y206378D01*
X466260Y206368D01*
X466147Y206362D01*
X466034Y206360D01*
X466034Y206361D02*
X462788Y206361D01*
X466683Y206361D02*
X469279Y201168D01*
X474144Y210256D02*
X477390Y212852D01*
X477390Y201168D01*
X480635Y201168D02*
X474144Y201168D01*
X489144Y212852D02*
X489251Y212850D01*
X489357Y212844D01*
X489463Y212834D01*
X489569Y212821D01*
X489675Y212803D01*
X489779Y212782D01*
X489883Y212757D01*
X489986Y212728D01*
X490087Y212696D01*
X490187Y212659D01*
X490286Y212619D01*
X490384Y212576D01*
X490480Y212529D01*
X490574Y212478D01*
X490666Y212424D01*
X490756Y212367D01*
X490844Y212307D01*
X490929Y212243D01*
X491012Y212176D01*
X491093Y212106D01*
X491171Y212034D01*
X491247Y211958D01*
X491319Y211880D01*
X491389Y211799D01*
X491456Y211716D01*
X491520Y211631D01*
X491580Y211543D01*
X491637Y211453D01*
X491691Y211361D01*
X491742Y211267D01*
X491789Y211171D01*
X491832Y211073D01*
X491872Y210974D01*
X491909Y210874D01*
X491941Y210773D01*
X491970Y210670D01*
X491995Y210566D01*
X492016Y210462D01*
X492034Y210356D01*
X492047Y210250D01*
X492057Y210144D01*
X492063Y210038D01*
X492065Y209931D01*
X489144Y212852D02*
X489023Y212850D01*
X488902Y212844D01*
X488782Y212834D01*
X488661Y212821D01*
X488542Y212803D01*
X488422Y212782D01*
X488304Y212757D01*
X488187Y212728D01*
X488070Y212695D01*
X487955Y212659D01*
X487841Y212618D01*
X487728Y212575D01*
X487616Y212527D01*
X487507Y212476D01*
X487399Y212421D01*
X487292Y212363D01*
X487188Y212302D01*
X487086Y212237D01*
X486986Y212169D01*
X486888Y212098D01*
X486792Y212024D01*
X486699Y211947D01*
X486609Y211866D01*
X486521Y211783D01*
X486436Y211697D01*
X486353Y211608D01*
X486274Y211517D01*
X486197Y211423D01*
X486124Y211327D01*
X486054Y211229D01*
X485987Y211128D01*
X485923Y211025D01*
X485863Y210920D01*
X485806Y210813D01*
X485752Y210705D01*
X485702Y210595D01*
X485656Y210483D01*
X485613Y210370D01*
X485574Y210255D01*
X491092Y207659D02*
X491171Y207736D01*
X491247Y207817D01*
X491320Y207900D01*
X491390Y207985D01*
X491457Y208073D01*
X491521Y208163D01*
X491581Y208255D01*
X491638Y208350D01*
X491692Y208446D01*
X491743Y208544D01*
X491790Y208644D01*
X491834Y208746D01*
X491874Y208849D01*
X491910Y208953D01*
X491942Y209059D01*
X491971Y209165D01*
X491996Y209273D01*
X492018Y209381D01*
X492035Y209491D01*
X492049Y209600D01*
X492058Y209710D01*
X492064Y209821D01*
X492066Y209931D01*
X491092Y207659D02*
X485574Y201168D01*
X492065Y201168D01*
X151638Y203708D02*
X151638Y215392D01*
X154884Y215392D01*
X154997Y215390D01*
X155110Y215384D01*
X155223Y215374D01*
X155336Y215360D01*
X155448Y215343D01*
X155559Y215321D01*
X155669Y215296D01*
X155779Y215266D01*
X155887Y215233D01*
X155994Y215196D01*
X156100Y215156D01*
X156204Y215111D01*
X156307Y215063D01*
X156408Y215012D01*
X156507Y214957D01*
X156604Y214899D01*
X156699Y214837D01*
X156792Y214772D01*
X156882Y214704D01*
X156970Y214633D01*
X157056Y214558D01*
X157139Y214481D01*
X157219Y214401D01*
X157296Y214318D01*
X157371Y214232D01*
X157442Y214144D01*
X157510Y214054D01*
X157575Y213961D01*
X157637Y213866D01*
X157695Y213769D01*
X157750Y213670D01*
X157801Y213569D01*
X157849Y213466D01*
X157894Y213362D01*
X157934Y213256D01*
X157971Y213149D01*
X158004Y213041D01*
X158034Y212931D01*
X158059Y212821D01*
X158081Y212710D01*
X158098Y212598D01*
X158112Y212485D01*
X158122Y212372D01*
X158128Y212259D01*
X158130Y212146D01*
X158128Y212033D01*
X158122Y211920D01*
X158112Y211807D01*
X158098Y211694D01*
X158081Y211582D01*
X158059Y211471D01*
X158034Y211361D01*
X158004Y211251D01*
X157971Y211143D01*
X157934Y211036D01*
X157894Y210930D01*
X157849Y210826D01*
X157801Y210723D01*
X157750Y210622D01*
X157695Y210523D01*
X157637Y210426D01*
X157575Y210331D01*
X157510Y210238D01*
X157442Y210148D01*
X157371Y210060D01*
X157296Y209974D01*
X157219Y209891D01*
X157139Y209811D01*
X157056Y209734D01*
X156970Y209659D01*
X156882Y209588D01*
X156792Y209520D01*
X156699Y209455D01*
X156604Y209393D01*
X156507Y209335D01*
X156408Y209280D01*
X156307Y209229D01*
X156204Y209181D01*
X156100Y209136D01*
X155994Y209096D01*
X155887Y209059D01*
X155779Y209026D01*
X155669Y208996D01*
X155559Y208971D01*
X155448Y208949D01*
X155336Y208932D01*
X155223Y208918D01*
X155110Y208908D01*
X154997Y208902D01*
X154884Y208900D01*
X154884Y208901D02*
X151638Y208901D01*
X155533Y208901D02*
X158129Y203708D01*
X169485Y212471D02*
X169483Y212578D01*
X169477Y212684D01*
X169467Y212790D01*
X169454Y212896D01*
X169436Y213002D01*
X169415Y213106D01*
X169390Y213210D01*
X169361Y213313D01*
X169329Y213414D01*
X169292Y213514D01*
X169252Y213613D01*
X169209Y213711D01*
X169162Y213807D01*
X169111Y213901D01*
X169057Y213993D01*
X169000Y214083D01*
X168940Y214171D01*
X168876Y214256D01*
X168809Y214339D01*
X168739Y214420D01*
X168667Y214498D01*
X168591Y214574D01*
X168513Y214646D01*
X168432Y214716D01*
X168349Y214783D01*
X168264Y214847D01*
X168176Y214907D01*
X168086Y214964D01*
X167994Y215018D01*
X167900Y215069D01*
X167804Y215116D01*
X167706Y215159D01*
X167607Y215199D01*
X167507Y215236D01*
X167406Y215268D01*
X167303Y215297D01*
X167199Y215322D01*
X167095Y215343D01*
X166989Y215361D01*
X166883Y215374D01*
X166777Y215384D01*
X166671Y215390D01*
X166564Y215392D01*
X166443Y215390D01*
X166322Y215384D01*
X166202Y215374D01*
X166081Y215361D01*
X165962Y215343D01*
X165842Y215322D01*
X165724Y215297D01*
X165607Y215268D01*
X165490Y215235D01*
X165375Y215199D01*
X165261Y215158D01*
X165148Y215115D01*
X165036Y215067D01*
X164927Y215016D01*
X164819Y214961D01*
X164712Y214903D01*
X164608Y214842D01*
X164506Y214777D01*
X164406Y214709D01*
X164308Y214638D01*
X164212Y214564D01*
X164119Y214487D01*
X164029Y214406D01*
X163941Y214323D01*
X163856Y214237D01*
X163773Y214148D01*
X163694Y214057D01*
X163617Y213963D01*
X163544Y213867D01*
X163474Y213769D01*
X163407Y213668D01*
X163343Y213565D01*
X163283Y213460D01*
X163226Y213353D01*
X163172Y213245D01*
X163122Y213135D01*
X163076Y213023D01*
X163033Y212910D01*
X162994Y212795D01*
X168512Y210199D02*
X168591Y210276D01*
X168667Y210357D01*
X168740Y210440D01*
X168810Y210525D01*
X168877Y210613D01*
X168941Y210703D01*
X169001Y210795D01*
X169058Y210890D01*
X169112Y210986D01*
X169163Y211084D01*
X169210Y211184D01*
X169254Y211286D01*
X169294Y211389D01*
X169330Y211493D01*
X169362Y211599D01*
X169391Y211705D01*
X169416Y211813D01*
X169438Y211921D01*
X169455Y212031D01*
X169469Y212140D01*
X169478Y212250D01*
X169484Y212361D01*
X169486Y212471D01*
X168512Y210199D02*
X162994Y203708D01*
X169485Y203708D01*
X183388Y201422D02*
X183388Y189738D01*
X183388Y201422D02*
X186634Y201422D01*
X186747Y201420D01*
X186860Y201414D01*
X186973Y201404D01*
X187086Y201390D01*
X187198Y201373D01*
X187309Y201351D01*
X187419Y201326D01*
X187529Y201296D01*
X187637Y201263D01*
X187744Y201226D01*
X187850Y201186D01*
X187954Y201141D01*
X188057Y201093D01*
X188158Y201042D01*
X188257Y200987D01*
X188354Y200929D01*
X188449Y200867D01*
X188542Y200802D01*
X188632Y200734D01*
X188720Y200663D01*
X188806Y200588D01*
X188889Y200511D01*
X188969Y200431D01*
X189046Y200348D01*
X189121Y200262D01*
X189192Y200174D01*
X189260Y200084D01*
X189325Y199991D01*
X189387Y199896D01*
X189445Y199799D01*
X189500Y199700D01*
X189551Y199599D01*
X189599Y199496D01*
X189644Y199392D01*
X189684Y199286D01*
X189721Y199179D01*
X189754Y199071D01*
X189784Y198961D01*
X189809Y198851D01*
X189831Y198740D01*
X189848Y198628D01*
X189862Y198515D01*
X189872Y198402D01*
X189878Y198289D01*
X189880Y198176D01*
X189878Y198063D01*
X189872Y197950D01*
X189862Y197837D01*
X189848Y197724D01*
X189831Y197612D01*
X189809Y197501D01*
X189784Y197391D01*
X189754Y197281D01*
X189721Y197173D01*
X189684Y197066D01*
X189644Y196960D01*
X189599Y196856D01*
X189551Y196753D01*
X189500Y196652D01*
X189445Y196553D01*
X189387Y196456D01*
X189325Y196361D01*
X189260Y196268D01*
X189192Y196178D01*
X189121Y196090D01*
X189046Y196004D01*
X188969Y195921D01*
X188889Y195841D01*
X188806Y195764D01*
X188720Y195689D01*
X188632Y195618D01*
X188542Y195550D01*
X188449Y195485D01*
X188354Y195423D01*
X188257Y195365D01*
X188158Y195310D01*
X188057Y195259D01*
X187954Y195211D01*
X187850Y195166D01*
X187744Y195126D01*
X187637Y195089D01*
X187529Y195056D01*
X187419Y195026D01*
X187309Y195001D01*
X187198Y194979D01*
X187086Y194962D01*
X186973Y194948D01*
X186860Y194938D01*
X186747Y194932D01*
X186634Y194930D01*
X186634Y194931D02*
X183388Y194931D01*
X187283Y194931D02*
X189879Y189738D01*
X194744Y189738D02*
X197990Y189738D01*
X198103Y189740D01*
X198216Y189746D01*
X198329Y189756D01*
X198442Y189770D01*
X198554Y189787D01*
X198665Y189809D01*
X198775Y189834D01*
X198885Y189864D01*
X198993Y189897D01*
X199100Y189934D01*
X199206Y189974D01*
X199310Y190019D01*
X199413Y190067D01*
X199514Y190118D01*
X199613Y190173D01*
X199710Y190231D01*
X199805Y190293D01*
X199898Y190358D01*
X199988Y190426D01*
X200076Y190497D01*
X200162Y190572D01*
X200245Y190649D01*
X200325Y190729D01*
X200402Y190812D01*
X200477Y190898D01*
X200548Y190986D01*
X200616Y191076D01*
X200681Y191169D01*
X200743Y191264D01*
X200801Y191361D01*
X200856Y191460D01*
X200907Y191561D01*
X200955Y191664D01*
X201000Y191768D01*
X201040Y191874D01*
X201077Y191981D01*
X201110Y192089D01*
X201140Y192199D01*
X201165Y192309D01*
X201187Y192420D01*
X201204Y192532D01*
X201218Y192645D01*
X201228Y192758D01*
X201234Y192871D01*
X201236Y192984D01*
X201234Y193097D01*
X201228Y193210D01*
X201218Y193323D01*
X201204Y193436D01*
X201187Y193548D01*
X201165Y193659D01*
X201140Y193769D01*
X201110Y193879D01*
X201077Y193987D01*
X201040Y194094D01*
X201000Y194200D01*
X200955Y194304D01*
X200907Y194407D01*
X200856Y194508D01*
X200801Y194607D01*
X200743Y194704D01*
X200681Y194799D01*
X200616Y194892D01*
X200548Y194982D01*
X200477Y195070D01*
X200402Y195156D01*
X200325Y195239D01*
X200245Y195319D01*
X200162Y195396D01*
X200076Y195471D01*
X199988Y195542D01*
X199898Y195610D01*
X199805Y195675D01*
X199710Y195737D01*
X199613Y195795D01*
X199514Y195850D01*
X199413Y195901D01*
X199310Y195949D01*
X199206Y195994D01*
X199100Y196034D01*
X198993Y196071D01*
X198885Y196104D01*
X198775Y196134D01*
X198665Y196159D01*
X198554Y196181D01*
X198442Y196198D01*
X198329Y196212D01*
X198216Y196222D01*
X198103Y196228D01*
X197990Y196230D01*
X198639Y201422D02*
X194744Y201422D01*
X198639Y201422D02*
X198740Y201420D01*
X198840Y201414D01*
X198940Y201404D01*
X199040Y201391D01*
X199139Y201373D01*
X199238Y201352D01*
X199335Y201327D01*
X199432Y201298D01*
X199527Y201265D01*
X199621Y201229D01*
X199713Y201189D01*
X199804Y201146D01*
X199893Y201099D01*
X199980Y201049D01*
X200066Y200995D01*
X200149Y200938D01*
X200229Y200878D01*
X200308Y200815D01*
X200384Y200748D01*
X200457Y200679D01*
X200527Y200607D01*
X200595Y200533D01*
X200660Y200456D01*
X200721Y200376D01*
X200780Y200294D01*
X200835Y200210D01*
X200887Y200124D01*
X200936Y200036D01*
X200981Y199946D01*
X201023Y199854D01*
X201061Y199761D01*
X201095Y199666D01*
X201126Y199571D01*
X201153Y199474D01*
X201176Y199376D01*
X201196Y199277D01*
X201211Y199177D01*
X201223Y199077D01*
X201231Y198977D01*
X201235Y198876D01*
X201235Y198776D01*
X201231Y198675D01*
X201223Y198575D01*
X201211Y198475D01*
X201196Y198375D01*
X201176Y198276D01*
X201153Y198178D01*
X201126Y198081D01*
X201095Y197986D01*
X201061Y197891D01*
X201023Y197798D01*
X200981Y197706D01*
X200936Y197616D01*
X200887Y197528D01*
X200835Y197442D01*
X200780Y197358D01*
X200721Y197276D01*
X200660Y197196D01*
X200595Y197119D01*
X200527Y197045D01*
X200457Y196973D01*
X200384Y196904D01*
X200308Y196837D01*
X200229Y196774D01*
X200149Y196714D01*
X200066Y196657D01*
X199980Y196603D01*
X199893Y196553D01*
X199804Y196506D01*
X199713Y196463D01*
X199621Y196423D01*
X199527Y196387D01*
X199432Y196354D01*
X199335Y196325D01*
X199238Y196300D01*
X199139Y196279D01*
X199040Y196261D01*
X198940Y196248D01*
X198840Y196238D01*
X198740Y196232D01*
X198639Y196230D01*
X198639Y196229D02*
X196043Y196229D01*
X150368Y118872D02*
X150368Y107188D01*
X150368Y118872D02*
X153614Y118872D01*
X153727Y118870D01*
X153840Y118864D01*
X153953Y118854D01*
X154066Y118840D01*
X154178Y118823D01*
X154289Y118801D01*
X154399Y118776D01*
X154509Y118746D01*
X154617Y118713D01*
X154724Y118676D01*
X154830Y118636D01*
X154934Y118591D01*
X155037Y118543D01*
X155138Y118492D01*
X155237Y118437D01*
X155334Y118379D01*
X155429Y118317D01*
X155522Y118252D01*
X155612Y118184D01*
X155700Y118113D01*
X155786Y118038D01*
X155869Y117961D01*
X155949Y117881D01*
X156026Y117798D01*
X156101Y117712D01*
X156172Y117624D01*
X156240Y117534D01*
X156305Y117441D01*
X156367Y117346D01*
X156425Y117249D01*
X156480Y117150D01*
X156531Y117049D01*
X156579Y116946D01*
X156624Y116842D01*
X156664Y116736D01*
X156701Y116629D01*
X156734Y116521D01*
X156764Y116411D01*
X156789Y116301D01*
X156811Y116190D01*
X156828Y116078D01*
X156842Y115965D01*
X156852Y115852D01*
X156858Y115739D01*
X156860Y115626D01*
X156858Y115513D01*
X156852Y115400D01*
X156842Y115287D01*
X156828Y115174D01*
X156811Y115062D01*
X156789Y114951D01*
X156764Y114841D01*
X156734Y114731D01*
X156701Y114623D01*
X156664Y114516D01*
X156624Y114410D01*
X156579Y114306D01*
X156531Y114203D01*
X156480Y114102D01*
X156425Y114003D01*
X156367Y113906D01*
X156305Y113811D01*
X156240Y113718D01*
X156172Y113628D01*
X156101Y113540D01*
X156026Y113454D01*
X155949Y113371D01*
X155869Y113291D01*
X155786Y113214D01*
X155700Y113139D01*
X155612Y113068D01*
X155522Y113000D01*
X155429Y112935D01*
X155334Y112873D01*
X155237Y112815D01*
X155138Y112760D01*
X155037Y112709D01*
X154934Y112661D01*
X154830Y112616D01*
X154724Y112576D01*
X154617Y112539D01*
X154509Y112506D01*
X154399Y112476D01*
X154289Y112451D01*
X154178Y112429D01*
X154066Y112412D01*
X153953Y112398D01*
X153840Y112388D01*
X153727Y112382D01*
X153614Y112380D01*
X153614Y112381D02*
X150368Y112381D01*
X154263Y112381D02*
X156859Y107188D01*
X161724Y109784D02*
X164321Y118872D01*
X161724Y109784D02*
X168215Y109784D01*
X166268Y112381D02*
X166268Y107188D01*
X89408Y107188D02*
X89408Y118872D01*
X92654Y118872D01*
X92767Y118870D01*
X92880Y118864D01*
X92993Y118854D01*
X93106Y118840D01*
X93218Y118823D01*
X93329Y118801D01*
X93439Y118776D01*
X93549Y118746D01*
X93657Y118713D01*
X93764Y118676D01*
X93870Y118636D01*
X93974Y118591D01*
X94077Y118543D01*
X94178Y118492D01*
X94277Y118437D01*
X94374Y118379D01*
X94469Y118317D01*
X94562Y118252D01*
X94652Y118184D01*
X94740Y118113D01*
X94826Y118038D01*
X94909Y117961D01*
X94989Y117881D01*
X95066Y117798D01*
X95141Y117712D01*
X95212Y117624D01*
X95280Y117534D01*
X95345Y117441D01*
X95407Y117346D01*
X95465Y117249D01*
X95520Y117150D01*
X95571Y117049D01*
X95619Y116946D01*
X95664Y116842D01*
X95704Y116736D01*
X95741Y116629D01*
X95774Y116521D01*
X95804Y116411D01*
X95829Y116301D01*
X95851Y116190D01*
X95868Y116078D01*
X95882Y115965D01*
X95892Y115852D01*
X95898Y115739D01*
X95900Y115626D01*
X95898Y115513D01*
X95892Y115400D01*
X95882Y115287D01*
X95868Y115174D01*
X95851Y115062D01*
X95829Y114951D01*
X95804Y114841D01*
X95774Y114731D01*
X95741Y114623D01*
X95704Y114516D01*
X95664Y114410D01*
X95619Y114306D01*
X95571Y114203D01*
X95520Y114102D01*
X95465Y114003D01*
X95407Y113906D01*
X95345Y113811D01*
X95280Y113718D01*
X95212Y113628D01*
X95141Y113540D01*
X95066Y113454D01*
X94989Y113371D01*
X94909Y113291D01*
X94826Y113214D01*
X94740Y113139D01*
X94652Y113068D01*
X94562Y113000D01*
X94469Y112935D01*
X94374Y112873D01*
X94277Y112815D01*
X94178Y112760D01*
X94077Y112709D01*
X93974Y112661D01*
X93870Y112616D01*
X93764Y112576D01*
X93657Y112539D01*
X93549Y112506D01*
X93439Y112476D01*
X93329Y112451D01*
X93218Y112429D01*
X93106Y112412D01*
X92993Y112398D01*
X92880Y112388D01*
X92767Y112382D01*
X92654Y112380D01*
X92654Y112381D02*
X89408Y112381D01*
X93303Y112381D02*
X95899Y107188D01*
X100764Y107188D02*
X104659Y107188D01*
X104758Y107190D01*
X104858Y107196D01*
X104957Y107205D01*
X105055Y107218D01*
X105153Y107235D01*
X105251Y107256D01*
X105347Y107281D01*
X105442Y107309D01*
X105536Y107341D01*
X105629Y107376D01*
X105721Y107415D01*
X105811Y107458D01*
X105899Y107503D01*
X105986Y107553D01*
X106070Y107605D01*
X106153Y107661D01*
X106233Y107719D01*
X106311Y107781D01*
X106386Y107846D01*
X106459Y107914D01*
X106529Y107984D01*
X106597Y108057D01*
X106662Y108132D01*
X106724Y108210D01*
X106782Y108290D01*
X106838Y108373D01*
X106890Y108457D01*
X106940Y108544D01*
X106985Y108632D01*
X107028Y108722D01*
X107067Y108814D01*
X107102Y108907D01*
X107134Y109001D01*
X107162Y109096D01*
X107187Y109192D01*
X107208Y109290D01*
X107225Y109388D01*
X107238Y109486D01*
X107247Y109585D01*
X107253Y109685D01*
X107255Y109784D01*
X107255Y111083D01*
X107253Y111182D01*
X107247Y111282D01*
X107238Y111381D01*
X107225Y111479D01*
X107208Y111577D01*
X107187Y111675D01*
X107162Y111771D01*
X107134Y111866D01*
X107102Y111960D01*
X107067Y112053D01*
X107028Y112145D01*
X106985Y112235D01*
X106940Y112323D01*
X106890Y112410D01*
X106838Y112494D01*
X106782Y112577D01*
X106724Y112657D01*
X106662Y112735D01*
X106597Y112810D01*
X106529Y112883D01*
X106459Y112953D01*
X106386Y113021D01*
X106311Y113086D01*
X106233Y113148D01*
X106153Y113206D01*
X106070Y113262D01*
X105986Y113314D01*
X105899Y113364D01*
X105811Y113409D01*
X105721Y113452D01*
X105629Y113491D01*
X105536Y113526D01*
X105442Y113558D01*
X105347Y113586D01*
X105251Y113611D01*
X105153Y113632D01*
X105055Y113649D01*
X104957Y113662D01*
X104858Y113671D01*
X104758Y113677D01*
X104659Y113679D01*
X100764Y113679D01*
X100764Y118872D01*
X107255Y118872D01*
X371348Y170688D02*
X371348Y182372D01*
X374594Y182372D01*
X374707Y182370D01*
X374820Y182364D01*
X374933Y182354D01*
X375046Y182340D01*
X375158Y182323D01*
X375269Y182301D01*
X375379Y182276D01*
X375489Y182246D01*
X375597Y182213D01*
X375704Y182176D01*
X375810Y182136D01*
X375914Y182091D01*
X376017Y182043D01*
X376118Y181992D01*
X376217Y181937D01*
X376314Y181879D01*
X376409Y181817D01*
X376502Y181752D01*
X376592Y181684D01*
X376680Y181613D01*
X376766Y181538D01*
X376849Y181461D01*
X376929Y181381D01*
X377006Y181298D01*
X377081Y181212D01*
X377152Y181124D01*
X377220Y181034D01*
X377285Y180941D01*
X377347Y180846D01*
X377405Y180749D01*
X377460Y180650D01*
X377511Y180549D01*
X377559Y180446D01*
X377604Y180342D01*
X377644Y180236D01*
X377681Y180129D01*
X377714Y180021D01*
X377744Y179911D01*
X377769Y179801D01*
X377791Y179690D01*
X377808Y179578D01*
X377822Y179465D01*
X377832Y179352D01*
X377838Y179239D01*
X377840Y179126D01*
X377838Y179013D01*
X377832Y178900D01*
X377822Y178787D01*
X377808Y178674D01*
X377791Y178562D01*
X377769Y178451D01*
X377744Y178341D01*
X377714Y178231D01*
X377681Y178123D01*
X377644Y178016D01*
X377604Y177910D01*
X377559Y177806D01*
X377511Y177703D01*
X377460Y177602D01*
X377405Y177503D01*
X377347Y177406D01*
X377285Y177311D01*
X377220Y177218D01*
X377152Y177128D01*
X377081Y177040D01*
X377006Y176954D01*
X376929Y176871D01*
X376849Y176791D01*
X376766Y176714D01*
X376680Y176639D01*
X376592Y176568D01*
X376502Y176500D01*
X376409Y176435D01*
X376314Y176373D01*
X376217Y176315D01*
X376118Y176260D01*
X376017Y176209D01*
X375914Y176161D01*
X375810Y176116D01*
X375704Y176076D01*
X375597Y176039D01*
X375489Y176006D01*
X375379Y175976D01*
X375269Y175951D01*
X375158Y175929D01*
X375046Y175912D01*
X374933Y175898D01*
X374820Y175888D01*
X374707Y175882D01*
X374594Y175880D01*
X374594Y175881D02*
X371348Y175881D01*
X375243Y175881D02*
X377839Y170688D01*
X382704Y177179D02*
X386599Y177179D01*
X386698Y177177D01*
X386798Y177171D01*
X386897Y177162D01*
X386995Y177149D01*
X387093Y177132D01*
X387191Y177111D01*
X387287Y177086D01*
X387382Y177058D01*
X387476Y177026D01*
X387569Y176991D01*
X387661Y176952D01*
X387751Y176909D01*
X387839Y176864D01*
X387926Y176814D01*
X388010Y176762D01*
X388093Y176706D01*
X388173Y176648D01*
X388251Y176586D01*
X388326Y176521D01*
X388399Y176453D01*
X388469Y176383D01*
X388537Y176310D01*
X388602Y176235D01*
X388664Y176157D01*
X388722Y176077D01*
X388778Y175994D01*
X388830Y175910D01*
X388880Y175823D01*
X388925Y175735D01*
X388968Y175645D01*
X389007Y175553D01*
X389042Y175460D01*
X389074Y175366D01*
X389102Y175271D01*
X389127Y175175D01*
X389148Y175077D01*
X389165Y174979D01*
X389178Y174881D01*
X389187Y174782D01*
X389193Y174682D01*
X389195Y174583D01*
X389195Y173934D01*
X389196Y173934D02*
X389194Y173821D01*
X389188Y173708D01*
X389178Y173595D01*
X389164Y173482D01*
X389147Y173370D01*
X389125Y173259D01*
X389100Y173149D01*
X389070Y173039D01*
X389037Y172931D01*
X389000Y172824D01*
X388960Y172718D01*
X388915Y172614D01*
X388867Y172511D01*
X388816Y172410D01*
X388761Y172311D01*
X388703Y172214D01*
X388641Y172119D01*
X388576Y172026D01*
X388508Y171936D01*
X388437Y171848D01*
X388362Y171762D01*
X388285Y171679D01*
X388205Y171599D01*
X388122Y171522D01*
X388036Y171447D01*
X387948Y171376D01*
X387858Y171308D01*
X387765Y171243D01*
X387670Y171181D01*
X387573Y171123D01*
X387474Y171068D01*
X387373Y171017D01*
X387270Y170969D01*
X387166Y170924D01*
X387060Y170884D01*
X386953Y170847D01*
X386845Y170814D01*
X386735Y170784D01*
X386625Y170759D01*
X386514Y170737D01*
X386402Y170720D01*
X386289Y170706D01*
X386176Y170696D01*
X386063Y170690D01*
X385950Y170688D01*
X385837Y170690D01*
X385724Y170696D01*
X385611Y170706D01*
X385498Y170720D01*
X385386Y170737D01*
X385275Y170759D01*
X385165Y170784D01*
X385055Y170814D01*
X384947Y170847D01*
X384840Y170884D01*
X384734Y170924D01*
X384630Y170969D01*
X384527Y171017D01*
X384426Y171068D01*
X384327Y171123D01*
X384230Y171181D01*
X384135Y171243D01*
X384042Y171308D01*
X383952Y171376D01*
X383864Y171447D01*
X383778Y171522D01*
X383695Y171599D01*
X383615Y171679D01*
X383538Y171762D01*
X383463Y171848D01*
X383392Y171936D01*
X383324Y172026D01*
X383259Y172119D01*
X383197Y172214D01*
X383139Y172311D01*
X383084Y172410D01*
X383033Y172511D01*
X382985Y172614D01*
X382940Y172718D01*
X382900Y172824D01*
X382863Y172931D01*
X382830Y173039D01*
X382800Y173149D01*
X382775Y173259D01*
X382753Y173370D01*
X382736Y173482D01*
X382722Y173595D01*
X382712Y173708D01*
X382706Y173821D01*
X382704Y173934D01*
X382704Y177179D01*
X382706Y177322D01*
X382712Y177465D01*
X382722Y177608D01*
X382736Y177750D01*
X382753Y177892D01*
X382775Y178034D01*
X382800Y178175D01*
X382830Y178315D01*
X382863Y178454D01*
X382900Y178592D01*
X382941Y178729D01*
X382985Y178865D01*
X383034Y179000D01*
X383086Y179133D01*
X383141Y179265D01*
X383201Y179395D01*
X383264Y179524D01*
X383330Y179651D01*
X383400Y179775D01*
X383473Y179898D01*
X383550Y180019D01*
X383630Y180138D01*
X383713Y180254D01*
X383799Y180369D01*
X383888Y180480D01*
X383981Y180590D01*
X384076Y180696D01*
X384175Y180800D01*
X384276Y180901D01*
X384380Y181000D01*
X384486Y181095D01*
X384596Y181188D01*
X384707Y181277D01*
X384822Y181363D01*
X384938Y181446D01*
X385057Y181526D01*
X385178Y181603D01*
X385300Y181676D01*
X385425Y181746D01*
X385552Y181812D01*
X385681Y181875D01*
X385811Y181935D01*
X385943Y181990D01*
X386076Y182042D01*
X386211Y182091D01*
X386347Y182135D01*
X386484Y182176D01*
X386622Y182213D01*
X386761Y182246D01*
X386901Y182276D01*
X387042Y182301D01*
X387184Y182323D01*
X387326Y182340D01*
X387468Y182354D01*
X387611Y182364D01*
X387754Y182370D01*
X387897Y182372D01*
X241808Y118872D02*
X241808Y107188D01*
X241808Y118872D02*
X245054Y118872D01*
X245167Y118870D01*
X245280Y118864D01*
X245393Y118854D01*
X245506Y118840D01*
X245618Y118823D01*
X245729Y118801D01*
X245839Y118776D01*
X245949Y118746D01*
X246057Y118713D01*
X246164Y118676D01*
X246270Y118636D01*
X246374Y118591D01*
X246477Y118543D01*
X246578Y118492D01*
X246677Y118437D01*
X246774Y118379D01*
X246869Y118317D01*
X246962Y118252D01*
X247052Y118184D01*
X247140Y118113D01*
X247226Y118038D01*
X247309Y117961D01*
X247389Y117881D01*
X247466Y117798D01*
X247541Y117712D01*
X247612Y117624D01*
X247680Y117534D01*
X247745Y117441D01*
X247807Y117346D01*
X247865Y117249D01*
X247920Y117150D01*
X247971Y117049D01*
X248019Y116946D01*
X248064Y116842D01*
X248104Y116736D01*
X248141Y116629D01*
X248174Y116521D01*
X248204Y116411D01*
X248229Y116301D01*
X248251Y116190D01*
X248268Y116078D01*
X248282Y115965D01*
X248292Y115852D01*
X248298Y115739D01*
X248300Y115626D01*
X248298Y115513D01*
X248292Y115400D01*
X248282Y115287D01*
X248268Y115174D01*
X248251Y115062D01*
X248229Y114951D01*
X248204Y114841D01*
X248174Y114731D01*
X248141Y114623D01*
X248104Y114516D01*
X248064Y114410D01*
X248019Y114306D01*
X247971Y114203D01*
X247920Y114102D01*
X247865Y114003D01*
X247807Y113906D01*
X247745Y113811D01*
X247680Y113718D01*
X247612Y113628D01*
X247541Y113540D01*
X247466Y113454D01*
X247389Y113371D01*
X247309Y113291D01*
X247226Y113214D01*
X247140Y113139D01*
X247052Y113068D01*
X246962Y113000D01*
X246869Y112935D01*
X246774Y112873D01*
X246677Y112815D01*
X246578Y112760D01*
X246477Y112709D01*
X246374Y112661D01*
X246270Y112616D01*
X246164Y112576D01*
X246057Y112539D01*
X245949Y112506D01*
X245839Y112476D01*
X245729Y112451D01*
X245618Y112429D01*
X245506Y112412D01*
X245393Y112398D01*
X245280Y112388D01*
X245167Y112382D01*
X245054Y112380D01*
X245054Y112381D02*
X241808Y112381D01*
X245703Y112381D02*
X248299Y107188D01*
X253164Y117574D02*
X253164Y118872D01*
X259655Y118872D01*
X256410Y107188D01*
X243078Y170688D02*
X243078Y182372D01*
X246324Y182372D01*
X246437Y182370D01*
X246550Y182364D01*
X246663Y182354D01*
X246776Y182340D01*
X246888Y182323D01*
X246999Y182301D01*
X247109Y182276D01*
X247219Y182246D01*
X247327Y182213D01*
X247434Y182176D01*
X247540Y182136D01*
X247644Y182091D01*
X247747Y182043D01*
X247848Y181992D01*
X247947Y181937D01*
X248044Y181879D01*
X248139Y181817D01*
X248232Y181752D01*
X248322Y181684D01*
X248410Y181613D01*
X248496Y181538D01*
X248579Y181461D01*
X248659Y181381D01*
X248736Y181298D01*
X248811Y181212D01*
X248882Y181124D01*
X248950Y181034D01*
X249015Y180941D01*
X249077Y180846D01*
X249135Y180749D01*
X249190Y180650D01*
X249241Y180549D01*
X249289Y180446D01*
X249334Y180342D01*
X249374Y180236D01*
X249411Y180129D01*
X249444Y180021D01*
X249474Y179911D01*
X249499Y179801D01*
X249521Y179690D01*
X249538Y179578D01*
X249552Y179465D01*
X249562Y179352D01*
X249568Y179239D01*
X249570Y179126D01*
X249568Y179013D01*
X249562Y178900D01*
X249552Y178787D01*
X249538Y178674D01*
X249521Y178562D01*
X249499Y178451D01*
X249474Y178341D01*
X249444Y178231D01*
X249411Y178123D01*
X249374Y178016D01*
X249334Y177910D01*
X249289Y177806D01*
X249241Y177703D01*
X249190Y177602D01*
X249135Y177503D01*
X249077Y177406D01*
X249015Y177311D01*
X248950Y177218D01*
X248882Y177128D01*
X248811Y177040D01*
X248736Y176954D01*
X248659Y176871D01*
X248579Y176791D01*
X248496Y176714D01*
X248410Y176639D01*
X248322Y176568D01*
X248232Y176500D01*
X248139Y176435D01*
X248044Y176373D01*
X247947Y176315D01*
X247848Y176260D01*
X247747Y176209D01*
X247644Y176161D01*
X247540Y176116D01*
X247434Y176076D01*
X247327Y176039D01*
X247219Y176006D01*
X247109Y175976D01*
X246999Y175951D01*
X246888Y175929D01*
X246776Y175912D01*
X246663Y175898D01*
X246550Y175888D01*
X246437Y175882D01*
X246324Y175880D01*
X246324Y175881D02*
X243078Y175881D01*
X246973Y175881D02*
X249569Y170688D01*
X254434Y173934D02*
X254436Y174047D01*
X254442Y174160D01*
X254452Y174273D01*
X254466Y174386D01*
X254483Y174498D01*
X254505Y174609D01*
X254530Y174719D01*
X254560Y174829D01*
X254593Y174937D01*
X254630Y175044D01*
X254670Y175150D01*
X254715Y175254D01*
X254763Y175357D01*
X254814Y175458D01*
X254869Y175557D01*
X254927Y175654D01*
X254989Y175749D01*
X255054Y175842D01*
X255122Y175932D01*
X255193Y176020D01*
X255268Y176106D01*
X255345Y176189D01*
X255425Y176269D01*
X255508Y176346D01*
X255594Y176421D01*
X255682Y176492D01*
X255772Y176560D01*
X255865Y176625D01*
X255960Y176687D01*
X256057Y176745D01*
X256156Y176800D01*
X256257Y176851D01*
X256360Y176899D01*
X256464Y176944D01*
X256570Y176984D01*
X256677Y177021D01*
X256785Y177054D01*
X256895Y177084D01*
X257005Y177109D01*
X257116Y177131D01*
X257228Y177148D01*
X257341Y177162D01*
X257454Y177172D01*
X257567Y177178D01*
X257680Y177180D01*
X257793Y177178D01*
X257906Y177172D01*
X258019Y177162D01*
X258132Y177148D01*
X258244Y177131D01*
X258355Y177109D01*
X258465Y177084D01*
X258575Y177054D01*
X258683Y177021D01*
X258790Y176984D01*
X258896Y176944D01*
X259000Y176899D01*
X259103Y176851D01*
X259204Y176800D01*
X259303Y176745D01*
X259400Y176687D01*
X259495Y176625D01*
X259588Y176560D01*
X259678Y176492D01*
X259766Y176421D01*
X259852Y176346D01*
X259935Y176269D01*
X260015Y176189D01*
X260092Y176106D01*
X260167Y176020D01*
X260238Y175932D01*
X260306Y175842D01*
X260371Y175749D01*
X260433Y175654D01*
X260491Y175557D01*
X260546Y175458D01*
X260597Y175357D01*
X260645Y175254D01*
X260690Y175150D01*
X260730Y175044D01*
X260767Y174937D01*
X260800Y174829D01*
X260830Y174719D01*
X260855Y174609D01*
X260877Y174498D01*
X260894Y174386D01*
X260908Y174273D01*
X260918Y174160D01*
X260924Y174047D01*
X260926Y173934D01*
X260924Y173821D01*
X260918Y173708D01*
X260908Y173595D01*
X260894Y173482D01*
X260877Y173370D01*
X260855Y173259D01*
X260830Y173149D01*
X260800Y173039D01*
X260767Y172931D01*
X260730Y172824D01*
X260690Y172718D01*
X260645Y172614D01*
X260597Y172511D01*
X260546Y172410D01*
X260491Y172311D01*
X260433Y172214D01*
X260371Y172119D01*
X260306Y172026D01*
X260238Y171936D01*
X260167Y171848D01*
X260092Y171762D01*
X260015Y171679D01*
X259935Y171599D01*
X259852Y171522D01*
X259766Y171447D01*
X259678Y171376D01*
X259588Y171308D01*
X259495Y171243D01*
X259400Y171181D01*
X259303Y171123D01*
X259204Y171068D01*
X259103Y171017D01*
X259000Y170969D01*
X258896Y170924D01*
X258790Y170884D01*
X258683Y170847D01*
X258575Y170814D01*
X258465Y170784D01*
X258355Y170759D01*
X258244Y170737D01*
X258132Y170720D01*
X258019Y170706D01*
X257906Y170696D01*
X257793Y170690D01*
X257680Y170688D01*
X257567Y170690D01*
X257454Y170696D01*
X257341Y170706D01*
X257228Y170720D01*
X257116Y170737D01*
X257005Y170759D01*
X256895Y170784D01*
X256785Y170814D01*
X256677Y170847D01*
X256570Y170884D01*
X256464Y170924D01*
X256360Y170969D01*
X256257Y171017D01*
X256156Y171068D01*
X256057Y171123D01*
X255960Y171181D01*
X255865Y171243D01*
X255772Y171308D01*
X255682Y171376D01*
X255594Y171447D01*
X255508Y171522D01*
X255425Y171599D01*
X255345Y171679D01*
X255268Y171762D01*
X255193Y171848D01*
X255122Y171936D01*
X255054Y172026D01*
X254989Y172119D01*
X254927Y172214D01*
X254869Y172311D01*
X254814Y172410D01*
X254763Y172511D01*
X254715Y172614D01*
X254670Y172718D01*
X254630Y172824D01*
X254593Y172931D01*
X254560Y173039D01*
X254530Y173149D01*
X254505Y173259D01*
X254483Y173370D01*
X254466Y173482D01*
X254452Y173595D01*
X254442Y173708D01*
X254436Y173821D01*
X254434Y173934D01*
X255084Y179776D02*
X255086Y179877D01*
X255092Y179977D01*
X255102Y180077D01*
X255115Y180177D01*
X255133Y180276D01*
X255154Y180375D01*
X255179Y180472D01*
X255208Y180569D01*
X255241Y180664D01*
X255277Y180758D01*
X255317Y180850D01*
X255360Y180941D01*
X255407Y181030D01*
X255457Y181117D01*
X255511Y181203D01*
X255568Y181286D01*
X255628Y181366D01*
X255691Y181445D01*
X255758Y181521D01*
X255827Y181594D01*
X255899Y181664D01*
X255973Y181732D01*
X256050Y181797D01*
X256130Y181858D01*
X256212Y181917D01*
X256296Y181972D01*
X256382Y182024D01*
X256470Y182073D01*
X256560Y182118D01*
X256652Y182160D01*
X256745Y182198D01*
X256840Y182232D01*
X256935Y182263D01*
X257032Y182290D01*
X257130Y182313D01*
X257229Y182333D01*
X257329Y182348D01*
X257429Y182360D01*
X257529Y182368D01*
X257630Y182372D01*
X257730Y182372D01*
X257831Y182368D01*
X257931Y182360D01*
X258031Y182348D01*
X258131Y182333D01*
X258230Y182313D01*
X258328Y182290D01*
X258425Y182263D01*
X258520Y182232D01*
X258615Y182198D01*
X258708Y182160D01*
X258800Y182118D01*
X258890Y182073D01*
X258978Y182024D01*
X259064Y181972D01*
X259148Y181917D01*
X259230Y181858D01*
X259310Y181797D01*
X259387Y181732D01*
X259461Y181664D01*
X259533Y181594D01*
X259602Y181521D01*
X259669Y181445D01*
X259732Y181366D01*
X259792Y181286D01*
X259849Y181203D01*
X259903Y181117D01*
X259953Y181030D01*
X260000Y180941D01*
X260043Y180850D01*
X260083Y180758D01*
X260119Y180664D01*
X260152Y180569D01*
X260181Y180472D01*
X260206Y180375D01*
X260227Y180276D01*
X260245Y180177D01*
X260258Y180077D01*
X260268Y179977D01*
X260274Y179877D01*
X260276Y179776D01*
X260274Y179675D01*
X260268Y179575D01*
X260258Y179475D01*
X260245Y179375D01*
X260227Y179276D01*
X260206Y179177D01*
X260181Y179080D01*
X260152Y178983D01*
X260119Y178888D01*
X260083Y178794D01*
X260043Y178702D01*
X260000Y178611D01*
X259953Y178522D01*
X259903Y178435D01*
X259849Y178349D01*
X259792Y178266D01*
X259732Y178186D01*
X259669Y178107D01*
X259602Y178031D01*
X259533Y177958D01*
X259461Y177888D01*
X259387Y177820D01*
X259310Y177755D01*
X259230Y177694D01*
X259148Y177635D01*
X259064Y177580D01*
X258978Y177528D01*
X258890Y177479D01*
X258800Y177434D01*
X258708Y177392D01*
X258615Y177354D01*
X258520Y177320D01*
X258425Y177289D01*
X258328Y177262D01*
X258230Y177239D01*
X258131Y177219D01*
X258031Y177204D01*
X257931Y177192D01*
X257831Y177184D01*
X257730Y177180D01*
X257630Y177180D01*
X257529Y177184D01*
X257429Y177192D01*
X257329Y177204D01*
X257229Y177219D01*
X257130Y177239D01*
X257032Y177262D01*
X256935Y177289D01*
X256840Y177320D01*
X256745Y177354D01*
X256652Y177392D01*
X256560Y177434D01*
X256470Y177479D01*
X256382Y177528D01*
X256296Y177580D01*
X256212Y177635D01*
X256130Y177694D01*
X256050Y177755D01*
X255973Y177820D01*
X255899Y177888D01*
X255827Y177958D01*
X255758Y178031D01*
X255691Y178107D01*
X255628Y178186D01*
X255568Y178266D01*
X255511Y178349D01*
X255457Y178435D01*
X255407Y178522D01*
X255360Y178611D01*
X255317Y178702D01*
X255277Y178794D01*
X255241Y178888D01*
X255208Y178983D01*
X255179Y179080D01*
X255154Y179177D01*
X255133Y179276D01*
X255115Y179375D01*
X255102Y179475D01*
X255092Y179575D01*
X255086Y179675D01*
X255084Y179776D01*
X309118Y132842D02*
X309118Y121158D01*
X309118Y132842D02*
X312364Y132842D01*
X312477Y132840D01*
X312590Y132834D01*
X312703Y132824D01*
X312816Y132810D01*
X312928Y132793D01*
X313039Y132771D01*
X313149Y132746D01*
X313259Y132716D01*
X313367Y132683D01*
X313474Y132646D01*
X313580Y132606D01*
X313684Y132561D01*
X313787Y132513D01*
X313888Y132462D01*
X313987Y132407D01*
X314084Y132349D01*
X314179Y132287D01*
X314272Y132222D01*
X314362Y132154D01*
X314450Y132083D01*
X314536Y132008D01*
X314619Y131931D01*
X314699Y131851D01*
X314776Y131768D01*
X314851Y131682D01*
X314922Y131594D01*
X314990Y131504D01*
X315055Y131411D01*
X315117Y131316D01*
X315175Y131219D01*
X315230Y131120D01*
X315281Y131019D01*
X315329Y130916D01*
X315374Y130812D01*
X315414Y130706D01*
X315451Y130599D01*
X315484Y130491D01*
X315514Y130381D01*
X315539Y130271D01*
X315561Y130160D01*
X315578Y130048D01*
X315592Y129935D01*
X315602Y129822D01*
X315608Y129709D01*
X315610Y129596D01*
X315608Y129483D01*
X315602Y129370D01*
X315592Y129257D01*
X315578Y129144D01*
X315561Y129032D01*
X315539Y128921D01*
X315514Y128811D01*
X315484Y128701D01*
X315451Y128593D01*
X315414Y128486D01*
X315374Y128380D01*
X315329Y128276D01*
X315281Y128173D01*
X315230Y128072D01*
X315175Y127973D01*
X315117Y127876D01*
X315055Y127781D01*
X314990Y127688D01*
X314922Y127598D01*
X314851Y127510D01*
X314776Y127424D01*
X314699Y127341D01*
X314619Y127261D01*
X314536Y127184D01*
X314450Y127109D01*
X314362Y127038D01*
X314272Y126970D01*
X314179Y126905D01*
X314084Y126843D01*
X313987Y126785D01*
X313888Y126730D01*
X313787Y126679D01*
X313684Y126631D01*
X313580Y126586D01*
X313474Y126546D01*
X313367Y126509D01*
X313259Y126476D01*
X313149Y126446D01*
X313039Y126421D01*
X312928Y126399D01*
X312816Y126382D01*
X312703Y126368D01*
X312590Y126358D01*
X312477Y126352D01*
X312364Y126350D01*
X312364Y126351D02*
X309118Y126351D01*
X313013Y126351D02*
X315609Y121158D01*
X323071Y126351D02*
X326965Y126351D01*
X323071Y126351D02*
X322972Y126353D01*
X322872Y126359D01*
X322773Y126368D01*
X322675Y126381D01*
X322577Y126398D01*
X322479Y126419D01*
X322383Y126444D01*
X322288Y126472D01*
X322194Y126504D01*
X322101Y126539D01*
X322009Y126578D01*
X321919Y126621D01*
X321831Y126666D01*
X321744Y126716D01*
X321660Y126768D01*
X321577Y126824D01*
X321497Y126882D01*
X321419Y126944D01*
X321344Y127009D01*
X321271Y127077D01*
X321201Y127147D01*
X321133Y127220D01*
X321068Y127295D01*
X321006Y127373D01*
X320948Y127453D01*
X320892Y127536D01*
X320840Y127620D01*
X320790Y127707D01*
X320745Y127795D01*
X320702Y127885D01*
X320663Y127977D01*
X320628Y128070D01*
X320596Y128164D01*
X320568Y128259D01*
X320543Y128355D01*
X320522Y128453D01*
X320505Y128551D01*
X320492Y128649D01*
X320483Y128748D01*
X320477Y128848D01*
X320475Y128947D01*
X320474Y128947D02*
X320474Y129596D01*
X320476Y129709D01*
X320482Y129822D01*
X320492Y129935D01*
X320506Y130048D01*
X320523Y130160D01*
X320545Y130271D01*
X320570Y130381D01*
X320600Y130491D01*
X320633Y130599D01*
X320670Y130706D01*
X320710Y130812D01*
X320755Y130916D01*
X320803Y131019D01*
X320854Y131120D01*
X320909Y131219D01*
X320967Y131316D01*
X321029Y131411D01*
X321094Y131504D01*
X321162Y131594D01*
X321233Y131682D01*
X321308Y131768D01*
X321385Y131851D01*
X321465Y131931D01*
X321548Y132008D01*
X321634Y132083D01*
X321722Y132154D01*
X321812Y132222D01*
X321905Y132287D01*
X322000Y132349D01*
X322097Y132407D01*
X322196Y132462D01*
X322297Y132513D01*
X322400Y132561D01*
X322504Y132606D01*
X322610Y132646D01*
X322717Y132683D01*
X322825Y132716D01*
X322935Y132746D01*
X323045Y132771D01*
X323156Y132793D01*
X323268Y132810D01*
X323381Y132824D01*
X323494Y132834D01*
X323607Y132840D01*
X323720Y132842D01*
X323833Y132840D01*
X323946Y132834D01*
X324059Y132824D01*
X324172Y132810D01*
X324284Y132793D01*
X324395Y132771D01*
X324505Y132746D01*
X324615Y132716D01*
X324723Y132683D01*
X324830Y132646D01*
X324936Y132606D01*
X325040Y132561D01*
X325143Y132513D01*
X325244Y132462D01*
X325343Y132407D01*
X325440Y132349D01*
X325535Y132287D01*
X325628Y132222D01*
X325718Y132154D01*
X325806Y132083D01*
X325892Y132008D01*
X325975Y131931D01*
X326055Y131851D01*
X326132Y131768D01*
X326207Y131682D01*
X326278Y131594D01*
X326346Y131504D01*
X326411Y131411D01*
X326473Y131316D01*
X326531Y131219D01*
X326586Y131120D01*
X326637Y131019D01*
X326685Y130916D01*
X326730Y130812D01*
X326770Y130706D01*
X326807Y130599D01*
X326840Y130491D01*
X326870Y130381D01*
X326895Y130271D01*
X326917Y130160D01*
X326934Y130048D01*
X326948Y129935D01*
X326958Y129822D01*
X326964Y129709D01*
X326966Y129596D01*
X326965Y129596D02*
X326965Y126351D01*
X326966Y126351D02*
X326964Y126208D01*
X326958Y126065D01*
X326948Y125922D01*
X326934Y125780D01*
X326917Y125638D01*
X326895Y125496D01*
X326870Y125355D01*
X326840Y125215D01*
X326807Y125076D01*
X326770Y124938D01*
X326729Y124801D01*
X326685Y124665D01*
X326636Y124530D01*
X326584Y124397D01*
X326529Y124265D01*
X326469Y124135D01*
X326406Y124006D01*
X326340Y123879D01*
X326270Y123754D01*
X326197Y123632D01*
X326120Y123511D01*
X326040Y123392D01*
X325957Y123276D01*
X325871Y123161D01*
X325782Y123050D01*
X325689Y122940D01*
X325594Y122834D01*
X325495Y122730D01*
X325394Y122629D01*
X325290Y122530D01*
X325184Y122435D01*
X325074Y122342D01*
X324963Y122253D01*
X324848Y122167D01*
X324732Y122084D01*
X324613Y122004D01*
X324492Y121927D01*
X324370Y121854D01*
X324245Y121784D01*
X324118Y121718D01*
X323989Y121655D01*
X323859Y121595D01*
X323727Y121540D01*
X323594Y121488D01*
X323459Y121439D01*
X323323Y121395D01*
X323186Y121354D01*
X323048Y121317D01*
X322909Y121284D01*
X322769Y121254D01*
X322628Y121229D01*
X322486Y121207D01*
X322344Y121190D01*
X322202Y121176D01*
X322059Y121166D01*
X321916Y121160D01*
X321773Y121158D01*
D12*
X281090Y221800D02*
X281092Y221863D01*
X281098Y221925D01*
X281108Y221987D01*
X281121Y222049D01*
X281139Y222109D01*
X281160Y222168D01*
X281185Y222226D01*
X281214Y222282D01*
X281246Y222336D01*
X281281Y222388D01*
X281319Y222437D01*
X281361Y222485D01*
X281405Y222529D01*
X281453Y222571D01*
X281502Y222609D01*
X281554Y222644D01*
X281608Y222676D01*
X281664Y222705D01*
X281722Y222730D01*
X281781Y222751D01*
X281841Y222769D01*
X281903Y222782D01*
X281965Y222792D01*
X282027Y222798D01*
X282090Y222800D01*
X282153Y222798D01*
X282215Y222792D01*
X282277Y222782D01*
X282339Y222769D01*
X282399Y222751D01*
X282458Y222730D01*
X282516Y222705D01*
X282572Y222676D01*
X282626Y222644D01*
X282678Y222609D01*
X282727Y222571D01*
X282775Y222529D01*
X282819Y222485D01*
X282861Y222437D01*
X282899Y222388D01*
X282934Y222336D01*
X282966Y222282D01*
X282995Y222226D01*
X283020Y222168D01*
X283041Y222109D01*
X283059Y222049D01*
X283072Y221987D01*
X283082Y221925D01*
X283088Y221863D01*
X283090Y221800D01*
X283088Y221737D01*
X283082Y221675D01*
X283072Y221613D01*
X283059Y221551D01*
X283041Y221491D01*
X283020Y221432D01*
X282995Y221374D01*
X282966Y221318D01*
X282934Y221264D01*
X282899Y221212D01*
X282861Y221163D01*
X282819Y221115D01*
X282775Y221071D01*
X282727Y221029D01*
X282678Y220991D01*
X282626Y220956D01*
X282572Y220924D01*
X282516Y220895D01*
X282458Y220870D01*
X282399Y220849D01*
X282339Y220831D01*
X282277Y220818D01*
X282215Y220808D01*
X282153Y220802D01*
X282090Y220800D01*
X282027Y220802D01*
X281965Y220808D01*
X281903Y220818D01*
X281841Y220831D01*
X281781Y220849D01*
X281722Y220870D01*
X281664Y220895D01*
X281608Y220924D01*
X281554Y220956D01*
X281502Y220991D01*
X281453Y221029D01*
X281405Y221071D01*
X281361Y221115D01*
X281319Y221163D01*
X281281Y221212D01*
X281246Y221264D01*
X281214Y221318D01*
X281185Y221374D01*
X281160Y221432D01*
X281139Y221491D01*
X281121Y221551D01*
X281108Y221613D01*
X281098Y221675D01*
X281092Y221737D01*
X281090Y221800D01*
D13*
X306390Y222050D02*
X346390Y222050D01*
X346390Y133550D02*
X306390Y133550D01*
D10*
X305178Y235194D02*
X305178Y243632D01*
X305178Y235194D02*
X305180Y235081D01*
X305186Y234968D01*
X305196Y234855D01*
X305210Y234742D01*
X305227Y234630D01*
X305249Y234519D01*
X305274Y234409D01*
X305304Y234299D01*
X305337Y234191D01*
X305374Y234084D01*
X305414Y233978D01*
X305459Y233874D01*
X305507Y233771D01*
X305558Y233670D01*
X305613Y233571D01*
X305671Y233474D01*
X305733Y233379D01*
X305798Y233286D01*
X305866Y233196D01*
X305937Y233108D01*
X306012Y233022D01*
X306089Y232939D01*
X306169Y232859D01*
X306252Y232782D01*
X306338Y232707D01*
X306426Y232636D01*
X306516Y232568D01*
X306609Y232503D01*
X306704Y232441D01*
X306801Y232383D01*
X306900Y232328D01*
X307001Y232277D01*
X307104Y232229D01*
X307208Y232184D01*
X307314Y232144D01*
X307421Y232107D01*
X307529Y232074D01*
X307639Y232044D01*
X307749Y232019D01*
X307860Y231997D01*
X307972Y231980D01*
X308085Y231966D01*
X308198Y231956D01*
X308311Y231950D01*
X308424Y231948D01*
X308537Y231950D01*
X308650Y231956D01*
X308763Y231966D01*
X308876Y231980D01*
X308988Y231997D01*
X309099Y232019D01*
X309209Y232044D01*
X309319Y232074D01*
X309427Y232107D01*
X309534Y232144D01*
X309640Y232184D01*
X309744Y232229D01*
X309847Y232277D01*
X309948Y232328D01*
X310047Y232383D01*
X310144Y232441D01*
X310239Y232503D01*
X310332Y232568D01*
X310422Y232636D01*
X310510Y232707D01*
X310596Y232782D01*
X310679Y232859D01*
X310759Y232939D01*
X310836Y233022D01*
X310911Y233108D01*
X310982Y233196D01*
X311050Y233286D01*
X311115Y233379D01*
X311177Y233474D01*
X311235Y233571D01*
X311290Y233670D01*
X311341Y233771D01*
X311389Y233874D01*
X311434Y233978D01*
X311474Y234084D01*
X311511Y234191D01*
X311544Y234299D01*
X311574Y234409D01*
X311599Y234519D01*
X311621Y234630D01*
X311638Y234742D01*
X311652Y234855D01*
X311662Y234968D01*
X311668Y235081D01*
X311670Y235194D01*
X311669Y235194D02*
X311669Y243632D01*
X316989Y241036D02*
X320235Y243632D01*
X320235Y231948D01*
X323480Y231948D02*
X316989Y231948D01*
D14*
X124460Y147320D02*
X93980Y147320D01*
X124460Y147320D02*
X124460Y248920D01*
X124460Y147320D02*
X124460Y142240D01*
X76200Y142240D01*
X78740Y147320D01*
X10160Y147320D02*
X7620Y142240D01*
X10160Y147320D02*
X0Y147320D01*
X21590Y147320D02*
X24130Y142240D01*
X21590Y147320D02*
X10160Y147320D01*
X7620Y142240D02*
X24130Y142240D01*
X19050Y193548D02*
X0Y193548D01*
X19050Y152908D02*
X64770Y152908D01*
X0Y152908D02*
X0Y193548D01*
X0Y152908D02*
X0Y147320D01*
X0Y202946D02*
X19050Y202946D01*
X0Y202946D02*
X0Y193548D01*
X19050Y243586D02*
X64770Y243586D01*
X0Y243586D02*
X0Y248920D01*
X0Y243586D02*
X0Y202946D01*
X19050Y193548D02*
X19050Y152908D01*
X19050Y193548D02*
X64770Y193548D01*
X19050Y152908D02*
X0Y152908D01*
X19050Y202946D02*
X19050Y243586D01*
X19050Y202946D02*
X64770Y202946D01*
X19050Y243586D02*
X0Y243586D01*
X25400Y156718D02*
X57150Y156718D01*
X25400Y156718D02*
X25400Y189738D01*
X57150Y189738D01*
X57150Y206756D02*
X25400Y206756D01*
X25400Y239776D01*
X57150Y239776D01*
X68580Y248920D02*
X0Y248920D01*
X68580Y248920D02*
X93980Y248920D01*
X78740Y147320D02*
X68580Y147320D01*
X21590Y147320D01*
X93980Y147320D02*
X93980Y248920D01*
X124460Y248920D01*
X93980Y147320D02*
X78740Y147320D01*
X96520Y193548D02*
X121920Y193548D01*
X121920Y152908D01*
X96520Y152908D01*
X96520Y193548D01*
X96520Y202946D02*
X121920Y202946D01*
X96520Y202946D02*
X96520Y243586D01*
X121920Y243586D01*
X121920Y202946D01*
X112775Y157989D02*
X112650Y157879D01*
X112523Y157773D01*
X112393Y157669D01*
X112260Y157569D01*
X112126Y157472D01*
X111988Y157378D01*
X111849Y157288D01*
X111707Y157201D01*
X111564Y157117D01*
X111418Y157037D01*
X111270Y156961D01*
X111121Y156888D01*
X110970Y156819D01*
X110817Y156754D01*
X110663Y156692D01*
X110507Y156634D01*
X110350Y156580D01*
X110191Y156530D01*
X110032Y156483D01*
X109871Y156441D01*
X109710Y156402D01*
X109547Y156367D01*
X109384Y156337D01*
X109220Y156310D01*
X109055Y156287D01*
X108890Y156269D01*
X108724Y156254D01*
X108559Y156243D01*
X108392Y156237D01*
X108226Y156234D01*
X108060Y156235D01*
X107894Y156241D01*
X107728Y156251D01*
X107563Y156264D01*
X107397Y156282D01*
X107232Y156303D01*
X107068Y156329D01*
X106905Y156358D01*
X106742Y156392D01*
X106580Y156429D01*
X106419Y156471D01*
X106259Y156516D01*
X106101Y156565D01*
X105943Y156618D01*
X105787Y156675D01*
X105632Y156736D01*
X105479Y156800D01*
X105327Y156868D01*
X105177Y156940D01*
X105029Y157016D01*
X104883Y157095D01*
X104739Y157177D01*
X104597Y157263D01*
X104457Y157352D01*
X104319Y157445D01*
X104183Y157541D01*
X104050Y157641D01*
X103919Y157743D01*
X103791Y157849D01*
X103665Y157958D01*
X103543Y158070D01*
X103422Y158184D01*
X103305Y158302D01*
X103191Y158423D01*
X103079Y158546D01*
X103419Y158082D02*
X103068Y158563D01*
X102728Y159052D01*
X102400Y159550D01*
X102085Y160055D01*
X101782Y160568D01*
X101492Y161088D01*
X101214Y161615D01*
X100950Y162148D01*
X100698Y162688D01*
X100460Y163234D01*
X100235Y163785D01*
X100024Y164342D01*
X99826Y164904D01*
X99642Y165470D01*
X99472Y166041D01*
X99316Y166616D01*
X99174Y167194D01*
X99046Y167776D01*
X98933Y168360D01*
X98833Y168948D01*
X98749Y169537D01*
X98678Y170128D01*
X98622Y170721D01*
X98580Y171315D01*
X98553Y171910D01*
X98541Y172506D01*
X98543Y173101D01*
X98560Y173697D01*
X98591Y174291D01*
X98636Y174885D01*
X98696Y175478D01*
X98771Y176068D01*
X98860Y176657D01*
X98963Y177244D01*
X99081Y177828D01*
X99212Y178408D01*
X99358Y178986D01*
X99518Y179559D01*
X99692Y180129D01*
X99880Y180694D01*
X100082Y181255D01*
X100297Y181810D01*
X100525Y182360D01*
X100767Y182904D01*
X101023Y183442D01*
X101291Y183974D01*
X101572Y184499D01*
X101866Y185017D01*
X102172Y185527D01*
X102491Y186030D01*
X102822Y186526D01*
X103165Y187012D01*
X103520Y187491D01*
X103886Y187960D01*
X112268Y189484D02*
X112652Y189165D01*
X113028Y188837D01*
X113396Y188500D01*
X113756Y188154D01*
X114108Y187800D01*
X114451Y187437D01*
X114784Y187066D01*
X115109Y186687D01*
X115425Y186300D01*
X115731Y185905D01*
X116027Y185504D01*
X116314Y185095D01*
X116590Y184680D01*
X116856Y184257D01*
X117112Y183829D01*
X117358Y183394D01*
X117593Y182954D01*
X117817Y182508D01*
X118031Y182057D01*
X118233Y181601D01*
X118424Y181140D01*
X118604Y180674D01*
X118773Y180204D01*
X118930Y179730D01*
X119076Y179253D01*
X119210Y178772D01*
X119332Y178288D01*
X119443Y177802D01*
X119542Y177312D01*
X119629Y176821D01*
X119704Y176327D01*
X119767Y175832D01*
X119817Y175336D01*
X119856Y174838D01*
X119883Y174340D01*
X119898Y173841D01*
X119901Y173341D01*
X119891Y172842D01*
X119869Y172344D01*
X119836Y171846D01*
X119790Y171349D01*
X119732Y170853D01*
X119663Y170359D01*
X119581Y169866D01*
X119487Y169376D01*
X119382Y168888D01*
X119264Y168403D01*
X119135Y167921D01*
X118995Y167442D01*
X118842Y166966D01*
X118679Y166495D01*
X118504Y166028D01*
X118317Y165564D01*
X118120Y165106D01*
X117911Y164653D01*
X117691Y164204D01*
X117461Y163762D01*
X117220Y163324D01*
X116969Y162893D01*
X116707Y162468D01*
X116434Y162050D01*
X116152Y161638D01*
X115860Y161234D01*
X115558Y160836D01*
X115247Y160446D01*
X114926Y160063D01*
X114596Y159689D01*
X114257Y159322D01*
X113910Y158964D01*
X113553Y158615D01*
X113189Y158274D01*
X112816Y157942D01*
X103527Y187539D02*
X103602Y187671D01*
X103681Y187801D01*
X103763Y187929D01*
X103849Y188054D01*
X103937Y188178D01*
X104029Y188299D01*
X104124Y188418D01*
X104222Y188534D01*
X104322Y188648D01*
X104426Y188759D01*
X104532Y188867D01*
X104642Y188973D01*
X104754Y189076D01*
X104868Y189176D01*
X104985Y189272D01*
X105104Y189366D01*
X105226Y189457D01*
X105350Y189545D01*
X105477Y189629D01*
X105605Y189711D01*
X105735Y189789D01*
X105868Y189863D01*
X106002Y189934D01*
X106138Y190002D01*
X106276Y190066D01*
X106415Y190127D01*
X106556Y190184D01*
X106698Y190237D01*
X106842Y190287D01*
X106986Y190333D01*
X107132Y190375D01*
X107279Y190414D01*
X107427Y190448D01*
X107576Y190479D01*
X107725Y190507D01*
X107876Y190530D01*
X108026Y190549D01*
X108177Y190565D01*
X108329Y190577D01*
X108481Y190585D01*
X108632Y190588D01*
X108784Y190589D01*
X108936Y190585D01*
X109088Y190577D01*
X109239Y190565D01*
X109391Y190550D01*
X109541Y190531D01*
X109691Y190507D01*
X109841Y190480D01*
X109990Y190450D01*
X110138Y190415D01*
X110285Y190376D01*
X110431Y190334D01*
X110575Y190288D01*
X110719Y190239D01*
X110861Y190185D01*
X111002Y190129D01*
X111142Y190068D01*
X111279Y190004D01*
X111415Y189937D01*
X111550Y189866D01*
X111682Y189791D01*
X111813Y189713D01*
X111941Y189632D01*
X112068Y189548D01*
X112192Y189460D01*
X112314Y189370D01*
X112433Y189276D01*
X112550Y189179D01*
X112665Y189079D01*
X112777Y188976D01*
X106680Y189484D02*
X113030Y159004D01*
X111760Y157734D02*
X105410Y188214D01*
X103079Y208584D02*
X103191Y208461D01*
X103305Y208340D01*
X103422Y208222D01*
X103543Y208108D01*
X103665Y207996D01*
X103791Y207887D01*
X103919Y207781D01*
X104050Y207679D01*
X104183Y207579D01*
X104319Y207483D01*
X104457Y207390D01*
X104597Y207301D01*
X104739Y207215D01*
X104883Y207133D01*
X105029Y207054D01*
X105177Y206978D01*
X105327Y206906D01*
X105479Y206838D01*
X105632Y206774D01*
X105787Y206713D01*
X105943Y206656D01*
X106101Y206603D01*
X106259Y206554D01*
X106419Y206509D01*
X106580Y206467D01*
X106742Y206430D01*
X106905Y206396D01*
X107068Y206367D01*
X107232Y206341D01*
X107397Y206320D01*
X107563Y206302D01*
X107728Y206289D01*
X107894Y206279D01*
X108060Y206273D01*
X108226Y206272D01*
X108392Y206275D01*
X108559Y206281D01*
X108724Y206292D01*
X108890Y206307D01*
X109055Y206325D01*
X109220Y206348D01*
X109384Y206375D01*
X109547Y206405D01*
X109710Y206440D01*
X109871Y206479D01*
X110032Y206521D01*
X110191Y206568D01*
X110350Y206618D01*
X110507Y206672D01*
X110663Y206730D01*
X110817Y206792D01*
X110970Y206857D01*
X111121Y206926D01*
X111270Y206999D01*
X111418Y207075D01*
X111564Y207155D01*
X111707Y207239D01*
X111849Y207326D01*
X111988Y207416D01*
X112126Y207510D01*
X112260Y207607D01*
X112393Y207707D01*
X112523Y207811D01*
X112650Y207917D01*
X112775Y208027D01*
X103418Y208120D02*
X103066Y208601D01*
X102727Y209090D01*
X102399Y209587D01*
X102084Y210092D01*
X101781Y210605D01*
X101490Y211125D01*
X101213Y211652D01*
X100948Y212186D01*
X100697Y212725D01*
X100459Y213271D01*
X100234Y213823D01*
X100022Y214380D01*
X99825Y214941D01*
X99641Y215508D01*
X99471Y216079D01*
X99315Y216653D01*
X99173Y217232D01*
X99045Y217813D01*
X98932Y218398D01*
X98832Y218985D01*
X98747Y219575D01*
X98677Y220166D01*
X98621Y220759D01*
X98579Y221353D01*
X98552Y221948D01*
X98540Y222544D01*
X98542Y223139D01*
X98559Y223734D01*
X98590Y224329D01*
X98635Y224923D01*
X98695Y225515D01*
X98770Y226106D01*
X98859Y226695D01*
X98962Y227282D01*
X99080Y227866D01*
X99212Y228446D01*
X99358Y229024D01*
X99518Y229597D01*
X99692Y230167D01*
X99879Y230732D01*
X100081Y231293D01*
X100296Y231848D01*
X100525Y232398D01*
X100767Y232942D01*
X101022Y233480D01*
X101290Y234012D01*
X101571Y234537D01*
X101865Y235055D01*
X102172Y235565D01*
X102491Y236068D01*
X102822Y236564D01*
X103165Y237050D01*
X103519Y237529D01*
X103886Y237998D01*
X112268Y239522D02*
X112652Y239203D01*
X113029Y238875D01*
X113397Y238538D01*
X113757Y238192D01*
X114108Y237838D01*
X114451Y237475D01*
X114785Y237104D01*
X115110Y236725D01*
X115425Y236338D01*
X115732Y235944D01*
X116028Y235542D01*
X116314Y235133D01*
X116591Y234718D01*
X116857Y234296D01*
X117114Y233867D01*
X117359Y233432D01*
X117594Y232992D01*
X117819Y232546D01*
X118032Y232095D01*
X118234Y231638D01*
X118426Y231177D01*
X118606Y230712D01*
X118774Y230242D01*
X118932Y229768D01*
X119077Y229291D01*
X119212Y228810D01*
X119334Y228326D01*
X119445Y227839D01*
X119543Y227350D01*
X119630Y226858D01*
X119705Y226365D01*
X119768Y225870D01*
X119819Y225373D01*
X119858Y224875D01*
X119885Y224377D01*
X119900Y223878D01*
X119903Y223379D01*
X119893Y222880D01*
X119872Y222381D01*
X119838Y221883D01*
X119792Y221386D01*
X119734Y220890D01*
X119665Y220396D01*
X119583Y219903D01*
X119489Y219413D01*
X119384Y218925D01*
X119267Y218440D01*
X119138Y217957D01*
X118997Y217478D01*
X118845Y217003D01*
X118681Y216532D01*
X118506Y216064D01*
X118320Y215601D01*
X118122Y215142D01*
X117913Y214689D01*
X117694Y214241D01*
X117464Y213798D01*
X117223Y213361D01*
X116971Y212929D01*
X116709Y212504D01*
X116437Y212086D01*
X116155Y211674D01*
X115863Y211269D01*
X115561Y210872D01*
X115249Y210482D01*
X114929Y210099D01*
X114599Y209725D01*
X114260Y209358D01*
X113912Y209000D01*
X113556Y208650D01*
X113191Y208309D01*
X112818Y207977D01*
X103527Y237577D02*
X103602Y237709D01*
X103681Y237839D01*
X103763Y237967D01*
X103849Y238092D01*
X103937Y238216D01*
X104029Y238337D01*
X104124Y238456D01*
X104222Y238572D01*
X104322Y238686D01*
X104426Y238797D01*
X104532Y238905D01*
X104642Y239011D01*
X104754Y239114D01*
X104868Y239214D01*
X104985Y239310D01*
X105104Y239404D01*
X105226Y239495D01*
X105350Y239583D01*
X105477Y239667D01*
X105605Y239749D01*
X105735Y239827D01*
X105868Y239901D01*
X106002Y239972D01*
X106138Y240040D01*
X106276Y240104D01*
X106415Y240165D01*
X106556Y240222D01*
X106698Y240275D01*
X106842Y240325D01*
X106986Y240371D01*
X107132Y240413D01*
X107279Y240452D01*
X107427Y240486D01*
X107576Y240517D01*
X107725Y240545D01*
X107876Y240568D01*
X108026Y240587D01*
X108177Y240603D01*
X108329Y240615D01*
X108481Y240623D01*
X108632Y240626D01*
X108784Y240627D01*
X108936Y240623D01*
X109088Y240615D01*
X109239Y240603D01*
X109391Y240588D01*
X109541Y240569D01*
X109691Y240545D01*
X109841Y240518D01*
X109990Y240488D01*
X110138Y240453D01*
X110285Y240414D01*
X110431Y240372D01*
X110575Y240326D01*
X110719Y240277D01*
X110861Y240223D01*
X111002Y240167D01*
X111142Y240106D01*
X111279Y240042D01*
X111415Y239975D01*
X111550Y239904D01*
X111682Y239829D01*
X111813Y239751D01*
X111941Y239670D01*
X112068Y239586D01*
X112192Y239498D01*
X112314Y239408D01*
X112433Y239314D01*
X112550Y239217D01*
X112665Y239117D01*
X112777Y239014D01*
X106680Y239522D02*
X113030Y209042D01*
X111760Y207772D02*
X105410Y238252D01*
X64770Y239776D02*
X64770Y243586D01*
X64770Y206756D02*
X64770Y202946D01*
X68580Y239776D02*
X68580Y248920D01*
X68580Y206756D02*
X68580Y189738D01*
X68580Y156718D02*
X68580Y147320D01*
X64770Y152908D02*
X64770Y156718D01*
X64770Y189738D02*
X64770Y193548D01*
D13*
X78105Y236093D02*
X75565Y239268D01*
X86995Y239268D01*
X86995Y236093D02*
X86995Y242443D01*
X78423Y191644D02*
X78319Y191642D01*
X78214Y191636D01*
X78110Y191627D01*
X78007Y191614D01*
X77904Y191596D01*
X77802Y191576D01*
X77700Y191551D01*
X77600Y191523D01*
X77500Y191491D01*
X77402Y191455D01*
X77305Y191416D01*
X77210Y191374D01*
X77116Y191328D01*
X77024Y191278D01*
X76934Y191226D01*
X76846Y191170D01*
X76760Y191110D01*
X76676Y191048D01*
X76595Y190983D01*
X76516Y190915D01*
X76439Y190843D01*
X76366Y190770D01*
X76294Y190693D01*
X76226Y190614D01*
X76161Y190533D01*
X76099Y190449D01*
X76039Y190363D01*
X75983Y190275D01*
X75931Y190185D01*
X75881Y190093D01*
X75835Y189999D01*
X75793Y189904D01*
X75754Y189807D01*
X75718Y189709D01*
X75686Y189609D01*
X75658Y189509D01*
X75633Y189407D01*
X75613Y189305D01*
X75595Y189202D01*
X75582Y189099D01*
X75573Y188995D01*
X75567Y188890D01*
X75565Y188786D01*
X75567Y188668D01*
X75573Y188549D01*
X75582Y188431D01*
X75595Y188314D01*
X75613Y188197D01*
X75633Y188080D01*
X75658Y187964D01*
X75686Y187849D01*
X75719Y187736D01*
X75754Y187623D01*
X75794Y187511D01*
X75836Y187401D01*
X75883Y187292D01*
X75933Y187184D01*
X75986Y187079D01*
X76043Y186975D01*
X76103Y186873D01*
X76166Y186773D01*
X76233Y186675D01*
X76302Y186579D01*
X76375Y186486D01*
X76451Y186395D01*
X76529Y186306D01*
X76611Y186220D01*
X76695Y186137D01*
X76781Y186056D01*
X76871Y185979D01*
X76962Y185904D01*
X77056Y185832D01*
X77153Y185763D01*
X77251Y185698D01*
X77352Y185635D01*
X77455Y185576D01*
X77559Y185520D01*
X77665Y185468D01*
X77773Y185419D01*
X77882Y185374D01*
X77993Y185332D01*
X78105Y185294D01*
X80645Y190691D02*
X80570Y190767D01*
X80491Y190842D01*
X80410Y190913D01*
X80326Y190982D01*
X80240Y191047D01*
X80152Y191109D01*
X80062Y191169D01*
X79970Y191225D01*
X79875Y191278D01*
X79779Y191327D01*
X79681Y191373D01*
X79582Y191416D01*
X79481Y191455D01*
X79379Y191490D01*
X79276Y191522D01*
X79172Y191550D01*
X79067Y191575D01*
X78960Y191596D01*
X78854Y191613D01*
X78747Y191626D01*
X78639Y191635D01*
X78531Y191641D01*
X78423Y191643D01*
X80645Y190691D02*
X86995Y185293D01*
X86995Y191643D01*
X15240Y130175D02*
X7620Y118745D01*
X15240Y118745D02*
X7620Y130175D01*
X19685Y127635D02*
X22860Y130175D01*
X22860Y118745D01*
X19685Y118745D02*
X26035Y118745D01*
D11*
X374330Y-5340D02*
X400830Y-5340D01*
X374330Y-5340D02*
X374330Y-26840D01*
X381830Y-34340D01*
X381830Y-72340D01*
X373330Y-72340D01*
X373330Y-84090D01*
X335330Y-84090D01*
X335330Y-72340D01*
X326830Y-72340D01*
X326830Y-34340D01*
X334330Y-26840D01*
X334330Y-5340D01*
X307830Y-5340D01*
X315830Y9160D02*
X392830Y9160D01*
X307830Y9160D02*
X307830Y-5340D01*
X400830Y-5340D02*
X400830Y9160D01*
D10*
X284621Y36322D02*
X276832Y24638D01*
X284621Y24638D02*
X276832Y36322D01*
X292481Y36322D02*
X292588Y36320D01*
X292694Y36314D01*
X292800Y36304D01*
X292906Y36291D01*
X293012Y36273D01*
X293116Y36252D01*
X293220Y36227D01*
X293323Y36198D01*
X293424Y36166D01*
X293524Y36129D01*
X293623Y36089D01*
X293721Y36046D01*
X293817Y35999D01*
X293911Y35948D01*
X294003Y35894D01*
X294093Y35837D01*
X294181Y35777D01*
X294266Y35713D01*
X294349Y35646D01*
X294430Y35576D01*
X294508Y35504D01*
X294584Y35428D01*
X294656Y35350D01*
X294726Y35269D01*
X294793Y35186D01*
X294857Y35101D01*
X294917Y35013D01*
X294974Y34923D01*
X295028Y34831D01*
X295079Y34737D01*
X295126Y34641D01*
X295169Y34543D01*
X295209Y34444D01*
X295246Y34344D01*
X295278Y34243D01*
X295307Y34140D01*
X295332Y34036D01*
X295353Y33932D01*
X295371Y33826D01*
X295384Y33720D01*
X295394Y33614D01*
X295400Y33508D01*
X295402Y33401D01*
X292481Y36322D02*
X292360Y36320D01*
X292239Y36314D01*
X292119Y36304D01*
X291998Y36291D01*
X291879Y36273D01*
X291759Y36252D01*
X291641Y36227D01*
X291524Y36198D01*
X291407Y36165D01*
X291292Y36129D01*
X291178Y36088D01*
X291065Y36045D01*
X290953Y35997D01*
X290844Y35946D01*
X290736Y35891D01*
X290629Y35833D01*
X290525Y35772D01*
X290423Y35707D01*
X290323Y35639D01*
X290225Y35568D01*
X290129Y35494D01*
X290036Y35417D01*
X289946Y35336D01*
X289858Y35253D01*
X289773Y35167D01*
X289690Y35078D01*
X289611Y34987D01*
X289534Y34893D01*
X289461Y34797D01*
X289391Y34699D01*
X289324Y34598D01*
X289260Y34495D01*
X289200Y34390D01*
X289143Y34283D01*
X289089Y34175D01*
X289039Y34065D01*
X288993Y33953D01*
X288950Y33840D01*
X288911Y33725D01*
X294429Y31129D02*
X294508Y31206D01*
X294584Y31287D01*
X294657Y31370D01*
X294727Y31455D01*
X294794Y31543D01*
X294858Y31633D01*
X294918Y31725D01*
X294975Y31820D01*
X295029Y31916D01*
X295080Y32014D01*
X295127Y32114D01*
X295171Y32216D01*
X295211Y32319D01*
X295247Y32423D01*
X295279Y32529D01*
X295308Y32635D01*
X295333Y32743D01*
X295355Y32851D01*
X295372Y32961D01*
X295386Y33070D01*
X295395Y33180D01*
X295401Y33291D01*
X295403Y33401D01*
X294428Y31129D02*
X288911Y24638D01*
X295402Y24638D01*
D14*
X619760Y20320D02*
X650240Y20320D01*
X650240Y121920D01*
X650240Y20320D02*
X650240Y15240D01*
X601980Y15240D01*
X604520Y20320D01*
X535940Y20320D02*
X533400Y15240D01*
X535940Y20320D02*
X525780Y20320D01*
X547370Y20320D02*
X549910Y15240D01*
X547370Y20320D02*
X535940Y20320D01*
X533400Y15240D02*
X549910Y15240D01*
X544830Y66548D02*
X525780Y66548D01*
X544830Y25908D02*
X590550Y25908D01*
X525780Y25908D02*
X525780Y66548D01*
X525780Y25908D02*
X525780Y20320D01*
X525780Y75946D02*
X544830Y75946D01*
X525780Y75946D02*
X525780Y66548D01*
X544830Y116586D02*
X590550Y116586D01*
X525780Y116586D02*
X525780Y121920D01*
X525780Y116586D02*
X525780Y75946D01*
X544830Y66548D02*
X544830Y25908D01*
X544830Y66548D02*
X590550Y66548D01*
X544830Y25908D02*
X525780Y25908D01*
X544830Y75946D02*
X544830Y116586D01*
X544830Y75946D02*
X590550Y75946D01*
X544830Y116586D02*
X525780Y116586D01*
X551180Y29718D02*
X582930Y29718D01*
X551180Y29718D02*
X551180Y62738D01*
X582930Y62738D01*
X582930Y79756D02*
X551180Y79756D01*
X551180Y112776D01*
X582930Y112776D01*
X594360Y121920D02*
X525780Y121920D01*
X594360Y121920D02*
X619760Y121920D01*
X604520Y20320D02*
X594360Y20320D01*
X547370Y20320D01*
X619760Y20320D02*
X619760Y121920D01*
X650240Y121920D01*
X619760Y20320D02*
X604520Y20320D01*
X622300Y66548D02*
X647700Y66548D01*
X647700Y25908D01*
X622300Y25908D01*
X622300Y66548D01*
X622300Y75946D02*
X647700Y75946D01*
X622300Y75946D02*
X622300Y116586D01*
X647700Y116586D01*
X647700Y75946D01*
X638555Y30989D02*
X638430Y30879D01*
X638303Y30773D01*
X638173Y30669D01*
X638040Y30569D01*
X637906Y30472D01*
X637768Y30378D01*
X637629Y30288D01*
X637487Y30201D01*
X637344Y30117D01*
X637198Y30037D01*
X637050Y29961D01*
X636901Y29888D01*
X636750Y29819D01*
X636597Y29754D01*
X636443Y29692D01*
X636287Y29634D01*
X636130Y29580D01*
X635971Y29530D01*
X635812Y29483D01*
X635651Y29441D01*
X635490Y29402D01*
X635327Y29367D01*
X635164Y29337D01*
X635000Y29310D01*
X634835Y29287D01*
X634670Y29269D01*
X634504Y29254D01*
X634339Y29243D01*
X634172Y29237D01*
X634006Y29234D01*
X633840Y29235D01*
X633674Y29241D01*
X633508Y29251D01*
X633343Y29264D01*
X633177Y29282D01*
X633012Y29303D01*
X632848Y29329D01*
X632685Y29358D01*
X632522Y29392D01*
X632360Y29429D01*
X632199Y29471D01*
X632039Y29516D01*
X631881Y29565D01*
X631723Y29618D01*
X631567Y29675D01*
X631412Y29736D01*
X631259Y29800D01*
X631107Y29868D01*
X630957Y29940D01*
X630809Y30016D01*
X630663Y30095D01*
X630519Y30177D01*
X630377Y30263D01*
X630237Y30352D01*
X630099Y30445D01*
X629963Y30541D01*
X629830Y30641D01*
X629699Y30743D01*
X629571Y30849D01*
X629445Y30958D01*
X629323Y31070D01*
X629202Y31184D01*
X629085Y31302D01*
X628971Y31423D01*
X628859Y31546D01*
X629199Y31082D02*
X628848Y31563D01*
X628508Y32052D01*
X628180Y32550D01*
X627865Y33055D01*
X627562Y33568D01*
X627272Y34088D01*
X626994Y34615D01*
X626730Y35148D01*
X626478Y35688D01*
X626240Y36234D01*
X626015Y36785D01*
X625804Y37342D01*
X625606Y37904D01*
X625422Y38470D01*
X625252Y39041D01*
X625096Y39616D01*
X624954Y40194D01*
X624826Y40776D01*
X624713Y41360D01*
X624613Y41948D01*
X624529Y42537D01*
X624458Y43128D01*
X624402Y43721D01*
X624360Y44315D01*
X624333Y44910D01*
X624321Y45506D01*
X624323Y46101D01*
X624340Y46697D01*
X624371Y47291D01*
X624416Y47885D01*
X624476Y48478D01*
X624551Y49068D01*
X624640Y49657D01*
X624743Y50244D01*
X624861Y50828D01*
X624992Y51408D01*
X625138Y51986D01*
X625298Y52559D01*
X625472Y53129D01*
X625660Y53694D01*
X625862Y54255D01*
X626077Y54810D01*
X626305Y55360D01*
X626547Y55904D01*
X626803Y56442D01*
X627071Y56974D01*
X627352Y57499D01*
X627646Y58017D01*
X627952Y58527D01*
X628271Y59030D01*
X628602Y59526D01*
X628945Y60012D01*
X629300Y60491D01*
X629666Y60960D01*
X638048Y62484D02*
X638432Y62165D01*
X638808Y61837D01*
X639176Y61500D01*
X639536Y61154D01*
X639888Y60800D01*
X640231Y60437D01*
X640564Y60066D01*
X640889Y59687D01*
X641205Y59300D01*
X641511Y58905D01*
X641807Y58504D01*
X642094Y58095D01*
X642370Y57680D01*
X642636Y57257D01*
X642892Y56829D01*
X643138Y56394D01*
X643373Y55954D01*
X643597Y55508D01*
X643811Y55057D01*
X644013Y54601D01*
X644204Y54140D01*
X644384Y53674D01*
X644553Y53204D01*
X644710Y52730D01*
X644856Y52253D01*
X644990Y51772D01*
X645112Y51288D01*
X645223Y50802D01*
X645322Y50312D01*
X645409Y49821D01*
X645484Y49327D01*
X645547Y48832D01*
X645597Y48336D01*
X645636Y47838D01*
X645663Y47340D01*
X645678Y46841D01*
X645681Y46341D01*
X645671Y45842D01*
X645649Y45344D01*
X645616Y44846D01*
X645570Y44349D01*
X645512Y43853D01*
X645443Y43359D01*
X645361Y42866D01*
X645267Y42376D01*
X645162Y41888D01*
X645044Y41403D01*
X644915Y40921D01*
X644775Y40442D01*
X644622Y39966D01*
X644459Y39495D01*
X644284Y39028D01*
X644097Y38564D01*
X643900Y38106D01*
X643691Y37653D01*
X643471Y37204D01*
X643241Y36762D01*
X643000Y36324D01*
X642749Y35893D01*
X642487Y35468D01*
X642214Y35050D01*
X641932Y34638D01*
X641640Y34234D01*
X641338Y33836D01*
X641027Y33446D01*
X640706Y33063D01*
X640376Y32689D01*
X640037Y32322D01*
X639690Y31964D01*
X639333Y31615D01*
X638969Y31274D01*
X638596Y30942D01*
X629307Y60539D02*
X629382Y60671D01*
X629461Y60801D01*
X629543Y60929D01*
X629629Y61054D01*
X629717Y61178D01*
X629809Y61299D01*
X629904Y61418D01*
X630002Y61534D01*
X630102Y61648D01*
X630206Y61759D01*
X630312Y61867D01*
X630422Y61973D01*
X630534Y62076D01*
X630648Y62176D01*
X630765Y62272D01*
X630884Y62366D01*
X631006Y62457D01*
X631130Y62545D01*
X631257Y62629D01*
X631385Y62711D01*
X631515Y62789D01*
X631648Y62863D01*
X631782Y62934D01*
X631918Y63002D01*
X632056Y63066D01*
X632195Y63127D01*
X632336Y63184D01*
X632478Y63237D01*
X632622Y63287D01*
X632766Y63333D01*
X632912Y63375D01*
X633059Y63414D01*
X633207Y63448D01*
X633356Y63479D01*
X633505Y63507D01*
X633656Y63530D01*
X633806Y63549D01*
X633957Y63565D01*
X634109Y63577D01*
X634261Y63585D01*
X634412Y63588D01*
X634564Y63589D01*
X634716Y63585D01*
X634868Y63577D01*
X635019Y63565D01*
X635171Y63550D01*
X635321Y63531D01*
X635471Y63507D01*
X635621Y63480D01*
X635770Y63450D01*
X635918Y63415D01*
X636065Y63376D01*
X636211Y63334D01*
X636355Y63288D01*
X636499Y63239D01*
X636641Y63185D01*
X636782Y63129D01*
X636922Y63068D01*
X637059Y63004D01*
X637195Y62937D01*
X637330Y62866D01*
X637462Y62791D01*
X637593Y62713D01*
X637721Y62632D01*
X637848Y62548D01*
X637972Y62460D01*
X638094Y62370D01*
X638213Y62276D01*
X638330Y62179D01*
X638445Y62079D01*
X638557Y61976D01*
X632460Y62484D02*
X638810Y32004D01*
X637540Y30734D02*
X631190Y61214D01*
X628859Y81584D02*
X628971Y81461D01*
X629085Y81340D01*
X629202Y81222D01*
X629323Y81108D01*
X629445Y80996D01*
X629571Y80887D01*
X629699Y80781D01*
X629830Y80679D01*
X629963Y80579D01*
X630099Y80483D01*
X630237Y80390D01*
X630377Y80301D01*
X630519Y80215D01*
X630663Y80133D01*
X630809Y80054D01*
X630957Y79978D01*
X631107Y79906D01*
X631259Y79838D01*
X631412Y79774D01*
X631567Y79713D01*
X631723Y79656D01*
X631881Y79603D01*
X632039Y79554D01*
X632199Y79509D01*
X632360Y79467D01*
X632522Y79430D01*
X632685Y79396D01*
X632848Y79367D01*
X633012Y79341D01*
X633177Y79320D01*
X633343Y79302D01*
X633508Y79289D01*
X633674Y79279D01*
X633840Y79273D01*
X634006Y79272D01*
X634172Y79275D01*
X634339Y79281D01*
X634504Y79292D01*
X634670Y79307D01*
X634835Y79325D01*
X635000Y79348D01*
X635164Y79375D01*
X635327Y79405D01*
X635490Y79440D01*
X635651Y79479D01*
X635812Y79521D01*
X635971Y79568D01*
X636130Y79618D01*
X636287Y79672D01*
X636443Y79730D01*
X636597Y79792D01*
X636750Y79857D01*
X636901Y79926D01*
X637050Y79999D01*
X637198Y80075D01*
X637344Y80155D01*
X637487Y80239D01*
X637629Y80326D01*
X637768Y80416D01*
X637906Y80510D01*
X638040Y80607D01*
X638173Y80707D01*
X638303Y80811D01*
X638430Y80917D01*
X638555Y81027D01*
X629198Y81120D02*
X628846Y81601D01*
X628507Y82090D01*
X628179Y82587D01*
X627864Y83092D01*
X627561Y83605D01*
X627270Y84125D01*
X626993Y84652D01*
X626728Y85186D01*
X626477Y85725D01*
X626239Y86271D01*
X626014Y86823D01*
X625802Y87380D01*
X625605Y87941D01*
X625421Y88508D01*
X625251Y89079D01*
X625095Y89653D01*
X624953Y90232D01*
X624825Y90813D01*
X624712Y91398D01*
X624612Y91985D01*
X624527Y92575D01*
X624457Y93166D01*
X624401Y93759D01*
X624359Y94353D01*
X624332Y94948D01*
X624320Y95544D01*
X624322Y96139D01*
X624339Y96734D01*
X624370Y97329D01*
X624415Y97923D01*
X624475Y98515D01*
X624550Y99106D01*
X624639Y99695D01*
X624742Y100282D01*
X624860Y100866D01*
X624992Y101446D01*
X625138Y102024D01*
X625298Y102597D01*
X625472Y103167D01*
X625659Y103732D01*
X625861Y104293D01*
X626076Y104848D01*
X626305Y105398D01*
X626547Y105942D01*
X626802Y106480D01*
X627070Y107012D01*
X627351Y107537D01*
X627645Y108055D01*
X627952Y108565D01*
X628271Y109068D01*
X628602Y109564D01*
X628945Y110050D01*
X629299Y110529D01*
X629666Y110998D01*
X638048Y112522D02*
X638432Y112203D01*
X638809Y111875D01*
X639177Y111538D01*
X639537Y111192D01*
X639888Y110838D01*
X640231Y110475D01*
X640565Y110104D01*
X640890Y109725D01*
X641205Y109338D01*
X641512Y108944D01*
X641808Y108542D01*
X642094Y108133D01*
X642371Y107718D01*
X642637Y107296D01*
X642894Y106867D01*
X643139Y106432D01*
X643374Y105992D01*
X643599Y105546D01*
X643812Y105095D01*
X644014Y104638D01*
X644206Y104177D01*
X644386Y103712D01*
X644554Y103242D01*
X644712Y102768D01*
X644857Y102291D01*
X644992Y101810D01*
X645114Y101326D01*
X645225Y100839D01*
X645323Y100350D01*
X645410Y99858D01*
X645485Y99365D01*
X645548Y98870D01*
X645599Y98373D01*
X645638Y97875D01*
X645665Y97377D01*
X645680Y96878D01*
X645683Y96379D01*
X645673Y95880D01*
X645652Y95381D01*
X645618Y94883D01*
X645572Y94386D01*
X645514Y93890D01*
X645445Y93396D01*
X645363Y92903D01*
X645269Y92413D01*
X645164Y91925D01*
X645047Y91440D01*
X644918Y90957D01*
X644777Y90478D01*
X644625Y90003D01*
X644461Y89532D01*
X644286Y89064D01*
X644100Y88601D01*
X643902Y88142D01*
X643693Y87689D01*
X643474Y87241D01*
X643244Y86798D01*
X643003Y86361D01*
X642751Y85929D01*
X642489Y85504D01*
X642217Y85086D01*
X641935Y84674D01*
X641643Y84269D01*
X641341Y83872D01*
X641029Y83482D01*
X640709Y83099D01*
X640379Y82725D01*
X640040Y82358D01*
X639692Y82000D01*
X639336Y81650D01*
X638971Y81309D01*
X638598Y80977D01*
X629307Y110577D02*
X629382Y110709D01*
X629461Y110839D01*
X629543Y110967D01*
X629629Y111092D01*
X629717Y111216D01*
X629809Y111337D01*
X629904Y111456D01*
X630002Y111572D01*
X630102Y111686D01*
X630206Y111797D01*
X630312Y111905D01*
X630422Y112011D01*
X630534Y112114D01*
X630648Y112214D01*
X630765Y112310D01*
X630884Y112404D01*
X631006Y112495D01*
X631130Y112583D01*
X631257Y112667D01*
X631385Y112749D01*
X631515Y112827D01*
X631648Y112901D01*
X631782Y112972D01*
X631918Y113040D01*
X632056Y113104D01*
X632195Y113165D01*
X632336Y113222D01*
X632478Y113275D01*
X632622Y113325D01*
X632766Y113371D01*
X632912Y113413D01*
X633059Y113452D01*
X633207Y113486D01*
X633356Y113517D01*
X633505Y113545D01*
X633656Y113568D01*
X633806Y113587D01*
X633957Y113603D01*
X634109Y113615D01*
X634261Y113623D01*
X634412Y113626D01*
X634564Y113627D01*
X634716Y113623D01*
X634868Y113615D01*
X635019Y113603D01*
X635171Y113588D01*
X635321Y113569D01*
X635471Y113545D01*
X635621Y113518D01*
X635770Y113488D01*
X635918Y113453D01*
X636065Y113414D01*
X636211Y113372D01*
X636355Y113326D01*
X636499Y113277D01*
X636641Y113223D01*
X636782Y113167D01*
X636922Y113106D01*
X637059Y113042D01*
X637195Y112975D01*
X637330Y112904D01*
X637462Y112829D01*
X637593Y112751D01*
X637721Y112670D01*
X637848Y112586D01*
X637972Y112498D01*
X638094Y112408D01*
X638213Y112314D01*
X638330Y112217D01*
X638445Y112117D01*
X638557Y112014D01*
X632460Y112522D02*
X638810Y82042D01*
X637540Y80772D02*
X631190Y111252D01*
X590550Y112776D02*
X590550Y116586D01*
X590550Y79756D02*
X590550Y75946D01*
X594360Y112776D02*
X594360Y121920D01*
X594360Y79756D02*
X594360Y62738D01*
X594360Y29718D02*
X594360Y20320D01*
X590550Y25908D02*
X590550Y29718D01*
X590550Y62738D02*
X590550Y66548D01*
D13*
X603885Y109093D02*
X601345Y112268D01*
X612775Y112268D01*
X612775Y109093D02*
X612775Y115443D01*
X604203Y64644D02*
X604099Y64642D01*
X603994Y64636D01*
X603890Y64627D01*
X603787Y64614D01*
X603684Y64596D01*
X603582Y64576D01*
X603480Y64551D01*
X603380Y64523D01*
X603280Y64491D01*
X603182Y64455D01*
X603085Y64416D01*
X602990Y64374D01*
X602896Y64328D01*
X602804Y64278D01*
X602714Y64226D01*
X602626Y64170D01*
X602540Y64110D01*
X602456Y64048D01*
X602375Y63983D01*
X602296Y63915D01*
X602219Y63843D01*
X602146Y63770D01*
X602074Y63693D01*
X602006Y63614D01*
X601941Y63533D01*
X601879Y63449D01*
X601819Y63363D01*
X601763Y63275D01*
X601711Y63185D01*
X601661Y63093D01*
X601615Y62999D01*
X601573Y62904D01*
X601534Y62807D01*
X601498Y62709D01*
X601466Y62609D01*
X601438Y62509D01*
X601413Y62407D01*
X601393Y62305D01*
X601375Y62202D01*
X601362Y62099D01*
X601353Y61995D01*
X601347Y61890D01*
X601345Y61786D01*
X601347Y61668D01*
X601353Y61549D01*
X601362Y61431D01*
X601375Y61314D01*
X601393Y61197D01*
X601413Y61080D01*
X601438Y60964D01*
X601466Y60849D01*
X601499Y60736D01*
X601534Y60623D01*
X601574Y60511D01*
X601616Y60401D01*
X601663Y60292D01*
X601713Y60184D01*
X601766Y60079D01*
X601823Y59975D01*
X601883Y59873D01*
X601946Y59773D01*
X602013Y59675D01*
X602082Y59579D01*
X602155Y59486D01*
X602231Y59395D01*
X602309Y59306D01*
X602391Y59220D01*
X602475Y59137D01*
X602561Y59056D01*
X602651Y58979D01*
X602742Y58904D01*
X602836Y58832D01*
X602933Y58763D01*
X603031Y58698D01*
X603132Y58635D01*
X603235Y58576D01*
X603339Y58520D01*
X603445Y58468D01*
X603553Y58419D01*
X603662Y58374D01*
X603773Y58332D01*
X603885Y58294D01*
X606425Y63691D02*
X606350Y63767D01*
X606271Y63842D01*
X606190Y63913D01*
X606106Y63982D01*
X606020Y64047D01*
X605932Y64109D01*
X605842Y64169D01*
X605750Y64225D01*
X605655Y64278D01*
X605559Y64327D01*
X605461Y64373D01*
X605362Y64416D01*
X605261Y64455D01*
X605159Y64490D01*
X605056Y64522D01*
X604952Y64550D01*
X604847Y64575D01*
X604740Y64596D01*
X604634Y64613D01*
X604527Y64626D01*
X604419Y64635D01*
X604311Y64641D01*
X604203Y64643D01*
X606425Y63691D02*
X612775Y58293D01*
X612775Y64643D01*
X505460Y36195D02*
X497840Y24765D01*
X505460Y24765D02*
X497840Y36195D01*
X509905Y24765D02*
X513080Y24765D01*
X513191Y24767D01*
X513301Y24773D01*
X513412Y24782D01*
X513522Y24796D01*
X513631Y24813D01*
X513740Y24834D01*
X513848Y24859D01*
X513955Y24888D01*
X514061Y24920D01*
X514166Y24956D01*
X514269Y24996D01*
X514371Y25039D01*
X514472Y25086D01*
X514571Y25137D01*
X514668Y25190D01*
X514762Y25247D01*
X514855Y25308D01*
X514946Y25371D01*
X515035Y25438D01*
X515121Y25508D01*
X515204Y25581D01*
X515286Y25656D01*
X515364Y25734D01*
X515439Y25816D01*
X515512Y25899D01*
X515582Y25985D01*
X515649Y26074D01*
X515712Y26165D01*
X515773Y26258D01*
X515830Y26352D01*
X515883Y26449D01*
X515934Y26548D01*
X515981Y26649D01*
X516024Y26751D01*
X516064Y26854D01*
X516100Y26959D01*
X516132Y27065D01*
X516161Y27172D01*
X516186Y27280D01*
X516207Y27389D01*
X516224Y27498D01*
X516238Y27608D01*
X516247Y27719D01*
X516253Y27829D01*
X516255Y27940D01*
X516253Y28051D01*
X516247Y28161D01*
X516238Y28272D01*
X516224Y28382D01*
X516207Y28491D01*
X516186Y28600D01*
X516161Y28708D01*
X516132Y28815D01*
X516100Y28921D01*
X516064Y29026D01*
X516024Y29129D01*
X515981Y29231D01*
X515934Y29332D01*
X515883Y29431D01*
X515830Y29527D01*
X515773Y29622D01*
X515712Y29715D01*
X515649Y29806D01*
X515582Y29895D01*
X515512Y29981D01*
X515439Y30064D01*
X515364Y30146D01*
X515286Y30224D01*
X515204Y30299D01*
X515121Y30372D01*
X515035Y30442D01*
X514946Y30509D01*
X514855Y30572D01*
X514762Y30633D01*
X514668Y30690D01*
X514571Y30743D01*
X514472Y30794D01*
X514371Y30841D01*
X514269Y30884D01*
X514166Y30924D01*
X514061Y30960D01*
X513955Y30992D01*
X513848Y31021D01*
X513740Y31046D01*
X513631Y31067D01*
X513522Y31084D01*
X513412Y31098D01*
X513301Y31107D01*
X513191Y31113D01*
X513080Y31115D01*
X513715Y36195D02*
X509905Y36195D01*
X513715Y36195D02*
X513815Y36193D01*
X513914Y36187D01*
X514014Y36177D01*
X514112Y36164D01*
X514211Y36146D01*
X514308Y36125D01*
X514404Y36100D01*
X514500Y36071D01*
X514594Y36038D01*
X514687Y36002D01*
X514778Y35962D01*
X514868Y35918D01*
X514956Y35871D01*
X515042Y35821D01*
X515126Y35767D01*
X515208Y35710D01*
X515287Y35650D01*
X515365Y35586D01*
X515439Y35520D01*
X515511Y35451D01*
X515580Y35379D01*
X515646Y35305D01*
X515710Y35227D01*
X515770Y35148D01*
X515827Y35066D01*
X515881Y34982D01*
X515931Y34896D01*
X515978Y34808D01*
X516022Y34718D01*
X516062Y34627D01*
X516098Y34534D01*
X516131Y34440D01*
X516160Y34344D01*
X516185Y34248D01*
X516206Y34151D01*
X516224Y34052D01*
X516237Y33954D01*
X516247Y33854D01*
X516253Y33755D01*
X516255Y33655D01*
X516253Y33555D01*
X516247Y33456D01*
X516237Y33356D01*
X516224Y33258D01*
X516206Y33159D01*
X516185Y33062D01*
X516160Y32966D01*
X516131Y32870D01*
X516098Y32776D01*
X516062Y32683D01*
X516022Y32592D01*
X515978Y32502D01*
X515931Y32414D01*
X515881Y32328D01*
X515827Y32244D01*
X515770Y32162D01*
X515710Y32083D01*
X515646Y32005D01*
X515580Y31931D01*
X515511Y31859D01*
X515439Y31790D01*
X515365Y31724D01*
X515287Y31660D01*
X515208Y31600D01*
X515126Y31543D01*
X515042Y31489D01*
X514956Y31439D01*
X514868Y31392D01*
X514778Y31348D01*
X514687Y31308D01*
X514594Y31272D01*
X514500Y31239D01*
X514404Y31210D01*
X514308Y31185D01*
X514211Y31164D01*
X514112Y31146D01*
X514014Y31133D01*
X513914Y31123D01*
X513815Y31117D01*
X513715Y31115D01*
X511175Y31115D01*
D14*
X525780Y241300D02*
X556260Y241300D01*
X525780Y241300D02*
X525780Y139700D01*
X525780Y241300D02*
X525780Y246380D01*
X574040Y246380D01*
X571500Y241300D01*
X640080Y241300D02*
X642620Y246380D01*
X640080Y241300D02*
X650240Y241300D01*
X628650Y241300D02*
X626110Y246380D01*
X628650Y241300D02*
X640080Y241300D01*
X642620Y246380D02*
X626110Y246380D01*
X631190Y195072D02*
X650240Y195072D01*
X631190Y235712D02*
X585470Y235712D01*
X650240Y235712D02*
X650240Y195072D01*
X650240Y235712D02*
X650240Y241300D01*
X650240Y185674D02*
X631190Y185674D01*
X650240Y185674D02*
X650240Y195072D01*
X631190Y145034D02*
X585470Y145034D01*
X650240Y145034D02*
X650240Y139700D01*
X650240Y145034D02*
X650240Y185674D01*
X631190Y195072D02*
X631190Y235712D01*
X631190Y195072D02*
X585470Y195072D01*
X631190Y235712D02*
X650240Y235712D01*
X631190Y185674D02*
X631190Y145034D01*
X631190Y185674D02*
X585470Y185674D01*
X631190Y145034D02*
X650240Y145034D01*
X624840Y231902D02*
X593090Y231902D01*
X624840Y231902D02*
X624840Y198882D01*
X593090Y198882D01*
X593090Y181864D02*
X624840Y181864D01*
X624840Y148844D01*
X593090Y148844D01*
X581660Y139700D02*
X650240Y139700D01*
X581660Y139700D02*
X556260Y139700D01*
X571500Y241300D02*
X581660Y241300D01*
X628650Y241300D01*
X556260Y241300D02*
X556260Y139700D01*
X525780Y139700D01*
X556260Y241300D02*
X571500Y241300D01*
X553720Y195072D02*
X528320Y195072D01*
X528320Y235712D01*
X553720Y235712D01*
X553720Y195072D01*
X553720Y185674D02*
X528320Y185674D01*
X553720Y185674D02*
X553720Y145034D01*
X528320Y145034D01*
X528320Y185674D01*
X537465Y230631D02*
X537590Y230741D01*
X537717Y230847D01*
X537847Y230951D01*
X537980Y231051D01*
X538114Y231148D01*
X538252Y231242D01*
X538391Y231332D01*
X538533Y231419D01*
X538676Y231503D01*
X538822Y231583D01*
X538970Y231659D01*
X539119Y231732D01*
X539270Y231801D01*
X539423Y231866D01*
X539577Y231928D01*
X539733Y231986D01*
X539890Y232040D01*
X540049Y232090D01*
X540208Y232137D01*
X540369Y232179D01*
X540530Y232218D01*
X540693Y232253D01*
X540856Y232283D01*
X541020Y232310D01*
X541185Y232333D01*
X541350Y232351D01*
X541516Y232366D01*
X541681Y232377D01*
X541848Y232383D01*
X542014Y232386D01*
X542180Y232385D01*
X542346Y232379D01*
X542512Y232369D01*
X542677Y232356D01*
X542843Y232338D01*
X543008Y232317D01*
X543172Y232291D01*
X543335Y232262D01*
X543498Y232228D01*
X543660Y232191D01*
X543821Y232149D01*
X543981Y232104D01*
X544139Y232055D01*
X544297Y232002D01*
X544453Y231945D01*
X544608Y231884D01*
X544761Y231820D01*
X544913Y231752D01*
X545063Y231680D01*
X545211Y231604D01*
X545357Y231525D01*
X545501Y231443D01*
X545643Y231357D01*
X545783Y231268D01*
X545921Y231175D01*
X546057Y231079D01*
X546190Y230979D01*
X546321Y230877D01*
X546449Y230771D01*
X546575Y230662D01*
X546697Y230550D01*
X546818Y230436D01*
X546935Y230318D01*
X547049Y230197D01*
X547161Y230074D01*
X546821Y230538D02*
X547172Y230057D01*
X547512Y229568D01*
X547840Y229070D01*
X548155Y228565D01*
X548458Y228052D01*
X548748Y227532D01*
X549026Y227005D01*
X549290Y226472D01*
X549542Y225932D01*
X549780Y225386D01*
X550005Y224835D01*
X550216Y224278D01*
X550414Y223716D01*
X550598Y223150D01*
X550768Y222579D01*
X550924Y222004D01*
X551066Y221426D01*
X551194Y220844D01*
X551307Y220260D01*
X551407Y219672D01*
X551491Y219083D01*
X551562Y218492D01*
X551618Y217899D01*
X551660Y217305D01*
X551687Y216710D01*
X551699Y216114D01*
X551697Y215519D01*
X551680Y214923D01*
X551649Y214329D01*
X551604Y213735D01*
X551544Y213142D01*
X551469Y212552D01*
X551380Y211963D01*
X551277Y211376D01*
X551159Y210792D01*
X551028Y210212D01*
X550882Y209634D01*
X550722Y209061D01*
X550548Y208491D01*
X550360Y207926D01*
X550158Y207365D01*
X549943Y206810D01*
X549715Y206260D01*
X549473Y205716D01*
X549217Y205178D01*
X548949Y204646D01*
X548668Y204121D01*
X548374Y203603D01*
X548068Y203093D01*
X547749Y202590D01*
X547418Y202094D01*
X547075Y201608D01*
X546720Y201129D01*
X546354Y200660D01*
X537972Y199136D02*
X537588Y199455D01*
X537212Y199783D01*
X536844Y200120D01*
X536484Y200466D01*
X536132Y200820D01*
X535789Y201183D01*
X535456Y201554D01*
X535131Y201933D01*
X534815Y202320D01*
X534509Y202715D01*
X534213Y203116D01*
X533926Y203525D01*
X533650Y203940D01*
X533384Y204363D01*
X533128Y204791D01*
X532882Y205226D01*
X532647Y205666D01*
X532423Y206112D01*
X532209Y206563D01*
X532007Y207019D01*
X531816Y207480D01*
X531636Y207946D01*
X531467Y208416D01*
X531310Y208890D01*
X531164Y209367D01*
X531030Y209848D01*
X530908Y210332D01*
X530797Y210818D01*
X530698Y211308D01*
X530611Y211799D01*
X530536Y212293D01*
X530473Y212788D01*
X530423Y213284D01*
X530384Y213782D01*
X530357Y214280D01*
X530342Y214779D01*
X530339Y215279D01*
X530349Y215778D01*
X530371Y216276D01*
X530404Y216774D01*
X530450Y217271D01*
X530508Y217767D01*
X530577Y218261D01*
X530659Y218754D01*
X530753Y219244D01*
X530858Y219732D01*
X530976Y220217D01*
X531105Y220699D01*
X531245Y221178D01*
X531398Y221654D01*
X531561Y222125D01*
X531736Y222592D01*
X531923Y223056D01*
X532120Y223514D01*
X532329Y223967D01*
X532549Y224416D01*
X532779Y224858D01*
X533020Y225296D01*
X533271Y225727D01*
X533533Y226152D01*
X533806Y226570D01*
X534088Y226982D01*
X534380Y227386D01*
X534682Y227784D01*
X534993Y228174D01*
X535314Y228557D01*
X535644Y228931D01*
X535983Y229298D01*
X536330Y229656D01*
X536687Y230005D01*
X537051Y230346D01*
X537424Y230678D01*
X546713Y201081D02*
X546638Y200949D01*
X546559Y200819D01*
X546477Y200691D01*
X546391Y200566D01*
X546303Y200442D01*
X546211Y200321D01*
X546116Y200202D01*
X546018Y200086D01*
X545918Y199972D01*
X545814Y199861D01*
X545708Y199753D01*
X545598Y199647D01*
X545486Y199544D01*
X545372Y199444D01*
X545255Y199348D01*
X545136Y199254D01*
X545014Y199163D01*
X544890Y199075D01*
X544763Y198991D01*
X544635Y198909D01*
X544505Y198831D01*
X544372Y198757D01*
X544238Y198686D01*
X544102Y198618D01*
X543964Y198554D01*
X543825Y198493D01*
X543684Y198436D01*
X543542Y198383D01*
X543398Y198333D01*
X543254Y198287D01*
X543108Y198245D01*
X542961Y198206D01*
X542813Y198172D01*
X542664Y198141D01*
X542515Y198113D01*
X542364Y198090D01*
X542214Y198071D01*
X542063Y198055D01*
X541911Y198043D01*
X541759Y198035D01*
X541608Y198032D01*
X541456Y198031D01*
X541304Y198035D01*
X541152Y198043D01*
X541001Y198055D01*
X540849Y198070D01*
X540699Y198089D01*
X540549Y198113D01*
X540399Y198140D01*
X540250Y198170D01*
X540102Y198205D01*
X539955Y198244D01*
X539809Y198286D01*
X539665Y198332D01*
X539521Y198381D01*
X539379Y198435D01*
X539238Y198491D01*
X539098Y198552D01*
X538961Y198616D01*
X538825Y198683D01*
X538690Y198754D01*
X538558Y198829D01*
X538427Y198907D01*
X538299Y198988D01*
X538172Y199072D01*
X538048Y199160D01*
X537926Y199250D01*
X537807Y199344D01*
X537690Y199441D01*
X537575Y199541D01*
X537463Y199644D01*
X543560Y199136D02*
X537210Y229616D01*
X538480Y230886D02*
X544830Y200406D01*
X547161Y180036D02*
X547049Y180159D01*
X546935Y180280D01*
X546818Y180398D01*
X546697Y180512D01*
X546575Y180624D01*
X546449Y180733D01*
X546321Y180839D01*
X546190Y180941D01*
X546057Y181041D01*
X545921Y181137D01*
X545783Y181230D01*
X545643Y181319D01*
X545501Y181405D01*
X545357Y181487D01*
X545211Y181566D01*
X545063Y181642D01*
X544913Y181714D01*
X544761Y181782D01*
X544608Y181846D01*
X544453Y181907D01*
X544297Y181964D01*
X544139Y182017D01*
X543981Y182066D01*
X543821Y182111D01*
X543660Y182153D01*
X543498Y182190D01*
X543335Y182224D01*
X543172Y182253D01*
X543008Y182279D01*
X542843Y182300D01*
X542677Y182318D01*
X542512Y182331D01*
X542346Y182341D01*
X542180Y182347D01*
X542014Y182348D01*
X541848Y182345D01*
X541681Y182339D01*
X541516Y182328D01*
X541350Y182313D01*
X541185Y182295D01*
X541020Y182272D01*
X540856Y182245D01*
X540693Y182215D01*
X540530Y182180D01*
X540369Y182141D01*
X540208Y182099D01*
X540049Y182052D01*
X539890Y182002D01*
X539733Y181948D01*
X539577Y181890D01*
X539423Y181828D01*
X539270Y181763D01*
X539119Y181694D01*
X538970Y181621D01*
X538822Y181545D01*
X538676Y181465D01*
X538533Y181381D01*
X538391Y181294D01*
X538252Y181204D01*
X538114Y181110D01*
X537980Y181013D01*
X537847Y180913D01*
X537717Y180809D01*
X537590Y180703D01*
X537465Y180593D01*
X546822Y180500D02*
X547174Y180019D01*
X547513Y179530D01*
X547841Y179033D01*
X548156Y178528D01*
X548459Y178015D01*
X548750Y177495D01*
X549027Y176968D01*
X549292Y176434D01*
X549543Y175895D01*
X549781Y175349D01*
X550006Y174797D01*
X550218Y174240D01*
X550415Y173679D01*
X550599Y173112D01*
X550769Y172541D01*
X550925Y171967D01*
X551067Y171388D01*
X551195Y170807D01*
X551308Y170222D01*
X551408Y169635D01*
X551493Y169045D01*
X551563Y168454D01*
X551619Y167861D01*
X551661Y167267D01*
X551688Y166672D01*
X551700Y166076D01*
X551698Y165481D01*
X551681Y164886D01*
X551650Y164291D01*
X551605Y163697D01*
X551545Y163105D01*
X551470Y162514D01*
X551381Y161925D01*
X551278Y161338D01*
X551160Y160754D01*
X551028Y160174D01*
X550882Y159596D01*
X550722Y159023D01*
X550548Y158453D01*
X550361Y157888D01*
X550159Y157327D01*
X549944Y156772D01*
X549715Y156222D01*
X549473Y155678D01*
X549218Y155140D01*
X548950Y154608D01*
X548669Y154083D01*
X548375Y153565D01*
X548068Y153055D01*
X547749Y152552D01*
X547418Y152056D01*
X547075Y151570D01*
X546721Y151091D01*
X546354Y150622D01*
X537972Y149098D02*
X537588Y149417D01*
X537211Y149745D01*
X536843Y150082D01*
X536483Y150428D01*
X536132Y150782D01*
X535789Y151145D01*
X535455Y151516D01*
X535130Y151895D01*
X534815Y152282D01*
X534508Y152676D01*
X534212Y153078D01*
X533926Y153487D01*
X533649Y153902D01*
X533383Y154324D01*
X533126Y154753D01*
X532881Y155188D01*
X532646Y155628D01*
X532421Y156074D01*
X532208Y156525D01*
X532006Y156982D01*
X531814Y157443D01*
X531634Y157908D01*
X531466Y158378D01*
X531308Y158852D01*
X531163Y159329D01*
X531028Y159810D01*
X530906Y160294D01*
X530795Y160781D01*
X530697Y161270D01*
X530610Y161762D01*
X530535Y162255D01*
X530472Y162750D01*
X530421Y163247D01*
X530382Y163745D01*
X530355Y164243D01*
X530340Y164742D01*
X530337Y165241D01*
X530347Y165740D01*
X530368Y166239D01*
X530402Y166737D01*
X530448Y167234D01*
X530506Y167730D01*
X530575Y168224D01*
X530657Y168717D01*
X530751Y169207D01*
X530856Y169695D01*
X530973Y170180D01*
X531102Y170663D01*
X531243Y171142D01*
X531395Y171617D01*
X531559Y172088D01*
X531734Y172556D01*
X531920Y173019D01*
X532118Y173478D01*
X532327Y173931D01*
X532546Y174379D01*
X532776Y174822D01*
X533017Y175259D01*
X533269Y175691D01*
X533531Y176116D01*
X533803Y176534D01*
X534085Y176946D01*
X534377Y177351D01*
X534679Y177748D01*
X534991Y178138D01*
X535311Y178521D01*
X535641Y178895D01*
X535980Y179262D01*
X536328Y179620D01*
X536684Y179970D01*
X537049Y180311D01*
X537422Y180643D01*
X546713Y151043D02*
X546638Y150911D01*
X546559Y150781D01*
X546477Y150653D01*
X546391Y150528D01*
X546303Y150404D01*
X546211Y150283D01*
X546116Y150164D01*
X546018Y150048D01*
X545918Y149934D01*
X545814Y149823D01*
X545708Y149715D01*
X545598Y149609D01*
X545486Y149506D01*
X545372Y149406D01*
X545255Y149310D01*
X545136Y149216D01*
X545014Y149125D01*
X544890Y149037D01*
X544763Y148953D01*
X544635Y148871D01*
X544505Y148793D01*
X544372Y148719D01*
X544238Y148648D01*
X544102Y148580D01*
X543964Y148516D01*
X543825Y148455D01*
X543684Y148398D01*
X543542Y148345D01*
X543398Y148295D01*
X543254Y148249D01*
X543108Y148207D01*
X542961Y148168D01*
X542813Y148134D01*
X542664Y148103D01*
X542515Y148075D01*
X542364Y148052D01*
X542214Y148033D01*
X542063Y148017D01*
X541911Y148005D01*
X541759Y147997D01*
X541608Y147994D01*
X541456Y147993D01*
X541304Y147997D01*
X541152Y148005D01*
X541001Y148017D01*
X540849Y148032D01*
X540699Y148051D01*
X540549Y148075D01*
X540399Y148102D01*
X540250Y148132D01*
X540102Y148167D01*
X539955Y148206D01*
X539809Y148248D01*
X539665Y148294D01*
X539521Y148343D01*
X539379Y148397D01*
X539238Y148453D01*
X539098Y148514D01*
X538961Y148578D01*
X538825Y148645D01*
X538690Y148716D01*
X538558Y148791D01*
X538427Y148869D01*
X538299Y148950D01*
X538172Y149034D01*
X538048Y149122D01*
X537926Y149212D01*
X537807Y149306D01*
X537690Y149403D01*
X537575Y149503D01*
X537463Y149606D01*
X543560Y149098D02*
X537210Y179578D01*
X538480Y180848D02*
X544830Y150368D01*
X585470Y148844D02*
X585470Y145034D01*
X585470Y181864D02*
X585470Y185674D01*
X581660Y148844D02*
X581660Y139700D01*
X581660Y181864D02*
X581660Y198882D01*
X581660Y231902D02*
X581660Y241300D01*
X585470Y235712D02*
X585470Y231902D01*
X585470Y198882D02*
X585470Y195072D01*
D13*
X563245Y149352D02*
X565785Y146177D01*
X563245Y149352D02*
X574675Y149352D01*
X574675Y146177D02*
X574675Y152527D01*
X563245Y200470D02*
X563247Y200574D01*
X563253Y200679D01*
X563262Y200783D01*
X563275Y200886D01*
X563293Y200989D01*
X563313Y201091D01*
X563338Y201193D01*
X563366Y201293D01*
X563398Y201393D01*
X563434Y201491D01*
X563473Y201588D01*
X563515Y201683D01*
X563561Y201777D01*
X563611Y201869D01*
X563663Y201959D01*
X563719Y202047D01*
X563779Y202133D01*
X563841Y202217D01*
X563906Y202298D01*
X563974Y202377D01*
X564046Y202454D01*
X564119Y202527D01*
X564196Y202599D01*
X564275Y202667D01*
X564356Y202732D01*
X564440Y202794D01*
X564526Y202854D01*
X564614Y202910D01*
X564704Y202962D01*
X564796Y203012D01*
X564890Y203058D01*
X564985Y203100D01*
X565082Y203139D01*
X565180Y203175D01*
X565280Y203207D01*
X565380Y203235D01*
X565482Y203260D01*
X565584Y203280D01*
X565687Y203298D01*
X565790Y203311D01*
X565894Y203320D01*
X565999Y203326D01*
X566103Y203328D01*
X563245Y200470D02*
X563247Y200352D01*
X563253Y200233D01*
X563262Y200115D01*
X563275Y199998D01*
X563293Y199881D01*
X563313Y199764D01*
X563338Y199648D01*
X563366Y199533D01*
X563399Y199420D01*
X563434Y199307D01*
X563474Y199195D01*
X563516Y199085D01*
X563563Y198976D01*
X563613Y198868D01*
X563666Y198763D01*
X563723Y198659D01*
X563783Y198557D01*
X563846Y198457D01*
X563913Y198359D01*
X563982Y198263D01*
X564055Y198170D01*
X564131Y198079D01*
X564209Y197990D01*
X564291Y197904D01*
X564375Y197821D01*
X564461Y197740D01*
X564551Y197663D01*
X564642Y197588D01*
X564736Y197516D01*
X564833Y197447D01*
X564931Y197382D01*
X565032Y197319D01*
X565135Y197260D01*
X565239Y197204D01*
X565345Y197152D01*
X565453Y197103D01*
X565562Y197058D01*
X565673Y197016D01*
X565785Y196978D01*
X568325Y202375D02*
X568250Y202451D01*
X568171Y202526D01*
X568090Y202597D01*
X568006Y202666D01*
X567920Y202731D01*
X567832Y202793D01*
X567742Y202853D01*
X567650Y202909D01*
X567555Y202962D01*
X567459Y203011D01*
X567361Y203057D01*
X567262Y203100D01*
X567161Y203139D01*
X567059Y203174D01*
X566956Y203206D01*
X566852Y203234D01*
X566747Y203259D01*
X566640Y203280D01*
X566534Y203297D01*
X566427Y203310D01*
X566319Y203319D01*
X566211Y203325D01*
X566103Y203327D01*
X568325Y202375D02*
X574675Y196977D01*
X574675Y203327D01*
X629285Y255905D02*
X636905Y267335D01*
X629285Y267335D02*
X636905Y255905D01*
X641350Y258445D02*
X643890Y267335D01*
X641350Y258445D02*
X647700Y258445D01*
X645795Y260985D02*
X645795Y255905D01*
D10*
X123811Y107188D02*
X121214Y107188D01*
X121115Y107190D01*
X121015Y107196D01*
X120916Y107205D01*
X120818Y107218D01*
X120720Y107235D01*
X120622Y107256D01*
X120526Y107281D01*
X120431Y107309D01*
X120337Y107341D01*
X120244Y107376D01*
X120152Y107415D01*
X120062Y107458D01*
X119974Y107503D01*
X119887Y107553D01*
X119803Y107605D01*
X119720Y107661D01*
X119640Y107719D01*
X119562Y107781D01*
X119487Y107846D01*
X119414Y107914D01*
X119344Y107984D01*
X119276Y108057D01*
X119211Y108132D01*
X119149Y108210D01*
X119091Y108290D01*
X119035Y108373D01*
X118983Y108457D01*
X118933Y108544D01*
X118888Y108632D01*
X118845Y108722D01*
X118806Y108814D01*
X118771Y108907D01*
X118739Y109001D01*
X118711Y109096D01*
X118686Y109192D01*
X118665Y109290D01*
X118648Y109388D01*
X118635Y109486D01*
X118626Y109585D01*
X118620Y109685D01*
X118618Y109784D01*
X118618Y116276D01*
X118620Y116375D01*
X118626Y116475D01*
X118635Y116574D01*
X118648Y116672D01*
X118665Y116770D01*
X118686Y116868D01*
X118711Y116964D01*
X118739Y117059D01*
X118771Y117153D01*
X118806Y117246D01*
X118845Y117338D01*
X118888Y117428D01*
X118933Y117516D01*
X118983Y117603D01*
X119035Y117687D01*
X119091Y117770D01*
X119149Y117850D01*
X119211Y117928D01*
X119276Y118003D01*
X119344Y118076D01*
X119414Y118146D01*
X119487Y118214D01*
X119562Y118279D01*
X119640Y118341D01*
X119720Y118399D01*
X119803Y118455D01*
X119887Y118507D01*
X119974Y118557D01*
X120062Y118602D01*
X120152Y118645D01*
X120244Y118684D01*
X120336Y118719D01*
X120431Y118751D01*
X120526Y118779D01*
X120622Y118804D01*
X120720Y118825D01*
X120818Y118842D01*
X120916Y118855D01*
X121015Y118864D01*
X121115Y118870D01*
X121214Y118872D01*
X123811Y118872D01*
X130773Y118872D02*
X128176Y109784D01*
X134667Y109784D01*
X132720Y112381D02*
X132720Y107188D01*
M02*
