G04 EAGLE Gerber RS-274X export*
G75*
%MOMM*%
%FSLAX34Y34*%
%LPD*%
%INSoldermask Top*%
%IPPOS*%
%AMOC8*
5,1,8,0,0,1.08239X$1,22.5*%
G01*
%ADD10C,3.203200*%
%ADD11R,1.503200X1.703200*%
%ADD12R,1.703200X1.503200*%
%ADD13R,1.103200X2.203200*%
%ADD14R,1.503200X2.203200*%
%ADD15C,0.349006*%
%ADD16C,2.184400*%
%ADD17R,1.981200X4.394200*%
%ADD18R,2.870200X4.394200*%
%ADD19C,1.703200*%
%ADD20C,1.109600*%


D10*
X200000Y40000D03*
X40000Y90000D03*
X400000Y240000D03*
X460000Y40000D03*
D11*
X354990Y72390D03*
X373990Y72390D03*
D12*
X487680Y235560D03*
X487680Y216560D03*
D11*
X488340Y165100D03*
X507340Y165100D03*
D12*
X506730Y76860D03*
X506730Y95860D03*
D11*
X140360Y223520D03*
X159360Y223520D03*
D12*
X410210Y142900D03*
X410210Y161900D03*
X191770Y95860D03*
X191770Y76860D03*
X227330Y160680D03*
X227330Y179680D03*
X222250Y95860D03*
X222250Y76860D03*
X275590Y130200D03*
X275590Y149200D03*
X445770Y235560D03*
X445770Y216560D03*
X476250Y76860D03*
X476250Y95860D03*
D13*
X396210Y74520D03*
D14*
X410210Y118520D03*
D13*
X424210Y74520D03*
D11*
X267310Y207010D03*
X248310Y207010D03*
D12*
X445770Y170840D03*
X445770Y189840D03*
D11*
X469290Y190500D03*
X488290Y190500D03*
D12*
X160020Y178460D03*
X160020Y197460D03*
D11*
X203810Y179070D03*
X184810Y179070D03*
D12*
X161290Y95860D03*
X161290Y76860D03*
X100330Y76860D03*
X100330Y95860D03*
X382270Y142900D03*
X382270Y161900D03*
X250190Y76860D03*
X250190Y95860D03*
X251460Y142900D03*
X251460Y161900D03*
X320040Y95910D03*
X320040Y114910D03*
D15*
X310611Y213679D02*
X292569Y213679D01*
X292569Y218121D01*
X310611Y218121D01*
X310611Y213679D01*
X310611Y216994D02*
X292569Y216994D01*
X292569Y200979D02*
X310611Y200979D01*
X292569Y200979D02*
X292569Y205421D01*
X310611Y205421D01*
X310611Y200979D01*
X310611Y204294D02*
X292569Y204294D01*
X292569Y188279D02*
X310611Y188279D01*
X292569Y188279D02*
X292569Y192721D01*
X310611Y192721D01*
X310611Y188279D01*
X310611Y191594D02*
X292569Y191594D01*
X292569Y175579D02*
X310611Y175579D01*
X292569Y175579D02*
X292569Y180021D01*
X310611Y180021D01*
X310611Y175579D01*
X310611Y178894D02*
X292569Y178894D01*
X292569Y162879D02*
X310611Y162879D01*
X292569Y162879D02*
X292569Y167321D01*
X310611Y167321D01*
X310611Y162879D01*
X310611Y166194D02*
X292569Y166194D01*
X292569Y150179D02*
X310611Y150179D01*
X292569Y150179D02*
X292569Y154621D01*
X310611Y154621D01*
X310611Y150179D01*
X310611Y153494D02*
X292569Y153494D01*
X292569Y137479D02*
X310611Y137479D01*
X292569Y137479D02*
X292569Y141921D01*
X310611Y141921D01*
X310611Y137479D01*
X310611Y140794D02*
X292569Y140794D01*
X342169Y137479D02*
X360211Y137479D01*
X342169Y137479D02*
X342169Y141921D01*
X360211Y141921D01*
X360211Y137479D01*
X360211Y140794D02*
X342169Y140794D01*
X342169Y150179D02*
X360211Y150179D01*
X342169Y150179D02*
X342169Y154621D01*
X360211Y154621D01*
X360211Y150179D01*
X360211Y153494D02*
X342169Y153494D01*
X342169Y162879D02*
X360211Y162879D01*
X342169Y162879D02*
X342169Y167321D01*
X360211Y167321D01*
X360211Y162879D01*
X360211Y166194D02*
X342169Y166194D01*
X342169Y175579D02*
X360211Y175579D01*
X342169Y175579D02*
X342169Y180021D01*
X360211Y180021D01*
X360211Y175579D01*
X360211Y178894D02*
X342169Y178894D01*
X342169Y188279D02*
X360211Y188279D01*
X342169Y188279D02*
X342169Y192721D01*
X360211Y192721D01*
X360211Y188279D01*
X360211Y191594D02*
X342169Y191594D01*
X342169Y200979D02*
X360211Y200979D01*
X342169Y200979D02*
X342169Y205421D01*
X360211Y205421D01*
X360211Y200979D01*
X360211Y204294D02*
X342169Y204294D01*
X342169Y213679D02*
X360211Y213679D01*
X342169Y213679D02*
X342169Y218121D01*
X360211Y218121D01*
X360211Y213679D01*
X360211Y216994D02*
X342169Y216994D01*
D16*
X72136Y223266D02*
X52324Y223266D01*
X52324Y173228D02*
X72136Y173228D01*
D17*
X354330Y31314D03*
D18*
X319384Y31314D03*
X389276Y31314D03*
D16*
X578104Y96266D02*
X597916Y96266D01*
X597916Y46228D02*
X578104Y46228D01*
X578104Y165354D02*
X597916Y165354D01*
X597916Y215392D02*
X578104Y215392D01*
D12*
X130810Y76860D03*
X130810Y95860D03*
D19*
X205740Y132080D03*
X294640Y119380D03*
D20*
X356870Y96520D03*
X299720Y96520D03*
M02*
