M48
;GenerationSoftware,Autodesk,EAGLE,9.4.2*%
;CreationDate,2020-04-10T17:08:10Z*%
FMAT,2
ICI,OFF
METRIC,TZ,000.000
T5C0.500
T4C0.800
T3C1.000
T2C1.016
T1C3.000
%
G90
M71
T1
X3984Y20000
X33000Y45476
T2
X7366Y46228
X9906Y46228
X24130Y3302
X19050Y3302
X51816Y50292
X51816Y47752
X51816Y45212
X45974Y3302
X43434Y3302
X20066Y19812
X20828Y46228
X21590Y3302
X18288Y46228
X4826Y46228
X2286Y46228
X51816Y22352
X51816Y24892
X51816Y27432
X51816Y29972
X51816Y32512
X51816Y35052
X51816Y37592
X51816Y40132
X51816Y42672
X20066Y35052
X20066Y32512
X20066Y29972
X20066Y27432
X20066Y24892
X20066Y22352
X51816Y7112
X51816Y9652
X51816Y12192
X51816Y14732
X51816Y17272
X51816Y19812
X30226Y3302
X32766Y3302
X35306Y3302
X37846Y3302
T3
X25400Y27432
X8842Y7112
X25400Y47752
X25400Y45212
X25400Y42672
X25400Y40132
X25400Y37592
X25400Y35052
X25400Y32512
X25400Y29972
X25400Y24892
X25400Y22352
X25400Y19812
X25400Y17272
X25400Y14732
X25400Y12192
X40640Y12192
X40640Y14732
X40640Y19812
X40640Y27432
X40640Y22352
X40640Y24892
X40640Y29972
X40640Y32512
X40640Y35052
X40640Y37592
X40640Y40132
X40640Y42672
X40640Y45212
X40640Y47752
T4
X2842Y7112
X5842Y2312
T5
X30734Y7620
X21590Y7620
X2286Y29972
X12446Y29972
X9906Y39624
X28448Y17272
X40640Y17272
X20066Y39624
X12446Y27432
X4826Y27432
M30