M48
;GenerationSoftware,Autodesk,EAGLE,9.4.2*%
;CreationDate,2020-03-10T23:20:47Z*%
FMAT,2
ICI,OFF
METRIC,TZ,000.000
T5C0.500
T4C0.813
T3C1.016
T2C1.321
T1C3.000
%
G90
M71
T1
X66000Y26000
X30000Y10000
X4000Y4000
T2
X6350Y17297
X6350Y22301
X63627Y2819
X63627Y7823
X63627Y15011
X63627Y20015
T3
X2286Y10922
T4
X53848Y5334
X53848Y2794
X55118Y14986
X52578Y14986
X41402Y22606
X41402Y20066
X49022Y20066
X49022Y22606
X41402Y17526
X41402Y14986
X49022Y17526
X49022Y14986
T5
X17018Y22860
X17018Y27432
X21844Y13462
X26924Y13462
X47498Y6858
X42672Y6858
M30