G04 EAGLE Gerber RS-274X export*
G75*
%MOMM*%
%FSLAX34Y34*%
%LPD*%
%INBottom Copper*%
%IPPOS*%
%AMOC8*
5,1,8,0,0,1.08239X$1,22.5*%
G01*
%ADD10C,1.676400*%
%ADD11C,1.320800*%
%ADD12P,2.749271X8X202.500000*%
%ADD13P,2.749271X8X22.500000*%
%ADD14R,4.191000X2.667000*%
%ADD15C,1.981200*%
%ADD16C,1.500000*%

G36*
X634569Y5092D02*
X634569Y5092D01*
X634620Y5094D01*
X634652Y5112D01*
X634688Y5120D01*
X634727Y5153D01*
X634772Y5177D01*
X634793Y5207D01*
X634821Y5230D01*
X634842Y5277D01*
X634872Y5319D01*
X634880Y5361D01*
X634892Y5389D01*
X634891Y5419D01*
X634899Y5461D01*
X634899Y350118D01*
X634888Y350168D01*
X634886Y350219D01*
X634868Y350251D01*
X634860Y350287D01*
X634827Y350326D01*
X634803Y350371D01*
X634773Y350392D01*
X634750Y350420D01*
X634703Y350441D01*
X634661Y350471D01*
X634619Y350479D01*
X634591Y350491D01*
X634561Y350490D01*
X634519Y350498D01*
X619687Y350498D01*
X619687Y365993D01*
X619676Y366043D01*
X619674Y366094D01*
X619656Y366126D01*
X619648Y366162D01*
X619615Y366201D01*
X619591Y366246D01*
X619561Y366267D01*
X619537Y366295D01*
X619491Y366316D01*
X619449Y366346D01*
X619407Y366354D01*
X619379Y366366D01*
X619349Y366365D01*
X619307Y366373D01*
X618925Y366373D01*
X618925Y366375D01*
X619307Y366375D01*
X619357Y366386D01*
X619408Y366388D01*
X619440Y366406D01*
X619476Y366414D01*
X619515Y366447D01*
X619560Y366471D01*
X619581Y366501D01*
X619609Y366525D01*
X619630Y366571D01*
X619660Y366613D01*
X619668Y366655D01*
X619680Y366683D01*
X619679Y366713D01*
X619687Y366755D01*
X619687Y382250D01*
X634519Y382250D01*
X634569Y382261D01*
X634620Y382263D01*
X634652Y382281D01*
X634688Y382289D01*
X634727Y382322D01*
X634772Y382346D01*
X634793Y382376D01*
X634821Y382399D01*
X634842Y382446D01*
X634872Y382488D01*
X634880Y382530D01*
X634892Y382558D01*
X634891Y382588D01*
X634899Y382630D01*
X634899Y420010D01*
X634888Y420060D01*
X634886Y420111D01*
X634868Y420143D01*
X634860Y420179D01*
X634827Y420218D01*
X634803Y420263D01*
X634773Y420284D01*
X634750Y420312D01*
X634703Y420333D01*
X634661Y420363D01*
X634619Y420371D01*
X634591Y420383D01*
X634561Y420382D01*
X634519Y420390D01*
X619687Y420390D01*
X619687Y435885D01*
X619676Y435935D01*
X619674Y435986D01*
X619656Y436018D01*
X619648Y436054D01*
X619615Y436093D01*
X619591Y436138D01*
X619561Y436159D01*
X619537Y436187D01*
X619491Y436208D01*
X619449Y436238D01*
X619407Y436246D01*
X619379Y436258D01*
X619349Y436257D01*
X619307Y436265D01*
X618925Y436265D01*
X618925Y436267D01*
X619307Y436267D01*
X619357Y436278D01*
X619408Y436280D01*
X619440Y436298D01*
X619476Y436306D01*
X619515Y436339D01*
X619560Y436363D01*
X619581Y436393D01*
X619609Y436417D01*
X619630Y436463D01*
X619660Y436505D01*
X619668Y436547D01*
X619680Y436575D01*
X619680Y436591D01*
X619680Y436592D01*
X619680Y436608D01*
X619687Y436647D01*
X619687Y452142D01*
X634519Y452142D01*
X634569Y452153D01*
X634620Y452155D01*
X634652Y452173D01*
X634688Y452181D01*
X634727Y452214D01*
X634772Y452238D01*
X634793Y452268D01*
X634821Y452291D01*
X634842Y452338D01*
X634872Y452380D01*
X634880Y452422D01*
X634892Y452450D01*
X634891Y452480D01*
X634899Y452522D01*
X634899Y744539D01*
X634888Y744589D01*
X634886Y744640D01*
X634868Y744672D01*
X634860Y744708D01*
X634827Y744747D01*
X634803Y744792D01*
X634773Y744813D01*
X634750Y744841D01*
X634703Y744862D01*
X634661Y744892D01*
X634619Y744900D01*
X634591Y744912D01*
X634561Y744911D01*
X634519Y744919D01*
X5461Y744919D01*
X5411Y744908D01*
X5360Y744906D01*
X5328Y744888D01*
X5292Y744880D01*
X5253Y744847D01*
X5208Y744823D01*
X5187Y744793D01*
X5159Y744770D01*
X5138Y744723D01*
X5108Y744681D01*
X5100Y744639D01*
X5088Y744611D01*
X5089Y744581D01*
X5081Y744539D01*
X5081Y452522D01*
X5092Y452472D01*
X5094Y452421D01*
X5112Y452389D01*
X5120Y452353D01*
X5153Y452314D01*
X5177Y452269D01*
X5207Y452248D01*
X5230Y452220D01*
X5277Y452199D01*
X5319Y452169D01*
X5361Y452161D01*
X5389Y452149D01*
X5419Y452150D01*
X5461Y452142D01*
X20393Y452142D01*
X20393Y436647D01*
X20404Y436597D01*
X20406Y436546D01*
X20424Y436514D01*
X20432Y436478D01*
X20465Y436439D01*
X20489Y436394D01*
X20519Y436373D01*
X20542Y436345D01*
X20589Y436324D01*
X20631Y436294D01*
X20673Y436286D01*
X20701Y436274D01*
X20731Y436275D01*
X20773Y436267D01*
X21155Y436267D01*
X21155Y436265D01*
X20773Y436265D01*
X20723Y436254D01*
X20672Y436252D01*
X20640Y436234D01*
X20604Y436226D01*
X20565Y436193D01*
X20520Y436169D01*
X20499Y436139D01*
X20471Y436115D01*
X20450Y436069D01*
X20420Y436027D01*
X20412Y435985D01*
X20400Y435957D01*
X20401Y435927D01*
X20393Y435885D01*
X20393Y420390D01*
X5461Y420390D01*
X5411Y420379D01*
X5360Y420377D01*
X5328Y420359D01*
X5292Y420351D01*
X5253Y420318D01*
X5208Y420294D01*
X5187Y420264D01*
X5159Y420241D01*
X5138Y420194D01*
X5108Y420152D01*
X5100Y420110D01*
X5088Y420082D01*
X5089Y420052D01*
X5081Y420010D01*
X5081Y382630D01*
X5092Y382580D01*
X5094Y382529D01*
X5112Y382497D01*
X5120Y382461D01*
X5153Y382422D01*
X5177Y382377D01*
X5207Y382356D01*
X5230Y382328D01*
X5277Y382307D01*
X5319Y382277D01*
X5361Y382269D01*
X5389Y382257D01*
X5419Y382258D01*
X5461Y382250D01*
X20393Y382250D01*
X20393Y366755D01*
X20404Y366705D01*
X20406Y366654D01*
X20424Y366622D01*
X20432Y366586D01*
X20465Y366547D01*
X20489Y366502D01*
X20519Y366481D01*
X20542Y366453D01*
X20589Y366432D01*
X20631Y366402D01*
X20673Y366394D01*
X20701Y366382D01*
X20731Y366383D01*
X20773Y366375D01*
X21155Y366375D01*
X21155Y366373D01*
X20773Y366373D01*
X20723Y366362D01*
X20672Y366360D01*
X20640Y366342D01*
X20604Y366334D01*
X20565Y366301D01*
X20520Y366277D01*
X20499Y366247D01*
X20471Y366223D01*
X20450Y366177D01*
X20420Y366135D01*
X20412Y366093D01*
X20400Y366065D01*
X20401Y366035D01*
X20393Y365993D01*
X20393Y350498D01*
X5461Y350498D01*
X5411Y350487D01*
X5360Y350485D01*
X5328Y350467D01*
X5292Y350459D01*
X5253Y350426D01*
X5208Y350402D01*
X5187Y350372D01*
X5159Y350349D01*
X5138Y350302D01*
X5108Y350260D01*
X5100Y350218D01*
X5088Y350190D01*
X5089Y350160D01*
X5081Y350118D01*
X5081Y5461D01*
X5092Y5411D01*
X5094Y5360D01*
X5112Y5328D01*
X5120Y5292D01*
X5153Y5253D01*
X5177Y5208D01*
X5207Y5187D01*
X5230Y5159D01*
X5277Y5138D01*
X5319Y5108D01*
X5361Y5100D01*
X5389Y5088D01*
X5419Y5089D01*
X5461Y5081D01*
X634519Y5081D01*
X634569Y5092D01*
G37*
%LPC*%
G36*
X291004Y633809D02*
X291004Y633809D01*
X279073Y637006D01*
X268376Y643182D01*
X259642Y651916D01*
X253466Y662613D01*
X253053Y664155D01*
X251830Y668718D01*
X250608Y673281D01*
X250269Y674544D01*
X250269Y686896D01*
X253466Y698827D01*
X259642Y709524D01*
X268376Y718258D01*
X279073Y724434D01*
X291004Y727631D01*
X303356Y727631D01*
X315287Y724434D01*
X325984Y718258D01*
X334718Y709524D01*
X340894Y698827D01*
X341374Y697035D01*
X342597Y692472D01*
X343819Y687909D01*
X344091Y686896D01*
X344091Y674544D01*
X340894Y662613D01*
X334718Y651916D01*
X325984Y643182D01*
X315287Y637006D01*
X303356Y633809D01*
X291004Y633809D01*
G37*
%LPD*%
%LPC*%
G36*
X291004Y21669D02*
X291004Y21669D01*
X279073Y24866D01*
X268376Y31042D01*
X259642Y39776D01*
X253466Y50473D01*
X252357Y54614D01*
X251134Y59177D01*
X250269Y62404D01*
X250269Y74756D01*
X253466Y86687D01*
X259642Y97384D01*
X268376Y106118D01*
X279073Y112294D01*
X291004Y115491D01*
X303356Y115491D01*
X315287Y112294D01*
X325984Y106118D01*
X334718Y97384D01*
X340894Y86687D01*
X341900Y82931D01*
X343123Y78368D01*
X344091Y74756D01*
X344091Y62404D01*
X340894Y50473D01*
X334718Y39776D01*
X325984Y31042D01*
X315287Y24866D01*
X303356Y21669D01*
X291004Y21669D01*
G37*
%LPD*%
%LPC*%
G36*
X269102Y483615D02*
X269102Y483615D01*
X264154Y485665D01*
X260367Y489452D01*
X258317Y494400D01*
X258317Y516520D01*
X260367Y521468D01*
X264154Y525255D01*
X269102Y527305D01*
X274458Y527305D01*
X279406Y525255D01*
X283193Y521468D01*
X284129Y519209D01*
X284144Y519188D01*
X284151Y519164D01*
X284194Y519119D01*
X284230Y519069D01*
X284253Y519056D01*
X284270Y519038D01*
X284328Y519016D01*
X284383Y518987D01*
X284409Y518987D01*
X284433Y518978D01*
X284494Y518984D01*
X284556Y518982D01*
X284579Y518993D01*
X284605Y518996D01*
X284657Y519029D01*
X284713Y519055D01*
X284730Y519075D01*
X284751Y519089D01*
X284799Y519160D01*
X284822Y519189D01*
X284824Y519199D01*
X284831Y519209D01*
X285767Y521468D01*
X289554Y525255D01*
X294502Y527305D01*
X299858Y527305D01*
X304806Y525255D01*
X308593Y521468D01*
X310643Y516520D01*
X310643Y494400D01*
X308593Y489452D01*
X304806Y485665D01*
X299858Y483615D01*
X294502Y483615D01*
X289554Y485665D01*
X285767Y489452D01*
X284831Y491711D01*
X284816Y491732D01*
X284809Y491756D01*
X284766Y491801D01*
X284730Y491851D01*
X284707Y491863D01*
X284690Y491882D01*
X284632Y491904D01*
X284577Y491933D01*
X284551Y491933D01*
X284527Y491942D01*
X284466Y491936D01*
X284404Y491938D01*
X284381Y491927D01*
X284355Y491924D01*
X284303Y491891D01*
X284247Y491865D01*
X284230Y491845D01*
X284209Y491831D01*
X284161Y491759D01*
X284138Y491731D01*
X284135Y491721D01*
X284129Y491711D01*
X283193Y489452D01*
X279406Y485665D01*
X274458Y483615D01*
X269102Y483615D01*
G37*
%LPD*%
%LPC*%
G36*
X294502Y221995D02*
X294502Y221995D01*
X289554Y224045D01*
X285767Y227832D01*
X283717Y232780D01*
X283717Y254900D01*
X285767Y259848D01*
X289554Y263635D01*
X294502Y265685D01*
X299858Y265685D01*
X304806Y263635D01*
X308593Y259848D01*
X309529Y257589D01*
X309544Y257568D01*
X309551Y257544D01*
X309594Y257499D01*
X309630Y257449D01*
X309653Y257437D01*
X309670Y257418D01*
X309728Y257396D01*
X309783Y257367D01*
X309809Y257367D01*
X309833Y257358D01*
X309894Y257364D01*
X309956Y257362D01*
X309979Y257373D01*
X310005Y257376D01*
X310057Y257409D01*
X310113Y257435D01*
X310130Y257455D01*
X310151Y257469D01*
X310199Y257541D01*
X310222Y257569D01*
X310225Y257579D01*
X310231Y257589D01*
X311167Y259848D01*
X314954Y263635D01*
X319902Y265685D01*
X325258Y265685D01*
X330206Y263635D01*
X333993Y259848D01*
X336043Y254900D01*
X336043Y232780D01*
X333993Y227832D01*
X330206Y224045D01*
X325258Y221995D01*
X319902Y221995D01*
X314954Y224045D01*
X311167Y227832D01*
X310231Y230091D01*
X310216Y230112D01*
X310209Y230136D01*
X310166Y230181D01*
X310130Y230231D01*
X310107Y230244D01*
X310090Y230262D01*
X310032Y230284D01*
X309977Y230313D01*
X309951Y230313D01*
X309927Y230322D01*
X309866Y230316D01*
X309804Y230318D01*
X309781Y230307D01*
X309755Y230304D01*
X309703Y230271D01*
X309647Y230245D01*
X309630Y230225D01*
X309609Y230211D01*
X309561Y230140D01*
X309538Y230111D01*
X309536Y230101D01*
X309529Y230091D01*
X308593Y227832D01*
X304806Y224045D01*
X299858Y221995D01*
X294502Y221995D01*
G37*
%LPD*%
%LPC*%
G36*
X507305Y660907D02*
X507305Y660907D01*
X501797Y663189D01*
X497581Y667405D01*
X495299Y672913D01*
X495299Y698687D01*
X497581Y704195D01*
X501797Y708411D01*
X507305Y710693D01*
X513267Y710693D01*
X518775Y708411D01*
X522991Y704195D01*
X525273Y698687D01*
X525273Y672913D01*
X522991Y667405D01*
X518775Y663189D01*
X513267Y660907D01*
X507305Y660907D01*
G37*
%LPD*%
%LPC*%
G36*
X608026Y689919D02*
X608026Y689919D01*
X600645Y692976D01*
X594996Y698625D01*
X591939Y706006D01*
X591939Y713994D01*
X594996Y721375D01*
X600645Y727024D01*
X608026Y730081D01*
X616014Y730081D01*
X623395Y727024D01*
X629044Y721375D01*
X632101Y713994D01*
X632101Y706006D01*
X629044Y698625D01*
X623395Y692976D01*
X616014Y689919D01*
X608026Y689919D01*
G37*
%LPD*%
%LPC*%
G36*
X36006Y689919D02*
X36006Y689919D01*
X28625Y692976D01*
X22976Y698625D01*
X19919Y706006D01*
X19919Y713994D01*
X22976Y721375D01*
X28625Y727024D01*
X36006Y730081D01*
X43994Y730081D01*
X51375Y727024D01*
X57024Y721375D01*
X60081Y713994D01*
X60081Y706006D01*
X57024Y698625D01*
X51375Y692976D01*
X43994Y689919D01*
X36006Y689919D01*
G37*
%LPD*%
%LPC*%
G36*
X608026Y19919D02*
X608026Y19919D01*
X600645Y22976D01*
X594996Y28625D01*
X591939Y36006D01*
X591939Y43994D01*
X594996Y51375D01*
X600645Y57024D01*
X608026Y60081D01*
X616014Y60081D01*
X623395Y57024D01*
X629044Y51375D01*
X632101Y43994D01*
X632101Y36006D01*
X629044Y28625D01*
X623395Y22976D01*
X616014Y19919D01*
X608026Y19919D01*
G37*
%LPD*%
%LPC*%
G36*
X36006Y19919D02*
X36006Y19919D01*
X28625Y22976D01*
X22976Y28625D01*
X19919Y36006D01*
X19919Y43994D01*
X22976Y51375D01*
X28625Y57024D01*
X36006Y60081D01*
X43994Y60081D01*
X51375Y57024D01*
X57024Y51375D01*
X60081Y43994D01*
X60081Y36006D01*
X57024Y28625D01*
X51375Y22976D01*
X43994Y19919D01*
X36006Y19919D01*
G37*
%LPD*%
%LPC*%
G36*
X340615Y408939D02*
X340615Y408939D01*
X330199Y419355D01*
X330199Y434085D01*
X340615Y444501D01*
X355345Y444501D01*
X365761Y434085D01*
X365761Y419355D01*
X355345Y408939D01*
X340615Y408939D01*
G37*
%LPD*%
%LPC*%
G36*
X289815Y307339D02*
X289815Y307339D01*
X279399Y317755D01*
X279399Y332485D01*
X289815Y342901D01*
X304545Y342901D01*
X314961Y332485D01*
X314961Y317755D01*
X304545Y307339D01*
X289815Y307339D01*
G37*
%LPD*%
%LPC*%
G36*
X340615Y307339D02*
X340615Y307339D01*
X330199Y317755D01*
X330199Y332485D01*
X340615Y342901D01*
X355345Y342901D01*
X365761Y332485D01*
X365761Y317755D01*
X355345Y307339D01*
X340615Y307339D01*
G37*
%LPD*%
%LPC*%
G36*
X289815Y408939D02*
X289815Y408939D01*
X279399Y419355D01*
X279399Y434085D01*
X289815Y444501D01*
X304545Y444501D01*
X314961Y434085D01*
X314961Y419355D01*
X304545Y408939D01*
X289815Y408939D01*
G37*
%LPD*%
%LPC*%
G36*
X135852Y112775D02*
X135852Y112775D01*
X131557Y114554D01*
X128270Y117841D01*
X126491Y122136D01*
X126491Y126784D01*
X128270Y131079D01*
X131557Y134366D01*
X135852Y136145D01*
X153708Y136145D01*
X158003Y134366D01*
X161290Y131079D01*
X163069Y126784D01*
X163069Y122136D01*
X161290Y117841D01*
X158003Y114554D01*
X153708Y112775D01*
X135852Y112775D01*
G37*
%LPD*%
%LPC*%
G36*
X135852Y669035D02*
X135852Y669035D01*
X131557Y670814D01*
X128270Y674101D01*
X126491Y678396D01*
X126491Y683044D01*
X128270Y687339D01*
X131557Y690626D01*
X135852Y692405D01*
X153708Y692405D01*
X158003Y690626D01*
X161290Y687339D01*
X163069Y683044D01*
X163069Y678396D01*
X161290Y674101D01*
X158003Y670814D01*
X153708Y669035D01*
X135852Y669035D01*
G37*
%LPD*%
%LPC*%
G36*
X135852Y61975D02*
X135852Y61975D01*
X131557Y63754D01*
X128270Y67041D01*
X126491Y71336D01*
X126491Y75984D01*
X128270Y80279D01*
X131557Y83566D01*
X135852Y85345D01*
X153708Y85345D01*
X158003Y83566D01*
X161290Y80279D01*
X163069Y75984D01*
X163069Y71336D01*
X161290Y67041D01*
X158003Y63754D01*
X153708Y61975D01*
X135852Y61975D01*
G37*
%LPD*%
%LPC*%
G36*
X135852Y87375D02*
X135852Y87375D01*
X131557Y89154D01*
X128270Y92441D01*
X126491Y96736D01*
X126491Y101384D01*
X128270Y105679D01*
X131557Y108966D01*
X135852Y110745D01*
X153708Y110745D01*
X158003Y108966D01*
X161290Y105679D01*
X163069Y101384D01*
X163069Y96736D01*
X161290Y92441D01*
X158003Y89154D01*
X153708Y87375D01*
X135852Y87375D01*
G37*
%LPD*%
%LPC*%
G36*
X135852Y643635D02*
X135852Y643635D01*
X131557Y645414D01*
X128270Y648701D01*
X126491Y652996D01*
X126491Y657644D01*
X128270Y661939D01*
X131557Y665226D01*
X135852Y667005D01*
X153708Y667005D01*
X158003Y665226D01*
X161290Y661939D01*
X163069Y657644D01*
X163069Y652996D01*
X161290Y648701D01*
X158003Y645414D01*
X153708Y643635D01*
X135852Y643635D01*
G37*
%LPD*%
%LPC*%
G36*
X135852Y618235D02*
X135852Y618235D01*
X131557Y620014D01*
X128270Y623301D01*
X126491Y627596D01*
X126491Y632244D01*
X128270Y636539D01*
X131557Y639826D01*
X135852Y641605D01*
X153708Y641605D01*
X158003Y639826D01*
X161290Y636539D01*
X163069Y632244D01*
X163069Y627596D01*
X161290Y623301D01*
X158003Y620014D01*
X153708Y618235D01*
X135852Y618235D01*
G37*
%LPD*%
%LPC*%
G36*
X21915Y437027D02*
X21915Y437027D01*
X21915Y452142D01*
X42444Y452142D01*
X43090Y451969D01*
X43669Y451634D01*
X44142Y451161D01*
X44477Y450582D01*
X44650Y449936D01*
X44650Y437027D01*
X21915Y437027D01*
G37*
%LPD*%
%LPC*%
G36*
X21915Y367135D02*
X21915Y367135D01*
X21915Y382250D01*
X42444Y382250D01*
X43090Y382077D01*
X43669Y381742D01*
X44142Y381269D01*
X44477Y380690D01*
X44650Y380044D01*
X44650Y367135D01*
X21915Y367135D01*
G37*
%LPD*%
%LPC*%
G36*
X595430Y437027D02*
X595430Y437027D01*
X595430Y449936D01*
X595603Y450582D01*
X595938Y451161D01*
X596411Y451634D01*
X596990Y451969D01*
X597636Y452142D01*
X618165Y452142D01*
X618165Y437027D01*
X595430Y437027D01*
G37*
%LPD*%
%LPC*%
G36*
X595430Y367135D02*
X595430Y367135D01*
X595430Y380044D01*
X595603Y380690D01*
X595938Y381269D01*
X596411Y381742D01*
X596990Y382077D01*
X597636Y382250D01*
X618165Y382250D01*
X618165Y367135D01*
X595430Y367135D01*
G37*
%LPD*%
%LPC*%
G36*
X21915Y420390D02*
X21915Y420390D01*
X21915Y435505D01*
X44650Y435505D01*
X44650Y422596D01*
X44477Y421950D01*
X44142Y421371D01*
X43669Y420898D01*
X43090Y420563D01*
X42444Y420390D01*
X21915Y420390D01*
G37*
%LPD*%
%LPC*%
G36*
X21915Y350498D02*
X21915Y350498D01*
X21915Y365613D01*
X44650Y365613D01*
X44650Y352704D01*
X44477Y352058D01*
X44142Y351479D01*
X43669Y351006D01*
X43090Y350671D01*
X42444Y350498D01*
X21915Y350498D01*
G37*
%LPD*%
%LPC*%
G36*
X597636Y420390D02*
X597636Y420390D01*
X596990Y420563D01*
X596411Y420898D01*
X595938Y421371D01*
X595603Y421950D01*
X595506Y422316D01*
X595505Y422316D01*
X595430Y422596D01*
X595430Y435505D01*
X618165Y435505D01*
X618165Y420390D01*
X597636Y420390D01*
G37*
%LPD*%
%LPC*%
G36*
X597636Y350498D02*
X597636Y350498D01*
X596990Y350671D01*
X596411Y351006D01*
X595938Y351479D01*
X595603Y352058D01*
X595430Y352704D01*
X595430Y365613D01*
X618165Y365613D01*
X618165Y350498D01*
X597636Y350498D01*
G37*
%LPD*%
%LPC*%
G36*
X461009Y686561D02*
X461009Y686561D01*
X461009Y708153D01*
X461228Y708153D01*
X463163Y707846D01*
X465026Y707241D01*
X466772Y706351D01*
X468357Y705200D01*
X469742Y703815D01*
X470893Y702230D01*
X471783Y700484D01*
X472388Y698621D01*
X472695Y696686D01*
X472695Y686561D01*
X461009Y686561D01*
G37*
%LPD*%
%LPC*%
G36*
X461009Y663447D02*
X461009Y663447D01*
X461009Y685039D01*
X472695Y685039D01*
X472695Y674914D01*
X472388Y672979D01*
X471783Y671116D01*
X470893Y669370D01*
X469742Y667785D01*
X468357Y666400D01*
X466772Y665249D01*
X465026Y664359D01*
X463163Y663754D01*
X461228Y663447D01*
X461009Y663447D01*
G37*
%LPD*%
%LPC*%
G36*
X447801Y686561D02*
X447801Y686561D01*
X447801Y696686D01*
X448108Y698621D01*
X448713Y700484D01*
X449603Y702230D01*
X450754Y703815D01*
X452139Y705200D01*
X453724Y706351D01*
X455470Y707241D01*
X457333Y707846D01*
X459268Y708153D01*
X459487Y708153D01*
X459487Y686561D01*
X447801Y686561D01*
G37*
%LPD*%
%LPC*%
G36*
X459268Y663447D02*
X459268Y663447D01*
X457333Y663754D01*
X455470Y664359D01*
X453724Y665249D01*
X452139Y666400D01*
X450754Y667785D01*
X449603Y669370D01*
X448713Y671116D01*
X448108Y672979D01*
X447801Y674914D01*
X447801Y685039D01*
X459487Y685039D01*
X459487Y663447D01*
X459268Y663447D01*
G37*
%LPD*%
%LPC*%
G36*
X323341Y506221D02*
X323341Y506221D01*
X323341Y524765D01*
X323440Y524765D01*
X325138Y524496D01*
X326773Y523965D01*
X328305Y523184D01*
X329696Y522173D01*
X330911Y520958D01*
X331922Y519567D01*
X332703Y518035D01*
X333234Y516400D01*
X333503Y514702D01*
X333503Y506221D01*
X323341Y506221D01*
G37*
%LPD*%
%LPC*%
G36*
X272541Y244601D02*
X272541Y244601D01*
X272541Y263145D01*
X272640Y263145D01*
X274338Y262876D01*
X275973Y262345D01*
X277505Y261564D01*
X278896Y260553D01*
X280111Y259338D01*
X281122Y257947D01*
X281903Y256415D01*
X282434Y254780D01*
X282703Y253082D01*
X282703Y244601D01*
X272541Y244601D01*
G37*
%LPD*%
%LPC*%
G36*
X323341Y486155D02*
X323341Y486155D01*
X323341Y504699D01*
X333503Y504699D01*
X333503Y496218D01*
X333234Y494520D01*
X332703Y492885D01*
X331922Y491353D01*
X330911Y489962D01*
X329696Y488747D01*
X328305Y487736D01*
X326773Y486955D01*
X325138Y486424D01*
X323440Y486155D01*
X323341Y486155D01*
G37*
%LPD*%
%LPC*%
G36*
X272541Y224535D02*
X272541Y224535D01*
X272541Y243079D01*
X282703Y243079D01*
X282703Y234598D01*
X282434Y232900D01*
X281903Y231265D01*
X281122Y229733D01*
X280111Y228342D01*
X278896Y227127D01*
X277505Y226116D01*
X275973Y225335D01*
X274338Y224804D01*
X272640Y224535D01*
X272541Y224535D01*
G37*
%LPD*%
%LPC*%
G36*
X311657Y506221D02*
X311657Y506221D01*
X311657Y514702D01*
X311926Y516400D01*
X312457Y518035D01*
X313238Y519567D01*
X314249Y520958D01*
X315464Y522173D01*
X316855Y523184D01*
X318387Y523965D01*
X320022Y524496D01*
X321720Y524765D01*
X321819Y524765D01*
X321819Y506221D01*
X311657Y506221D01*
G37*
%LPD*%
%LPC*%
G36*
X260857Y244601D02*
X260857Y244601D01*
X260857Y253082D01*
X261126Y254780D01*
X261657Y256415D01*
X262438Y257947D01*
X263449Y259338D01*
X264664Y260553D01*
X266055Y261564D01*
X267587Y262345D01*
X269222Y262876D01*
X270920Y263145D01*
X271019Y263145D01*
X271019Y244601D01*
X260857Y244601D01*
G37*
%LPD*%
%LPC*%
G36*
X321720Y486155D02*
X321720Y486155D01*
X320022Y486424D01*
X318387Y486955D01*
X316855Y487736D01*
X315464Y488747D01*
X314249Y489962D01*
X313238Y491353D01*
X312457Y492885D01*
X311926Y494520D01*
X311657Y496218D01*
X311657Y504699D01*
X321819Y504699D01*
X321819Y486155D01*
X321720Y486155D01*
G37*
%LPD*%
%LPC*%
G36*
X270920Y224535D02*
X270920Y224535D01*
X269222Y224804D01*
X267587Y225335D01*
X266055Y226116D01*
X264664Y227127D01*
X263449Y228342D01*
X262438Y229733D01*
X261657Y231265D01*
X261126Y232900D01*
X260857Y234598D01*
X260857Y243079D01*
X271019Y243079D01*
X271019Y224535D01*
X270920Y224535D01*
G37*
%LPD*%
%LPC*%
G36*
X322579Y505459D02*
X322579Y505459D01*
X322579Y505461D01*
X322581Y505461D01*
X322581Y505459D01*
X322579Y505459D01*
G37*
%LPD*%
%LPC*%
G36*
X271779Y243839D02*
X271779Y243839D01*
X271779Y243841D01*
X271781Y243841D01*
X271781Y243839D01*
X271779Y243839D01*
G37*
%LPD*%
%LPC*%
G36*
X460247Y685799D02*
X460247Y685799D01*
X460247Y685801D01*
X460249Y685801D01*
X460249Y685799D01*
X460247Y685799D01*
G37*
%LPD*%
D10*
X271780Y497078D02*
X271780Y513842D01*
X297180Y513842D02*
X297180Y497078D01*
X322580Y497078D02*
X322580Y513842D01*
X322580Y252222D02*
X322580Y235458D01*
X297180Y235458D02*
X297180Y252222D01*
X271780Y252222D02*
X271780Y235458D01*
D11*
X151384Y124460D02*
X138176Y124460D01*
X138176Y73660D02*
X151384Y73660D01*
X151384Y99060D02*
X138176Y99060D01*
X138176Y629920D02*
X151384Y629920D01*
X151384Y680720D02*
X138176Y680720D01*
X138176Y655320D02*
X151384Y655320D01*
D12*
X347980Y426720D03*
X297180Y426720D03*
D13*
X297180Y325120D03*
X347980Y325120D03*
D14*
X21154Y366374D03*
X21154Y436266D03*
X618926Y436266D03*
X618926Y366374D03*
D15*
X510286Y675894D02*
X510286Y695706D01*
X460248Y695706D02*
X460248Y675894D01*
D16*
X40640Y241300D03*
X353060Y523240D03*
X226060Y375920D03*
X358140Y231140D03*
X38100Y513080D03*
M02*
