G04 EAGLE Gerber RS-274X export*
G75*
%MOMM*%
%FSLAX34Y34*%
%LPD*%
%IN*%
%IPPOS*%
%AMOC8*
5,1,8,0,0,1.08239X$1,22.5*%
G01*
%ADD10C,0.254000*%


D10*
X0Y0D02*
X639980Y0D01*
X639980Y750000D01*
X0Y750000D01*
X0Y0D01*
X55000Y39464D02*
X54924Y38396D01*
X54771Y37335D01*
X54543Y36288D01*
X54241Y35260D01*
X53867Y34256D01*
X53422Y33281D01*
X52908Y32341D01*
X52329Y31440D01*
X51687Y30582D01*
X50985Y29772D01*
X50228Y29015D01*
X49418Y28313D01*
X48560Y27671D01*
X47659Y27092D01*
X46719Y26578D01*
X45744Y26133D01*
X44740Y25759D01*
X43712Y25457D01*
X42665Y25229D01*
X41604Y25076D01*
X40536Y25000D01*
X39464Y25000D01*
X38396Y25076D01*
X37335Y25229D01*
X36288Y25457D01*
X35260Y25759D01*
X34256Y26133D01*
X33281Y26578D01*
X32341Y27092D01*
X31440Y27671D01*
X30582Y28313D01*
X29772Y29015D01*
X29015Y29772D01*
X28313Y30582D01*
X27671Y31440D01*
X27092Y32341D01*
X26578Y33281D01*
X26133Y34256D01*
X25759Y35260D01*
X25457Y36288D01*
X25229Y37335D01*
X25076Y38396D01*
X25000Y39464D01*
X25000Y40536D01*
X25076Y41604D01*
X25229Y42665D01*
X25457Y43712D01*
X25759Y44740D01*
X26133Y45744D01*
X26578Y46719D01*
X27092Y47659D01*
X27671Y48560D01*
X28313Y49418D01*
X29015Y50228D01*
X29772Y50985D01*
X30582Y51687D01*
X31440Y52329D01*
X32341Y52908D01*
X33281Y53422D01*
X34256Y53867D01*
X35260Y54241D01*
X36288Y54543D01*
X37335Y54771D01*
X38396Y54924D01*
X39464Y55000D01*
X40536Y55000D01*
X41604Y54924D01*
X42665Y54771D01*
X43712Y54543D01*
X44740Y54241D01*
X45744Y53867D01*
X46719Y53422D01*
X47659Y52908D01*
X48560Y52329D01*
X49418Y51687D01*
X50228Y50985D01*
X50985Y50228D01*
X51687Y49418D01*
X52329Y48560D01*
X52908Y47659D01*
X53422Y46719D01*
X53867Y45744D01*
X54241Y44740D01*
X54543Y43712D01*
X54771Y42665D01*
X54924Y41604D01*
X55000Y40536D01*
X55000Y39464D01*
X627020Y39464D02*
X626944Y38396D01*
X626791Y37335D01*
X626563Y36288D01*
X626261Y35260D01*
X625887Y34256D01*
X625442Y33281D01*
X624928Y32341D01*
X624349Y31440D01*
X623707Y30582D01*
X623005Y29772D01*
X622248Y29015D01*
X621438Y28313D01*
X620580Y27671D01*
X619679Y27092D01*
X618739Y26578D01*
X617764Y26133D01*
X616760Y25759D01*
X615732Y25457D01*
X614685Y25229D01*
X613624Y25076D01*
X612556Y25000D01*
X611484Y25000D01*
X610416Y25076D01*
X609355Y25229D01*
X608308Y25457D01*
X607280Y25759D01*
X606276Y26133D01*
X605301Y26578D01*
X604361Y27092D01*
X603460Y27671D01*
X602602Y28313D01*
X601792Y29015D01*
X601035Y29772D01*
X600333Y30582D01*
X599691Y31440D01*
X599112Y32341D01*
X598598Y33281D01*
X598153Y34256D01*
X597779Y35260D01*
X597477Y36288D01*
X597249Y37335D01*
X597096Y38396D01*
X597020Y39464D01*
X597020Y40536D01*
X597096Y41604D01*
X597249Y42665D01*
X597477Y43712D01*
X597779Y44740D01*
X598153Y45744D01*
X598598Y46719D01*
X599112Y47659D01*
X599691Y48560D01*
X600333Y49418D01*
X601035Y50228D01*
X601792Y50985D01*
X602602Y51687D01*
X603460Y52329D01*
X604361Y52908D01*
X605301Y53422D01*
X606276Y53867D01*
X607280Y54241D01*
X608308Y54543D01*
X609355Y54771D01*
X610416Y54924D01*
X611484Y55000D01*
X612556Y55000D01*
X613624Y54924D01*
X614685Y54771D01*
X615732Y54543D01*
X616760Y54241D01*
X617764Y53867D01*
X618739Y53422D01*
X619679Y52908D01*
X620580Y52329D01*
X621438Y51687D01*
X622248Y50985D01*
X623005Y50228D01*
X623707Y49418D01*
X624349Y48560D01*
X624928Y47659D01*
X625442Y46719D01*
X625887Y45744D01*
X626261Y44740D01*
X626563Y43712D01*
X626791Y42665D01*
X626944Y41604D01*
X627020Y40536D01*
X627020Y39464D01*
X55000Y709464D02*
X54924Y708396D01*
X54771Y707335D01*
X54543Y706288D01*
X54241Y705260D01*
X53867Y704256D01*
X53422Y703281D01*
X52908Y702341D01*
X52329Y701440D01*
X51687Y700582D01*
X50985Y699772D01*
X50228Y699015D01*
X49418Y698313D01*
X48560Y697671D01*
X47659Y697092D01*
X46719Y696578D01*
X45744Y696133D01*
X44740Y695759D01*
X43712Y695457D01*
X42665Y695229D01*
X41604Y695076D01*
X40536Y695000D01*
X39464Y695000D01*
X38396Y695076D01*
X37335Y695229D01*
X36288Y695457D01*
X35260Y695759D01*
X34256Y696133D01*
X33281Y696578D01*
X32341Y697092D01*
X31440Y697671D01*
X30582Y698313D01*
X29772Y699015D01*
X29015Y699772D01*
X28313Y700582D01*
X27671Y701440D01*
X27092Y702341D01*
X26578Y703281D01*
X26133Y704256D01*
X25759Y705260D01*
X25457Y706288D01*
X25229Y707335D01*
X25076Y708396D01*
X25000Y709464D01*
X25000Y710536D01*
X25076Y711604D01*
X25229Y712665D01*
X25457Y713712D01*
X25759Y714740D01*
X26133Y715744D01*
X26578Y716719D01*
X27092Y717659D01*
X27671Y718560D01*
X28313Y719418D01*
X29015Y720228D01*
X29772Y720985D01*
X30582Y721687D01*
X31440Y722329D01*
X32341Y722908D01*
X33281Y723422D01*
X34256Y723867D01*
X35260Y724241D01*
X36288Y724543D01*
X37335Y724771D01*
X38396Y724924D01*
X39464Y725000D01*
X40536Y725000D01*
X41604Y724924D01*
X42665Y724771D01*
X43712Y724543D01*
X44740Y724241D01*
X45744Y723867D01*
X46719Y723422D01*
X47659Y722908D01*
X48560Y722329D01*
X49418Y721687D01*
X50228Y720985D01*
X50985Y720228D01*
X51687Y719418D01*
X52329Y718560D01*
X52908Y717659D01*
X53422Y716719D01*
X53867Y715744D01*
X54241Y714740D01*
X54543Y713712D01*
X54771Y712665D01*
X54924Y711604D01*
X55000Y710536D01*
X55000Y709464D01*
X627020Y709464D02*
X626944Y708396D01*
X626791Y707335D01*
X626563Y706288D01*
X626261Y705260D01*
X625887Y704256D01*
X625442Y703281D01*
X624928Y702341D01*
X624349Y701440D01*
X623707Y700582D01*
X623005Y699772D01*
X622248Y699015D01*
X621438Y698313D01*
X620580Y697671D01*
X619679Y697092D01*
X618739Y696578D01*
X617764Y696133D01*
X616760Y695759D01*
X615732Y695457D01*
X614685Y695229D01*
X613624Y695076D01*
X612556Y695000D01*
X611484Y695000D01*
X610416Y695076D01*
X609355Y695229D01*
X608308Y695457D01*
X607280Y695759D01*
X606276Y696133D01*
X605301Y696578D01*
X604361Y697092D01*
X603460Y697671D01*
X602602Y698313D01*
X601792Y699015D01*
X601035Y699772D01*
X600333Y700582D01*
X599691Y701440D01*
X599112Y702341D01*
X598598Y703281D01*
X598153Y704256D01*
X597779Y705260D01*
X597477Y706288D01*
X597249Y707335D01*
X597096Y708396D01*
X597020Y709464D01*
X597020Y710536D01*
X597096Y711604D01*
X597249Y712665D01*
X597477Y713712D01*
X597779Y714740D01*
X598153Y715744D01*
X598598Y716719D01*
X599112Y717659D01*
X599691Y718560D01*
X600333Y719418D01*
X601035Y720228D01*
X601792Y720985D01*
X602602Y721687D01*
X603460Y722329D01*
X604361Y722908D01*
X605301Y723422D01*
X606276Y723867D01*
X607280Y724241D01*
X608308Y724543D01*
X609355Y724771D01*
X610416Y724924D01*
X611484Y725000D01*
X612556Y725000D01*
X613624Y724924D01*
X614685Y724771D01*
X615732Y724543D01*
X616760Y724241D01*
X617764Y723867D01*
X618739Y723422D01*
X619679Y722908D01*
X620580Y722329D01*
X621438Y721687D01*
X622248Y720985D01*
X623005Y720228D01*
X623707Y719418D01*
X624349Y718560D01*
X624928Y717659D01*
X625442Y716719D01*
X625887Y715744D01*
X626261Y714740D01*
X626563Y713712D01*
X626791Y712665D01*
X626944Y711604D01*
X627020Y710536D01*
X627020Y709464D01*
X313690Y680180D02*
X313619Y679101D01*
X313478Y678029D01*
X313267Y676969D01*
X312988Y675925D01*
X312640Y674901D01*
X312226Y673903D01*
X311748Y672933D01*
X311208Y671997D01*
X310607Y671098D01*
X309949Y670241D01*
X309237Y669428D01*
X308472Y668664D01*
X307659Y667951D01*
X306802Y667293D01*
X305903Y666692D01*
X304967Y666152D01*
X303997Y665674D01*
X302999Y665260D01*
X301975Y664912D01*
X300931Y664633D01*
X299871Y664422D01*
X298799Y664281D01*
X297720Y664210D01*
X296640Y664210D01*
X295561Y664281D01*
X294489Y664422D01*
X293429Y664633D01*
X292385Y664912D01*
X291361Y665260D01*
X290363Y665674D01*
X289393Y666152D01*
X288457Y666692D01*
X287558Y667293D01*
X286701Y667951D01*
X285888Y668664D01*
X285124Y669428D01*
X284411Y670241D01*
X283753Y671098D01*
X283152Y671997D01*
X282612Y672933D01*
X282134Y673903D01*
X281720Y674901D01*
X281372Y675925D01*
X281093Y676969D01*
X280882Y678029D01*
X280741Y679101D01*
X280670Y680180D01*
X280670Y681260D01*
X280741Y682339D01*
X280882Y683411D01*
X281093Y684471D01*
X281372Y685515D01*
X281720Y686539D01*
X282134Y687537D01*
X282612Y688507D01*
X283152Y689443D01*
X283753Y690342D01*
X284411Y691199D01*
X285124Y692012D01*
X285888Y692777D01*
X286701Y693489D01*
X287558Y694147D01*
X288457Y694748D01*
X289393Y695288D01*
X290363Y695766D01*
X291361Y696180D01*
X292385Y696528D01*
X293429Y696807D01*
X294489Y697018D01*
X295561Y697159D01*
X296640Y697230D01*
X297720Y697230D01*
X298799Y697159D01*
X299871Y697018D01*
X300931Y696807D01*
X301975Y696528D01*
X302999Y696180D01*
X303997Y695766D01*
X304967Y695288D01*
X305903Y694748D01*
X306802Y694147D01*
X307659Y693489D01*
X308472Y692777D01*
X309237Y692012D01*
X309949Y691199D01*
X310607Y690342D01*
X311208Y689443D01*
X311748Y688507D01*
X312226Y687537D01*
X312640Y686539D01*
X312988Y685515D01*
X313267Y684471D01*
X313478Y683411D01*
X313619Y682339D01*
X313690Y681260D01*
X313690Y680180D01*
X280670Y69120D02*
X280741Y70199D01*
X280882Y71271D01*
X281093Y72331D01*
X281372Y73375D01*
X281720Y74399D01*
X282134Y75397D01*
X282612Y76367D01*
X283152Y77303D01*
X283753Y78202D01*
X284411Y79059D01*
X285124Y79872D01*
X285888Y80637D01*
X286701Y81349D01*
X287558Y82007D01*
X288457Y82608D01*
X289393Y83148D01*
X290363Y83626D01*
X291361Y84040D01*
X292385Y84388D01*
X293429Y84667D01*
X294489Y84878D01*
X295561Y85019D01*
X296640Y85090D01*
X297720Y85090D01*
X298799Y85019D01*
X299871Y84878D01*
X300931Y84667D01*
X301975Y84388D01*
X302999Y84040D01*
X303997Y83626D01*
X304967Y83148D01*
X305903Y82608D01*
X306802Y82007D01*
X307659Y81349D01*
X308472Y80637D01*
X309237Y79872D01*
X309949Y79059D01*
X310607Y78202D01*
X311208Y77303D01*
X311748Y76367D01*
X312226Y75397D01*
X312640Y74399D01*
X312988Y73375D01*
X313267Y72331D01*
X313478Y71271D01*
X313619Y70199D01*
X313690Y69120D01*
X313690Y68040D01*
X313619Y66961D01*
X313478Y65889D01*
X313267Y64829D01*
X312988Y63785D01*
X312640Y62761D01*
X312226Y61763D01*
X311748Y60793D01*
X311208Y59857D01*
X310607Y58958D01*
X309949Y58101D01*
X309237Y57288D01*
X308472Y56524D01*
X307659Y55811D01*
X306802Y55153D01*
X305903Y54552D01*
X304967Y54012D01*
X303997Y53534D01*
X302999Y53120D01*
X301975Y52772D01*
X300931Y52493D01*
X299871Y52282D01*
X298799Y52141D01*
X297720Y52070D01*
X296640Y52070D01*
X295561Y52141D01*
X294489Y52282D01*
X293429Y52493D01*
X292385Y52772D01*
X291361Y53120D01*
X290363Y53534D01*
X289393Y54012D01*
X288457Y54552D01*
X287558Y55153D01*
X286701Y55811D01*
X285888Y56524D01*
X285124Y57288D01*
X284411Y58101D01*
X283753Y58958D01*
X283152Y59857D01*
X282612Y60793D01*
X282134Y61763D01*
X281720Y62761D01*
X281372Y63785D01*
X281093Y64829D01*
X280882Y65889D01*
X280741Y66961D01*
X280670Y68040D01*
X280670Y69120D01*
M02*
