G04 EAGLE Gerber RS-274X export*
G75*
%MOMM*%
%FSLAX34Y34*%
%LPD*%
%INSilkscreen Top*%
%IPPOS*%
%AMOC8*
5,1,8,0,0,1.08239X$1,22.5*%
G01*
%ADD10C,0.101600*%
%ADD11R,0.150000X0.300000*%
%ADD12R,0.300000X0.300000*%
%ADD13C,0.152400*%
%ADD14C,0.127000*%
%ADD15C,0.050800*%
%ADD16R,0.762000X0.635000*%
%ADD17R,1.270000X2.794000*%
%ADD18C,0.203200*%


D10*
X497332Y603316D02*
X497332Y600719D01*
X497330Y600620D01*
X497324Y600520D01*
X497315Y600421D01*
X497302Y600323D01*
X497285Y600225D01*
X497264Y600127D01*
X497239Y600031D01*
X497211Y599936D01*
X497179Y599842D01*
X497144Y599749D01*
X497105Y599657D01*
X497062Y599567D01*
X497017Y599479D01*
X496967Y599392D01*
X496915Y599308D01*
X496859Y599225D01*
X496801Y599145D01*
X496739Y599067D01*
X496674Y598992D01*
X496606Y598919D01*
X496536Y598849D01*
X496463Y598781D01*
X496388Y598716D01*
X496310Y598654D01*
X496230Y598596D01*
X496147Y598540D01*
X496063Y598488D01*
X495976Y598438D01*
X495888Y598393D01*
X495798Y598350D01*
X495706Y598311D01*
X495613Y598276D01*
X495519Y598244D01*
X495424Y598216D01*
X495328Y598191D01*
X495230Y598170D01*
X495132Y598153D01*
X495034Y598140D01*
X494935Y598131D01*
X494835Y598125D01*
X494736Y598123D01*
X488244Y598123D01*
X488244Y598122D02*
X488145Y598124D01*
X488045Y598130D01*
X487946Y598139D01*
X487848Y598152D01*
X487750Y598170D01*
X487652Y598190D01*
X487556Y598215D01*
X487460Y598243D01*
X487366Y598275D01*
X487273Y598310D01*
X487182Y598349D01*
X487092Y598392D01*
X487003Y598437D01*
X486917Y598487D01*
X486832Y598539D01*
X486750Y598595D01*
X486670Y598654D01*
X486592Y598715D01*
X486516Y598780D01*
X486443Y598848D01*
X486373Y598918D01*
X486305Y598991D01*
X486240Y599067D01*
X486179Y599145D01*
X486120Y599225D01*
X486064Y599307D01*
X486012Y599392D01*
X485963Y599478D01*
X485917Y599567D01*
X485874Y599657D01*
X485835Y599748D01*
X485800Y599841D01*
X485768Y599935D01*
X485740Y600031D01*
X485715Y600127D01*
X485695Y600225D01*
X485677Y600323D01*
X485664Y600421D01*
X485655Y600520D01*
X485649Y600619D01*
X485647Y600719D01*
X485648Y600719D02*
X485648Y603316D01*
X488244Y607681D02*
X485648Y610926D01*
X497332Y610926D01*
X497332Y607681D02*
X497332Y614172D01*
X189296Y434848D02*
X186699Y434848D01*
X186600Y434850D01*
X186500Y434856D01*
X186401Y434865D01*
X186303Y434878D01*
X186205Y434895D01*
X186107Y434916D01*
X186011Y434941D01*
X185916Y434969D01*
X185822Y435001D01*
X185729Y435036D01*
X185637Y435075D01*
X185547Y435118D01*
X185459Y435163D01*
X185372Y435213D01*
X185288Y435265D01*
X185205Y435321D01*
X185125Y435379D01*
X185047Y435441D01*
X184972Y435506D01*
X184899Y435574D01*
X184829Y435644D01*
X184761Y435717D01*
X184696Y435792D01*
X184634Y435870D01*
X184576Y435950D01*
X184520Y436033D01*
X184468Y436117D01*
X184418Y436204D01*
X184373Y436292D01*
X184330Y436382D01*
X184291Y436474D01*
X184256Y436567D01*
X184224Y436661D01*
X184196Y436756D01*
X184171Y436852D01*
X184150Y436950D01*
X184133Y437048D01*
X184120Y437146D01*
X184111Y437245D01*
X184105Y437345D01*
X184103Y437444D01*
X184103Y443936D01*
X184105Y444035D01*
X184111Y444135D01*
X184120Y444234D01*
X184133Y444332D01*
X184150Y444430D01*
X184171Y444528D01*
X184196Y444624D01*
X184224Y444719D01*
X184256Y444813D01*
X184291Y444906D01*
X184330Y444998D01*
X184373Y445088D01*
X184418Y445176D01*
X184468Y445263D01*
X184520Y445347D01*
X184576Y445430D01*
X184634Y445510D01*
X184696Y445588D01*
X184761Y445663D01*
X184829Y445736D01*
X184899Y445806D01*
X184972Y445874D01*
X185047Y445939D01*
X185125Y446001D01*
X185205Y446059D01*
X185288Y446115D01*
X185372Y446167D01*
X185459Y446217D01*
X185547Y446262D01*
X185637Y446305D01*
X185729Y446344D01*
X185821Y446379D01*
X185916Y446411D01*
X186011Y446439D01*
X186107Y446464D01*
X186205Y446485D01*
X186303Y446502D01*
X186401Y446515D01*
X186500Y446524D01*
X186600Y446530D01*
X186699Y446532D01*
X189296Y446532D01*
X193661Y434848D02*
X196906Y434848D01*
X197019Y434850D01*
X197132Y434856D01*
X197245Y434866D01*
X197358Y434880D01*
X197470Y434897D01*
X197581Y434919D01*
X197691Y434944D01*
X197801Y434974D01*
X197909Y435007D01*
X198016Y435044D01*
X198122Y435084D01*
X198226Y435129D01*
X198329Y435177D01*
X198430Y435228D01*
X198529Y435283D01*
X198626Y435341D01*
X198721Y435403D01*
X198814Y435468D01*
X198904Y435536D01*
X198992Y435607D01*
X199078Y435682D01*
X199161Y435759D01*
X199241Y435839D01*
X199318Y435922D01*
X199393Y436008D01*
X199464Y436096D01*
X199532Y436186D01*
X199597Y436279D01*
X199659Y436374D01*
X199717Y436471D01*
X199772Y436570D01*
X199823Y436671D01*
X199871Y436774D01*
X199916Y436878D01*
X199956Y436984D01*
X199993Y437091D01*
X200026Y437199D01*
X200056Y437309D01*
X200081Y437419D01*
X200103Y437530D01*
X200120Y437642D01*
X200134Y437755D01*
X200144Y437868D01*
X200150Y437981D01*
X200152Y438094D01*
X200150Y438207D01*
X200144Y438320D01*
X200134Y438433D01*
X200120Y438546D01*
X200103Y438658D01*
X200081Y438769D01*
X200056Y438879D01*
X200026Y438989D01*
X199993Y439097D01*
X199956Y439204D01*
X199916Y439310D01*
X199871Y439414D01*
X199823Y439517D01*
X199772Y439618D01*
X199717Y439717D01*
X199659Y439814D01*
X199597Y439909D01*
X199532Y440002D01*
X199464Y440092D01*
X199393Y440180D01*
X199318Y440266D01*
X199241Y440349D01*
X199161Y440429D01*
X199078Y440506D01*
X198992Y440581D01*
X198904Y440652D01*
X198814Y440720D01*
X198721Y440785D01*
X198626Y440847D01*
X198529Y440905D01*
X198430Y440960D01*
X198329Y441011D01*
X198226Y441059D01*
X198122Y441104D01*
X198016Y441144D01*
X197909Y441181D01*
X197801Y441214D01*
X197691Y441244D01*
X197581Y441269D01*
X197470Y441291D01*
X197358Y441308D01*
X197245Y441322D01*
X197132Y441332D01*
X197019Y441338D01*
X196906Y441340D01*
X197556Y446532D02*
X193661Y446532D01*
X197556Y446532D02*
X197657Y446530D01*
X197757Y446524D01*
X197857Y446514D01*
X197957Y446501D01*
X198056Y446483D01*
X198155Y446462D01*
X198252Y446437D01*
X198349Y446408D01*
X198444Y446375D01*
X198538Y446339D01*
X198630Y446299D01*
X198721Y446256D01*
X198810Y446209D01*
X198897Y446159D01*
X198983Y446105D01*
X199066Y446048D01*
X199146Y445988D01*
X199225Y445925D01*
X199301Y445858D01*
X199374Y445789D01*
X199444Y445717D01*
X199512Y445643D01*
X199577Y445566D01*
X199638Y445486D01*
X199697Y445404D01*
X199752Y445320D01*
X199804Y445234D01*
X199853Y445146D01*
X199898Y445056D01*
X199940Y444964D01*
X199978Y444871D01*
X200012Y444776D01*
X200043Y444681D01*
X200070Y444584D01*
X200093Y444486D01*
X200113Y444387D01*
X200128Y444287D01*
X200140Y444187D01*
X200148Y444087D01*
X200152Y443986D01*
X200152Y443886D01*
X200148Y443785D01*
X200140Y443685D01*
X200128Y443585D01*
X200113Y443485D01*
X200093Y443386D01*
X200070Y443288D01*
X200043Y443191D01*
X200012Y443096D01*
X199978Y443001D01*
X199940Y442908D01*
X199898Y442816D01*
X199853Y442726D01*
X199804Y442638D01*
X199752Y442552D01*
X199697Y442468D01*
X199638Y442386D01*
X199577Y442306D01*
X199512Y442229D01*
X199444Y442155D01*
X199374Y442083D01*
X199301Y442014D01*
X199225Y441947D01*
X199146Y441884D01*
X199066Y441824D01*
X198983Y441767D01*
X198897Y441713D01*
X198810Y441663D01*
X198721Y441616D01*
X198630Y441573D01*
X198538Y441533D01*
X198444Y441497D01*
X198349Y441464D01*
X198252Y441435D01*
X198155Y441410D01*
X198056Y441389D01*
X197957Y441371D01*
X197857Y441358D01*
X197757Y441348D01*
X197657Y441342D01*
X197556Y441340D01*
X197556Y441339D02*
X194959Y441339D01*
X189296Y363728D02*
X186699Y363728D01*
X186600Y363730D01*
X186500Y363736D01*
X186401Y363745D01*
X186303Y363758D01*
X186205Y363775D01*
X186107Y363796D01*
X186011Y363821D01*
X185916Y363849D01*
X185822Y363881D01*
X185729Y363916D01*
X185637Y363955D01*
X185547Y363998D01*
X185459Y364043D01*
X185372Y364093D01*
X185288Y364145D01*
X185205Y364201D01*
X185125Y364259D01*
X185047Y364321D01*
X184972Y364386D01*
X184899Y364454D01*
X184829Y364524D01*
X184761Y364597D01*
X184696Y364672D01*
X184634Y364750D01*
X184576Y364830D01*
X184520Y364913D01*
X184468Y364997D01*
X184418Y365084D01*
X184373Y365172D01*
X184330Y365262D01*
X184291Y365354D01*
X184256Y365447D01*
X184224Y365541D01*
X184196Y365636D01*
X184171Y365732D01*
X184150Y365830D01*
X184133Y365928D01*
X184120Y366026D01*
X184111Y366125D01*
X184105Y366225D01*
X184103Y366324D01*
X184103Y372816D01*
X184105Y372915D01*
X184111Y373015D01*
X184120Y373114D01*
X184133Y373212D01*
X184150Y373310D01*
X184171Y373408D01*
X184196Y373504D01*
X184224Y373599D01*
X184256Y373693D01*
X184291Y373786D01*
X184330Y373878D01*
X184373Y373968D01*
X184418Y374056D01*
X184468Y374143D01*
X184520Y374227D01*
X184576Y374310D01*
X184634Y374390D01*
X184696Y374468D01*
X184761Y374543D01*
X184829Y374616D01*
X184899Y374686D01*
X184972Y374754D01*
X185047Y374819D01*
X185125Y374881D01*
X185205Y374939D01*
X185288Y374995D01*
X185372Y375047D01*
X185459Y375097D01*
X185547Y375142D01*
X185637Y375185D01*
X185729Y375224D01*
X185821Y375259D01*
X185916Y375291D01*
X186011Y375319D01*
X186107Y375344D01*
X186205Y375365D01*
X186303Y375382D01*
X186401Y375395D01*
X186500Y375404D01*
X186600Y375410D01*
X186699Y375412D01*
X189296Y375412D01*
X196257Y375412D02*
X193661Y366324D01*
X200152Y366324D01*
X198205Y368921D02*
X198205Y363728D01*
X410219Y406908D02*
X412816Y406908D01*
X410219Y406908D02*
X410120Y406910D01*
X410020Y406916D01*
X409921Y406925D01*
X409823Y406938D01*
X409725Y406955D01*
X409627Y406976D01*
X409531Y407001D01*
X409436Y407029D01*
X409342Y407061D01*
X409249Y407096D01*
X409157Y407135D01*
X409067Y407178D01*
X408979Y407223D01*
X408892Y407273D01*
X408808Y407325D01*
X408725Y407381D01*
X408645Y407439D01*
X408567Y407501D01*
X408492Y407566D01*
X408419Y407634D01*
X408349Y407704D01*
X408281Y407777D01*
X408216Y407852D01*
X408154Y407930D01*
X408096Y408010D01*
X408040Y408093D01*
X407988Y408177D01*
X407938Y408264D01*
X407893Y408352D01*
X407850Y408442D01*
X407811Y408534D01*
X407776Y408627D01*
X407744Y408721D01*
X407716Y408816D01*
X407691Y408912D01*
X407670Y409010D01*
X407653Y409108D01*
X407640Y409206D01*
X407631Y409305D01*
X407625Y409405D01*
X407623Y409504D01*
X407623Y415996D01*
X407625Y416095D01*
X407631Y416195D01*
X407640Y416294D01*
X407653Y416392D01*
X407670Y416490D01*
X407691Y416588D01*
X407716Y416684D01*
X407744Y416779D01*
X407776Y416873D01*
X407811Y416966D01*
X407850Y417058D01*
X407893Y417148D01*
X407938Y417236D01*
X407988Y417323D01*
X408040Y417407D01*
X408096Y417490D01*
X408154Y417570D01*
X408216Y417648D01*
X408281Y417723D01*
X408349Y417796D01*
X408419Y417866D01*
X408492Y417934D01*
X408567Y417999D01*
X408645Y418061D01*
X408725Y418119D01*
X408808Y418175D01*
X408892Y418227D01*
X408979Y418277D01*
X409067Y418322D01*
X409157Y418365D01*
X409249Y418404D01*
X409341Y418439D01*
X409436Y418471D01*
X409531Y418499D01*
X409627Y418524D01*
X409725Y418545D01*
X409823Y418562D01*
X409921Y418575D01*
X410020Y418584D01*
X410120Y418590D01*
X410219Y418592D01*
X412816Y418592D01*
X417181Y413399D02*
X421076Y413399D01*
X421175Y413397D01*
X421275Y413391D01*
X421374Y413382D01*
X421472Y413369D01*
X421570Y413352D01*
X421668Y413331D01*
X421764Y413306D01*
X421859Y413278D01*
X421953Y413246D01*
X422046Y413211D01*
X422138Y413172D01*
X422228Y413129D01*
X422316Y413084D01*
X422403Y413034D01*
X422487Y412982D01*
X422570Y412926D01*
X422650Y412868D01*
X422728Y412806D01*
X422803Y412741D01*
X422876Y412673D01*
X422946Y412603D01*
X423014Y412530D01*
X423079Y412455D01*
X423141Y412377D01*
X423199Y412297D01*
X423255Y412214D01*
X423307Y412130D01*
X423357Y412043D01*
X423402Y411955D01*
X423445Y411865D01*
X423484Y411773D01*
X423519Y411680D01*
X423551Y411586D01*
X423579Y411491D01*
X423604Y411395D01*
X423625Y411297D01*
X423642Y411199D01*
X423655Y411101D01*
X423664Y411002D01*
X423670Y410902D01*
X423672Y410803D01*
X423672Y410154D01*
X423670Y410041D01*
X423664Y409928D01*
X423654Y409815D01*
X423640Y409702D01*
X423623Y409590D01*
X423601Y409479D01*
X423576Y409369D01*
X423546Y409259D01*
X423513Y409151D01*
X423476Y409044D01*
X423436Y408938D01*
X423391Y408834D01*
X423343Y408731D01*
X423292Y408630D01*
X423237Y408531D01*
X423179Y408434D01*
X423117Y408339D01*
X423052Y408246D01*
X422984Y408156D01*
X422913Y408068D01*
X422838Y407982D01*
X422761Y407899D01*
X422681Y407819D01*
X422598Y407742D01*
X422512Y407667D01*
X422424Y407596D01*
X422334Y407528D01*
X422241Y407463D01*
X422146Y407401D01*
X422049Y407343D01*
X421950Y407288D01*
X421849Y407237D01*
X421746Y407189D01*
X421642Y407144D01*
X421536Y407104D01*
X421429Y407067D01*
X421321Y407034D01*
X421211Y407004D01*
X421101Y406979D01*
X420990Y406957D01*
X420878Y406940D01*
X420765Y406926D01*
X420652Y406916D01*
X420539Y406910D01*
X420426Y406908D01*
X420313Y406910D01*
X420200Y406916D01*
X420087Y406926D01*
X419974Y406940D01*
X419862Y406957D01*
X419751Y406979D01*
X419641Y407004D01*
X419531Y407034D01*
X419423Y407067D01*
X419316Y407104D01*
X419210Y407144D01*
X419106Y407189D01*
X419003Y407237D01*
X418902Y407288D01*
X418803Y407343D01*
X418706Y407401D01*
X418611Y407463D01*
X418518Y407528D01*
X418428Y407596D01*
X418340Y407667D01*
X418254Y407742D01*
X418171Y407819D01*
X418091Y407899D01*
X418014Y407982D01*
X417939Y408068D01*
X417868Y408156D01*
X417800Y408246D01*
X417735Y408339D01*
X417673Y408434D01*
X417615Y408531D01*
X417560Y408630D01*
X417509Y408731D01*
X417461Y408834D01*
X417416Y408938D01*
X417376Y409044D01*
X417339Y409151D01*
X417306Y409259D01*
X417276Y409369D01*
X417251Y409479D01*
X417229Y409590D01*
X417212Y409702D01*
X417198Y409815D01*
X417188Y409928D01*
X417182Y410041D01*
X417180Y410154D01*
X417181Y410154D02*
X417181Y413399D01*
X417183Y413542D01*
X417189Y413685D01*
X417199Y413828D01*
X417213Y413970D01*
X417230Y414112D01*
X417252Y414254D01*
X417277Y414395D01*
X417307Y414535D01*
X417340Y414674D01*
X417377Y414812D01*
X417418Y414949D01*
X417462Y415085D01*
X417511Y415220D01*
X417563Y415353D01*
X417618Y415485D01*
X417678Y415615D01*
X417741Y415744D01*
X417807Y415871D01*
X417877Y415995D01*
X417950Y416118D01*
X418027Y416239D01*
X418107Y416358D01*
X418190Y416474D01*
X418276Y416589D01*
X418365Y416700D01*
X418458Y416810D01*
X418553Y416916D01*
X418652Y417020D01*
X418753Y417121D01*
X418857Y417220D01*
X418963Y417315D01*
X419073Y417408D01*
X419184Y417497D01*
X419299Y417583D01*
X419415Y417666D01*
X419534Y417746D01*
X419655Y417823D01*
X419777Y417896D01*
X419902Y417966D01*
X420029Y418032D01*
X420158Y418095D01*
X420288Y418155D01*
X420420Y418210D01*
X420553Y418262D01*
X420688Y418311D01*
X420824Y418355D01*
X420961Y418396D01*
X421099Y418433D01*
X421238Y418466D01*
X421378Y418496D01*
X421519Y418521D01*
X421661Y418543D01*
X421803Y418560D01*
X421945Y418574D01*
X422088Y418584D01*
X422231Y418590D01*
X422374Y418592D01*
X497332Y527059D02*
X497332Y529656D01*
X497332Y527059D02*
X497330Y526960D01*
X497324Y526860D01*
X497315Y526761D01*
X497302Y526663D01*
X497285Y526565D01*
X497264Y526467D01*
X497239Y526371D01*
X497211Y526276D01*
X497179Y526182D01*
X497144Y526089D01*
X497105Y525997D01*
X497062Y525907D01*
X497017Y525819D01*
X496967Y525732D01*
X496915Y525648D01*
X496859Y525565D01*
X496801Y525485D01*
X496739Y525407D01*
X496674Y525332D01*
X496606Y525259D01*
X496536Y525189D01*
X496463Y525121D01*
X496388Y525056D01*
X496310Y524994D01*
X496230Y524936D01*
X496147Y524880D01*
X496063Y524828D01*
X495976Y524778D01*
X495888Y524733D01*
X495798Y524690D01*
X495706Y524651D01*
X495613Y524616D01*
X495519Y524584D01*
X495424Y524556D01*
X495328Y524531D01*
X495230Y524510D01*
X495132Y524493D01*
X495034Y524480D01*
X494935Y524471D01*
X494835Y524465D01*
X494736Y524463D01*
X488244Y524463D01*
X488244Y524462D02*
X488145Y524464D01*
X488045Y524470D01*
X487946Y524479D01*
X487848Y524492D01*
X487750Y524510D01*
X487652Y524530D01*
X487556Y524555D01*
X487460Y524583D01*
X487366Y524615D01*
X487273Y524650D01*
X487182Y524689D01*
X487092Y524732D01*
X487003Y524777D01*
X486917Y524827D01*
X486832Y524879D01*
X486750Y524935D01*
X486670Y524994D01*
X486592Y525055D01*
X486516Y525120D01*
X486443Y525188D01*
X486373Y525258D01*
X486305Y525331D01*
X486240Y525407D01*
X486179Y525485D01*
X486120Y525565D01*
X486064Y525647D01*
X486012Y525732D01*
X485963Y525818D01*
X485917Y525907D01*
X485874Y525997D01*
X485835Y526088D01*
X485800Y526181D01*
X485768Y526275D01*
X485740Y526371D01*
X485715Y526467D01*
X485695Y526565D01*
X485677Y526663D01*
X485664Y526761D01*
X485655Y526860D01*
X485649Y526959D01*
X485647Y527059D01*
X485648Y527059D02*
X485648Y529656D01*
X485648Y537591D02*
X485650Y537698D01*
X485656Y537804D01*
X485666Y537910D01*
X485679Y538016D01*
X485697Y538122D01*
X485718Y538226D01*
X485743Y538330D01*
X485772Y538433D01*
X485804Y538534D01*
X485841Y538634D01*
X485881Y538733D01*
X485924Y538831D01*
X485971Y538927D01*
X486022Y539021D01*
X486076Y539113D01*
X486133Y539203D01*
X486193Y539291D01*
X486257Y539376D01*
X486324Y539459D01*
X486394Y539540D01*
X486466Y539618D01*
X486542Y539694D01*
X486620Y539766D01*
X486701Y539836D01*
X486784Y539903D01*
X486869Y539967D01*
X486957Y540027D01*
X487047Y540084D01*
X487139Y540138D01*
X487233Y540189D01*
X487329Y540236D01*
X487427Y540279D01*
X487526Y540319D01*
X487626Y540356D01*
X487727Y540388D01*
X487830Y540417D01*
X487934Y540442D01*
X488038Y540463D01*
X488144Y540481D01*
X488250Y540494D01*
X488356Y540504D01*
X488462Y540510D01*
X488569Y540512D01*
X485648Y537591D02*
X485650Y537470D01*
X485656Y537349D01*
X485666Y537229D01*
X485679Y537108D01*
X485697Y536989D01*
X485718Y536869D01*
X485743Y536751D01*
X485772Y536634D01*
X485805Y536517D01*
X485841Y536402D01*
X485882Y536288D01*
X485925Y536175D01*
X485973Y536063D01*
X486024Y535954D01*
X486079Y535846D01*
X486137Y535739D01*
X486198Y535635D01*
X486263Y535533D01*
X486331Y535433D01*
X486402Y535335D01*
X486476Y535239D01*
X486553Y535146D01*
X486634Y535056D01*
X486717Y534968D01*
X486803Y534883D01*
X486892Y534800D01*
X486983Y534721D01*
X487077Y534644D01*
X487173Y534571D01*
X487271Y534501D01*
X487372Y534434D01*
X487475Y534370D01*
X487580Y534310D01*
X487687Y534252D01*
X487795Y534199D01*
X487905Y534149D01*
X488017Y534103D01*
X488130Y534060D01*
X488245Y534021D01*
X490841Y539538D02*
X490763Y539617D01*
X490683Y539693D01*
X490600Y539766D01*
X490514Y539836D01*
X490427Y539903D01*
X490336Y539967D01*
X490244Y540027D01*
X490150Y540085D01*
X490053Y540139D01*
X489955Y540189D01*
X489855Y540236D01*
X489754Y540280D01*
X489651Y540320D01*
X489546Y540356D01*
X489441Y540388D01*
X489334Y540417D01*
X489227Y540442D01*
X489118Y540464D01*
X489009Y540481D01*
X488900Y540495D01*
X488790Y540504D01*
X488679Y540510D01*
X488569Y540512D01*
X490841Y539538D02*
X497332Y534021D01*
X497332Y540512D01*
X216521Y605028D02*
X213924Y605028D01*
X213825Y605030D01*
X213725Y605036D01*
X213626Y605045D01*
X213528Y605058D01*
X213430Y605075D01*
X213332Y605096D01*
X213236Y605121D01*
X213141Y605149D01*
X213047Y605181D01*
X212954Y605216D01*
X212862Y605255D01*
X212772Y605298D01*
X212684Y605343D01*
X212597Y605393D01*
X212513Y605445D01*
X212430Y605501D01*
X212350Y605559D01*
X212272Y605621D01*
X212197Y605686D01*
X212124Y605754D01*
X212054Y605824D01*
X211986Y605897D01*
X211921Y605972D01*
X211859Y606050D01*
X211801Y606130D01*
X211745Y606213D01*
X211693Y606297D01*
X211643Y606384D01*
X211598Y606472D01*
X211555Y606562D01*
X211516Y606654D01*
X211481Y606747D01*
X211449Y606841D01*
X211421Y606936D01*
X211396Y607032D01*
X211375Y607130D01*
X211358Y607228D01*
X211345Y607326D01*
X211336Y607425D01*
X211330Y607525D01*
X211328Y607624D01*
X211328Y614116D01*
X211330Y614215D01*
X211336Y614315D01*
X211345Y614414D01*
X211358Y614512D01*
X211375Y614610D01*
X211396Y614708D01*
X211421Y614804D01*
X211449Y614899D01*
X211481Y614993D01*
X211516Y615086D01*
X211555Y615178D01*
X211598Y615268D01*
X211643Y615356D01*
X211693Y615443D01*
X211745Y615527D01*
X211801Y615610D01*
X211859Y615690D01*
X211921Y615768D01*
X211986Y615843D01*
X212054Y615916D01*
X212124Y615986D01*
X212197Y616054D01*
X212272Y616119D01*
X212350Y616181D01*
X212430Y616239D01*
X212513Y616295D01*
X212597Y616347D01*
X212684Y616397D01*
X212772Y616442D01*
X212862Y616485D01*
X212954Y616524D01*
X213046Y616559D01*
X213141Y616591D01*
X213236Y616619D01*
X213332Y616644D01*
X213430Y616665D01*
X213528Y616682D01*
X213626Y616695D01*
X213725Y616704D01*
X213825Y616710D01*
X213924Y616712D01*
X216521Y616712D01*
X220886Y605028D02*
X224781Y605028D01*
X224880Y605030D01*
X224980Y605036D01*
X225079Y605045D01*
X225177Y605058D01*
X225275Y605075D01*
X225373Y605096D01*
X225469Y605121D01*
X225564Y605149D01*
X225658Y605181D01*
X225751Y605216D01*
X225843Y605255D01*
X225933Y605298D01*
X226021Y605343D01*
X226108Y605393D01*
X226192Y605445D01*
X226275Y605501D01*
X226355Y605559D01*
X226433Y605621D01*
X226508Y605686D01*
X226581Y605754D01*
X226651Y605824D01*
X226719Y605897D01*
X226784Y605972D01*
X226846Y606050D01*
X226904Y606130D01*
X226960Y606213D01*
X227012Y606297D01*
X227062Y606384D01*
X227107Y606472D01*
X227150Y606562D01*
X227189Y606654D01*
X227224Y606747D01*
X227256Y606841D01*
X227284Y606936D01*
X227309Y607032D01*
X227330Y607130D01*
X227347Y607228D01*
X227360Y607326D01*
X227369Y607425D01*
X227375Y607525D01*
X227377Y607624D01*
X227377Y608923D01*
X227375Y609022D01*
X227369Y609122D01*
X227360Y609221D01*
X227347Y609319D01*
X227330Y609417D01*
X227309Y609515D01*
X227284Y609611D01*
X227256Y609706D01*
X227224Y609800D01*
X227189Y609893D01*
X227150Y609985D01*
X227107Y610075D01*
X227062Y610163D01*
X227012Y610250D01*
X226960Y610334D01*
X226904Y610417D01*
X226846Y610497D01*
X226784Y610575D01*
X226719Y610650D01*
X226651Y610723D01*
X226581Y610793D01*
X226508Y610861D01*
X226433Y610926D01*
X226355Y610988D01*
X226275Y611046D01*
X226192Y611102D01*
X226108Y611154D01*
X226021Y611204D01*
X225933Y611249D01*
X225843Y611292D01*
X225751Y611331D01*
X225658Y611366D01*
X225564Y611398D01*
X225469Y611426D01*
X225373Y611451D01*
X225275Y611472D01*
X225177Y611489D01*
X225079Y611502D01*
X224980Y611511D01*
X224880Y611517D01*
X224781Y611519D01*
X220886Y611519D01*
X220886Y616712D01*
X227377Y616712D01*
X213981Y196088D02*
X211384Y196088D01*
X211285Y196090D01*
X211185Y196096D01*
X211086Y196105D01*
X210988Y196118D01*
X210890Y196135D01*
X210792Y196156D01*
X210696Y196181D01*
X210601Y196209D01*
X210507Y196241D01*
X210414Y196276D01*
X210322Y196315D01*
X210232Y196358D01*
X210144Y196403D01*
X210057Y196453D01*
X209973Y196505D01*
X209890Y196561D01*
X209810Y196619D01*
X209732Y196681D01*
X209657Y196746D01*
X209584Y196814D01*
X209514Y196884D01*
X209446Y196957D01*
X209381Y197032D01*
X209319Y197110D01*
X209261Y197190D01*
X209205Y197273D01*
X209153Y197357D01*
X209103Y197444D01*
X209058Y197532D01*
X209015Y197622D01*
X208976Y197714D01*
X208941Y197807D01*
X208909Y197901D01*
X208881Y197996D01*
X208856Y198092D01*
X208835Y198190D01*
X208818Y198288D01*
X208805Y198386D01*
X208796Y198485D01*
X208790Y198585D01*
X208788Y198684D01*
X208788Y205176D01*
X208790Y205275D01*
X208796Y205375D01*
X208805Y205474D01*
X208818Y205572D01*
X208835Y205670D01*
X208856Y205768D01*
X208881Y205864D01*
X208909Y205959D01*
X208941Y206053D01*
X208976Y206146D01*
X209015Y206238D01*
X209058Y206328D01*
X209103Y206416D01*
X209153Y206503D01*
X209205Y206587D01*
X209261Y206670D01*
X209319Y206750D01*
X209381Y206828D01*
X209446Y206903D01*
X209514Y206976D01*
X209584Y207046D01*
X209657Y207114D01*
X209732Y207179D01*
X209810Y207241D01*
X209890Y207299D01*
X209973Y207355D01*
X210057Y207407D01*
X210144Y207457D01*
X210232Y207502D01*
X210322Y207545D01*
X210414Y207584D01*
X210506Y207619D01*
X210601Y207651D01*
X210696Y207679D01*
X210792Y207704D01*
X210890Y207725D01*
X210988Y207742D01*
X211086Y207755D01*
X211185Y207764D01*
X211285Y207770D01*
X211384Y207772D01*
X213981Y207772D01*
X218346Y207772D02*
X218346Y206474D01*
X218346Y207772D02*
X224837Y207772D01*
X221592Y196088D01*
D11*
X82900Y90400D03*
X94900Y90400D03*
D12*
X88900Y90400D03*
D10*
X54850Y93472D02*
X54850Y81788D01*
X54850Y93472D02*
X58095Y93472D01*
X58208Y93470D01*
X58321Y93464D01*
X58434Y93454D01*
X58547Y93440D01*
X58659Y93423D01*
X58770Y93401D01*
X58880Y93376D01*
X58990Y93346D01*
X59098Y93313D01*
X59205Y93276D01*
X59311Y93236D01*
X59415Y93191D01*
X59518Y93143D01*
X59619Y93092D01*
X59718Y93037D01*
X59815Y92979D01*
X59910Y92917D01*
X60003Y92852D01*
X60093Y92784D01*
X60181Y92713D01*
X60267Y92638D01*
X60350Y92561D01*
X60430Y92481D01*
X60507Y92398D01*
X60582Y92312D01*
X60653Y92224D01*
X60721Y92134D01*
X60786Y92041D01*
X60848Y91946D01*
X60906Y91849D01*
X60961Y91750D01*
X61012Y91649D01*
X61060Y91546D01*
X61105Y91442D01*
X61145Y91336D01*
X61182Y91229D01*
X61215Y91121D01*
X61245Y91011D01*
X61270Y90901D01*
X61292Y90790D01*
X61309Y90678D01*
X61323Y90565D01*
X61333Y90452D01*
X61339Y90339D01*
X61341Y90226D01*
X61341Y85034D01*
X61342Y85034D02*
X61340Y84921D01*
X61334Y84808D01*
X61324Y84695D01*
X61310Y84582D01*
X61293Y84470D01*
X61271Y84359D01*
X61246Y84249D01*
X61216Y84139D01*
X61183Y84031D01*
X61146Y83924D01*
X61106Y83818D01*
X61061Y83714D01*
X61013Y83611D01*
X60962Y83510D01*
X60907Y83411D01*
X60849Y83314D01*
X60787Y83219D01*
X60722Y83126D01*
X60654Y83036D01*
X60583Y82948D01*
X60508Y82862D01*
X60431Y82779D01*
X60351Y82699D01*
X60268Y82622D01*
X60182Y82547D01*
X60094Y82476D01*
X60004Y82408D01*
X59911Y82343D01*
X59816Y82281D01*
X59719Y82223D01*
X59620Y82168D01*
X59519Y82117D01*
X59416Y82069D01*
X59312Y82024D01*
X59206Y81984D01*
X59099Y81947D01*
X58991Y81914D01*
X58881Y81884D01*
X58771Y81859D01*
X58660Y81837D01*
X58548Y81820D01*
X58435Y81806D01*
X58322Y81796D01*
X58209Y81790D01*
X58096Y81788D01*
X58095Y81788D02*
X54850Y81788D01*
X66661Y81788D02*
X70556Y81788D01*
X70655Y81790D01*
X70755Y81796D01*
X70854Y81805D01*
X70952Y81818D01*
X71050Y81835D01*
X71148Y81856D01*
X71244Y81881D01*
X71339Y81909D01*
X71433Y81941D01*
X71526Y81976D01*
X71618Y82015D01*
X71708Y82058D01*
X71796Y82103D01*
X71883Y82153D01*
X71967Y82205D01*
X72050Y82261D01*
X72130Y82319D01*
X72208Y82381D01*
X72283Y82446D01*
X72356Y82514D01*
X72426Y82584D01*
X72494Y82657D01*
X72559Y82732D01*
X72621Y82810D01*
X72679Y82890D01*
X72735Y82973D01*
X72787Y83057D01*
X72837Y83144D01*
X72882Y83232D01*
X72925Y83322D01*
X72964Y83414D01*
X72999Y83507D01*
X73031Y83601D01*
X73059Y83696D01*
X73084Y83792D01*
X73105Y83890D01*
X73122Y83988D01*
X73135Y84086D01*
X73144Y84185D01*
X73150Y84285D01*
X73152Y84384D01*
X73152Y85683D01*
X73150Y85782D01*
X73144Y85882D01*
X73135Y85981D01*
X73122Y86079D01*
X73105Y86177D01*
X73084Y86275D01*
X73059Y86371D01*
X73031Y86466D01*
X72999Y86560D01*
X72964Y86653D01*
X72925Y86745D01*
X72882Y86835D01*
X72837Y86923D01*
X72787Y87010D01*
X72735Y87094D01*
X72679Y87177D01*
X72621Y87257D01*
X72559Y87335D01*
X72494Y87410D01*
X72426Y87483D01*
X72356Y87553D01*
X72283Y87621D01*
X72208Y87686D01*
X72130Y87748D01*
X72050Y87806D01*
X71967Y87862D01*
X71883Y87914D01*
X71796Y87964D01*
X71708Y88009D01*
X71618Y88052D01*
X71526Y88091D01*
X71433Y88126D01*
X71339Y88158D01*
X71244Y88186D01*
X71148Y88211D01*
X71050Y88232D01*
X70952Y88249D01*
X70854Y88262D01*
X70755Y88271D01*
X70655Y88277D01*
X70556Y88279D01*
X66661Y88279D01*
X66661Y93472D01*
X73152Y93472D01*
D13*
X88900Y508080D02*
X84900Y514080D01*
X92900Y514080D01*
X88900Y508080D01*
D10*
X55690Y508668D02*
X55690Y520352D01*
X58935Y520352D01*
X59048Y520350D01*
X59161Y520344D01*
X59274Y520334D01*
X59387Y520320D01*
X59499Y520303D01*
X59610Y520281D01*
X59720Y520256D01*
X59830Y520226D01*
X59938Y520193D01*
X60045Y520156D01*
X60151Y520116D01*
X60255Y520071D01*
X60358Y520023D01*
X60459Y519972D01*
X60558Y519917D01*
X60655Y519859D01*
X60750Y519797D01*
X60843Y519732D01*
X60933Y519664D01*
X61021Y519593D01*
X61107Y519518D01*
X61190Y519441D01*
X61270Y519361D01*
X61347Y519278D01*
X61422Y519192D01*
X61493Y519104D01*
X61561Y519014D01*
X61626Y518921D01*
X61688Y518826D01*
X61746Y518729D01*
X61801Y518630D01*
X61852Y518529D01*
X61900Y518426D01*
X61945Y518322D01*
X61985Y518216D01*
X62022Y518109D01*
X62055Y518001D01*
X62085Y517891D01*
X62110Y517781D01*
X62132Y517670D01*
X62149Y517558D01*
X62163Y517445D01*
X62173Y517332D01*
X62179Y517219D01*
X62181Y517106D01*
X62181Y511914D01*
X62182Y511914D02*
X62180Y511801D01*
X62174Y511688D01*
X62164Y511575D01*
X62150Y511462D01*
X62133Y511350D01*
X62111Y511239D01*
X62086Y511129D01*
X62056Y511019D01*
X62023Y510911D01*
X61986Y510804D01*
X61946Y510698D01*
X61901Y510594D01*
X61853Y510491D01*
X61802Y510390D01*
X61747Y510291D01*
X61689Y510194D01*
X61627Y510099D01*
X61562Y510006D01*
X61494Y509916D01*
X61423Y509828D01*
X61348Y509742D01*
X61271Y509659D01*
X61191Y509579D01*
X61108Y509502D01*
X61022Y509427D01*
X60934Y509356D01*
X60844Y509288D01*
X60751Y509223D01*
X60656Y509161D01*
X60559Y509103D01*
X60460Y509048D01*
X60359Y508997D01*
X60256Y508949D01*
X60152Y508904D01*
X60046Y508864D01*
X59939Y508827D01*
X59831Y508794D01*
X59721Y508764D01*
X59611Y508739D01*
X59500Y508717D01*
X59388Y508700D01*
X59275Y508686D01*
X59162Y508676D01*
X59049Y508670D01*
X58936Y508668D01*
X58935Y508668D02*
X55690Y508668D01*
X67501Y517756D02*
X70746Y520352D01*
X70746Y508668D01*
X67501Y508668D02*
X73992Y508668D01*
D13*
X116840Y518080D02*
X120840Y512080D01*
X112840Y512080D01*
X116840Y518080D01*
D10*
X108888Y487012D02*
X108888Y475328D01*
X108888Y487012D02*
X112134Y487012D01*
X112247Y487010D01*
X112360Y487004D01*
X112473Y486994D01*
X112586Y486980D01*
X112698Y486963D01*
X112809Y486941D01*
X112919Y486916D01*
X113029Y486886D01*
X113137Y486853D01*
X113244Y486816D01*
X113350Y486776D01*
X113454Y486731D01*
X113557Y486683D01*
X113658Y486632D01*
X113757Y486577D01*
X113854Y486519D01*
X113949Y486457D01*
X114042Y486392D01*
X114132Y486324D01*
X114220Y486253D01*
X114306Y486178D01*
X114389Y486101D01*
X114469Y486021D01*
X114546Y485938D01*
X114621Y485852D01*
X114692Y485764D01*
X114760Y485674D01*
X114825Y485581D01*
X114887Y485486D01*
X114945Y485389D01*
X115000Y485290D01*
X115051Y485189D01*
X115099Y485086D01*
X115144Y484982D01*
X115184Y484876D01*
X115221Y484769D01*
X115254Y484661D01*
X115284Y484551D01*
X115309Y484441D01*
X115331Y484330D01*
X115348Y484218D01*
X115362Y484105D01*
X115372Y483992D01*
X115378Y483879D01*
X115380Y483766D01*
X115379Y483766D02*
X115379Y478574D01*
X115380Y478574D02*
X115378Y478461D01*
X115372Y478348D01*
X115362Y478235D01*
X115348Y478122D01*
X115331Y478010D01*
X115309Y477899D01*
X115284Y477789D01*
X115254Y477679D01*
X115221Y477571D01*
X115184Y477464D01*
X115144Y477358D01*
X115099Y477254D01*
X115051Y477151D01*
X115000Y477050D01*
X114945Y476951D01*
X114887Y476854D01*
X114825Y476759D01*
X114760Y476666D01*
X114692Y476576D01*
X114621Y476488D01*
X114546Y476402D01*
X114469Y476319D01*
X114389Y476239D01*
X114306Y476162D01*
X114220Y476087D01*
X114132Y476016D01*
X114042Y475948D01*
X113949Y475883D01*
X113854Y475821D01*
X113757Y475763D01*
X113658Y475708D01*
X113557Y475657D01*
X113454Y475609D01*
X113350Y475564D01*
X113244Y475524D01*
X113137Y475487D01*
X113029Y475454D01*
X112919Y475424D01*
X112809Y475399D01*
X112698Y475377D01*
X112586Y475360D01*
X112473Y475346D01*
X112360Y475336D01*
X112247Y475330D01*
X112134Y475328D01*
X108888Y475328D01*
X124269Y487012D02*
X124376Y487010D01*
X124482Y487004D01*
X124588Y486994D01*
X124694Y486981D01*
X124800Y486963D01*
X124904Y486942D01*
X125008Y486917D01*
X125111Y486888D01*
X125212Y486856D01*
X125312Y486819D01*
X125411Y486779D01*
X125509Y486736D01*
X125605Y486689D01*
X125699Y486638D01*
X125791Y486584D01*
X125881Y486527D01*
X125969Y486467D01*
X126054Y486403D01*
X126137Y486336D01*
X126218Y486266D01*
X126296Y486194D01*
X126372Y486118D01*
X126444Y486040D01*
X126514Y485959D01*
X126581Y485876D01*
X126645Y485791D01*
X126705Y485703D01*
X126762Y485613D01*
X126816Y485521D01*
X126867Y485427D01*
X126914Y485331D01*
X126957Y485233D01*
X126997Y485134D01*
X127034Y485034D01*
X127066Y484933D01*
X127095Y484830D01*
X127120Y484726D01*
X127141Y484622D01*
X127159Y484516D01*
X127172Y484410D01*
X127182Y484304D01*
X127188Y484198D01*
X127190Y484091D01*
X124269Y487012D02*
X124148Y487010D01*
X124027Y487004D01*
X123907Y486994D01*
X123786Y486981D01*
X123667Y486963D01*
X123547Y486942D01*
X123429Y486917D01*
X123312Y486888D01*
X123195Y486855D01*
X123080Y486819D01*
X122966Y486778D01*
X122853Y486735D01*
X122741Y486687D01*
X122632Y486636D01*
X122524Y486581D01*
X122417Y486523D01*
X122313Y486462D01*
X122211Y486397D01*
X122111Y486329D01*
X122013Y486258D01*
X121917Y486184D01*
X121824Y486107D01*
X121734Y486026D01*
X121646Y485943D01*
X121561Y485857D01*
X121478Y485768D01*
X121399Y485677D01*
X121322Y485583D01*
X121249Y485487D01*
X121179Y485389D01*
X121112Y485288D01*
X121048Y485185D01*
X120988Y485080D01*
X120931Y484973D01*
X120877Y484865D01*
X120827Y484755D01*
X120781Y484643D01*
X120738Y484530D01*
X120699Y484415D01*
X126217Y481819D02*
X126296Y481896D01*
X126372Y481977D01*
X126445Y482060D01*
X126515Y482145D01*
X126582Y482233D01*
X126646Y482323D01*
X126706Y482415D01*
X126763Y482510D01*
X126817Y482606D01*
X126868Y482704D01*
X126915Y482804D01*
X126959Y482906D01*
X126999Y483009D01*
X127035Y483113D01*
X127067Y483219D01*
X127096Y483325D01*
X127121Y483433D01*
X127143Y483541D01*
X127160Y483651D01*
X127174Y483760D01*
X127183Y483870D01*
X127189Y483981D01*
X127191Y484091D01*
X126216Y481819D02*
X120699Y475328D01*
X127190Y475328D01*
D13*
X88900Y246300D02*
X92900Y240300D01*
X84900Y240300D01*
X88900Y246300D01*
D10*
X55690Y246032D02*
X55690Y234348D01*
X55690Y246032D02*
X58935Y246032D01*
X59048Y246030D01*
X59161Y246024D01*
X59274Y246014D01*
X59387Y246000D01*
X59499Y245983D01*
X59610Y245961D01*
X59720Y245936D01*
X59830Y245906D01*
X59938Y245873D01*
X60045Y245836D01*
X60151Y245796D01*
X60255Y245751D01*
X60358Y245703D01*
X60459Y245652D01*
X60558Y245597D01*
X60655Y245539D01*
X60750Y245477D01*
X60843Y245412D01*
X60933Y245344D01*
X61021Y245273D01*
X61107Y245198D01*
X61190Y245121D01*
X61270Y245041D01*
X61347Y244958D01*
X61422Y244872D01*
X61493Y244784D01*
X61561Y244694D01*
X61626Y244601D01*
X61688Y244506D01*
X61746Y244409D01*
X61801Y244310D01*
X61852Y244209D01*
X61900Y244106D01*
X61945Y244002D01*
X61985Y243896D01*
X62022Y243789D01*
X62055Y243681D01*
X62085Y243571D01*
X62110Y243461D01*
X62132Y243350D01*
X62149Y243238D01*
X62163Y243125D01*
X62173Y243012D01*
X62179Y242899D01*
X62181Y242786D01*
X62181Y237594D01*
X62182Y237594D02*
X62180Y237481D01*
X62174Y237368D01*
X62164Y237255D01*
X62150Y237142D01*
X62133Y237030D01*
X62111Y236919D01*
X62086Y236809D01*
X62056Y236699D01*
X62023Y236591D01*
X61986Y236484D01*
X61946Y236378D01*
X61901Y236274D01*
X61853Y236171D01*
X61802Y236070D01*
X61747Y235971D01*
X61689Y235874D01*
X61627Y235779D01*
X61562Y235686D01*
X61494Y235596D01*
X61423Y235508D01*
X61348Y235422D01*
X61271Y235339D01*
X61191Y235259D01*
X61108Y235182D01*
X61022Y235107D01*
X60934Y235036D01*
X60844Y234968D01*
X60751Y234903D01*
X60656Y234841D01*
X60559Y234783D01*
X60460Y234728D01*
X60359Y234677D01*
X60256Y234629D01*
X60152Y234584D01*
X60046Y234544D01*
X59939Y234507D01*
X59831Y234474D01*
X59721Y234444D01*
X59611Y234419D01*
X59500Y234397D01*
X59388Y234380D01*
X59275Y234366D01*
X59162Y234356D01*
X59049Y234350D01*
X58936Y234348D01*
X58935Y234348D02*
X55690Y234348D01*
X67501Y234348D02*
X70746Y234348D01*
X70859Y234350D01*
X70972Y234356D01*
X71085Y234366D01*
X71198Y234380D01*
X71310Y234397D01*
X71421Y234419D01*
X71531Y234444D01*
X71641Y234474D01*
X71749Y234507D01*
X71856Y234544D01*
X71962Y234584D01*
X72066Y234629D01*
X72169Y234677D01*
X72270Y234728D01*
X72369Y234783D01*
X72466Y234841D01*
X72561Y234903D01*
X72654Y234968D01*
X72744Y235036D01*
X72832Y235107D01*
X72918Y235182D01*
X73001Y235259D01*
X73081Y235339D01*
X73158Y235422D01*
X73233Y235508D01*
X73304Y235596D01*
X73372Y235686D01*
X73437Y235779D01*
X73499Y235874D01*
X73557Y235971D01*
X73612Y236070D01*
X73663Y236171D01*
X73711Y236274D01*
X73756Y236378D01*
X73796Y236484D01*
X73833Y236591D01*
X73866Y236699D01*
X73896Y236809D01*
X73921Y236919D01*
X73943Y237030D01*
X73960Y237142D01*
X73974Y237255D01*
X73984Y237368D01*
X73990Y237481D01*
X73992Y237594D01*
X73990Y237707D01*
X73984Y237820D01*
X73974Y237933D01*
X73960Y238046D01*
X73943Y238158D01*
X73921Y238269D01*
X73896Y238379D01*
X73866Y238489D01*
X73833Y238597D01*
X73796Y238704D01*
X73756Y238810D01*
X73711Y238914D01*
X73663Y239017D01*
X73612Y239118D01*
X73557Y239217D01*
X73499Y239314D01*
X73437Y239409D01*
X73372Y239502D01*
X73304Y239592D01*
X73233Y239680D01*
X73158Y239766D01*
X73081Y239849D01*
X73001Y239929D01*
X72918Y240006D01*
X72832Y240081D01*
X72744Y240152D01*
X72654Y240220D01*
X72561Y240285D01*
X72466Y240347D01*
X72369Y240405D01*
X72270Y240460D01*
X72169Y240511D01*
X72066Y240559D01*
X71962Y240604D01*
X71856Y240644D01*
X71749Y240681D01*
X71641Y240714D01*
X71531Y240744D01*
X71421Y240769D01*
X71310Y240791D01*
X71198Y240808D01*
X71085Y240822D01*
X70972Y240832D01*
X70859Y240838D01*
X70746Y240840D01*
X71396Y246032D02*
X67501Y246032D01*
X71396Y246032D02*
X71497Y246030D01*
X71597Y246024D01*
X71697Y246014D01*
X71797Y246001D01*
X71896Y245983D01*
X71995Y245962D01*
X72092Y245937D01*
X72189Y245908D01*
X72284Y245875D01*
X72378Y245839D01*
X72470Y245799D01*
X72561Y245756D01*
X72650Y245709D01*
X72737Y245659D01*
X72823Y245605D01*
X72906Y245548D01*
X72986Y245488D01*
X73065Y245425D01*
X73141Y245358D01*
X73214Y245289D01*
X73284Y245217D01*
X73352Y245143D01*
X73417Y245066D01*
X73478Y244986D01*
X73537Y244904D01*
X73592Y244820D01*
X73644Y244734D01*
X73693Y244646D01*
X73738Y244556D01*
X73780Y244464D01*
X73818Y244371D01*
X73852Y244276D01*
X73883Y244181D01*
X73910Y244084D01*
X73933Y243986D01*
X73953Y243887D01*
X73968Y243787D01*
X73980Y243687D01*
X73988Y243587D01*
X73992Y243486D01*
X73992Y243386D01*
X73988Y243285D01*
X73980Y243185D01*
X73968Y243085D01*
X73953Y242985D01*
X73933Y242886D01*
X73910Y242788D01*
X73883Y242691D01*
X73852Y242596D01*
X73818Y242501D01*
X73780Y242408D01*
X73738Y242316D01*
X73693Y242226D01*
X73644Y242138D01*
X73592Y242052D01*
X73537Y241968D01*
X73478Y241886D01*
X73417Y241806D01*
X73352Y241729D01*
X73284Y241655D01*
X73214Y241583D01*
X73141Y241514D01*
X73065Y241447D01*
X72986Y241384D01*
X72906Y241324D01*
X72823Y241267D01*
X72737Y241213D01*
X72650Y241163D01*
X72561Y241116D01*
X72470Y241073D01*
X72378Y241033D01*
X72284Y240997D01*
X72189Y240964D01*
X72092Y240935D01*
X71995Y240910D01*
X71896Y240889D01*
X71797Y240871D01*
X71697Y240858D01*
X71597Y240848D01*
X71497Y240842D01*
X71396Y240840D01*
X71396Y240839D02*
X68799Y240839D01*
D13*
X112840Y242300D02*
X116840Y236300D01*
X112840Y242300D02*
X120840Y242300D01*
X116840Y236300D01*
D10*
X109030Y267368D02*
X109030Y279052D01*
X112275Y279052D01*
X112388Y279050D01*
X112501Y279044D01*
X112614Y279034D01*
X112727Y279020D01*
X112839Y279003D01*
X112950Y278981D01*
X113060Y278956D01*
X113170Y278926D01*
X113278Y278893D01*
X113385Y278856D01*
X113491Y278816D01*
X113595Y278771D01*
X113698Y278723D01*
X113799Y278672D01*
X113898Y278617D01*
X113995Y278559D01*
X114090Y278497D01*
X114183Y278432D01*
X114273Y278364D01*
X114361Y278293D01*
X114447Y278218D01*
X114530Y278141D01*
X114610Y278061D01*
X114687Y277978D01*
X114762Y277892D01*
X114833Y277804D01*
X114901Y277714D01*
X114966Y277621D01*
X115028Y277526D01*
X115086Y277429D01*
X115141Y277330D01*
X115192Y277229D01*
X115240Y277126D01*
X115285Y277022D01*
X115325Y276916D01*
X115362Y276809D01*
X115395Y276701D01*
X115425Y276591D01*
X115450Y276481D01*
X115472Y276370D01*
X115489Y276258D01*
X115503Y276145D01*
X115513Y276032D01*
X115519Y275919D01*
X115521Y275806D01*
X115521Y270614D01*
X115522Y270614D02*
X115520Y270501D01*
X115514Y270388D01*
X115504Y270275D01*
X115490Y270162D01*
X115473Y270050D01*
X115451Y269939D01*
X115426Y269829D01*
X115396Y269719D01*
X115363Y269611D01*
X115326Y269504D01*
X115286Y269398D01*
X115241Y269294D01*
X115193Y269191D01*
X115142Y269090D01*
X115087Y268991D01*
X115029Y268894D01*
X114967Y268799D01*
X114902Y268706D01*
X114834Y268616D01*
X114763Y268528D01*
X114688Y268442D01*
X114611Y268359D01*
X114531Y268279D01*
X114448Y268202D01*
X114362Y268127D01*
X114274Y268056D01*
X114184Y267988D01*
X114091Y267923D01*
X113996Y267861D01*
X113899Y267803D01*
X113800Y267748D01*
X113699Y267697D01*
X113596Y267649D01*
X113492Y267604D01*
X113386Y267564D01*
X113279Y267527D01*
X113171Y267494D01*
X113061Y267464D01*
X112951Y267439D01*
X112840Y267417D01*
X112728Y267400D01*
X112615Y267386D01*
X112502Y267376D01*
X112389Y267370D01*
X112276Y267368D01*
X112275Y267368D02*
X109030Y267368D01*
X120841Y269964D02*
X123437Y279052D01*
X120841Y269964D02*
X127332Y269964D01*
X125385Y272561D02*
X125385Y267368D01*
D14*
X245110Y556260D02*
X349250Y556260D01*
X349250Y715010D02*
X245110Y715010D01*
X349250Y680720D02*
X349250Y556260D01*
X349250Y680720D02*
X340360Y680720D01*
X340360Y695960D01*
X349250Y695960D01*
X349250Y715010D01*
X245110Y680720D02*
X245110Y556260D01*
X245110Y680720D02*
X254000Y680720D01*
X254000Y695960D01*
X245110Y695960D01*
X245110Y715010D01*
D15*
X251460Y562610D02*
X342900Y562610D01*
X342900Y645160D01*
X251460Y645160D01*
X251460Y562610D01*
D14*
X279146Y680720D02*
X279151Y681163D01*
X279168Y681605D01*
X279195Y682047D01*
X279233Y682488D01*
X279282Y682928D01*
X279341Y683366D01*
X279412Y683803D01*
X279493Y684238D01*
X279584Y684671D01*
X279686Y685102D01*
X279799Y685530D01*
X279923Y685955D01*
X280056Y686377D01*
X280200Y686795D01*
X280354Y687210D01*
X280519Y687621D01*
X280693Y688028D01*
X280877Y688431D01*
X281072Y688828D01*
X281275Y689221D01*
X281489Y689609D01*
X281712Y689991D01*
X281944Y690368D01*
X282185Y690739D01*
X282436Y691104D01*
X282695Y691463D01*
X282963Y691815D01*
X283240Y692161D01*
X283524Y692499D01*
X283818Y692831D01*
X284119Y693155D01*
X284428Y693472D01*
X284745Y693781D01*
X285069Y694082D01*
X285401Y694376D01*
X285739Y694660D01*
X286085Y694937D01*
X286437Y695205D01*
X286796Y695464D01*
X287161Y695715D01*
X287532Y695956D01*
X287909Y696188D01*
X288291Y696411D01*
X288679Y696625D01*
X289072Y696828D01*
X289469Y697023D01*
X289872Y697207D01*
X290279Y697381D01*
X290690Y697546D01*
X291105Y697700D01*
X291523Y697844D01*
X291945Y697977D01*
X292370Y698101D01*
X292798Y698214D01*
X293229Y698316D01*
X293662Y698407D01*
X294097Y698488D01*
X294534Y698559D01*
X294972Y698618D01*
X295412Y698667D01*
X295853Y698705D01*
X296295Y698732D01*
X296737Y698749D01*
X297180Y698754D01*
X297623Y698749D01*
X298065Y698732D01*
X298507Y698705D01*
X298948Y698667D01*
X299388Y698618D01*
X299826Y698559D01*
X300263Y698488D01*
X300698Y698407D01*
X301131Y698316D01*
X301562Y698214D01*
X301990Y698101D01*
X302415Y697977D01*
X302837Y697844D01*
X303255Y697700D01*
X303670Y697546D01*
X304081Y697381D01*
X304488Y697207D01*
X304891Y697023D01*
X305288Y696828D01*
X305681Y696625D01*
X306069Y696411D01*
X306451Y696188D01*
X306828Y695956D01*
X307199Y695715D01*
X307564Y695464D01*
X307923Y695205D01*
X308275Y694937D01*
X308621Y694660D01*
X308959Y694376D01*
X309291Y694082D01*
X309615Y693781D01*
X309932Y693472D01*
X310241Y693155D01*
X310542Y692831D01*
X310836Y692499D01*
X311120Y692161D01*
X311397Y691815D01*
X311665Y691463D01*
X311924Y691104D01*
X312175Y690739D01*
X312416Y690368D01*
X312648Y689991D01*
X312871Y689609D01*
X313085Y689221D01*
X313288Y688828D01*
X313483Y688431D01*
X313667Y688028D01*
X313841Y687621D01*
X314006Y687210D01*
X314160Y686795D01*
X314304Y686377D01*
X314437Y685955D01*
X314561Y685530D01*
X314674Y685102D01*
X314776Y684671D01*
X314867Y684238D01*
X314948Y683803D01*
X315019Y683366D01*
X315078Y682928D01*
X315127Y682488D01*
X315165Y682047D01*
X315192Y681605D01*
X315209Y681163D01*
X315214Y680720D01*
X315209Y680277D01*
X315192Y679835D01*
X315165Y679393D01*
X315127Y678952D01*
X315078Y678512D01*
X315019Y678074D01*
X314948Y677637D01*
X314867Y677202D01*
X314776Y676769D01*
X314674Y676338D01*
X314561Y675910D01*
X314437Y675485D01*
X314304Y675063D01*
X314160Y674645D01*
X314006Y674230D01*
X313841Y673819D01*
X313667Y673412D01*
X313483Y673009D01*
X313288Y672612D01*
X313085Y672219D01*
X312871Y671831D01*
X312648Y671449D01*
X312416Y671072D01*
X312175Y670701D01*
X311924Y670336D01*
X311665Y669977D01*
X311397Y669625D01*
X311120Y669279D01*
X310836Y668941D01*
X310542Y668609D01*
X310241Y668285D01*
X309932Y667968D01*
X309615Y667659D01*
X309291Y667358D01*
X308959Y667064D01*
X308621Y666780D01*
X308275Y666503D01*
X307923Y666235D01*
X307564Y665976D01*
X307199Y665725D01*
X306828Y665484D01*
X306451Y665252D01*
X306069Y665029D01*
X305681Y664815D01*
X305288Y664612D01*
X304891Y664417D01*
X304488Y664233D01*
X304081Y664059D01*
X303670Y663894D01*
X303255Y663740D01*
X302837Y663596D01*
X302415Y663463D01*
X301990Y663339D01*
X301562Y663226D01*
X301131Y663124D01*
X300698Y663033D01*
X300263Y662952D01*
X299826Y662881D01*
X299388Y662822D01*
X298948Y662773D01*
X298507Y662735D01*
X298065Y662708D01*
X297623Y662691D01*
X297180Y662686D01*
X296737Y662691D01*
X296295Y662708D01*
X295853Y662735D01*
X295412Y662773D01*
X294972Y662822D01*
X294534Y662881D01*
X294097Y662952D01*
X293662Y663033D01*
X293229Y663124D01*
X292798Y663226D01*
X292370Y663339D01*
X291945Y663463D01*
X291523Y663596D01*
X291105Y663740D01*
X290690Y663894D01*
X290279Y664059D01*
X289872Y664233D01*
X289469Y664417D01*
X289072Y664612D01*
X288679Y664815D01*
X288291Y665029D01*
X287909Y665252D01*
X287532Y665484D01*
X287161Y665725D01*
X286796Y665976D01*
X286437Y666235D01*
X286085Y666503D01*
X285739Y666780D01*
X285401Y667064D01*
X285069Y667358D01*
X284745Y667659D01*
X284428Y667968D01*
X284119Y668285D01*
X283818Y668609D01*
X283524Y668941D01*
X283240Y669279D01*
X282963Y669625D01*
X282695Y669977D01*
X282436Y670336D01*
X282185Y670701D01*
X281944Y671072D01*
X281712Y671449D01*
X281489Y671831D01*
X281275Y672219D01*
X281072Y672612D01*
X280877Y673009D01*
X280693Y673412D01*
X280519Y673819D01*
X280354Y674230D01*
X280200Y674645D01*
X280056Y675063D01*
X279923Y675485D01*
X279799Y675910D01*
X279686Y676338D01*
X279584Y676769D01*
X279493Y677202D01*
X279412Y677637D01*
X279341Y678074D01*
X279282Y678512D01*
X279233Y678952D01*
X279195Y679393D01*
X279168Y679835D01*
X279151Y680277D01*
X279146Y680720D01*
X256244Y656971D02*
X253365Y648335D01*
X259122Y648335D02*
X256244Y656971D01*
X258403Y650494D02*
X254085Y650494D01*
X262760Y655052D02*
X265159Y656971D01*
X265159Y648335D01*
X262760Y648335D02*
X267558Y648335D01*
X271676Y656011D02*
X271676Y656971D01*
X276473Y656971D01*
X274074Y648335D01*
X280031Y648335D02*
X280511Y648335D01*
X280031Y648335D02*
X280031Y648815D01*
X280511Y648815D01*
X280511Y648335D01*
X279792Y646416D01*
X284157Y648335D02*
X287036Y648335D01*
X287122Y648337D01*
X287208Y648343D01*
X287294Y648352D01*
X287379Y648366D01*
X287463Y648383D01*
X287547Y648404D01*
X287629Y648429D01*
X287710Y648457D01*
X287790Y648489D01*
X287869Y648525D01*
X287945Y648564D01*
X288020Y648607D01*
X288093Y648652D01*
X288164Y648702D01*
X288232Y648754D01*
X288299Y648809D01*
X288362Y648867D01*
X288423Y648928D01*
X288481Y648991D01*
X288536Y649058D01*
X288589Y649126D01*
X288638Y649197D01*
X288683Y649270D01*
X288726Y649345D01*
X288765Y649421D01*
X288801Y649500D01*
X288833Y649580D01*
X288861Y649661D01*
X288886Y649744D01*
X288907Y649827D01*
X288924Y649911D01*
X288938Y649996D01*
X288947Y650082D01*
X288953Y650168D01*
X288955Y650254D01*
X288955Y651214D01*
X288953Y651300D01*
X288947Y651386D01*
X288938Y651472D01*
X288924Y651557D01*
X288907Y651641D01*
X288886Y651725D01*
X288861Y651807D01*
X288833Y651888D01*
X288801Y651968D01*
X288765Y652047D01*
X288726Y652123D01*
X288683Y652198D01*
X288638Y652271D01*
X288589Y652342D01*
X288536Y652410D01*
X288481Y652477D01*
X288423Y652540D01*
X288362Y652601D01*
X288299Y652659D01*
X288232Y652714D01*
X288164Y652767D01*
X288093Y652816D01*
X288020Y652861D01*
X287945Y652904D01*
X287869Y652943D01*
X287790Y652979D01*
X287710Y653011D01*
X287629Y653039D01*
X287547Y653064D01*
X287463Y653085D01*
X287379Y653102D01*
X287294Y653116D01*
X287208Y653125D01*
X287122Y653131D01*
X287036Y653133D01*
X284157Y653133D01*
X284157Y656971D01*
X288955Y656971D01*
X293484Y654092D02*
X293484Y648335D01*
X293484Y654092D02*
X297802Y654092D01*
X297877Y654090D01*
X297952Y654084D01*
X298027Y654074D01*
X298101Y654061D01*
X298174Y654043D01*
X298247Y654022D01*
X298318Y653996D01*
X298387Y653968D01*
X298455Y653935D01*
X298522Y653899D01*
X298586Y653860D01*
X298648Y653817D01*
X298708Y653771D01*
X298765Y653722D01*
X298820Y653671D01*
X298871Y653616D01*
X298920Y653559D01*
X298966Y653499D01*
X299009Y653437D01*
X299048Y653373D01*
X299084Y653306D01*
X299117Y653238D01*
X299145Y653169D01*
X299171Y653098D01*
X299192Y653025D01*
X299210Y652952D01*
X299223Y652878D01*
X299233Y652803D01*
X299239Y652728D01*
X299241Y652653D01*
X299241Y648335D01*
X296363Y648335D02*
X296363Y654092D01*
X304183Y654092D02*
X304183Y648335D01*
X304183Y654092D02*
X308501Y654092D01*
X308576Y654090D01*
X308651Y654084D01*
X308726Y654074D01*
X308800Y654061D01*
X308873Y654043D01*
X308946Y654022D01*
X309017Y653996D01*
X309086Y653968D01*
X309154Y653935D01*
X309221Y653899D01*
X309285Y653860D01*
X309347Y653817D01*
X309407Y653771D01*
X309464Y653722D01*
X309519Y653671D01*
X309570Y653616D01*
X309619Y653559D01*
X309665Y653499D01*
X309708Y653437D01*
X309747Y653373D01*
X309783Y653306D01*
X309816Y653238D01*
X309844Y653169D01*
X309870Y653098D01*
X309891Y653025D01*
X309909Y652952D01*
X309922Y652878D01*
X309932Y652803D01*
X309938Y652728D01*
X309940Y652653D01*
X309940Y648335D01*
X307061Y648335D02*
X307061Y654092D01*
D16*
X322580Y525145D03*
X297180Y525145D03*
X271780Y525145D03*
D17*
X271780Y542290D03*
X297180Y542290D03*
X322580Y542290D03*
D14*
X259715Y624840D02*
X259715Y629920D01*
X259717Y630031D01*
X259723Y630141D01*
X259732Y630252D01*
X259746Y630362D01*
X259763Y630471D01*
X259784Y630580D01*
X259809Y630688D01*
X259838Y630795D01*
X259870Y630901D01*
X259906Y631006D01*
X259946Y631109D01*
X259989Y631211D01*
X260036Y631312D01*
X260087Y631411D01*
X260140Y631508D01*
X260197Y631602D01*
X260258Y631695D01*
X260321Y631786D01*
X260388Y631875D01*
X260458Y631961D01*
X260531Y632044D01*
X260606Y632126D01*
X260684Y632204D01*
X260766Y632279D01*
X260849Y632352D01*
X260935Y632422D01*
X261024Y632489D01*
X261115Y632552D01*
X261208Y632613D01*
X261303Y632670D01*
X261399Y632723D01*
X261498Y632774D01*
X261599Y632821D01*
X261701Y632864D01*
X261804Y632904D01*
X261909Y632940D01*
X262015Y632972D01*
X262122Y633001D01*
X262230Y633026D01*
X262339Y633047D01*
X262448Y633064D01*
X262558Y633078D01*
X262669Y633087D01*
X262779Y633093D01*
X262890Y633095D01*
X263001Y633093D01*
X263111Y633087D01*
X263222Y633078D01*
X263332Y633064D01*
X263441Y633047D01*
X263550Y633026D01*
X263658Y633001D01*
X263765Y632972D01*
X263871Y632940D01*
X263976Y632904D01*
X264079Y632864D01*
X264181Y632821D01*
X264282Y632774D01*
X264381Y632723D01*
X264478Y632670D01*
X264572Y632613D01*
X264665Y632552D01*
X264756Y632489D01*
X264845Y632422D01*
X264931Y632352D01*
X265014Y632279D01*
X265096Y632204D01*
X265174Y632126D01*
X265249Y632044D01*
X265322Y631961D01*
X265392Y631875D01*
X265459Y631786D01*
X265522Y631695D01*
X265583Y631602D01*
X265640Y631508D01*
X265693Y631411D01*
X265744Y631312D01*
X265791Y631211D01*
X265834Y631109D01*
X265874Y631006D01*
X265910Y630901D01*
X265942Y630795D01*
X265971Y630688D01*
X265996Y630580D01*
X266017Y630471D01*
X266034Y630362D01*
X266048Y630252D01*
X266057Y630141D01*
X266063Y630031D01*
X266065Y629920D01*
X266065Y624840D01*
X266063Y624729D01*
X266057Y624619D01*
X266048Y624508D01*
X266034Y624398D01*
X266017Y624289D01*
X265996Y624180D01*
X265971Y624072D01*
X265942Y623965D01*
X265910Y623859D01*
X265874Y623754D01*
X265834Y623651D01*
X265791Y623549D01*
X265744Y623448D01*
X265693Y623349D01*
X265640Y623253D01*
X265583Y623158D01*
X265522Y623065D01*
X265459Y622974D01*
X265392Y622885D01*
X265322Y622799D01*
X265249Y622716D01*
X265174Y622634D01*
X265096Y622556D01*
X265014Y622481D01*
X264931Y622408D01*
X264845Y622338D01*
X264756Y622271D01*
X264665Y622208D01*
X264572Y622147D01*
X264477Y622090D01*
X264381Y622037D01*
X264282Y621986D01*
X264181Y621939D01*
X264079Y621896D01*
X263976Y621856D01*
X263871Y621820D01*
X263765Y621788D01*
X263658Y621759D01*
X263550Y621734D01*
X263441Y621713D01*
X263332Y621696D01*
X263222Y621682D01*
X263111Y621673D01*
X263001Y621667D01*
X262890Y621665D01*
X262779Y621667D01*
X262669Y621673D01*
X262558Y621682D01*
X262448Y621696D01*
X262339Y621713D01*
X262230Y621734D01*
X262122Y621759D01*
X262015Y621788D01*
X261909Y621820D01*
X261804Y621856D01*
X261701Y621896D01*
X261599Y621939D01*
X261498Y621986D01*
X261399Y622037D01*
X261303Y622090D01*
X261208Y622147D01*
X261115Y622208D01*
X261024Y622271D01*
X260935Y622338D01*
X260849Y622408D01*
X260766Y622481D01*
X260684Y622556D01*
X260606Y622634D01*
X260531Y622716D01*
X260458Y622799D01*
X260388Y622885D01*
X260321Y622974D01*
X260258Y623065D01*
X260197Y623158D01*
X260140Y623253D01*
X260087Y623349D01*
X260036Y623448D01*
X259989Y623549D01*
X259946Y623651D01*
X259906Y623754D01*
X259870Y623859D01*
X259838Y623965D01*
X259809Y624072D01*
X259784Y624180D01*
X259763Y624289D01*
X259746Y624398D01*
X259732Y624508D01*
X259723Y624619D01*
X259717Y624729D01*
X259715Y624840D01*
X264795Y624205D02*
X267335Y621665D01*
X270776Y630555D02*
X273951Y633095D01*
X273951Y621665D01*
X270776Y621665D02*
X277126Y621665D01*
X245110Y193040D02*
X349250Y193040D01*
X349250Y34290D02*
X245110Y34290D01*
X245110Y68580D02*
X245110Y193040D01*
X245110Y68580D02*
X254000Y68580D01*
X254000Y53340D01*
X245110Y53340D01*
X245110Y34290D01*
X349250Y68580D02*
X349250Y193040D01*
X349250Y68580D02*
X340360Y68580D01*
X340360Y53340D01*
X349250Y53340D01*
X349250Y34290D01*
D15*
X342900Y186690D02*
X251460Y186690D01*
X251460Y104140D01*
X342900Y104140D01*
X342900Y186690D01*
D14*
X279146Y68580D02*
X279151Y69023D01*
X279168Y69465D01*
X279195Y69907D01*
X279233Y70348D01*
X279282Y70788D01*
X279341Y71226D01*
X279412Y71663D01*
X279493Y72098D01*
X279584Y72531D01*
X279686Y72962D01*
X279799Y73390D01*
X279923Y73815D01*
X280056Y74237D01*
X280200Y74655D01*
X280354Y75070D01*
X280519Y75481D01*
X280693Y75888D01*
X280877Y76291D01*
X281072Y76688D01*
X281275Y77081D01*
X281489Y77469D01*
X281712Y77851D01*
X281944Y78228D01*
X282185Y78599D01*
X282436Y78964D01*
X282695Y79323D01*
X282963Y79675D01*
X283240Y80021D01*
X283524Y80359D01*
X283818Y80691D01*
X284119Y81015D01*
X284428Y81332D01*
X284745Y81641D01*
X285069Y81942D01*
X285401Y82236D01*
X285739Y82520D01*
X286085Y82797D01*
X286437Y83065D01*
X286796Y83324D01*
X287161Y83575D01*
X287532Y83816D01*
X287909Y84048D01*
X288291Y84271D01*
X288679Y84485D01*
X289072Y84688D01*
X289469Y84883D01*
X289872Y85067D01*
X290279Y85241D01*
X290690Y85406D01*
X291105Y85560D01*
X291523Y85704D01*
X291945Y85837D01*
X292370Y85961D01*
X292798Y86074D01*
X293229Y86176D01*
X293662Y86267D01*
X294097Y86348D01*
X294534Y86419D01*
X294972Y86478D01*
X295412Y86527D01*
X295853Y86565D01*
X296295Y86592D01*
X296737Y86609D01*
X297180Y86614D01*
X297623Y86609D01*
X298065Y86592D01*
X298507Y86565D01*
X298948Y86527D01*
X299388Y86478D01*
X299826Y86419D01*
X300263Y86348D01*
X300698Y86267D01*
X301131Y86176D01*
X301562Y86074D01*
X301990Y85961D01*
X302415Y85837D01*
X302837Y85704D01*
X303255Y85560D01*
X303670Y85406D01*
X304081Y85241D01*
X304488Y85067D01*
X304891Y84883D01*
X305288Y84688D01*
X305681Y84485D01*
X306069Y84271D01*
X306451Y84048D01*
X306828Y83816D01*
X307199Y83575D01*
X307564Y83324D01*
X307923Y83065D01*
X308275Y82797D01*
X308621Y82520D01*
X308959Y82236D01*
X309291Y81942D01*
X309615Y81641D01*
X309932Y81332D01*
X310241Y81015D01*
X310542Y80691D01*
X310836Y80359D01*
X311120Y80021D01*
X311397Y79675D01*
X311665Y79323D01*
X311924Y78964D01*
X312175Y78599D01*
X312416Y78228D01*
X312648Y77851D01*
X312871Y77469D01*
X313085Y77081D01*
X313288Y76688D01*
X313483Y76291D01*
X313667Y75888D01*
X313841Y75481D01*
X314006Y75070D01*
X314160Y74655D01*
X314304Y74237D01*
X314437Y73815D01*
X314561Y73390D01*
X314674Y72962D01*
X314776Y72531D01*
X314867Y72098D01*
X314948Y71663D01*
X315019Y71226D01*
X315078Y70788D01*
X315127Y70348D01*
X315165Y69907D01*
X315192Y69465D01*
X315209Y69023D01*
X315214Y68580D01*
X315209Y68137D01*
X315192Y67695D01*
X315165Y67253D01*
X315127Y66812D01*
X315078Y66372D01*
X315019Y65934D01*
X314948Y65497D01*
X314867Y65062D01*
X314776Y64629D01*
X314674Y64198D01*
X314561Y63770D01*
X314437Y63345D01*
X314304Y62923D01*
X314160Y62505D01*
X314006Y62090D01*
X313841Y61679D01*
X313667Y61272D01*
X313483Y60869D01*
X313288Y60472D01*
X313085Y60079D01*
X312871Y59691D01*
X312648Y59309D01*
X312416Y58932D01*
X312175Y58561D01*
X311924Y58196D01*
X311665Y57837D01*
X311397Y57485D01*
X311120Y57139D01*
X310836Y56801D01*
X310542Y56469D01*
X310241Y56145D01*
X309932Y55828D01*
X309615Y55519D01*
X309291Y55218D01*
X308959Y54924D01*
X308621Y54640D01*
X308275Y54363D01*
X307923Y54095D01*
X307564Y53836D01*
X307199Y53585D01*
X306828Y53344D01*
X306451Y53112D01*
X306069Y52889D01*
X305681Y52675D01*
X305288Y52472D01*
X304891Y52277D01*
X304488Y52093D01*
X304081Y51919D01*
X303670Y51754D01*
X303255Y51600D01*
X302837Y51456D01*
X302415Y51323D01*
X301990Y51199D01*
X301562Y51086D01*
X301131Y50984D01*
X300698Y50893D01*
X300263Y50812D01*
X299826Y50741D01*
X299388Y50682D01*
X298948Y50633D01*
X298507Y50595D01*
X298065Y50568D01*
X297623Y50551D01*
X297180Y50546D01*
X296737Y50551D01*
X296295Y50568D01*
X295853Y50595D01*
X295412Y50633D01*
X294972Y50682D01*
X294534Y50741D01*
X294097Y50812D01*
X293662Y50893D01*
X293229Y50984D01*
X292798Y51086D01*
X292370Y51199D01*
X291945Y51323D01*
X291523Y51456D01*
X291105Y51600D01*
X290690Y51754D01*
X290279Y51919D01*
X289872Y52093D01*
X289469Y52277D01*
X289072Y52472D01*
X288679Y52675D01*
X288291Y52889D01*
X287909Y53112D01*
X287532Y53344D01*
X287161Y53585D01*
X286796Y53836D01*
X286437Y54095D01*
X286085Y54363D01*
X285739Y54640D01*
X285401Y54924D01*
X285069Y55218D01*
X284745Y55519D01*
X284428Y55828D01*
X284119Y56145D01*
X283818Y56469D01*
X283524Y56801D01*
X283240Y57139D01*
X282963Y57485D01*
X282695Y57837D01*
X282436Y58196D01*
X282185Y58561D01*
X281944Y58932D01*
X281712Y59309D01*
X281489Y59691D01*
X281275Y60079D01*
X281072Y60472D01*
X280877Y60869D01*
X280693Y61272D01*
X280519Y61679D01*
X280354Y62090D01*
X280200Y62505D01*
X280056Y62923D01*
X279923Y63345D01*
X279799Y63770D01*
X279686Y64198D01*
X279584Y64629D01*
X279493Y65062D01*
X279412Y65497D01*
X279341Y65934D01*
X279282Y66372D01*
X279233Y66812D01*
X279195Y67253D01*
X279168Y67695D01*
X279151Y68137D01*
X279146Y68580D01*
X284420Y92329D02*
X287299Y100965D01*
X290177Y92329D01*
X289458Y94488D02*
X285140Y94488D01*
X293815Y99046D02*
X296214Y100965D01*
X296214Y92329D01*
X293815Y92329D02*
X298613Y92329D01*
X302731Y100005D02*
X302731Y100965D01*
X307528Y100965D01*
X305130Y92329D01*
X311087Y92329D02*
X311566Y92329D01*
X311087Y92329D02*
X311087Y92809D01*
X311566Y92809D01*
X311566Y92329D01*
X310847Y90410D01*
X315212Y92329D02*
X318091Y92329D01*
X318177Y92331D01*
X318263Y92337D01*
X318349Y92346D01*
X318434Y92360D01*
X318518Y92377D01*
X318602Y92398D01*
X318684Y92423D01*
X318765Y92451D01*
X318845Y92483D01*
X318924Y92519D01*
X319000Y92558D01*
X319075Y92601D01*
X319148Y92646D01*
X319219Y92696D01*
X319287Y92748D01*
X319354Y92803D01*
X319417Y92861D01*
X319478Y92922D01*
X319536Y92985D01*
X319591Y93052D01*
X319644Y93120D01*
X319693Y93191D01*
X319738Y93264D01*
X319781Y93339D01*
X319820Y93415D01*
X319856Y93494D01*
X319888Y93574D01*
X319916Y93655D01*
X319941Y93738D01*
X319962Y93821D01*
X319979Y93905D01*
X319993Y93990D01*
X320002Y94076D01*
X320008Y94162D01*
X320010Y94248D01*
X320010Y95208D01*
X320008Y95294D01*
X320002Y95380D01*
X319993Y95466D01*
X319979Y95551D01*
X319962Y95635D01*
X319941Y95719D01*
X319916Y95801D01*
X319888Y95882D01*
X319856Y95962D01*
X319820Y96041D01*
X319781Y96117D01*
X319738Y96192D01*
X319693Y96265D01*
X319644Y96336D01*
X319591Y96404D01*
X319536Y96471D01*
X319478Y96534D01*
X319417Y96595D01*
X319354Y96653D01*
X319287Y96708D01*
X319219Y96761D01*
X319148Y96810D01*
X319075Y96855D01*
X319000Y96898D01*
X318924Y96937D01*
X318845Y96973D01*
X318765Y97005D01*
X318684Y97033D01*
X318602Y97058D01*
X318518Y97079D01*
X318434Y97096D01*
X318349Y97110D01*
X318263Y97119D01*
X318177Y97125D01*
X318091Y97127D01*
X315212Y97127D01*
X315212Y100965D01*
X320010Y100965D01*
X324539Y98086D02*
X324539Y92329D01*
X324539Y98086D02*
X328857Y98086D01*
X328932Y98084D01*
X329007Y98078D01*
X329082Y98068D01*
X329156Y98055D01*
X329229Y98037D01*
X329302Y98016D01*
X329373Y97990D01*
X329442Y97962D01*
X329510Y97929D01*
X329577Y97893D01*
X329641Y97854D01*
X329703Y97811D01*
X329763Y97765D01*
X329820Y97716D01*
X329875Y97665D01*
X329926Y97610D01*
X329975Y97553D01*
X330021Y97493D01*
X330064Y97431D01*
X330103Y97367D01*
X330139Y97300D01*
X330172Y97232D01*
X330200Y97163D01*
X330226Y97092D01*
X330247Y97019D01*
X330265Y96946D01*
X330278Y96872D01*
X330288Y96797D01*
X330294Y96722D01*
X330296Y96647D01*
X330297Y96647D02*
X330297Y92329D01*
X327418Y92329D02*
X327418Y98086D01*
X335238Y98086D02*
X335238Y92329D01*
X335238Y98086D02*
X339556Y98086D01*
X339631Y98084D01*
X339706Y98078D01*
X339781Y98068D01*
X339855Y98055D01*
X339928Y98037D01*
X340001Y98016D01*
X340072Y97990D01*
X340141Y97962D01*
X340209Y97929D01*
X340276Y97893D01*
X340340Y97854D01*
X340402Y97811D01*
X340462Y97765D01*
X340519Y97716D01*
X340574Y97665D01*
X340625Y97610D01*
X340674Y97553D01*
X340720Y97493D01*
X340763Y97431D01*
X340802Y97367D01*
X340838Y97300D01*
X340871Y97232D01*
X340899Y97163D01*
X340925Y97092D01*
X340946Y97019D01*
X340964Y96946D01*
X340977Y96872D01*
X340987Y96797D01*
X340993Y96722D01*
X340995Y96647D01*
X340995Y92329D01*
X338116Y92329D02*
X338116Y98086D01*
D16*
X271780Y224155D03*
X297180Y224155D03*
X322580Y224155D03*
D17*
X322580Y207010D03*
X297180Y207010D03*
X271780Y207010D03*
D14*
X317234Y124460D02*
X317234Y119380D01*
X317234Y124460D02*
X317236Y124571D01*
X317242Y124681D01*
X317251Y124792D01*
X317265Y124902D01*
X317282Y125011D01*
X317303Y125120D01*
X317328Y125228D01*
X317357Y125335D01*
X317389Y125441D01*
X317425Y125546D01*
X317465Y125649D01*
X317508Y125751D01*
X317555Y125852D01*
X317606Y125951D01*
X317659Y126047D01*
X317716Y126142D01*
X317777Y126235D01*
X317840Y126326D01*
X317907Y126415D01*
X317977Y126501D01*
X318050Y126584D01*
X318125Y126666D01*
X318203Y126744D01*
X318285Y126819D01*
X318368Y126892D01*
X318454Y126962D01*
X318543Y127029D01*
X318634Y127092D01*
X318727Y127153D01*
X318822Y127210D01*
X318918Y127263D01*
X319017Y127314D01*
X319118Y127361D01*
X319220Y127404D01*
X319323Y127444D01*
X319428Y127480D01*
X319534Y127512D01*
X319641Y127541D01*
X319749Y127566D01*
X319858Y127587D01*
X319967Y127604D01*
X320077Y127618D01*
X320188Y127627D01*
X320298Y127633D01*
X320409Y127635D01*
X320520Y127633D01*
X320630Y127627D01*
X320741Y127618D01*
X320851Y127604D01*
X320960Y127587D01*
X321069Y127566D01*
X321177Y127541D01*
X321284Y127512D01*
X321390Y127480D01*
X321495Y127444D01*
X321598Y127404D01*
X321700Y127361D01*
X321801Y127314D01*
X321900Y127263D01*
X321997Y127210D01*
X322091Y127153D01*
X322184Y127092D01*
X322275Y127029D01*
X322364Y126962D01*
X322450Y126892D01*
X322533Y126819D01*
X322615Y126744D01*
X322693Y126666D01*
X322768Y126584D01*
X322841Y126501D01*
X322911Y126415D01*
X322978Y126326D01*
X323041Y126235D01*
X323102Y126142D01*
X323159Y126048D01*
X323212Y125951D01*
X323263Y125852D01*
X323310Y125751D01*
X323353Y125649D01*
X323393Y125546D01*
X323429Y125441D01*
X323461Y125335D01*
X323490Y125228D01*
X323515Y125120D01*
X323536Y125011D01*
X323553Y124902D01*
X323567Y124792D01*
X323576Y124681D01*
X323582Y124571D01*
X323584Y124460D01*
X323584Y119380D01*
X323582Y119269D01*
X323576Y119159D01*
X323567Y119048D01*
X323553Y118938D01*
X323536Y118829D01*
X323515Y118720D01*
X323490Y118612D01*
X323461Y118505D01*
X323429Y118399D01*
X323393Y118294D01*
X323353Y118191D01*
X323310Y118089D01*
X323263Y117988D01*
X323212Y117889D01*
X323159Y117792D01*
X323102Y117698D01*
X323041Y117605D01*
X322978Y117514D01*
X322911Y117425D01*
X322841Y117339D01*
X322768Y117256D01*
X322693Y117174D01*
X322615Y117096D01*
X322533Y117021D01*
X322450Y116948D01*
X322364Y116878D01*
X322275Y116811D01*
X322184Y116748D01*
X322091Y116687D01*
X321996Y116630D01*
X321900Y116577D01*
X321801Y116526D01*
X321700Y116479D01*
X321598Y116436D01*
X321495Y116396D01*
X321390Y116360D01*
X321284Y116328D01*
X321177Y116299D01*
X321069Y116274D01*
X320960Y116253D01*
X320851Y116236D01*
X320741Y116222D01*
X320630Y116213D01*
X320520Y116207D01*
X320409Y116205D01*
X320298Y116207D01*
X320188Y116213D01*
X320077Y116222D01*
X319967Y116236D01*
X319858Y116253D01*
X319749Y116274D01*
X319641Y116299D01*
X319534Y116328D01*
X319428Y116360D01*
X319323Y116396D01*
X319220Y116436D01*
X319118Y116479D01*
X319017Y116526D01*
X318918Y116577D01*
X318822Y116630D01*
X318727Y116687D01*
X318634Y116748D01*
X318543Y116811D01*
X318454Y116878D01*
X318368Y116948D01*
X318285Y117021D01*
X318203Y117096D01*
X318125Y117174D01*
X318050Y117256D01*
X317977Y117339D01*
X317907Y117425D01*
X317840Y117514D01*
X317777Y117605D01*
X317716Y117698D01*
X317659Y117793D01*
X317606Y117889D01*
X317555Y117988D01*
X317508Y118089D01*
X317465Y118191D01*
X317425Y118294D01*
X317389Y118399D01*
X317357Y118505D01*
X317328Y118612D01*
X317303Y118720D01*
X317282Y118829D01*
X317265Y118938D01*
X317251Y119048D01*
X317242Y119159D01*
X317236Y119269D01*
X317234Y119380D01*
X322314Y118745D02*
X324854Y116205D01*
X334646Y124778D02*
X334644Y124882D01*
X334638Y124987D01*
X334629Y125091D01*
X334616Y125194D01*
X334598Y125297D01*
X334578Y125399D01*
X334553Y125501D01*
X334525Y125601D01*
X334493Y125701D01*
X334457Y125799D01*
X334418Y125896D01*
X334376Y125991D01*
X334330Y126085D01*
X334280Y126177D01*
X334228Y126267D01*
X334172Y126355D01*
X334112Y126441D01*
X334050Y126525D01*
X333985Y126606D01*
X333917Y126685D01*
X333845Y126762D01*
X333772Y126835D01*
X333695Y126907D01*
X333616Y126975D01*
X333535Y127040D01*
X333451Y127102D01*
X333365Y127162D01*
X333277Y127218D01*
X333187Y127270D01*
X333095Y127320D01*
X333001Y127366D01*
X332906Y127408D01*
X332809Y127447D01*
X332711Y127483D01*
X332611Y127515D01*
X332511Y127543D01*
X332409Y127568D01*
X332307Y127588D01*
X332204Y127606D01*
X332101Y127619D01*
X331997Y127628D01*
X331892Y127634D01*
X331788Y127636D01*
X331788Y127635D02*
X331670Y127633D01*
X331551Y127627D01*
X331433Y127618D01*
X331316Y127605D01*
X331199Y127587D01*
X331082Y127567D01*
X330966Y127542D01*
X330851Y127514D01*
X330738Y127481D01*
X330625Y127446D01*
X330513Y127406D01*
X330403Y127364D01*
X330294Y127317D01*
X330186Y127267D01*
X330081Y127214D01*
X329977Y127157D01*
X329875Y127097D01*
X329775Y127034D01*
X329677Y126967D01*
X329581Y126898D01*
X329488Y126825D01*
X329397Y126749D01*
X329308Y126671D01*
X329222Y126589D01*
X329139Y126505D01*
X329058Y126419D01*
X328981Y126329D01*
X328906Y126238D01*
X328834Y126144D01*
X328765Y126047D01*
X328700Y125949D01*
X328637Y125848D01*
X328578Y125745D01*
X328522Y125641D01*
X328470Y125535D01*
X328421Y125427D01*
X328376Y125318D01*
X328334Y125207D01*
X328296Y125095D01*
X333693Y122556D02*
X333769Y122631D01*
X333844Y122710D01*
X333915Y122791D01*
X333984Y122875D01*
X334049Y122961D01*
X334111Y123049D01*
X334171Y123139D01*
X334227Y123231D01*
X334280Y123326D01*
X334329Y123422D01*
X334375Y123520D01*
X334418Y123619D01*
X334457Y123720D01*
X334492Y123822D01*
X334524Y123925D01*
X334552Y124029D01*
X334577Y124134D01*
X334598Y124241D01*
X334615Y124347D01*
X334628Y124454D01*
X334637Y124562D01*
X334643Y124670D01*
X334645Y124778D01*
X333693Y122555D02*
X328295Y116205D01*
X334645Y116205D01*
X128270Y120010D02*
X128270Y78110D01*
X156139Y74930D02*
X156723Y75213D01*
X157299Y75511D01*
X157868Y75822D01*
X158429Y76147D01*
X158982Y76486D01*
X159527Y76838D01*
X160063Y77203D01*
X160590Y77581D01*
X161107Y77972D01*
X161615Y78375D01*
X162113Y78791D01*
X162601Y79218D01*
X163078Y79657D01*
X163545Y80108D01*
X164000Y80570D01*
X164444Y81043D01*
X164876Y81526D01*
X165297Y82020D01*
X165705Y82524D01*
X166101Y83038D01*
X166484Y83561D01*
X166855Y84093D01*
X167212Y84635D01*
X167556Y85184D01*
X167887Y85742D01*
X168204Y86308D01*
X168507Y86881D01*
X168796Y87462D01*
X169071Y88049D01*
X169332Y88643D01*
X169578Y89243D01*
X169809Y89849D01*
X170026Y90461D01*
X170227Y91077D01*
X170414Y91698D01*
X170585Y92324D01*
X170741Y92953D01*
X170882Y93586D01*
X171008Y94223D01*
X171117Y94862D01*
X171212Y95503D01*
X171290Y96147D01*
X171353Y96793D01*
X171401Y97440D01*
X171432Y98087D01*
X171448Y98736D01*
X171448Y99384D01*
X171432Y100033D01*
X171401Y100680D01*
X171353Y101327D01*
X171290Y101973D01*
X171212Y102617D01*
X171117Y103258D01*
X171008Y103897D01*
X170882Y104534D01*
X170741Y105167D01*
X170585Y105796D01*
X170414Y106422D01*
X170227Y107043D01*
X170026Y107659D01*
X169809Y108271D01*
X169578Y108877D01*
X169332Y109477D01*
X169071Y110071D01*
X168796Y110658D01*
X168507Y111239D01*
X168204Y111812D01*
X167887Y112378D01*
X167556Y112936D01*
X167212Y113485D01*
X166855Y114027D01*
X166484Y114559D01*
X166101Y115082D01*
X165705Y115596D01*
X165297Y116100D01*
X164876Y116594D01*
X164444Y117077D01*
X164000Y117550D01*
X163545Y118012D01*
X163078Y118463D01*
X162601Y118902D01*
X162113Y119329D01*
X161615Y119745D01*
X161107Y120148D01*
X160590Y120539D01*
X160063Y120917D01*
X159527Y121282D01*
X158982Y121634D01*
X158429Y121973D01*
X157868Y122298D01*
X157299Y122609D01*
X156723Y122907D01*
X156139Y123190D01*
X133421Y123195D02*
X132875Y122930D01*
X132335Y122653D01*
X131802Y122364D01*
X131275Y122062D01*
X130755Y121749D01*
X130242Y121424D01*
X129737Y121087D01*
X129240Y120739D01*
X128751Y120380D01*
X128270Y120010D01*
X143510Y113100D02*
X143510Y110420D01*
X143510Y87700D02*
X143510Y85020D01*
X133662Y74813D02*
X133089Y75084D01*
X132523Y75369D01*
X131964Y75666D01*
X131412Y75977D01*
X130868Y76302D01*
X130332Y76638D01*
X129803Y76988D01*
X129283Y77350D01*
X128772Y77724D01*
X128270Y78110D01*
X175895Y97790D02*
X175895Y102870D01*
X175897Y102981D01*
X175903Y103091D01*
X175912Y103202D01*
X175926Y103312D01*
X175943Y103421D01*
X175964Y103530D01*
X175989Y103638D01*
X176018Y103745D01*
X176050Y103851D01*
X176086Y103956D01*
X176126Y104059D01*
X176169Y104161D01*
X176216Y104262D01*
X176267Y104361D01*
X176320Y104457D01*
X176377Y104552D01*
X176438Y104645D01*
X176501Y104736D01*
X176568Y104825D01*
X176638Y104911D01*
X176711Y104994D01*
X176786Y105076D01*
X176864Y105154D01*
X176946Y105229D01*
X177029Y105302D01*
X177115Y105372D01*
X177204Y105439D01*
X177295Y105502D01*
X177388Y105563D01*
X177483Y105620D01*
X177579Y105673D01*
X177678Y105724D01*
X177779Y105771D01*
X177881Y105814D01*
X177984Y105854D01*
X178089Y105890D01*
X178195Y105922D01*
X178302Y105951D01*
X178410Y105976D01*
X178519Y105997D01*
X178628Y106014D01*
X178738Y106028D01*
X178849Y106037D01*
X178959Y106043D01*
X179070Y106045D01*
X179181Y106043D01*
X179291Y106037D01*
X179402Y106028D01*
X179512Y106014D01*
X179621Y105997D01*
X179730Y105976D01*
X179838Y105951D01*
X179945Y105922D01*
X180051Y105890D01*
X180156Y105854D01*
X180259Y105814D01*
X180361Y105771D01*
X180462Y105724D01*
X180561Y105673D01*
X180658Y105620D01*
X180752Y105563D01*
X180845Y105502D01*
X180936Y105439D01*
X181025Y105372D01*
X181111Y105302D01*
X181194Y105229D01*
X181276Y105154D01*
X181354Y105076D01*
X181429Y104994D01*
X181502Y104911D01*
X181572Y104825D01*
X181639Y104736D01*
X181702Y104645D01*
X181763Y104552D01*
X181820Y104458D01*
X181873Y104361D01*
X181924Y104262D01*
X181971Y104161D01*
X182014Y104059D01*
X182054Y103956D01*
X182090Y103851D01*
X182122Y103745D01*
X182151Y103638D01*
X182176Y103530D01*
X182197Y103421D01*
X182214Y103312D01*
X182228Y103202D01*
X182237Y103091D01*
X182243Y102981D01*
X182245Y102870D01*
X182245Y97790D01*
X182243Y97679D01*
X182237Y97569D01*
X182228Y97458D01*
X182214Y97348D01*
X182197Y97239D01*
X182176Y97130D01*
X182151Y97022D01*
X182122Y96915D01*
X182090Y96809D01*
X182054Y96704D01*
X182014Y96601D01*
X181971Y96499D01*
X181924Y96398D01*
X181873Y96299D01*
X181820Y96202D01*
X181763Y96108D01*
X181702Y96015D01*
X181639Y95924D01*
X181572Y95835D01*
X181502Y95749D01*
X181429Y95666D01*
X181354Y95584D01*
X181276Y95506D01*
X181194Y95431D01*
X181111Y95358D01*
X181025Y95288D01*
X180936Y95221D01*
X180845Y95158D01*
X180752Y95097D01*
X180657Y95040D01*
X180561Y94987D01*
X180462Y94936D01*
X180361Y94889D01*
X180259Y94846D01*
X180156Y94806D01*
X180051Y94770D01*
X179945Y94738D01*
X179838Y94709D01*
X179730Y94684D01*
X179621Y94663D01*
X179512Y94646D01*
X179402Y94632D01*
X179291Y94623D01*
X179181Y94617D01*
X179070Y94615D01*
X178959Y94617D01*
X178849Y94623D01*
X178738Y94632D01*
X178628Y94646D01*
X178519Y94663D01*
X178410Y94684D01*
X178302Y94709D01*
X178195Y94738D01*
X178089Y94770D01*
X177984Y94806D01*
X177881Y94846D01*
X177779Y94889D01*
X177678Y94936D01*
X177579Y94987D01*
X177483Y95040D01*
X177388Y95097D01*
X177295Y95158D01*
X177204Y95221D01*
X177115Y95288D01*
X177029Y95358D01*
X176946Y95431D01*
X176864Y95506D01*
X176786Y95584D01*
X176711Y95666D01*
X176638Y95749D01*
X176568Y95835D01*
X176501Y95924D01*
X176438Y96015D01*
X176377Y96108D01*
X176320Y96203D01*
X176267Y96299D01*
X176216Y96398D01*
X176169Y96499D01*
X176126Y96601D01*
X176086Y96704D01*
X176050Y96809D01*
X176018Y96915D01*
X175989Y97022D01*
X175964Y97130D01*
X175943Y97239D01*
X175926Y97348D01*
X175912Y97458D01*
X175903Y97569D01*
X175897Y97679D01*
X175895Y97790D01*
X180975Y97155D02*
X183515Y94615D01*
X186956Y97155D02*
X189496Y106045D01*
X186956Y97155D02*
X193306Y97155D01*
X191401Y99695D02*
X191401Y94615D01*
X161290Y634370D02*
X161290Y676270D01*
X133421Y679450D02*
X132837Y679167D01*
X132261Y678869D01*
X131692Y678558D01*
X131131Y678233D01*
X130578Y677894D01*
X130033Y677542D01*
X129497Y677177D01*
X128970Y676799D01*
X128453Y676408D01*
X127945Y676005D01*
X127447Y675589D01*
X126959Y675162D01*
X126482Y674723D01*
X126015Y674272D01*
X125560Y673810D01*
X125116Y673337D01*
X124684Y672854D01*
X124263Y672360D01*
X123855Y671856D01*
X123459Y671342D01*
X123076Y670819D01*
X122705Y670287D01*
X122348Y669745D01*
X122004Y669196D01*
X121673Y668638D01*
X121356Y668072D01*
X121053Y667499D01*
X120764Y666918D01*
X120489Y666331D01*
X120228Y665737D01*
X119982Y665137D01*
X119751Y664531D01*
X119534Y663919D01*
X119333Y663303D01*
X119146Y662682D01*
X118975Y662056D01*
X118819Y661427D01*
X118678Y660794D01*
X118552Y660157D01*
X118443Y659518D01*
X118348Y658877D01*
X118270Y658233D01*
X118207Y657587D01*
X118159Y656940D01*
X118128Y656293D01*
X118112Y655644D01*
X118112Y654996D01*
X118128Y654347D01*
X118159Y653700D01*
X118207Y653053D01*
X118270Y652407D01*
X118348Y651763D01*
X118443Y651122D01*
X118552Y650483D01*
X118678Y649846D01*
X118819Y649213D01*
X118975Y648584D01*
X119146Y647958D01*
X119333Y647337D01*
X119534Y646721D01*
X119751Y646109D01*
X119982Y645503D01*
X120228Y644903D01*
X120489Y644309D01*
X120764Y643722D01*
X121053Y643141D01*
X121356Y642568D01*
X121673Y642002D01*
X122004Y641444D01*
X122348Y640895D01*
X122705Y640353D01*
X123076Y639821D01*
X123459Y639298D01*
X123855Y638784D01*
X124263Y638280D01*
X124684Y637786D01*
X125116Y637303D01*
X125560Y636830D01*
X126015Y636368D01*
X126482Y635917D01*
X126959Y635478D01*
X127447Y635051D01*
X127945Y634635D01*
X128453Y634232D01*
X128970Y633841D01*
X129497Y633463D01*
X130033Y633098D01*
X130578Y632746D01*
X131131Y632407D01*
X131692Y632082D01*
X132261Y631771D01*
X132837Y631473D01*
X133421Y631190D01*
X156139Y631185D02*
X156685Y631450D01*
X157225Y631727D01*
X157758Y632016D01*
X158285Y632318D01*
X158805Y632631D01*
X159318Y632956D01*
X159823Y633293D01*
X160320Y633641D01*
X160809Y634000D01*
X161290Y634370D01*
X146050Y641280D02*
X146050Y643960D01*
X146050Y666680D02*
X146050Y669360D01*
X155898Y679567D02*
X156471Y679296D01*
X157037Y679011D01*
X157596Y678714D01*
X158148Y678403D01*
X158692Y678078D01*
X159228Y677742D01*
X159757Y677392D01*
X160277Y677030D01*
X160788Y676656D01*
X161290Y676270D01*
X168275Y659130D02*
X168275Y654050D01*
X168275Y659130D02*
X168277Y659241D01*
X168283Y659351D01*
X168292Y659462D01*
X168306Y659572D01*
X168323Y659681D01*
X168344Y659790D01*
X168369Y659898D01*
X168398Y660005D01*
X168430Y660111D01*
X168466Y660216D01*
X168506Y660319D01*
X168549Y660421D01*
X168596Y660522D01*
X168647Y660621D01*
X168700Y660718D01*
X168757Y660812D01*
X168818Y660905D01*
X168881Y660996D01*
X168948Y661085D01*
X169018Y661171D01*
X169091Y661254D01*
X169166Y661336D01*
X169244Y661414D01*
X169326Y661489D01*
X169409Y661562D01*
X169495Y661632D01*
X169584Y661699D01*
X169675Y661762D01*
X169768Y661823D01*
X169863Y661880D01*
X169959Y661933D01*
X170058Y661984D01*
X170159Y662031D01*
X170261Y662074D01*
X170364Y662114D01*
X170469Y662150D01*
X170575Y662182D01*
X170682Y662211D01*
X170790Y662236D01*
X170899Y662257D01*
X171008Y662274D01*
X171118Y662288D01*
X171229Y662297D01*
X171339Y662303D01*
X171450Y662305D01*
X171561Y662303D01*
X171671Y662297D01*
X171782Y662288D01*
X171892Y662274D01*
X172001Y662257D01*
X172110Y662236D01*
X172218Y662211D01*
X172325Y662182D01*
X172431Y662150D01*
X172536Y662114D01*
X172639Y662074D01*
X172741Y662031D01*
X172842Y661984D01*
X172941Y661933D01*
X173038Y661880D01*
X173132Y661823D01*
X173225Y661762D01*
X173316Y661699D01*
X173405Y661632D01*
X173491Y661562D01*
X173574Y661489D01*
X173656Y661414D01*
X173734Y661336D01*
X173809Y661254D01*
X173882Y661171D01*
X173952Y661085D01*
X174019Y660996D01*
X174082Y660905D01*
X174143Y660812D01*
X174200Y660718D01*
X174253Y660621D01*
X174304Y660522D01*
X174351Y660421D01*
X174394Y660319D01*
X174434Y660216D01*
X174470Y660111D01*
X174502Y660005D01*
X174531Y659898D01*
X174556Y659790D01*
X174577Y659681D01*
X174594Y659572D01*
X174608Y659462D01*
X174617Y659351D01*
X174623Y659241D01*
X174625Y659130D01*
X174625Y654050D01*
X174623Y653939D01*
X174617Y653829D01*
X174608Y653718D01*
X174594Y653608D01*
X174577Y653499D01*
X174556Y653390D01*
X174531Y653282D01*
X174502Y653175D01*
X174470Y653069D01*
X174434Y652964D01*
X174394Y652861D01*
X174351Y652759D01*
X174304Y652658D01*
X174253Y652559D01*
X174200Y652463D01*
X174143Y652368D01*
X174082Y652275D01*
X174019Y652184D01*
X173952Y652095D01*
X173882Y652009D01*
X173809Y651926D01*
X173734Y651844D01*
X173656Y651766D01*
X173574Y651691D01*
X173491Y651618D01*
X173405Y651548D01*
X173316Y651481D01*
X173225Y651418D01*
X173132Y651357D01*
X173037Y651300D01*
X172941Y651247D01*
X172842Y651196D01*
X172741Y651149D01*
X172639Y651106D01*
X172536Y651066D01*
X172431Y651030D01*
X172325Y650998D01*
X172218Y650969D01*
X172110Y650944D01*
X172001Y650923D01*
X171892Y650906D01*
X171782Y650892D01*
X171671Y650883D01*
X171561Y650877D01*
X171450Y650875D01*
X171339Y650877D01*
X171229Y650883D01*
X171118Y650892D01*
X171008Y650906D01*
X170899Y650923D01*
X170790Y650944D01*
X170682Y650969D01*
X170575Y650998D01*
X170469Y651030D01*
X170364Y651066D01*
X170261Y651106D01*
X170159Y651149D01*
X170058Y651196D01*
X169959Y651247D01*
X169863Y651300D01*
X169768Y651357D01*
X169675Y651418D01*
X169584Y651481D01*
X169495Y651548D01*
X169409Y651618D01*
X169326Y651691D01*
X169244Y651766D01*
X169166Y651844D01*
X169091Y651926D01*
X169018Y652009D01*
X168948Y652095D01*
X168881Y652184D01*
X168818Y652275D01*
X168757Y652368D01*
X168700Y652463D01*
X168647Y652559D01*
X168596Y652658D01*
X168549Y652759D01*
X168506Y652861D01*
X168466Y652964D01*
X168430Y653069D01*
X168398Y653175D01*
X168369Y653282D01*
X168344Y653390D01*
X168323Y653499D01*
X168306Y653608D01*
X168292Y653718D01*
X168283Y653829D01*
X168277Y653939D01*
X168275Y654050D01*
X173355Y653415D02*
X175895Y650875D01*
X179336Y650875D02*
X182511Y650875D01*
X182622Y650877D01*
X182732Y650883D01*
X182843Y650892D01*
X182953Y650906D01*
X183062Y650923D01*
X183171Y650944D01*
X183279Y650969D01*
X183386Y650998D01*
X183492Y651030D01*
X183597Y651066D01*
X183700Y651106D01*
X183802Y651149D01*
X183903Y651196D01*
X184002Y651247D01*
X184098Y651300D01*
X184193Y651357D01*
X184286Y651418D01*
X184377Y651481D01*
X184466Y651548D01*
X184552Y651618D01*
X184635Y651691D01*
X184717Y651766D01*
X184795Y651844D01*
X184870Y651926D01*
X184943Y652009D01*
X185013Y652095D01*
X185080Y652184D01*
X185143Y652275D01*
X185204Y652368D01*
X185261Y652463D01*
X185314Y652559D01*
X185365Y652658D01*
X185412Y652759D01*
X185455Y652861D01*
X185495Y652964D01*
X185531Y653069D01*
X185563Y653175D01*
X185592Y653282D01*
X185617Y653390D01*
X185638Y653499D01*
X185655Y653608D01*
X185669Y653718D01*
X185678Y653829D01*
X185684Y653939D01*
X185686Y654050D01*
X185684Y654161D01*
X185678Y654271D01*
X185669Y654382D01*
X185655Y654492D01*
X185638Y654601D01*
X185617Y654710D01*
X185592Y654818D01*
X185563Y654925D01*
X185531Y655031D01*
X185495Y655136D01*
X185455Y655239D01*
X185412Y655341D01*
X185365Y655442D01*
X185314Y655541D01*
X185261Y655637D01*
X185204Y655732D01*
X185143Y655825D01*
X185080Y655916D01*
X185013Y656005D01*
X184943Y656091D01*
X184870Y656174D01*
X184795Y656256D01*
X184717Y656334D01*
X184635Y656409D01*
X184552Y656482D01*
X184466Y656552D01*
X184377Y656619D01*
X184286Y656682D01*
X184193Y656743D01*
X184099Y656800D01*
X184002Y656853D01*
X183903Y656904D01*
X183802Y656951D01*
X183700Y656994D01*
X183597Y657034D01*
X183492Y657070D01*
X183386Y657102D01*
X183279Y657131D01*
X183171Y657156D01*
X183062Y657177D01*
X182953Y657194D01*
X182843Y657208D01*
X182732Y657217D01*
X182622Y657223D01*
X182511Y657225D01*
X183146Y662305D02*
X179336Y662305D01*
X183146Y662305D02*
X183246Y662303D01*
X183345Y662297D01*
X183445Y662287D01*
X183543Y662274D01*
X183642Y662256D01*
X183739Y662235D01*
X183835Y662210D01*
X183931Y662181D01*
X184025Y662148D01*
X184118Y662112D01*
X184209Y662072D01*
X184299Y662028D01*
X184387Y661981D01*
X184473Y661931D01*
X184557Y661877D01*
X184639Y661820D01*
X184718Y661760D01*
X184796Y661696D01*
X184870Y661630D01*
X184942Y661561D01*
X185011Y661489D01*
X185077Y661415D01*
X185141Y661337D01*
X185201Y661258D01*
X185258Y661176D01*
X185312Y661092D01*
X185362Y661006D01*
X185409Y660918D01*
X185453Y660828D01*
X185493Y660737D01*
X185529Y660644D01*
X185562Y660550D01*
X185591Y660454D01*
X185616Y660358D01*
X185637Y660261D01*
X185655Y660162D01*
X185668Y660064D01*
X185678Y659964D01*
X185684Y659865D01*
X185686Y659765D01*
X185684Y659665D01*
X185678Y659566D01*
X185668Y659466D01*
X185655Y659368D01*
X185637Y659269D01*
X185616Y659172D01*
X185591Y659076D01*
X185562Y658980D01*
X185529Y658886D01*
X185493Y658793D01*
X185453Y658702D01*
X185409Y658612D01*
X185362Y658524D01*
X185312Y658438D01*
X185258Y658354D01*
X185201Y658272D01*
X185141Y658193D01*
X185077Y658115D01*
X185011Y658041D01*
X184942Y657969D01*
X184870Y657900D01*
X184796Y657834D01*
X184718Y657770D01*
X184639Y657710D01*
X184557Y657653D01*
X184473Y657599D01*
X184387Y657549D01*
X184299Y657502D01*
X184209Y657458D01*
X184118Y657418D01*
X184025Y657382D01*
X183931Y657349D01*
X183835Y657320D01*
X183739Y657295D01*
X183642Y657274D01*
X183543Y657256D01*
X183445Y657243D01*
X183345Y657233D01*
X183246Y657227D01*
X183146Y657225D01*
X180606Y657225D01*
D13*
X256540Y472440D02*
X388620Y472440D01*
X256540Y472440D02*
X256540Y381000D01*
X388620Y381000D01*
X388620Y472440D01*
X341630Y459740D02*
X341630Y455930D01*
X341630Y463550D02*
X303530Y463550D01*
X303530Y459740D01*
X303530Y455930D02*
X341630Y455930D01*
X303530Y459740D02*
X294640Y459740D01*
X303530Y459740D02*
X303530Y455930D01*
X341630Y459740D02*
X350520Y459740D01*
X341630Y459740D02*
X341630Y463550D01*
D14*
X266446Y452755D02*
X262636Y452755D01*
X266446Y452755D02*
X266546Y452757D01*
X266645Y452763D01*
X266745Y452773D01*
X266843Y452786D01*
X266942Y452804D01*
X267039Y452825D01*
X267135Y452850D01*
X267231Y452879D01*
X267325Y452912D01*
X267418Y452948D01*
X267509Y452988D01*
X267599Y453032D01*
X267687Y453079D01*
X267773Y453129D01*
X267857Y453183D01*
X267939Y453240D01*
X268018Y453300D01*
X268096Y453364D01*
X268170Y453430D01*
X268242Y453499D01*
X268311Y453571D01*
X268377Y453645D01*
X268441Y453723D01*
X268501Y453802D01*
X268558Y453884D01*
X268612Y453968D01*
X268662Y454054D01*
X268709Y454142D01*
X268753Y454232D01*
X268793Y454323D01*
X268829Y454416D01*
X268862Y454510D01*
X268891Y454606D01*
X268916Y454702D01*
X268937Y454799D01*
X268955Y454898D01*
X268968Y454996D01*
X268978Y455096D01*
X268984Y455195D01*
X268986Y455295D01*
X268986Y456565D01*
X268984Y456665D01*
X268978Y456764D01*
X268968Y456864D01*
X268955Y456962D01*
X268937Y457061D01*
X268916Y457158D01*
X268891Y457254D01*
X268862Y457350D01*
X268829Y457444D01*
X268793Y457537D01*
X268753Y457628D01*
X268709Y457718D01*
X268662Y457806D01*
X268612Y457892D01*
X268558Y457976D01*
X268501Y458058D01*
X268441Y458137D01*
X268377Y458215D01*
X268311Y458289D01*
X268242Y458361D01*
X268170Y458430D01*
X268096Y458496D01*
X268018Y458560D01*
X267939Y458620D01*
X267857Y458677D01*
X267773Y458731D01*
X267687Y458781D01*
X267599Y458828D01*
X267509Y458872D01*
X267418Y458912D01*
X267325Y458948D01*
X267231Y458981D01*
X267135Y459010D01*
X267039Y459035D01*
X266942Y459056D01*
X266843Y459074D01*
X266745Y459087D01*
X266645Y459097D01*
X266546Y459103D01*
X266446Y459105D01*
X262636Y459105D01*
X262636Y464185D01*
X268986Y464185D01*
X273685Y464185D02*
X276225Y452755D01*
X278765Y460375D01*
X281305Y452755D01*
X283845Y464185D01*
X316948Y404495D02*
X316948Y393065D01*
X316948Y404495D02*
X320123Y404495D01*
X320234Y404493D01*
X320344Y404487D01*
X320455Y404478D01*
X320565Y404464D01*
X320674Y404447D01*
X320783Y404426D01*
X320891Y404401D01*
X320998Y404372D01*
X321104Y404340D01*
X321209Y404304D01*
X321312Y404264D01*
X321414Y404221D01*
X321515Y404174D01*
X321614Y404123D01*
X321711Y404070D01*
X321805Y404013D01*
X321898Y403952D01*
X321989Y403889D01*
X322078Y403822D01*
X322164Y403752D01*
X322247Y403679D01*
X322329Y403604D01*
X322407Y403526D01*
X322482Y403444D01*
X322555Y403361D01*
X322625Y403275D01*
X322692Y403186D01*
X322755Y403095D01*
X322816Y403002D01*
X322873Y402907D01*
X322926Y402811D01*
X322977Y402712D01*
X323024Y402611D01*
X323067Y402509D01*
X323107Y402406D01*
X323143Y402301D01*
X323175Y402195D01*
X323204Y402088D01*
X323229Y401980D01*
X323250Y401871D01*
X323267Y401762D01*
X323281Y401652D01*
X323290Y401541D01*
X323296Y401431D01*
X323298Y401320D01*
X323296Y401209D01*
X323290Y401099D01*
X323281Y400988D01*
X323267Y400878D01*
X323250Y400769D01*
X323229Y400660D01*
X323204Y400552D01*
X323175Y400445D01*
X323143Y400339D01*
X323107Y400234D01*
X323067Y400131D01*
X323024Y400029D01*
X322977Y399928D01*
X322926Y399829D01*
X322873Y399732D01*
X322816Y399638D01*
X322755Y399545D01*
X322692Y399454D01*
X322625Y399365D01*
X322555Y399279D01*
X322482Y399196D01*
X322407Y399114D01*
X322329Y399036D01*
X322247Y398961D01*
X322164Y398888D01*
X322078Y398818D01*
X321989Y398751D01*
X321898Y398688D01*
X321805Y398627D01*
X321711Y398570D01*
X321614Y398517D01*
X321515Y398466D01*
X321414Y398419D01*
X321312Y398376D01*
X321209Y398336D01*
X321104Y398300D01*
X320998Y398268D01*
X320891Y398239D01*
X320783Y398214D01*
X320674Y398193D01*
X320565Y398176D01*
X320455Y398162D01*
X320344Y398153D01*
X320234Y398147D01*
X320123Y398145D01*
X316948Y398145D01*
X320758Y398145D02*
X323298Y393065D01*
X328295Y395605D02*
X330835Y404495D01*
X328295Y395605D02*
X334645Y395605D01*
X332740Y398145D02*
X332740Y393065D01*
D10*
X161798Y513588D02*
X161798Y525272D01*
X165044Y525272D01*
X165157Y525270D01*
X165270Y525264D01*
X165383Y525254D01*
X165496Y525240D01*
X165608Y525223D01*
X165719Y525201D01*
X165829Y525176D01*
X165939Y525146D01*
X166047Y525113D01*
X166154Y525076D01*
X166260Y525036D01*
X166364Y524991D01*
X166467Y524943D01*
X166568Y524892D01*
X166667Y524837D01*
X166764Y524779D01*
X166859Y524717D01*
X166952Y524652D01*
X167042Y524584D01*
X167130Y524513D01*
X167216Y524438D01*
X167299Y524361D01*
X167379Y524281D01*
X167456Y524198D01*
X167531Y524112D01*
X167602Y524024D01*
X167670Y523934D01*
X167735Y523841D01*
X167797Y523746D01*
X167855Y523649D01*
X167910Y523550D01*
X167961Y523449D01*
X168009Y523346D01*
X168054Y523242D01*
X168094Y523136D01*
X168131Y523029D01*
X168164Y522921D01*
X168194Y522811D01*
X168219Y522701D01*
X168241Y522590D01*
X168258Y522478D01*
X168272Y522365D01*
X168282Y522252D01*
X168288Y522139D01*
X168290Y522026D01*
X168288Y521913D01*
X168282Y521800D01*
X168272Y521687D01*
X168258Y521574D01*
X168241Y521462D01*
X168219Y521351D01*
X168194Y521241D01*
X168164Y521131D01*
X168131Y521023D01*
X168094Y520916D01*
X168054Y520810D01*
X168009Y520706D01*
X167961Y520603D01*
X167910Y520502D01*
X167855Y520403D01*
X167797Y520306D01*
X167735Y520211D01*
X167670Y520118D01*
X167602Y520028D01*
X167531Y519940D01*
X167456Y519854D01*
X167379Y519771D01*
X167299Y519691D01*
X167216Y519614D01*
X167130Y519539D01*
X167042Y519468D01*
X166952Y519400D01*
X166859Y519335D01*
X166764Y519273D01*
X166667Y519215D01*
X166568Y519160D01*
X166467Y519109D01*
X166364Y519061D01*
X166260Y519016D01*
X166154Y518976D01*
X166047Y518939D01*
X165939Y518906D01*
X165829Y518876D01*
X165719Y518851D01*
X165608Y518829D01*
X165496Y518812D01*
X165383Y518798D01*
X165270Y518788D01*
X165157Y518782D01*
X165044Y518780D01*
X165044Y518781D02*
X161798Y518781D01*
X165693Y518781D02*
X168289Y513588D01*
X173154Y513588D02*
X176400Y513588D01*
X176513Y513590D01*
X176626Y513596D01*
X176739Y513606D01*
X176852Y513620D01*
X176964Y513637D01*
X177075Y513659D01*
X177185Y513684D01*
X177295Y513714D01*
X177403Y513747D01*
X177510Y513784D01*
X177616Y513824D01*
X177720Y513869D01*
X177823Y513917D01*
X177924Y513968D01*
X178023Y514023D01*
X178120Y514081D01*
X178215Y514143D01*
X178308Y514208D01*
X178398Y514276D01*
X178486Y514347D01*
X178572Y514422D01*
X178655Y514499D01*
X178735Y514579D01*
X178812Y514662D01*
X178887Y514748D01*
X178958Y514836D01*
X179026Y514926D01*
X179091Y515019D01*
X179153Y515114D01*
X179211Y515211D01*
X179266Y515310D01*
X179317Y515411D01*
X179365Y515514D01*
X179410Y515618D01*
X179450Y515724D01*
X179487Y515831D01*
X179520Y515939D01*
X179550Y516049D01*
X179575Y516159D01*
X179597Y516270D01*
X179614Y516382D01*
X179628Y516495D01*
X179638Y516608D01*
X179644Y516721D01*
X179646Y516834D01*
X179644Y516947D01*
X179638Y517060D01*
X179628Y517173D01*
X179614Y517286D01*
X179597Y517398D01*
X179575Y517509D01*
X179550Y517619D01*
X179520Y517729D01*
X179487Y517837D01*
X179450Y517944D01*
X179410Y518050D01*
X179365Y518154D01*
X179317Y518257D01*
X179266Y518358D01*
X179211Y518457D01*
X179153Y518554D01*
X179091Y518649D01*
X179026Y518742D01*
X178958Y518832D01*
X178887Y518920D01*
X178812Y519006D01*
X178735Y519089D01*
X178655Y519169D01*
X178572Y519246D01*
X178486Y519321D01*
X178398Y519392D01*
X178308Y519460D01*
X178215Y519525D01*
X178120Y519587D01*
X178023Y519645D01*
X177924Y519700D01*
X177823Y519751D01*
X177720Y519799D01*
X177616Y519844D01*
X177510Y519884D01*
X177403Y519921D01*
X177295Y519954D01*
X177185Y519984D01*
X177075Y520009D01*
X176964Y520031D01*
X176852Y520048D01*
X176739Y520062D01*
X176626Y520072D01*
X176513Y520078D01*
X176400Y520080D01*
X177049Y525272D02*
X173154Y525272D01*
X177049Y525272D02*
X177150Y525270D01*
X177250Y525264D01*
X177350Y525254D01*
X177450Y525241D01*
X177549Y525223D01*
X177648Y525202D01*
X177745Y525177D01*
X177842Y525148D01*
X177937Y525115D01*
X178031Y525079D01*
X178123Y525039D01*
X178214Y524996D01*
X178303Y524949D01*
X178390Y524899D01*
X178476Y524845D01*
X178559Y524788D01*
X178639Y524728D01*
X178718Y524665D01*
X178794Y524598D01*
X178867Y524529D01*
X178937Y524457D01*
X179005Y524383D01*
X179070Y524306D01*
X179131Y524226D01*
X179190Y524144D01*
X179245Y524060D01*
X179297Y523974D01*
X179346Y523886D01*
X179391Y523796D01*
X179433Y523704D01*
X179471Y523611D01*
X179505Y523516D01*
X179536Y523421D01*
X179563Y523324D01*
X179586Y523226D01*
X179606Y523127D01*
X179621Y523027D01*
X179633Y522927D01*
X179641Y522827D01*
X179645Y522726D01*
X179645Y522626D01*
X179641Y522525D01*
X179633Y522425D01*
X179621Y522325D01*
X179606Y522225D01*
X179586Y522126D01*
X179563Y522028D01*
X179536Y521931D01*
X179505Y521836D01*
X179471Y521741D01*
X179433Y521648D01*
X179391Y521556D01*
X179346Y521466D01*
X179297Y521378D01*
X179245Y521292D01*
X179190Y521208D01*
X179131Y521126D01*
X179070Y521046D01*
X179005Y520969D01*
X178937Y520895D01*
X178867Y520823D01*
X178794Y520754D01*
X178718Y520687D01*
X178639Y520624D01*
X178559Y520564D01*
X178476Y520507D01*
X178390Y520453D01*
X178303Y520403D01*
X178214Y520356D01*
X178123Y520313D01*
X178031Y520273D01*
X177937Y520237D01*
X177842Y520204D01*
X177745Y520175D01*
X177648Y520150D01*
X177549Y520129D01*
X177450Y520111D01*
X177350Y520098D01*
X177250Y520088D01*
X177150Y520082D01*
X177049Y520080D01*
X177049Y520079D02*
X174453Y520079D01*
X161798Y248412D02*
X161798Y236728D01*
X161798Y248412D02*
X165044Y248412D01*
X165157Y248410D01*
X165270Y248404D01*
X165383Y248394D01*
X165496Y248380D01*
X165608Y248363D01*
X165719Y248341D01*
X165829Y248316D01*
X165939Y248286D01*
X166047Y248253D01*
X166154Y248216D01*
X166260Y248176D01*
X166364Y248131D01*
X166467Y248083D01*
X166568Y248032D01*
X166667Y247977D01*
X166764Y247919D01*
X166859Y247857D01*
X166952Y247792D01*
X167042Y247724D01*
X167130Y247653D01*
X167216Y247578D01*
X167299Y247501D01*
X167379Y247421D01*
X167456Y247338D01*
X167531Y247252D01*
X167602Y247164D01*
X167670Y247074D01*
X167735Y246981D01*
X167797Y246886D01*
X167855Y246789D01*
X167910Y246690D01*
X167961Y246589D01*
X168009Y246486D01*
X168054Y246382D01*
X168094Y246276D01*
X168131Y246169D01*
X168164Y246061D01*
X168194Y245951D01*
X168219Y245841D01*
X168241Y245730D01*
X168258Y245618D01*
X168272Y245505D01*
X168282Y245392D01*
X168288Y245279D01*
X168290Y245166D01*
X168288Y245053D01*
X168282Y244940D01*
X168272Y244827D01*
X168258Y244714D01*
X168241Y244602D01*
X168219Y244491D01*
X168194Y244381D01*
X168164Y244271D01*
X168131Y244163D01*
X168094Y244056D01*
X168054Y243950D01*
X168009Y243846D01*
X167961Y243743D01*
X167910Y243642D01*
X167855Y243543D01*
X167797Y243446D01*
X167735Y243351D01*
X167670Y243258D01*
X167602Y243168D01*
X167531Y243080D01*
X167456Y242994D01*
X167379Y242911D01*
X167299Y242831D01*
X167216Y242754D01*
X167130Y242679D01*
X167042Y242608D01*
X166952Y242540D01*
X166859Y242475D01*
X166764Y242413D01*
X166667Y242355D01*
X166568Y242300D01*
X166467Y242249D01*
X166364Y242201D01*
X166260Y242156D01*
X166154Y242116D01*
X166047Y242079D01*
X165939Y242046D01*
X165829Y242016D01*
X165719Y241991D01*
X165608Y241969D01*
X165496Y241952D01*
X165383Y241938D01*
X165270Y241928D01*
X165157Y241922D01*
X165044Y241920D01*
X165044Y241921D02*
X161798Y241921D01*
X165693Y241921D02*
X168289Y236728D01*
X173154Y245816D02*
X176400Y248412D01*
X176400Y236728D01*
X179645Y236728D02*
X173154Y236728D01*
X184585Y242570D02*
X184588Y242800D01*
X184596Y243030D01*
X184610Y243259D01*
X184629Y243488D01*
X184654Y243717D01*
X184684Y243944D01*
X184719Y244172D01*
X184760Y244398D01*
X184806Y244623D01*
X184858Y244847D01*
X184915Y245069D01*
X184977Y245291D01*
X185045Y245510D01*
X185118Y245728D01*
X185196Y245945D01*
X185279Y246159D01*
X185367Y246371D01*
X185460Y246581D01*
X185559Y246789D01*
X185558Y246789D02*
X185591Y246879D01*
X185627Y246968D01*
X185667Y247056D01*
X185711Y247141D01*
X185758Y247225D01*
X185808Y247307D01*
X185862Y247387D01*
X185918Y247464D01*
X185978Y247540D01*
X186041Y247613D01*
X186106Y247683D01*
X186175Y247751D01*
X186246Y247815D01*
X186319Y247877D01*
X186395Y247936D01*
X186473Y247992D01*
X186554Y248045D01*
X186636Y248094D01*
X186720Y248140D01*
X186807Y248183D01*
X186894Y248222D01*
X186984Y248258D01*
X187074Y248290D01*
X187166Y248318D01*
X187259Y248343D01*
X187353Y248364D01*
X187447Y248381D01*
X187542Y248395D01*
X187638Y248404D01*
X187734Y248410D01*
X187830Y248412D01*
X187926Y248410D01*
X188022Y248404D01*
X188118Y248395D01*
X188213Y248381D01*
X188307Y248364D01*
X188401Y248343D01*
X188494Y248318D01*
X188586Y248290D01*
X188676Y248258D01*
X188766Y248222D01*
X188853Y248183D01*
X188940Y248140D01*
X189024Y248094D01*
X189106Y248045D01*
X189187Y247992D01*
X189265Y247936D01*
X189341Y247877D01*
X189414Y247815D01*
X189485Y247751D01*
X189554Y247683D01*
X189619Y247613D01*
X189682Y247540D01*
X189742Y247464D01*
X189798Y247387D01*
X189852Y247307D01*
X189902Y247225D01*
X189949Y247141D01*
X189993Y247056D01*
X190033Y246968D01*
X190069Y246879D01*
X190102Y246789D01*
X190201Y246582D01*
X190294Y246372D01*
X190382Y246159D01*
X190465Y245945D01*
X190543Y245729D01*
X190616Y245511D01*
X190684Y245291D01*
X190746Y245070D01*
X190803Y244847D01*
X190855Y244623D01*
X190901Y244398D01*
X190942Y244172D01*
X190977Y243945D01*
X191007Y243717D01*
X191032Y243488D01*
X191051Y243259D01*
X191065Y243030D01*
X191073Y242800D01*
X191076Y242570D01*
X184584Y242570D02*
X184587Y242340D01*
X184595Y242110D01*
X184609Y241881D01*
X184628Y241652D01*
X184653Y241423D01*
X184683Y241195D01*
X184718Y240968D01*
X184759Y240742D01*
X184805Y240517D01*
X184857Y240293D01*
X184914Y240070D01*
X184976Y239849D01*
X185044Y239629D01*
X185117Y239411D01*
X185195Y239195D01*
X185278Y238981D01*
X185366Y238769D01*
X185459Y238558D01*
X185558Y238351D01*
X185591Y238261D01*
X185627Y238172D01*
X185668Y238084D01*
X185711Y237999D01*
X185758Y237915D01*
X185808Y237833D01*
X185862Y237753D01*
X185918Y237676D01*
X185978Y237600D01*
X186041Y237527D01*
X186106Y237457D01*
X186175Y237389D01*
X186246Y237325D01*
X186319Y237263D01*
X186395Y237204D01*
X186473Y237148D01*
X186554Y237095D01*
X186636Y237046D01*
X186720Y237000D01*
X186807Y236957D01*
X186894Y236918D01*
X186984Y236882D01*
X187074Y236850D01*
X187166Y236822D01*
X187259Y236797D01*
X187353Y236776D01*
X187447Y236759D01*
X187542Y236745D01*
X187638Y236736D01*
X187734Y236730D01*
X187830Y236728D01*
X190102Y238351D02*
X190201Y238558D01*
X190294Y238769D01*
X190382Y238981D01*
X190465Y239195D01*
X190543Y239411D01*
X190616Y239629D01*
X190684Y239849D01*
X190746Y240070D01*
X190803Y240293D01*
X190855Y240517D01*
X190901Y240742D01*
X190942Y240968D01*
X190977Y241195D01*
X191007Y241423D01*
X191032Y241652D01*
X191051Y241881D01*
X191065Y242110D01*
X191073Y242340D01*
X191076Y242570D01*
X190102Y238351D02*
X190069Y238261D01*
X190033Y238172D01*
X189993Y238084D01*
X189949Y237999D01*
X189902Y237915D01*
X189852Y237833D01*
X189798Y237753D01*
X189742Y237676D01*
X189682Y237600D01*
X189619Y237527D01*
X189554Y237457D01*
X189485Y237389D01*
X189414Y237325D01*
X189341Y237263D01*
X189265Y237204D01*
X189187Y237148D01*
X189106Y237095D01*
X189024Y237046D01*
X188940Y237000D01*
X188853Y236957D01*
X188766Y236918D01*
X188676Y236882D01*
X188586Y236850D01*
X188494Y236822D01*
X188401Y236797D01*
X188307Y236776D01*
X188213Y236759D01*
X188118Y236745D01*
X188022Y236736D01*
X187926Y236730D01*
X187830Y236728D01*
X185233Y239324D02*
X190426Y245816D01*
D13*
X256540Y279400D02*
X388620Y279400D01*
X388620Y370840D01*
X256540Y370840D01*
X256540Y279400D01*
X303530Y292100D02*
X303530Y295910D01*
X303530Y288290D02*
X341630Y288290D01*
X341630Y292100D01*
X341630Y295910D02*
X303530Y295910D01*
X341630Y292100D02*
X350520Y292100D01*
X341630Y292100D02*
X341630Y295910D01*
X303530Y292100D02*
X294640Y292100D01*
X303530Y292100D02*
X303530Y288290D01*
D14*
X361315Y287655D02*
X365125Y287655D01*
X365225Y287657D01*
X365324Y287663D01*
X365424Y287673D01*
X365522Y287686D01*
X365621Y287704D01*
X365718Y287725D01*
X365814Y287750D01*
X365910Y287779D01*
X366004Y287812D01*
X366097Y287848D01*
X366188Y287888D01*
X366278Y287932D01*
X366366Y287979D01*
X366452Y288029D01*
X366536Y288083D01*
X366618Y288140D01*
X366697Y288200D01*
X366775Y288264D01*
X366849Y288330D01*
X366921Y288399D01*
X366990Y288471D01*
X367056Y288545D01*
X367120Y288623D01*
X367180Y288702D01*
X367237Y288784D01*
X367291Y288868D01*
X367341Y288954D01*
X367388Y289042D01*
X367432Y289132D01*
X367472Y289223D01*
X367508Y289316D01*
X367541Y289410D01*
X367570Y289506D01*
X367595Y289602D01*
X367616Y289699D01*
X367634Y289798D01*
X367647Y289896D01*
X367657Y289996D01*
X367663Y290095D01*
X367665Y290195D01*
X367665Y291465D01*
X367663Y291565D01*
X367657Y291664D01*
X367647Y291764D01*
X367634Y291862D01*
X367616Y291961D01*
X367595Y292058D01*
X367570Y292154D01*
X367541Y292250D01*
X367508Y292344D01*
X367472Y292437D01*
X367432Y292528D01*
X367388Y292618D01*
X367341Y292706D01*
X367291Y292792D01*
X367237Y292876D01*
X367180Y292958D01*
X367120Y293037D01*
X367056Y293115D01*
X366990Y293189D01*
X366921Y293261D01*
X366849Y293330D01*
X366775Y293396D01*
X366697Y293460D01*
X366618Y293520D01*
X366536Y293577D01*
X366452Y293631D01*
X366366Y293681D01*
X366278Y293728D01*
X366188Y293772D01*
X366097Y293812D01*
X366004Y293848D01*
X365910Y293881D01*
X365814Y293910D01*
X365718Y293935D01*
X365621Y293956D01*
X365522Y293974D01*
X365424Y293987D01*
X365324Y293997D01*
X365225Y294003D01*
X365125Y294005D01*
X361315Y294005D01*
X361315Y299085D01*
X367665Y299085D01*
X372364Y299085D02*
X374904Y287655D01*
X377444Y295275D01*
X379984Y287655D01*
X382524Y299085D01*
X314408Y349885D02*
X314408Y361315D01*
X317583Y361315D01*
X317694Y361313D01*
X317804Y361307D01*
X317915Y361298D01*
X318025Y361284D01*
X318134Y361267D01*
X318243Y361246D01*
X318351Y361221D01*
X318458Y361192D01*
X318564Y361160D01*
X318669Y361124D01*
X318772Y361084D01*
X318874Y361041D01*
X318975Y360994D01*
X319074Y360943D01*
X319171Y360890D01*
X319265Y360833D01*
X319358Y360772D01*
X319449Y360709D01*
X319538Y360642D01*
X319624Y360572D01*
X319707Y360499D01*
X319789Y360424D01*
X319867Y360346D01*
X319942Y360264D01*
X320015Y360181D01*
X320085Y360095D01*
X320152Y360006D01*
X320215Y359915D01*
X320276Y359822D01*
X320333Y359727D01*
X320386Y359631D01*
X320437Y359532D01*
X320484Y359431D01*
X320527Y359329D01*
X320567Y359226D01*
X320603Y359121D01*
X320635Y359015D01*
X320664Y358908D01*
X320689Y358800D01*
X320710Y358691D01*
X320727Y358582D01*
X320741Y358472D01*
X320750Y358361D01*
X320756Y358251D01*
X320758Y358140D01*
X320756Y358029D01*
X320750Y357919D01*
X320741Y357808D01*
X320727Y357698D01*
X320710Y357589D01*
X320689Y357480D01*
X320664Y357372D01*
X320635Y357265D01*
X320603Y357159D01*
X320567Y357054D01*
X320527Y356951D01*
X320484Y356849D01*
X320437Y356748D01*
X320386Y356649D01*
X320333Y356552D01*
X320276Y356458D01*
X320215Y356365D01*
X320152Y356274D01*
X320085Y356185D01*
X320015Y356099D01*
X319942Y356016D01*
X319867Y355934D01*
X319789Y355856D01*
X319707Y355781D01*
X319624Y355708D01*
X319538Y355638D01*
X319449Y355571D01*
X319358Y355508D01*
X319265Y355447D01*
X319171Y355390D01*
X319074Y355337D01*
X318975Y355286D01*
X318874Y355239D01*
X318772Y355196D01*
X318669Y355156D01*
X318564Y355120D01*
X318458Y355088D01*
X318351Y355059D01*
X318243Y355034D01*
X318134Y355013D01*
X318025Y354996D01*
X317915Y354982D01*
X317804Y354973D01*
X317694Y354967D01*
X317583Y354965D01*
X314408Y354965D01*
X318218Y354965D02*
X320758Y349885D01*
X325755Y349885D02*
X329565Y349885D01*
X329665Y349887D01*
X329764Y349893D01*
X329864Y349903D01*
X329962Y349916D01*
X330061Y349934D01*
X330158Y349955D01*
X330254Y349980D01*
X330350Y350009D01*
X330444Y350042D01*
X330537Y350078D01*
X330628Y350118D01*
X330718Y350162D01*
X330806Y350209D01*
X330892Y350259D01*
X330976Y350313D01*
X331058Y350370D01*
X331137Y350430D01*
X331215Y350494D01*
X331289Y350560D01*
X331361Y350629D01*
X331430Y350701D01*
X331496Y350775D01*
X331560Y350853D01*
X331620Y350932D01*
X331677Y351014D01*
X331731Y351098D01*
X331781Y351184D01*
X331828Y351272D01*
X331872Y351362D01*
X331912Y351453D01*
X331948Y351546D01*
X331981Y351640D01*
X332010Y351736D01*
X332035Y351832D01*
X332056Y351929D01*
X332074Y352028D01*
X332087Y352126D01*
X332097Y352226D01*
X332103Y352325D01*
X332105Y352425D01*
X332105Y353695D01*
X332103Y353795D01*
X332097Y353894D01*
X332087Y353994D01*
X332074Y354092D01*
X332056Y354191D01*
X332035Y354288D01*
X332010Y354384D01*
X331981Y354480D01*
X331948Y354574D01*
X331912Y354667D01*
X331872Y354758D01*
X331828Y354848D01*
X331781Y354936D01*
X331731Y355022D01*
X331677Y355106D01*
X331620Y355188D01*
X331560Y355267D01*
X331496Y355345D01*
X331430Y355419D01*
X331361Y355491D01*
X331289Y355560D01*
X331215Y355626D01*
X331137Y355690D01*
X331058Y355750D01*
X330976Y355807D01*
X330892Y355861D01*
X330806Y355911D01*
X330718Y355958D01*
X330628Y356002D01*
X330537Y356042D01*
X330444Y356078D01*
X330350Y356111D01*
X330254Y356140D01*
X330158Y356165D01*
X330061Y356186D01*
X329962Y356204D01*
X329864Y356217D01*
X329764Y356227D01*
X329665Y356233D01*
X329565Y356235D01*
X325755Y356235D01*
X325755Y361315D01*
X332105Y361315D01*
D10*
X161798Y701548D02*
X161798Y713232D01*
X165044Y713232D01*
X165157Y713230D01*
X165270Y713224D01*
X165383Y713214D01*
X165496Y713200D01*
X165608Y713183D01*
X165719Y713161D01*
X165829Y713136D01*
X165939Y713106D01*
X166047Y713073D01*
X166154Y713036D01*
X166260Y712996D01*
X166364Y712951D01*
X166467Y712903D01*
X166568Y712852D01*
X166667Y712797D01*
X166764Y712739D01*
X166859Y712677D01*
X166952Y712612D01*
X167042Y712544D01*
X167130Y712473D01*
X167216Y712398D01*
X167299Y712321D01*
X167379Y712241D01*
X167456Y712158D01*
X167531Y712072D01*
X167602Y711984D01*
X167670Y711894D01*
X167735Y711801D01*
X167797Y711706D01*
X167855Y711609D01*
X167910Y711510D01*
X167961Y711409D01*
X168009Y711306D01*
X168054Y711202D01*
X168094Y711096D01*
X168131Y710989D01*
X168164Y710881D01*
X168194Y710771D01*
X168219Y710661D01*
X168241Y710550D01*
X168258Y710438D01*
X168272Y710325D01*
X168282Y710212D01*
X168288Y710099D01*
X168290Y709986D01*
X168288Y709873D01*
X168282Y709760D01*
X168272Y709647D01*
X168258Y709534D01*
X168241Y709422D01*
X168219Y709311D01*
X168194Y709201D01*
X168164Y709091D01*
X168131Y708983D01*
X168094Y708876D01*
X168054Y708770D01*
X168009Y708666D01*
X167961Y708563D01*
X167910Y708462D01*
X167855Y708363D01*
X167797Y708266D01*
X167735Y708171D01*
X167670Y708078D01*
X167602Y707988D01*
X167531Y707900D01*
X167456Y707814D01*
X167379Y707731D01*
X167299Y707651D01*
X167216Y707574D01*
X167130Y707499D01*
X167042Y707428D01*
X166952Y707360D01*
X166859Y707295D01*
X166764Y707233D01*
X166667Y707175D01*
X166568Y707120D01*
X166467Y707069D01*
X166364Y707021D01*
X166260Y706976D01*
X166154Y706936D01*
X166047Y706899D01*
X165939Y706866D01*
X165829Y706836D01*
X165719Y706811D01*
X165608Y706789D01*
X165496Y706772D01*
X165383Y706758D01*
X165270Y706748D01*
X165157Y706742D01*
X165044Y706740D01*
X165044Y706741D02*
X161798Y706741D01*
X165693Y706741D02*
X168289Y701548D01*
X179645Y710311D02*
X179643Y710418D01*
X179637Y710524D01*
X179627Y710630D01*
X179614Y710736D01*
X179596Y710842D01*
X179575Y710946D01*
X179550Y711050D01*
X179521Y711153D01*
X179489Y711254D01*
X179452Y711354D01*
X179412Y711453D01*
X179369Y711551D01*
X179322Y711647D01*
X179271Y711741D01*
X179217Y711833D01*
X179160Y711923D01*
X179100Y712011D01*
X179036Y712096D01*
X178969Y712179D01*
X178899Y712260D01*
X178827Y712338D01*
X178751Y712414D01*
X178673Y712486D01*
X178592Y712556D01*
X178509Y712623D01*
X178424Y712687D01*
X178336Y712747D01*
X178246Y712804D01*
X178154Y712858D01*
X178060Y712909D01*
X177964Y712956D01*
X177866Y712999D01*
X177767Y713039D01*
X177667Y713076D01*
X177566Y713108D01*
X177463Y713137D01*
X177359Y713162D01*
X177255Y713183D01*
X177149Y713201D01*
X177043Y713214D01*
X176937Y713224D01*
X176831Y713230D01*
X176724Y713232D01*
X176603Y713230D01*
X176482Y713224D01*
X176362Y713214D01*
X176241Y713201D01*
X176122Y713183D01*
X176002Y713162D01*
X175884Y713137D01*
X175767Y713108D01*
X175650Y713075D01*
X175535Y713039D01*
X175421Y712998D01*
X175308Y712955D01*
X175196Y712907D01*
X175087Y712856D01*
X174979Y712801D01*
X174872Y712743D01*
X174768Y712682D01*
X174666Y712617D01*
X174566Y712549D01*
X174468Y712478D01*
X174372Y712404D01*
X174279Y712327D01*
X174189Y712246D01*
X174101Y712163D01*
X174016Y712077D01*
X173933Y711988D01*
X173854Y711897D01*
X173777Y711803D01*
X173704Y711707D01*
X173634Y711609D01*
X173567Y711508D01*
X173503Y711405D01*
X173443Y711300D01*
X173386Y711193D01*
X173332Y711085D01*
X173282Y710975D01*
X173236Y710863D01*
X173193Y710750D01*
X173154Y710635D01*
X178672Y708039D02*
X178751Y708116D01*
X178827Y708197D01*
X178900Y708280D01*
X178970Y708365D01*
X179037Y708453D01*
X179101Y708543D01*
X179161Y708635D01*
X179218Y708730D01*
X179272Y708826D01*
X179323Y708924D01*
X179370Y709024D01*
X179414Y709126D01*
X179454Y709229D01*
X179490Y709333D01*
X179522Y709439D01*
X179551Y709545D01*
X179576Y709653D01*
X179598Y709761D01*
X179615Y709871D01*
X179629Y709980D01*
X179638Y710090D01*
X179644Y710201D01*
X179646Y710311D01*
X178672Y708039D02*
X173154Y701548D01*
X179645Y701548D01*
X159258Y52832D02*
X159258Y41148D01*
X159258Y52832D02*
X162504Y52832D01*
X162617Y52830D01*
X162730Y52824D01*
X162843Y52814D01*
X162956Y52800D01*
X163068Y52783D01*
X163179Y52761D01*
X163289Y52736D01*
X163399Y52706D01*
X163507Y52673D01*
X163614Y52636D01*
X163720Y52596D01*
X163824Y52551D01*
X163927Y52503D01*
X164028Y52452D01*
X164127Y52397D01*
X164224Y52339D01*
X164319Y52277D01*
X164412Y52212D01*
X164502Y52144D01*
X164590Y52073D01*
X164676Y51998D01*
X164759Y51921D01*
X164839Y51841D01*
X164916Y51758D01*
X164991Y51672D01*
X165062Y51584D01*
X165130Y51494D01*
X165195Y51401D01*
X165257Y51306D01*
X165315Y51209D01*
X165370Y51110D01*
X165421Y51009D01*
X165469Y50906D01*
X165514Y50802D01*
X165554Y50696D01*
X165591Y50589D01*
X165624Y50481D01*
X165654Y50371D01*
X165679Y50261D01*
X165701Y50150D01*
X165718Y50038D01*
X165732Y49925D01*
X165742Y49812D01*
X165748Y49699D01*
X165750Y49586D01*
X165748Y49473D01*
X165742Y49360D01*
X165732Y49247D01*
X165718Y49134D01*
X165701Y49022D01*
X165679Y48911D01*
X165654Y48801D01*
X165624Y48691D01*
X165591Y48583D01*
X165554Y48476D01*
X165514Y48370D01*
X165469Y48266D01*
X165421Y48163D01*
X165370Y48062D01*
X165315Y47963D01*
X165257Y47866D01*
X165195Y47771D01*
X165130Y47678D01*
X165062Y47588D01*
X164991Y47500D01*
X164916Y47414D01*
X164839Y47331D01*
X164759Y47251D01*
X164676Y47174D01*
X164590Y47099D01*
X164502Y47028D01*
X164412Y46960D01*
X164319Y46895D01*
X164224Y46833D01*
X164127Y46775D01*
X164028Y46720D01*
X163927Y46669D01*
X163824Y46621D01*
X163720Y46576D01*
X163614Y46536D01*
X163507Y46499D01*
X163399Y46466D01*
X163289Y46436D01*
X163179Y46411D01*
X163068Y46389D01*
X162956Y46372D01*
X162843Y46358D01*
X162730Y46348D01*
X162617Y46342D01*
X162504Y46340D01*
X162504Y46341D02*
X159258Y46341D01*
X163153Y46341D02*
X165749Y41148D01*
X173211Y46341D02*
X177105Y46341D01*
X173211Y46341D02*
X173112Y46343D01*
X173012Y46349D01*
X172913Y46358D01*
X172815Y46371D01*
X172717Y46388D01*
X172619Y46409D01*
X172523Y46434D01*
X172428Y46462D01*
X172334Y46494D01*
X172241Y46529D01*
X172149Y46568D01*
X172059Y46611D01*
X171971Y46656D01*
X171884Y46706D01*
X171800Y46758D01*
X171717Y46814D01*
X171637Y46872D01*
X171559Y46934D01*
X171484Y46999D01*
X171411Y47067D01*
X171341Y47137D01*
X171273Y47210D01*
X171208Y47285D01*
X171146Y47363D01*
X171088Y47443D01*
X171032Y47526D01*
X170980Y47610D01*
X170930Y47697D01*
X170885Y47785D01*
X170842Y47875D01*
X170803Y47967D01*
X170768Y48060D01*
X170736Y48154D01*
X170708Y48249D01*
X170683Y48345D01*
X170662Y48443D01*
X170645Y48541D01*
X170632Y48639D01*
X170623Y48738D01*
X170617Y48838D01*
X170615Y48937D01*
X170614Y48937D02*
X170614Y49586D01*
X170616Y49699D01*
X170622Y49812D01*
X170632Y49925D01*
X170646Y50038D01*
X170663Y50150D01*
X170685Y50261D01*
X170710Y50371D01*
X170740Y50481D01*
X170773Y50589D01*
X170810Y50696D01*
X170850Y50802D01*
X170895Y50906D01*
X170943Y51009D01*
X170994Y51110D01*
X171049Y51209D01*
X171107Y51306D01*
X171169Y51401D01*
X171234Y51494D01*
X171302Y51584D01*
X171373Y51672D01*
X171448Y51758D01*
X171525Y51841D01*
X171605Y51921D01*
X171688Y51998D01*
X171774Y52073D01*
X171862Y52144D01*
X171952Y52212D01*
X172045Y52277D01*
X172140Y52339D01*
X172237Y52397D01*
X172336Y52452D01*
X172437Y52503D01*
X172540Y52551D01*
X172644Y52596D01*
X172750Y52636D01*
X172857Y52673D01*
X172965Y52706D01*
X173075Y52736D01*
X173185Y52761D01*
X173296Y52783D01*
X173408Y52800D01*
X173521Y52814D01*
X173634Y52824D01*
X173747Y52830D01*
X173860Y52832D01*
X173973Y52830D01*
X174086Y52824D01*
X174199Y52814D01*
X174312Y52800D01*
X174424Y52783D01*
X174535Y52761D01*
X174645Y52736D01*
X174755Y52706D01*
X174863Y52673D01*
X174970Y52636D01*
X175076Y52596D01*
X175180Y52551D01*
X175283Y52503D01*
X175384Y52452D01*
X175483Y52397D01*
X175580Y52339D01*
X175675Y52277D01*
X175768Y52212D01*
X175858Y52144D01*
X175946Y52073D01*
X176032Y51998D01*
X176115Y51921D01*
X176195Y51841D01*
X176272Y51758D01*
X176347Y51672D01*
X176418Y51584D01*
X176486Y51494D01*
X176551Y51401D01*
X176613Y51306D01*
X176671Y51209D01*
X176726Y51110D01*
X176777Y51009D01*
X176825Y50906D01*
X176870Y50802D01*
X176910Y50696D01*
X176947Y50589D01*
X176980Y50481D01*
X177010Y50371D01*
X177035Y50261D01*
X177057Y50150D01*
X177074Y50038D01*
X177088Y49925D01*
X177098Y49812D01*
X177104Y49699D01*
X177106Y49586D01*
X177105Y49586D02*
X177105Y46341D01*
X177106Y46341D02*
X177104Y46198D01*
X177098Y46055D01*
X177088Y45912D01*
X177074Y45770D01*
X177057Y45628D01*
X177035Y45486D01*
X177010Y45345D01*
X176980Y45205D01*
X176947Y45066D01*
X176910Y44928D01*
X176869Y44791D01*
X176825Y44655D01*
X176776Y44520D01*
X176724Y44387D01*
X176669Y44255D01*
X176609Y44125D01*
X176546Y43996D01*
X176480Y43869D01*
X176410Y43744D01*
X176337Y43622D01*
X176260Y43501D01*
X176180Y43382D01*
X176097Y43266D01*
X176011Y43151D01*
X175922Y43040D01*
X175829Y42930D01*
X175734Y42824D01*
X175635Y42720D01*
X175534Y42619D01*
X175430Y42520D01*
X175324Y42425D01*
X175214Y42332D01*
X175103Y42243D01*
X174988Y42157D01*
X174872Y42074D01*
X174753Y41994D01*
X174632Y41917D01*
X174509Y41844D01*
X174385Y41774D01*
X174258Y41708D01*
X174129Y41645D01*
X173999Y41585D01*
X173867Y41530D01*
X173734Y41478D01*
X173599Y41429D01*
X173463Y41385D01*
X173326Y41344D01*
X173188Y41307D01*
X173049Y41274D01*
X172909Y41244D01*
X172768Y41219D01*
X172626Y41197D01*
X172484Y41180D01*
X172342Y41166D01*
X172199Y41156D01*
X172056Y41150D01*
X171913Y41148D01*
X54035Y124968D02*
X54035Y136652D01*
X57280Y136652D01*
X57393Y136650D01*
X57506Y136644D01*
X57619Y136634D01*
X57732Y136620D01*
X57844Y136603D01*
X57955Y136581D01*
X58065Y136556D01*
X58175Y136526D01*
X58283Y136493D01*
X58390Y136456D01*
X58496Y136416D01*
X58600Y136371D01*
X58703Y136323D01*
X58804Y136272D01*
X58903Y136217D01*
X59000Y136159D01*
X59095Y136097D01*
X59188Y136032D01*
X59278Y135964D01*
X59366Y135893D01*
X59452Y135818D01*
X59535Y135741D01*
X59615Y135661D01*
X59692Y135578D01*
X59767Y135492D01*
X59838Y135404D01*
X59906Y135314D01*
X59971Y135221D01*
X60033Y135126D01*
X60091Y135029D01*
X60146Y134930D01*
X60197Y134829D01*
X60245Y134726D01*
X60290Y134622D01*
X60330Y134516D01*
X60367Y134409D01*
X60400Y134301D01*
X60430Y134191D01*
X60455Y134081D01*
X60477Y133970D01*
X60494Y133858D01*
X60508Y133745D01*
X60518Y133632D01*
X60524Y133519D01*
X60526Y133406D01*
X60524Y133293D01*
X60518Y133180D01*
X60508Y133067D01*
X60494Y132954D01*
X60477Y132842D01*
X60455Y132731D01*
X60430Y132621D01*
X60400Y132511D01*
X60367Y132403D01*
X60330Y132296D01*
X60290Y132190D01*
X60245Y132086D01*
X60197Y131983D01*
X60146Y131882D01*
X60091Y131783D01*
X60033Y131686D01*
X59971Y131591D01*
X59906Y131498D01*
X59838Y131408D01*
X59767Y131320D01*
X59692Y131234D01*
X59615Y131151D01*
X59535Y131071D01*
X59452Y130994D01*
X59366Y130919D01*
X59278Y130848D01*
X59188Y130780D01*
X59095Y130715D01*
X59000Y130653D01*
X58903Y130595D01*
X58804Y130540D01*
X58703Y130489D01*
X58600Y130441D01*
X58496Y130396D01*
X58390Y130356D01*
X58283Y130319D01*
X58175Y130286D01*
X58065Y130256D01*
X57955Y130231D01*
X57844Y130209D01*
X57732Y130192D01*
X57619Y130178D01*
X57506Y130168D01*
X57393Y130162D01*
X57280Y130160D01*
X57280Y130161D02*
X54035Y130161D01*
X57929Y130161D02*
X60526Y124968D01*
X65391Y135354D02*
X65391Y136652D01*
X71882Y136652D01*
X68636Y124968D01*
X56575Y564388D02*
X56575Y576072D01*
X59820Y576072D01*
X59933Y576070D01*
X60046Y576064D01*
X60159Y576054D01*
X60272Y576040D01*
X60384Y576023D01*
X60495Y576001D01*
X60605Y575976D01*
X60715Y575946D01*
X60823Y575913D01*
X60930Y575876D01*
X61036Y575836D01*
X61140Y575791D01*
X61243Y575743D01*
X61344Y575692D01*
X61443Y575637D01*
X61540Y575579D01*
X61635Y575517D01*
X61728Y575452D01*
X61818Y575384D01*
X61906Y575313D01*
X61992Y575238D01*
X62075Y575161D01*
X62155Y575081D01*
X62232Y574998D01*
X62307Y574912D01*
X62378Y574824D01*
X62446Y574734D01*
X62511Y574641D01*
X62573Y574546D01*
X62631Y574449D01*
X62686Y574350D01*
X62737Y574249D01*
X62785Y574146D01*
X62830Y574042D01*
X62870Y573936D01*
X62907Y573829D01*
X62940Y573721D01*
X62970Y573611D01*
X62995Y573501D01*
X63017Y573390D01*
X63034Y573278D01*
X63048Y573165D01*
X63058Y573052D01*
X63064Y572939D01*
X63066Y572826D01*
X63064Y572713D01*
X63058Y572600D01*
X63048Y572487D01*
X63034Y572374D01*
X63017Y572262D01*
X62995Y572151D01*
X62970Y572041D01*
X62940Y571931D01*
X62907Y571823D01*
X62870Y571716D01*
X62830Y571610D01*
X62785Y571506D01*
X62737Y571403D01*
X62686Y571302D01*
X62631Y571203D01*
X62573Y571106D01*
X62511Y571011D01*
X62446Y570918D01*
X62378Y570828D01*
X62307Y570740D01*
X62232Y570654D01*
X62155Y570571D01*
X62075Y570491D01*
X61992Y570414D01*
X61906Y570339D01*
X61818Y570268D01*
X61728Y570200D01*
X61635Y570135D01*
X61540Y570073D01*
X61443Y570015D01*
X61344Y569960D01*
X61243Y569909D01*
X61140Y569861D01*
X61036Y569816D01*
X60930Y569776D01*
X60823Y569739D01*
X60715Y569706D01*
X60605Y569676D01*
X60495Y569651D01*
X60384Y569629D01*
X60272Y569612D01*
X60159Y569598D01*
X60046Y569588D01*
X59933Y569582D01*
X59820Y569580D01*
X59820Y569581D02*
X56575Y569581D01*
X60469Y569581D02*
X63066Y564388D01*
X67931Y570879D02*
X71826Y570879D01*
X71925Y570877D01*
X72025Y570871D01*
X72124Y570862D01*
X72222Y570849D01*
X72320Y570832D01*
X72418Y570811D01*
X72514Y570786D01*
X72609Y570758D01*
X72703Y570726D01*
X72796Y570691D01*
X72888Y570652D01*
X72978Y570609D01*
X73066Y570564D01*
X73153Y570514D01*
X73237Y570462D01*
X73320Y570406D01*
X73400Y570348D01*
X73478Y570286D01*
X73553Y570221D01*
X73626Y570153D01*
X73696Y570083D01*
X73764Y570010D01*
X73829Y569935D01*
X73891Y569857D01*
X73949Y569777D01*
X74005Y569694D01*
X74057Y569610D01*
X74107Y569523D01*
X74152Y569435D01*
X74195Y569345D01*
X74234Y569253D01*
X74269Y569160D01*
X74301Y569066D01*
X74329Y568971D01*
X74354Y568875D01*
X74375Y568777D01*
X74392Y568679D01*
X74405Y568581D01*
X74414Y568482D01*
X74420Y568382D01*
X74422Y568283D01*
X74422Y567634D01*
X74420Y567521D01*
X74414Y567408D01*
X74404Y567295D01*
X74390Y567182D01*
X74373Y567070D01*
X74351Y566959D01*
X74326Y566849D01*
X74296Y566739D01*
X74263Y566631D01*
X74226Y566524D01*
X74186Y566418D01*
X74141Y566314D01*
X74093Y566211D01*
X74042Y566110D01*
X73987Y566011D01*
X73929Y565914D01*
X73867Y565819D01*
X73802Y565726D01*
X73734Y565636D01*
X73663Y565548D01*
X73588Y565462D01*
X73511Y565379D01*
X73431Y565299D01*
X73348Y565222D01*
X73262Y565147D01*
X73174Y565076D01*
X73084Y565008D01*
X72991Y564943D01*
X72896Y564881D01*
X72799Y564823D01*
X72700Y564768D01*
X72599Y564717D01*
X72496Y564669D01*
X72392Y564624D01*
X72286Y564584D01*
X72179Y564547D01*
X72071Y564514D01*
X71961Y564484D01*
X71851Y564459D01*
X71740Y564437D01*
X71628Y564420D01*
X71515Y564406D01*
X71402Y564396D01*
X71289Y564390D01*
X71176Y564388D01*
X71063Y564390D01*
X70950Y564396D01*
X70837Y564406D01*
X70724Y564420D01*
X70612Y564437D01*
X70501Y564459D01*
X70391Y564484D01*
X70281Y564514D01*
X70173Y564547D01*
X70066Y564584D01*
X69960Y564624D01*
X69856Y564669D01*
X69753Y564717D01*
X69652Y564768D01*
X69553Y564823D01*
X69456Y564881D01*
X69361Y564943D01*
X69268Y565008D01*
X69178Y565076D01*
X69090Y565147D01*
X69004Y565222D01*
X68921Y565299D01*
X68841Y565379D01*
X68764Y565462D01*
X68689Y565548D01*
X68618Y565636D01*
X68550Y565726D01*
X68485Y565819D01*
X68423Y565914D01*
X68365Y566011D01*
X68310Y566110D01*
X68259Y566211D01*
X68211Y566314D01*
X68166Y566418D01*
X68126Y566524D01*
X68089Y566631D01*
X68056Y566739D01*
X68026Y566849D01*
X68001Y566959D01*
X67979Y567070D01*
X67962Y567182D01*
X67948Y567295D01*
X67938Y567408D01*
X67932Y567521D01*
X67930Y567634D01*
X67931Y567634D02*
X67931Y570879D01*
X67933Y571022D01*
X67939Y571165D01*
X67949Y571308D01*
X67963Y571450D01*
X67980Y571592D01*
X68002Y571734D01*
X68027Y571875D01*
X68057Y572015D01*
X68090Y572154D01*
X68127Y572292D01*
X68168Y572429D01*
X68212Y572565D01*
X68261Y572700D01*
X68313Y572833D01*
X68368Y572965D01*
X68428Y573095D01*
X68491Y573224D01*
X68557Y573351D01*
X68627Y573475D01*
X68700Y573598D01*
X68777Y573719D01*
X68857Y573838D01*
X68940Y573954D01*
X69026Y574069D01*
X69115Y574180D01*
X69208Y574290D01*
X69303Y574396D01*
X69402Y574500D01*
X69503Y574601D01*
X69607Y574700D01*
X69713Y574795D01*
X69823Y574888D01*
X69934Y574977D01*
X70049Y575063D01*
X70165Y575146D01*
X70284Y575226D01*
X70405Y575303D01*
X70527Y575376D01*
X70652Y575446D01*
X70779Y575512D01*
X70908Y575575D01*
X71038Y575635D01*
X71170Y575690D01*
X71303Y575742D01*
X71438Y575791D01*
X71574Y575835D01*
X71711Y575876D01*
X71849Y575913D01*
X71988Y575946D01*
X72128Y575976D01*
X72269Y576001D01*
X72411Y576023D01*
X72553Y576040D01*
X72695Y576054D01*
X72838Y576064D01*
X72981Y576070D01*
X73124Y576072D01*
X54035Y184912D02*
X54035Y173228D01*
X54035Y184912D02*
X57280Y184912D01*
X57393Y184910D01*
X57506Y184904D01*
X57619Y184894D01*
X57732Y184880D01*
X57844Y184863D01*
X57955Y184841D01*
X58065Y184816D01*
X58175Y184786D01*
X58283Y184753D01*
X58390Y184716D01*
X58496Y184676D01*
X58600Y184631D01*
X58703Y184583D01*
X58804Y184532D01*
X58903Y184477D01*
X59000Y184419D01*
X59095Y184357D01*
X59188Y184292D01*
X59278Y184224D01*
X59366Y184153D01*
X59452Y184078D01*
X59535Y184001D01*
X59615Y183921D01*
X59692Y183838D01*
X59767Y183752D01*
X59838Y183664D01*
X59906Y183574D01*
X59971Y183481D01*
X60033Y183386D01*
X60091Y183289D01*
X60146Y183190D01*
X60197Y183089D01*
X60245Y182986D01*
X60290Y182882D01*
X60330Y182776D01*
X60367Y182669D01*
X60400Y182561D01*
X60430Y182451D01*
X60455Y182341D01*
X60477Y182230D01*
X60494Y182118D01*
X60508Y182005D01*
X60518Y181892D01*
X60524Y181779D01*
X60526Y181666D01*
X60524Y181553D01*
X60518Y181440D01*
X60508Y181327D01*
X60494Y181214D01*
X60477Y181102D01*
X60455Y180991D01*
X60430Y180881D01*
X60400Y180771D01*
X60367Y180663D01*
X60330Y180556D01*
X60290Y180450D01*
X60245Y180346D01*
X60197Y180243D01*
X60146Y180142D01*
X60091Y180043D01*
X60033Y179946D01*
X59971Y179851D01*
X59906Y179758D01*
X59838Y179668D01*
X59767Y179580D01*
X59692Y179494D01*
X59615Y179411D01*
X59535Y179331D01*
X59452Y179254D01*
X59366Y179179D01*
X59278Y179108D01*
X59188Y179040D01*
X59095Y178975D01*
X59000Y178913D01*
X58903Y178855D01*
X58804Y178800D01*
X58703Y178749D01*
X58600Y178701D01*
X58496Y178656D01*
X58390Y178616D01*
X58283Y178579D01*
X58175Y178546D01*
X58065Y178516D01*
X57955Y178491D01*
X57844Y178469D01*
X57732Y178452D01*
X57619Y178438D01*
X57506Y178428D01*
X57393Y178422D01*
X57280Y178420D01*
X57280Y178421D02*
X54035Y178421D01*
X57929Y178421D02*
X60526Y173228D01*
X65390Y176474D02*
X65392Y176587D01*
X65398Y176700D01*
X65408Y176813D01*
X65422Y176926D01*
X65439Y177038D01*
X65461Y177149D01*
X65486Y177259D01*
X65516Y177369D01*
X65549Y177477D01*
X65586Y177584D01*
X65626Y177690D01*
X65671Y177794D01*
X65719Y177897D01*
X65770Y177998D01*
X65825Y178097D01*
X65883Y178194D01*
X65945Y178289D01*
X66010Y178382D01*
X66078Y178472D01*
X66149Y178560D01*
X66224Y178646D01*
X66301Y178729D01*
X66381Y178809D01*
X66464Y178886D01*
X66550Y178961D01*
X66638Y179032D01*
X66728Y179100D01*
X66821Y179165D01*
X66916Y179227D01*
X67013Y179285D01*
X67112Y179340D01*
X67213Y179391D01*
X67316Y179439D01*
X67420Y179484D01*
X67526Y179524D01*
X67633Y179561D01*
X67741Y179594D01*
X67851Y179624D01*
X67961Y179649D01*
X68072Y179671D01*
X68184Y179688D01*
X68297Y179702D01*
X68410Y179712D01*
X68523Y179718D01*
X68636Y179720D01*
X68749Y179718D01*
X68862Y179712D01*
X68975Y179702D01*
X69088Y179688D01*
X69200Y179671D01*
X69311Y179649D01*
X69421Y179624D01*
X69531Y179594D01*
X69639Y179561D01*
X69746Y179524D01*
X69852Y179484D01*
X69956Y179439D01*
X70059Y179391D01*
X70160Y179340D01*
X70259Y179285D01*
X70356Y179227D01*
X70451Y179165D01*
X70544Y179100D01*
X70634Y179032D01*
X70722Y178961D01*
X70808Y178886D01*
X70891Y178809D01*
X70971Y178729D01*
X71048Y178646D01*
X71123Y178560D01*
X71194Y178472D01*
X71262Y178382D01*
X71327Y178289D01*
X71389Y178194D01*
X71447Y178097D01*
X71502Y177998D01*
X71553Y177897D01*
X71601Y177794D01*
X71646Y177690D01*
X71686Y177584D01*
X71723Y177477D01*
X71756Y177369D01*
X71786Y177259D01*
X71811Y177149D01*
X71833Y177038D01*
X71850Y176926D01*
X71864Y176813D01*
X71874Y176700D01*
X71880Y176587D01*
X71882Y176474D01*
X71880Y176361D01*
X71874Y176248D01*
X71864Y176135D01*
X71850Y176022D01*
X71833Y175910D01*
X71811Y175799D01*
X71786Y175689D01*
X71756Y175579D01*
X71723Y175471D01*
X71686Y175364D01*
X71646Y175258D01*
X71601Y175154D01*
X71553Y175051D01*
X71502Y174950D01*
X71447Y174851D01*
X71389Y174754D01*
X71327Y174659D01*
X71262Y174566D01*
X71194Y174476D01*
X71123Y174388D01*
X71048Y174302D01*
X70971Y174219D01*
X70891Y174139D01*
X70808Y174062D01*
X70722Y173987D01*
X70634Y173916D01*
X70544Y173848D01*
X70451Y173783D01*
X70356Y173721D01*
X70259Y173663D01*
X70160Y173608D01*
X70059Y173557D01*
X69956Y173509D01*
X69852Y173464D01*
X69746Y173424D01*
X69639Y173387D01*
X69531Y173354D01*
X69421Y173324D01*
X69311Y173299D01*
X69200Y173277D01*
X69088Y173260D01*
X68975Y173246D01*
X68862Y173236D01*
X68749Y173230D01*
X68636Y173228D01*
X68523Y173230D01*
X68410Y173236D01*
X68297Y173246D01*
X68184Y173260D01*
X68072Y173277D01*
X67961Y173299D01*
X67851Y173324D01*
X67741Y173354D01*
X67633Y173387D01*
X67526Y173424D01*
X67420Y173464D01*
X67316Y173509D01*
X67213Y173557D01*
X67112Y173608D01*
X67013Y173663D01*
X66916Y173721D01*
X66821Y173783D01*
X66728Y173848D01*
X66638Y173916D01*
X66550Y173987D01*
X66464Y174062D01*
X66381Y174139D01*
X66301Y174219D01*
X66224Y174302D01*
X66149Y174388D01*
X66078Y174476D01*
X66010Y174566D01*
X65945Y174659D01*
X65883Y174754D01*
X65825Y174851D01*
X65770Y174950D01*
X65719Y175051D01*
X65671Y175154D01*
X65626Y175258D01*
X65586Y175364D01*
X65549Y175471D01*
X65516Y175579D01*
X65486Y175689D01*
X65461Y175799D01*
X65439Y175910D01*
X65422Y176022D01*
X65408Y176135D01*
X65398Y176248D01*
X65392Y176361D01*
X65390Y176474D01*
X66040Y182316D02*
X66042Y182417D01*
X66048Y182517D01*
X66058Y182617D01*
X66071Y182717D01*
X66089Y182816D01*
X66110Y182915D01*
X66135Y183012D01*
X66164Y183109D01*
X66197Y183204D01*
X66233Y183298D01*
X66273Y183390D01*
X66316Y183481D01*
X66363Y183570D01*
X66413Y183657D01*
X66467Y183743D01*
X66524Y183826D01*
X66584Y183906D01*
X66647Y183985D01*
X66714Y184061D01*
X66783Y184134D01*
X66855Y184204D01*
X66929Y184272D01*
X67006Y184337D01*
X67086Y184398D01*
X67168Y184457D01*
X67252Y184512D01*
X67338Y184564D01*
X67426Y184613D01*
X67516Y184658D01*
X67608Y184700D01*
X67701Y184738D01*
X67796Y184772D01*
X67891Y184803D01*
X67988Y184830D01*
X68086Y184853D01*
X68185Y184873D01*
X68285Y184888D01*
X68385Y184900D01*
X68485Y184908D01*
X68586Y184912D01*
X68686Y184912D01*
X68787Y184908D01*
X68887Y184900D01*
X68987Y184888D01*
X69087Y184873D01*
X69186Y184853D01*
X69284Y184830D01*
X69381Y184803D01*
X69476Y184772D01*
X69571Y184738D01*
X69664Y184700D01*
X69756Y184658D01*
X69846Y184613D01*
X69934Y184564D01*
X70020Y184512D01*
X70104Y184457D01*
X70186Y184398D01*
X70266Y184337D01*
X70343Y184272D01*
X70417Y184204D01*
X70489Y184134D01*
X70558Y184061D01*
X70625Y183985D01*
X70688Y183906D01*
X70748Y183826D01*
X70805Y183743D01*
X70859Y183657D01*
X70909Y183570D01*
X70956Y183481D01*
X70999Y183390D01*
X71039Y183298D01*
X71075Y183204D01*
X71108Y183109D01*
X71137Y183012D01*
X71162Y182915D01*
X71183Y182816D01*
X71201Y182717D01*
X71214Y182617D01*
X71224Y182517D01*
X71230Y182417D01*
X71232Y182316D01*
X71230Y182215D01*
X71224Y182115D01*
X71214Y182015D01*
X71201Y181915D01*
X71183Y181816D01*
X71162Y181717D01*
X71137Y181620D01*
X71108Y181523D01*
X71075Y181428D01*
X71039Y181334D01*
X70999Y181242D01*
X70956Y181151D01*
X70909Y181062D01*
X70859Y180975D01*
X70805Y180889D01*
X70748Y180806D01*
X70688Y180726D01*
X70625Y180647D01*
X70558Y180571D01*
X70489Y180498D01*
X70417Y180428D01*
X70343Y180360D01*
X70266Y180295D01*
X70186Y180234D01*
X70104Y180175D01*
X70020Y180120D01*
X69934Y180068D01*
X69846Y180019D01*
X69756Y179974D01*
X69664Y179932D01*
X69571Y179894D01*
X69476Y179860D01*
X69381Y179829D01*
X69284Y179802D01*
X69186Y179779D01*
X69087Y179759D01*
X68987Y179744D01*
X68887Y179732D01*
X68787Y179724D01*
X68686Y179720D01*
X68586Y179720D01*
X68485Y179724D01*
X68385Y179732D01*
X68285Y179744D01*
X68185Y179759D01*
X68086Y179779D01*
X67988Y179802D01*
X67891Y179829D01*
X67796Y179860D01*
X67701Y179894D01*
X67608Y179932D01*
X67516Y179974D01*
X67426Y180019D01*
X67338Y180068D01*
X67252Y180120D01*
X67168Y180175D01*
X67086Y180234D01*
X67006Y180295D01*
X66929Y180360D01*
X66855Y180428D01*
X66783Y180498D01*
X66714Y180571D01*
X66647Y180647D01*
X66584Y180726D01*
X66524Y180806D01*
X66467Y180889D01*
X66413Y180975D01*
X66363Y181062D01*
X66316Y181151D01*
X66273Y181242D01*
X66233Y181334D01*
X66197Y181428D01*
X66164Y181523D01*
X66135Y181620D01*
X66110Y181717D01*
X66089Y181816D01*
X66071Y181915D01*
X66058Y182015D01*
X66048Y182115D01*
X66042Y182215D01*
X66040Y182316D01*
D18*
X158665Y590000D02*
X186140Y590000D01*
X186140Y581575D01*
X186140Y553000D02*
X158665Y553000D01*
X186140Y553000D02*
X186140Y561425D01*
X149140Y565700D02*
X149140Y577300D01*
D10*
X157353Y594233D02*
X157353Y605917D01*
X160599Y605917D01*
X160712Y605915D01*
X160825Y605909D01*
X160938Y605899D01*
X161051Y605885D01*
X161163Y605868D01*
X161274Y605846D01*
X161384Y605821D01*
X161494Y605791D01*
X161602Y605758D01*
X161709Y605721D01*
X161815Y605681D01*
X161919Y605636D01*
X162022Y605588D01*
X162123Y605537D01*
X162222Y605482D01*
X162319Y605424D01*
X162414Y605362D01*
X162507Y605297D01*
X162597Y605229D01*
X162685Y605158D01*
X162771Y605083D01*
X162854Y605006D01*
X162934Y604926D01*
X163011Y604843D01*
X163086Y604757D01*
X163157Y604669D01*
X163225Y604579D01*
X163290Y604486D01*
X163352Y604391D01*
X163410Y604294D01*
X163465Y604195D01*
X163516Y604094D01*
X163564Y603991D01*
X163609Y603887D01*
X163649Y603781D01*
X163686Y603674D01*
X163719Y603566D01*
X163749Y603456D01*
X163774Y603346D01*
X163796Y603235D01*
X163813Y603123D01*
X163827Y603010D01*
X163837Y602897D01*
X163843Y602784D01*
X163845Y602671D01*
X163843Y602558D01*
X163837Y602445D01*
X163827Y602332D01*
X163813Y602219D01*
X163796Y602107D01*
X163774Y601996D01*
X163749Y601886D01*
X163719Y601776D01*
X163686Y601668D01*
X163649Y601561D01*
X163609Y601455D01*
X163564Y601351D01*
X163516Y601248D01*
X163465Y601147D01*
X163410Y601048D01*
X163352Y600951D01*
X163290Y600856D01*
X163225Y600763D01*
X163157Y600673D01*
X163086Y600585D01*
X163011Y600499D01*
X162934Y600416D01*
X162854Y600336D01*
X162771Y600259D01*
X162685Y600184D01*
X162597Y600113D01*
X162507Y600045D01*
X162414Y599980D01*
X162319Y599918D01*
X162222Y599860D01*
X162123Y599805D01*
X162022Y599754D01*
X161919Y599706D01*
X161815Y599661D01*
X161709Y599621D01*
X161602Y599584D01*
X161494Y599551D01*
X161384Y599521D01*
X161274Y599496D01*
X161163Y599474D01*
X161051Y599457D01*
X160938Y599443D01*
X160825Y599433D01*
X160712Y599427D01*
X160599Y599425D01*
X160599Y599426D02*
X157353Y599426D01*
X161248Y599426D02*
X163844Y594233D01*
X168709Y603321D02*
X171955Y605917D01*
X171955Y594233D01*
X175200Y594233D02*
X168709Y594233D01*
D18*
X157395Y198840D02*
X184870Y198840D01*
X184870Y190415D01*
X184870Y161840D02*
X157395Y161840D01*
X184870Y161840D02*
X184870Y170265D01*
X147870Y174540D02*
X147870Y186140D01*
D10*
X153543Y156337D02*
X153543Y144653D01*
X153543Y156337D02*
X156789Y156337D01*
X156902Y156335D01*
X157015Y156329D01*
X157128Y156319D01*
X157241Y156305D01*
X157353Y156288D01*
X157464Y156266D01*
X157574Y156241D01*
X157684Y156211D01*
X157792Y156178D01*
X157899Y156141D01*
X158005Y156101D01*
X158109Y156056D01*
X158212Y156008D01*
X158313Y155957D01*
X158412Y155902D01*
X158509Y155844D01*
X158604Y155782D01*
X158697Y155717D01*
X158787Y155649D01*
X158875Y155578D01*
X158961Y155503D01*
X159044Y155426D01*
X159124Y155346D01*
X159201Y155263D01*
X159276Y155177D01*
X159347Y155089D01*
X159415Y154999D01*
X159480Y154906D01*
X159542Y154811D01*
X159600Y154714D01*
X159655Y154615D01*
X159706Y154514D01*
X159754Y154411D01*
X159799Y154307D01*
X159839Y154201D01*
X159876Y154094D01*
X159909Y153986D01*
X159939Y153876D01*
X159964Y153766D01*
X159986Y153655D01*
X160003Y153543D01*
X160017Y153430D01*
X160027Y153317D01*
X160033Y153204D01*
X160035Y153091D01*
X160033Y152978D01*
X160027Y152865D01*
X160017Y152752D01*
X160003Y152639D01*
X159986Y152527D01*
X159964Y152416D01*
X159939Y152306D01*
X159909Y152196D01*
X159876Y152088D01*
X159839Y151981D01*
X159799Y151875D01*
X159754Y151771D01*
X159706Y151668D01*
X159655Y151567D01*
X159600Y151468D01*
X159542Y151371D01*
X159480Y151276D01*
X159415Y151183D01*
X159347Y151093D01*
X159276Y151005D01*
X159201Y150919D01*
X159124Y150836D01*
X159044Y150756D01*
X158961Y150679D01*
X158875Y150604D01*
X158787Y150533D01*
X158697Y150465D01*
X158604Y150400D01*
X158509Y150338D01*
X158412Y150280D01*
X158313Y150225D01*
X158212Y150174D01*
X158109Y150126D01*
X158005Y150081D01*
X157899Y150041D01*
X157792Y150004D01*
X157684Y149971D01*
X157574Y149941D01*
X157464Y149916D01*
X157353Y149894D01*
X157241Y149877D01*
X157128Y149863D01*
X157015Y149853D01*
X156902Y149847D01*
X156789Y149845D01*
X156789Y149846D02*
X153543Y149846D01*
X157438Y149846D02*
X160034Y144653D01*
X164899Y153741D02*
X168145Y156337D01*
X168145Y144653D01*
X171390Y144653D02*
X164899Y144653D01*
X176329Y153741D02*
X179575Y156337D01*
X179575Y144653D01*
X182820Y144653D02*
X176329Y144653D01*
D14*
X93980Y326720D02*
X93980Y426720D01*
X133980Y426720D01*
X133980Y326720D01*
X93980Y326720D01*
D10*
X110434Y434848D02*
X110434Y446532D01*
X113679Y446532D02*
X107188Y446532D01*
X117856Y443936D02*
X121102Y446532D01*
X121102Y434848D01*
X124347Y434848D02*
X117856Y434848D01*
D14*
X490220Y426720D02*
X490220Y326720D01*
X490220Y426720D02*
X530220Y426720D01*
X530220Y326720D01*
X490220Y326720D01*
D10*
X504134Y437388D02*
X504134Y449072D01*
X507379Y449072D02*
X500888Y449072D01*
X515126Y449072D02*
X515233Y449070D01*
X515339Y449064D01*
X515445Y449054D01*
X515551Y449041D01*
X515657Y449023D01*
X515761Y449002D01*
X515865Y448977D01*
X515968Y448948D01*
X516069Y448916D01*
X516169Y448879D01*
X516268Y448839D01*
X516366Y448796D01*
X516462Y448749D01*
X516556Y448698D01*
X516648Y448644D01*
X516738Y448587D01*
X516826Y448527D01*
X516911Y448463D01*
X516994Y448396D01*
X517075Y448326D01*
X517153Y448254D01*
X517229Y448178D01*
X517301Y448100D01*
X517371Y448019D01*
X517438Y447936D01*
X517502Y447851D01*
X517562Y447763D01*
X517619Y447673D01*
X517673Y447581D01*
X517724Y447487D01*
X517771Y447391D01*
X517814Y447293D01*
X517854Y447194D01*
X517891Y447094D01*
X517923Y446993D01*
X517952Y446890D01*
X517977Y446786D01*
X517998Y446682D01*
X518016Y446576D01*
X518029Y446470D01*
X518039Y446364D01*
X518045Y446258D01*
X518047Y446151D01*
X515126Y449072D02*
X515005Y449070D01*
X514884Y449064D01*
X514764Y449054D01*
X514643Y449041D01*
X514524Y449023D01*
X514404Y449002D01*
X514286Y448977D01*
X514169Y448948D01*
X514052Y448915D01*
X513937Y448879D01*
X513823Y448838D01*
X513710Y448795D01*
X513598Y448747D01*
X513489Y448696D01*
X513381Y448641D01*
X513274Y448583D01*
X513170Y448522D01*
X513068Y448457D01*
X512968Y448389D01*
X512870Y448318D01*
X512774Y448244D01*
X512681Y448167D01*
X512591Y448086D01*
X512503Y448003D01*
X512418Y447917D01*
X512335Y447828D01*
X512256Y447737D01*
X512179Y447643D01*
X512106Y447547D01*
X512036Y447449D01*
X511969Y447348D01*
X511905Y447245D01*
X511845Y447140D01*
X511788Y447033D01*
X511734Y446925D01*
X511684Y446815D01*
X511638Y446703D01*
X511595Y446590D01*
X511556Y446475D01*
X517074Y443879D02*
X517153Y443956D01*
X517229Y444037D01*
X517302Y444120D01*
X517372Y444205D01*
X517439Y444293D01*
X517503Y444383D01*
X517563Y444475D01*
X517620Y444570D01*
X517674Y444666D01*
X517725Y444764D01*
X517772Y444864D01*
X517816Y444966D01*
X517856Y445069D01*
X517892Y445173D01*
X517924Y445279D01*
X517953Y445385D01*
X517978Y445493D01*
X518000Y445601D01*
X518017Y445711D01*
X518031Y445820D01*
X518040Y445930D01*
X518046Y446041D01*
X518048Y446151D01*
X517073Y443879D02*
X511556Y437388D01*
X518047Y437388D01*
D18*
X-15500Y381320D02*
X-15500Y354820D01*
X-15500Y381320D02*
X-37000Y381320D01*
X-44500Y373820D01*
X-82500Y373820D01*
X-82500Y382320D01*
X-94250Y382320D01*
X-94250Y420320D01*
X-82500Y420320D01*
X-82500Y428820D01*
X-44500Y428820D01*
X-37000Y421320D01*
X-15500Y421320D01*
X-15500Y447820D01*
X-1000Y439820D02*
X-1000Y362820D01*
X-1000Y447820D02*
X-15500Y447820D01*
X-15500Y354820D02*
X-1000Y354820D01*
D10*
X11938Y457708D02*
X19727Y469392D01*
X11938Y469392D02*
X19727Y457708D01*
X24017Y466796D02*
X27263Y469392D01*
X27263Y457708D01*
X30508Y457708D02*
X24017Y457708D01*
D18*
X655580Y447820D02*
X655580Y421320D01*
X677080Y421320D01*
X684580Y428820D01*
X722580Y428820D01*
X722580Y420320D01*
X734330Y420320D01*
X734330Y382320D01*
X722580Y382320D01*
X722580Y373820D01*
X684580Y373820D01*
X677080Y381320D01*
X655580Y381320D01*
X655580Y354820D01*
X641080Y362820D02*
X641080Y439820D01*
X641080Y354820D02*
X655580Y354820D01*
X655580Y447820D02*
X641080Y447820D01*
D10*
X616627Y471932D02*
X608838Y460248D01*
X616627Y460248D02*
X608838Y471932D01*
X624487Y471932D02*
X624594Y471930D01*
X624700Y471924D01*
X624806Y471914D01*
X624912Y471901D01*
X625018Y471883D01*
X625122Y471862D01*
X625226Y471837D01*
X625329Y471808D01*
X625430Y471776D01*
X625530Y471739D01*
X625629Y471699D01*
X625727Y471656D01*
X625823Y471609D01*
X625917Y471558D01*
X626009Y471504D01*
X626099Y471447D01*
X626187Y471387D01*
X626272Y471323D01*
X626355Y471256D01*
X626436Y471186D01*
X626514Y471114D01*
X626590Y471038D01*
X626662Y470960D01*
X626732Y470879D01*
X626799Y470796D01*
X626863Y470711D01*
X626923Y470623D01*
X626980Y470533D01*
X627034Y470441D01*
X627085Y470347D01*
X627132Y470251D01*
X627175Y470153D01*
X627215Y470054D01*
X627252Y469954D01*
X627284Y469853D01*
X627313Y469750D01*
X627338Y469646D01*
X627359Y469542D01*
X627377Y469436D01*
X627390Y469330D01*
X627400Y469224D01*
X627406Y469118D01*
X627408Y469011D01*
X624487Y471932D02*
X624366Y471930D01*
X624245Y471924D01*
X624125Y471914D01*
X624004Y471901D01*
X623885Y471883D01*
X623765Y471862D01*
X623647Y471837D01*
X623530Y471808D01*
X623413Y471775D01*
X623298Y471739D01*
X623184Y471698D01*
X623071Y471655D01*
X622959Y471607D01*
X622850Y471556D01*
X622742Y471501D01*
X622635Y471443D01*
X622531Y471382D01*
X622429Y471317D01*
X622329Y471249D01*
X622231Y471178D01*
X622135Y471104D01*
X622042Y471027D01*
X621952Y470946D01*
X621864Y470863D01*
X621779Y470777D01*
X621696Y470688D01*
X621617Y470597D01*
X621540Y470503D01*
X621467Y470407D01*
X621397Y470309D01*
X621330Y470208D01*
X621266Y470105D01*
X621206Y470000D01*
X621149Y469893D01*
X621095Y469785D01*
X621045Y469675D01*
X620999Y469563D01*
X620956Y469450D01*
X620917Y469335D01*
X626435Y466739D02*
X626514Y466816D01*
X626590Y466897D01*
X626663Y466980D01*
X626733Y467065D01*
X626800Y467153D01*
X626864Y467243D01*
X626924Y467335D01*
X626981Y467430D01*
X627035Y467526D01*
X627086Y467624D01*
X627133Y467724D01*
X627177Y467826D01*
X627217Y467929D01*
X627253Y468033D01*
X627285Y468139D01*
X627314Y468245D01*
X627339Y468353D01*
X627361Y468461D01*
X627378Y468571D01*
X627392Y468680D01*
X627401Y468790D01*
X627407Y468901D01*
X627409Y469011D01*
X626435Y466739D02*
X620917Y460248D01*
X627408Y460248D01*
D13*
X434340Y623570D02*
X434340Y654050D01*
X434340Y623570D02*
X535940Y623570D01*
X434340Y623570D02*
X429260Y623570D01*
X429260Y671830D01*
X434340Y669290D01*
X434340Y737870D02*
X429260Y740410D01*
X434340Y737870D02*
X434340Y748030D01*
X434340Y726440D02*
X429260Y723900D01*
X434340Y726440D02*
X434340Y737870D01*
X429260Y740410D02*
X429260Y723900D01*
X480568Y728980D02*
X480568Y748030D01*
X439928Y728980D02*
X439928Y683260D01*
X439928Y748030D02*
X480568Y748030D01*
X439928Y748030D02*
X434340Y748030D01*
X489966Y748030D02*
X489966Y728980D01*
X489966Y748030D02*
X480568Y748030D01*
X530606Y728980D02*
X530606Y683260D01*
X530606Y748030D02*
X535940Y748030D01*
X530606Y748030D02*
X489966Y748030D01*
X480568Y728980D02*
X439928Y728980D01*
X480568Y728980D02*
X480568Y683260D01*
X439928Y728980D02*
X439928Y748030D01*
X489966Y728980D02*
X530606Y728980D01*
X489966Y728980D02*
X489966Y683260D01*
X530606Y728980D02*
X530606Y748030D01*
X443738Y722630D02*
X443738Y690880D01*
X443738Y722630D02*
X476758Y722630D01*
X476758Y690880D01*
X493776Y690880D02*
X493776Y722630D01*
X526796Y722630D01*
X526796Y690880D01*
X535940Y679450D02*
X535940Y748030D01*
X535940Y679450D02*
X535940Y654050D01*
X434340Y669290D02*
X434340Y679450D01*
X434340Y726440D01*
X434340Y654050D02*
X535940Y654050D01*
X535940Y623570D01*
X434340Y654050D02*
X434340Y669290D01*
X480568Y651510D02*
X480568Y626110D01*
X439928Y626110D01*
X439928Y651510D01*
X480568Y651510D01*
X489966Y651510D02*
X489966Y626110D01*
X489966Y651510D02*
X530606Y651510D01*
X530606Y626110D01*
X489966Y626110D01*
X445009Y635255D02*
X444899Y635380D01*
X444793Y635507D01*
X444689Y635637D01*
X444589Y635770D01*
X444492Y635904D01*
X444398Y636042D01*
X444308Y636181D01*
X444221Y636323D01*
X444137Y636466D01*
X444057Y636612D01*
X443981Y636760D01*
X443908Y636909D01*
X443839Y637060D01*
X443774Y637213D01*
X443712Y637367D01*
X443654Y637523D01*
X443600Y637680D01*
X443550Y637839D01*
X443503Y637998D01*
X443461Y638159D01*
X443422Y638320D01*
X443387Y638483D01*
X443357Y638646D01*
X443330Y638810D01*
X443307Y638975D01*
X443289Y639140D01*
X443274Y639306D01*
X443263Y639471D01*
X443257Y639638D01*
X443254Y639804D01*
X443255Y639970D01*
X443261Y640136D01*
X443271Y640302D01*
X443284Y640467D01*
X443302Y640633D01*
X443323Y640798D01*
X443349Y640962D01*
X443378Y641125D01*
X443412Y641288D01*
X443449Y641450D01*
X443491Y641611D01*
X443536Y641771D01*
X443585Y641929D01*
X443638Y642087D01*
X443695Y642243D01*
X443756Y642398D01*
X443820Y642551D01*
X443888Y642703D01*
X443960Y642853D01*
X444036Y643001D01*
X444115Y643147D01*
X444197Y643291D01*
X444283Y643433D01*
X444372Y643573D01*
X444465Y643711D01*
X444561Y643847D01*
X444661Y643980D01*
X444763Y644111D01*
X444869Y644239D01*
X444978Y644365D01*
X445090Y644487D01*
X445204Y644608D01*
X445322Y644725D01*
X445443Y644839D01*
X445566Y644951D01*
X445102Y644611D02*
X445583Y644962D01*
X446072Y645302D01*
X446570Y645630D01*
X447075Y645945D01*
X447588Y646248D01*
X448108Y646538D01*
X448635Y646816D01*
X449168Y647080D01*
X449708Y647332D01*
X450254Y647570D01*
X450805Y647795D01*
X451362Y648006D01*
X451924Y648204D01*
X452490Y648388D01*
X453061Y648558D01*
X453636Y648714D01*
X454214Y648856D01*
X454796Y648984D01*
X455380Y649097D01*
X455968Y649197D01*
X456557Y649281D01*
X457148Y649352D01*
X457741Y649408D01*
X458335Y649450D01*
X458930Y649477D01*
X459526Y649489D01*
X460121Y649487D01*
X460717Y649470D01*
X461311Y649439D01*
X461905Y649394D01*
X462498Y649334D01*
X463088Y649259D01*
X463677Y649170D01*
X464264Y649067D01*
X464848Y648949D01*
X465428Y648818D01*
X466006Y648672D01*
X466579Y648512D01*
X467149Y648338D01*
X467714Y648150D01*
X468275Y647948D01*
X468830Y647733D01*
X469380Y647505D01*
X469924Y647263D01*
X470462Y647007D01*
X470994Y646739D01*
X471519Y646458D01*
X472037Y646164D01*
X472547Y645858D01*
X473050Y645539D01*
X473546Y645208D01*
X474032Y644865D01*
X474511Y644510D01*
X474980Y644144D01*
X476504Y635762D02*
X476185Y635378D01*
X475857Y635002D01*
X475520Y634634D01*
X475174Y634274D01*
X474820Y633922D01*
X474457Y633579D01*
X474086Y633246D01*
X473707Y632921D01*
X473320Y632605D01*
X472925Y632299D01*
X472524Y632003D01*
X472115Y631716D01*
X471700Y631440D01*
X471277Y631174D01*
X470849Y630918D01*
X470414Y630672D01*
X469974Y630437D01*
X469528Y630213D01*
X469077Y629999D01*
X468621Y629797D01*
X468160Y629606D01*
X467694Y629426D01*
X467224Y629257D01*
X466750Y629100D01*
X466273Y628954D01*
X465792Y628820D01*
X465308Y628698D01*
X464822Y628587D01*
X464332Y628488D01*
X463841Y628401D01*
X463347Y628326D01*
X462852Y628263D01*
X462356Y628213D01*
X461858Y628174D01*
X461360Y628147D01*
X460861Y628132D01*
X460361Y628129D01*
X459862Y628139D01*
X459364Y628161D01*
X458866Y628194D01*
X458369Y628240D01*
X457873Y628298D01*
X457379Y628367D01*
X456886Y628449D01*
X456396Y628543D01*
X455908Y628648D01*
X455423Y628766D01*
X454941Y628895D01*
X454462Y629035D01*
X453986Y629188D01*
X453515Y629351D01*
X453048Y629526D01*
X452584Y629713D01*
X452126Y629910D01*
X451673Y630119D01*
X451224Y630339D01*
X450782Y630569D01*
X450344Y630810D01*
X449913Y631061D01*
X449488Y631323D01*
X449070Y631596D01*
X448658Y631878D01*
X448254Y632170D01*
X447856Y632472D01*
X447466Y632783D01*
X447083Y633104D01*
X446709Y633434D01*
X446342Y633773D01*
X445984Y634120D01*
X445635Y634477D01*
X445294Y634841D01*
X444962Y635214D01*
X474559Y644503D02*
X474691Y644428D01*
X474821Y644349D01*
X474949Y644267D01*
X475074Y644181D01*
X475198Y644093D01*
X475319Y644001D01*
X475438Y643906D01*
X475554Y643808D01*
X475668Y643708D01*
X475779Y643604D01*
X475887Y643498D01*
X475993Y643388D01*
X476096Y643276D01*
X476196Y643162D01*
X476292Y643045D01*
X476386Y642926D01*
X476477Y642804D01*
X476565Y642680D01*
X476649Y642553D01*
X476731Y642425D01*
X476809Y642295D01*
X476883Y642162D01*
X476954Y642028D01*
X477022Y641892D01*
X477086Y641754D01*
X477147Y641615D01*
X477204Y641474D01*
X477257Y641332D01*
X477307Y641188D01*
X477353Y641044D01*
X477395Y640898D01*
X477434Y640751D01*
X477468Y640603D01*
X477499Y640454D01*
X477527Y640305D01*
X477550Y640154D01*
X477569Y640004D01*
X477585Y639853D01*
X477597Y639701D01*
X477605Y639549D01*
X477608Y639398D01*
X477609Y639246D01*
X477605Y639094D01*
X477597Y638942D01*
X477585Y638791D01*
X477570Y638639D01*
X477551Y638489D01*
X477527Y638339D01*
X477500Y638189D01*
X477470Y638040D01*
X477435Y637892D01*
X477396Y637745D01*
X477354Y637599D01*
X477308Y637455D01*
X477259Y637311D01*
X477205Y637169D01*
X477149Y637028D01*
X477088Y636888D01*
X477024Y636751D01*
X476957Y636615D01*
X476886Y636480D01*
X476811Y636348D01*
X476733Y636217D01*
X476652Y636089D01*
X476568Y635962D01*
X476480Y635838D01*
X476390Y635716D01*
X476296Y635597D01*
X476199Y635480D01*
X476099Y635365D01*
X475996Y635253D01*
X476504Y641350D02*
X446024Y635000D01*
X444754Y636270D02*
X475234Y642620D01*
X495604Y644951D02*
X495481Y644839D01*
X495360Y644725D01*
X495242Y644608D01*
X495128Y644487D01*
X495016Y644365D01*
X494907Y644239D01*
X494801Y644111D01*
X494699Y643980D01*
X494599Y643847D01*
X494503Y643711D01*
X494410Y643573D01*
X494321Y643433D01*
X494235Y643291D01*
X494153Y643147D01*
X494074Y643001D01*
X493998Y642853D01*
X493926Y642703D01*
X493858Y642551D01*
X493794Y642398D01*
X493733Y642243D01*
X493676Y642087D01*
X493623Y641929D01*
X493574Y641771D01*
X493529Y641611D01*
X493487Y641450D01*
X493450Y641288D01*
X493416Y641125D01*
X493387Y640962D01*
X493361Y640798D01*
X493340Y640633D01*
X493322Y640467D01*
X493309Y640302D01*
X493299Y640136D01*
X493293Y639970D01*
X493292Y639804D01*
X493295Y639638D01*
X493301Y639471D01*
X493312Y639306D01*
X493327Y639140D01*
X493345Y638975D01*
X493368Y638810D01*
X493395Y638646D01*
X493425Y638483D01*
X493460Y638320D01*
X493499Y638159D01*
X493541Y637998D01*
X493588Y637839D01*
X493638Y637680D01*
X493692Y637523D01*
X493750Y637367D01*
X493812Y637213D01*
X493877Y637060D01*
X493946Y636909D01*
X494019Y636760D01*
X494095Y636612D01*
X494175Y636466D01*
X494259Y636323D01*
X494346Y636181D01*
X494436Y636042D01*
X494530Y635904D01*
X494627Y635770D01*
X494727Y635637D01*
X494831Y635507D01*
X494937Y635380D01*
X495047Y635255D01*
X495140Y644612D02*
X495621Y644964D01*
X496110Y645303D01*
X496607Y645631D01*
X497112Y645946D01*
X497625Y646249D01*
X498145Y646540D01*
X498672Y646817D01*
X499206Y647082D01*
X499745Y647333D01*
X500291Y647571D01*
X500843Y647796D01*
X501400Y648008D01*
X501961Y648205D01*
X502528Y648389D01*
X503099Y648559D01*
X503673Y648715D01*
X504252Y648857D01*
X504833Y648985D01*
X505418Y649098D01*
X506005Y649198D01*
X506595Y649283D01*
X507186Y649353D01*
X507779Y649409D01*
X508373Y649451D01*
X508968Y649478D01*
X509564Y649490D01*
X510159Y649488D01*
X510754Y649471D01*
X511349Y649440D01*
X511943Y649395D01*
X512535Y649335D01*
X513126Y649260D01*
X513715Y649171D01*
X514302Y649068D01*
X514886Y648950D01*
X515466Y648818D01*
X516044Y648672D01*
X516617Y648512D01*
X517187Y648338D01*
X517752Y648151D01*
X518313Y647949D01*
X518868Y647734D01*
X519418Y647505D01*
X519962Y647263D01*
X520500Y647008D01*
X521032Y646740D01*
X521557Y646459D01*
X522075Y646165D01*
X522585Y645858D01*
X523088Y645539D01*
X523584Y645208D01*
X524070Y644865D01*
X524549Y644511D01*
X525018Y644144D01*
X526542Y635762D02*
X526223Y635378D01*
X525895Y635001D01*
X525558Y634633D01*
X525212Y634273D01*
X524858Y633922D01*
X524495Y633579D01*
X524124Y633245D01*
X523745Y632920D01*
X523358Y632605D01*
X522964Y632298D01*
X522562Y632002D01*
X522153Y631716D01*
X521738Y631439D01*
X521316Y631173D01*
X520887Y630916D01*
X520452Y630671D01*
X520012Y630436D01*
X519566Y630211D01*
X519115Y629998D01*
X518658Y629796D01*
X518197Y629604D01*
X517732Y629424D01*
X517262Y629256D01*
X516788Y629098D01*
X516311Y628953D01*
X515830Y628818D01*
X515346Y628696D01*
X514859Y628585D01*
X514370Y628487D01*
X513878Y628400D01*
X513385Y628325D01*
X512890Y628262D01*
X512393Y628211D01*
X511895Y628172D01*
X511397Y628145D01*
X510898Y628130D01*
X510399Y628127D01*
X509900Y628137D01*
X509401Y628158D01*
X508903Y628192D01*
X508406Y628238D01*
X507910Y628296D01*
X507416Y628365D01*
X506923Y628447D01*
X506433Y628541D01*
X505945Y628646D01*
X505460Y628763D01*
X504977Y628892D01*
X504498Y629033D01*
X504023Y629185D01*
X503552Y629349D01*
X503084Y629524D01*
X502621Y629710D01*
X502162Y629908D01*
X501709Y630117D01*
X501261Y630336D01*
X500818Y630566D01*
X500381Y630807D01*
X499949Y631059D01*
X499524Y631321D01*
X499106Y631593D01*
X498694Y631875D01*
X498289Y632167D01*
X497892Y632469D01*
X497502Y632781D01*
X497119Y633101D01*
X496745Y633431D01*
X496378Y633770D01*
X496020Y634118D01*
X495670Y634474D01*
X495329Y634839D01*
X494997Y635212D01*
X524597Y644503D02*
X524729Y644428D01*
X524859Y644349D01*
X524987Y644267D01*
X525112Y644181D01*
X525236Y644093D01*
X525357Y644001D01*
X525476Y643906D01*
X525592Y643808D01*
X525706Y643708D01*
X525817Y643604D01*
X525925Y643498D01*
X526031Y643388D01*
X526134Y643276D01*
X526234Y643162D01*
X526330Y643045D01*
X526424Y642926D01*
X526515Y642804D01*
X526603Y642680D01*
X526687Y642553D01*
X526769Y642425D01*
X526847Y642295D01*
X526921Y642162D01*
X526992Y642028D01*
X527060Y641892D01*
X527124Y641754D01*
X527185Y641615D01*
X527242Y641474D01*
X527295Y641332D01*
X527345Y641188D01*
X527391Y641044D01*
X527433Y640898D01*
X527472Y640751D01*
X527506Y640603D01*
X527537Y640454D01*
X527565Y640305D01*
X527588Y640154D01*
X527607Y640004D01*
X527623Y639853D01*
X527635Y639701D01*
X527643Y639549D01*
X527646Y639398D01*
X527647Y639246D01*
X527643Y639094D01*
X527635Y638942D01*
X527623Y638791D01*
X527608Y638639D01*
X527589Y638489D01*
X527565Y638339D01*
X527538Y638189D01*
X527508Y638040D01*
X527473Y637892D01*
X527434Y637745D01*
X527392Y637599D01*
X527346Y637455D01*
X527297Y637311D01*
X527243Y637169D01*
X527187Y637028D01*
X527126Y636888D01*
X527062Y636751D01*
X526995Y636615D01*
X526924Y636480D01*
X526849Y636348D01*
X526771Y636217D01*
X526690Y636089D01*
X526606Y635962D01*
X526518Y635838D01*
X526428Y635716D01*
X526334Y635597D01*
X526237Y635480D01*
X526137Y635365D01*
X526034Y635253D01*
X526542Y641350D02*
X496062Y635000D01*
X494792Y636270D02*
X525272Y642620D01*
X526796Y683260D02*
X530606Y683260D01*
X493776Y683260D02*
X489966Y683260D01*
X526796Y679450D02*
X535940Y679450D01*
X493776Y679450D02*
X476758Y679450D01*
X443738Y679450D02*
X434340Y679450D01*
X439928Y683260D02*
X443738Y683260D01*
X476758Y683260D02*
X480568Y683260D01*
D14*
X523113Y669925D02*
X526288Y672465D01*
X526288Y661035D01*
X523113Y661035D02*
X529463Y661035D01*
X478664Y669608D02*
X478662Y669712D01*
X478656Y669817D01*
X478647Y669921D01*
X478634Y670024D01*
X478616Y670127D01*
X478596Y670229D01*
X478571Y670331D01*
X478543Y670431D01*
X478511Y670531D01*
X478475Y670629D01*
X478436Y670726D01*
X478394Y670821D01*
X478348Y670915D01*
X478298Y671007D01*
X478246Y671097D01*
X478190Y671185D01*
X478130Y671271D01*
X478068Y671355D01*
X478003Y671436D01*
X477935Y671515D01*
X477863Y671592D01*
X477790Y671665D01*
X477713Y671737D01*
X477634Y671805D01*
X477553Y671870D01*
X477469Y671932D01*
X477383Y671992D01*
X477295Y672048D01*
X477205Y672100D01*
X477113Y672150D01*
X477019Y672196D01*
X476924Y672238D01*
X476827Y672277D01*
X476729Y672313D01*
X476629Y672345D01*
X476529Y672373D01*
X476427Y672398D01*
X476325Y672418D01*
X476222Y672436D01*
X476119Y672449D01*
X476015Y672458D01*
X475910Y672464D01*
X475806Y672466D01*
X475806Y672465D02*
X475688Y672463D01*
X475569Y672457D01*
X475451Y672448D01*
X475334Y672435D01*
X475217Y672417D01*
X475100Y672397D01*
X474984Y672372D01*
X474869Y672344D01*
X474756Y672311D01*
X474643Y672276D01*
X474531Y672236D01*
X474421Y672194D01*
X474312Y672147D01*
X474204Y672097D01*
X474099Y672044D01*
X473995Y671987D01*
X473893Y671927D01*
X473793Y671864D01*
X473695Y671797D01*
X473599Y671728D01*
X473506Y671655D01*
X473415Y671579D01*
X473326Y671501D01*
X473240Y671419D01*
X473157Y671335D01*
X473076Y671249D01*
X472999Y671159D01*
X472924Y671068D01*
X472852Y670974D01*
X472783Y670877D01*
X472718Y670779D01*
X472655Y670678D01*
X472596Y670575D01*
X472540Y670471D01*
X472488Y670365D01*
X472439Y670257D01*
X472394Y670148D01*
X472352Y670037D01*
X472314Y669925D01*
X477711Y667386D02*
X477787Y667461D01*
X477862Y667540D01*
X477933Y667621D01*
X478002Y667705D01*
X478067Y667791D01*
X478129Y667879D01*
X478189Y667969D01*
X478245Y668061D01*
X478298Y668156D01*
X478347Y668252D01*
X478393Y668350D01*
X478436Y668449D01*
X478475Y668550D01*
X478510Y668652D01*
X478542Y668755D01*
X478570Y668859D01*
X478595Y668964D01*
X478616Y669071D01*
X478633Y669177D01*
X478646Y669284D01*
X478655Y669392D01*
X478661Y669500D01*
X478663Y669608D01*
X477711Y667385D02*
X472313Y661035D01*
X478663Y661035D01*
X544195Y705485D02*
X551815Y716915D01*
X544195Y716915D02*
X551815Y705485D01*
X556260Y705485D02*
X559435Y705485D01*
X559546Y705487D01*
X559656Y705493D01*
X559767Y705502D01*
X559877Y705516D01*
X559986Y705533D01*
X560095Y705554D01*
X560203Y705579D01*
X560310Y705608D01*
X560416Y705640D01*
X560521Y705676D01*
X560624Y705716D01*
X560726Y705759D01*
X560827Y705806D01*
X560926Y705857D01*
X561023Y705910D01*
X561117Y705967D01*
X561210Y706028D01*
X561301Y706091D01*
X561390Y706158D01*
X561476Y706228D01*
X561559Y706301D01*
X561641Y706376D01*
X561719Y706454D01*
X561794Y706536D01*
X561867Y706619D01*
X561937Y706705D01*
X562004Y706794D01*
X562067Y706885D01*
X562128Y706978D01*
X562185Y707073D01*
X562238Y707169D01*
X562289Y707268D01*
X562336Y707369D01*
X562379Y707471D01*
X562419Y707574D01*
X562455Y707679D01*
X562487Y707785D01*
X562516Y707892D01*
X562541Y708000D01*
X562562Y708109D01*
X562579Y708218D01*
X562593Y708328D01*
X562602Y708439D01*
X562608Y708549D01*
X562610Y708660D01*
X562608Y708771D01*
X562602Y708881D01*
X562593Y708992D01*
X562579Y709102D01*
X562562Y709211D01*
X562541Y709320D01*
X562516Y709428D01*
X562487Y709535D01*
X562455Y709641D01*
X562419Y709746D01*
X562379Y709849D01*
X562336Y709951D01*
X562289Y710052D01*
X562238Y710151D01*
X562185Y710247D01*
X562128Y710342D01*
X562067Y710435D01*
X562004Y710526D01*
X561937Y710615D01*
X561867Y710701D01*
X561794Y710784D01*
X561719Y710866D01*
X561641Y710944D01*
X561559Y711019D01*
X561476Y711092D01*
X561390Y711162D01*
X561301Y711229D01*
X561210Y711292D01*
X561117Y711353D01*
X561023Y711410D01*
X560926Y711463D01*
X560827Y711514D01*
X560726Y711561D01*
X560624Y711604D01*
X560521Y711644D01*
X560416Y711680D01*
X560310Y711712D01*
X560203Y711741D01*
X560095Y711766D01*
X559986Y711787D01*
X559877Y711804D01*
X559767Y711818D01*
X559656Y711827D01*
X559546Y711833D01*
X559435Y711835D01*
X560070Y716915D02*
X556260Y716915D01*
X560070Y716915D02*
X560170Y716913D01*
X560269Y716907D01*
X560369Y716897D01*
X560467Y716884D01*
X560566Y716866D01*
X560663Y716845D01*
X560759Y716820D01*
X560855Y716791D01*
X560949Y716758D01*
X561042Y716722D01*
X561133Y716682D01*
X561223Y716638D01*
X561311Y716591D01*
X561397Y716541D01*
X561481Y716487D01*
X561563Y716430D01*
X561642Y716370D01*
X561720Y716306D01*
X561794Y716240D01*
X561866Y716171D01*
X561935Y716099D01*
X562001Y716025D01*
X562065Y715947D01*
X562125Y715868D01*
X562182Y715786D01*
X562236Y715702D01*
X562286Y715616D01*
X562333Y715528D01*
X562377Y715438D01*
X562417Y715347D01*
X562453Y715254D01*
X562486Y715160D01*
X562515Y715064D01*
X562540Y714968D01*
X562561Y714871D01*
X562579Y714772D01*
X562592Y714674D01*
X562602Y714574D01*
X562608Y714475D01*
X562610Y714375D01*
X562608Y714275D01*
X562602Y714176D01*
X562592Y714076D01*
X562579Y713978D01*
X562561Y713879D01*
X562540Y713782D01*
X562515Y713686D01*
X562486Y713590D01*
X562453Y713496D01*
X562417Y713403D01*
X562377Y713312D01*
X562333Y713222D01*
X562286Y713134D01*
X562236Y713048D01*
X562182Y712964D01*
X562125Y712882D01*
X562065Y712803D01*
X562001Y712725D01*
X561935Y712651D01*
X561866Y712579D01*
X561794Y712510D01*
X561720Y712444D01*
X561642Y712380D01*
X561563Y712320D01*
X561481Y712263D01*
X561397Y712209D01*
X561311Y712159D01*
X561223Y712112D01*
X561133Y712068D01*
X561042Y712028D01*
X560949Y711992D01*
X560855Y711959D01*
X560759Y711930D01*
X560663Y711905D01*
X560566Y711884D01*
X560467Y711866D01*
X560369Y711853D01*
X560269Y711843D01*
X560170Y711837D01*
X560070Y711835D01*
X557530Y711835D01*
D11*
X94900Y663980D03*
X82900Y663980D03*
D12*
X88900Y663980D03*
D10*
X54850Y658368D02*
X54850Y670052D01*
X58095Y670052D01*
X58208Y670050D01*
X58321Y670044D01*
X58434Y670034D01*
X58547Y670020D01*
X58659Y670003D01*
X58770Y669981D01*
X58880Y669956D01*
X58990Y669926D01*
X59098Y669893D01*
X59205Y669856D01*
X59311Y669816D01*
X59415Y669771D01*
X59518Y669723D01*
X59619Y669672D01*
X59718Y669617D01*
X59815Y669559D01*
X59910Y669497D01*
X60003Y669432D01*
X60093Y669364D01*
X60181Y669293D01*
X60267Y669218D01*
X60350Y669141D01*
X60430Y669061D01*
X60507Y668978D01*
X60582Y668892D01*
X60653Y668804D01*
X60721Y668714D01*
X60786Y668621D01*
X60848Y668526D01*
X60906Y668429D01*
X60961Y668330D01*
X61012Y668229D01*
X61060Y668126D01*
X61105Y668022D01*
X61145Y667916D01*
X61182Y667809D01*
X61215Y667701D01*
X61245Y667591D01*
X61270Y667481D01*
X61292Y667370D01*
X61309Y667258D01*
X61323Y667145D01*
X61333Y667032D01*
X61339Y666919D01*
X61341Y666806D01*
X61341Y661614D01*
X61342Y661614D02*
X61340Y661501D01*
X61334Y661388D01*
X61324Y661275D01*
X61310Y661162D01*
X61293Y661050D01*
X61271Y660939D01*
X61246Y660829D01*
X61216Y660719D01*
X61183Y660611D01*
X61146Y660504D01*
X61106Y660398D01*
X61061Y660294D01*
X61013Y660191D01*
X60962Y660090D01*
X60907Y659991D01*
X60849Y659894D01*
X60787Y659799D01*
X60722Y659706D01*
X60654Y659616D01*
X60583Y659528D01*
X60508Y659442D01*
X60431Y659359D01*
X60351Y659279D01*
X60268Y659202D01*
X60182Y659127D01*
X60094Y659056D01*
X60004Y658988D01*
X59911Y658923D01*
X59816Y658861D01*
X59719Y658803D01*
X59620Y658748D01*
X59519Y658697D01*
X59416Y658649D01*
X59312Y658604D01*
X59206Y658564D01*
X59099Y658527D01*
X58991Y658494D01*
X58881Y658464D01*
X58771Y658439D01*
X58660Y658417D01*
X58548Y658400D01*
X58435Y658386D01*
X58322Y658376D01*
X58209Y658370D01*
X58096Y658368D01*
X58095Y658368D02*
X54850Y658368D01*
X66661Y664859D02*
X70556Y664859D01*
X70655Y664857D01*
X70755Y664851D01*
X70854Y664842D01*
X70952Y664829D01*
X71050Y664812D01*
X71148Y664791D01*
X71244Y664766D01*
X71339Y664738D01*
X71433Y664706D01*
X71526Y664671D01*
X71618Y664632D01*
X71708Y664589D01*
X71796Y664544D01*
X71883Y664494D01*
X71967Y664442D01*
X72050Y664386D01*
X72130Y664328D01*
X72208Y664266D01*
X72283Y664201D01*
X72356Y664133D01*
X72426Y664063D01*
X72494Y663990D01*
X72559Y663915D01*
X72621Y663837D01*
X72679Y663757D01*
X72735Y663674D01*
X72787Y663590D01*
X72837Y663503D01*
X72882Y663415D01*
X72925Y663325D01*
X72964Y663233D01*
X72999Y663140D01*
X73031Y663046D01*
X73059Y662951D01*
X73084Y662855D01*
X73105Y662757D01*
X73122Y662659D01*
X73135Y662561D01*
X73144Y662462D01*
X73150Y662362D01*
X73152Y662263D01*
X73152Y661614D01*
X73150Y661501D01*
X73144Y661388D01*
X73134Y661275D01*
X73120Y661162D01*
X73103Y661050D01*
X73081Y660939D01*
X73056Y660829D01*
X73026Y660719D01*
X72993Y660611D01*
X72956Y660504D01*
X72916Y660398D01*
X72871Y660294D01*
X72823Y660191D01*
X72772Y660090D01*
X72717Y659991D01*
X72659Y659894D01*
X72597Y659799D01*
X72532Y659706D01*
X72464Y659616D01*
X72393Y659528D01*
X72318Y659442D01*
X72241Y659359D01*
X72161Y659279D01*
X72078Y659202D01*
X71992Y659127D01*
X71904Y659056D01*
X71814Y658988D01*
X71721Y658923D01*
X71626Y658861D01*
X71529Y658803D01*
X71430Y658748D01*
X71329Y658697D01*
X71226Y658649D01*
X71122Y658604D01*
X71016Y658564D01*
X70909Y658527D01*
X70801Y658494D01*
X70691Y658464D01*
X70581Y658439D01*
X70470Y658417D01*
X70358Y658400D01*
X70245Y658386D01*
X70132Y658376D01*
X70019Y658370D01*
X69906Y658368D01*
X69793Y658370D01*
X69680Y658376D01*
X69567Y658386D01*
X69454Y658400D01*
X69342Y658417D01*
X69231Y658439D01*
X69121Y658464D01*
X69011Y658494D01*
X68903Y658527D01*
X68796Y658564D01*
X68690Y658604D01*
X68586Y658649D01*
X68483Y658697D01*
X68382Y658748D01*
X68283Y658803D01*
X68186Y658861D01*
X68091Y658923D01*
X67998Y658988D01*
X67908Y659056D01*
X67820Y659127D01*
X67734Y659202D01*
X67651Y659279D01*
X67571Y659359D01*
X67494Y659442D01*
X67419Y659528D01*
X67348Y659616D01*
X67280Y659706D01*
X67215Y659799D01*
X67153Y659894D01*
X67095Y659991D01*
X67040Y660090D01*
X66989Y660191D01*
X66941Y660294D01*
X66896Y660398D01*
X66856Y660504D01*
X66819Y660611D01*
X66786Y660719D01*
X66756Y660829D01*
X66731Y660939D01*
X66709Y661050D01*
X66692Y661162D01*
X66678Y661275D01*
X66668Y661388D01*
X66662Y661501D01*
X66660Y661614D01*
X66661Y661614D02*
X66661Y664859D01*
X66663Y665002D01*
X66669Y665145D01*
X66679Y665288D01*
X66693Y665430D01*
X66710Y665572D01*
X66732Y665714D01*
X66757Y665855D01*
X66787Y665995D01*
X66820Y666134D01*
X66857Y666272D01*
X66898Y666409D01*
X66942Y666545D01*
X66991Y666680D01*
X67043Y666813D01*
X67098Y666945D01*
X67158Y667075D01*
X67221Y667204D01*
X67287Y667331D01*
X67357Y667455D01*
X67430Y667578D01*
X67507Y667699D01*
X67587Y667818D01*
X67670Y667934D01*
X67756Y668049D01*
X67845Y668160D01*
X67938Y668270D01*
X68033Y668376D01*
X68132Y668480D01*
X68233Y668581D01*
X68337Y668680D01*
X68443Y668775D01*
X68553Y668868D01*
X68664Y668957D01*
X68779Y669043D01*
X68895Y669126D01*
X69014Y669206D01*
X69135Y669283D01*
X69257Y669356D01*
X69382Y669426D01*
X69509Y669492D01*
X69638Y669555D01*
X69768Y669615D01*
X69900Y669670D01*
X70033Y669722D01*
X70168Y669771D01*
X70304Y669815D01*
X70441Y669856D01*
X70579Y669893D01*
X70718Y669926D01*
X70858Y669956D01*
X70999Y669981D01*
X71141Y670003D01*
X71283Y670020D01*
X71425Y670034D01*
X71568Y670044D01*
X71711Y670050D01*
X71854Y670052D01*
X45145Y626872D02*
X45145Y615188D01*
X45145Y626872D02*
X48390Y626872D01*
X48503Y626870D01*
X48616Y626864D01*
X48729Y626854D01*
X48842Y626840D01*
X48954Y626823D01*
X49065Y626801D01*
X49175Y626776D01*
X49285Y626746D01*
X49393Y626713D01*
X49500Y626676D01*
X49606Y626636D01*
X49710Y626591D01*
X49813Y626543D01*
X49914Y626492D01*
X50013Y626437D01*
X50110Y626379D01*
X50205Y626317D01*
X50298Y626252D01*
X50388Y626184D01*
X50476Y626113D01*
X50562Y626038D01*
X50645Y625961D01*
X50725Y625881D01*
X50802Y625798D01*
X50877Y625712D01*
X50948Y625624D01*
X51016Y625534D01*
X51081Y625441D01*
X51143Y625346D01*
X51201Y625249D01*
X51256Y625150D01*
X51307Y625049D01*
X51355Y624946D01*
X51400Y624842D01*
X51440Y624736D01*
X51477Y624629D01*
X51510Y624521D01*
X51540Y624411D01*
X51565Y624301D01*
X51587Y624190D01*
X51604Y624078D01*
X51618Y623965D01*
X51628Y623852D01*
X51634Y623739D01*
X51636Y623626D01*
X51634Y623513D01*
X51628Y623400D01*
X51618Y623287D01*
X51604Y623174D01*
X51587Y623062D01*
X51565Y622951D01*
X51540Y622841D01*
X51510Y622731D01*
X51477Y622623D01*
X51440Y622516D01*
X51400Y622410D01*
X51355Y622306D01*
X51307Y622203D01*
X51256Y622102D01*
X51201Y622003D01*
X51143Y621906D01*
X51081Y621811D01*
X51016Y621718D01*
X50948Y621628D01*
X50877Y621540D01*
X50802Y621454D01*
X50725Y621371D01*
X50645Y621291D01*
X50562Y621214D01*
X50476Y621139D01*
X50388Y621068D01*
X50298Y621000D01*
X50205Y620935D01*
X50110Y620873D01*
X50013Y620815D01*
X49914Y620760D01*
X49813Y620709D01*
X49710Y620661D01*
X49606Y620616D01*
X49500Y620576D01*
X49393Y620539D01*
X49285Y620506D01*
X49175Y620476D01*
X49065Y620451D01*
X48954Y620429D01*
X48842Y620412D01*
X48729Y620398D01*
X48616Y620388D01*
X48503Y620382D01*
X48390Y620380D01*
X48390Y620381D02*
X45145Y620381D01*
X49039Y620381D02*
X51636Y615188D01*
X56501Y624276D02*
X59746Y626872D01*
X59746Y615188D01*
X56501Y615188D02*
X62992Y615188D01*
X74422Y623951D02*
X74420Y624058D01*
X74414Y624164D01*
X74404Y624270D01*
X74391Y624376D01*
X74373Y624482D01*
X74352Y624586D01*
X74327Y624690D01*
X74298Y624793D01*
X74266Y624894D01*
X74229Y624994D01*
X74189Y625093D01*
X74146Y625191D01*
X74099Y625287D01*
X74048Y625381D01*
X73994Y625473D01*
X73937Y625563D01*
X73877Y625651D01*
X73813Y625736D01*
X73746Y625819D01*
X73676Y625900D01*
X73604Y625978D01*
X73528Y626054D01*
X73450Y626126D01*
X73369Y626196D01*
X73286Y626263D01*
X73201Y626327D01*
X73113Y626387D01*
X73023Y626444D01*
X72931Y626498D01*
X72837Y626549D01*
X72741Y626596D01*
X72643Y626639D01*
X72544Y626679D01*
X72444Y626716D01*
X72343Y626748D01*
X72240Y626777D01*
X72136Y626802D01*
X72032Y626823D01*
X71926Y626841D01*
X71820Y626854D01*
X71714Y626864D01*
X71608Y626870D01*
X71501Y626872D01*
X71380Y626870D01*
X71259Y626864D01*
X71139Y626854D01*
X71018Y626841D01*
X70899Y626823D01*
X70779Y626802D01*
X70661Y626777D01*
X70544Y626748D01*
X70427Y626715D01*
X70312Y626679D01*
X70198Y626638D01*
X70085Y626595D01*
X69973Y626547D01*
X69864Y626496D01*
X69756Y626441D01*
X69649Y626383D01*
X69545Y626322D01*
X69443Y626257D01*
X69343Y626189D01*
X69245Y626118D01*
X69149Y626044D01*
X69056Y625967D01*
X68966Y625886D01*
X68878Y625803D01*
X68793Y625717D01*
X68710Y625628D01*
X68631Y625537D01*
X68554Y625443D01*
X68481Y625347D01*
X68411Y625249D01*
X68344Y625148D01*
X68280Y625045D01*
X68220Y624940D01*
X68163Y624833D01*
X68109Y624725D01*
X68059Y624615D01*
X68013Y624503D01*
X67970Y624390D01*
X67931Y624275D01*
X73449Y621679D02*
X73528Y621756D01*
X73604Y621837D01*
X73677Y621920D01*
X73747Y622005D01*
X73814Y622093D01*
X73878Y622183D01*
X73938Y622275D01*
X73995Y622370D01*
X74049Y622466D01*
X74100Y622564D01*
X74147Y622664D01*
X74191Y622766D01*
X74231Y622869D01*
X74267Y622973D01*
X74299Y623079D01*
X74328Y623185D01*
X74353Y623293D01*
X74375Y623401D01*
X74392Y623511D01*
X74406Y623620D01*
X74415Y623730D01*
X74421Y623841D01*
X74423Y623951D01*
X73448Y621679D02*
X67931Y615188D01*
X74422Y615188D01*
X204978Y525272D02*
X204978Y513588D01*
X204978Y525272D02*
X208224Y525272D01*
X208337Y525270D01*
X208450Y525264D01*
X208563Y525254D01*
X208676Y525240D01*
X208788Y525223D01*
X208899Y525201D01*
X209009Y525176D01*
X209119Y525146D01*
X209227Y525113D01*
X209334Y525076D01*
X209440Y525036D01*
X209544Y524991D01*
X209647Y524943D01*
X209748Y524892D01*
X209847Y524837D01*
X209944Y524779D01*
X210039Y524717D01*
X210132Y524652D01*
X210222Y524584D01*
X210310Y524513D01*
X210396Y524438D01*
X210479Y524361D01*
X210559Y524281D01*
X210636Y524198D01*
X210711Y524112D01*
X210782Y524024D01*
X210850Y523934D01*
X210915Y523841D01*
X210977Y523746D01*
X211035Y523649D01*
X211090Y523550D01*
X211141Y523449D01*
X211189Y523346D01*
X211234Y523242D01*
X211274Y523136D01*
X211311Y523029D01*
X211344Y522921D01*
X211374Y522811D01*
X211399Y522701D01*
X211421Y522590D01*
X211438Y522478D01*
X211452Y522365D01*
X211462Y522252D01*
X211468Y522139D01*
X211470Y522026D01*
X211468Y521913D01*
X211462Y521800D01*
X211452Y521687D01*
X211438Y521574D01*
X211421Y521462D01*
X211399Y521351D01*
X211374Y521241D01*
X211344Y521131D01*
X211311Y521023D01*
X211274Y520916D01*
X211234Y520810D01*
X211189Y520706D01*
X211141Y520603D01*
X211090Y520502D01*
X211035Y520403D01*
X210977Y520306D01*
X210915Y520211D01*
X210850Y520118D01*
X210782Y520028D01*
X210711Y519940D01*
X210636Y519854D01*
X210559Y519771D01*
X210479Y519691D01*
X210396Y519614D01*
X210310Y519539D01*
X210222Y519468D01*
X210132Y519400D01*
X210039Y519335D01*
X209944Y519273D01*
X209847Y519215D01*
X209748Y519160D01*
X209647Y519109D01*
X209544Y519061D01*
X209440Y519016D01*
X209334Y518976D01*
X209227Y518939D01*
X209119Y518906D01*
X209009Y518876D01*
X208899Y518851D01*
X208788Y518829D01*
X208676Y518812D01*
X208563Y518798D01*
X208450Y518788D01*
X208337Y518782D01*
X208224Y518780D01*
X208224Y518781D02*
X204978Y518781D01*
X208873Y518781D02*
X211469Y513588D01*
X216334Y522676D02*
X219580Y525272D01*
X219580Y513588D01*
X222825Y513588D02*
X216334Y513588D01*
X227764Y513588D02*
X231010Y513588D01*
X231123Y513590D01*
X231236Y513596D01*
X231349Y513606D01*
X231462Y513620D01*
X231574Y513637D01*
X231685Y513659D01*
X231795Y513684D01*
X231905Y513714D01*
X232013Y513747D01*
X232120Y513784D01*
X232226Y513824D01*
X232330Y513869D01*
X232433Y513917D01*
X232534Y513968D01*
X232633Y514023D01*
X232730Y514081D01*
X232825Y514143D01*
X232918Y514208D01*
X233008Y514276D01*
X233096Y514347D01*
X233182Y514422D01*
X233265Y514499D01*
X233345Y514579D01*
X233422Y514662D01*
X233497Y514748D01*
X233568Y514836D01*
X233636Y514926D01*
X233701Y515019D01*
X233763Y515114D01*
X233821Y515211D01*
X233876Y515310D01*
X233927Y515411D01*
X233975Y515514D01*
X234020Y515618D01*
X234060Y515724D01*
X234097Y515831D01*
X234130Y515939D01*
X234160Y516049D01*
X234185Y516159D01*
X234207Y516270D01*
X234224Y516382D01*
X234238Y516495D01*
X234248Y516608D01*
X234254Y516721D01*
X234256Y516834D01*
X234254Y516947D01*
X234248Y517060D01*
X234238Y517173D01*
X234224Y517286D01*
X234207Y517398D01*
X234185Y517509D01*
X234160Y517619D01*
X234130Y517729D01*
X234097Y517837D01*
X234060Y517944D01*
X234020Y518050D01*
X233975Y518154D01*
X233927Y518257D01*
X233876Y518358D01*
X233821Y518457D01*
X233763Y518554D01*
X233701Y518649D01*
X233636Y518742D01*
X233568Y518832D01*
X233497Y518920D01*
X233422Y519006D01*
X233345Y519089D01*
X233265Y519169D01*
X233182Y519246D01*
X233096Y519321D01*
X233008Y519392D01*
X232918Y519460D01*
X232825Y519525D01*
X232730Y519587D01*
X232633Y519645D01*
X232534Y519700D01*
X232433Y519751D01*
X232330Y519799D01*
X232226Y519844D01*
X232120Y519884D01*
X232013Y519921D01*
X231905Y519954D01*
X231795Y519984D01*
X231685Y520009D01*
X231574Y520031D01*
X231462Y520048D01*
X231349Y520062D01*
X231236Y520072D01*
X231123Y520078D01*
X231010Y520080D01*
X231659Y525272D02*
X227764Y525272D01*
X231659Y525272D02*
X231760Y525270D01*
X231860Y525264D01*
X231960Y525254D01*
X232060Y525241D01*
X232159Y525223D01*
X232258Y525202D01*
X232355Y525177D01*
X232452Y525148D01*
X232547Y525115D01*
X232641Y525079D01*
X232733Y525039D01*
X232824Y524996D01*
X232913Y524949D01*
X233000Y524899D01*
X233086Y524845D01*
X233169Y524788D01*
X233249Y524728D01*
X233328Y524665D01*
X233404Y524598D01*
X233477Y524529D01*
X233547Y524457D01*
X233615Y524383D01*
X233680Y524306D01*
X233741Y524226D01*
X233800Y524144D01*
X233855Y524060D01*
X233907Y523974D01*
X233956Y523886D01*
X234001Y523796D01*
X234043Y523704D01*
X234081Y523611D01*
X234115Y523516D01*
X234146Y523421D01*
X234173Y523324D01*
X234196Y523226D01*
X234216Y523127D01*
X234231Y523027D01*
X234243Y522927D01*
X234251Y522827D01*
X234255Y522726D01*
X234255Y522626D01*
X234251Y522525D01*
X234243Y522425D01*
X234231Y522325D01*
X234216Y522225D01*
X234196Y522126D01*
X234173Y522028D01*
X234146Y521931D01*
X234115Y521836D01*
X234081Y521741D01*
X234043Y521648D01*
X234001Y521556D01*
X233956Y521466D01*
X233907Y521378D01*
X233855Y521292D01*
X233800Y521208D01*
X233741Y521126D01*
X233680Y521046D01*
X233615Y520969D01*
X233547Y520895D01*
X233477Y520823D01*
X233404Y520754D01*
X233328Y520687D01*
X233249Y520624D01*
X233169Y520564D01*
X233086Y520507D01*
X233000Y520453D01*
X232913Y520403D01*
X232824Y520356D01*
X232733Y520313D01*
X232641Y520273D01*
X232547Y520237D01*
X232452Y520204D01*
X232355Y520175D01*
X232258Y520150D01*
X232159Y520129D01*
X232060Y520111D01*
X231960Y520098D01*
X231860Y520088D01*
X231760Y520082D01*
X231659Y520080D01*
X231659Y520079D02*
X229063Y520079D01*
X215392Y212785D02*
X203708Y212785D01*
X203708Y216030D01*
X203710Y216143D01*
X203716Y216256D01*
X203726Y216369D01*
X203740Y216482D01*
X203757Y216594D01*
X203779Y216705D01*
X203804Y216815D01*
X203834Y216925D01*
X203867Y217033D01*
X203904Y217140D01*
X203944Y217246D01*
X203989Y217350D01*
X204037Y217453D01*
X204088Y217554D01*
X204143Y217653D01*
X204201Y217750D01*
X204263Y217845D01*
X204328Y217938D01*
X204396Y218028D01*
X204467Y218116D01*
X204542Y218202D01*
X204619Y218285D01*
X204699Y218365D01*
X204782Y218442D01*
X204868Y218517D01*
X204956Y218588D01*
X205046Y218656D01*
X205139Y218721D01*
X205234Y218783D01*
X205331Y218841D01*
X205430Y218896D01*
X205531Y218947D01*
X205634Y218995D01*
X205738Y219040D01*
X205844Y219080D01*
X205951Y219117D01*
X206059Y219150D01*
X206169Y219180D01*
X206279Y219205D01*
X206390Y219227D01*
X206502Y219244D01*
X206615Y219258D01*
X206728Y219268D01*
X206841Y219274D01*
X206954Y219276D01*
X207067Y219274D01*
X207180Y219268D01*
X207293Y219258D01*
X207406Y219244D01*
X207518Y219227D01*
X207629Y219205D01*
X207739Y219180D01*
X207849Y219150D01*
X207957Y219117D01*
X208064Y219080D01*
X208170Y219040D01*
X208274Y218995D01*
X208377Y218947D01*
X208478Y218896D01*
X208577Y218841D01*
X208674Y218783D01*
X208769Y218721D01*
X208862Y218656D01*
X208952Y218588D01*
X209040Y218517D01*
X209126Y218442D01*
X209209Y218365D01*
X209289Y218285D01*
X209366Y218202D01*
X209441Y218116D01*
X209512Y218028D01*
X209580Y217938D01*
X209645Y217845D01*
X209707Y217750D01*
X209765Y217653D01*
X209820Y217554D01*
X209871Y217453D01*
X209919Y217350D01*
X209964Y217246D01*
X210004Y217140D01*
X210041Y217033D01*
X210074Y216925D01*
X210104Y216815D01*
X210129Y216705D01*
X210151Y216594D01*
X210168Y216482D01*
X210182Y216369D01*
X210192Y216256D01*
X210198Y216143D01*
X210200Y216030D01*
X210199Y216030D02*
X210199Y212785D01*
X210199Y216679D02*
X215392Y219276D01*
X206304Y224141D02*
X203708Y227386D01*
X215392Y227386D01*
X215392Y224141D02*
X215392Y230632D01*
X212796Y235571D02*
X203708Y238167D01*
X212796Y235571D02*
X212796Y242062D01*
X210199Y240115D02*
X215392Y240115D01*
M02*
