G04 EAGLE Gerber RS-274X export*
G75*
%MOMM*%
%FSLAX34Y34*%
%LPD*%
%INSolderpaste Top*%
%IPPOS*%
%AMOC8*
5,1,8,0,0,1.08239X$1,22.5*%
G01*
%ADD10R,1.300000X1.500000*%
%ADD11R,1.500000X1.300000*%
%ADD12R,1.200000X1.200000*%
%ADD13R,1.200000X1.500000*%
%ADD14R,2.000000X0.900000*%
%ADD15R,2.000000X1.300000*%
%ADD16R,2.000000X2.000000*%
%ADD17R,4.191000X1.778000*%
%ADD18R,4.191000X2.667000*%


D10*
X530200Y604520D03*
X511200Y604520D03*
D11*
X190500Y420980D03*
X190500Y401980D03*
X190500Y330860D03*
X190500Y349860D03*
X414020Y374040D03*
X414020Y393040D03*
D10*
X530200Y530860D03*
X511200Y530860D03*
D11*
X220980Y591160D03*
X220980Y572160D03*
X218440Y160680D03*
X218440Y179680D03*
D12*
X88900Y99400D03*
X88900Y78400D03*
D13*
X88900Y498580D03*
X88900Y527580D03*
X116840Y527580D03*
X116840Y498580D03*
X88900Y255800D03*
X88900Y226800D03*
X116840Y226800D03*
X116840Y255800D03*
D11*
X147320Y508660D03*
X147320Y527660D03*
X147320Y245720D03*
X147320Y226720D03*
D10*
X144120Y706120D03*
X125120Y706120D03*
X144120Y45720D03*
X125120Y45720D03*
D11*
X88900Y141580D03*
X88900Y122580D03*
X88900Y562000D03*
X88900Y581000D03*
X88900Y189840D03*
X88900Y170840D03*
D14*
X145640Y585500D03*
D15*
X189640Y571500D03*
D14*
X145640Y557500D03*
X144370Y194340D03*
D15*
X188370Y180340D03*
D14*
X144370Y166340D03*
D16*
X68580Y401320D03*
X68580Y350520D03*
X159380Y401320D03*
X159380Y350520D03*
X464820Y426720D03*
X464820Y393620D03*
X555620Y401320D03*
X555620Y350520D03*
X464820Y358220D03*
X464820Y325120D03*
D17*
X21154Y401320D03*
D18*
X21154Y436266D03*
X21154Y366374D03*
D17*
X618926Y401320D03*
D18*
X618926Y366374D03*
X618926Y436266D03*
D12*
X88900Y654980D03*
X88900Y675980D03*
D11*
X88900Y610260D03*
X88900Y629260D03*
X190500Y508660D03*
X190500Y527660D03*
X190500Y245720D03*
X190500Y226720D03*
M02*
