M48
;GenerationSoftware,Autodesk,EAGLE,9.4.2*%
;CreationDate,2020-02-04T19:22:25Z*%
FMAT,2
ICI,OFF
METRIC,TZ,000.000
T7C0.813
T6C1.000
T5C1.118
T4C1.194
T3C1.321
T2C3.000
T1C3.302
%
G90
M71
T1
X29718Y68072
X29718Y6858
T2
X4000Y4000
X61202Y4000
X4000Y71000
X61202Y71000
T3
X51029Y68580
X46025Y68580
T4
X34798Y42672
X29718Y42672
X29718Y32512
X34798Y32512
T5
X27178Y50546
X29718Y50546
X32258Y50546
X32258Y24384
X29718Y24384
X27178Y24384
T6
X4064Y24130
X35306Y52324
X22606Y37592
X35814Y23114
X3810Y51308
T7
X14478Y12446
X14478Y7366
X14478Y9906
X14478Y62992
X14478Y68072
X14478Y65532
M30